<?xml version="1.0" standalone="no"?>
<!DOCTYPE svg PUBLIC "-//W3C//DTD SVG 20010904//EN"
 "http://www.w3.org/TR/2001/REC-SVG-20010904/DTD/svg10.dtd">
<svg version="1.0" xmlns="http://www.w3.org/2000/svg"
 width="260.000000pt" height="260.000000pt" viewBox="0 0 260.000000 260.000000"
 preserveAspectRatio="xMidYMid meet">
<metadata>
Created by potrace 1.14, written by Peter Selinger 2001-2017
</metadata>
<g transform="translate(0.000000,260.000000) scale(0.100000,-0.100000)"
fill="#000000" stroke="none">
<path d="M285 2041 c-35 -8 -36 -1 7 -166 17 -66 34 -136 38 -155 4 -19 20
-80 35 -135 43 -158 86 -325 104 -405 5 -19 23 -89 40 -155 18 -66 38 -145 45
-175 28 -119 51 -200 57 -200 4 0 9 10 12 23 3 12 19 74 36 137 17 63 31 123
31 133 0 11 6 33 14 50 16 37 61 219 71 290 7 45 -14 178 -35 217 -4 9 -11 36
-15 60 -4 25 -11 53 -16 62 -5 9 -16 47 -24 85 -9 37 -25 102 -36 143 -11 41
-25 95 -30 120 -14 69 -19 72 -170 75 -74 1 -147 -1 -164 -4z"/>
<path d="M1163 2043 c-8 -3 -10 -21 -7 -56 7 -62 20 -99 51 -148 13 -19 28
-64 35 -100 6 -35 26 -98 45 -139 45 -98 50 -110 57 -141 3 -14 22 -46 41 -72
20 -26 47 -70 62 -99 14 -29 29 -55 32 -58 3 -3 20 -31 36 -63 17 -31 44 -75
61 -97 35 -44 38 -42 55 30 4 19 17 72 29 118 26 100 27 97 -60 427 -34 127
-69 263 -79 303 -10 41 -23 78 -29 84 -10 10 -304 20 -329 11z"/>
<path d="M2032 2037 c-9 -10 -79 -261 -102 -367 -5 -19 -20 -78 -33 -130 -57
-215 -90 -339 -107 -405 -10 -38 -28 -106 -40 -150 -12 -44 -39 -147 -60 -230
-21 -82 -43 -166 -49 -185 -6 -19 -11 -50 -11 -67 l0 -33 164 0 c179 0 179 0
197 62 17 56 138 516 149 568 9 39 47 183 80 305 13 44 28 105 35 135 19 79
79 311 105 403 15 55 18 82 11 91 -14 17 -326 20 -339 3z"/>
<path d="M1126 2005 c-4 -11 -17 -56 -27 -100 -11 -44 -22 -89 -25 -100 -16
-57 -24 -112 -19 -132 4 -17 2 -21 -9 -17 -11 4 -17 -3 -21 -23 -4 -15 -11
-41 -15 -58 -18 -61 -19 -100 -5 -122 11 -16 12 -23 2 -26 -8 -4 -8 -6 2 -6
17 -1 50 -36 79 -83 12 -19 31 -45 42 -58 12 -14 24 -37 27 -52 3 -16 9 -28
14 -28 9 0 40 -65 37 -78 -1 -4 2 -15 6 -24 4 -10 6 -22 4 -29 -2 -6 -17 13
-32 42 -39 73 -92 153 -141 215 -22 28 -45 60 -51 70 -16 26 -32 9 -43 -46 -5
-25 -14 -66 -21 -91 -13 -43 -12 -48 10 -80 l24 -34 -26 23 -26 24 -15 -49
c-9 -26 -23 -79 -31 -118 -8 -38 -22 -95 -31 -125 -9 -30 -25 -93 -36 -140
-26 -119 -50 -203 -60 -216 -13 -16 5 -60 28 -68 34 -14 303 -13 314 0 9 11
74 248 99 359 21 94 52 224 67 275 8 30 19 69 23 85 22 79 27 90 42 93 12 2
19 -5 23 -25 3 -15 10 -41 16 -58 6 -16 15 -48 20 -70 6 -21 15 -45 20 -52 6
-7 8 -16 6 -20 -13 -21 42 -190 58 -176 4 5 3 -1 -3 -12 -6 -11 -7 -27 -2 -35
4 -8 11 -37 14 -63 4 -26 14 -63 22 -82 8 -19 14 -38 13 -41 0 -3 2 -8 4 -11
7 -6 30 65 30 94 -1 13 3 26 8 29 4 2 4 16 -1 29 -7 19 -6 23 4 19 9 -3 16 5
19 23 3 15 13 54 22 87 20 69 15 94 -26 138 -16 18 -43 58 -58 88 -63 122 -95
177 -131 225 -21 28 -41 66 -45 85 -11 50 -43 129 -65 160 -11 15 -24 57 -30
95 -10 63 -24 102 -39 115 -26 21 -46 73 -51 130 -4 48 -7 60 -14 45z m16
-669 c-3 -5 -9 -1 -13 10 -12 31 -10 39 5 19 8 -11 12 -24 8 -29z m98 -137
c18 -33 6 -42 -13 -9 -10 16 -14 30 -8 30 6 0 15 -9 21 -21z"/>
</g>
</svg>
