<svg width="14" height="15" viewBox="0 0 14 15" fill="none" xmlns="http://www.w3.org/2000/svg">
<path d="M10.9998 7.21594C10.669 7.21594 10.3998 7.48513 10.3998 7.81593V11.8159C10.3998 12.3672 9.95123 12.8158 9.39984 12.8158H2.19996C1.64857 12.8158 1.19998 12.3672 1.19998 11.8159V4.61598C1.19998 4.06459 1.64857 3.616 2.19996 3.616H6.1999C6.53069 3.616 6.79989 3.3468 6.79989 3.01601C6.79989 2.68521 6.53069 2.41602 6.1999 2.41602H2.19996C0.986983 2.41602 0 3.403 0 4.61598V11.8159C0 13.0288 0.986983 14.0158 2.19996 14.0158H9.39984C10.6128 14.0158 11.5998 13.0288 11.5998 11.8159V7.81593C11.5998 7.48513 11.3306 7.21594 10.9998 7.21594Z" fill="#666666"/>
<path d="M13.9925 0.52144L13.9889 0.50064C13.9857 0.483841 13.9817 0.469041 13.9785 0.457241C13.9773 0.452241 13.9759 0.447241 13.9745 0.442641C13.9711 0.431641 13.9673 0.420642 13.9633 0.409842L13.9617 0.405242C13.9595 0.398842 13.9571 0.392642 13.9543 0.385642C13.9513 0.378442 13.9479 0.371242 13.9445 0.364043L13.9415 0.357443C13.9375 0.348643 13.9333 0.340043 13.9283 0.330843C13.9255 0.325843 13.9227 0.320843 13.9199 0.316243C13.9135 0.305244 13.9065 0.293244 13.8969 0.278844C13.8953 0.276444 13.8935 0.274044 13.8917 0.271644C13.8711 0.242045 13.8483 0.214845 13.8243 0.190645C13.8001 0.166446 13.7727 0.143646 13.7435 0.123247C13.7407 0.121247 13.7379 0.119247 13.7347 0.117047C13.7209 0.107847 13.7083 0.100447 13.6991 0.0952471C13.6941 0.0922471 13.6893 0.0894472 13.6831 0.0860472C13.6747 0.0816473 13.6663 0.0774474 13.6577 0.0736474L13.6515 0.0706475C13.6443 0.0672475 13.6369 0.0636476 13.6289 0.0604477C13.6227 0.0578477 13.6163 0.0556477 13.6099 0.0532478L13.6067 0.0520478C13.5955 0.0478479 13.5841 0.0438479 13.5725 0.040248C13.5679 0.038848 13.5633 0.037648 13.5585 0.0364481C13.5061 0.0220483 13.4527 0.0146484 13.3999 0.0146484H9.39999C9.06919 0.0146484 8.8 0.283844 8.8 0.614638C8.8 0.945433 9.06919 1.21463 9.39999 1.21463H11.9513L4.97606 8.19091C4.74207 8.42491 4.74207 8.8055 4.97606 9.0395C5.08946 9.15289 5.24006 9.21529 5.40026 9.21529C5.56045 9.21529 5.71105 9.15289 5.82445 9.0395L12.8001 2.06381V4.61517C12.8001 4.94597 13.0693 5.21516 13.4001 5.21516C13.7309 5.21516 14.0001 4.94597 14.0001 4.61517V0.615238C14.0001 0.584239 13.9975 0.552839 13.9925 0.52144Z" fill="#666666"/>
</svg>
