<svg viewBox="0 0 42 30.7" xmlns="http://www.w3.org/2000/svg"><g fill="#fff"><path d="m40.1 0h-38.2c-1.1 0-1.9.8-1.9 1.9v26.9c0 1 .8 1.9 1.9 1.9h38.2c1 0 1.9-.8 1.9-1.9v-26.9c0-1-.8-1.9-1.9-1.9zm.9 28.8c0 .5-.4.9-.9.9h-38.2c-.5 0-.9-.4-.9-.9v-26.9c0-.5.4-.9.9-.9h38.2c.5 0 .9.4.9.9z"/><path d="m40.1 1h-38.2c-.5 0-.9.4-.9.9v26.9c0 .5.4.9.9.9h38.2c.5 0 .9-.4.9-.9v-26.9c0-.5-.4-.9-.9-.9zm-.1 27.7h-38v-26.7h38z"/><path d="m19.2 21.4c.5.5 1.1.8 1.8.8.7 0 1.3-.3 1.8-.8l14-14.9c.4-.4.4-1 0-1.4s-1-.4-1.4 0l-14 14.9c-.1.1-.2.1-.3.1s-.2 0-.3-.1l-14.1-14.9c-.4-.4-1-.4-1.4 0s-.4 1 0 1.4l14 14.9z"/></g></svg>