<svg viewBox="0 0 34.1 41" xmlns="http://www.w3.org/2000/svg"><g fill="#fff"><path d="m6.9 11.2h6.9c.6 0 1-.4 1-1s-.4-1-1-1h-6.9c-.6 0-1 .4-1 1s.4 1 1 1z"/><path d="m17.4 29.3c.6 0 1-.4 1-1s-.4-1-1-1h-10.5c-.6 0-1 .4-1 1s.4 1 1 1z"/><path d="m23.1 13.7h-16.2c-.6 0-1 .4-1 1s.4 1 1 1h16.3c.6 0 1-.4 1-1s-.4-1-1-1z"/><path d="m23.1 18.2h-16.2c-.6 0-1 .4-1 1s.4 1 1 1h16.3c.6 0 1-.4 1-1s-.4-1-1-1z"/><path d="m24.1 23.7c0-.6-.4-1-1-1h-16.2c-.6 0-1 .4-1 1s.4 1 1 1h16.3c.6 0 1-.4 1-1z"/><path d="m20.8 35.9h-17.2c-.9 0-1.6-.7-1.6-1.6v-30.7c0-.9.7-1.6 1.6-1.6h14.5c.7 0 1.4.3 2 .8l6.5 6.3h-4.3c-.4 0-.8-.2-1.1-.5s-.5-.7-.5-1.1v-2.5c0-.6-.4-1-1-1-.6 0-1 .4-1 1v2.5c0 1 .4 1.9 1 2.5s1.6 1.1 2.5 1.1h5.7v.4l-.3 11.5c0 .6.4 1 1 1s1-.4 1-1l.3-11.5c0-.6-.1-1.2-.4-1.8-.2-.5-.5-.9-.9-1.3l-7.2-7c-.9-.9-2.1-1.4-3.4-1.4h-14.4c-2 0-3.6 1.6-3.6 3.6v30.7c0 2 1.6 3.6 3.6 3.6h17.2c.6 0 1-.4 1-1s-.4-1-1-1z"/><path d="m31.5 27.6c0-.9-.8-1.7-1.7-1.7h-2.3c-.9 0-1.7.8-1.7 1.7v7h-2.6l5.4 6.4 5.4-6.4h-2.6v-7z"/></g></svg>