<svg width="16" height="142" viewBox="0 0 16 142" fill="none" xmlns="http://www.w3.org/2000/svg">
<path d="M1.264 2.2396L2.096 0.943597C3.168 1.1996 4.688 1.7116 5.488 2.0956L4.624 3.5516C3.888 3.1516 2.368 2.5756 1.264 2.2396ZM0.56 4.9596C1.744 4.7356 3.472 4.3196 5.168 3.9356L5.344 5.4396C3.952 5.8556 2.48 6.2876 1.28 6.6236L0.56 4.9596ZM7.648 1.7756H13.792V3.1196H6.576L7.648 1.7756ZM13.344 1.7756H13.616L13.904 1.7116L15.168 2.0316C14.752 2.9116 14.176 3.8716 13.648 4.4636L12.16 4.0156C12.592 3.5036 13.072 2.6716 13.344 1.9836V1.7756ZM9.28 2.3356H11.008C10.688 4.6236 9.792 5.9996 6.208 6.7196C6.048 6.3356 5.648 5.6956 5.328 5.3596C8.416 4.8796 9.04 3.9516 9.28 2.3356ZM10.896 2.7516C11.168 3.9356 11.872 4.9756 15.504 5.3916C15.152 5.7756 14.736 6.4956 14.56 6.9756C10.56 6.3356 9.776 4.5916 9.36 2.8956L10.896 2.7516ZM7.6 0.703597L9.28 0.975597C8.656 2.2556 7.872 3.4236 6.656 4.4156C6.32 4.0796 5.664 3.6796 5.216 3.5036C6.384 2.7036 7.168 1.6316 7.6 0.703597ZM4.592 9.4076V10.0956H11.552V9.4076H4.592ZM4.592 11.1836V11.8876H11.552V11.1836H4.592ZM4.592 7.6476V8.3196H11.552V7.6476H4.592ZM2.736 6.4956H13.488V13.0236H2.736V6.4956ZM8.896 13.8556L10.496 12.9436C12.176 13.5516 14.16 14.3516 15.296 14.9116L13.056 15.7756C12.16 15.2316 10.512 14.4636 8.896 13.8556ZM5.344 12.8956L7.104 13.6796C5.792 14.5276 3.712 15.3276 2.08 15.7916C1.744 15.4076 1.088 14.7036 0.656 14.3836C2.352 14.0636 4.256 13.5036 5.344 12.8956ZM3.024 18.7836H4.8V33.6956H3.024V18.7836ZM0.608 24.0316H7.168V25.8236H0.608V24.0316ZM2.688 24.9916L3.744 25.5036C3.232 27.6476 2.24 30.4316 1.184 31.9676C1.008 31.3756 0.592 30.5276 0.304 29.9836C1.264 28.7996 2.24 26.5756 2.688 24.9916ZM4.768 25.9196C5.232 26.3356 6.784 28.1916 7.136 28.6396L5.952 30.1436C5.536 29.2316 4.464 27.4556 3.888 26.6716L4.768 25.9196ZM0.576 20.0156L1.92 19.6636C2.336 20.8316 2.656 22.3516 2.736 23.3596L1.296 23.7436C1.264 22.7356 0.96 21.1836 0.576 20.0156ZM5.856 19.5836L7.472 19.9356C7.056 21.2316 6.576 22.7516 6.176 23.6956L4.976 23.3596C5.296 22.3356 5.68 20.7196 5.856 19.5836ZM11.904 18.6876H13.712V33.7116H11.904V18.6876ZM7.12 28.7036L15.344 27.2316L15.632 29.0076L7.424 30.4956L7.12 28.7036ZM8.032 20.8796L8.976 19.5676C9.872 20.1116 11.008 20.9116 11.536 21.5036L10.528 22.9596C10.048 22.3356 8.928 21.4556 8.032 20.8796ZM7.312 24.9116L8.208 23.5356C9.136 24.0316 10.336 24.7996 10.912 25.3916L9.952 26.9116C9.408 26.3196 8.24 25.4556 7.312 24.9116ZM12.464 37.3436C12.848 37.9196 13.392 38.8956 13.696 39.4716L12.432 40.0156C12.128 39.3756 11.648 38.4476 11.232 37.8556L12.464 37.3436ZM14.288 36.6396C14.688 37.2316 15.264 38.2076 15.552 38.7516L14.32 39.2956C13.984 38.6396 13.488 37.7436 13.072 37.1516L14.288 36.6396ZM6.656 43.1996C8.56 44.3036 11.424 46.2876 12.88 47.4396L11.392 49.2156C10.032 47.9356 7.072 45.7596 5.28 44.6236L6.656 43.1996ZM13.952 40.5756C13.776 40.8636 13.568 41.2796 13.44 41.6796C12.976 43.1196 12.016 45.0876 10.624 46.8316C9.168 48.6396 7.184 50.3836 4.208 51.5036L2.4 49.9356C5.648 48.9276 7.504 47.2956 8.832 45.7436C9.872 44.5116 10.832 42.7356 11.136 41.5196H5.872L6.608 39.7596H11.024C11.504 39.7596 12.032 39.6956 12.368 39.5836L13.952 40.5756ZM8.816 38.1756C8.448 38.7196 8.048 39.4236 7.872 39.7596C6.816 41.6316 4.832 44.0156 2.592 45.5516L0.912 44.2556C3.632 42.5756 5.072 40.4476 5.872 39.0876C6.096 38.7196 6.432 37.9996 6.576 37.4716L8.816 38.1756ZM9.12 55.2956C9.04 55.9676 9.008 56.2876 9.008 56.7356C9.008 57.1356 9.008 58.4476 9.008 59.1036H6.848C6.848 58.3516 6.848 57.1356 6.848 56.7356C6.848 56.2876 6.832 55.9676 6.72 55.2956H9.12ZM14.352 58.7196C14.224 59.0556 14.096 59.6476 14.048 59.9356C13.776 61.4236 13.36 62.9436 12.592 64.3516C11.36 66.6396 9.008 68.2876 6.256 69.0076L4.704 67.1836C5.392 67.0556 6.256 66.8316 6.896 66.5756C8.176 66.0956 9.552 65.1516 10.432 63.8876C11.216 62.7516 11.616 61.2636 11.808 59.8876H4.352C4.352 60.4316 4.352 61.6796 4.352 62.1596C4.352 62.4956 4.368 62.9916 4.416 63.3116H2.064C2.112 62.9276 2.144 62.4156 2.144 62.0156C2.144 61.5036 2.144 59.8876 2.144 59.3116C2.144 58.9596 2.128 58.3516 2.064 57.9676C2.592 58.0316 3.056 58.0476 3.664 58.0476H11.712C12.352 58.0476 12.736 57.9836 13.008 57.8716L14.352 58.7196ZM3.984 74.3676C5.056 75.1036 7.088 76.7196 7.984 77.6636L6.416 79.2956C5.6 78.4156 3.648 76.7196 2.512 75.9356L3.984 74.3676ZM2.032 84.7356C4.464 84.3836 6.48 83.5996 7.984 82.6876C10.64 81.1196 12.656 78.7516 13.648 76.6556L14.864 78.8476C13.68 80.9436 11.616 83.0876 9.104 84.5916C7.536 85.5356 5.536 86.4156 3.344 86.7836L2.032 84.7356ZM2.32 93.1036C2.96 93.1196 3.552 93.1356 3.968 93.1356C5.104 93.1356 11.024 93.1356 12.144 93.1356C12.528 93.1356 13.12 93.1356 13.68 93.1036C13.648 93.5676 13.648 94.1276 13.648 94.6076C13.648 95.5516 13.648 101.168 13.648 102.096C13.648 102.704 13.68 104.192 13.68 104.256H11.456C11.456 104.192 11.488 102.992 11.488 102.144C11.488 101.264 11.488 95.0556 11.488 95.0556H4.432C4.432 95.0556 4.432 101.248 4.432 102.144C4.432 102.88 4.432 104.176 4.448 104.256H2.304C2.32 104.176 2.352 102.816 2.352 102.08C2.352 101.152 2.352 95.5196 2.352 94.6076C2.352 94.1596 2.352 93.5356 2.32 93.1036ZM12.336 101.36V103.296H3.376V101.36H12.336ZM6.752 119.584C6.752 118.512 6.752 113.216 6.752 111.872C6.752 111.328 6.752 110.384 6.624 109.664C7.248 109.664 8.576 109.664 9.104 109.664C8.96 110.384 8.96 111.312 8.96 111.856C8.96 113.216 8.944 118.496 8.944 119.584C8.944 120.048 8.944 121.392 9.088 122.384C8.448 122.384 7.264 122.384 6.608 122.384C6.752 121.392 6.752 120.208 6.752 119.584ZM10.848 128.56C11.296 129.216 11.92 130.208 12.272 130.912L10.928 131.504C10.464 130.528 10.128 129.904 9.552 129.12L10.848 128.56ZM12.896 127.712C13.344 128.336 14 129.312 14.352 130.016L13.04 130.64C12.544 129.664 12.176 129.088 11.6 128.32L12.896 127.712ZM4.656 138.864C4.656 137.664 4.656 131.248 4.656 129.92C4.656 129.36 4.608 128.608 4.512 128.048H6.928C6.864 128.608 6.8 129.28 6.8 129.92C6.8 131.648 6.8 137.712 6.8 138.864C6.8 139.312 6.864 140.384 6.944 141.024H4.512C4.608 140.416 4.656 139.472 4.656 138.864ZM6.336 132.064C8.416 132.64 11.76 133.872 13.28 134.624L12.4 136.784C10.64 135.856 8.032 134.864 6.336 134.304V132.064Z" fill="white"/>
</svg>
