<?xml version="1.0" encoding="UTF-8"?><svg xmlns="http://www.w3.org/2000/svg" width="467.4" height="436.06" xmlns:xlink="http://www.w3.org/1999/xlink" viewBox="0 0 467.4 436.06"><defs><style>.cls-1,.cls-2{fill:none;}.cls-3{clip-path:url(#clippath);}.cls-4{fill:#0077c0;}.cls-5{fill:#edd6c0;}.cls-6{fill:#fff;}.cls-7{fill:#89c6ed;}.cls-8{fill:#8acfe3;}.cls-9{fill:#b3d1e2;}.cls-10{fill:#43a761;}.cls-11{fill:#87afdc;}.cls-12{fill:#84685d;}.cls-13{fill:#cfeaf7;mix-blend-mode:multiply;opacity:.36;}.cls-2{stroke:#0077c0;stroke-linecap:round;stroke-linejoin:round;stroke-width:5.52px;}.cls-14{isolation:isolate;}</style><clipPath id="clippath"><path class="cls-1" d="M265.22,411.12c-33.52,21.08-162.7,17.53-205.6-20.37C-2.15,336.17-26.17,173.52,37.67,123.29,124.62,54.89,90.17,16.95,187.91,1.58c67.58-10.63,119.28,33.57,168.03,97.1,65.42,85.27,20.15,77.75,.67,136.2-11.39,34.17,5.32,115.43-91.38,176.25Z"/></clipPath></defs><g class="cls-14"><g id="_レイヤー_2"><g id="_レイヤー_1-2"><path class="cls-13" d="M265.22,411.12c-33.52,21.08-162.7,17.53-205.6-20.37C-2.15,336.17-26.17,173.52,37.67,123.29,124.62,54.89,90.17,16.95,187.91,1.58c67.58-10.63,119.28,33.57,168.03,97.1,65.42,85.27,20.15,77.75,.67,136.2-11.39,34.17,5.32,115.43-91.38,176.25Z"/><g class="cls-3"><path class="cls-4" d="M262,214.79l-36.17-24.88s-25.7-14.4-36.74-14.88c-15.53-.68-22.37,2.86-22.37,2.86l-48.51,24.44c-3.93,1.98-7.21,5.05-9.46,8.83h0c-2.47,17.46,1.44,35.23,11.01,50.03l6.98,10.79s5.76,10.88,6.65,55.33-2.13,107.34-2.13,107.34c0,0,42.37,20.08,75.67,16.59,36.87-3.86,55.06-26.08,55.06-26.08,0,0-8.34-58.39-8.39-98.57s8.39-111.81,8.39-111.81Z"/></g><path class="cls-12" d="M135.29,77.26s1.11-14.56,31.38-22.86c15.48-4.24,28.47,5.74,31.55,10.31,7.59-2.32,26.37,10.14,31.38,30.22,5.01,20.08-21.98-8.86-26.33-7.96-4.35,.9-7.81,5.33-20.36,4.75-12.55-.58-30.83,14.28-32.57,22.43-1.74,8.14,22.96,61.19,23.64,68.27,.68,7.08-12.33,13.7-12.33,13.7,0,0,8-22.07-7.42-29.96-9.61-4.92-29.13-12.18-33.94-40.81-4.15-24.68,1.75-42.11,15-48.09Z"/><g><rect class="cls-9" x="37.35" y="236.92" width="4.93" height="16.43"/><rect class="cls-9" x="37.35" y="236.92" width="4.93" height="16.43" transform="translate(284.95 205.32) rotate(90)"/></g><g><rect class="cls-8" x="284.47" y="67.37" width="4.93" height="16.43"/><rect class="cls-8" x="284.47" y="67.37" width="4.93" height="16.43" transform="translate(362.53 -211.35) rotate(90)"/></g><g><rect class="cls-9" x="307.92" y="147.31" width="3.59" height="11.96"/><rect class="cls-9" x="307.92" y="147.31" width="3.59" height="11.95" transform="translate(463 -156.42) rotate(90)"/></g><circle class="cls-7" cx="80.51" cy="188.04" r="4.43"/><circle class="cls-7" cx="262" cy="140.65" r="3.23"/><circle class="cls-11" cx="67.69" cy="143.58" r="4.39"/><path class="cls-5" d="M216.81,167.5s-3.9,10.57,1.94,19.64c5.84,9.06,22.91,16.69,22.91,16.69,0,0-4.53,15.27-39.92,13.73-35.39-1.54-45-32.48-45-32.48,0,0,12.88-4.59,15.55-11.57,2.67-6.97-5.12-28.37-5.12-28.37,0,0,21.35,6.09,34.96,9.26,13.61,3.17,14.68,13.1,14.68,13.1Z"/><path class="cls-5" d="M222.48,121.97s3.37,24.29,2.76,30.85-7.51,25.95-18.72,29.44c-11.21,3.48-32.83-5.56-34.3-6.63s-4.35-7.19-7.76-10.76c-3.41-3.57-9.5-17.64-10.61-19.07-3.25,1.15-12.72,.24-15.03-6.62-2.31-6.86-1.03-15.98,4.02-18.25,5.05-2.28,5.61-1.38,5.61-1.38,0,0-7.19-34.58,9-43.61,16.19-9.03,54.74-18.3,65.03,46.04Z"/><path class="cls-12" d="M229.6,94.93c-3.16-22.72-75.37-49.05-81.84-16.46-2.33,11.72-4.54,32.45-3.12,41.69,.38,2.48,.68,3.98,.68,3.98,0,0,22.45,3.03,35.77-5.13,10.61-6.5,20.01-20.07,23.39-25.32,.28,.55,.56,1.11,.86,1.69,0,0,4.11,14.99,16.4,22.39,10.76-10.18,8.54-17.92,7.86-22.85Z"/><path class="cls-5" d="M149.28,122.18c1.12,1.8,2.25,4.35-.27,4.93-1.32,.3-4.21,1.53-5.1-.51s-2.02-5.83,.73-6.43,4.64,2.02,4.64,2.02Z"/><path class="cls-6" d="M222.32,191.37s-.06,9.03-11.55,11.32c-11.49,2.29-33.66-.46-49.29-19.7l-18.37,8.4,69.95,79.54,28.59-67.11-19.34-12.45Z"/><g><path class="cls-4" d="M430.06,66.5v17.07c-10.29,3.46-20.58,3.46-30.88,0v-17.07c0-6.02,3.41-11.19,8.44-13.75,1.94,1.47,4.41,2.32,7.02,2.32s5.03-.85,7.02-2.32c1.42,.71,2.75,1.66,3.89,2.8,2.8,2.85,4.51,6.69,4.51,10.96Z"/><circle class="cls-4" cx="414.63" cy="43.16" r="11.9"/><path class="cls-11" d="M467.4,173.27v17.07c-10.29,3.46-20.58,3.46-30.88,0v-17.07c0-6.02,3.41-11.19,8.44-13.75,1.94,1.47,4.41,2.32,7.02,2.32s5.03-.85,7.02-2.32c1.42,.71,2.75,1.66,3.89,2.8,2.8,2.85,4.51,6.69,4.51,10.96Z"/><circle class="cls-11" cx="451.96" cy="149.93" r="11.9"/><path class="cls-4" d="M392.49,173.27v17.07c-10.29,3.46-20.58,3.46-30.88,0v-17.07c0-6.02,3.41-11.19,8.44-13.75,1.94,1.47,4.41,2.32,7.02,2.32s5.03-.85,7.02-2.32c1.42,.71,2.75,1.66,3.89,2.8,2.8,2.85,4.51,6.69,4.51,10.96Z"/><circle class="cls-4" cx="377.05" cy="149.93" r="11.9"/><line class="cls-2" x1="377.05" y1="109.52" x2="451.96" y2="109.52"/><line class="cls-2" x1="414.5" y1="92.64" x2="414.5" y2="109.52"/><line class="cls-2" x1="377.05" y1="109.52" x2="377.05" y2="124.68"/><line class="cls-2" x1="451.96" y1="109.52" x2="451.96" y2="124.68"/></g><path class="cls-4" d="M313.85,196.11l-30.26-9.17-19.3,39.16-2.28-11.32c-17.99,20.56-26.31,69.33-26.31,69.33-2.98,7.93-2.77,16.71,.61,24.49l1.95,4.5c3.92,9.05,14.21,13.47,23.48,10.1h0c9.01-3.28,15.73-10.76,18.14-19.89h0s0-.02,0-.02c.29-1.09,.52-2.19,.68-3.32l33.3-103.87Z"/><path class="cls-4" d="M161.48,182.99s-2.49,1.76-.32,3.95c1.87,1.9,55.54,59.58,55.54,59.58l8.07-50.97c.24-1.53-.07-3.09-.89-4.4l-.62-1,19.4,13.67-29.59,68.11-70.95-80.54,18.26-9.22,1.1,.82Z"/><path class="cls-10" d="M360.71,359.64c-.04,.08-.08,.15-.12,.23-.05,.08-.09,.15-.13,.23-.18,.3-.38,.6-.59,.89-.1,.14-.21,.28-.32,.42-.28,.34-.58,.68-.9,.99-1.22,1.18-2.73,2.1-4.47,2.63l-63.98,19.51c-3.16,.97-5.21,4.15-4.53,7.38,.28,1.35,1.04,2.78,2.59,4.13,.29,.25,.63,.48,1.03,.7,.7,.3,1.39,.64,2.05,1.01,.03,0,.05,.02,.07,.03h0s0,0,0,0c4.75,2.68,8.45,7.26,9.85,13.08,2.22,9.27-2.4,18.78-10.66,22.98-1.02,.52-2.08,.95-3.2,1.3-10.83,3.35-22.32-2.75-25.62-13.58-1.59-5.23-.99-10.6,1.28-15.13h0s.03-.05,.04-.06c.34-.68,.72-1.35,1.14-1.99,.2-.41,.37-.79,.46-1.15,.53-1.98,.37-3.58-.15-4.87-1.24-3.06-4.72-4.56-7.87-3.6l-63.93,19.49c-1.74,.53-3.5,.61-5.18,.31-.44-.08-.87-.19-1.3-.31-.17-.05-.34-.11-.5-.17-.33-.12-.66-.26-.98-.41-.08-.04-.16-.08-.24-.11-.08-.04-.16-.09-.24-.13-2.5-1.33-4.49-3.62-5.38-6.54l-.06-.21-21.23-69.64c1.44-1.01,3.44-1.57,6.14-.85,.36,.1,.74,.26,1.15,.47,.64,.42,1.3,.8,1.99,1.14,.02,.01,.04,.02,.07,.04h0c4.53,2.26,9.9,2.86,15.13,1.27,10.84-3.31,16.93-14.79,13.58-25.62-3.16-10.22-13.87-16.36-24.28-13.86-5.82,1.39-10.39,5.09-13.08,9.84h0s-.03,.04-.04,.07c-.37,.67-.71,1.35-1.01,2.05-.22,.4-.45,.75-.7,1.03-1.84,2.11-3.81,2.75-5.56,2.72l-21.32-69.91-.06-.2c-.53-1.74-.61-3.5-.31-5.18,.08-.44,.19-.87,.32-1.3,.05-.17,.11-.34,.17-.5,.12-.33,.26-.66,.41-.98,.04-.08,.08-.16,.12-.24,.04-.08,.08-.16,.12-.24,1.33-2.5,3.62-4.49,6.54-5.38l63.99-19.51c3.15-.96,5.2-4.15,4.53-7.38-.28-1.35-1.04-2.78-2.59-4.13-.29-.25-.63-.48-1.03-.7-.71-.29-1.39-.63-2.05-1.01-.03-.01-.05-.03-.07-.03h0c-4.41-2.5-7.91-6.62-9.5-11.85-3.37-11.06,3.07-22.77,14.35-25.76,10.36-2.75,21.24,3.13,24.63,13.29,1.8,5.39,1.23,10.97-1.12,15.66h0s-.03,.04-.04,.07c-.35,.68-.72,1.35-1.14,1.99-.2,.4-.37,.78-.47,1.15-.53,1.98-.37,3.59,.16,4.87,1.24,3.06,4.72,4.56,7.87,3.59l63.92-19.49c1.19-.36,2.39-.51,3.56-.48,4.61,.13,8.83,3.18,10.26,7.84l19.44,63.77c.9,2.96,3.7,5.03,6.79,4.8,1.6-.11,3.34-.83,4.98-2.7,.25-.29,.48-.64,.7-1.03,.3-.7,.63-1.39,1.01-2.05,0-.03,.02-.05,.03-.08h0c2.14-3.77,5.47-6.88,9.68-8.7,.7-.3,1.42-.57,2.17-.8,10.81-3.3,22.25,2.79,25.55,13.61l.03,.1,.03,.1c3.3,10.81-2.8,22.24-13.61,25.54-5.23,1.59-10.6,.99-15.13-1.28h0s-.05-.02-.07-.03c-.68-.35-1.35-.72-1.99-1.14-.41-.21-.79-.37-1.15-.47-2.38-.64-4.21-.28-5.6,.51-2.72,1.53-3.9,4.82-3,7.8l19.36,63.5c.04,.13,.07,.26,.11,.39l.02,.05c.8,2.85,.41,5.77-.89,8.2Z"/><path class="cls-5" d="M304.17,179.1c-8.77-1.92-17.6-2.95-21.95,1.72-4,.56-8.73,2.79-8.91,6.48-.2,4.02,3.34,4.63,7.49,4.64,2.25,4.55,7.72,8.48,14.94,10.05,10.77,2.35,21.49,1.54,23.33-8.16,1.58-7.79-4.12-12.38-14.9-14.73Z"/><path class="cls-5" d="M139.77,353.3s11.2,16.82,23.98,15.37c10.27-1.17,24.4-1.92,26.87,7.04,2.47,8.96-12.17,.72-16.32,5.15-.43,12.88,30.08,11.47,35.71,24.17,3.39,7.65-11.69,12.3-24.97,12.61-13.83,.32-18.24-5.52-26.33-14.17-8.39-8.96-13.45-20.47-20.47-24.62-5.64-3.34-22.9-5.4-22.9-5.4,0,0-.11-9.69,6.21-14.56,6.33-4.87,18.22-5.59,18.22-5.59Z"/><path class="cls-4" d="M108.75,211.18s-36.23,78.54-39,83.39c-7.5,13.14-8.61,28.66,10.34,46.25,7.79,7.23,45.06,47.68,45.06,47.68l21.24-32.55-39.92-41.31c-.61-.56-.73-1.47-.29-2.17l20.55-40.47s3.33-18.49-.33-38.44-17.66-22.38-17.66-22.38Z"/></g></g></g></svg>