<?xml version="1.0" encoding="UTF-8"?><svg xmlns="http://www.w3.org/2000/svg" width="440.95" height="426.21" viewBox="0 0 440.95 426.21"><defs><style>.cls-1,.cls-2{fill:#0077c0;}.cls-3{fill:#edd6c0;}.cls-4{fill:#e4c2a2;}.cls-5{fill:#fff;}.cls-6{fill:#89c6ed;}.cls-7{fill:#8acfe3;}.cls-8{fill:#b3d1e2;}.cls-9{fill:#4294d1;}.cls-10{fill:#87afdc;}.cls-11{fill:#84685d;}.cls-2{stroke:#0060c0;stroke-linecap:round;}.cls-2,.cls-12{stroke-miterlimit:10;stroke-width:2px;}.cls-13{fill:#cfeaf7;mix-blend-mode:multiply;opacity:.36;}.cls-12{fill:none;stroke:#d5edfa;}.cls-14{isolation:isolate;}</style></defs><g class="cls-14"><g id="_レイヤー_2"><g id="_レイヤー_1-2"><path class="cls-13" d="M413.71,346.13c-55.2,55.2-104.93,66.51-174.25,66.51-91.12,0-163.61-6.43-202.18-55.65C-1.3,307.78,28.85,213.78,82.95,175.65,138.3,136.63,126.84,27.36,216.85,16.92c120.38-13.97,143.66,123.71,179.57,165.61,35.91,41.9,70.17,110.74,17.29,163.61Z"/><g><path class="cls-1" d="M110.34,0H51.47C23.04,0,0,23.04,0,51.47H0c0,28.43,23.04,51.47,51.47,51.47h25.98l55.37,32.72-19.72-32.79c27.14-1.43,48.71-23.89,48.71-51.4h0C161.81,23.04,138.77,0,110.34,0Z"/><g><path class="cls-5" d="M74.15,26.1c-4.14-2.97-8.47-1.91-9.12-1.27-.65,.64-7.19,11.35-7.19,11.35l14.96,7.39,6.84-11.03s-1.35-3.47-5.49-6.44Z"/><path class="cls-5" d="M82.47,42.45l15.58-.46,6.94-11.96-4.07,1.93s-2.93-6.38-5.47-8.25c-1.16-.86-3.05-1.45-6.22-1.69-3.77-.28-9.36-.05-17.67,.87,0,0,3.92,.91,7.89,5.02,3.96,4.11,7.38,11.95,7.38,11.95l-4.37,2.6Z"/><path class="cls-5" d="M50.79,62.88c4.46,2.44,10.25,1.34,10.25,1.34l5.36-9.23,4.45,2.24-8.12-13.37-16.11,.48,4.91,2.99-4.45,9.17s-.75,3.94,3.71,6.38Z"/><path class="cls-5" d="M58.17,66.21c-6.79,.1-9.86-3.67-9.86-3.67,0,0,5.77,10.45,8.23,13.26,2.46,2.81,5.31,5,9.59,5.08,4.28,.08,12.21-.36,12.21-.36l-.59-15.65s-12.78,1.26-19.57,1.36Z"/><path class="cls-5" d="M105.08,64.66c-6.37,.5-13.54,.4-13.54,.4l-1.08-4.92-6.92,12.58,7.88,12.76,.25-5.28s7.63,.2,10.39-.81c2.76-1.01,5.48-6.25,8.11-10.76,2.63-4.51,3.73-8.05,3.73-8.05,0,0-2.44,3.58-8.81,4.08Z"/><path class="cls-5" d="M101.17,62.1s5.31,1.28,9.8-1.43c4.49-2.71,4.22-6.83,4.22-6.83l-7.61-11.73-13.8,8.45,7.38,11.53Z"/></g></g><path class="cls-11" d="M267.42,229.96s-4.82-17.25-.52-29.65c4.3-12.4,24.56-39.88,22.72-60.1-1.84-20.22-2.57-36.73-15.4-49.62-12.82-12.9-15.62-14.08-22.37-12.26-5.02-7.46-20.64-5.5-27.4-3.81-6.76,1.69-31.94,15.59-37.76,42.54-5.82,26.96,2.18,49.52,9.7,62.81,7.53,13.28-4.73,36.72-4.73,36.72,0,0,20.87,15.09,32.4,15.88s43.35-2.52,43.35-2.52Z"/><path class="cls-1" d="M226.88,425.41c-23.83,0-22,4.54-29.98-8.09-2.99-4.74-5.82-9.42-16.24-9.64-18.81-.4-29.46-3.61-42.01-9.75-14.73-7.2-13.33-29.72-12.41-63.18,1.11-40.57,3.28-69.61,12.47-86.29,.75-1.36,1.78-2.54,3.02-3.49,16.07-12.37,28.77-14.79,41.26-26.43,12.97-12.08-1.55-17.87,47.97-17.87,26.3,0,37.6,6.66,37.6,6.66l27.5,16.8s21.6,12.06,38.38,22.85c2.41,1.55,3.99,4.08,4.37,6.92,3.14,23.28-11.1,121.79-15.53,151.36-.76,5.07-4.65,9.08-9.7,9.98-17.84,3.19-59.99,10.19-86.69,10.19Z"/><path class="cls-3" d="M230.95,226.66c30.94,0,32.1-17.53,32.1-17.53,0,0-11.96-4.33-15.36-10.35-3.4-6.02-1.88-21.59-1.88-21.59,0,0-3.23-5.67-14.86-5.67s-14.86,5.67-14.86,5.67c0,0,1.52,15.57-1.88,21.59-3.4,6.02-15.36,10.35-15.36,10.35,0,0,1.16,17.53,32.1,17.53Z"/><path class="cls-3" d="M268.17,129.72c-.08-13.38-7.58-32.32-26.73-32.21-35.25,.2-43.05,19.35-45.24,50.73-.67,9.53,4.64,45.04,29.62,46.56,31.09,1.9,41.07-30.2,41.47-36.94,0-.13,7.57-2.47,8.17-12.24,.62-10.18,.4-15.95-7.3-15.91Z"/><path class="cls-11" d="M242.94,115.03s-12.83,17.29-27.09,24.19c-9.63,4.65-19.53,7.43-19.53,7.43l-6.76-15.71,22.19-37.66,39.04-4.03-7.85,25.78Z"/><path class="cls-11" d="M240.31,109.64s4.12,30.87,37.6,40.06c4.57-11.04-2.51-45.03-2.51-45.03l-27.83-8.36-7.25,13.33Z"/><path class="cls-5" d="M198.86,209.12s4.67,12.53,32.1,12.53c21.32,0,32.1-12.53,32.1-12.53l29.75,21.51s-36.48,86.37-71.06,91.98c-34.59,5.61-54.93-83.96-54.93-83.96l32.05-29.53Z"/><path class="cls-12" d="M265.09,216.92s-7.89,13.53-37.44,12.18c-29.55-1.35-35.75-13.76-35.75-13.76"/><path class="cls-1" d="M268.55,207.32s-25.7,50.15-40.81,81.45c-.71,1.46-2.74,1.56-3.59,.17-4.01-6.58-8.15-13.7-10.57-18.72-5.76-11.97-20.84-61.1-20.84-61.1l-9.75,9.41-26.16,20.13,7.09,53.3,48.48,42.28c-2.21,16.73-1.9,32.35-1.9,32.35l54.44-47.65,28.74-91.08-25.13-20.53Z"/><path class="cls-4" d="M186.85,260.57s11.32-34.37,10.86-36.8c-.46-2.43-3.42-8.81-4.34-13.66-.91-4.85,2.4-9.62-.39-16.84-2.8-7.22-.93-16.61-3.08-21.7,1.8-.9,7.41,2.26,10.34,6.37,2.93,4.12,7.2,5.83,12.47,5.19s15.22,.73,14.73,13.38,.22,20.43-6.61,24.23c-6.82,3.8-8.03,17.31-8.06,22.34-.03,5.03-.2,22.64-.2,22.64,0,0-9.59,1.1-13.45-.33-3.86-1.43-12.27-4.83-12.27-4.83Z"/><path class="cls-3" d="M185.85,261.57s11.32-34.37,10.86-36.8c-.46-2.43-3.42-8.81-4.34-13.66-.91-4.85,2.5-11.54-.3-18.76-2.8-7.22-8.97-17.56-5.82-19.95,3.14-2.39,9.37,3.37,12.3,7.48,2.93,4.12,7.89,4.88,13.16,4.25s15.22,.73,14.73,13.38,.22,20.43-6.61,24.23c-6.82,3.8-6.28,18.12-6.31,23.15s.5,22.28,.5,22.28c0,0-12.04,.65-15.9-.77-3.86-1.43-12.27-4.83-12.27-4.83Z"/><path class="cls-2" d="M292.5,280.65c-2.91,21.78-4.54,63.61-7.09,88.23"/><path class="cls-2" d="M152.12,332.97s30.51-81.4,35.82-84.61c4.58-2.77,17.62,2.52,23.19,5.57s11.13,7.16,14.05,9.99c1.47,1.42,1.91,3.6,1.11,5.48l-56.81,134.24"/><path class="cls-3" d="M202.88,393.92s-10.34-2.48-18.71-3.55c-11.26-1.43-20.09-14.81-25.45-9.74s9.14,9.74,7.54,12.41c-3.66,6.1-16.53,1.52-24.39-1.88s-13.11-9.79-15.41-5.21c-2.3,4.58,11.51,18.27,27.6,21.73,18.07,3.88,25.83,4.77,37.42,2.37,7.92-1.64,21.02-3.37,21.02-3.37l-2.4-12.77h-7.22Z"/><path class="cls-2" d="M290.28,368.22s-20.66,3.44-48,7.43c-19.73,2.88-36.9,6.38-47.26,9.4-.71,.21-1.21,.86-1.25,1.6-.5,10.92,.77,17.94,1.62,24.03,.83,5.99,3.38,11.36,10.48,14.47"/><path class="cls-9" d="M336.22,99.75l.19-.27c2.32-3.31,6.88-4.11,10.18-1.79h0c3.31,2.32,4.11,6.87,1.79,10.18l-.19,.27c-2.32,3.31-6.88,4.11-10.18,1.79h0c-3.31-2.32-4.11-6.87-1.79-10.18Zm35.11-12.74c-9.64-.02-11.35,2.23-13.71,5.6l-.81,1.15c-.86,1.22-2.55,1.52-3.77,.66l-6.38-4.47c-1.22-.86-1.52-2.55-.66-3.77h0c6.34-9.04,11.76-9.61,21.04-10.77,6.87-.74,10.1-2.71,12.58-6.25,3.42-4.88,3.21-11.37-2.64-15.47-5.48-3.84-9.78-2.38-12.7-.12-2.69,2.07-6.45,2.04-9.23,.09h0c-4.63-3.25-4.46-10.13,.3-13.19,1.29-.83,2.76-1.6,4.45-2.26,10.25-4.05,19.89,1.25,24.41,4.42,12.23,8.58,17.29,22.3,8.65,34.63-4.17,5.94-9.72,9.71-21.53,9.77Z"/><g><rect class="cls-8" x="87.19" y="321.65" width="4.93" height="16.43"/><rect class="cls-8" x="87.19" y="321.65" width="4.93" height="16.43" transform="translate(419.51 240.21) rotate(90)"/></g><g><rect class="cls-7" x="61.25" y="244.5" width="4.93" height="16.43"/><rect class="cls-7" x="61.25" y="244.5" width="4.93" height="16.43" transform="translate(316.43 189) rotate(90)"/></g><g><rect class="cls-8" x="393.8" y="226.78" width="3.59" height="11.96"/><rect class="cls-8" x="393.8" y="226.78" width="3.59" height="11.95" transform="translate(628.35 -162.83) rotate(90)"/></g><circle class="cls-6" cx="372.53" cy="340.5" r="4.43"/><circle class="cls-6" cx="126.01" cy="203.94" r="3.23"/><circle class="cls-10" cx="330.41" cy="175.56" r="4.39"/></g></g></g></svg>