<?xml version="1.0" encoding="UTF-8"?><svg xmlns="http://www.w3.org/2000/svg" width="543.88" height="462.6" xmlns:xlink="http://www.w3.org/1999/xlink" viewBox="0 0 543.88 462.6"><defs><style>.cls-1,.cls-2{fill:none;}.cls-3{fill:#0060c0;}.cls-4{fill:#0077c0;}.cls-5{fill:#edd6c0;}.cls-6{fill:#fff;}.cls-7{fill:#ffed94;}.cls-8{fill:#ffce00;}.cls-9{fill:#89c6ed;}.cls-10{fill:#8acfe3;}.cls-11{fill:#9c9ea3;}.cls-12{fill:#b3d1e2;}.cls-13{fill:#43a761;}.cls-14{fill:#87afdc;}.cls-15{fill:#2a9b4c;}.cls-16{fill:#84685d;}.cls-17{clip-path:url(#clippath-1);}.cls-18{clip-path:url(#clippath-4);}.cls-19{clip-path:url(#clippath-5);}.cls-20{fill:#cfeaf7;mix-blend-mode:multiply;opacity:.36;}.cls-2{stroke:#0060c0;stroke-miterlimit:10;}.cls-21{isolation:isolate;}</style><clipPath id="clippath-1"><path class="cls-1" d="M288.76,462.6c-97.92,0-167.08-11.82-230.12-53.37C.12,370.66-34.77,246.38,53.33,196.41c96.22-54.59,41.99-105.02,130.05-150.13,54.54-27.93,173.64-6.05,207.51,66.51,46.56,99.76,172.92,101.09,150.31,238.1-9.77,59.19-108.77,111.71-252.43,111.71Z"/></clipPath><clipPath id="clippath-2"><path class="cls-1" d="M290.67,371c.08-.01,.11,.04,.19,.03s.08,0,.16-.02,.07-.03,.15-.04,.07-.04,.14-.05,.09,0,.17,0l.16-.02c.08-.01,.07-.03,.15-.05s.1,.03,.18,.02,.05-.07,.13-.08,.08-.01,.16-.02h.18s.15,.07,.15,.07l.12,.07,.18,.06v.12c0,.05-.03,.05-.03,.11s.07,.05,.08,.11-.08,.05-.07,.11,.05,.06,.06,.11,.04,.05,.05,.11-.01,.05,0,.11,.04,.05,.05,.11-.07,.05-.07,.11,0,.05,0,.11,.09,.05,.1,.11-.02,.05-.01,.11-.06,.05-.05,.11,.04,.05,.05,.11,.04,.05,.05,.11,.02,.05,.02,.11-.08,.05-.07,.1,.08,.05,.09,.11,.03,.05,.03,.11-.02,.05-.02,.11,.01,.05,.02,.11,.02,.05,.03,.11-.07,.05-.06,.11,.09,.05,.1,.11,.02,.05,.03,.11-.06,.05-.05,.11,0,.05,0,.11,.09,.05,.1,.11-.04,.05-.03,.11-.05,.05-.04,.1,.07,.05,.08,.11,.06,.05,.06,.11-.01,.05,0,.11-.02,.05-.02,.11,.05,.05,.06,.11-.1,.05-.09,.11,.1,.05,.11,.11-.08,.05-.07,.11,.04,.05,.05,.11,.05,.05,.06,.11-.06,.05-.05,.11,0,.05,0,.11,.04,.05,.05,.11,.04,.05,.05,.11-.04,.05-.03,.11,.05,.05,.06,.11-.04,.05-.03,.1,.06,.05,.06,.11-.07,.05-.06,.11,.1,.05,.1,.11-.05,.05-.04,.1,0,.05,0,.11-.01,.05,0,.11,0,.05,0,.11,.03,.05,.04,.11,.05,.05,.05,.11,.05,.05,.06,.11,0,.05,0,.11-.08,.05-.08,.1,.02,.05,.03,.11,.06,.05,.07,.11-.02,.05-.02,.11,.06,.05,.07,.11-.04,.05-.03,.11-.04,.05-.03,.11,.04,.05,.04,.11-.03,.05-.03,.1,0,.05,0,.11,.09,.05,.1,.11,0,.05,.02,.11,0,.05,.01,.11-.01,.05,0,.11-.02,.05-.01,.1,.03,.05,.04,.11,.01,.05,.02,.11,.03,.05,.03,.11-.04,.05-.03,.11-.01,.05,0,.11,.07,.05,.08,.11,.04,.05,.04,.11-.1,.05-.09,.1,.03,.05,.04,.11-.02,.05-.01,.1,.05,.05,.06,.11,.05,.05,.05,.11,.02,.05,.02,.11-.09,.05-.08,.1,.02,.05,.02,.11,.08,.06,.09,.11,.02,.05,.03,.11-.1,.05-.09,.1,.04,.05,.05,.11,.05,.05,.06,.11-.04,.05-.03,.11,.02,.05,.03,.11,.06,.05,.07,.11,.02,.05,.03,.11-.05,.05-.05,.1,.06,.05,.07,.11-.01,.05,0,.11,0,.05,0,.11-.04,.05-.04,.1-.02,.05-.02,.11,.06,.05,.07,.11,0,.05,0,.11,.02,.05,.03,.11,0,.05,0,.11-.01,.05,0,.11,.06,.05,.06,.11,.04,.05,.05,.11-.1,.05-.1,.11,0,.05,.01,.11,.1,.05,.1,.11-.08,.05-.07,.11,.07,.05,.08,.11-.04,.05-.04,.11,.05,.05,.06,.11-.04,.05-.04,.11,.02,.05,.02,.11,.02,.05,.03,.11-.02,.05,0,.11,.04,.05,.05,.11,.02,.05,.02,.11,0,.05,.02,.11,.05,.05,.06,.11-.02,.05-.01,.1,.04,.05,.05,.11-.03,.05-.02,.11-.02,.05-.01,.1,.08,.05,.09,.11-.09,.05-.08,.1,0,.05,.01,.11,.09,.05,.1,.11,0,.05,.02,.11,0,.05,0,.11-.03,.05-.03,.1,.02,.05,.03,.11-.02,.05-.02,.11,.03,.05,.03,.11-.05,.05-.04,.1,.03,.05,.04,.11,.04,.05,.05,.11,0,.05,0,.11,0,.05,0,.11,0,.05,0,.11l.02,.11c0,.05,0,.05,0,.11s.02,.05,.03,.11,.06,.05,.07,.11-.06,.05-.06,.1,.08,.05,.09,.11-.06,.05-.06,.11,.02,.05,.03,.11,.06,.05,.06,.11,.01,.05,.02,.11,0,.05,.01,.11,0,.05,0,.11-.04,.05-.03,.11,.04,.05,.05,.11v.11s-.1,.08-.1,.08v.12s-.14,.06-.14,.06l-.12,.08h-.18c-.08,0-.07,.03-.15,.04s-.08,0-.16,.01l-.16,.02c-.08,.01-.09,0-.17,0s-.07,.02-.15,.03-.06,.04-.14,.06-.1-.03-.18-.02-.05,.06-.13,.08-.08,.02-.15,.03l-.16,.02c-.08,.01-.07,.02-.15,.04s-.09-.01-.17,0-.1-.03-.18-.02-.06,.05-.14,.06-.07,.04-.14,.05-.11-.05-.19-.04-.06,.04-.14,.06-.08,.02-.16,.03-.09,0-.17,.01-.07,.03-.15,.04-.1-.03-.18-.01-.06,.04-.14,.05-.09,0-.17,0-.09,0-.17,.01-.06,.05-.14,.06-.09,0-.17,0-.07,.03-.15,.04-.06,.04-.14,.05-.09-.01-.17,0-.08,.02-.16,.03l-.18-.02h-.16s-.16-.03-.16-.03l-.14-.07-.18-.04-.08-.1s-.08-.04-.13-.08-.02-.06-.07-.1-.09-.03-.13-.08,.03-.07-.02-.12-.11-.03-.16-.07-.07-.04-.11-.09,.01-.07-.04-.11-.06-.04-.1-.09-.01-.06-.06-.11-.13-.02-.17-.07,0-.07-.04-.11-.11-.02-.16-.07,.03-.07-.02-.12-.12-.02-.16-.07-.02-.06-.07-.1,0-.06-.06-.11-.11-.02-.15-.07,.01-.07-.04-.11-.06-.04-.11-.09-.01-.06-.06-.1-.1-.03-.15-.07-.02-.06-.07-.1-.02-.06-.07-.1-.05-.04-.1-.09-.05-.04-.1-.09-.11-.03-.15-.07-.01-.06-.06-.11-.02-.06-.07-.1-.07-.04-.12-.08-.04-.05-.09-.1-.03-.05-.08-.1-.1-.03-.15-.07-.02-.06-.07-.1-.07-.04-.12-.08-.09-.03-.13-.08,0-.06-.06-.11-.03-.05-.08-.1-.04-.05-.09-.09-.1-.03-.14-.08-.01-.06-.06-.1,0-.06-.05-.11-.05-.05-.09-.09-.1-.03-.15-.07-.07-.04-.11-.09,0-.06-.04-.11-.08-.03-.13-.08-.01-.06-.06-.11-.06-.04-.11-.09-.01-.06-.06-.11-.12-.02-.17-.07,.03-.07-.02-.12-.12-.02-.16-.07-.02-.06-.06-.1-.09-.03-.14-.08,.01-.07-.03-.11-.11-.02-.16-.07,.02-.07-.03-.12-.08-.04-.13-.08-.04-.05-.09-.09-.08-.04-.13-.08-.06-.04-.1-.09-.05-.05-.1-.09,0-.06-.06-.11-.07-.04-.12-.08-.04-.05-.09-.1-.02-.06-.06-.1l-.09-.09s-.1-.03-.15-.07-.06-.04-.1-.09,0-.07-.04-.11l-.16-.07-.02-.11-.09-.1-.07-.1-.04-.1v-.11s0-.1,0-.1c0-.05-.01-.05-.02-.11s0-.05,0-.11-.07-.05-.08-.11,0-.05,0-.11-.03-.05-.03-.11,0-.05-.01-.11,.07-.05,.06-.11-.01-.05-.02-.11-.06-.05-.06-.11,.06-.05,.06-.11-.09-.05-.1-.11,.07-.05,.06-.11-.1-.05-.11-.11-.02-.05-.03-.11,0-.05,0-.11,.07-.05,.07-.11,.01-.05,0-.11-.1-.05-.1-.11-.03-.05-.04-.11,.01-.05,0-.11,.07-.05,.06-.11-.1-.05-.11-.11,.04-.05,.04-.11-.05-.05-.06-.11,.06-.05,.05-.11-.05-.05-.06-.11,.02-.05,.01-.1,0-.05-.01-.11,0-.05,0-.11-.05-.05-.05-.11,.04-.05,.03-.11-.09-.05-.1-.11,.02-.05,.02-.11,.07-.05,.06-.11-.07-.05-.08-.11,.03-.05,.02-.11,0-.05-.01-.11,0-.05,0-.11,0-.05-.02-.11-.01-.05-.02-.11-.09-.05-.1-.11,.09-.05,.08-.1-.04-.05-.05-.11-.03-.05-.04-.11,0-.05,0-.11,.03-.05,.02-.11-.07-.05-.08-.11,.03-.05,.03-.1-.07-.05-.07-.11-.02-.05-.02-.11,0-.05-.01-.11,.1-.05,.09-.1-.1-.05-.11-.11,.08-.05,.07-.1-.09-.05-.1-.11,.04-.05,.03-.11-.03-.05-.04-.11,0-.05-.01-.11,.05-.05,.05-.11-.04-.05-.05-.11-.06-.05-.07-.11,0-.05-.01-.11,.03-.05,.02-.11,0-.05,0-.11,.02-.05,.02-.11,0-.05,0-.11,0-.07,.06-.08,.1,0,.14,.04,.04,.05,.09,.1,.1,.03,.15,.08,.07,.04,.12,.08,.05,.05,.09,.1,.03,.05,.07,.1,.04,.05,.09,.1,.04,.05,.09,.1,0,.06,.06,.11,.05,.05,.1,.09,.05,.05,.1,.09,.03,.05,.08,.1,.11,.03,.15,.07,0,.07,.04,.11,.08,.04,.13,.08,.07,.04,.12,.08-.02,.07,.02,.12,.13,.02,.18,.06,.03,.05,.08,.1-.01,.07,.03,.12,.1,.03,.15,.07,.07,.04,.12,.08,.02,.06,.06,.11,.03,.06,.07,.1,.09,.03,.13,.08-.02,.07,.03,.12,.08,.04,.13,.08,.06,.04,.11,.09,.01,.06,.06,.11,.12,.02,.17,.07-.03,.07,.02,.12,.06,.04,.11,.09,.11,.03,.16,.07-.03,.08,.01,.12,.05,.04,.1,.09,.07,.04,.11,.09,.05,.04,.1,.09,.09,.03,.14,.08,.03,.05,.08,.1,0,.07,.04,.11,.07,.04,.12,.09,.04,.05,.09,.1,.09,.03,.13,.08,.01,.06,.06,.11,.1,.03,.15,.08,.02,.06,.07,.1,.06,.04,.11,.09,.08,.04,.13,.08,.02,.06,.07,.1,.03,.05,.08,.1,0,.06,.05,.11,.06,.04,.11,.09,.03,.05,.08,.1,.12,.02,.16,.07,0,.06,.05,.11,.06,.04,.1,.09,.09,.03,.13,.08,0,.06,.04,.11,.1,.03,.14,.08,0,.06,.06,.11,.01,.06,.06,.11,.12,.02,.17,.07,.04,.05,.09,.1,.07,.04,.11,.09,0,.06,.06,.11,.06,.04,.11,.09,.01,.06,.06,.11l.14,.06h.15s.15,0,.15,0l.1-.06,.02-.09c0-.05,.04-.05,.04-.11s-.08-.06-.09-.11,0-.05,0-.11,.08-.05,.08-.11-.09-.05-.1-.11,.06-.05,.05-.11,0-.05-.01-.11-.09-.06-.09-.11,.02-.05,.02-.11,.05-.05,.04-.11-.1-.05-.1-.11,.08-.05,.07-.11-.11-.05-.11-.11,.02-.05,.01-.11,.04-.05,.03-.11-.06-.05-.06-.11-.04-.05-.04-.11,.1-.05,.09-.11-.08-.05-.09-.11,0-.05-.01-.11,.04-.05,.03-.11-.04-.05-.05-.11-.04-.05-.05-.11,.04-.05,.04-.11,.04-.05,.03-.11-.1-.05-.11-.11,.07-.05,.06-.1-.02-.05-.03-.11,.02-.05,.02-.11-.04-.05-.05-.11-.02-.05-.03-.11-.05-.05-.06-.11-.02-.05-.03-.11,.04-.05,.03-.11,.04-.05,.03-.11-.04-.05-.04-.11-.06-.05-.06-.11,.08-.05,.07-.1-.03-.05-.04-.11-.03-.05-.04-.11,.06-.05,.06-.11-.11-.05-.12-.11,.09-.05,.08-.11-.03-.05-.04-.11-.01-.05-.02-.11-.04-.05-.05-.11,.04-.05,.03-.11,0-.05,0-.11,.01-.05,0-.1-.11-.05-.12-.11,.04-.05,.03-.1,.04-.05,.03-.11-.03-.05-.04-.11-.03-.05-.04-.11,.02-.05,.02-.11,0-.05,0-.11-.04-.05-.04-.11-.04-.05-.04-.11-.02-.05-.02-.11,0-.05-.02-.11-.02-.05-.02-.11,0-.05-.02-.11,.09-.05,.08-.1-.04-.05-.05-.11-.03-.05-.04-.11,.03-.05,.03-.11-.05-.05-.06-.11,.03-.05,.03-.11-.07-.05-.08-.11,.08-.05,.08-.1-.02-.05-.03-.11c0-.05-.05-.05-.06-.11s.02-.05,.01-.1-.05-.05-.06-.11,0-.05,0-.11,.02-.05,.01-.11,.02-.05,.02-.11-.04-.05-.05-.11-.05-.05-.06-.11,.07-.05,.06-.11-.11-.05-.12-.11l.03-.11,.12-.08,.05-.09,.11-.07,.09-.09h.18c.08,0,.07-.02,.15-.03s.09,0,.17-.01,.07-.03,.15-.04,.1,.02,.18,0,.06-.05,.14-.06,.08-.02,.16-.03,.07-.02,.15-.04,.09,0,.17,0,.07-.03,.15-.04,.08,0,.16-.02,.08-.02,.16-.03,.08,0,.16-.02,.08,0,.16-.02,.08-.02,.16-.03,.09,0,.17,0,.09,0,.17-.01,.05-.06,.13-.07,.09,0,.17,0,.09,0,.17,0,.06-.05,.14-.06"/></clipPath><clipPath id="clippath-4"><path class="cls-6" d="M290.67,371c.08-.01,.11,.04,.19,.03s.08,0,.16-.02,.07-.03,.15-.04,.07-.04,.14-.05,.09,0,.17,0l.16-.02c.08-.01,.07-.03,.15-.05s.1,.03,.18,.02,.05-.07,.13-.08,.08-.01,.16-.02h.18s.15,.07,.15,.07l.12,.07,.18,.06v.12c0,.05-.03,.05-.03,.11s.07,.05,.08,.11-.08,.05-.07,.11,.05,.06,.06,.11,.04,.05,.05,.11-.01,.05,0,.11,.04,.05,.05,.11-.07,.05-.07,.11,0,.05,0,.11,.09,.05,.1,.11-.02,.05-.01,.11-.06,.05-.05,.11,.04,.05,.05,.11,.04,.05,.05,.11,.02,.05,.02,.11-.08,.05-.07,.1,.08,.05,.09,.11,.03,.05,.03,.11-.02,.05-.02,.11,.01,.05,.02,.11,.02,.05,.03,.11-.07,.05-.06,.11,.09,.05,.1,.11,.02,.05,.03,.11-.06,.05-.05,.11,0,.05,0,.11,.09,.05,.1,.11-.04,.05-.03,.11-.05,.05-.04,.1,.07,.05,.08,.11,.06,.05,.06,.11-.01,.05,0,.11-.02,.05-.02,.11,.05,.05,.06,.11-.1,.05-.09,.11,.1,.05,.11,.11-.08,.05-.07,.11,.04,.05,.05,.11,.05,.05,.06,.11-.06,.05-.05,.11,0,.05,0,.11,.04,.05,.05,.11,.04,.05,.05,.11-.04,.05-.03,.11,.05,.05,.06,.11-.04,.05-.03,.1,.06,.05,.06,.11-.07,.05-.06,.11,.1,.05,.1,.11-.05,.05-.04,.1,0,.05,0,.11-.01,.05,0,.11,0,.05,0,.11,.03,.05,.04,.11,.05,.05,.05,.11,.05,.05,.06,.11,0,.05,0,.11-.08,.05-.08,.1,.02,.05,.03,.11,.06,.05,.07,.11-.02,.05-.02,.11,.06,.05,.07,.11-.04,.05-.03,.11-.04,.05-.03,.11,.04,.05,.04,.11-.03,.05-.03,.1,0,.05,0,.11,.09,.05,.1,.11,0,.05,.02,.11,0,.05,.01,.11-.01,.05,0,.11-.02,.05-.01,.1,.03,.05,.04,.11,.01,.05,.02,.11,.03,.05,.03,.11-.04,.05-.03,.11-.01,.05,0,.11,.07,.05,.08,.11,.04,.05,.04,.11-.1,.05-.09,.1,.03,.05,.04,.11-.02,.05-.01,.1,.05,.05,.06,.11,.05,.05,.05,.11,.02,.05,.02,.11-.09,.05-.08,.1,.02,.05,.02,.11,.08,.06,.09,.11,.02,.05,.03,.11-.1,.05-.09,.1,.04,.05,.05,.11,.05,.05,.06,.11-.04,.05-.03,.11,.02,.05,.03,.11,.06,.05,.07,.11,.02,.05,.03,.11-.05,.05-.05,.1,.06,.05,.07,.11-.01,.05,0,.11,0,.05,0,.11-.04,.05-.04,.1-.02,.05-.02,.11,.06,.05,.07,.11,0,.05,0,.11,.02,.05,.03,.11,0,.05,0,.11-.01,.05,0,.11,.06,.05,.06,.11,.04,.05,.05,.11-.1,.05-.1,.11,0,.05,.01,.11,.1,.05,.1,.11-.08,.05-.07,.11,.07,.05,.08,.11-.04,.05-.04,.11,.05,.05,.06,.11-.04,.05-.04,.11,.02,.05,.02,.11,.02,.05,.03,.11-.02,.05,0,.11,.04,.05,.05,.11,.02,.05,.02,.11,0,.05,.02,.11,.05,.05,.06,.11-.02,.05-.01,.1,.04,.05,.05,.11-.03,.05-.02,.11-.02,.05-.01,.1,.08,.05,.09,.11-.09,.05-.08,.1,0,.05,.01,.11,.09,.05,.1,.11,0,.05,.02,.11,0,.05,0,.11-.03,.05-.03,.1,.02,.05,.03,.11-.02,.05-.02,.11,.03,.05,.03,.11-.05,.05-.04,.1,.03,.05,.04,.11,.04,.05,.05,.11,0,.05,0,.11,0,.05,0,.11,0,.05,0,.11l.02,.11c0,.05,0,.05,0,.11s.02,.05,.03,.11,.06,.05,.07,.11-.06,.05-.06,.1,.08,.05,.09,.11-.06,.05-.06,.11,.02,.05,.03,.11,.06,.05,.06,.11,.01,.05,.02,.11,0,.05,.01,.11,0,.05,0,.11-.04,.05-.03,.11,.04,.05,.05,.11v.11s-.1,.08-.1,.08v.12s-.14,.06-.14,.06l-.12,.08h-.18c-.08,0-.07,.03-.15,.04s-.08,0-.16,.01l-.16,.02c-.08,.01-.09,0-.17,0s-.07,.02-.15,.03-.06,.04-.14,.06-.1-.03-.18-.02-.05,.06-.13,.08-.08,.02-.15,.03l-.16,.02c-.08,.01-.07,.02-.15,.04s-.09-.01-.17,0-.1-.03-.18-.02-.06,.05-.14,.06-.07,.04-.14,.05-.11-.05-.19-.04-.06,.04-.14,.06-.08,.02-.16,.03-.09,0-.17,.01-.07,.03-.15,.04-.1-.03-.18-.01-.06,.04-.14,.05-.09,0-.17,0-.09,0-.17,.01-.06,.05-.14,.06-.09,0-.17,0-.07,.03-.15,.04-.06,.04-.14,.05-.09-.01-.17,0-.08,.02-.16,.03l-.18-.02h-.16s-.16-.03-.16-.03l-.14-.07-.18-.04-.08-.1s-.08-.04-.13-.08-.02-.06-.07-.1-.09-.03-.13-.08,.03-.07-.02-.12-.11-.03-.16-.07-.07-.04-.11-.09,.01-.07-.04-.11-.06-.04-.1-.09-.01-.06-.06-.11-.13-.02-.17-.07,0-.07-.04-.11-.11-.02-.16-.07,.03-.07-.02-.12-.12-.02-.16-.07-.02-.06-.07-.1,0-.06-.06-.11-.11-.02-.15-.07,.01-.07-.04-.11-.06-.04-.11-.09-.01-.06-.06-.1-.1-.03-.15-.07-.02-.06-.07-.1-.02-.06-.07-.1-.05-.04-.1-.09-.05-.04-.1-.09-.11-.03-.15-.07-.01-.06-.06-.11-.02-.06-.07-.1-.07-.04-.12-.08-.04-.05-.09-.1-.03-.05-.08-.1-.1-.03-.15-.07-.02-.06-.07-.1-.07-.04-.12-.08-.09-.03-.13-.08,0-.06-.06-.11-.03-.05-.08-.1-.04-.05-.09-.09-.1-.03-.14-.08-.01-.06-.06-.1,0-.06-.05-.11-.05-.05-.09-.09-.1-.03-.15-.07-.07-.04-.11-.09,0-.06-.04-.11-.08-.03-.13-.08-.01-.06-.06-.11-.06-.04-.11-.09-.01-.06-.06-.11-.12-.02-.17-.07,.03-.07-.02-.12-.12-.02-.16-.07-.02-.06-.06-.1-.09-.03-.14-.08,.01-.07-.03-.11-.11-.02-.16-.07,.02-.07-.03-.12-.08-.04-.13-.08-.04-.05-.09-.09-.08-.04-.13-.08-.06-.04-.1-.09-.05-.05-.1-.09,0-.06-.06-.11-.07-.04-.12-.08-.04-.05-.09-.1-.02-.06-.06-.1l-.09-.09s-.1-.03-.15-.07-.06-.04-.1-.09,0-.07-.04-.11l-.16-.07-.02-.11-.09-.1-.07-.1-.04-.1v-.11s0-.1,0-.1c0-.05-.01-.05-.02-.11s0-.05,0-.11-.07-.05-.08-.11,0-.05,0-.11-.03-.05-.03-.11,0-.05-.01-.11,.07-.05,.06-.11-.01-.05-.02-.11-.06-.05-.06-.11,.06-.05,.06-.11-.09-.05-.1-.11,.07-.05,.06-.11-.1-.05-.11-.11-.02-.05-.03-.11,0-.05,0-.11,.07-.05,.07-.11,.01-.05,0-.11-.1-.05-.1-.11-.03-.05-.04-.11,.01-.05,0-.11,.07-.05,.06-.11-.1-.05-.11-.11,.04-.05,.04-.11-.05-.05-.06-.11,.06-.05,.05-.11-.05-.05-.06-.11,.02-.05,.01-.1,0-.05-.01-.11,0-.05,0-.11-.05-.05-.05-.11,.04-.05,.03-.11-.09-.05-.1-.11,.02-.05,.02-.11,.07-.05,.06-.11-.07-.05-.08-.11,.03-.05,.02-.11,0-.05-.01-.11,0-.05,0-.11,0-.05-.02-.11-.01-.05-.02-.11-.09-.05-.1-.11,.09-.05,.08-.1-.04-.05-.05-.11-.03-.05-.04-.11,0-.05,0-.11,.03-.05,.02-.11-.07-.05-.08-.11,.03-.05,.03-.1-.07-.05-.07-.11-.02-.05-.02-.11,0-.05-.01-.11,.1-.05,.09-.1-.1-.05-.11-.11,.08-.05,.07-.1-.09-.05-.1-.11,.04-.05,.03-.11-.03-.05-.04-.11,0-.05-.01-.11,.05-.05,.05-.11-.04-.05-.05-.11-.06-.05-.07-.11,0-.05-.01-.11,.03-.05,.02-.11,0-.05,0-.11,.02-.05,.02-.11,0-.05,0-.11,0-.07,.06-.08,.1,0,.14,.04,.04,.05,.09,.1,.1,.03,.15,.08,.07,.04,.12,.08,.05,.05,.09,.1,.03,.05,.07,.1,.04,.05,.09,.1,.04,.05,.09,.1,0,.06,.06,.11,.05,.05,.1,.09,.05,.05,.1,.09,.03,.05,.08,.1,.11,.03,.15,.07,0,.07,.04,.11,.08,.04,.13,.08,.07,.04,.12,.08-.02,.07,.02,.12,.13,.02,.18,.06,.03,.05,.08,.1-.01,.07,.03,.12,.1,.03,.15,.07,.07,.04,.12,.08,.02,.06,.06,.11,.03,.06,.07,.1,.09,.03,.13,.08-.02,.07,.03,.12,.08,.04,.13,.08,.06,.04,.11,.09,.01,.06,.06,.11,.12,.02,.17,.07-.03,.07,.02,.12,.06,.04,.11,.09,.11,.03,.16,.07-.03,.08,.01,.12,.05,.04,.1,.09,.07,.04,.11,.09,.05,.04,.1,.09,.09,.03,.14,.08,.03,.05,.08,.1,0,.07,.04,.11,.07,.04,.12,.09,.04,.05,.09,.1,.09,.03,.13,.08,.01,.06,.06,.11,.1,.03,.15,.08,.02,.06,.07,.1,.06,.04,.11,.09,.08,.04,.13,.08,.02,.06,.07,.1,.03,.05,.08,.1,0,.06,.05,.11,.06,.04,.11,.09,.03,.05,.08,.1,.12,.02,.16,.07,0,.06,.05,.11,.06,.04,.1,.09,.09,.03,.13,.08,0,.06,.04,.11,.1,.03,.14,.08,0,.06,.06,.11,.01,.06,.06,.11,.12,.02,.17,.07,.04,.05,.09,.1,.07,.04,.11,.09,0,.06,.06,.11,.06,.04,.11,.09,.01,.06,.06,.11l.14,.06h.15s.15,0,.15,0l.1-.06,.02-.09c0-.05,.04-.05,.04-.11s-.08-.06-.09-.11,0-.05,0-.11,.08-.05,.08-.11-.09-.05-.1-.11,.06-.05,.05-.11,0-.05-.01-.11-.09-.06-.09-.11,.02-.05,.02-.11,.05-.05,.04-.11-.1-.05-.1-.11,.08-.05,.07-.11-.11-.05-.11-.11,.02-.05,.01-.11,.04-.05,.03-.11-.06-.05-.06-.11-.04-.05-.04-.11,.1-.05,.09-.11-.08-.05-.09-.11,0-.05-.01-.11,.04-.05,.03-.11-.04-.05-.05-.11-.04-.05-.05-.11,.04-.05,.04-.11,.04-.05,.03-.11-.1-.05-.11-.11,.07-.05,.06-.1-.02-.05-.03-.11,.02-.05,.02-.11-.04-.05-.05-.11-.02-.05-.03-.11-.05-.05-.06-.11-.02-.05-.03-.11,.04-.05,.03-.11,.04-.05,.03-.11-.04-.05-.04-.11-.06-.05-.06-.11,.08-.05,.07-.1-.03-.05-.04-.11-.03-.05-.04-.11,.06-.05,.06-.11-.11-.05-.12-.11,.09-.05,.08-.11-.03-.05-.04-.11-.01-.05-.02-.11-.04-.05-.05-.11,.04-.05,.03-.11,0-.05,0-.11,.01-.05,0-.1-.11-.05-.12-.11,.04-.05,.03-.1,.04-.05,.03-.11-.03-.05-.04-.11-.03-.05-.04-.11,.02-.05,.02-.11,0-.05,0-.11-.04-.05-.04-.11-.04-.05-.04-.11-.02-.05-.02-.11,0-.05-.02-.11-.02-.05-.02-.11,0-.05-.02-.11,.09-.05,.08-.1-.04-.05-.05-.11-.03-.05-.04-.11,.03-.05,.03-.11-.05-.05-.06-.11,.03-.05,.03-.11-.07-.05-.08-.11,.08-.05,.08-.1-.02-.05-.03-.11c0-.05-.05-.05-.06-.11s.02-.05,.01-.1-.05-.05-.06-.11,0-.05,0-.11,.02-.05,.01-.11,.02-.05,.02-.11-.04-.05-.05-.11-.05-.05-.06-.11,.07-.05,.06-.11-.11-.05-.12-.11l.03-.11,.12-.08,.05-.09,.11-.07,.09-.09h.18c.08,0,.07-.02,.15-.03s.09,0,.17-.01,.07-.03,.15-.04,.1,.02,.18,0,.06-.05,.14-.06,.08-.02,.16-.03,.07-.02,.15-.04,.09,0,.17,0,.07-.03,.15-.04,.08,0,.16-.02,.08-.02,.16-.03,.08,0,.16-.02,.08,0,.16-.02,.08-.02,.16-.03,.09,0,.17,0,.09,0,.17-.01,.05-.06,.13-.07,.09,0,.17,0,.09,0,.17,0,.06-.05,.14-.06"/></clipPath><clipPath id="clippath-5"><path class="cls-6" d="M289,388.75l.08,.1,.18,.04,.14,.07,.16,.03h.16s.18,.02,.18,.02c.08-.01,.08-.02,.16-.03s.09,.01,.17,0,.06-.04,.14-.05,.07-.03,.15-.04,.09,0,.17,0,.06-.05,.14-.06,.08,0,.17-.01,.09,0,.17,0,.06-.04,.14-.05,.1,.03,.18,.01,.07-.03,.15-.04,.09,0,.17-.01,.08-.02,.16-.03,.06-.04,.14-.06,.11,.05,.19,.04,.06-.04,.14-.05,.06-.05,.14-.06,.1,.03,.18,.02,.09,.01,.17,0,.07-.02,.15-.04l.16-.02c.08-.01,.08-.02,.15-.03s.05-.06,.13-.08,.1,.03,.18,.02,.06-.04,.14-.06,.07-.02,.15-.03,.09,0,.17,0l.16-.02c.08-.01,.08,0,.16-.01s.07-.03,.15-.04h.18s.12-.07,.12-.07l.14-.06v-.12s.11-.08,.11-.08v-.11c-.01-.05-.05-.05-.06-.11s.04-.05,.03-.11,0-.05,0-.11,0-.05-.01-.11-.01-.05-.02-.11-.06-.05-.06-.11-.02-.05-.03-.11,.06-.05,.06-.11-.08-.05-.09-.11,.06-.05,.06-.1-.06-.05-.07-.11-.02-.05-.03-.11,0-.05,0-.11l-.02-.11c0-.05,0-.05,0-.11s0-.05,0-.11,0-.05,0-.11-.04-.05-.05-.11-.03-.05-.04-.11,.05-.05,.04-.1-.03-.05-.03-.11,.02-.05,.02-.11-.02-.05-.03-.11,.03-.05,.03-.1,0-.05,0-.11,0-.05-.02-.11-.09-.05-.1-.11,0-.05-.01-.11,.09-.05,.08-.1-.08-.05-.09-.11,.02-.05,.01-.1,.03-.05,.02-.11-.04-.05-.05-.11,.02-.05,.01-.1-.05-.05-.06-.11,0-.05-.02-.11-.02-.05-.02-.11-.04-.05-.05-.11,.01-.05,0-.11-.02-.05-.03-.11-.01-.05-.02-.11,.05-.05,.04-.11-.06-.05-.06-.11,.04-.05,.04-.11-.07-.05-.08-.11,.08-.05,.07-.11-.1-.05-.1-.11,0-.05-.01-.11,.1-.05,.1-.11-.04-.05-.05-.11-.05-.05-.06-.11,.01-.05,0-.11,0-.05,0-.11-.02-.05-.03-.11,0-.05,0-.11-.06-.05-.07-.11,.02-.05,.02-.11,.04-.05,.04-.1,0-.05,0-.11,.01-.05,0-.11-.06-.05-.07-.11,.05-.05,.05-.1-.02-.05-.03-.11-.06-.05-.07-.11-.02-.05-.03-.11,.04-.05,.03-.11-.05-.05-.06-.11-.04-.05-.05-.11,.1-.05,.09-.1-.02-.05-.03-.11-.08-.06-.09-.11-.02-.05-.02-.11,.09-.05,.08-.1-.01-.05-.02-.11-.04-.05-.05-.11-.05-.05-.06-.11,.02-.05,.01-.1-.03-.05-.04-.11,.1-.05,.09-.1-.04-.05-.04-.11-.07-.05-.08-.11,.01-.05,0-.11,.04-.05,.03-.11-.03-.05-.03-.11-.01-.05-.02-.11-.03-.05-.04-.11,.02-.05,.01-.1,.01-.05,0-.11,0-.05-.01-.11,0-.05-.02-.11-.09-.05-.1-.11,0-.05,0-.11,.03-.05,.03-.1-.04-.05-.04-.11,.04-.05,.03-.11,.04-.05,.03-.11-.06-.05-.07-.11,.02-.05,.02-.11-.06-.05-.07-.11-.02-.05-.03-.11,.08-.05,.08-.1,0-.05,0-.11-.05-.05-.06-.11-.04-.05-.05-.11-.03-.05-.04-.11,0-.05,0-.11,.01-.05,0-.11,0-.05,0-.11,.05-.05,.04-.1-.1-.05-.1-.11,.06-.05,.06-.11-.06-.05-.06-.11,.04-.05,.03-.1-.05-.05-.06-.11,.04-.05,.03-.11-.04-.05-.05-.11-.04-.05-.05-.11,0-.05,0-.11,.06-.05,.05-.11-.05-.05-.06-.11-.04-.05-.05-.11,.08-.05,.07-.11-.1-.05-.11-.11,.1-.05,.09-.11-.05-.05-.06-.11,.02-.05,.02-.11,.01-.05,0-.11-.06-.05-.06-.11-.07-.05-.08-.11,.05-.05,.04-.1,.04-.05,.03-.11-.09-.05-.1-.11,0-.05,0-.11,.06-.05,.05-.11-.02-.05-.03-.11-.09-.05-.1-.11,.07-.05,.06-.11-.02-.05-.03-.11-.01-.05-.02-.11,.02-.05,.02-.11-.03-.05-.03-.11-.08-.06-.09-.11,.08-.05,.07-.1-.02-.05-.02-.11-.04-.05-.05-.11-.04-.05-.05-.11,.06-.05,.05-.11,.02-.05,.01-.11c0-.05-.09-.05-.1-.11s0-.05,0-.11,.07-.05,.07-.11-.05-.05-.05-.11,0-.05,0-.11-.04-.05-.05-.11-.05-.05-.06-.11,.08-.05,.07-.11-.07-.05-.08-.11,.03-.05,.03-.11v-.12s-.18-.06-.18-.06l-.12-.07-.15-.08h-.18c-.08,.02-.08,.02-.16,.03s-.05,.07-.13,.08-.1-.03-.18-.02-.07,.03-.15,.05l-.16,.02c-.08,.01-.09,0-.17,0s-.07,.04-.14,.05-.07,.03-.15,.04-.08,0-.16,.02-.11-.04-.19-.03-.06,.05-.14,.06-.09,0-.17,0-.09,0-.17,0-.05,.06-.13,.07-.09,0-.17,.01-.09,0-.17,0-.08,.02-.16,.03-.08,0-.16,.02-.08,0-.16,.02-.08,.02-.16,.03-.08,0-.16,.02-.07,.03-.15,.04-.09,0-.17,0-.07,.02-.15,.04-.08,.02-.16,.03-.06,.05-.14,.06-.09-.02-.18,0-.07,.03-.15,.04-.09,0-.17,.01-.07,.03-.15,.04h-.18s-.09,.09-.09,.09l-.11,.07-.05,.09-.12,.08-.03,.11c0,.05,.11,.05,.12,.11s-.07,.05-.06,.11,.05,.05,.06,.11,.04,.05,.05,.11-.02,.05-.02,.11-.02,.05-.01,.11,0,.05,0,.11,.05,.05,.06,.11-.02,.05-.01,.1,.05,.05,.06,.11,.02,.05,.03,.11-.08,.05-.08,.1,.08,.05,.08,.11-.03,.05-.03,.11,.05,.05,.06,.11-.03,.05-.03,.11,.03,.05,.04,.11,.04,.05,.05,.11-.09,.05-.08,.1,0,.05,.02,.11,.02,.05,.02,.11,0,.05,.02,.11,.02,.05,.02,.11,.04,.05,.04,.11,.03,.05,.04,.11,0,.05,0,.11-.02,.05-.02,.11,.03,.05,.04,.11,.03,.05,.04,.11-.04,.05-.03,.11-.04,.05-.03,.1,.11,.05,.12,.11-.01,.05,0,.1,0,.05,0,.11-.04,.05-.03,.11,.04,.05,.05,.11,.02,.05,.02,.11,.03,.05,.04,.11-.09,.05-.08,.11,.11,.05,.12,.11-.06,.05-.06,.11,.04,.05,.04,.11,.03,.05,.04,.11-.08,.05-.07,.1,.06,.05,.06,.11,.03,.05,.04,.11-.04,.05-.03,.11-.04,.05-.03,.11,.02,.05,.03,.11,.05,.05,.06,.11,.02,.05,.03,.11,.04,.05,.05,.11-.02,.05-.02,.11,.02,.05,.03,.11-.07,.05-.06,.1,.1,.05,.11,.11-.04,.05-.03,.11-.04,.05-.04,.11,.04,.05,.05,.11,.05,.05,.05,.11-.04,.05-.03,.11,0,.05,.01,.11,.08,.06,.09,.11-.1,.05-.09,.11,.04,.05,.04,.11,.05,.05,.06,.11-.04,.05-.03,.11-.02,.05-.01,.11,.11,.05,.11,.11-.08,.05-.07,.11,.1,.05,.1,.11-.05,.05-.04,.11-.02,.05-.02,.11,.08,.06,.09,.11,0,.05,.01,.11-.06,.05-.05,.11,.1,.05,.1,.11-.09,.05-.08,.11,0,.05,0,.11,.08,.06,.09,.11-.04,.05-.04,.11l-.02,.09-.1,.06h-.15s-.15,0-.15,0l-.14-.06s-.01-.06-.06-.11-.06-.04-.11-.09,0-.06-.06-.11-.07-.04-.11-.09-.04-.05-.09-.1-.12-.02-.17-.07,0-.06-.06-.11,0-.06-.06-.11-.1-.03-.14-.08,0-.06-.04-.11-.09-.03-.13-.08-.06-.04-.1-.09,0-.06-.05-.11-.12-.02-.16-.07-.03-.05-.08-.1-.06-.04-.11-.09,0-.06-.05-.11-.03-.05-.08-.1-.02-.06-.07-.1-.08-.04-.13-.08-.06-.04-.11-.09-.02-.06-.07-.1-.1-.03-.15-.08-.01-.06-.06-.11-.09-.03-.13-.08-.04-.05-.09-.1-.07-.04-.12-.09,0-.07-.04-.11-.03-.05-.08-.1-.09-.03-.14-.08-.05-.04-.1-.09-.07-.04-.11-.09-.05-.04-.1-.09,.04-.08-.01-.12-.11-.03-.16-.07-.06-.04-.11-.09,.02-.07-.02-.12-.12-.02-.17-.07-.01-.06-.06-.11-.06-.04-.11-.09-.08-.04-.13-.08,.02-.07-.03-.12-.09-.03-.13-.08-.03-.05-.07-.1-.01-.06-.06-.11-.07-.04-.12-.08-.1-.03-.15-.07,.02-.07-.03-.12-.03-.05-.08-.1-.13-.02-.18-.06,.02-.07-.02-.12-.07-.04-.12-.08-.08-.04-.13-.08,0-.07-.04-.11-.11-.03-.15-.07-.03-.05-.08-.1-.05-.05-.1-.09-.05-.05-.1-.09,0-.06-.06-.11-.04-.05-.09-.1-.04-.05-.09-.1-.03-.05-.07-.1-.05-.05-.09-.1-.07-.04-.12-.08-.1-.03-.15-.08-.04-.05-.09-.1-.08-.05-.14-.04-.07,.03-.06,.08,0,.05,0,.11-.02,.05-.02,.11,0,.05,0,.11-.03,.05-.02,.11,0,.05,.01,.11,.06,.05,.07,.11,.04,.05,.05,.11-.05,.05-.05,.11,0,.05,.01,.11,.03,.05,.04,.11-.04,.05-.03,.11,.09,.05,.1,.11-.08,.05-.07,.1,.1,.05,.11,.11-.1,.05-.09,.1,0,.05,.01,.11,.01,.05,.02,.11,.06,.05,.07,.11-.03,.05-.03,.1,.07,.05,.08,.11-.03,.05-.02,.11,0,.05,0,.11,.03,.05,.04,.11,.04,.05,.05,.11-.09,.05-.08,.1,.09,.05,.1,.11,.01,.05,.02,.11,.01,.05,.02,.11,0,.05,0,.11,0,.05,.01,.11-.03,.05-.02,.11,.07,.05,.08,.11-.07,.05-.06,.11-.02,.05-.02,.11,.09,.05,.1,.11-.04,.05-.03,.11,.05,.05,.05,.11,0,.05,0,.11,0,.05,.01,.11-.02,.05-.01,.1,.05,.05,.06,.11-.06,.05-.05,.11,.05,.05,.06,.11-.04,.05-.04,.11,.11,.05,.11,.11-.07,.05-.06,.11-.01,.05,0,.11,.04,.05,.04,.11,.1,.05,.1,.11-.02,.05,0,.11-.07,.05-.07,.11,0,.05,0,.11,.02,.05,.03,.11,.1,.05,.11,.11-.07,.05-.06,.11,.09,.05,.1,.11-.06,.05-.06,.11,.06,.05,.06,.11,.01,.05,.02,.11-.07,.05-.06,.11,0,.05,.01,.11,.03,.05,.03,.11,0,.05,0,.11,.07,.05,.08,.11,0,.05,0,.11,.01,.05,.02,.11v.1s0,.11,0,.11l.04,.1,.07,.1,.09,.1,.02,.11,.16,.07s0,.07,.04,.11,.05,.04,.1,.09,.1,.03,.15,.07l.09,.09s.02,.06,.06,.1,.04,.05,.09,.1,.07,.04,.12,.08,0,.06,.06,.11,.05,.05,.1,.09,.05,.04,.1,.09,.08,.04,.13,.08,.04,.05,.09,.09,.08,.04,.13,.08-.02,.07,.03,.12,.11,.02,.16,.07-.01,.07,.03,.11,.09,.03,.14,.08,.02,.06,.06,.1,.12,.02,.16,.07-.03,.07,.02,.12,.12,.02,.17,.07,.01,.06,.06,.11,.06,.04,.11,.09,.01,.06,.06,.11,.08,.03,.13,.08,0,.06,.04,.11,.07,.04,.11,.09,.11,.03,.15,.07,.05,.05,.09,.09,0,.06,.05,.11,.01,.06,.06,.1,.1,.03,.14,.08,.04,.05,.09,.09,.03,.05,.08,.1,0,.06,.06,.11,.09,.03,.13,.08,.07,.04,.12,.08,.02,.06,.07,.1,.1,.03,.15,.07,.03,.05,.08,.1,.04,.05,.09,.1,.07,.04,.12,.08,.02,.05,.07,.1,.01,.06,.06,.11,.11,.03,.15,.07,.05,.04,.1,.09,.05,.04,.1,.09,.02,.06,.07,.1,.02,.05,.07,.1,.1,.03,.15,.07,.01,.06,.06,.1,.06,.04,.11,.09-.01,.07,.04,.11,.11,.03,.15,.07,0,.06,.06,.11,.02,.06,.07,.1,.12,.02,.16,.07-.03,.07,.02,.12,.11,.02,.16,.07,0,.07,.04,.11,.13,.02,.17,.07,.01,.06,.06,.11,.06,.04,.1,.09-.01,.07,.04,.11,.07,.04,.11,.09,.11,.02,.16,.07-.03,.07,.02,.12,.09,.03,.13,.08,.02,.06,.07,.1,.08,.03,.13,.08"/></clipPath><clipPath id="clippath-6"><path class="cls-1" d="M290.67,371c.08-.01,.11,.04,.19,.03s.08,0,.16-.02,.07-.03,.15-.04,.07-.04,.14-.05,.09,0,.17,0l.16-.02c.08-.01,.07-.03,.15-.05s.1,.03,.18,.02,.05-.07,.13-.08,.08-.01,.16-.02h.18s.15,.07,.15,.07l.12,.07,.18,.06v.12c0,.05-.03,.05-.03,.11s.07,.05,.08,.11-.08,.05-.07,.11,.05,.06,.06,.11,.04,.05,.05,.11-.01,.05,0,.11,.04,.05,.05,.11-.07,.05-.07,.11,0,.05,0,.11,.09,.05,.1,.11-.02,.05-.01,.11-.06,.05-.05,.11,.04,.05,.05,.11,.04,.05,.05,.11,.02,.05,.02,.11-.08,.05-.07,.1,.08,.05,.09,.11,.03,.05,.03,.11-.02,.05-.02,.11,.01,.05,.02,.11,.02,.05,.03,.11-.07,.05-.06,.11,.09,.05,.1,.11,.02,.05,.03,.11-.06,.05-.05,.11,0,.05,0,.11,.09,.05,.1,.11-.04,.05-.03,.11-.05,.05-.04,.1,.07,.05,.08,.11,.06,.05,.06,.11-.01,.05,0,.11-.02,.05-.02,.11,.05,.05,.06,.11-.1,.05-.09,.11,.1,.05,.11,.11-.08,.05-.07,.11,.04,.05,.05,.11,.05,.05,.06,.11-.06,.05-.05,.11,0,.05,0,.11,.04,.05,.05,.11,.04,.05,.05,.11-.04,.05-.03,.11,.05,.05,.06,.11-.04,.05-.03,.1,.06,.05,.06,.11-.07,.05-.06,.11,.1,.05,.1,.11-.05,.05-.04,.1,0,.05,0,.11-.01,.05,0,.11,0,.05,0,.11,.03,.05,.04,.11,.05,.05,.05,.11,.05,.05,.06,.11,0,.05,0,.11-.08,.05-.08,.1,.02,.05,.03,.11,.06,.05,.07,.11-.02,.05-.02,.11,.06,.05,.07,.11-.04,.05-.03,.11-.04,.05-.03,.11,.04,.05,.04,.11-.03,.05-.03,.1,0,.05,0,.11,.09,.05,.1,.11,0,.05,.02,.11,0,.05,.01,.11-.01,.05,0,.11-.02,.05-.01,.1,.03,.05,.04,.11,.01,.05,.02,.11,.03,.05,.03,.11-.04,.05-.03,.11-.01,.05,0,.11,.07,.05,.08,.11,.04,.05,.04,.11-.1,.05-.09,.1,.03,.05,.04,.11-.02,.05-.01,.1,.05,.05,.06,.11,.05,.05,.05,.11,.02,.05,.02,.11-.09,.05-.08,.1,.02,.05,.02,.11,.08,.06,.09,.11,.02,.05,.03,.11-.1,.05-.09,.1,.04,.05,.05,.11,.05,.05,.06,.11-.04,.05-.03,.11,.02,.05,.03,.11,.06,.05,.07,.11,.02,.05,.03,.11-.05,.05-.05,.1,.06,.05,.07,.11-.01,.05,0,.11,0,.05,0,.11-.04,.05-.04,.1-.02,.05-.02,.11,.06,.05,.07,.11,0,.05,0,.11,.02,.05,.03,.11,0,.05,0,.11-.01,.05,0,.11,.06,.05,.06,.11,.04,.05,.05,.11-.1,.05-.1,.11,0,.05,.01,.11,.1,.05,.1,.11-.08,.05-.07,.11,.07,.05,.08,.11-.04,.05-.04,.11,.05,.05,.06,.11-.04,.05-.04,.11,.02,.05,.02,.11,.02,.05,.03,.11-.02,.05,0,.11,.04,.05,.05,.11,.02,.05,.02,.11,0,.05,.02,.11,.05,.05,.06,.11-.02,.05-.01,.1,.04,.05,.05,.11-.03,.05-.02,.11-.02,.05-.01,.1,.08,.05,.09,.11-.09,.05-.08,.1,0,.05,.01,.11,.09,.05,.1,.11,0,.05,.02,.11,0,.05,0,.11-.03,.05-.03,.1,.02,.05,.03,.11-.02,.05-.02,.11,.03,.05,.03,.11-.05,.05-.04,.1,.03,.05,.04,.11,.04,.05,.05,.11,0,.05,0,.11,0,.05,0,.11,0,.05,0,.11l.02,.11c0,.05,0,.05,0,.11s.02,.05,.03,.11,.06,.05,.07,.11-.06,.05-.06,.1,.08,.05,.09,.11-.06,.05-.06,.11,.02,.05,.03,.11,.06,.05,.06,.11,.01,.05,.02,.11,0,.05,.01,.11,0,.05,0,.11-.04,.05-.03,.11,.04,.05,.05,.11v.11s-.1,.08-.1,.08v.12s-.14,.06-.14,.06l-.12,.08h-.18c-.08,0-.07,.03-.15,.04s-.08,0-.16,.01l-.16,.02c-.08,.01-.09,0-.17,0s-.07,.02-.15,.03-.06,.04-.14,.06-.1-.03-.18-.02-.05,.06-.13,.08-.08,.02-.15,.03l-.16,.02c-.08,.01-.07,.02-.15,.04s-.09-.01-.17,0-.1-.03-.18-.02-.06,.05-.14,.06-.07,.04-.14,.05-.11-.05-.19-.04-.06,.04-.14,.06-.08,.02-.16,.03-.09,0-.17,.01-.07,.03-.15,.04-.1-.03-.18-.01-.06,.04-.14,.05-.09,0-.17,0-.09,0-.17,.01-.06,.05-.14,.06-.09,0-.17,0-.07,.03-.15,.04-.06,.04-.14,.05-.09-.01-.17,0-.08,.02-.16,.03l-.18-.02h-.16s-.16-.03-.16-.03l-.14-.07-.18-.04-.08-.1s-.08-.04-.13-.08-.02-.06-.07-.1-.09-.03-.13-.08,.03-.07-.02-.12-.11-.03-.16-.07-.07-.04-.11-.09,.01-.07-.04-.11-.06-.04-.1-.09-.01-.06-.06-.11-.13-.02-.17-.07,0-.07-.04-.11-.11-.02-.16-.07,.03-.07-.02-.12-.12-.02-.16-.07-.02-.06-.07-.1,0-.06-.06-.11-.11-.02-.15-.07,.01-.07-.04-.11-.06-.04-.11-.09-.01-.06-.06-.1-.1-.03-.15-.07-.02-.06-.07-.1-.02-.06-.07-.1-.05-.04-.1-.09-.05-.04-.1-.09-.11-.03-.15-.07-.01-.06-.06-.11-.02-.06-.07-.1-.07-.04-.12-.08-.04-.05-.09-.1-.03-.05-.08-.1-.1-.03-.15-.07-.02-.06-.07-.1-.07-.04-.12-.08-.09-.03-.13-.08,0-.06-.06-.11-.03-.05-.08-.1-.04-.05-.09-.09-.1-.03-.14-.08-.01-.06-.06-.1,0-.06-.05-.11-.05-.05-.09-.09-.1-.03-.15-.07-.07-.04-.11-.09,0-.06-.04-.11-.08-.03-.13-.08-.01-.06-.06-.11-.06-.04-.11-.09-.01-.06-.06-.11-.12-.02-.17-.07,.03-.07-.02-.12-.12-.02-.16-.07-.02-.06-.06-.1-.09-.03-.14-.08,.01-.07-.03-.11-.11-.02-.16-.07,.02-.07-.03-.12-.08-.04-.13-.08-.04-.05-.09-.09-.08-.04-.13-.08-.06-.04-.1-.09-.05-.05-.1-.09,0-.06-.06-.11-.07-.04-.12-.08-.04-.05-.09-.1-.02-.06-.06-.1l-.09-.09s-.1-.03-.15-.07-.06-.04-.1-.09,0-.07-.04-.11l-.16-.07-.02-.11-.09-.1-.07-.1-.04-.1v-.11s0-.1,0-.1c0-.05-.01-.05-.02-.11s0-.05,0-.11-.07-.05-.08-.11,0-.05,0-.11-.03-.05-.03-.11,0-.05-.01-.11,.07-.05,.06-.11-.01-.05-.02-.11-.06-.05-.06-.11,.06-.05,.06-.11-.09-.05-.1-.11,.07-.05,.06-.11-.1-.05-.11-.11-.02-.05-.03-.11,0-.05,0-.11,.07-.05,.07-.11,.01-.05,0-.11-.1-.05-.1-.11-.03-.05-.04-.11,.01-.05,0-.11,.07-.05,.06-.11-.1-.05-.11-.11,.04-.05,.04-.11-.05-.05-.06-.11,.06-.05,.05-.11-.05-.05-.06-.11,.02-.05,.01-.1,0-.05-.01-.11,0-.05,0-.11-.05-.05-.05-.11,.04-.05,.03-.11-.09-.05-.1-.11,.02-.05,.02-.11,.07-.05,.06-.11-.07-.05-.08-.11,.03-.05,.02-.11,0-.05-.01-.11,0-.05,0-.11,0-.05-.02-.11-.01-.05-.02-.11-.09-.05-.1-.11,.09-.05,.08-.1-.04-.05-.05-.11-.03-.05-.04-.11,0-.05,0-.11,.03-.05,.02-.11-.07-.05-.08-.11,.03-.05,.03-.1-.07-.05-.07-.11-.02-.05-.02-.11,0-.05-.01-.11,.1-.05,.09-.1-.1-.05-.11-.11,.08-.05,.07-.1-.09-.05-.1-.11,.04-.05,.03-.11-.03-.05-.04-.11,0-.05-.01-.11,.05-.05,.05-.11-.04-.05-.05-.11-.06-.05-.07-.11,0-.05-.01-.11,.03-.05,.02-.11,0-.05,0-.11,.02-.05,.02-.11,0-.05,0-.11,0-.07,.06-.08,.1,0,.14,.04,.04,.05,.09,.1,.1,.03,.15,.08,.07,.04,.12,.08,.05,.05,.09,.1,.03,.05,.07,.1,.04,.05,.09,.1,.04,.05,.09,.1,0,.06,.06,.11,.05,.05,.1,.09,.05,.05,.1,.09,.03,.05,.08,.1,.11,.03,.15,.07,0,.07,.04,.11,.08,.04,.13,.08,.07,.04,.12,.08-.02,.07,.02,.12,.13,.02,.18,.06,.03,.05,.08,.1-.01,.07,.03,.12,.1,.03,.15,.07,.07,.04,.12,.08,.02,.06,.06,.11,.03,.06,.07,.1,.09,.03,.13,.08-.02,.07,.03,.12,.08,.04,.13,.08,.06,.04,.11,.09,.01,.06,.06,.11,.12,.02,.17,.07-.03,.07,.02,.12,.06,.04,.11,.09,.11,.03,.16,.07-.03,.08,.01,.12,.05,.04,.1,.09,.07,.04,.11,.09,.05,.04,.1,.09,.09,.03,.14,.08,.03,.05,.08,.1,0,.07,.04,.11,.07,.04,.12,.09,.04,.05,.09,.1,.09,.03,.13,.08,.01,.06,.06,.11,.1,.03,.15,.08,.02,.06,.07,.1,.06,.04,.11,.09,.08,.04,.13,.08,.02,.06,.07,.1,.03,.05,.08,.1,0,.06,.05,.11,.06,.04,.11,.09,.03,.05,.08,.1,.12,.02,.16,.07,0,.06,.05,.11,.06,.04,.1,.09,.09,.03,.13,.08,0,.06,.04,.11,.1,.03,.14,.08,0,.06,.06,.11,.01,.06,.06,.11,.12,.02,.17,.07,.04,.05,.09,.1,.07,.04,.11,.09,0,.06,.06,.11,.06,.04,.11,.09,.01,.06,.06,.11l.14,.06h.15s.15,0,.15,0l.1-.06,.02-.09c0-.05,.04-.05,.04-.11s-.08-.06-.09-.11,0-.05,0-.11,.08-.05,.08-.11-.09-.05-.1-.11,.06-.05,.05-.11,0-.05-.01-.11-.09-.06-.09-.11,.02-.05,.02-.11,.05-.05,.04-.11-.1-.05-.1-.11,.08-.05,.07-.11-.11-.05-.11-.11,.02-.05,.01-.11,.04-.05,.03-.11-.06-.05-.06-.11-.04-.05-.04-.11,.1-.05,.09-.11-.08-.05-.09-.11,0-.05-.01-.11,.04-.05,.03-.11-.04-.05-.05-.11-.04-.05-.05-.11,.04-.05,.04-.11,.04-.05,.03-.11-.1-.05-.11-.11,.07-.05,.06-.1-.02-.05-.03-.11,.02-.05,.02-.11-.04-.05-.05-.11-.02-.05-.03-.11-.05-.05-.06-.11-.02-.05-.03-.11,.04-.05,.03-.11,.04-.05,.03-.11-.04-.05-.04-.11-.06-.05-.06-.11,.08-.05,.07-.1-.03-.05-.04-.11-.03-.05-.04-.11,.06-.05,.06-.11-.11-.05-.12-.11,.09-.05,.08-.11-.03-.05-.04-.11-.01-.05-.02-.11-.04-.05-.05-.11,.04-.05,.03-.11,0-.05,0-.11,.01-.05,0-.1-.11-.05-.12-.11,.04-.05,.03-.1,.04-.05,.03-.11-.03-.05-.04-.11-.03-.05-.04-.11,.02-.05,.02-.11,0-.05,0-.11-.04-.05-.04-.11-.04-.05-.04-.11-.02-.05-.02-.11,0-.05-.02-.11-.02-.05-.02-.11,0-.05-.02-.11,.09-.05,.08-.1-.04-.05-.05-.11-.03-.05-.04-.11,.03-.05,.03-.11-.05-.05-.06-.11,.03-.05,.03-.11-.07-.05-.08-.11,.08-.05,.08-.1-.02-.05-.03-.11c0-.05-.05-.05-.06-.11s.02-.05,.01-.1-.05-.05-.06-.11,0-.05,0-.11,.02-.05,.01-.11,.02-.05,.02-.11-.04-.05-.05-.11-.05-.05-.06-.11,.07-.05,.06-.11-.11-.05-.12-.11l.03-.11,.12-.08,.05-.09,.11-.07,.09-.09h.18c.08,0,.07-.02,.15-.03s.09,0,.17-.01,.07-.03,.15-.04,.1,.02,.18,0,.06-.05,.14-.06,.08-.02,.16-.03,.07-.02,.15-.04,.09,0,.17,0,.07-.03,.15-.04,.08,0,.16-.02,.08-.02,.16-.03,.08,0,.16-.02,.08,0,.16-.02,.08-.02,.16-.03,.09,0,.17,0,.09,0,.17-.01,.05-.06,.13-.07,.09,0,.17,0,.09,0,.17,0,.06-.05,.14-.06"/></clipPath></defs><g class="cls-21"><g id="_レイヤー_2"><g id="_レイヤー_1-2"><g><path class="cls-20" d="M288.76,462.6c-97.92,0-167.08-11.82-230.12-53.37C.12,370.66-34.77,246.38,53.33,196.41c96.22-54.59,41.99-105.02,130.05-150.13,54.54-27.93,173.64-6.05,207.51,66.51,46.56,99.76,172.92,101.09,150.31,238.1-9.77,59.19-108.77,111.71-252.43,111.71Z"/><g><rect class="cls-12" x="224.49" y="182.77" width="4.93" height="16.43"/><rect class="cls-12" x="224.49" y="182.77" width="4.93" height="16.43" transform="translate(417.94 -35.97) rotate(90)"/></g><g><rect class="cls-10" x="314.8" y="153.74" width="4.93" height="16.43"/><rect class="cls-10" x="314.8" y="153.74" width="4.93" height="16.43" transform="translate(479.22 -155.31) rotate(90)"/></g><g><rect class="cls-12" x="223.46" y="67.72" width="3.59" height="11.96"/><rect class="cls-12" x="223.46" y="67.72" width="3.59" height="11.95" transform="translate(298.95 -151.55) rotate(90)"/></g><circle class="cls-9" cx="40.69" cy="287.19" r="4.43"/><circle class="cls-9" cx="304.82" cy="92.65" r="3.23"/><circle class="cls-14" cx="251.78" cy="138.54" r="4.39"/><path class="cls-3" d="M272.86,253.45s6.55-1.36,12.78,1.39c6.23,2.75,12.89,9.77,12.89,9.77l-12.41,11.55-16.05-7.55,2.79-15.17Z"/><path class="cls-4" d="M396.81,230.03s11.16-2.07,19.87-1.38c5.24,.41,13.99,1.99,22.6,3.52,11.54,2.06,22.03,8.02,29.64,16.94,5.06,5.93,11.29,12.15,14.97,22.04,9.89,26.57,3.41,81.41,3.41,81.41l-127.07-5.97c-3.55-15.65-8.45-84.93,11.45-104.56,10.21-10.07,25.11-12,25.11-12Z"/><path class="cls-4" d="M213.19,236.23c-22.33-17.68-40.1-22.6-40.1-22.6,0,0-12.91-4.85-27.91-4.19-15.51,.68-29.77,8.37-29.77,8.37-47.33,20.95-51.98,43.13-51.98,79.4,0,28.84,28.3,84.5,28.3,84.5H229.21s6.32-127.82-16.01-145.5Z"/><path class="cls-5" d="M149.14,222.56c7.45-1.13,12.56-4.18,15.42-6.4-1.2-1.95-2.35-4.31-3.33-7.14-4.46-12.89-4.96-25.79-4.96-25.79,0,0-3.47-5.95-15.87-4.46-12.4,1.49-15.87,11.41-15.87,11.41,0,0,6.45,13.89,5.46,21.82-.27,2.18-1.33,4.77-2.73,7.38,5.66,1.99,14.39,4.32,21.88,3.18Z"/><path class="cls-5" d="M416.21,240.83c10.2,.24,16.47-2.95,16.47-2.95,0,0-1.44-5.09-1.96-12.02s-.38-14.73-.38-14.73c0,0-3.59-5.6-7.17-6.1s-13.97,2.82-13.97,2.82c0,0-.84,9.54-1.42,14.63-.87,7.71-8.12,13.73-8.12,13.73,0,0,2.66,4.3,16.54,4.62Z"/><g><path class="cls-16" d="M115.22,86.36c-27.56,4.97-40.86,40.35-35.38,64.06,5.48,23.7,17.78,35.63,31.95,45.36,14.16,9.73,34.45,6.47,34.45,6.47,0,0,29.33-2.99,36.37-27.71,7.04-24.71,8.78-34.47,2.33-51.23-6.44-16.76-17.85-30.21-23.8-26.98-2.08-7.36-18.37-14.94-45.92-9.98Z"/><path class="cls-5" d="M128.7,100.49c10.46-2.03,44.49,9.1,48.18,44.21s-7.21,56.8-29.39,60.19c-23.82,3.64-38.85-12.99-50.62-32.75-11.77-19.75-10.94-63.36,31.83-71.66Z"/><path class="cls-16" d="M182.17,142.08s-8.41-1.98-19.54-6.33c-7.23-2.83-13-9.22-17.59-14.51-4.76,5.87-15.73,18.95-23.21,24.22-9.78,6.89-30.09,18.26-30.09,18.26,0,0-20.87-60.15,36.69-68.02,42.26-5.78,53.75,46.38,53.75,46.38Z"/><path class="cls-5" d="M98.21,160.04s-4.37-3.68-8.79-.57c-4.42,3.12-7.71,10.28-2.41,16,5.3,5.73,13.8,10.24,18.98,4.63,5.18-5.62-7.78-20.06-7.78-20.06Z"/></g><g><g><path class="cls-4" d="M425.01,91.72c1.06-2.01,3.55-2.79,5.56-1.73h0c2.01,1.06,2.79,3.55,1.73,5.56l-2.64,5.03c-1.06,2.01-3.55,2.79-5.56,1.73h0c-2.01-1.06-2.79-3.55-1.73-5.56l2.64-5.03Z"/><path class="cls-8" d="M477.16,62.99c7.37-14.02,1.97-31.36-12.05-38.73-14.02-7.37-31.36-1.97-38.73,12.05-5.32,10.13-3.98,21.99,2.46,30.58l-5.91,11.24,21.74,11.42,5.91-11.24c10.72,.44,21.25-5.19,26.58-15.32Z"/><path class="cls-4" d="M419.77,84.16c-2.04,3.89-.55,8.69,3.34,10.74l7.67,4.03c3.89,2.04,8.7,.55,10.74-3.34l3.68-7.01-21.74-11.42-3.68,7.01Z"/><path class="cls-7" d="M444.37,40.14c-4.1,3.73-9.11,4.88-11.21,2.58-2.09-2.3-.47-7.18,3.63-10.91,4.1-3.73,9.11-4.88,11.21-2.58,2.09,2.3,.47,7.18-3.63,10.91Z"/></g><path class="cls-8" d="M470.56,17.64c-.45,.85-1.5,1.18-2.35,.73h0c-.85-.45-1.18-1.5-.73-2.35l5.1-9.7c.45-.85,1.5-1.18,2.35-.73h0c.85,.45,1.18,1.5,.73,2.35l-5.1,9.7Z"/><path class="cls-8" d="M452.4,12.62c.04,.96-.71,1.77-1.67,1.81h0c-.96,.04-1.77-.71-1.81-1.67l-.44-10.95c-.04-.96,.71-1.77,1.67-1.81h0c.96-.04,1.77,.71,1.81,1.67l.44,10.95Z"/><g><path class="cls-8" d="M434.16,17.35c.51,.81,.27,1.89-.54,2.4h0c-.81,.51-1.89,.27-2.4-.54l-5.85-9.26c-.51-.81-.27-1.89,.54-2.4h0c.81-.51,1.89-.27,2.4,.54l5.85,9.26Z"/><path class="cls-8" d="M478.85,88.07c.51,.81,.27,1.89-.54,2.4h0c-.81,.51-1.89,.27-2.4-.54l-5.85-9.26c-.51-.81-.27-1.89,.54-2.4h0c.81-.51,1.89-.27,2.4,.54l5.85,9.26Z"/></g><g><path class="cls-8" d="M420.74,30.56c.85,.45,1.18,1.5,.73,2.35h0c-.45,.85-1.5,1.18-2.35,.73l-9.7-5.1c-.85-.45-1.18-1.5-.73-2.35h0c.45-.85,1.5-1.18,2.35-.73l9.7,5.1Z"/><path class="cls-8" d="M494.79,69.47c.85,.45,1.18,1.5,.73,2.35h0c-.45,.85-1.5,1.18-2.35,.73l-9.7-5.1c-.85-.45-1.18-1.5-.73-2.35h0c.45-.85,1.5-1.18,2.35-.73l9.7,5.1Z"/></g><g><path class="cls-8" d="M415.71,48.72c.96-.04,1.77,.71,1.81,1.67h0c.04,.96-.71,1.77-1.67,1.81l-10.95,.44c-.96,.04-1.77-.71-1.81-1.67h0c-.04-.96,.71-1.77,1.67-1.81l10.95-.44Z"/><path class="cls-8" d="M499.31,45.39c.96-.04,1.77,.71,1.81,1.67h0c.04,.96-.71,1.77-1.67,1.81l-10.95,.44c-.96,.04-1.77-.71-1.81-1.67h0c-.04-.96,.71-1.77,1.67-1.81l10.95-.44Z"/></g><path class="cls-8" d="M491.17,22.27c.81-.51,1.89-.27,2.4,.54h0c.51,.81,.27,1.89-.54,2.4l-9.26,5.85c-.81,.51-1.89,.27-2.4-.54h0c-.51-.81-.27-1.89,.54-2.4l9.26-5.85Z"/></g><path class="cls-2" d="M377.5,258.69c-9.2,20.5-1.52,45.63-2.69,69.37"/><path class="cls-6" d="M402.26,233.66s5.33,2.01,12.86,2.5c7.53,.48,16.8-1.49,16.8-1.49l.75,3.22s-5.88,3.68-18.17,2.92c-12.56-.78-14.84-4.6-14.84-4.6l2.59-2.55Z"/><path class="cls-6" d="M165.73,216.58c.61-2.49-3.1-4.27-3.1-4.27,0,0-10.11,5.81-18.85,6-8.74,.2-14.35-4.06-14.35-4.06,0,0-4.93,1-3.05,5.27,.7,4.56,8.95,9.82,13.18,12.24,1.5,.86,2.35,2.51,2.2,4.23l-8.12,93.33,36.08-2-17.08-91.05c-.32-1.7,.39-3.41,1.82-4.39,3.79-2.6,10.87-8.34,11.28-15.3Z"/><g><path class="cls-16" d="M382.05,186.86s-10.15-8.2-4.3-26.94c5.86-18.74,19.93-26.28,34.38-27.64,14.45-1.37,30.2,6.51,32,12.61,2.73-1.76,8.99,.6,11.92,3.72,2.93,3.12,16.99,18.73,.98,50.55-16.01,31.82-39.44,26.18-39.44,26.18l-25.59-31.64-9.96-6.83Z"/><path class="cls-5" d="M409.65,230.46c-8.28-1.04-23.43-8.59-27.07-33.32-3.64-24.73,12.5-44.77,34.36-44.77s31.76,25.51,29.94,36.44c-1.82,10.93-8.33,45.29-37.22,41.65Z"/><path class="cls-5" d="M437.69,189.98s5.27-5.47,10.15-5.08,5.27,10.54,3.71,14.25c-1.56,3.71-7.03,9.76-12.3,8.98s-1.56-18.16-1.56-18.16Z"/><path class="cls-16" d="M435.16,181.59c4.1,1.01-12.77,3.62-32.53,2.37-12.66-.8-22.45-6.45-22.45-6.45,0,0,4.41-18.18,11.05-23.45,6.64-5.27,18.74-8.79,24.01-8.2s21.28,2.93,21.48,9.37c.2,6.44,11.32,21.67-1.56,26.36Z"/><path class="cls-16" d="M427.74,170.46s6.64,8.59,7.42,11.13c.78,2.54-4.28,16.82-4.28,16.82,.98,2.15,4.28-1.01,4.28-1.01,0,0,6.05-8.98,10.35-9.96s12.89,3.32,15.23-6.25c2.34-9.57,1.37-21.67-5.86-26.94-7.22-5.27-19.13-3.9-22.26-1.95-3.12,1.95-7.42,14.06-4.88,18.16Z"/></g><path class="cls-5" d="M277.52,247.28s-7.38-18.54-3.6-27.46c3.78-8.92,7.26,1.82,8.47,3.91,1.22,2.09,2.98,6.58,6.44,4.93,3.76-1.79,17.42-32.81,28.43-30.24s16.59,21.45,11.93,33.68c-4.66,12.23-28,22.02-34.43,29.32-4.87,5.52-18.34,28.79-18.34,28.79l-19.15-11.28s19.91-26.8,20.26-31.65Z"/><path class="cls-3" d="M198.58,277.9c0,13.15,21.22,45,44.05,45,14.98,0,23.7-2.82,34.23-19.29,12.2-19.09,20.53-36.71,20.53-36.71,0,0-8.3,1.14-17.29-1.25-8.99-2.39-8.39-9.91-8.39-9.91,0,0-14.3,20.06-22.17,23.06-7.96,3.36-18.35-21.2-36.33-39.27-17.98-18.08-14.62,25.22-14.62,38.37Z"/><path class="cls-4" d="M197.18,270.98c0,13.15,23.76,49.62,46.59,49.62,14.98,0,23.7-2.82,34.23-19.29,12.2-19.09,20.53-36.71,20.53-36.71,0,0-8.3,1.14-17.29-1.25-8.99-2.39-8.39-9.91-8.39-9.91,0,0-14.3,20.06-22.17,23.06-7.96,3.36-18.35-21.2-36.33-39.27-17.98-18.08-17.16,20.59-17.16,33.75Z"/><circle class="cls-3" cx="131.53" cy="239.36" r="3.93"/><g class="cls-17"><g><path class="cls-13" d="M704.13,732.01c168.6,0,256.67-169.49,141.31-272.91-97.49-87.39-269.65-142.62-555.6-142.62s-462.9,59.37-551.59,152.4c-100.97,105.9-10.1,263.13,151.29,263.13H704.13Z"/><path class="cls-5" d="M127.85,348.14s28.39-4.29,28.82,.51c.48,5.42-12.28,4.03-13.47,6.82-1.42,3.33,27.24,16.75,21.98,24.42-5.26,7.67-15.39,10.52-28.43,7.33-13.04-3.19-17.73-16.37-19.18-21.46s2.99-10.91,2.99-10.91l7.29-6.71Z"/><path class="cls-3" d="M113.07,321.11c1.65,1.4,22.05,23.29,22.06,27.7,0,3.16-2.92,8.28-6.73,13.11-3.88,4.91-8.9,11.34-13.09,10.02-3.43-1.08-23.18-13.25-41.43-34.82-2.8-3.3-5.8-6.35-6.81-14.99-.95-8.08-6.68-43.84,7.56-53.24,14.23-9.4,24.47,6.54,25.43,12.07,.59,3.39,10.42,31.66,10.93,34.31,.39,2,.43,4.45,2.08,5.85Z"/><path class="cls-4" d="M110.77,321.11c1.65,1.4,22.05,23.29,22.06,27.7,0,3.16-2.92,8.28-6.73,13.11s-8.9,11.34-13.09,10.02c-3.43-1.08-23.18-13.25-41.43-34.82-2.8-3.3-5.8-6.35-6.81-14.99-.95-8.08-6.15-57.95,8.09-67.35,14.23-9.4,26.24,20.65,27.19,26.18,.59,3.39,8.13,31.66,8.64,34.31,.39,2,.43,4.45,2.08,5.85Z"/><path class="cls-5" d="M440.69,344.25s-23.82-.77-23.7,3.22c.13,4.52,10.51,2.12,11.77,4.31,1.5,2.61-20.82,16.45-15.74,22.27,5.08,5.81,13.71,7.17,24.15,3.27,10.43-3.9,13.02-15.21,13.72-19.55,.7-4.34-3.52-8.7-3.52-8.7l-6.66-4.82Z"/><path class="cls-3" d="M450.47,320.31c-1.23,1.31-15.91,21.34-15.49,24.98,.3,2.6,3.21,6.54,6.82,10.15,3.67,3.67,8.44,8.48,11.77,6.98,2.72-1.22,17.81-13.18,30.75-32.73,1.98-3,4.16-5.8,4.16-13.02,0-6.75,.11-46.96-12.54-53.32-12.64-6.36-19.32,17.39-20.21,22.42-.5,2.81-3.94,27.28-4.11,29.52-.13,1.68,.08,3.71-1.15,5.02Z"/><path class="cls-4" d="M452.13,320.31c-1.23,1.31-15.91,21.34-15.49,24.98,.3,2.6,3.21,6.54,6.82,10.15,3.67,3.67,8.44,8.48,11.77,6.98,2.72-1.22,17.81-13.18,30.75-32.73,1.98-3,4.16-5.8,4.16-13.02,0-6.75-.57-48.35-13.22-54.72-12.64-6.36-19.61,19.57-19.86,24.22-.15,2.85-3.62,26.88-3.78,29.12-.13,1.68,.08,3.71-1.15,5.02Z"/></g><g><path class="cls-15" d="M233.71,358.44c-1.43-2.85,2.16-6.31,4.69-6.7l58.3-5.39c2.53-.39,5.14,.3,5.83,1.55l35.57,56.19c.68,1.24-.58,5.97-5.8,6.95l-59.64,9.14c-2.53,.39-5.14-.3-5.83-1.55l-33.12-60.19Z"/><path class="cls-11" d="M235.16,356.44c-.68-1.24,.7-4.31,3.24-4.7l59.75-7.39c2.53-.39,5.14,.3,5.83,1.55l34.12,58.19c.88,1.64-1.82,4.56-4.35,4.95l-59.64,9.14c-2.53,.39-5.14-.3-5.83-1.55l-33.12-60.19Z"/><path class="cls-6" d="M236.16,354.44c-.68-1.24,.82-2.56,3.35-2.95l59.64-9.14c2.53-.39,5.14,.3,5.83,1.55l33.12,60.19c.68,1.24-.82,2.56-3.35,2.95l-59.64,9.14c-2.53,.39-5.14-.3-5.83-1.55l-33.12-60.19Z"/><polygon class="cls-4" points="241.95 358.33 304.04 348.81 333.61 402.56 271.52 412.07 241.95 358.33"/><path class="cls-11" d="M300.03,409.61c-.07-.12-.05-.24,.04-.25l6.67-1.02c.09-.01,.21,.08,.28,.2h0c.07,.12,.05,.24-.04,.25l-6.67,1.02c-.09,.01-.21-.08-.28-.2h0Z"/><ellipse class="cls-11" cx="271.27" cy="350.44" rx="1.97" ry="3.2" transform="translate(-105.41 583.9) rotate(-84.05)"/><g id="_グループ_1270"><g id="_グループ_486-2"><path id="_パス_182" class="cls-6" d="M273.21,373.75c.08-.01,.12,.06,.2,.04s.07-.03,.15-.04,.07-.03,.15-.05,.1,.03,.18,.01,.07-.03,.15-.04,.07-.02,.15-.04,.07-.04,.15-.05,.1,.02,.18,0,.08,0,.16-.01,.05-.06,.13-.08,.09,0,.17-.01,.08-.02,.16-.03l.16-.02c.08-.01,.09,0,.16-.01s.09,0,.17-.01,.06-.05,.14-.06,.11,.05,.19,.04,.06-.05,.14-.07,.1,.03,.18,.02,.08-.02,.15-.03,.08-.02,.16-.03,.07-.04,.15-.05l.16-.02c.08-.01,.09,0,.17,0s.09,0,.16-.01,.07-.03,.15-.04,.1,.02,.18,0l.16-.02c.08-.01,.06-.05,.14-.07l.17,.04,.15,.03,.19,.02,.04,.12,.05,.09s.01,.07,.02,.11c.02,.05-.02,.05-.02,.11s.02,.05,.03,.11,.03,.05,.04,.11,.02,.05,.03,.11,.05,.05,.05,.11-.05,.05-.04,.11,.04,.05,.05,.11-.07,.05-.06,.11,.11,.05,.12,.11,0,.05,0,.11-.02,.05-.01,.1,.02,.05,.02,.11-.07,.05-.07,.11,.09,.05,.1,.11,.03,.05,.04,.11-.09,.05-.08,.1,.09,.05,.1,.11-.07,.05-.07,.11,.11,.05,.12,.11-.04,.05-.03,.11,0,.05,0,.11,.06,.05,.07,.11-.1,.05-.1,.11,.01,.05,.02,.11,.07,.05,.08,.11,.03,.05,.03,.11,.04,.05,.04,.11-.08,.05-.07,.11,.02,.05,.03,.11,.03,.05,.04,.11,.04,.05,.05,.11-.02,.05-.01,.1,.05,.05,.06,.11-.05,.05-.04,.1-.05,.05-.04,.11,.09,.05,.09,.11-.07,.05-.07,.11,.11,.05,.12,.11-.1,.05-.1,.11,.06,.05,.07,.11-.03,.05-.03,.11,.02,.05,.03,.11,.09,.05,.1,.11-.04,.05-.04,.11,0,.05,0,.11-.02,.05-.02,.11,0,.05,0,.11,.07,.05,.07,.11-.04,.05-.03,.1,.06,.05,.07,.11,.03,.05,.03,.11,.03,.05,.03,.11,.01,.05,.02,.11-.07,.05-.06,.1,.03,.05,.04,.11,.04,.05,.05,.11-.03,.05-.03,.1,.02,.05,.03,.11-.07,.05-.06,.1,.03,.05,.04,.11,.02,.05,.03,.11,0,.05,0,.11,0,.05,.01,.11,.07,.05,.07,.11,0,.05,0,.11,.02,.05,.02,.11-.01,.05,0,.11,0,.05,.01,.11-.02,.05-.02,.11,.09,.05,.1,.11-.08,.05-.08,.11,.06,.05,.07,.11-.02,.05-.01,.1-.01,.05,0,.11,.1,.05,.11,.11-.02,.05-.02,.11-.08,.05-.07,.1,.1,.05,.1,.11-.03,.05-.02,.11,.06,.05,.06,.11,0,.05,.01,.11,0,.05,0,.11-.09,.05-.08,.1,.07,.05,.08,.11-.02,.05-.01,.1,.06,.05,.07,.11,.03,.05,.04,.11-.08,.05-.07,.1,.07,.05,.08,.11,0,.05,0,.11-.06,.05-.05,.11,.07,.05,.08,.11,.04,.05,.04,.11-.04,.05-.04,.1-.04,.05-.04,.11,.08,.05,.09,.11,0,.05,0,.11-.02,.05-.01,.1,.04,.05,.04,.11,.02,.05,.03,.11-.02,.05-.01,.1-.05,.05-.04,.11,.12,.05,.12,.11-.06,.05-.05,.1,.06,.05,.07,.11-.08,.05-.07,.1,.04,.05,.05,.11,.01,.05,.02,.11,.01,.05,.02,.11,.02,.05,.02,.11,.04,.05,.05,.11,.01,.05,.02,.11,0,.05,.01,.11-.1,.05-.09,.1,.05,.05,.06,.11-.04,.05-.03,.1,.02,.05,.02,.11,.08,.05,.09,.11-.06,.05-.06,.11,.01,.05,.02,.11,.03,.05,.04,.11,.02,.05,.03,.11,0,.05,.01,.1-.03,.05-.02,.11,.1,.05,.11,.11,.01,.05,.02,.11,0,.05,0,.11-.08,.05-.07,.1,.01,.05,.02,.11,.08,.05,.09,.11-.08,.05-.07,.1,0,.05,0,.1,.02,.05,.02,.11,.1,.05,.11,.11-.05,.05-.04,.11,.06,.05,.07,.11-.07,.05-.06,.1,.09,.05,.1,.11-.02,.05-.01,.1,0,.05,0,.1,.01,.05,.02,.11-.02,.05,0,.1-.02,.05-.01,.1,.06,.05,.06,.11,.01,.05,.02,.11-.05,.05-.04,.1,.05,.05,.05,.11,.04,.05,.05,.11-.1,.05-.09,.1,.1,.05,.11,.11-.06,.05-.06,.1,.08,.05,.08,.11-.01,.05,0,.11-.06,.05-.06,.1,.1,.05,.11,.11v.11c.02,.05-.06,.05-.05,.11l.09,.11-.11,.09-.04,.1-.15,.05-.1,.08-.16,.03c-.08,.01-.07,.02-.15,.03s-.1-.02-.18,0-.05,.07-.13,.08-.08,0-.16,.02-.1-.03-.18-.02-.06,.05-.14,.06-.08,.02-.16,.03-.1-.03-.18-.02-.06,.05-.14,.06-.09-.01-.17,0-.08,0-.16,.02-.05,.05-.13,.06-.11-.04-.19-.03-.08,.02-.16,.03-.06,.04-.14,.05-.07,.03-.15,.04-.11-.04-.19-.03-.06,.06-.13,.07-.09-.02-.17,0-.07,.03-.15,.04-.09-.02-.17,0-.07,.03-.15,.04-.07,.03-.15,.05-.08,.01-.16,.02-.09-.01-.17,0-.08,0-.16,.02-.07,.04-.14,.05-.1-.03-.18-.01-.06,.05-.14,.06-.08,0-.16,.02h-.17s-.18-.01-.18-.01l-.11-.09-.16-.07v-.11c0-.05-.04-.05-.05-.11s0-.05-.02-.11-.03-.05-.04-.11,.08-.05,.07-.11-.05-.05-.06-.11,0-.05-.01-.11,.05-.05,.04-.11-.06-.05-.07-.11,.06-.05,.06-.11-.06-.05-.07-.11-.04-.05-.04-.11,.03-.05,.02-.11-.07-.05-.08-.11,.09-.05,.08-.11-.08-.05-.08-.11,.02-.05,.01-.1-.04-.05-.05-.11,0-.05,0-.11,.05-.05,.05-.11-.02-.05-.02-.11-.03-.05-.04-.11,.02-.05,.02-.11,0-.05,0-.11,0-.05-.01-.11-.03-.05-.04-.11-.07-.05-.08-.11-.01-.05-.02-.11,.07-.05,.06-.1-.06-.05-.07-.11,.05-.05,.04-.11,.01-.05,0-.11-.06-.05-.07-.11-.03-.05-.04-.11,0-.05,0-.11-.04-.05-.05-.11,.09-.05,.08-.1-.07-.05-.08-.11-.05-.05-.06-.11,.02-.05,.02-.11-.01-.05-.02-.11,.05-.05,.04-.11-.07-.05-.08-.11,.09-.05,.08-.1-.08-.05-.09-.11-.01-.05-.02-.11,.06-.05,.05-.1-.06-.05-.06-.11,.02-.05,.02-.11-.05-.05-.05-.11-.02-.05-.03-.11,0-.05-.02-.11,0-.05-.01-.11,.07-.05,.06-.11-.02-.05-.03-.11,0-.05,0-.11,0-.05,0-.11-.11-.05-.12-.11,0-.05-.01-.11,.07-.05,.07-.11-.07-.05-.08-.11-.01-.05-.02-.11,.04-.05,.03-.11-.06-.05-.07-.11,.1-.05,.09-.1-.09-.06-.09-.11,.03-.05,.02-.11,0-.05,0-.11-.05-.05-.06-.11-.01-.05-.02-.11,.06-.05,.05-.1-.09-.05-.1-.11,.07-.05,.06-.11-.07-.05-.08-.11,0-.05,0-.11,0-.05,0-.11,0-.05,0-.11,0-.05-.02-.11-.05-.05-.06-.11,0-.05,0-.11,.01-.05,0-.11,.05-.05,.04-.11-.07-.05-.08-.11,.04-.05,.03-.1-.02-.05-.03-.11,.02-.05,0-.11-.08-.05-.09-.11,.08-.05,.07-.1-.04-.05-.04-.11-.05-.05-.05-.11-.03-.05-.04-.11,.07-.05,.06-.1-.09-.05-.1-.11,.04-.05,.04-.11,0-.05-.01-.11,0-.05,0-.11-.06-.05-.07-.11,0-.05-.01-.11,.04-.05,.03-.11,.05-.05,.04-.1-.06-.05-.06-.11-.05-.05-.06-.11-.01-.05-.02-.11,.08-.05,.07-.1,0-.05,0-.11-.03-.05-.04-.11-.02-.05-.02-.11,.02-.05,.01-.1-.06-.05-.07-.11-.01-.05-.02-.11-.03-.05-.04-.11,.09-.05,.08-.11-.05-.05-.05-.11-.05-.05-.06-.11,.05-.05,.04-.1-.07-.05-.08-.11,.06-.05,.06-.11-.03-.05-.04-.11,0-.05,0-.11-.05-.05-.05-.11,0-.05,0-.11,.04-.05,.03-.1-.07-.05-.08-.11-.03-.05-.04-.11,0-.05,0-.11,0-.05,0-.11,.01-.05,0-.1,0-.05,0-.11-.02-.05-.03-.11,.01-.05,0-.11v-.11c-.02-.05-.03-.05-.04-.11s.03-.05,.02-.11-.05-.05-.05-.11,.02-.05,.01-.1,.05-.05,.04-.11-.03-.05-.03-.11,0-.05-.01-.11-.02-.05-.03-.1-.07-.05-.07-.11,.02-.05,.02-.11-.02-.05-.03-.11-.01-.05-.02-.11,.01-.05,0-.1-.05-.05-.05-.11,.02-.05,.01-.1,.07-.05,.06-.1-.04-.05-.05-.11,.02-.05,.02-.11-.08-.05-.09-.11,.03-.05,.03-.11,0-.05-.02-.11,.02-.05,.02-.11-.04-.05-.05-.11-.02-.05-.03-.11-.04-.05-.05-.11,.06-.05,.06-.11-.02-.05-.02-.11-.02-.05-.03-.11l.02-.1-.04-.12,.14-.06,.11-.07,.14-.04,.13-.07c.08-.01,.07-.03,.15-.05"/><path id="_パス_183" class="cls-6" d="M295.6,372.27c.06,0,.14,.04,.18,.08s.04,.05,.09,.1,.04,.05,.09,.1,.12,.02,.16,.07,0,.06,.05,.11,0,.06,.06,.11,.14,.01,.19,.06,.04,.05,.09,.1-.01,.07,.03,.12,.1,.03,.15,.08,.03,.05,.08,.1,.04,.05,.09,.1,.1,.03,.14,.08-.01,.07,.03,.12,.08,.04,.13,.08,0,.07,.04,.11,.12,.02,.16,.07-.02,.07,.03,.12,.06,.04,.11,.09,.04,.05,.09,.1,.03,.05,.08,.1,.08,.03,.13,.08,.09,.03,.14,.08,.06,.04,.11,.09,.01,.06,.06,.11,.05,.05,.1,.09,0,.06,.06,.11,.02,.06,.07,.1,.1,.03,.15,.07,.07,.04,.12,.08,.05,.05,.1,.09-.03,.07,.02,.12,.06,.04,.11,.09,.06,.04,.11,.09,.09,.03,.13,.08,.04,.05,.09,.1,.03,.05,.07,.1,.03,.05,.07,.1,.09,.03,.14,.08,0,.06,.05,.11,.11,.02,.16,.07,.03,.05,.08,.1,.04,.05,.09,.1,0,.07,.04,.11,.13,.02,.18,.06,.03,.05,.07,.1,0,.06,.04,.11,.09,.03,.14,.08,.05,.05,.09,.09,.06,.04,.11,.09-.02,.07,.03,.12,.06,.04,.11,.09,.09,.03,.14,.08,0,.06,.05,.11,.08,.04,.13,.08,.06,.04,.11,.09,0,.06,.05,.11,.1,.03,.15,.07,.02,.06,.07,.1,.05,.05,.1,.09,.02,.06,.07,.1,.03,.05,.08,.1,.13,.02,.18,.06,0,.06,.05,.11,.03,.05,.08,.1,.1,.03,.15,.07-.02,.07,.04,.12,.02,.05,.07,.1,.11,.02,.16,.07,.07,.04,.12,.08-.02,.07,.02,.12,.11,.03,.16,.07,.01,.06,.06,.11,.01,.06,.06,.1,.06,.04,.11,.09,.02,.06,.07,.1,.11,.02,.16,.07-.02,.07,.03,.12,.11,.02,.15,.07,.05,.05,.1,.09,0,.06,.05,.11,.1,.03,.14,.08,0,.06,.05,.11,.1,.03,.15,.07-.02,.07,.03,.11,.04,.05,.09,.1,.07,.04,.11,.09,.11,.02,.16,.07,0,.07,.04,.11,.11,.03,.15,.07,.05,.05,.1,.09-.02,.07,.03,.12,.09,.03,.13,.08,.05,.04,.1,.09,.06,.04,.11,.09-.01,.07,.03,.12,.11,.03,.15,.07-.02,.07,.03,.12,.1,.03,.15,.08,.05,.05,.1,.09,0,.07,.04,.11,.11,.03,.15,.07,.04,.05,.09,.1-.02,.07,.03,.12,.08,.03,.13,.08,.08,.04,.13,.08-.02,.07,.03,.12,.12,.02,.17,.07,.02,.06,.07,.1,.04,.05,.09,.09,.05,.05,.09,.09,.05,.05,.1,.09,.09,.03,.13,.08,0,.07,.04,.11,.02,.06,.06,.1,.06,.04,.11,.09,.03,.05,.08,.1,.13,.02,.17,.07,.05,.05,.1,.09,.05,.04,.1,.09-.04,.08,0,.12,.04,.05,.09,.1,.13,.02,.17,.07,.01,.06,.06,.11,.05,.04,.1,.09,.02,.06,.06,.1,.11,.02,.16,.07,.01,.06,.06,.11,.06,.04,.11,.09-.02,.07,.03,.12,.07,.04,.12,.08,.03,.05,.08,.1,.08,.03,.13,.08,.04,.05,.08,.1,.04,.05,.09,.1,.09,.03,.14,.08,0,.06,.04,.11,.07,.04,.12,.08,.07,.04,.12,.08,.03,.05,.07,.1,.02,.06,.06,.1,.05,.04,.1,.09,.13,.02,.17,.07,.01,.06,.06,.11l.09,.1-.06,.1-.08,.08-.07,.09-.14,.04c-.08,.01-.09,0-.17,.01s-.05,.06-.13,.08-.11-.04-.19-.03-.06,.04-.14,.05-.08,0-.16,.02-.07,.02-.15,.03-.1-.02-.18,0-.06,.04-.14,.06-.09-.01-.17,0l-.16,.02c-.08,.01-.09,0-.17,0s-.07,.03-.15,.05-.06,.05-.13,.07-.08,0-.16,.01-.08,0-.16,.01-.1-.03-.18-.01-.06,.05-.14,.06-.1-.02-.18-.01-.05,.07-.13,.08-.09,0-.17,0-.1-.04-.18-.02-.07,.03-.15,.05-.06,.05-.14,.06-.08,.02-.16,.03-.11-.04-.18-.03-.08,.02-.16,.03-.06,.05-.14,.06-.1-.02-.18-.01-.07,.03-.15,.04-.1-.02-.18-.01h-.16s-.17,.06-.17,.06l-.18-.03-.17-.06-.09-.11-.09-.09s-.07-.04-.13-.08-.02-.06-.07-.1-.1-.03-.15-.07-.03-.05-.08-.1-.05-.05-.09-.09,0-.06-.05-.11-.12-.02-.17-.07,0-.07-.04-.11-.08-.04-.13-.08-.05-.04-.1-.09,0-.06-.05-.11-.01-.06-.06-.1-.09-.03-.13-.08-.07-.04-.11-.09-.05-.04-.1-.09-.07-.04-.11-.09,.02-.07-.03-.12-.12-.02-.17-.07-.04-.05-.09-.09,.02-.07-.02-.12-.1-.03-.15-.08,0-.06-.06-.11-.09-.03-.14-.08,.03-.07-.02-.12-.07-.04-.12-.08-.03-.05-.08-.1-.09-.03-.14-.08-.06-.04-.1-.09-.05-.05-.09-.09-.03-.05-.08-.1-.04-.05-.08-.1l-.09-.09s-.1-.03-.15-.07,0-.07-.04-.11-.03-.05-.08-.1-.05-.05-.1-.09-.06-.04-.11-.09-.08-.03-.13-.08,0-.06-.05-.11-.06-.04-.1-.09-.09-.03-.14-.08-.03-.05-.08-.1-.03-.05-.07-.1-.09-.03-.14-.08-.03-.05-.07-.1-.04-.05-.09-.09-.03-.05-.07-.1-.08-.03-.13-.08-.01-.06-.06-.11-.07-.04-.12-.08-.03-.05-.07-.1-.03-.05-.08-.1-.02-.06-.07-.1-.08-.03-.13-.08-.07-.04-.12-.08-.04-.05-.09-.09-.06-.04-.1-.09-.05-.05-.1-.09,0-.06-.05-.11-.04-.05-.09-.1-.11-.02-.16-.07-.04-.05-.09-.1-.02-.06-.07-.1-.09-.03-.14-.08-.04-.05-.09-.1,.02-.07-.03-.12-.05-.05-.1-.09-.05-.05-.1-.09-.09-.03-.14-.08-.09-.03-.14-.08l-.02-.12-.05-.1-.12-.09-.11-.1,.06-.11-.07-.1-.03-.1c0-.05,.02-.05,.01-.11s-.06-.06-.07-.11,.05-.05,.04-.11,0-.05-.02-.11-.05-.05-.05-.11,.05-.05,.04-.11-.07-.05-.08-.11-.03-.05-.03-.11,.04-.05,.04-.11,.03-.05,.02-.11-.12-.05-.13-.11,.01-.05,0-.11,0-.05,0-.11-.04-.05-.05-.11,.03-.05,.02-.11,.05-.05,.05-.1,0-.05,0-.11-.01-.05-.02-.11-.11-.05-.12-.11,.01-.05,0-.11,.04-.05,.04-.11,.02-.05,.01-.11,0-.05,0-.11-.12-.05-.12-.11,.09-.05,.09-.1-.09-.05-.1-.11,0-.05-.01-.11,.02-.05,.01-.11,0-.05,0-.11-.05-.05-.06-.11,.05-.05,.04-.11,.02-.05,.02-.11-.06-.05-.07-.11,.06-.05,.06-.11-.1-.05-.11-.11,.01-.05,0-.11,.01-.05,0-.11-.04-.05-.04-.11,.05-.05,.04-.11-.07-.05-.08-.11,.05-.05,.04-.11,0-.05,0-.11,0-.05,0-.11-.11-.05-.11-.11,0-.05-.01-.11,0-.05-.01-.11,.02-.05,.02-.11,.02-.05,.02-.11-.07-.05-.07-.11,.03-.05,.02-.11,.04-.05,.03-.11-.09-.05-.1-.11,.04-.05,.03-.11,.03-.05,.02-.11-.04-.05-.05-.11-.02-.05-.03-.11-.06-.05-.06-.11,.08-.05,.07-.1-.09-.05-.1-.11,.02-.05,.01-.1,.05-.05,.04-.11-.05-.05-.06-.11,.03-.05,.02-.11,.01-.05,0-.11-.02-.05-.02-.11,0-.05,0-.11-.02-.11,.04-.12"/><g id="_グループ_475-2"><path id="SVGID-24" class="cls-6" d="M290.67,371c.08-.01,.11,.04,.19,.03s.08,0,.16-.02,.07-.03,.15-.04,.07-.04,.14-.05,.09,0,.17,0l.16-.02c.08-.01,.07-.03,.15-.05s.1,.03,.18,.02,.05-.07,.13-.08,.08-.01,.16-.02h.18s.15,.07,.15,.07l.12,.07,.18,.06v.12c0,.05-.03,.05-.03,.11s.07,.05,.08,.11-.08,.05-.07,.11,.05,.06,.06,.11,.04,.05,.05,.11-.01,.05,0,.11,.04,.05,.05,.11-.07,.05-.07,.11,0,.05,0,.11,.09,.05,.1,.11-.02,.05-.01,.11-.06,.05-.05,.11,.04,.05,.05,.11,.04,.05,.05,.11,.02,.05,.02,.11-.08,.05-.07,.1,.08,.05,.09,.11,.03,.05,.03,.11-.02,.05-.02,.11,.01,.05,.02,.11,.02,.05,.03,.11-.07,.05-.06,.11,.09,.05,.1,.11,.02,.05,.03,.11-.06,.05-.05,.11,0,.05,0,.11,.09,.05,.1,.11-.04,.05-.03,.11-.05,.05-.04,.1,.07,.05,.08,.11,.06,.05,.06,.11-.01,.05,0,.11-.02,.05-.02,.11,.05,.05,.06,.11-.1,.05-.09,.11,.1,.05,.11,.11-.08,.05-.07,.11,.04,.05,.05,.11,.05,.05,.06,.11-.06,.05-.05,.11,0,.05,0,.11,.04,.05,.05,.11,.04,.05,.05,.11-.04,.05-.03,.11,.05,.05,.06,.11-.04,.05-.03,.1,.06,.05,.06,.11-.07,.05-.06,.11,.1,.05,.1,.11-.05,.05-.04,.1,0,.05,0,.11-.01,.05,0,.11,0,.05,0,.11,.03,.05,.04,.11,.05,.05,.05,.11,.05,.05,.06,.11,0,.05,0,.11-.08,.05-.08,.1,.02,.05,.03,.11,.06,.05,.07,.11-.02,.05-.02,.11,.06,.05,.07,.11-.04,.05-.03,.11-.04,.05-.03,.11,.04,.05,.04,.11-.03,.05-.03,.1,0,.05,0,.11,.09,.05,.1,.11,0,.05,.02,.11,0,.05,.01,.11-.01,.05,0,.11-.02,.05-.01,.1,.03,.05,.04,.11,.01,.05,.02,.11,.03,.05,.03,.11-.04,.05-.03,.11-.01,.05,0,.11,.07,.05,.08,.11,.04,.05,.04,.11-.1,.05-.09,.1,.03,.05,.04,.11-.02,.05-.01,.1,.05,.05,.06,.11,.05,.05,.05,.11,.02,.05,.02,.11-.09,.05-.08,.1,.02,.05,.02,.11,.08,.06,.09,.11,.02,.05,.03,.11-.1,.05-.09,.1,.04,.05,.05,.11,.05,.05,.06,.11-.04,.05-.03,.11,.02,.05,.03,.11,.06,.05,.07,.11,.02,.05,.03,.11-.05,.05-.05,.1,.06,.05,.07,.11-.01,.05,0,.11,0,.05,0,.11-.04,.05-.04,.1-.02,.05-.02,.11,.06,.05,.07,.11,0,.05,0,.11,.02,.05,.03,.11,0,.05,0,.11-.01,.05,0,.11,.06,.05,.06,.11,.04,.05,.05,.11-.1,.05-.1,.11,0,.05,.01,.11,.1,.05,.1,.11-.08,.05-.07,.11,.07,.05,.08,.11-.04,.05-.04,.11,.05,.05,.06,.11-.04,.05-.04,.11,.02,.05,.02,.11,.02,.05,.03,.11-.02,.05,0,.11,.04,.05,.05,.11,.02,.05,.02,.11,0,.05,.02,.11,.05,.05,.06,.11-.02,.05-.01,.1,.04,.05,.05,.11-.03,.05-.02,.11-.02,.05-.01,.1,.08,.05,.09,.11-.09,.05-.08,.1,0,.05,.01,.11,.09,.05,.1,.11,0,.05,.02,.11,0,.05,0,.11-.03,.05-.03,.1,.02,.05,.03,.11-.02,.05-.02,.11,.03,.05,.03,.11-.05,.05-.04,.1,.03,.05,.04,.11,.04,.05,.05,.11,0,.05,0,.11,0,.05,0,.11,0,.05,0,.11l.02,.11c0,.05,0,.05,0,.11s.02,.05,.03,.11,.06,.05,.07,.11-.06,.05-.06,.1,.08,.05,.09,.11-.06,.05-.06,.11,.02,.05,.03,.11,.06,.05,.06,.11,.01,.05,.02,.11,0,.05,.01,.11,0,.05,0,.11-.04,.05-.03,.11,.04,.05,.05,.11v.11s-.1,.08-.1,.08v.12s-.14,.06-.14,.06l-.12,.08h-.18c-.08,0-.07,.03-.15,.04s-.08,0-.16,.01l-.16,.02c-.08,.01-.09,0-.17,0s-.07,.02-.15,.03-.06,.04-.14,.06-.1-.03-.18-.02-.05,.06-.13,.08-.08,.02-.15,.03l-.16,.02c-.08,.01-.07,.02-.15,.04s-.09-.01-.17,0-.1-.03-.18-.02-.06,.05-.14,.06-.07,.04-.14,.05-.11-.05-.19-.04-.06,.04-.14,.06-.08,.02-.16,.03-.09,0-.17,.01-.07,.03-.15,.04-.1-.03-.18-.01-.06,.04-.14,.05-.09,0-.17,0-.09,0-.17,.01-.06,.05-.14,.06-.09,0-.17,0-.07,.03-.15,.04-.06,.04-.14,.05-.09-.01-.17,0-.08,.02-.16,.03l-.18-.02h-.16s-.16-.03-.16-.03l-.14-.07-.18-.04-.08-.1s-.08-.04-.13-.08-.02-.06-.07-.1-.09-.03-.13-.08,.03-.07-.02-.12-.11-.03-.16-.07-.07-.04-.11-.09,.01-.07-.04-.11-.06-.04-.1-.09-.01-.06-.06-.11-.13-.02-.17-.07,0-.07-.04-.11-.11-.02-.16-.07,.03-.07-.02-.12-.12-.02-.16-.07-.02-.06-.07-.1,0-.06-.06-.11-.11-.02-.15-.07,.01-.07-.04-.11-.06-.04-.11-.09-.01-.06-.06-.1-.1-.03-.15-.07-.02-.06-.07-.1-.02-.06-.07-.1-.05-.04-.1-.09-.05-.04-.1-.09-.11-.03-.15-.07-.01-.06-.06-.11-.02-.06-.07-.1-.07-.04-.12-.08-.04-.05-.09-.1-.03-.05-.08-.1-.1-.03-.15-.07-.02-.06-.07-.1-.07-.04-.12-.08-.09-.03-.13-.08,0-.06-.06-.11-.03-.05-.08-.1-.04-.05-.09-.09-.1-.03-.14-.08-.01-.06-.06-.1,0-.06-.05-.11-.05-.05-.09-.09-.1-.03-.15-.07-.07-.04-.11-.09,0-.06-.04-.11-.08-.03-.13-.08-.01-.06-.06-.11-.06-.04-.11-.09-.01-.06-.06-.11-.12-.02-.17-.07,.03-.07-.02-.12-.12-.02-.16-.07-.02-.06-.06-.1-.09-.03-.14-.08,.01-.07-.03-.11-.11-.02-.16-.07,.02-.07-.03-.12-.08-.04-.13-.08-.04-.05-.09-.09-.08-.04-.13-.08-.06-.04-.1-.09-.05-.05-.1-.09,0-.06-.06-.11-.07-.04-.12-.08-.04-.05-.09-.1-.02-.06-.06-.1l-.09-.09s-.1-.03-.15-.07-.06-.04-.1-.09,0-.07-.04-.11l-.16-.07-.02-.11-.09-.1-.07-.1-.04-.1v-.11s0-.1,0-.1c0-.05-.01-.05-.02-.11s0-.05,0-.11-.07-.05-.08-.11,0-.05,0-.11-.03-.05-.03-.11,0-.05-.01-.11,.07-.05,.06-.11-.01-.05-.02-.11-.06-.05-.06-.11,.06-.05,.06-.11-.09-.05-.1-.11,.07-.05,.06-.11-.1-.05-.11-.11-.02-.05-.03-.11,0-.05,0-.11,.07-.05,.07-.11,.01-.05,0-.11-.1-.05-.1-.11-.03-.05-.04-.11,.01-.05,0-.11,.07-.05,.06-.11-.1-.05-.11-.11,.04-.05,.04-.11-.05-.05-.06-.11,.06-.05,.05-.11-.05-.05-.06-.11,.02-.05,.01-.1,0-.05-.01-.11,0-.05,0-.11-.05-.05-.05-.11,.04-.05,.03-.11-.09-.05-.1-.11,.02-.05,.02-.11,.07-.05,.06-.11-.07-.05-.08-.11,.03-.05,.02-.11,0-.05-.01-.11,0-.05,0-.11,0-.05-.02-.11-.01-.05-.02-.11-.09-.05-.1-.11,.09-.05,.08-.1-.04-.05-.05-.11-.03-.05-.04-.11,0-.05,0-.11,.03-.05,.02-.11-.07-.05-.08-.11,.03-.05,.03-.1-.07-.05-.07-.11-.02-.05-.02-.11,0-.05-.01-.11,.1-.05,.09-.1-.1-.05-.11-.11,.08-.05,.07-.1-.09-.05-.1-.11,.04-.05,.03-.11-.03-.05-.04-.11,0-.05-.01-.11,.05-.05,.05-.11-.04-.05-.05-.11-.06-.05-.07-.11,0-.05-.01-.11,.03-.05,.02-.11,0-.05,0-.11,.02-.05,.02-.11,0-.05,0-.11,0-.07,.06-.08,.1,0,.14,.04,.04,.05,.09,.1,.1,.03,.15,.08,.07,.04,.12,.08,.05,.05,.09,.1,.03,.05,.07,.1,.04,.05,.09,.1,.04,.05,.09,.1,0,.06,.06,.11,.05,.05,.1,.09,.05,.05,.1,.09,.03,.05,.08,.1,.11,.03,.15,.07,0,.07,.04,.11,.08,.04,.13,.08,.07,.04,.12,.08-.02,.07,.02,.12,.13,.02,.18,.06,.03,.05,.08,.1-.01,.07,.03,.12,.1,.03,.15,.07,.07,.04,.12,.08,.02,.06,.06,.11,.03,.06,.07,.1,.09,.03,.13,.08-.02,.07,.03,.12,.08,.04,.13,.08,.06,.04,.11,.09,.01,.06,.06,.11,.12,.02,.17,.07-.03,.07,.02,.12,.06,.04,.11,.09,.11,.03,.16,.07-.03,.08,.01,.12,.05,.04,.1,.09,.07,.04,.11,.09,.05,.04,.1,.09,.09,.03,.14,.08,.03,.05,.08,.1,0,.07,.04,.11,.07,.04,.12,.09,.04,.05,.09,.1,.09,.03,.13,.08,.01,.06,.06,.11,.1,.03,.15,.08,.02,.06,.07,.1,.06,.04,.11,.09,.08,.04,.13,.08,.02,.06,.07,.1,.03,.05,.08,.1,0,.06,.05,.11,.06,.04,.11,.09,.03,.05,.08,.1,.12,.02,.16,.07,0,.06,.05,.11,.06,.04,.1,.09,.09,.03,.13,.08,0,.06,.04,.11,.1,.03,.14,.08,0,.06,.06,.11,.01,.06,.06,.11,.12,.02,.17,.07,.04,.05,.09,.1,.07,.04,.11,.09,0,.06,.06,.11,.06,.04,.11,.09,.01,.06,.06,.11l.14,.06h.15s.15,0,.15,0l.1-.06,.02-.09c0-.05,.04-.05,.04-.11s-.08-.06-.09-.11,0-.05,0-.11,.08-.05,.08-.11-.09-.05-.1-.11,.06-.05,.05-.11,0-.05-.01-.11-.09-.06-.09-.11,.02-.05,.02-.11,.05-.05,.04-.11-.1-.05-.1-.11,.08-.05,.07-.11-.11-.05-.11-.11,.02-.05,.01-.11,.04-.05,.03-.11-.06-.05-.06-.11-.04-.05-.04-.11,.1-.05,.09-.11-.08-.05-.09-.11,0-.05-.01-.11,.04-.05,.03-.11-.04-.05-.05-.11-.04-.05-.05-.11,.04-.05,.04-.11,.04-.05,.03-.11-.1-.05-.11-.11,.07-.05,.06-.1-.02-.05-.03-.11,.02-.05,.02-.11-.04-.05-.05-.11-.02-.05-.03-.11-.05-.05-.06-.11-.02-.05-.03-.11,.04-.05,.03-.11,.04-.05,.03-.11-.04-.05-.04-.11-.06-.05-.06-.11,.08-.05,.07-.1-.03-.05-.04-.11-.03-.05-.04-.11,.06-.05,.06-.11-.11-.05-.12-.11,.09-.05,.08-.11-.03-.05-.04-.11-.01-.05-.02-.11-.04-.05-.05-.11,.04-.05,.03-.11,0-.05,0-.11,.01-.05,0-.1-.11-.05-.12-.11,.04-.05,.03-.1,.04-.05,.03-.11-.03-.05-.04-.11-.03-.05-.04-.11,.02-.05,.02-.11,0-.05,0-.11-.04-.05-.04-.11-.04-.05-.04-.11-.02-.05-.02-.11,0-.05-.02-.11-.02-.05-.02-.11,0-.05-.02-.11,.09-.05,.08-.1-.04-.05-.05-.11-.03-.05-.04-.11,.03-.05,.03-.11-.05-.05-.06-.11,.03-.05,.03-.11-.07-.05-.08-.11,.08-.05,.08-.1-.02-.05-.03-.11c0-.05-.05-.05-.06-.11s.02-.05,.01-.1-.05-.05-.06-.11,0-.05,0-.11,.02-.05,.01-.11,.02-.05,.02-.11-.04-.05-.05-.11-.05-.05-.06-.11,.07-.05,.06-.11-.11-.05-.12-.11l.03-.11,.12-.08,.05-.09,.11-.07,.09-.09h.18c.08,0,.07-.02,.15-.03s.09,0,.17-.01,.07-.03,.15-.04,.1,.02,.18,0,.06-.05,.14-.06,.08-.02,.16-.03,.07-.02,.15-.04,.09,0,.17,0,.07-.03,.15-.04,.08,0,.16-.02,.08-.02,.16-.03,.08,0,.16-.02,.08,0,.16-.02,.08-.02,.16-.03,.09,0,.17,0,.09,0,.17-.01,.05-.06,.13-.07,.09,0,.17,0,.09,0,.17,0,.06-.05,.14-.06"/><g><path class="cls-6" d="M290.67,371c.08-.01,.11,.04,.19,.03s.08,0,.16-.02,.07-.03,.15-.04,.07-.04,.14-.05,.09,0,.17,0l.16-.02c.08-.01,.07-.03,.15-.05s.1,.03,.18,.02,.05-.07,.13-.08,.08-.01,.16-.02h.18s.15,.07,.15,.07l.12,.07,.18,.06v.12c0,.05-.03,.05-.03,.11s.07,.05,.08,.11-.08,.05-.07,.11,.05,.06,.06,.11,.04,.05,.05,.11-.01,.05,0,.11,.04,.05,.05,.11-.07,.05-.07,.11,0,.05,0,.11,.09,.05,.1,.11-.02,.05-.01,.11-.06,.05-.05,.11,.04,.05,.05,.11,.04,.05,.05,.11,.02,.05,.02,.11-.08,.05-.07,.1,.08,.05,.09,.11,.03,.05,.03,.11-.02,.05-.02,.11,.01,.05,.02,.11,.02,.05,.03,.11-.07,.05-.06,.11,.09,.05,.1,.11,.02,.05,.03,.11-.06,.05-.05,.11,0,.05,0,.11,.09,.05,.1,.11-.04,.05-.03,.11-.05,.05-.04,.1,.07,.05,.08,.11,.06,.05,.06,.11-.01,.05,0,.11-.02,.05-.02,.11,.05,.05,.06,.11-.1,.05-.09,.11,.1,.05,.11,.11-.08,.05-.07,.11,.04,.05,.05,.11,.05,.05,.06,.11-.06,.05-.05,.11,0,.05,0,.11,.04,.05,.05,.11,.04,.05,.05,.11-.04,.05-.03,.11,.05,.05,.06,.11-.04,.05-.03,.1,.06,.05,.06,.11-.07,.05-.06,.11,.1,.05,.1,.11-.05,.05-.04,.1,0,.05,0,.11-.01,.05,0,.11,0,.05,0,.11,.03,.05,.04,.11,.05,.05,.05,.11,.05,.05,.06,.11,0,.05,0,.11-.08,.05-.08,.1,.02,.05,.03,.11,.06,.05,.07,.11-.02,.05-.02,.11,.06,.05,.07,.11-.04,.05-.03,.11-.04,.05-.03,.11,.04,.05,.04,.11-.03,.05-.03,.1,0,.05,0,.11,.09,.05,.1,.11,0,.05,.02,.11,0,.05,.01,.11-.01,.05,0,.11-.02,.05-.01,.1,.03,.05,.04,.11,.01,.05,.02,.11,.03,.05,.03,.11-.04,.05-.03,.11-.01,.05,0,.11,.07,.05,.08,.11,.04,.05,.04,.11-.1,.05-.09,.1,.03,.05,.04,.11-.02,.05-.01,.1,.05,.05,.06,.11,.05,.05,.05,.11,.02,.05,.02,.11-.09,.05-.08,.1,.02,.05,.02,.11,.08,.06,.09,.11,.02,.05,.03,.11-.1,.05-.09,.1,.04,.05,.05,.11,.05,.05,.06,.11-.04,.05-.03,.11,.02,.05,.03,.11,.06,.05,.07,.11,.02,.05,.03,.11-.05,.05-.05,.1,.06,.05,.07,.11-.01,.05,0,.11,0,.05,0,.11-.04,.05-.04,.1-.02,.05-.02,.11,.06,.05,.07,.11,0,.05,0,.11,.02,.05,.03,.11,0,.05,0,.11-.01,.05,0,.11,.06,.05,.06,.11,.04,.05,.05,.11-.1,.05-.1,.11,0,.05,.01,.11,.1,.05,.1,.11-.08,.05-.07,.11,.07,.05,.08,.11-.04,.05-.04,.11,.05,.05,.06,.11-.04,.05-.04,.11,.02,.05,.02,.11,.02,.05,.03,.11-.02,.05,0,.11,.04,.05,.05,.11,.02,.05,.02,.11,0,.05,.02,.11,.05,.05,.06,.11-.02,.05-.01,.1,.04,.05,.05,.11-.03,.05-.02,.11-.02,.05-.01,.1,.08,.05,.09,.11-.09,.05-.08,.1,0,.05,.01,.11,.09,.05,.1,.11,0,.05,.02,.11,0,.05,0,.11-.03,.05-.03,.1,.02,.05,.03,.11-.02,.05-.02,.11,.03,.05,.03,.11-.05,.05-.04,.1,.03,.05,.04,.11,.04,.05,.05,.11,0,.05,0,.11,0,.05,0,.11,0,.05,0,.11l.02,.11c0,.05,0,.05,0,.11s.02,.05,.03,.11,.06,.05,.07,.11-.06,.05-.06,.1,.08,.05,.09,.11-.06,.05-.06,.11,.02,.05,.03,.11,.06,.05,.06,.11,.01,.05,.02,.11,0,.05,.01,.11,0,.05,0,.11-.04,.05-.03,.11,.04,.05,.05,.11v.11s-.1,.08-.1,.08v.12s-.14,.06-.14,.06l-.12,.08h-.18c-.08,0-.07,.03-.15,.04s-.08,0-.16,.01l-.16,.02c-.08,.01-.09,0-.17,0s-.07,.02-.15,.03-.06,.04-.14,.06-.1-.03-.18-.02-.05,.06-.13,.08-.08,.02-.15,.03l-.16,.02c-.08,.01-.07,.02-.15,.04s-.09-.01-.17,0-.1-.03-.18-.02-.06,.05-.14,.06-.07,.04-.14,.05-.11-.05-.19-.04-.06,.04-.14,.06-.08,.02-.16,.03-.09,0-.17,.01-.07,.03-.15,.04-.1-.03-.18-.01-.06,.04-.14,.05-.09,0-.17,0-.09,0-.17,.01-.06,.05-.14,.06-.09,0-.17,0-.07,.03-.15,.04-.06,.04-.14,.05-.09-.01-.17,0-.08,.02-.16,.03l-.18-.02h-.16s-.16-.03-.16-.03l-.14-.07-.18-.04-.08-.1s-.08-.04-.13-.08-.02-.06-.07-.1-.09-.03-.13-.08,.03-.07-.02-.12-.11-.03-.16-.07-.07-.04-.11-.09,.01-.07-.04-.11-.06-.04-.1-.09-.01-.06-.06-.11-.13-.02-.17-.07,0-.07-.04-.11-.11-.02-.16-.07,.03-.07-.02-.12-.12-.02-.16-.07-.02-.06-.07-.1,0-.06-.06-.11-.11-.02-.15-.07,.01-.07-.04-.11-.06-.04-.11-.09-.01-.06-.06-.1-.1-.03-.15-.07-.02-.06-.07-.1-.02-.06-.07-.1-.05-.04-.1-.09-.05-.04-.1-.09-.11-.03-.15-.07-.01-.06-.06-.11-.02-.06-.07-.1-.07-.04-.12-.08-.04-.05-.09-.1-.03-.05-.08-.1-.1-.03-.15-.07-.02-.06-.07-.1-.07-.04-.12-.08-.09-.03-.13-.08,0-.06-.06-.11-.03-.05-.08-.1-.04-.05-.09-.09-.1-.03-.14-.08-.01-.06-.06-.1,0-.06-.05-.11-.05-.05-.09-.09-.1-.03-.15-.07-.07-.04-.11-.09,0-.06-.04-.11-.08-.03-.13-.08-.01-.06-.06-.11-.06-.04-.11-.09-.01-.06-.06-.11-.12-.02-.17-.07,.03-.07-.02-.12-.12-.02-.16-.07-.02-.06-.06-.1-.09-.03-.14-.08,.01-.07-.03-.11-.11-.02-.16-.07,.02-.07-.03-.12-.08-.04-.13-.08-.04-.05-.09-.09-.08-.04-.13-.08-.06-.04-.1-.09-.05-.05-.1-.09,0-.06-.06-.11-.07-.04-.12-.08-.04-.05-.09-.1-.02-.06-.06-.1l-.09-.09s-.1-.03-.15-.07-.06-.04-.1-.09,0-.07-.04-.11l-.16-.07-.02-.11-.09-.1-.07-.1-.04-.1v-.11s0-.1,0-.1c0-.05-.01-.05-.02-.11s0-.05,0-.11-.07-.05-.08-.11,0-.05,0-.11-.03-.05-.03-.11,0-.05-.01-.11,.07-.05,.06-.11-.01-.05-.02-.11-.06-.05-.06-.11,.06-.05,.06-.11-.09-.05-.1-.11,.07-.05,.06-.11-.1-.05-.11-.11-.02-.05-.03-.11,0-.05,0-.11,.07-.05,.07-.11,.01-.05,0-.11-.1-.05-.1-.11-.03-.05-.04-.11,.01-.05,0-.11,.07-.05,.06-.11-.1-.05-.11-.11,.04-.05,.04-.11-.05-.05-.06-.11,.06-.05,.05-.11-.05-.05-.06-.11,.02-.05,.01-.1,0-.05-.01-.11,0-.05,0-.11-.05-.05-.05-.11,.04-.05,.03-.11-.09-.05-.1-.11,.02-.05,.02-.11,.07-.05,.06-.11-.07-.05-.08-.11,.03-.05,.02-.11,0-.05-.01-.11,0-.05,0-.11,0-.05-.02-.11-.01-.05-.02-.11-.09-.05-.1-.11,.09-.05,.08-.1-.04-.05-.05-.11-.03-.05-.04-.11,0-.05,0-.11,.03-.05,.02-.11-.07-.05-.08-.11,.03-.05,.03-.1-.07-.05-.07-.11-.02-.05-.02-.11,0-.05-.01-.11,.1-.05,.09-.1-.1-.05-.11-.11,.08-.05,.07-.1-.09-.05-.1-.11,.04-.05,.03-.11-.03-.05-.04-.11,0-.05-.01-.11,.05-.05,.05-.11-.04-.05-.05-.11-.06-.05-.07-.11,0-.05-.01-.11,.03-.05,.02-.11,0-.05,0-.11,.02-.05,.02-.11,0-.05,0-.11,0-.07,.06-.08,.1,0,.14,.04,.04,.05,.09,.1,.1,.03,.15,.08,.07,.04,.12,.08,.05,.05,.09,.1,.03,.05,.07,.1,.04,.05,.09,.1,.04,.05,.09,.1,0,.06,.06,.11,.05,.05,.1,.09,.05,.05,.1,.09,.03,.05,.08,.1,.11,.03,.15,.07,0,.07,.04,.11,.08,.04,.13,.08,.07,.04,.12,.08-.02,.07,.02,.12,.13,.02,.18,.06,.03,.05,.08,.1-.01,.07,.03,.12,.1,.03,.15,.07,.07,.04,.12,.08,.02,.06,.06,.11,.03,.06,.07,.1,.09,.03,.13,.08-.02,.07,.03,.12,.08,.04,.13,.08,.06,.04,.11,.09,.01,.06,.06,.11,.12,.02,.17,.07-.03,.07,.02,.12,.06,.04,.11,.09,.11,.03,.16,.07-.03,.08,.01,.12,.05,.04,.1,.09,.07,.04,.11,.09,.05,.04,.1,.09,.09,.03,.14,.08,.03,.05,.08,.1,0,.07,.04,.11,.07,.04,.12,.09,.04,.05,.09,.1,.09,.03,.13,.08,.01,.06,.06,.11,.1,.03,.15,.08,.02,.06,.07,.1,.06,.04,.11,.09,.08,.04,.13,.08,.02,.06,.07,.1,.03,.05,.08,.1,0,.06,.05,.11,.06,.04,.11,.09,.03,.05,.08,.1,.12,.02,.16,.07,0,.06,.05,.11,.06,.04,.1,.09,.09,.03,.13,.08,0,.06,.04,.11,.1,.03,.14,.08,0,.06,.06,.11,.01,.06,.06,.11,.12,.02,.17,.07,.04,.05,.09,.1,.07,.04,.11,.09,0,.06,.06,.11,.06,.04,.11,.09,.01,.06,.06,.11l.14,.06h.15s.15,0,.15,0l.1-.06,.02-.09c0-.05,.04-.05,.04-.11s-.08-.06-.09-.11,0-.05,0-.11,.08-.05,.08-.11-.09-.05-.1-.11,.06-.05,.05-.11,0-.05-.01-.11-.09-.06-.09-.11,.02-.05,.02-.11,.05-.05,.04-.11-.1-.05-.1-.11,.08-.05,.07-.11-.11-.05-.11-.11,.02-.05,.01-.11,.04-.05,.03-.11-.06-.05-.06-.11-.04-.05-.04-.11,.1-.05,.09-.11-.08-.05-.09-.11,0-.05-.01-.11,.04-.05,.03-.11-.04-.05-.05-.11-.04-.05-.05-.11,.04-.05,.04-.11,.04-.05,.03-.11-.1-.05-.11-.11,.07-.05,.06-.1-.02-.05-.03-.11,.02-.05,.02-.11-.04-.05-.05-.11-.02-.05-.03-.11-.05-.05-.06-.11-.02-.05-.03-.11,.04-.05,.03-.11,.04-.05,.03-.11-.04-.05-.04-.11-.06-.05-.06-.11,.08-.05,.07-.1-.03-.05-.04-.11-.03-.05-.04-.11,.06-.05,.06-.11-.11-.05-.12-.11,.09-.05,.08-.11-.03-.05-.04-.11-.01-.05-.02-.11-.04-.05-.05-.11,.04-.05,.03-.11,0-.05,0-.11,.01-.05,0-.1-.11-.05-.12-.11,.04-.05,.03-.1,.04-.05,.03-.11-.03-.05-.04-.11-.03-.05-.04-.11,.02-.05,.02-.11,0-.05,0-.11-.04-.05-.04-.11-.04-.05-.04-.11-.02-.05-.02-.11,0-.05-.02-.11-.02-.05-.02-.11,0-.05-.02-.11,.09-.05,.08-.1-.04-.05-.05-.11-.03-.05-.04-.11,.03-.05,.03-.11-.05-.05-.06-.11,.03-.05,.03-.11-.07-.05-.08-.11,.08-.05,.08-.1-.02-.05-.03-.11c0-.05-.05-.05-.06-.11s.02-.05,.01-.1-.05-.05-.06-.11,0-.05,0-.11,.02-.05,.01-.11,.02-.05,.02-.11-.04-.05-.05-.11-.05-.05-.06-.11,.07-.05,.06-.11-.11-.05-.12-.11l.03-.11,.12-.08,.05-.09,.11-.07,.09-.09h.18c.08,0,.07-.02,.15-.03s.09,0,.17-.01,.07-.03,.15-.04,.1,.02,.18,0,.06-.05,.14-.06,.08-.02,.16-.03,.07-.02,.15-.04,.09,0,.17,0,.07-.03,.15-.04,.08,0,.16-.02,.08-.02,.16-.03,.08,0,.16-.02,.08,0,.16-.02,.08-.02,.16-.03,.09,0,.17,0,.09,0,.17-.01,.05-.06,.13-.07,.09,0,.17,0,.09,0,.17,0,.06-.05,.14-.06"/><g class="cls-18"><g id="_グループ_474-2"><g id="_グループ_473-2"><path id="SVGID-25" class="cls-6" d="M289,388.75l.08,.1,.18,.04,.14,.07,.16,.03h.16s.18,.02,.18,.02c.08-.01,.08-.02,.16-.03s.09,.01,.17,0,.06-.04,.14-.05,.07-.03,.15-.04,.09,0,.17,0,.06-.05,.14-.06,.08,0,.17-.01,.09,0,.17,0,.06-.04,.14-.05,.1,.03,.18,.01,.07-.03,.15-.04,.09,0,.17-.01,.08-.02,.16-.03,.06-.04,.14-.06,.11,.05,.19,.04,.06-.04,.14-.05,.06-.05,.14-.06,.1,.03,.18,.02,.09,.01,.17,0,.07-.02,.15-.04l.16-.02c.08-.01,.08-.02,.15-.03s.05-.06,.13-.08,.1,.03,.18,.02,.06-.04,.14-.06,.07-.02,.15-.03,.09,0,.17,0l.16-.02c.08-.01,.08,0,.16-.01s.07-.03,.15-.04h.18s.12-.07,.12-.07l.14-.06v-.12s.11-.08,.11-.08v-.11c-.01-.05-.05-.05-.06-.11s.04-.05,.03-.11,0-.05,0-.11,0-.05-.01-.11-.01-.05-.02-.11-.06-.05-.06-.11-.02-.05-.03-.11,.06-.05,.06-.11-.08-.05-.09-.11,.06-.05,.06-.1-.06-.05-.07-.11-.02-.05-.03-.11,0-.05,0-.11l-.02-.11c0-.05,0-.05,0-.11s0-.05,0-.11,0-.05,0-.11-.04-.05-.05-.11-.03-.05-.04-.11,.05-.05,.04-.1-.03-.05-.03-.11,.02-.05,.02-.11-.02-.05-.03-.11,.03-.05,.03-.1,0-.05,0-.11,0-.05-.02-.11-.09-.05-.1-.11,0-.05-.01-.11,.09-.05,.08-.1-.08-.05-.09-.11,.02-.05,.01-.1,.03-.05,.02-.11-.04-.05-.05-.11,.02-.05,.01-.1-.05-.05-.06-.11,0-.05-.02-.11-.02-.05-.02-.11-.04-.05-.05-.11,.01-.05,0-.11-.02-.05-.03-.11-.01-.05-.02-.11,.05-.05,.04-.11-.06-.05-.06-.11,.04-.05,.04-.11-.07-.05-.08-.11,.08-.05,.07-.11-.1-.05-.1-.11,0-.05-.01-.11,.1-.05,.1-.11-.04-.05-.05-.11-.05-.05-.06-.11,.01-.05,0-.11,0-.05,0-.11-.02-.05-.03-.11,0-.05,0-.11-.06-.05-.07-.11,.02-.05,.02-.11,.04-.05,.04-.1,0-.05,0-.11,.01-.05,0-.11-.06-.05-.07-.11,.05-.05,.05-.1-.02-.05-.03-.11-.06-.05-.07-.11-.02-.05-.03-.11,.04-.05,.03-.11-.05-.05-.06-.11-.04-.05-.05-.11,.1-.05,.09-.1-.02-.05-.03-.11-.08-.06-.09-.11-.02-.05-.02-.11,.09-.05,.08-.1-.01-.05-.02-.11-.04-.05-.05-.11-.05-.05-.06-.11,.02-.05,.01-.1-.03-.05-.04-.11,.1-.05,.09-.1-.04-.05-.04-.11-.07-.05-.08-.11,.01-.05,0-.11,.04-.05,.03-.11-.03-.05-.03-.11-.01-.05-.02-.11-.03-.05-.04-.11,.02-.05,.01-.1,.01-.05,0-.11,0-.05-.01-.11,0-.05-.02-.11-.09-.05-.1-.11,0-.05,0-.11,.03-.05,.03-.1-.04-.05-.04-.11,.04-.05,.03-.11,.04-.05,.03-.11-.06-.05-.07-.11,.02-.05,.02-.11-.06-.05-.07-.11-.02-.05-.03-.11,.08-.05,.08-.1,0-.05,0-.11-.05-.05-.06-.11-.04-.05-.05-.11-.03-.05-.04-.11,0-.05,0-.11,.01-.05,0-.11,0-.05,0-.11,.05-.05,.04-.1-.1-.05-.1-.11,.06-.05,.06-.11-.06-.05-.06-.11,.04-.05,.03-.1-.05-.05-.06-.11,.04-.05,.03-.11-.04-.05-.05-.11-.04-.05-.05-.11,0-.05,0-.11,.06-.05,.05-.11-.05-.05-.06-.11-.04-.05-.05-.11,.08-.05,.07-.11-.1-.05-.11-.11,.1-.05,.09-.11-.05-.05-.06-.11,.02-.05,.02-.11,.01-.05,0-.11-.06-.05-.06-.11-.07-.05-.08-.11,.05-.05,.04-.1,.04-.05,.03-.11-.09-.05-.1-.11,0-.05,0-.11,.06-.05,.05-.11-.02-.05-.03-.11-.09-.05-.1-.11,.07-.05,.06-.11-.02-.05-.03-.11-.01-.05-.02-.11,.02-.05,.02-.11-.03-.05-.03-.11-.08-.06-.09-.11,.08-.05,.07-.1-.02-.05-.02-.11-.04-.05-.05-.11-.04-.05-.05-.11,.06-.05,.05-.11,.02-.05,.01-.11c0-.05-.09-.05-.1-.11s0-.05,0-.11,.07-.05,.07-.11-.05-.05-.05-.11,0-.05,0-.11-.04-.05-.05-.11-.05-.05-.06-.11,.08-.05,.07-.11-.07-.05-.08-.11,.03-.05,.03-.11v-.12s-.18-.06-.18-.06l-.12-.07-.15-.08h-.18c-.08,.02-.08,.02-.16,.03s-.05,.07-.13,.08-.1-.03-.18-.02-.07,.03-.15,.05l-.16,.02c-.08,.01-.09,0-.17,0s-.07,.04-.14,.05-.07,.03-.15,.04-.08,0-.16,.02-.11-.04-.19-.03-.06,.05-.14,.06-.09,0-.17,0-.09,0-.17,0-.05,.06-.13,.07-.09,0-.17,.01-.09,0-.17,0-.08,.02-.16,.03-.08,0-.16,.02-.08,0-.16,.02-.08,.02-.16,.03-.08,0-.16,.02-.07,.03-.15,.04-.09,0-.17,0-.07,.02-.15,.04-.08,.02-.16,.03-.06,.05-.14,.06-.09-.02-.18,0-.07,.03-.15,.04-.09,0-.17,.01-.07,.03-.15,.04h-.18s-.09,.09-.09,.09l-.11,.07-.05,.09-.12,.08-.03,.11c0,.05,.11,.05,.12,.11s-.07,.05-.06,.11,.05,.05,.06,.11,.04,.05,.05,.11-.02,.05-.02,.11-.02,.05-.01,.11,0,.05,0,.11,.05,.05,.06,.11-.02,.05-.01,.1,.05,.05,.06,.11,.02,.05,.03,.11-.08,.05-.08,.1,.08,.05,.08,.11-.03,.05-.03,.11,.05,.05,.06,.11-.03,.05-.03,.11,.03,.05,.04,.11,.04,.05,.05,.11-.09,.05-.08,.1,0,.05,.02,.11,.02,.05,.02,.11,0,.05,.02,.11,.02,.05,.02,.11,.04,.05,.04,.11,.03,.05,.04,.11,0,.05,0,.11-.02,.05-.02,.11,.03,.05,.04,.11,.03,.05,.04,.11-.04,.05-.03,.11-.04,.05-.03,.1,.11,.05,.12,.11-.01,.05,0,.1,0,.05,0,.11-.04,.05-.03,.11,.04,.05,.05,.11,.02,.05,.02,.11,.03,.05,.04,.11-.09,.05-.08,.11,.11,.05,.12,.11-.06,.05-.06,.11,.04,.05,.04,.11,.03,.05,.04,.11-.08,.05-.07,.1,.06,.05,.06,.11,.03,.05,.04,.11-.04,.05-.03,.11-.04,.05-.03,.11,.02,.05,.03,.11,.05,.05,.06,.11,.02,.05,.03,.11,.04,.05,.05,.11-.02,.05-.02,.11,.02,.05,.03,.11-.07,.05-.06,.1,.1,.05,.11,.11-.04,.05-.03,.11-.04,.05-.04,.11,.04,.05,.05,.11,.05,.05,.05,.11-.04,.05-.03,.11,0,.05,.01,.11,.08,.06,.09,.11-.1,.05-.09,.11,.04,.05,.04,.11,.05,.05,.06,.11-.04,.05-.03,.11-.02,.05-.01,.11,.11,.05,.11,.11-.08,.05-.07,.11,.1,.05,.1,.11-.05,.05-.04,.11-.02,.05-.02,.11,.08,.06,.09,.11,0,.05,.01,.11-.06,.05-.05,.11,.1,.05,.1,.11-.09,.05-.08,.11,0,.05,0,.11,.08,.06,.09,.11-.04,.05-.04,.11l-.02,.09-.1,.06h-.15s-.15,0-.15,0l-.14-.06s-.01-.06-.06-.11-.06-.04-.11-.09,0-.06-.06-.11-.07-.04-.11-.09-.04-.05-.09-.1-.12-.02-.17-.07,0-.06-.06-.11,0-.06-.06-.11-.1-.03-.14-.08,0-.06-.04-.11-.09-.03-.13-.08-.06-.04-.1-.09,0-.06-.05-.11-.12-.02-.16-.07-.03-.05-.08-.1-.06-.04-.11-.09,0-.06-.05-.11-.03-.05-.08-.1-.02-.06-.07-.1-.08-.04-.13-.08-.06-.04-.11-.09-.02-.06-.07-.1-.1-.03-.15-.08-.01-.06-.06-.11-.09-.03-.13-.08-.04-.05-.09-.1-.07-.04-.12-.09,0-.07-.04-.11-.03-.05-.08-.1-.09-.03-.14-.08-.05-.04-.1-.09-.07-.04-.11-.09-.05-.04-.1-.09,.04-.08-.01-.12-.11-.03-.16-.07-.06-.04-.11-.09,.02-.07-.02-.12-.12-.02-.17-.07-.01-.06-.06-.11-.06-.04-.11-.09-.08-.04-.13-.08,.02-.07-.03-.12-.09-.03-.13-.08-.03-.05-.07-.1-.01-.06-.06-.11-.07-.04-.12-.08-.1-.03-.15-.07,.02-.07-.03-.12-.03-.05-.08-.1-.13-.02-.18-.06,.02-.07-.02-.12-.07-.04-.12-.08-.08-.04-.13-.08,0-.07-.04-.11-.11-.03-.15-.07-.03-.05-.08-.1-.05-.05-.1-.09-.05-.05-.1-.09,0-.06-.06-.11-.04-.05-.09-.1-.04-.05-.09-.1-.03-.05-.07-.1-.05-.05-.09-.1-.07-.04-.12-.08-.1-.03-.15-.08-.04-.05-.09-.1-.08-.05-.14-.04-.07,.03-.06,.08,0,.05,0,.11-.02,.05-.02,.11,0,.05,0,.11-.03,.05-.02,.11,0,.05,.01,.11,.06,.05,.07,.11,.04,.05,.05,.11-.05,.05-.05,.11,0,.05,.01,.11,.03,.05,.04,.11-.04,.05-.03,.11,.09,.05,.1,.11-.08,.05-.07,.1,.1,.05,.11,.11-.1,.05-.09,.1,0,.05,.01,.11,.01,.05,.02,.11,.06,.05,.07,.11-.03,.05-.03,.1,.07,.05,.08,.11-.03,.05-.02,.11,0,.05,0,.11,.03,.05,.04,.11,.04,.05,.05,.11-.09,.05-.08,.1,.09,.05,.1,.11,.01,.05,.02,.11,.01,.05,.02,.11,0,.05,0,.11,0,.05,.01,.11-.03,.05-.02,.11,.07,.05,.08,.11-.07,.05-.06,.11-.02,.05-.02,.11,.09,.05,.1,.11-.04,.05-.03,.11,.05,.05,.05,.11,0,.05,0,.11,0,.05,.01,.11-.02,.05-.01,.1,.05,.05,.06,.11-.06,.05-.05,.11,.05,.05,.06,.11-.04,.05-.04,.11,.11,.05,.11,.11-.07,.05-.06,.11-.01,.05,0,.11,.04,.05,.04,.11,.1,.05,.1,.11-.02,.05,0,.11-.07,.05-.07,.11,0,.05,0,.11,.02,.05,.03,.11,.1,.05,.11,.11-.07,.05-.06,.11,.09,.05,.1,.11-.06,.05-.06,.11,.06,.05,.06,.11,.01,.05,.02,.11-.07,.05-.06,.11,0,.05,.01,.11,.03,.05,.03,.11,0,.05,0,.11,.07,.05,.08,.11,0,.05,0,.11,.01,.05,.02,.11v.1s0,.11,0,.11l.04,.1,.07,.1,.09,.1,.02,.11,.16,.07s0,.07,.04,.11,.05,.04,.1,.09,.1,.03,.15,.07l.09,.09s.02,.06,.06,.1,.04,.05,.09,.1,.07,.04,.12,.08,0,.06,.06,.11,.05,.05,.1,.09,.05,.04,.1,.09,.08,.04,.13,.08,.04,.05,.09,.09,.08,.04,.13,.08-.02,.07,.03,.12,.11,.02,.16,.07-.01,.07,.03,.11,.09,.03,.14,.08,.02,.06,.06,.1,.12,.02,.16,.07-.03,.07,.02,.12,.12,.02,.17,.07,.01,.06,.06,.11,.06,.04,.11,.09,.01,.06,.06,.11,.08,.03,.13,.08,0,.06,.04,.11,.07,.04,.11,.09,.11,.03,.15,.07,.05,.05,.09,.09,0,.06,.05,.11,.01,.06,.06,.1,.1,.03,.14,.08,.04,.05,.09,.09,.03,.05,.08,.1,0,.06,.06,.11,.09,.03,.13,.08,.07,.04,.12,.08,.02,.06,.07,.1,.1,.03,.15,.07,.03,.05,.08,.1,.04,.05,.09,.1,.07,.04,.12,.08,.02,.05,.07,.1,.01,.06,.06,.11,.11,.03,.15,.07,.05,.04,.1,.09,.05,.04,.1,.09,.02,.06,.07,.1,.02,.05,.07,.1,.1,.03,.15,.07,.01,.06,.06,.1,.06,.04,.11,.09-.01,.07,.04,.11,.11,.03,.15,.07,0,.06,.06,.11,.02,.06,.07,.1,.12,.02,.16,.07-.03,.07,.02,.12,.11,.02,.16,.07,0,.07,.04,.11,.13,.02,.17,.07,.01,.06,.06,.11,.06,.04,.1,.09-.01,.07,.04,.11,.07,.04,.11,.09,.11,.02,.16,.07-.03,.07,.02,.12,.09,.03,.13,.08,.02,.06,.07,.1,.08,.03,.13,.08"/><g><path class="cls-6" d="M289,388.75l.08,.1,.18,.04,.14,.07,.16,.03h.16s.18,.02,.18,.02c.08-.01,.08-.02,.16-.03s.09,.01,.17,0,.06-.04,.14-.05,.07-.03,.15-.04,.09,0,.17,0,.06-.05,.14-.06,.08,0,.17-.01,.09,0,.17,0,.06-.04,.14-.05,.1,.03,.18,.01,.07-.03,.15-.04,.09,0,.17-.01,.08-.02,.16-.03,.06-.04,.14-.06,.11,.05,.19,.04,.06-.04,.14-.05,.06-.05,.14-.06,.1,.03,.18,.02,.09,.01,.17,0,.07-.02,.15-.04l.16-.02c.08-.01,.08-.02,.15-.03s.05-.06,.13-.08,.1,.03,.18,.02,.06-.04,.14-.06,.07-.02,.15-.03,.09,0,.17,0l.16-.02c.08-.01,.08,0,.16-.01s.07-.03,.15-.04h.18s.12-.07,.12-.07l.14-.06v-.12s.11-.08,.11-.08v-.11c-.01-.05-.05-.05-.06-.11s.04-.05,.03-.11,0-.05,0-.11,0-.05-.01-.11-.01-.05-.02-.11-.06-.05-.06-.11-.02-.05-.03-.11,.06-.05,.06-.11-.08-.05-.09-.11,.06-.05,.06-.1-.06-.05-.07-.11-.02-.05-.03-.11,0-.05,0-.11l-.02-.11c0-.05,0-.05,0-.11s0-.05,0-.11,0-.05,0-.11-.04-.05-.05-.11-.03-.05-.04-.11,.05-.05,.04-.1-.03-.05-.03-.11,.02-.05,.02-.11-.02-.05-.03-.11,.03-.05,.03-.1,0-.05,0-.11,0-.05-.02-.11-.09-.05-.1-.11,0-.05-.01-.11,.09-.05,.08-.1-.08-.05-.09-.11,.02-.05,.01-.1,.03-.05,.02-.11-.04-.05-.05-.11,.02-.05,.01-.1-.05-.05-.06-.11,0-.05-.02-.11-.02-.05-.02-.11-.04-.05-.05-.11,.01-.05,0-.11-.02-.05-.03-.11-.01-.05-.02-.11,.05-.05,.04-.11-.06-.05-.06-.11,.04-.05,.04-.11-.07-.05-.08-.11,.08-.05,.07-.11-.1-.05-.1-.11,0-.05-.01-.11,.1-.05,.1-.11-.04-.05-.05-.11-.05-.05-.06-.11,.01-.05,0-.11,0-.05,0-.11-.02-.05-.03-.11,0-.05,0-.11-.06-.05-.07-.11,.02-.05,.02-.11,.04-.05,.04-.1,0-.05,0-.11,.01-.05,0-.11-.06-.05-.07-.11,.05-.05,.05-.1-.02-.05-.03-.11-.06-.05-.07-.11-.02-.05-.03-.11,.04-.05,.03-.11-.05-.05-.06-.11-.04-.05-.05-.11,.1-.05,.09-.1-.02-.05-.03-.11-.08-.06-.09-.11-.02-.05-.02-.11,.09-.05,.08-.1-.01-.05-.02-.11-.04-.05-.05-.11-.05-.05-.06-.11,.02-.05,.01-.1-.03-.05-.04-.11,.1-.05,.09-.1-.04-.05-.04-.11-.07-.05-.08-.11,.01-.05,0-.11,.04-.05,.03-.11-.03-.05-.03-.11-.01-.05-.02-.11-.03-.05-.04-.11,.02-.05,.01-.1,.01-.05,0-.11,0-.05-.01-.11,0-.05-.02-.11-.09-.05-.1-.11,0-.05,0-.11,.03-.05,.03-.1-.04-.05-.04-.11,.04-.05,.03-.11,.04-.05,.03-.11-.06-.05-.07-.11,.02-.05,.02-.11-.06-.05-.07-.11-.02-.05-.03-.11,.08-.05,.08-.1,0-.05,0-.11-.05-.05-.06-.11-.04-.05-.05-.11-.03-.05-.04-.11,0-.05,0-.11,.01-.05,0-.11,0-.05,0-.11,.05-.05,.04-.1-.1-.05-.1-.11,.06-.05,.06-.11-.06-.05-.06-.11,.04-.05,.03-.1-.05-.05-.06-.11,.04-.05,.03-.11-.04-.05-.05-.11-.04-.05-.05-.11,0-.05,0-.11,.06-.05,.05-.11-.05-.05-.06-.11-.04-.05-.05-.11,.08-.05,.07-.11-.1-.05-.11-.11,.1-.05,.09-.11-.05-.05-.06-.11,.02-.05,.02-.11,.01-.05,0-.11-.06-.05-.06-.11-.07-.05-.08-.11,.05-.05,.04-.1,.04-.05,.03-.11-.09-.05-.1-.11,0-.05,0-.11,.06-.05,.05-.11-.02-.05-.03-.11-.09-.05-.1-.11,.07-.05,.06-.11-.02-.05-.03-.11-.01-.05-.02-.11,.02-.05,.02-.11-.03-.05-.03-.11-.08-.06-.09-.11,.08-.05,.07-.1-.02-.05-.02-.11-.04-.05-.05-.11-.04-.05-.05-.11,.06-.05,.05-.11,.02-.05,.01-.11c0-.05-.09-.05-.1-.11s0-.05,0-.11,.07-.05,.07-.11-.05-.05-.05-.11,0-.05,0-.11-.04-.05-.05-.11-.05-.05-.06-.11,.08-.05,.07-.11-.07-.05-.08-.11,.03-.05,.03-.11v-.12s-.18-.06-.18-.06l-.12-.07-.15-.08h-.18c-.08,.02-.08,.02-.16,.03s-.05,.07-.13,.08-.1-.03-.18-.02-.07,.03-.15,.05l-.16,.02c-.08,.01-.09,0-.17,0s-.07,.04-.14,.05-.07,.03-.15,.04-.08,0-.16,.02-.11-.04-.19-.03-.06,.05-.14,.06-.09,0-.17,0-.09,0-.17,0-.05,.06-.13,.07-.09,0-.17,.01-.09,0-.17,0-.08,.02-.16,.03-.08,0-.16,.02-.08,0-.16,.02-.08,.02-.16,.03-.08,0-.16,.02-.07,.03-.15,.04-.09,0-.17,0-.07,.02-.15,.04-.08,.02-.16,.03-.06,.05-.14,.06-.09-.02-.18,0-.07,.03-.15,.04-.09,0-.17,.01-.07,.03-.15,.04h-.18s-.09,.09-.09,.09l-.11,.07-.05,.09-.12,.08-.03,.11c0,.05,.11,.05,.12,.11s-.07,.05-.06,.11,.05,.05,.06,.11,.04,.05,.05,.11-.02,.05-.02,.11-.02,.05-.01,.11,0,.05,0,.11,.05,.05,.06,.11-.02,.05-.01,.1,.05,.05,.06,.11,.02,.05,.03,.11-.08,.05-.08,.1,.08,.05,.08,.11-.03,.05-.03,.11,.05,.05,.06,.11-.03,.05-.03,.11,.03,.05,.04,.11,.04,.05,.05,.11-.09,.05-.08,.1,0,.05,.02,.11,.02,.05,.02,.11,0,.05,.02,.11,.02,.05,.02,.11,.04,.05,.04,.11,.03,.05,.04,.11,0,.05,0,.11-.02,.05-.02,.11,.03,.05,.04,.11,.03,.05,.04,.11-.04,.05-.03,.11-.04,.05-.03,.1,.11,.05,.12,.11-.01,.05,0,.1,0,.05,0,.11-.04,.05-.03,.11,.04,.05,.05,.11,.02,.05,.02,.11,.03,.05,.04,.11-.09,.05-.08,.11,.11,.05,.12,.11-.06,.05-.06,.11,.04,.05,.04,.11,.03,.05,.04,.11-.08,.05-.07,.1,.06,.05,.06,.11,.03,.05,.04,.11-.04,.05-.03,.11-.04,.05-.03,.11,.02,.05,.03,.11,.05,.05,.06,.11,.02,.05,.03,.11,.04,.05,.05,.11-.02,.05-.02,.11,.02,.05,.03,.11-.07,.05-.06,.1,.1,.05,.11,.11-.04,.05-.03,.11-.04,.05-.04,.11,.04,.05,.05,.11,.05,.05,.05,.11-.04,.05-.03,.11,0,.05,.01,.11,.08,.06,.09,.11-.1,.05-.09,.11,.04,.05,.04,.11,.05,.05,.06,.11-.04,.05-.03,.11-.02,.05-.01,.11,.11,.05,.11,.11-.08,.05-.07,.11,.1,.05,.1,.11-.05,.05-.04,.11-.02,.05-.02,.11,.08,.06,.09,.11,0,.05,.01,.11-.06,.05-.05,.11,.1,.05,.1,.11-.09,.05-.08,.11,0,.05,0,.11,.08,.06,.09,.11-.04,.05-.04,.11l-.02,.09-.1,.06h-.15s-.15,0-.15,0l-.14-.06s-.01-.06-.06-.11-.06-.04-.11-.09,0-.06-.06-.11-.07-.04-.11-.09-.04-.05-.09-.1-.12-.02-.17-.07,0-.06-.06-.11,0-.06-.06-.11-.1-.03-.14-.08,0-.06-.04-.11-.09-.03-.13-.08-.06-.04-.1-.09,0-.06-.05-.11-.12-.02-.16-.07-.03-.05-.08-.1-.06-.04-.11-.09,0-.06-.05-.11-.03-.05-.08-.1-.02-.06-.07-.1-.08-.04-.13-.08-.06-.04-.11-.09-.02-.06-.07-.1-.1-.03-.15-.08-.01-.06-.06-.11-.09-.03-.13-.08-.04-.05-.09-.1-.07-.04-.12-.09,0-.07-.04-.11-.03-.05-.08-.1-.09-.03-.14-.08-.05-.04-.1-.09-.07-.04-.11-.09-.05-.04-.1-.09,.04-.08-.01-.12-.11-.03-.16-.07-.06-.04-.11-.09,.02-.07-.02-.12-.12-.02-.17-.07-.01-.06-.06-.11-.06-.04-.11-.09-.08-.04-.13-.08,.02-.07-.03-.12-.09-.03-.13-.08-.03-.05-.07-.1-.01-.06-.06-.11-.07-.04-.12-.08-.1-.03-.15-.07,.02-.07-.03-.12-.03-.05-.08-.1-.13-.02-.18-.06,.02-.07-.02-.12-.07-.04-.12-.08-.08-.04-.13-.08,0-.07-.04-.11-.11-.03-.15-.07-.03-.05-.08-.1-.05-.05-.1-.09-.05-.05-.1-.09,0-.06-.06-.11-.04-.05-.09-.1-.04-.05-.09-.1-.03-.05-.07-.1-.05-.05-.09-.1-.07-.04-.12-.08-.1-.03-.15-.08-.04-.05-.09-.1-.08-.05-.14-.04-.07,.03-.06,.08,0,.05,0,.11-.02,.05-.02,.11,0,.05,0,.11-.03,.05-.02,.11,0,.05,.01,.11,.06,.05,.07,.11,.04,.05,.05,.11-.05,.05-.05,.11,0,.05,.01,.11,.03,.05,.04,.11-.04,.05-.03,.11,.09,.05,.1,.11-.08,.05-.07,.1,.1,.05,.11,.11-.1,.05-.09,.1,0,.05,.01,.11,.01,.05,.02,.11,.06,.05,.07,.11-.03,.05-.03,.1,.07,.05,.08,.11-.03,.05-.02,.11,0,.05,0,.11,.03,.05,.04,.11,.04,.05,.05,.11-.09,.05-.08,.1,.09,.05,.1,.11,.01,.05,.02,.11,.01,.05,.02,.11,0,.05,0,.11,0,.05,.01,.11-.03,.05-.02,.11,.07,.05,.08,.11-.07,.05-.06,.11-.02,.05-.02,.11,.09,.05,.1,.11-.04,.05-.03,.11,.05,.05,.05,.11,0,.05,0,.11,0,.05,.01,.11-.02,.05-.01,.1,.05,.05,.06,.11-.06,.05-.05,.11,.05,.05,.06,.11-.04,.05-.04,.11,.11,.05,.11,.11-.07,.05-.06,.11-.01,.05,0,.11,.04,.05,.04,.11,.1,.05,.1,.11-.02,.05,0,.11-.07,.05-.07,.11,0,.05,0,.11,.02,.05,.03,.11,.1,.05,.11,.11-.07,.05-.06,.11,.09,.05,.1,.11-.06,.05-.06,.11,.06,.05,.06,.11,.01,.05,.02,.11-.07,.05-.06,.11,0,.05,.01,.11,.03,.05,.03,.11,0,.05,0,.11,.07,.05,.08,.11,0,.05,0,.11,.01,.05,.02,.11v.1s0,.11,0,.11l.04,.1,.07,.1,.09,.1,.02,.11,.16,.07s0,.07,.04,.11,.05,.04,.1,.09,.1,.03,.15,.07l.09,.09s.02,.06,.06,.1,.04,.05,.09,.1,.07,.04,.12,.08,0,.06,.06,.11,.05,.05,.1,.09,.05,.04,.1,.09,.08,.04,.13,.08,.04,.05,.09,.09,.08,.04,.13,.08-.02,.07,.03,.12,.11,.02,.16,.07-.01,.07,.03,.11,.09,.03,.14,.08,.02,.06,.06,.1,.12,.02,.16,.07-.03,.07,.02,.12,.12,.02,.17,.07,.01,.06,.06,.11,.06,.04,.11,.09,.01,.06,.06,.11,.08,.03,.13,.08,0,.06,.04,.11,.07,.04,.11,.09,.11,.03,.15,.07,.05,.05,.09,.09,0,.06,.05,.11,.01,.06,.06,.1,.1,.03,.14,.08,.04,.05,.09,.09,.03,.05,.08,.1,0,.06,.06,.11,.09,.03,.13,.08,.07,.04,.12,.08,.02,.06,.07,.1,.1,.03,.15,.07,.03,.05,.08,.1,.04,.05,.09,.1,.07,.04,.12,.08,.02,.05,.07,.1,.01,.06,.06,.11,.11,.03,.15,.07,.05,.04,.1,.09,.05,.04,.1,.09,.02,.06,.07,.1,.02,.05,.07,.1,.1,.03,.15,.07,.01,.06,.06,.1,.06,.04,.11,.09-.01,.07,.04,.11,.11,.03,.15,.07,0,.06,.06,.11,.02,.06,.07,.1,.12,.02,.16,.07-.03,.07,.02,.12,.11,.02,.16,.07,0,.07,.04,.11,.13,.02,.17,.07,.01,.06,.06,.11,.06,.04,.1,.09-.01,.07,.04,.11,.07,.04,.11,.09,.11,.02,.16,.07-.03,.07,.02,.12,.09,.03,.13,.08,.02,.06,.07,.1,.08,.03,.13,.08"/><g class="cls-19"><g id="_グループ_472"><g id="_グループ_471"><polygon id="SVGID-26" class="cls-6" points="301.99 387.27 285.91 389.74 276.72 373.03 292.8 370.56 301.99 387.27"/></g></g></g></g></g></g></g></g></g></g></g></g></g></g></g></g></g></svg>