<?xml version="1.0" encoding="UTF-8"?><svg id="_レイヤー_2" xmlns="http://www.w3.org/2000/svg" width="62" height="50" viewBox="0 0 62 50"><defs><style>.cls-1{fill:#b3d1e2;}.cls-2{fill:#fff;}.cls-2,.cls-3{stroke:#666;stroke-linecap:round;stroke-linejoin:round;stroke-width:2px;}.cls-3{fill:none;}</style></defs><g id="Layer_1"><circle class="cls-1" cx="30.9" cy="24.9" r="8"/><circle class="cls-3" cx="30.9" cy="24.9" r="8"/><path class="cls-2" d="M18,13c3-4,8.03-6,13-6,9.94,0,18,8.06,18,18h-6l9,9,9-9h-6C55,11.75,44.25,1,31,1c-6.63,0-14,3-18,8"/><path class="cls-2" d="M44,37c-3,4-8.03,6-13,6-9.94,0-18-8.06-18-18h6l-9-9L1,25H7c0,13.25,10.75,24,24,24,6.63,0,14-3,18-8"/></g></svg>