<?xml version="1.0" encoding="UTF-8"?><svg id="_レイヤー_2" xmlns="http://www.w3.org/2000/svg" width="78.4" height="58" viewBox="0 0 78.4 58"><defs><style>.cls-1{stroke:#b3d1e2;}.cls-1,.cls-2{fill:none;}.cls-1,.cls-2,.cls-3,.cls-4,.cls-5{stroke-miterlimit:10;}.cls-1,.cls-2,.cls-4,.cls-5{stroke-linecap:round;}.cls-1,.cls-2,.cls-5{stroke-width:1.5px;}.cls-2{stroke:#fff;}.cls-6,.cls-3,.cls-4,.cls-5{fill:#fff;}.cls-7{fill:#b3d1e2;}.cls-3,.cls-4{stroke-width:2px;}.cls-3,.cls-4,.cls-5{stroke:#666;}</style></defs><g id="Layer_1"><g><rect class="cls-3" x="18.53" y="8.09" width="58.87" height="48.91" rx="2.57" ry="2.57"/><line class="cls-5" x1="72.36" y1="12.39" x2="23.56" y2="12.39"/><rect class="cls-7" x="23.05" y="20.44" width="49.83" height="9.06"/><g><rect class="cls-7" x="58.38" y="30.78" width="14.49" height="14.49"/><line class="cls-1" x1="58.9" y1="48.67" x2="72.36" y2="48.67"/><line class="cls-1" x1="58.9" y1="52.29" x2="72.36" y2="52.29"/></g><g><rect class="cls-7" x="40.72" y="30.78" width="14.49" height="14.49"/><line class="cls-1" x1="41.23" y1="48.67" x2="54.69" y2="48.67"/><line class="cls-1" x1="41.23" y1="52.29" x2="54.69" y2="52.29"/></g><g><rect class="cls-7" x="23.05" y="30.78" width="14.49" height="14.49"/><line class="cls-1" x1="23.56" y1="48.67" x2="37.03" y2="48.67"/><line class="cls-1" x1="23.56" y1="52.29" x2="37.03" y2="52.29"/></g><line class="cls-4" x1="77.4" y1="16.24" x2="18.53" y2="16.24"/></g><path class="cls-3" d="M31,52V3.85c0-1.57-1.27-2.85-2.85-2.85H3.85c-1.57,0-2.85,1.27-2.85,2.85V52c0,2.76,2.24,5,5,5H26c2.76,0,5-2.24,5-5Z"/><path class="cls-7" d="M26.59,51.33H5.41c-.78,0-1.41-.63-1.41-1.41V5.26c0-.79,.64-1.42,1.42-1.42H26.58c.79,0,1.42,.64,1.42,1.42V49.92c0,.78-.63,1.41-1.41,1.41Z"/><circle class="cls-6" cx="16" cy="27" r="7"/><line class="cls-2" x1="12" y1="38" x2="20" y2="38"/><line class="cls-5" x1="12" y1="53.69" x2="20" y2="53.69"/></g></svg>