<?xml version="1.0" encoding="UTF-8"?><svg id="_レイヤー_2" xmlns="http://www.w3.org/2000/svg" width="64" height="61" viewBox="0 0 64 61"><defs><style>.cls-1{fill:#edd6c0;}.cls-2{fill:#b3d1e2;}.cls-3{fill:none;stroke-width:2px;}.cls-3,.cls-4{stroke:#666;stroke-linecap:round;stroke-miterlimit:10;}.cls-4{fill:#fff;stroke-width:1.5px;}</style></defs><g id="_編集モード"><rect class="cls-2" x="22" y="9" width="38" height="21" rx="1.42" ry="1.42"/><path class="cls-2" d="M35,21v-6H3.84c-1.57,0-2.84,1.27-2.84,2.84v17.91c0,1.25,1.01,2.26,2.26,2.26H22l-3-3.51v-13.5h16Z"/><circle class="cls-1" cx="12" cy="6" r="5"/><circle class="cls-3" cx="12" cy="6" r="5"/><path class="cls-3" d="M1,60v-2l7-4h6l7,4h0l8-4h6l8,4h0l7-4h6l7,4v2"/><path class="cls-1" d="M16,48.5c0,3.5-1.96,6.5-5,6.5s-5-3-5-6.5,1-5.5,5-5.5,5,2,5,5.5Z"/><path class="cls-1" d="M37,48.5c0,3.5-1.96,6.5-5,6.5s-5-3-5-6.5,1-5.5,5-5.5,5,2,5,5.5Z"/><path class="cls-1" d="M58,48.5c0,3.5-1.96,6.5-5,6.5s-5-3-5-6.5,1-5.5,5-5.5,5,2,5,5.5Z"/><path class="cls-3" d="M16,48.5c0,3.5-1.96,6.5-5,6.5s-5-3-5-6.5,1-5.5,5-5.5,5,2,5,5.5Z"/><path class="cls-3" d="M37,48.5c0,3.5-1.96,6.5-5,6.5s-5-3-5-6.5,1-5.5,5-5.5,5,2,5,5.5Z"/><path class="cls-3" d="M58,48.5c0,3.5-1.96,6.5-5,6.5s-5-3-5-6.5,1-5.5,5-5.5,5,2,5,5.5Z"/><path class="cls-3" d="M6,26v8.5c0,1.38-1.12,2.5-2.5,2.5h0c-1.38,0-2.5-1.12-2.5-2.5V17.84c0-1.57,1.27-2.84,2.84-2.84h28.16c1.66,0,3,1.34,3,3h0c0,1.66-1.34,3-3,3h-13v13.16c0,1.57,1.27,2.84,2.84,2.84H60.16c1.57,0,2.84-1.27,2.84-2.84V8.84c0-1.57-1.27-2.84-2.84-2.84H21.13"/><line class="cls-4" x1="59.43" y1="33" x2="22.57" y2="33"/></g></svg>