<?xml version="1.0" encoding="UTF-8"?>
<svg xmlns="http://www.w3.org/2000/svg" xmlns:xlink="http://www.w3.org/1999/xlink" width="15pt" height="17pt" viewBox="0 0 15 17" version="1.1">
<g id="surface1">
<path style=" stroke:none;fill-rule:nonzero;fill:rgb(54.901961%,19.215686%,13.72549%);fill-opacity:1;" d="M 1.222656 2.945312 L 0.00390625 3.507812 L 0.00390625 13.4375 L 1.222656 14 L 1.230469 13.988281 L 1.230469 2.953125 L 1.222656 2.945312 "/>
<path style=" stroke:none;fill-rule:nonzero;fill:rgb(87.843137%,32.156863%,26.27451%);fill-opacity:1;" d="M 7.765625 12.5625 L 1.222656 14 L 1.222656 2.945312 L 7.765625 4.351562 L 7.765625 12.5625 "/>
<path style=" stroke:none;fill-rule:nonzero;fill:rgb(54.901961%,19.215686%,13.72549%);fill-opacity:1;" d="M 4.8125 10.304688 L 7.589844 10.632812 L 7.605469 10.59375 L 7.621094 6.386719 L 7.589844 6.351562 L 4.8125 6.671875 L 4.8125 10.304688 "/>
<path style=" stroke:none;fill-rule:nonzero;fill:rgb(54.901961%,19.215686%,13.72549%);fill-opacity:1;" d="M 7.589844 12.574219 L 13.953125 14 L 13.964844 13.988281 L 13.964844 2.953125 L 13.953125 2.945312 L 7.589844 4.371094 L 7.589844 12.574219 "/>
<path style=" stroke:none;fill-rule:nonzero;fill:rgb(87.843137%,32.156863%,26.27451%);fill-opacity:1;" d="M 10.367188 10.304688 L 7.589844 10.632812 L 7.589844 6.351562 L 10.367188 6.671875 L 10.367188 10.304688 "/>
<path style=" stroke:none;fill-rule:nonzero;fill:rgb(36.862745%,12.156863%,9.411765%);fill-opacity:1;" d="M 10.367188 4.914062 L 7.589844 5.386719 L 4.8125 4.914062 L 7.585938 4.242188 L 10.367188 4.914062 "/>
<path style=" stroke:none;fill-rule:nonzero;fill:rgb(94.901961%,69.019608%,66.27451%);fill-opacity:1;" d="M 10.367188 12.054688 L 7.589844 11.582031 L 4.8125 12.054688 L 7.585938 12.769531 L 10.367188 12.054688 "/>
<path style=" stroke:none;fill-rule:nonzero;fill:rgb(54.901961%,19.215686%,13.72549%);fill-opacity:1;" d="M 4.8125 4.914062 L 7.589844 4.28125 L 7.609375 4.273438 L 7.609375 0.015625 L 7.589844 0 L 4.8125 1.285156 L 4.8125 4.914062 "/>
<path style=" stroke:none;fill-rule:nonzero;fill:rgb(87.843137%,32.156863%,26.27451%);fill-opacity:1;" d="M 10.367188 4.914062 L 7.589844 4.28125 L 7.589844 0 L 10.367188 1.285156 L 10.367188 4.914062 "/>
<path style=" stroke:none;fill-rule:nonzero;fill:rgb(54.901961%,19.215686%,13.72549%);fill-opacity:1;" d="M 7.589844 16.96875 L 4.8125 15.683594 L 4.8125 12.054688 L 7.589844 12.691406 L 7.632812 12.730469 L 7.617188 16.894531 L 7.589844 16.96875 "/>
<path style=" stroke:none;fill-rule:nonzero;fill:rgb(87.843137%,32.156863%,26.27451%);fill-opacity:1;" d="M 7.589844 16.96875 L 10.367188 15.683594 L 10.367188 12.054688 L 7.589844 12.691406 L 7.589844 16.96875 M 13.953125 2.945312 L 15.175781 3.507812 L 15.175781 13.4375 L 13.953125 14 L 13.953125 2.945312 "/>
</g>
</svg>
