<svg id="コンポーネント_20_1" data-name="コンポーネント 20 – 1" xmlns="http://www.w3.org/2000/svg" width="671.35" height="90.85" viewBox="0 0 671.35 90.85">
  <path id="パス_838" data-name="パス 838" d="M29.5-8.15a19.8,19.8,0,0,0,6.7-1.025,12.827,12.827,0,0,0,4.75-2.9A11.9,11.9,0,0,0,43.8-16.6a17.546,17.546,0,0,0,.95-5.95A10.767,10.767,0,0,0,44-26.675,8.214,8.214,0,0,0,41.75-29.8a10.279,10.279,0,0,0-3.825-2,19.083,19.083,0,0,0-5.475-.7H18.9l-3,24.35Zm-6.75-55.6-2.95,24H30.85a20.932,20.932,0,0,0,6.775-1A13.33,13.33,0,0,0,42.5-43.575a11.7,11.7,0,0,0,2.95-4.45,16.4,16.4,0,0,0,1-5.875q0-5-2.975-7.425T34.25-63.75ZM35.2-71.8a37.092,37.092,0,0,1,9.775,1.125A18.726,18.726,0,0,1,51.7-67.45a12.669,12.669,0,0,1,3.9,5.075A17.079,17.079,0,0,1,56.85-55.7a20.294,20.294,0,0,1-.9,6.05,17.654,17.654,0,0,1-2.725,5.35,18.938,18.938,0,0,1-4.575,4.325A25.163,25.163,0,0,1,42.2-36.9q6.4,1.45,9.55,5.025A13.294,13.294,0,0,1,54.9-22.75a22.8,22.8,0,0,1-1.8,9.125,20.4,20.4,0,0,1-5.175,7.2A24.056,24.056,0,0,1,39.675-1.7,33.362,33.362,0,0,1,28.65,0h-24l8.8-71.8ZM96.5-44.55A12.329,12.329,0,0,0,91-43.325a15.142,15.142,0,0,0-4.5,3.4,20.627,20.627,0,0,0-3.4,5.1,30.872,30.872,0,0,0-2.2,6.375,99.351,99.351,0,0,0,11.775-2.1A28.644,28.644,0,0,0,99.5-33.075,7.618,7.618,0,0,0,102.675-36a7.28,7.28,0,0,0,.775-3.3,4.719,4.719,0,0,0-.375-1.775,4.819,4.819,0,0,0-1.2-1.7,6.4,6.4,0,0,0-2.15-1.275A9.169,9.169,0,0,0,96.5-44.55ZM111-9.4a50.531,50.531,0,0,1-5.05,4.55,28.563,28.563,0,0,1-5.025,3.15A22.732,22.732,0,0,1,95.55.125,30.343,30.343,0,0,1,89.45.7,20.217,20.217,0,0,1,81.575-.775,16.6,16.6,0,0,1,75.6-4.95a18.663,18.663,0,0,1-3.775-6.525A26.086,26.086,0,0,1,70.5-20.05a37.475,37.475,0,0,1,.825-7.825,34.879,34.879,0,0,1,2.425-7.35,33.925,33.925,0,0,1,3.9-6.475,26.159,26.159,0,0,1,5.25-5.175,24.164,24.164,0,0,1,6.5-3.4A23.3,23.3,0,0,1,97.05-51.5a18.726,18.726,0,0,1,6.75,1.1,14.714,14.714,0,0,1,4.725,2.825A11.179,11.179,0,0,1,111.3-43.75a10.368,10.368,0,0,1,.9,4.1,13.7,13.7,0,0,1-1.35,6.075,12.657,12.657,0,0,1-4.925,5A36.548,36.548,0,0,1,96.1-24.7a107.459,107.459,0,0,1-16.05,2.65,8.144,8.144,0,0,0-.05.9v.9q0,6.55,2.825,9.9T91.35-7a16.932,16.932,0,0,0,4.2-.475A17.044,17.044,0,0,0,98.825-8.65a15.833,15.833,0,0,0,2.525-1.525q1.1-.825,2.025-1.525a18.8,18.8,0,0,1,1.725-1.175,3.191,3.191,0,0,1,1.65-.475,1.755,1.755,0,0,1,.975.275,5.057,5.057,0,0,1,.825.675Zm61.8-41.4L138.7,14.85a3.622,3.622,0,0,1-3.35,2.2h-7.2l11.1-20.3L126.15-50.8h8.1a2.317,2.317,0,0,1,1.7.55,3.224,3.224,0,0,1,.8,1.4l7.7,30.5q.25,1.1.425,2.175t.275,2.225q.45-1.15.925-2.25t1.025-2.2l15.15-30.5a3.358,3.358,0,0,1,1.175-1.375A2.782,2.782,0,0,1,165-50.8ZM200.4-6.9a11.211,11.211,0,0,0,6.375-1.925,16.8,16.8,0,0,0,4.9-5.175,26.775,26.775,0,0,0,3.125-7.5,35.384,35.384,0,0,0,1.1-8.9q0-6.85-2.6-10.2t-7.6-3.35a11.175,11.175,0,0,0-6.4,1.925,17.018,17.018,0,0,0-4.875,5.15A26.4,26.4,0,0,0,191.3-29.4a35.384,35.384,0,0,0-1.1,8.9q0,6.75,2.6,10.175A8.954,8.954,0,0,0,200.4-6.9ZM199.5.7a20.1,20.1,0,0,1-7.65-1.425,16.831,16.831,0,0,1-6.025-4.125,19.1,19.1,0,0,1-3.95-6.625,26.208,26.208,0,0,1-1.425-8.975,35.812,35.812,0,0,1,2.025-12.125,32.159,32.159,0,0,1,5.55-9.9,26.14,26.14,0,0,1,8.3-6.65A22.371,22.371,0,0,1,206.6-51.55a20.1,20.1,0,0,1,7.65,1.425A16.832,16.832,0,0,1,220.275-46a19.1,19.1,0,0,1,3.95,6.625,26.047,26.047,0,0,1,1.425,8.925,35.661,35.661,0,0,1-2.025,12.075,32.486,32.486,0,0,1-5.55,9.925,26.3,26.3,0,0,1-8.3,6.7A22.185,22.185,0,0,1,199.5.7ZM254-38.65a30.97,30.97,0,0,1,9.05-9.65,18.667,18.667,0,0,1,10.3-3.25,12.217,12.217,0,0,1,5.675,1.275,10.274,10.274,0,0,1,4.025,3.725,15.886,15.886,0,0,1,2.125,6.025,28.55,28.55,0,0,1-.025,8.175L281.35,0H271.6l3.85-32.35q.7-5.75-.675-8.425T269.7-43.45a9.978,9.978,0,0,0-4.7,1.275,18.431,18.431,0,0,0-4.625,3.6,29.835,29.835,0,0,0-4.15,5.625A36.95,36.95,0,0,0,253-25.6L250.15,0H240.4l6.05-50.9h4.9a3.443,3.443,0,0,1,2.45.8,3.287,3.287,0,0,1,.85,2.5Zm83.2-.9A10.125,10.125,0,0,0,332.8-43a13.88,13.88,0,0,0-5.1-1,10.935,10.935,0,0,0-4.725,1.05,14.641,14.641,0,0,0-4.05,2.85,20.82,20.82,0,0,0-3.275,4.25,30.26,30.26,0,0,0-2.45,5.25,35.308,35.308,0,0,0-1.525,5.8,34.184,34.184,0,0,0-.525,5.9q0,5.8,2.05,8.8a6.618,6.618,0,0,0,5.8,3,8.831,8.831,0,0,0,4.675-1.475,19.277,19.277,0,0,0,4.55-4.075A36.121,36.121,0,0,0,332.3-18.8a49.7,49.7,0,0,0,3.3-7.75ZM351-73.8,341.9,0h-5.1a2.861,2.861,0,0,1-2.55-.975,4.185,4.185,0,0,1-.65-2.375l.85-9.75a40.3,40.3,0,0,1-4.125,5.7,29.684,29.684,0,0,1-4.65,4.35,20.357,20.357,0,0,1-5.05,2.775A15.322,15.322,0,0,1,315.25.7,12.092,12.092,0,0,1,305.175-4Q301.5-8.7,301.5-17.95a39.775,39.775,0,0,1,.875-8.275,43.038,43.038,0,0,1,2.45-7.85,38.035,38.035,0,0,1,3.8-6.925,29.1,29.1,0,0,1,4.975-5.55,22.329,22.329,0,0,1,5.925-3.675A17.16,17.16,0,0,1,326.2-51.55a15.82,15.82,0,0,1,6.725,1.4,14.372,14.372,0,0,1,5.125,3.95l3.4-27.6Z" transform="translate(-4.65 73.8)"/>
  <path id="パス_839" data-name="パス 839" d="M99.6-71.8,70.2,0H60.9L51.6-53.8q-.15-.85-.275-1.825T51.1-57.75q-.75,2.2-1.45,3.95L27.1,0H17.9L6.1-71.8h8.05a3.414,3.414,0,0,1,2.175.65,2.407,2.407,0,0,1,.925,1.75l7.4,49.05q.1,1.4.225,2.975T25.1-14.05q.55-1.75,1.125-3.35t1.125-2.95L47.95-69.4a4.275,4.275,0,0,1,1.4-1.65,3.731,3.731,0,0,1,2.3-.75H54a3.126,3.126,0,0,1,2.125.675A3.509,3.509,0,0,1,57.2-69.4l8.5,49.05q.25,1.35.425,2.9t.325,3.25q.95-3.35,1.9-6.15L87.75-69.4a3.22,3.22,0,0,1,1.4-1.675,4.274,4.274,0,0,1,2.4-.725Zm36.1,27.65a25.292,25.292,0,0,0-3.85-.3,17.513,17.513,0,0,0-8.35,2.075,22.192,22.192,0,0,0-6.775,5.575,27.343,27.343,0,0,0-4.55,8.125A28.192,28.192,0,0,0,110.5-19q0,5.85,1.9,8.725A6.19,6.19,0,0,0,117.9-7.4a8.228,8.228,0,0,0,4.625-1.525,18.189,18.189,0,0,0,4.3-4.2,35.81,35.81,0,0,0,3.75-6.325A57.61,57.61,0,0,0,133.6-27.4ZM132.3-12.7a40.646,40.646,0,0,1-3.775,5.525,26.312,26.312,0,0,1-4.3,4.225,18.6,18.6,0,0,1-4.8,2.7A14.719,14.719,0,0,1,114.2.7a12.6,12.6,0,0,1-5.475-1.175,11.727,11.727,0,0,1-4.25-3.45,16.57,16.57,0,0,1-2.75-5.625,27.611,27.611,0,0,1-.975-7.7,34.913,34.913,0,0,1,1.125-8.825A34.873,34.873,0,0,1,105.1-34.2a36.521,36.521,0,0,1,5.025-7,32.559,32.559,0,0,1,6.525-5.5,31.4,31.4,0,0,1,7.775-3.575,29.706,29.706,0,0,1,8.725-1.275,39.626,39.626,0,0,1,6.475.525A28,28,0,0,1,145.9-49.2L139.8,0h-5.1a2.861,2.861,0,0,1-2.55-.975,4.185,4.185,0,0,1-.65-2.375Zm61.25-29.6a3.371,3.371,0,0,1-.875.925,1.943,1.943,0,0,1-1.075.275,2.86,2.86,0,0,1-1.575-.55q-.825-.55-2-1.2a16.923,16.923,0,0,0-2.825-1.2,12.738,12.738,0,0,0-4-.55,12.138,12.138,0,0,0-3.95.6,9.9,9.9,0,0,0-3.025,1.625,6.978,6.978,0,0,0-1.95,2.425A6.709,6.709,0,0,0,171.6-37a4.483,4.483,0,0,0,.9,2.85,8.539,8.539,0,0,0,2.35,2.025,19.908,19.908,0,0,0,3.325,1.575q1.875.7,3.825,1.475t3.825,1.725a13.979,13.979,0,0,1,3.325,2.325A10.707,10.707,0,0,1,191.5-21.7a11.021,11.021,0,0,1,.9,4.65,16.835,16.835,0,0,1-1.4,6.775,17.164,17.164,0,0,1-4.025,5.7A19.438,19.438,0,0,1,180.65-.65,22.586,22.586,0,0,1,172.35.8,20.457,20.457,0,0,1,163.7-.95a17.963,17.963,0,0,1-6.15-4.45l2.4-3.75a2.916,2.916,0,0,1,2.55-1.45,2.585,2.585,0,0,1,1.675.7q.825.7,2.025,1.525a15.147,15.147,0,0,0,2.95,1.525,12.26,12.26,0,0,0,4.5.7,12.013,12.013,0,0,0,4.225-.7,9.769,9.769,0,0,0,3.175-1.875,7.889,7.889,0,0,0,1.975-2.725,8.175,8.175,0,0,0,.675-3.3,5.281,5.281,0,0,0-.9-3.125,7.692,7.692,0,0,0-2.35-2.15,18.662,18.662,0,0,0-3.325-1.55q-1.875-.675-3.8-1.4t-3.8-1.6A12.758,12.758,0,0,1,166.2-26.8a10.482,10.482,0,0,1-2.35-3.275,10.982,10.982,0,0,1-.9-4.675,15.736,15.736,0,0,1,1.3-6.275,16.5,16.5,0,0,1,3.725-5.375,18.06,18.06,0,0,1,5.9-3.75,20.925,20.925,0,0,1,7.875-1.4,20.577,20.577,0,0,1,8.225,1.525,18.547,18.547,0,0,1,6.075,4.175Zm19.2,32.5v-.775q0-.475.075-1.375t.25-2.4q.175-1.5.475-3.85l3.05-24.7h-5.45a1.576,1.576,0,0,1-1.225-.525A1.867,1.867,0,0,1,209.6-45l.45-3.95,7.75-1.15,3.9-15.15a2.623,2.623,0,0,1,.825-1.325,2.163,2.163,0,0,1,1.425-.475h5.2L227-50h13.05l-.8,7.1h-13.1l-3,24.2q-.25,2.05-.4,3.3t-.225,1.975q-.075.725-.1,1.025t-.025.45a4.944,4.944,0,0,0,1.15,3.55,4.029,4.029,0,0,0,3.05,1.2,6.137,6.137,0,0,0,2.175-.35,9.847,9.847,0,0,0,1.625-.775q.7-.425,1.175-.775a1.516,1.516,0,0,1,.875-.35,1.01,1.01,0,0,1,.7.225,2.463,2.463,0,0,1,.5.725l2.05,4.7A19.032,19.032,0,0,1,230-.4,17.716,17.716,0,0,1,223.65.8a11.073,11.073,0,0,1-7.9-2.725Q212.85-4.65,212.75-9.8ZM277.3-44.55a12.329,12.329,0,0,0-5.5,1.225,15.143,15.143,0,0,0-4.5,3.4,20.628,20.628,0,0,0-3.4,5.1,30.872,30.872,0,0,0-2.2,6.375,99.35,99.35,0,0,0,11.775-2.1,28.645,28.645,0,0,0,6.825-2.525A7.618,7.618,0,0,0,283.475-36a7.28,7.28,0,0,0,.775-3.3,4.719,4.719,0,0,0-.375-1.775,4.819,4.819,0,0,0-1.2-1.7,6.4,6.4,0,0,0-2.15-1.275A9.169,9.169,0,0,0,277.3-44.55ZM291.8-9.4a50.531,50.531,0,0,1-5.05,4.55,28.563,28.563,0,0,1-5.025,3.15A22.732,22.732,0,0,1,276.35.125a30.343,30.343,0,0,1-6.1.575,20.217,20.217,0,0,1-7.875-1.475A16.6,16.6,0,0,1,256.4-4.95a18.664,18.664,0,0,1-3.775-6.525A26.086,26.086,0,0,1,251.3-20.05a37.475,37.475,0,0,1,.825-7.825,34.88,34.88,0,0,1,2.425-7.35,33.924,33.924,0,0,1,3.9-6.475,26.159,26.159,0,0,1,5.25-5.175,24.163,24.163,0,0,1,6.5-3.4,23.3,23.3,0,0,1,7.65-1.225,18.725,18.725,0,0,1,6.75,1.1,14.714,14.714,0,0,1,4.725,2.825A11.179,11.179,0,0,1,292.1-43.75a10.368,10.368,0,0,1,.9,4.1,13.7,13.7,0,0,1-1.35,6.075,12.657,12.657,0,0,1-4.925,5A36.548,36.548,0,0,1,276.9-24.7a107.46,107.46,0,0,1-16.05,2.65,8.146,8.146,0,0,0-.05.9v.9q0,6.55,2.825,9.9T272.15-7a16.932,16.932,0,0,0,4.2-.475,17.043,17.043,0,0,0,3.275-1.175,15.831,15.831,0,0,0,2.525-1.525q1.1-.825,2.025-1.525a18.8,18.8,0,0,1,1.725-1.175,3.191,3.191,0,0,1,1.65-.475,1.755,1.755,0,0,1,.975.275,5.057,5.057,0,0,1,.825.675Z" transform="translate(378.35 74.743)"/>
</svg>
