<svg width="63" height="63" viewBox="0 0 63 63" fill="none" xmlns="http://www.w3.org/2000/svg">
<path d="M59.9391 52.3406L48.9128 41.0384C51.3999 37.087 52.8568 32.4219 52.8568 27.4073C52.8568 13.2316 41.3633 1.73804 27.1839 1.73804C13.0046 1.73804 1.51471 13.2316 1.51471 27.4073C1.51471 41.5829 13.0083 53.0765 27.1876 53.0765C32.412 53.0765 37.2684 51.5055 41.3228 48.8234L52.3454 60.1183C54.4425 62.2706 57.8457 62.2706 59.9391 60.1183C62.0399 57.9734 62.0399 54.4819 59.9391 52.337V52.3406Z" fill="#EBF5E9"/>
<path d="M59.9391 52.3406L48.9128 41.0384C51.3999 37.087 52.8568 32.4219 52.8568 27.4073C52.8568 13.2316 41.3633 1.73804 27.1839 1.73804C13.0046 1.73804 1.51471 13.2316 1.51471 27.4073C1.51471 41.5829 13.0083 53.0765 27.1876 53.0765C32.412 53.0765 37.2684 51.5055 41.3228 48.8234L52.3454 60.1183C54.4425 62.2706 57.8457 62.2706 59.9391 60.1183C62.0399 57.9734 62.0399 54.4819 59.9391 52.337V52.3406ZM27.1618 45.8764C17.1841 45.8764 9.0937 37.786 9.0937 27.8083C9.0937 17.8305 17.1841 9.74012 27.1618 9.74012C37.1396 9.74012 45.23 17.8305 45.23 27.8083C45.23 37.786 37.1396 45.8764 27.1618 45.8764Z" fill="#EBF5E9" stroke="#00A73C" stroke-width="2" stroke-linecap="round" stroke-linejoin="round"/>
<path d="M34.4761 18.6584V36.8738" stroke="#00A73C" stroke-width="2" stroke-miterlimit="10" stroke-linecap="round"/>
<path d="M27.162 23.1506V36.8737" stroke="#00A73C" stroke-width="2" stroke-miterlimit="10" stroke-linecap="round"/>
<path d="M19.8442 36.8737V27.6428" stroke="#00A73C" stroke-width="2" stroke-miterlimit="10" stroke-linecap="round"/>
</svg>
