<svg width="63" height="63" viewBox="0 0 63 63" fill="none" xmlns="http://www.w3.org/2000/svg">
<path d="M52.1278 44.8232C52.1278 47.2845 50.1338 49.2785 47.6726 49.2785C45.2113 49.2785 43.2173 47.2845 43.2173 44.8232C43.2173 42.362 45.2113 40.368 47.6726 40.368C50.1338 40.368 52.1278 42.362 52.1278 44.8232Z" fill="#EBF5E9" stroke="#EBF5E9" stroke-width="2" stroke-linecap="round" stroke-linejoin="round"/>
<path d="M52.1278 44.8232C52.1278 47.2845 50.1338 49.2785 47.6726 49.2785C45.2113 49.2785 43.2173 47.2845 43.2173 44.8232C43.2173 42.362 45.2113 40.368 47.6726 40.368" stroke="#00A73C" stroke-width="2" stroke-linecap="round" stroke-linejoin="round"/>
<path d="M38.8099 44.8232H1.76294" stroke="#00A73C" stroke-width="2" stroke-linecap="square" stroke-linejoin="round"/>
<path d="M61.7592 44.8232H52.1277" stroke="#00A73C" stroke-width="2" stroke-linecap="square" stroke-linejoin="round"/>
<path d="M24.7562 57.28C24.7562 59.7413 22.7622 61.7352 20.301 61.7352C17.8398 61.7352 15.8458 59.7413 15.8458 57.28C15.8458 54.8188 17.8398 52.8248 20.301 52.8248C22.7622 52.8248 24.7562 54.8188 24.7562 57.28Z" fill="#EBF5E9" stroke="#EBF5E9" stroke-width="2" stroke-linecap="round" stroke-linejoin="round"/>
<path d="M20.301 52.8248C17.8398 52.8248 15.8458 54.8188 15.8458 57.28C15.8458 59.7413 17.8398 61.7352 20.301 61.7352C22.7622 61.7352 24.7562 59.7413 24.7562 57.28" stroke="#00A73C" stroke-width="2" stroke-linecap="round" stroke-linejoin="round"/>
<path d="M24.7563 57.28H61.7592" stroke="#00A73C" stroke-width="2" stroke-linecap="square" stroke-linejoin="round"/>
<path d="M1.76294 57.28H11.4386" stroke="#00A73C" stroke-width="2" stroke-linecap="square" stroke-linejoin="round"/>
<path d="M19.8817 31.737C19.8817 25.1775 25.2014 19.8577 31.761 19.8577C38.3206 19.8577 43.6403 25.1775 43.6403 31.737C43.6403 32.826 43.4858 33.8745 43.2136 34.8752H61.7591V28.621C61.7591 28.1317 61.3692 27.6497 60.8909 27.543L55.1885 25.9574C54.6992 25.8471 54.1658 25.3725 54.0039 24.8942L52.3373 20.8658C52.1166 20.4132 52.1571 19.6995 52.4256 19.2765L55.343 14.1222C55.6043 13.7102 55.538 13.0921 55.1922 12.75L50.7628 8.32055C50.4169 7.97472 49.7989 7.9085 49.3905 8.16971L44.24 11.0834C43.8169 11.352 43.1032 11.3925 42.6507 11.1681L38.6259 9.49413C38.1513 9.33226 37.6731 8.79881 37.5627 8.30583L35.9734 2.59978C35.8667 2.1252 35.3811 1.73523 34.8955 1.73523H28.6412C28.1519 1.73523 27.67 2.1252 27.5633 2.60346L25.9777 8.30583C25.8673 8.79513 25.3927 9.32858 24.9145 9.49045L20.886 11.1533C20.4335 11.3741 19.7198 11.3373 19.2967 11.065L14.1425 8.15131C13.7305 7.89011 13.1124 7.95633 12.7703 8.30215L8.34081 12.7316C7.99499 13.0774 7.92877 13.6955 8.18997 14.1039L11.1037 19.2544C11.3759 19.6775 11.4127 20.3912 11.1883 20.8437L9.51439 24.8685C9.35252 25.343 8.81907 25.8213 8.32609 25.9317L2.62005 27.5173C2.14546 27.624 1.75549 28.1059 1.75549 28.5952V34.8494C1.75549 34.8494 1.76285 34.8642 1.76285 34.8715H20.3047C20.0288 33.8708 19.878 32.8223 19.878 31.7334L19.8817 31.737Z" fill="#EBF5E9" stroke="#EBF5E9" stroke-width="2" stroke-linecap="round" stroke-linejoin="round"/>
<path d="M61.7591 34.8752V28.621C61.7591 28.1317 61.3692 27.6497 60.8909 27.543L55.1885 25.9574C54.6992 25.8471 54.1658 25.3725 54.0039 24.8942L52.3373 20.8658C52.1166 20.4132 52.1571 19.6995 52.4256 19.2765L55.343 14.1222C55.6043 13.7102 55.538 13.0921 55.1922 12.75L50.7628 8.32055C50.4169 7.97472 49.7989 7.9085 49.3905 8.16971L44.24 11.0834C43.8169 11.352 43.1032 11.3925 42.6507 11.1681L38.6259 9.49413C38.1513 9.33226 37.6731 8.79881 37.5627 8.30583L35.9734 2.59978C35.8667 2.1252 35.3811 1.73523 34.8955 1.73523H28.6412C28.1519 1.73523 27.67 2.1252 27.5633 2.60346L25.9777 8.30583C25.8673 8.79513 25.3927 9.32858 24.9145 9.49045L20.886 11.1533C20.4335 11.3741 19.7198 11.3373 19.2967 11.065L14.1425 8.15131C13.7305 7.89011 13.1124 7.95633 12.7703 8.30215L8.34081 12.7316C7.99499 13.0774 7.92877 13.6955 8.18997 14.1039L11.1037 19.2544C11.3759 19.6775 11.4127 20.3912 11.1883 20.8437L9.51439 24.8685C9.35252 25.343 8.81907 25.8213 8.32609 25.9317L2.62005 27.5173C2.14546 27.624 1.75549 28.1059 1.75549 28.5952V34.8494" stroke="#00A73C" stroke-width="2" stroke-linecap="round" stroke-linejoin="round"/>
<path d="M43.2209 34.8532C43.4931 33.8599 43.6403 32.815 43.6403 31.7371C43.6403 25.1775 38.3205 19.8578 31.761 19.8578C25.2014 19.8578 19.8817 25.1775 19.8817 31.7371C19.8817 32.815 20.0325 33.8599 20.3011 34.8532" stroke="#00A73C" stroke-width="2" stroke-linecap="round" stroke-linejoin="round"/>
</svg>
