<svg width="62" height="61" viewBox="0 0 62 61" fill="none" xmlns="http://www.w3.org/2000/svg">
<path d="M61 3.73926H11.1063V30.4756H61V3.73926Z" stroke="#00A73C" stroke-width="2" stroke-linecap="round" stroke-linejoin="round"/>
<path d="M42.547 18.8463V23.3802" stroke="#00A73C" stroke-width="2" stroke-linecap="round" stroke-linejoin="round"/>
<path d="M47.7083 14.8386V23.3802" stroke="#00A73C" stroke-width="2" stroke-linecap="round" stroke-linejoin="round"/>
<path d="M52.8695 10.8345V23.3802" stroke="#00A73C" stroke-width="2" stroke-linecap="round" stroke-linejoin="round"/>
<path d="M31.859 44.3248C29.5102 44.3248 27.6005 42.415 27.6005 40.0662C27.6005 37.7174 29.5102 35.8076 31.859 35.8076C34.2079 35.8076 36.1176 37.7174 36.1176 40.0662C36.1176 42.415 34.2079 44.3248 31.859 44.3248Z" fill="#EBF5E9" stroke="#00A73C" stroke-width="2" stroke-linecap="round" stroke-linejoin="round"/>
<path d="M61 57.7313V52.6537C61 50.4025 59.1774 48.5798 56.9261 48.5798H26.21C23.9587 48.5798 22.1361 50.4059 22.1361 52.6537V57.7313H61Z" fill="#EBF5E9" stroke="#EBF5E9" stroke-width="2" stroke-linecap="round" stroke-linejoin="round"/>
<path d="M39.0624 48.5763H26.21C23.9587 48.5763 22.1361 50.4024 22.1361 52.6502V57.7277" stroke="#00A73C" stroke-width="2" stroke-miterlimit="10"/>
<path d="M51.291 44.3248C48.9422 44.3248 47.0289 42.415 47.0289 40.0662C47.0289 37.7174 48.9387 35.8076 51.291 35.8076C53.6433 35.8076 55.5496 37.7174 55.5496 40.0662C55.5496 42.415 53.6398 44.3248 51.291 44.3248Z" fill="#EBF5E9" stroke="#00A73C" stroke-width="2" stroke-linecap="round" stroke-linejoin="round"/>
<path d="M61 57.7313V52.6537C61 50.4025 59.1773 48.5798 56.9261 48.5798H45.6419C43.3906 48.5798 41.568 50.4059 41.568 52.6537V57.7313" stroke="#00A73C" stroke-width="2" stroke-miterlimit="10" stroke-linecap="square"/>
<path d="M11.1062 12.2599C8.7574 12.2599 6.84766 10.3502 6.84766 8.00132C6.84766 5.65248 8.7574 3.73926 11.1062 3.73926C13.4551 3.73926 15.3648 5.649 15.3648 8.00132C15.3648 10.3537 13.4551 12.2599 11.1062 12.2599Z" fill="white" stroke="white" stroke-width="2" stroke-linecap="round" stroke-linejoin="round"/>
<path d="M15.3265 57.7312L18.6372 21.6936H31.0575C32.3783 21.6936 33.6015 20.791 33.8141 19.4876C34.0859 17.8253 32.8104 16.3895 31.2004 16.3895H5.42237C2.97944 16.3895 1 18.369 1 20.8119V32.7513C1 34.9328 2.77034 36.7032 4.95191 36.7032L6.88256 57.7277H15.3231L15.3265 57.7312Z" fill="white" stroke="white" stroke-width="2" stroke-linecap="round" stroke-linejoin="round"/>
<path d="M11.1062 12.2599C8.7574 12.2599 6.84766 10.3502 6.84766 8.00132C6.84766 5.65248 8.7574 3.73926 11.1062 3.73926C13.4551 3.73926 15.3648 5.649 15.3648 8.00132C15.3648 10.3537 13.4551 12.2599 11.1062 12.2599Z" fill="#EBF5E9" stroke="#00A73C" stroke-width="2" stroke-linecap="round" stroke-linejoin="round"/>
<path d="M15.3265 57.7312L18.6372 21.6936H31.0575C32.3783 21.6936 33.6015 20.791 33.8141 19.4876C34.0859 17.8253 32.8104 16.3895 31.2004 16.3895H5.42237C2.97944 16.3895 1 18.369 1 20.8119V32.7513C1 34.9328 2.77034 36.7032 4.95191 36.7032L6.88256 57.7277H15.3231L15.3265 57.7312Z" fill="#EBF5E9" stroke="#EBF5E9" stroke-width="2" stroke-linecap="round" stroke-linejoin="round"/>
<path d="M15.3265 57.7312L18.6372 21.6936H31.0575C32.3783 21.6936 33.6015 20.791 33.8141 19.4876C34.0859 17.8253 32.8104 16.3895 31.2004 16.3895H5.42237C2.97944 16.3895 1 18.369 1 20.8119V32.7513C1 34.9328 2.77034 36.7032 4.95191 36.7032L6.88256 57.7277" stroke="#00A73C" stroke-width="2" stroke-linecap="round" stroke-linejoin="round"/>
<path d="M1 57.7312H6.88604" stroke="#00A73C" stroke-width="2" stroke-linecap="round" stroke-linejoin="round"/>
<path d="M15.3265 57.7312H22.1361" stroke="#00A73C" stroke-width="2" stroke-linecap="round" stroke-linejoin="round"/>
</svg>
