<svg width="194" height="66" viewBox="0 0 194 66" fill="none" xmlns="http://www.w3.org/2000/svg">
<g clip-path="url(#clip0_256_33580)">
<path d="M65.6969 7.89753C65.6549 8.00253 65.599 8.15303 65.599 8.15303C65.5675 8.23353 65.5324 8.34203 65.4834 8.48903C65.4589 8.56603 65.4205 8.66753 65.382 8.78303C65.214 9.29753 64.7905 10.274 64.535 10.75C64.458 10.8795 64.381 10.995 64.213 10.995C64.059 10.995 63.2365 10.75 63.2365 10.456C63.2365 10.379 63.3275 10.239 63.3765 10.162C63.8665 9.37803 64.2235 8.51703 64.4685 7.61753C64.507 7.46353 64.5315 7.33403 64.675 7.33403C64.8185 7.33403 65.326 7.47053 65.4765 7.52303C65.788 7.62803 65.7389 7.79603 65.6969 7.90103V7.89753ZM65.354 6.13003C64.8255 6.13003 64.6959 5.87803 64.6959 5.58053C64.6959 5.40553 64.6959 5.42653 64.6959 5.08003V1.94753C64.6959 1.65353 64.6715 1.37003 64.6715 1.07253C64.6715 0.596531 64.9655 0.519531 65.3785 0.519531C65.7635 0.519531 66.138 0.533531 66.509 0.533531H71.5979C71.969 0.533531 72.3435 0.519531 72.7145 0.519531C73.3305 0.519531 73.4354 0.736531 73.4354 1.17403C73.4354 1.38053 73.411 1.63603 73.411 1.94403V5.08003C73.411 5.31103 73.411 5.58053 73.411 5.72053C73.411 6.01453 73.1905 6.13003 72.704 6.13003H65.354ZM68.4515 2.04903C68.427 1.81803 68.3115 1.71653 68.091 1.68853H66.3165C66.0995 1.71303 65.984 1.81803 65.956 2.04903V2.42003C65.9805 2.65103 66.096 2.78053 66.3165 2.78053H68.091C68.308 2.78053 68.4235 2.65103 68.4515 2.42003V2.04903ZM68.4515 4.20853C68.427 3.99153 68.3115 3.86203 68.091 3.86203H66.3165C66.0995 3.86203 65.984 3.99153 65.956 4.20853V4.63203C65.9805 4.84903 66.096 4.97853 66.3165 4.97853H68.091C68.308 4.97853 68.4235 4.84903 68.4515 4.63203V4.20853ZM67.615 7.27103V9.60553C67.615 10.106 67.783 10.134 68.2975 10.134H70.212C70.352 10.134 70.583 10.12 70.688 10.071C70.9435 9.93103 71.0975 9.24853 71.1395 8.97903C71.178 8.70953 71.2025 8.60803 71.4614 8.60803C71.7835 8.60803 72.438 8.74803 72.438 9.16103C72.438 9.54603 72.1054 10.484 71.9094 10.8445C71.6014 11.3835 71.0729 11.3835 70.5199 11.3835H67.8074C67.0759 11.3835 66.3305 11.2435 66.3305 10.344C66.3305 10.113 66.355 9.89253 66.355 9.66153V8.30003C66.355 7.96753 66.355 7.56853 66.3165 7.24653C66.3025 7.20803 66.3025 7.15553 66.3025 7.11703C66.3025 6.98753 66.3934 6.96303 66.4949 6.96303C66.6454 6.96303 67.1145 6.98753 67.4155 7.01553C67.552 7.02953 67.6115 7.13803 67.6115 7.27803L67.615 7.27103ZM69.7604 9.06653C69.6065 9.06653 69.5295 8.93703 69.4525 8.82153C69.12 8.28253 68.7315 7.74353 68.2975 7.26753C68.2345 7.19053 68.1435 7.09953 68.1435 6.98403C68.1435 6.73903 68.826 6.35403 69.029 6.35403C69.1445 6.35403 69.2074 6.41703 69.274 6.49403C69.4805 6.71103 69.7115 7.00853 69.89 7.23953C70.03 7.43203 70.6354 8.23003 70.6354 8.40853C70.6354 8.71653 69.9284 9.06303 69.7604 9.06303V9.06653ZM71.7905 2.78053C72.0075 2.78053 72.137 2.65103 72.137 2.42003V2.04903C72.137 1.81803 72.0075 1.71653 71.7905 1.68853H70.016C69.799 1.71303 69.6835 1.81803 69.6555 2.04903V2.42003C69.68 2.65103 69.7955 2.78053 70.016 2.78053H71.7905ZM69.659 4.63203C69.6835 4.84903 69.799 4.97853 70.0195 4.97853H71.7939C72.0109 4.97853 72.1405 4.84903 72.1405 4.63203V4.20853C72.1405 3.99153 72.0109 3.86203 71.7939 3.86203H70.0195C69.8025 3.86203 69.687 3.99153 69.659 4.20853V4.63203ZM73.733 10.9285C73.5265 10.9285 73.4775 10.7745 73.425 10.6065C73.117 9.69303 72.7319 8.82153 72.2314 7.99903C72.1929 7.93603 72.13 7.82053 72.13 7.74353C72.13 7.46003 72.8755 7.22903 73.005 7.22903C73.1345 7.22903 73.222 7.29203 73.2885 7.38303C73.5055 7.67703 73.8029 8.28253 73.9709 8.61503C74.1109 8.89853 74.678 10.106 74.678 10.337C74.678 10.6695 73.908 10.9285 73.74 10.9285H73.733Z" fill="#0C0C0C"/>
<path d="M86.0879 6.29151C86.0879 8.30751 84.5969 9.90351 82.9659 10.8905C82.7489 11.02 82.1049 11.3665 81.8599 11.3665C81.4749 11.3665 80.9464 10.4915 80.9464 10.2885C80.9464 10.159 81.0864 10.11 81.2019 10.0715C82.7454 9.58151 84.6459 8.18151 84.6459 6.39651C84.6459 5.30451 83.9529 4.62201 82.8609 4.62201C81.7689 4.62201 80.9079 5.16101 80.1099 5.82951C80.0329 5.88201 79.9314 5.95901 79.8404 5.95901C79.5324 5.95901 79.1194 5.03501 79.1194 4.73751C79.1194 4.53101 79.3504 4.41551 79.5044 4.33851C80.5334 3.77151 81.7409 3.29901 82.9344 3.29901C84.7579 3.29901 86.0844 4.40501 86.0844 6.29151H86.0879ZM80.7574 0.828008C80.8099 0.712508 80.8589 0.583008 81.0129 0.583008C81.0759 0.583008 81.1529 0.621508 81.2194 0.660008C82.0279 1.00651 83.5469 1.21301 84.4324 1.30401C84.6109 1.31801 84.7544 1.31801 84.7544 1.51051C84.7544 1.65051 84.6634 2.15451 84.6249 2.29451C84.5619 2.55001 84.4849 2.67951 84.2784 2.67951C83.8654 2.67951 81.8109 2.22801 81.3244 2.10201C80.7854 1.96201 80.5019 1.89551 80.5019 1.69251C80.5019 1.47551 80.6699 1.03801 80.7574 0.831508V0.828008Z" fill="#0C0C0C"/>
<path d="M153.186 0.778412C154.484 2.47591 155.975 3.64491 157.89 4.54441C158.068 4.63541 158.198 4.68441 158.198 4.82791C158.198 5.03441 157.865 5.84291 157.568 5.84291C157.235 5.84291 155.408 4.58291 155.048 4.31341C155.023 4.29941 154.995 4.27491 154.957 4.27491C154.855 4.27491 154.827 4.36591 154.817 4.44291V4.77541C154.817 5.08341 154.792 5.23741 154.495 5.23741C154.148 5.23741 153.802 5.21291 153.455 5.21291H151.334C150.988 5.21291 150.641 5.23741 150.295 5.23741C150.001 5.23741 149.973 5.08341 149.973 4.74741V4.49191C149.959 4.41491 149.934 4.33791 149.843 4.33791C149.791 4.33791 149.766 4.35191 149.742 4.37641C149.42 4.64591 147.943 5.86741 147.596 5.86741C147.327 5.86741 146.826 5.22341 146.826 4.95391C146.826 4.79991 147.071 4.68441 147.197 4.62141C148.573 3.86191 149.805 2.79791 150.781 1.54841C151.051 1.20191 151.439 0.673412 151.646 0.274412C151.698 0.183412 151.789 0.00141205 151.975 0.0154121C152.16 0.0294121 152.314 0.0679121 152.538 0.130912C152.759 0.193912 152.769 0.218412 153.182 0.774912L153.186 0.778412ZM150.729 7.53691C150.239 7.53691 149.752 7.56141 149.262 7.56141C148.94 7.56141 148.968 7.38291 148.968 6.90691C148.968 6.43091 148.954 6.26291 149.262 6.26291C149.752 6.26291 150.239 6.28741 150.729 6.28741H153.375C153.784 6.28741 154.197 6.27341 154.607 6.27341C155.212 6.27341 155.454 6.80191 155.454 6.98041C155.454 7.48091 154.222 9.54941 153.9 10.0534C153.644 10.4384 153.091 11.2364 152.783 11.5584C152.682 11.6599 152.566 11.7649 152.398 11.7649C152.153 11.7649 151.397 11.4044 151.397 11.1209C151.397 10.9809 151.604 10.7884 151.691 10.6974C152.258 10.0919 152.682 9.50391 153.091 8.79691C153.221 8.57991 153.581 7.96041 153.581 7.74341C153.581 7.51241 153.364 7.53691 153.091 7.53691H150.725H150.729ZM150.368 3.84791C150.368 3.93891 150.445 3.97741 150.522 3.97741C150.792 3.99141 151.061 4.00191 151.331 4.00191H153.452C153.735 4.00191 154.019 3.98791 154.299 3.97741C154.362 3.96341 154.428 3.93891 154.428 3.87591C154.428 3.82341 154.404 3.79891 154.376 3.77441C153.707 3.20741 153.067 2.55291 152.514 1.85991C152.461 1.78291 152.398 1.74441 152.307 1.74441C152.206 1.74441 152.153 1.79691 152.101 1.85991C151.586 2.52841 151.023 3.15841 150.417 3.74991C150.393 3.78841 150.365 3.81291 150.365 3.85141L150.368 3.84791Z" fill="#0C0C0C"/>
<path d="M163.541 11.1069C162.988 11.1069 162.803 10.9564 162.803 10.6099C162.803 10.0709 162.817 9.6824 162.817 9.1539V3.1234C162.817 2.7139 162.792 2.3149 162.792 1.9019C162.792 1.3874 162.999 1.2334 163.499 1.2334C163.87 1.2334 164.245 1.2579 164.63 1.2579H168.382C168.753 1.2579 169.127 1.2334 169.498 1.2334C169.988 1.2334 170.205 1.3629 170.205 1.8879C170.205 2.2974 170.181 2.7104 170.181 3.1199V9.1224C170.181 9.6614 170.188 9.9764 170.188 10.5154C170.188 10.8759 170.009 11.0754 169.428 11.0754L163.541 11.0999V11.1069ZM168.431 5.2829C168.648 5.2584 168.763 5.1429 168.791 4.9224V2.8679C168.767 2.6509 168.651 2.5354 168.431 2.5074H164.563C164.346 2.5319 164.231 2.6474 164.203 2.8679V4.9224C164.227 5.1394 164.343 5.2549 164.563 5.2829H168.431ZM164.203 9.4164C164.227 9.6334 164.343 9.7489 164.563 9.7769H168.431C168.648 9.7524 168.763 9.6369 168.791 9.4164V6.8649C168.767 6.6479 168.651 6.5324 168.431 6.5044H164.563C164.346 6.5289 164.231 6.6444 164.203 6.8649V9.4164Z" fill="#0C0C0C"/>
<path d="M179.447 1.08593C179.419 1.15593 179.265 1.53393 179.23 1.62493C179.114 1.93293 179.013 2.25493 178.908 2.56293C178.883 2.62593 178.869 2.67843 178.869 2.74143C178.869 2.95843 179.037 3.01093 179.216 3.03543C179.653 3.08793 180.091 3.12643 180.525 3.13693C180.77 3.13693 180.962 3.12293 180.962 3.38193C180.962 3.57443 180.885 4.02593 180.822 4.21843C180.77 4.39693 180.721 4.50193 180.539 4.50193C180.168 4.50193 179.163 4.37243 178.792 4.30943C178.754 4.29543 178.715 4.28493 178.677 4.28493C178.47 4.28493 178.383 4.42493 178.33 4.59293C178.292 4.74693 178.113 5.55543 178.113 5.66043C178.113 5.92993 178.383 5.94393 178.565 5.95443C178.95 5.99293 179.335 6.00693 179.72 6.00693C180.066 6.00693 180.105 6.09793 180.105 6.22393C180.105 6.47943 180.028 6.83993 179.937 7.08493C179.874 7.27743 179.797 7.37893 179.576 7.37893C179.282 7.37893 178.677 7.28793 178.369 7.24943C178.316 7.23543 178.201 7.22493 178.162 7.22493C177.816 7.22493 177.816 7.54693 177.816 8.09993C177.816 9.21643 178.407 9.80793 179.524 9.80793C180.101 9.80793 180.99 9.65393 181.386 9.20243C181.617 8.94693 181.669 8.62493 181.669 8.28893C181.669 7.65893 181.452 7.01843 181.232 6.42693C181.207 6.36393 181.179 6.27293 181.179 6.19593C181.179 5.88793 182.131 5.71993 182.271 5.71993C182.478 5.71993 182.516 5.92643 182.618 6.20993C182.863 6.90293 183.041 7.71493 183.041 8.46043C183.041 10.4519 181.204 11.1449 179.496 11.1449C177.557 11.1449 176.412 10.0284 176.412 8.07543C176.412 7.75343 176.465 7.26693 176.465 7.13743C176.465 6.85393 176.248 6.77693 175.95 6.68593C175.695 6.60893 175.436 6.50743 175.191 6.37793C175.051 6.30093 174.946 6.23793 174.946 6.06993C174.946 5.99293 175.075 4.97793 175.397 4.97793C175.513 4.97793 175.628 5.05493 175.719 5.10743C175.887 5.22293 176.349 5.46793 176.542 5.46793C176.759 5.46793 176.797 5.28943 176.874 4.91493C176.899 4.77493 176.951 4.60693 176.99 4.41443C177.004 4.32343 177.042 4.20793 177.042 4.13093C177.042 3.84743 176.811 3.77043 176.633 3.70743C175.733 3.36093 175.478 3.24543 175.478 3.01443C175.478 2.79743 175.684 1.90843 175.954 1.90843C176.045 1.90843 176.171 1.99943 176.248 2.04843C176.619 2.26543 176.738 2.31793 177.123 2.49993C177.186 2.52443 177.224 2.53843 177.291 2.53843C177.497 2.53843 177.546 2.37043 177.585 2.23043C177.7 1.79293 177.984 0.87943 178.085 0.50843C178.124 0.36843 178.148 0.25293 178.278 0.25293C178.369 0.25293 178.687 0.38243 178.922 0.45943C178.999 0.48743 179.135 0.52943 179.275 0.57843C179.527 0.66943 179.555 0.82343 179.447 1.08943V1.08593Z" fill="#0C0C0C"/>
<path d="M98.9248 3.29128C98.5538 3.29128 98.1793 3.31578 97.8083 3.31578C97.4758 3.31578 97.4758 3.18628 97.4758 2.78728C97.4758 2.38828 97.4758 2.25878 97.8083 2.25878C98.1793 2.25878 98.5538 2.28328 98.9248 2.28328H100.748C101.119 2.28328 101.494 2.25878 101.865 2.25878C102.211 2.25878 102.187 2.39878 102.187 2.78728C102.187 3.17578 102.211 3.31578 101.865 3.31578C101.494 3.31578 101.119 3.29128 100.748 3.29128H98.9248ZM99.3343 6.94178C99.0018 6.94178 98.6518 6.96628 98.4733 6.96628C98.1653 6.96628 98.1793 6.82628 98.1793 6.45178C98.1793 6.07728 98.1653 5.92328 98.4733 5.92328C98.7183 5.92328 99.0263 5.94778 99.3343 5.94778H100.297C100.619 5.94778 100.927 5.92328 101.158 5.92328C101.48 5.92328 101.466 6.07728 101.466 6.45178C101.466 6.82628 101.48 6.96628 101.158 6.96628C100.965 6.96628 100.629 6.94178 100.297 6.94178H99.3343ZM99.3868 5.12178C99.0648 5.12178 98.7568 5.14628 98.5013 5.14628C98.1933 5.14628 98.1933 5.01678 98.1933 4.63178C98.1933 4.24678 98.1933 4.10328 98.5013 4.10328C98.7323 4.10328 99.0683 4.12778 99.3868 4.12778H100.223C100.545 4.12778 100.892 4.10328 101.109 4.10328C101.431 4.10328 101.417 4.24328 101.417 4.63178C101.417 5.02028 101.417 5.14628 101.109 5.14628C100.839 5.14628 100.542 5.12178 100.223 5.12178H99.3868ZM99.3623 1.50978C99.0158 1.50978 98.6798 1.53428 98.5013 1.53428C98.1933 1.53428 98.2073 1.39428 98.2073 0.995281C98.2073 0.596281 98.1933 0.442281 98.5013 0.442281C98.6798 0.442281 99.0298 0.466781 99.3623 0.466781H100.391C100.724 0.466781 101.074 0.442281 101.238 0.442281C101.571 0.442281 101.546 0.596281 101.546 0.995281C101.546 1.39428 101.56 1.53428 101.238 1.53428C101.06 1.53428 100.738 1.50978 100.391 1.50978H99.3623ZM103.216 11.4183C102.687 11.4183 102.596 11.2783 102.596 10.8653C102.596 10.3753 102.6 10.5468 102.6 10.0463V5.84628C102.586 5.79378 102.575 5.73078 102.509 5.73078C102.47 5.73078 102.446 5.75528 102.432 5.78328C102.341 5.91278 102.148 6.20678 101.98 6.20678C101.802 6.20678 101.259 5.65378 101.259 5.46128C101.259 5.38428 101.389 5.23028 101.427 5.16728C102.404 3.85478 103.188 1.91228 103.587 0.333781C103.611 0.232281 103.639 0.127281 103.741 0.127281C103.832 0.127281 104.35 0.281281 104.479 0.319781L104.661 0.382781C104.833 0.470281 104.843 0.627781 104.787 0.760781C104.731 0.893781 104.63 1.14928 104.588 1.24378C104.525 1.43628 104.42 1.70578 104.266 2.10478C104.252 2.14328 104.252 2.16778 104.252 2.20628C104.252 2.36028 104.367 2.39878 104.497 2.41278H105.102C105.372 2.41278 105.487 2.36028 105.603 2.11878C105.886 1.51328 106.131 0.897281 106.296 0.267281C106.334 0.190281 106.348 0.113281 106.45 0.113281C106.565 0.113281 107.237 0.337281 107.388 0.396781C107.549 0.459781 107.542 0.610281 107.5 0.708281C107.461 0.799281 107.44 0.844781 107.388 0.960281C107.22 1.34528 107.055 1.73028 106.859 2.10478C106.845 2.14328 106.821 2.18178 106.821 2.23428C106.821 2.36378 106.936 2.40228 107.052 2.41278H107.321C107.731 2.41278 108.144 2.38828 108.529 2.38828C108.837 2.38828 108.823 2.54228 108.823 3.00428C108.823 3.46628 108.837 3.60978 108.529 3.60978C108.168 3.60978 107.745 3.58528 107.321 3.58528H106.999C106.754 3.58528 106.639 3.68678 106.639 3.93178V4.62828C106.639 4.87328 106.754 4.98878 106.999 4.98878H107.178C107.577 4.98878 107.986 4.95028 108.256 4.95028C108.564 4.95028 108.55 5.11828 108.55 5.56628C108.55 6.01428 108.564 6.17178 108.256 6.17178C108.011 6.17178 107.587 6.14728 107.178 6.14728H106.999C106.754 6.14728 106.639 6.24878 106.639 6.49378V7.19028C106.639 7.44578 106.754 7.55078 106.999 7.55078H107.038C107.475 7.55078 107.899 7.52628 108.221 7.52628C108.515 7.52628 108.515 7.66628 108.515 8.11778C108.515 8.60778 108.515 8.74778 108.221 8.74778C107.927 8.74778 107.461 8.70928 107.038 8.70928H106.999C106.754 8.70928 106.639 8.81078 106.639 9.06978V9.89578C106.639 10.1513 106.754 10.2563 106.999 10.2563H107.307C107.745 10.2563 108.193 10.2318 108.644 10.2318C108.952 10.2318 108.938 10.3613 108.938 10.8478C108.938 11.3098 108.938 11.4288 108.655 11.4288C108.203 11.4288 107.755 11.4253 107.304 11.4253H103.205L103.216 11.4183ZM103.832 4.62128C103.832 4.83828 103.961 4.95378 104.178 4.98178H105.078C105.295 4.95728 105.41 4.84178 105.438 4.62128V3.92478C105.414 3.70778 105.298 3.60278 105.078 3.57828H104.178C103.961 3.57828 103.832 3.70778 103.832 3.92478V4.62128ZM103.832 7.18328C103.832 7.40028 103.961 7.51578 104.178 7.54378H105.078C105.295 7.51928 105.41 7.40378 105.438 7.18328V6.48678C105.414 6.26978 105.298 6.16478 105.078 6.14028H104.178C103.961 6.14028 103.832 6.26978 103.832 6.48678V7.18328ZM105.438 9.05928C105.414 8.84228 105.298 8.72678 105.078 8.69878H104.178C103.961 8.72328 103.832 8.83878 103.832 9.05928V9.88528C103.832 10.1023 103.961 10.2178 104.178 10.2458H105.078C105.295 10.2213 105.41 10.1058 105.438 9.88528V9.05928Z" fill="#0C0C0C"/>
<path d="M118.755 1.44015C118.727 1.58015 118.57 2.25565 118.57 2.25565C118.545 2.40965 118.517 2.58815 118.479 2.80865C118.465 2.84715 118.454 2.91015 118.454 2.94865C118.454 3.12715 118.584 3.21815 118.738 3.21815C118.79 3.21815 118.839 3.20415 118.892 3.20415C119.42 3.20415 119.893 3.20415 120.358 3.49815C121.002 3.90765 121.142 4.65315 121.142 5.36015C121.142 6.54315 120.936 8.27565 120.372 9.30465C119.858 10.2427 118.983 10.6941 117.943 10.6941C117.66 10.6941 117.492 10.6556 117.352 10.3861C117.25 10.1691 117.135 9.71765 117.135 9.47265C117.135 9.34315 117.173 9.25565 117.303 9.25565C117.432 9.25565 117.649 9.29415 117.908 9.29415C118.601 9.29415 118.923 9.14015 119.245 8.51015C119.616 7.76465 119.812 6.42765 119.812 5.60515C119.812 4.96115 119.774 4.43615 119.004 4.43615C118.234 4.43615 118.143 4.53765 118.052 4.89815C117.719 6.19665 117.1 7.57215 116.421 8.71315C116.113 9.21365 115.521 10.1516 115.136 10.5646C115.073 10.6276 114.996 10.6941 114.905 10.6941C114.688 10.6941 113.866 10.2041 113.866 9.91015C113.866 9.79465 113.967 9.69315 114.044 9.61615C115.059 8.54865 115.805 7.40415 116.333 6.03215C116.396 5.87815 116.655 5.18515 116.655 5.06965C116.655 4.96815 116.592 4.90165 116.487 4.90165C116.309 4.90165 115.241 5.26215 115.021 5.35315C114.944 5.37765 114.828 5.43015 114.751 5.43015C114.429 5.43015 114.212 4.17015 114.212 4.10715C114.212 3.91465 114.429 3.91465 114.597 3.90065C115.266 3.83765 116.074 3.64515 116.729 3.50165C116.984 3.44915 117.114 3.38615 117.152 3.11665C117.229 2.66515 117.282 1.92315 117.282 1.45765C117.282 1.31765 117.268 1.17415 117.268 1.02015C117.268 0.918648 117.268 0.764648 117.408 0.764648C117.527 0.764648 118.577 1.01665 118.587 1.02015C118.717 1.06565 118.818 1.17415 118.762 1.44015H118.755ZM124.289 5.22365C124.289 5.50715 123.48 5.98315 123.221 5.98315C123.053 5.98315 122.99 5.81515 122.927 5.68915C122.413 4.58315 122.066 3.85165 121.205 2.93815C121.153 2.88565 121.09 2.80865 121.09 2.72115C121.09 2.49015 121.835 2.03865 122.066 2.03865C122.542 2.03865 124.289 4.90515 124.289 5.22715V5.22365Z" fill="#0C0C0C"/>
<path d="M133.225 1.29962C133.193 1.35212 133.155 1.41512 133.109 1.49562C133.071 1.55862 132.98 1.71262 132.98 1.78962C132.98 1.88062 133.043 1.91912 133.12 1.91912C133.375 1.91912 134.341 1.64962 134.611 1.55862C134.702 1.52012 134.842 1.48162 134.933 1.48162C135.15 1.48162 135.216 1.68812 135.255 1.86662C135.293 2.03462 135.356 2.38112 135.356 2.55962C135.356 2.77662 134.947 2.82912 134.674 2.88162C133.865 3.04962 133.053 3.18962 132.245 3.28062C132.038 3.30512 131.989 3.33312 131.86 3.48712C131.783 3.58862 131.422 4.14162 131.422 4.23262C131.422 4.28512 131.475 4.32362 131.524 4.32362C131.601 4.32362 131.692 4.28512 131.755 4.24662C132.192 4.05412 132.679 3.91412 133.155 3.91412C133.977 3.91412 134.453 4.26062 134.621 5.06912C134.646 5.18462 134.684 5.28612 134.814 5.28612C134.968 5.28612 136.112 4.67012 136.319 4.55462C136.41 4.51612 136.55 4.42512 136.651 4.42512C136.896 4.42512 137.204 5.41562 137.204 5.63262C137.204 5.78662 137.064 5.83912 136.819 5.91612C136.767 5.94062 136.704 5.95462 136.641 5.97912C136.126 6.17162 135.626 6.38862 135.125 6.60912C134.894 6.70012 134.793 6.77712 134.793 7.03262V7.20062C134.793 7.59962 134.807 7.98462 134.807 8.38362C134.807 8.84562 134.744 8.89812 134.254 8.89812C133.701 8.89812 133.47 8.87362 133.47 8.53762C133.47 8.25412 133.494 7.97062 133.494 7.70112C133.494 7.58562 133.456 7.48412 133.326 7.48412C133.263 7.48412 131.937 8.05112 131.937 8.84562C131.937 9.70662 133.183 9.78362 133.799 9.78362C134.66 9.78362 135.353 9.66812 136.189 9.46162C136.266 9.44762 136.357 9.43712 136.445 9.43712C136.613 9.43712 136.7 9.57712 136.7 10.3121C136.7 10.6971 136.686 10.8021 136.406 10.8651C135.916 10.9806 134.492 11.0331 133.939 11.0331C133.207 11.0331 132.588 10.9946 131.909 10.7006C131.125 10.3541 130.624 9.73812 130.624 8.86312C130.624 7.70812 131.562 7.07812 132.448 6.54962C132.703 6.39562 132.976 6.25562 133.246 6.12612C133.375 6.06312 133.477 5.98612 133.477 5.83212C133.477 5.74112 133.438 5.56262 133.414 5.47162C133.351 5.18812 133.144 5.03412 132.847 5.03412C132.126 5.03412 130.946 5.65012 130.442 6.16462C130.071 6.53562 129.634 7.20412 129.364 7.66962C129.326 7.73262 129.273 7.79912 129.186 7.79912C128.955 7.79912 128.094 7.28462 128.094 7.05362C128.094 6.95212 128.195 6.84712 128.262 6.77012C128.556 6.44812 130.421 3.86512 130.421 3.62012C130.421 3.50462 130.32 3.46612 130.138 3.46612C129.931 3.46612 129.637 3.50462 129.238 3.50462C128.955 3.50462 128.906 3.44162 128.906 2.78362C128.906 2.26912 128.958 2.19212 129.277 2.19212C129.494 2.19212 129.83 2.21662 130.201 2.21662H130.572C130.904 2.21662 131.254 2.20262 131.37 2.04862C131.587 1.76512 131.975 0.764117 132.063 0.389617C132.087 0.249617 132.115 0.120117 132.241 0.120117C132.318 0.120117 132.892 0.333617 133.281 0.589117C133.522 0.750117 133.41 0.995117 133.218 1.29962H133.225Z" fill="#0C0C0C"/>
<path d="M101.008 7.70801C100.777 7.70801 100.532 7.72201 100.287 7.72201H99.4255C99.1805 7.72201 98.9495 7.70801 98.7045 7.70801C98.267 7.70801 98.05 7.86201 98.05 8.32401C98.05 8.57951 98.064 8.85251 98.064 9.10801V10.27C98.064 10.592 98.064 10.718 98.064 11.04C98.064 11.3235 98.253 11.418 98.743 11.418C98.743 11.418 100.798 11.425 101.071 11.425C101.508 11.425 101.648 11.3585 101.648 11.075C101.648 10.753 101.648 10.487 101.648 10.165V9.10801C101.648 8.85251 101.673 8.57951 101.673 8.32401C101.673 7.86201 101.442 7.70801 101.004 7.70801H101.008ZM100.518 10.0565C100.518 10.2735 100.388 10.389 100.171 10.417H99.632C99.415 10.3925 99.2855 10.277 99.2855 10.0565V9.05901C99.2855 8.84201 99.415 8.72651 99.632 8.69851H100.171C100.388 8.72301 100.493 8.83851 100.518 9.05901V10.0565Z" fill="#0C0C0C"/>
<mask id="mask0_256_33580" style="mask-type:luminance" maskUnits="userSpaceOnUse" x="15" y="13" width="34" height="42">
<path d="M44.0517 46.9402C39.7817 38.4352 37.4857 27.6167 37.3527 20.1372C29.6317 16.5427 21.4417 11.8982 17.5112 13.8407C14.6342 15.5032 14.9352 19.0977 17.0912 23.7947C22.5652 35.7227 39.8587 50.1777 43.7087 52.5997C45.9872 54.0347 47.6672 54.5037 48.9202 54.4092C47.0862 52.3092 45.4622 49.7507 44.0517 46.9402Z" fill="white"/>
</mask>
<g mask="url(#mask0_256_33580)">
<path d="M44.9075 0.880371L0.941162 16.8828L18.6458 65.526L62.6122 49.5236L44.9075 0.880371Z" fill="url(#paint0_linear_256_33580)"/>
</g>
<mask id="mask1_256_33580" style="mask-type:luminance" maskUnits="userSpaceOnUse" x="37" y="15" width="24" height="18">
<path d="M60.6108 28.1945C60.1418 26.6895 58.8573 25.7655 56.6208 24.2955C51.5773 20.9775 42.6978 17.376 37.5773 15.7695C37.3988 17.026 37.3218 18.503 37.3533 20.141C44.8818 23.648 52.7603 28.093 58.2098 32.881C59.2878 31.2675 60.1243 29.682 60.6073 28.198" fill="white"/>
</mask>
<g mask="url(#mask1_256_33580)">
<path d="M60.6097 15.7656H37.3242V32.8736H60.6097V15.7656Z" fill="url(#paint1_linear_256_33580)"/>
</g>
<path d="M17.5111 13.8408C21.4381 11.8983 29.6351 16.5428 37.3526 20.1373C37.3246 18.5028 37.3981 17.0223 37.5766 15.7658C32.9076 14.2923 28.4101 13.2703 24.8576 12.9448C21.1931 12.6053 19.2086 12.8573 17.5111 13.8408Z" fill="#009BE1"/>
<mask id="mask2_256_33580" style="mask-type:luminance" maskUnits="userSpaceOnUse" x="44" y="28" width="17" height="27">
<path d="M54.9553 48.3154C58.2698 42.1729 60.7023 32.7509 60.8143 30.0944C60.8458 29.3524 60.7793 28.7364 60.6113 28.1904C60.1248 29.6709 59.2883 31.2564 58.2138 32.8734C54.7908 38.0044 48.9178 43.4504 44.0563 46.9399C45.4668 49.7469 47.0908 52.3054 48.9248 54.4089C51.6163 54.1989 54.0593 49.9884 54.9588 48.3189" fill="white"/>
</mask>
<g mask="url(#mask2_256_33580)">
<path d="M50.9916 19.9259L31.1443 43.5791L53.9073 62.6795L73.7547 39.0264L50.9916 19.9259Z" fill="url(#paint2_linear_256_33580)"/>
</g>
<path d="M81.6738 29.7793H76.7843C71.8633 29.7793 69.1403 33.0588 69.1403 36.3033C69.1403 40.0413 71.7653 43.1143 76.6758 43.1143H81.7823C86.6928 43.1143 89.3143 40.0413 89.3143 36.3033C89.3143 33.0588 86.5913 29.7793 81.6738 29.7793ZM80.6658 40.1918H77.7888C74.7648 40.1918 72.9658 38.6588 72.9658 36.3138C72.9658 34.2768 74.6913 32.8663 77.8798 32.8663H80.5748C83.7633 32.8663 85.4888 34.2768 85.4888 36.3138C85.4888 38.6588 83.6898 40.1918 80.6623 40.1918H80.6658Z" fill="#004BA5"/>
<path d="M105.327 23.9238V30.1293H99.755C95.0545 30.1293 92.447 33.2023 92.447 36.3033C92.447 39.8733 94.953 42.8203 99.65 42.8203H109.128V23.9238H105.324M100.875 39.8663C97.984 39.8663 96.2235 38.5538 96.2235 36.3068C96.2235 34.3643 97.914 33.2093 100.959 33.2093H105.327V39.8663H100.875Z" fill="#004BA5"/>
<path d="M129.46 30.1394V30.1289H120.966C116.265 30.1289 113.658 33.2019 113.658 36.3029C113.658 39.8729 116.164 42.8199 120.861 42.8199H131.102V30.1394H129.46ZM122.082 39.8659C119.191 39.8659 117.434 38.5534 117.434 36.3064C117.434 34.3639 119.121 33.2089 122.17 33.2089H127.297V39.8659H122.082Z" fill="#004BA5"/>
<path d="M186.271 42.9705C190.923 42.9705 193.999 40.7445 193.999 37.5105V30.248H190.387V36.8525C190.387 39.1205 188.623 40.1145 186.271 40.1145C183.919 40.1145 182.159 39.1205 182.159 36.8525V30.248H178.554V37.5105C178.554 40.7445 181.627 42.9705 186.271 42.9705Z" fill="#004BA5"/>
<path d="M150.081 42.82H155.279L146.861 36.6845L154.082 30.255H149.297L140.687 38.06V30.248H136.984V42.82H139.973L144.488 38.795L150.081 42.82Z" fill="#004BA5"/>
<path d="M171.333 30.2549L166.51 35.9179L160.823 30.2549H156.336L164.365 38.4344L160.627 42.8199H165.152L175.792 30.2549H171.333Z" fill="#004BA5"/>
</g>
<defs>
<linearGradient id="paint0_linear_256_33580" x1="25.4821" y1="13.7225" x2="42.1579" y2="59.5389" gradientUnits="userSpaceOnUse">
<stop stop-color="#5AB4E6"/>
<stop offset="0.1" stop-color="#5AB4E6"/>
<stop offset="0.24" stop-color="#4AA1DA"/>
<stop offset="0.9" stop-color="#004BA5"/>
<stop offset="1" stop-color="#004BA5"/>
</linearGradient>
<linearGradient id="paint1_linear_256_33580" x1="38.4063" y1="23.9367" x2="61.7608" y2="23.9367" gradientUnits="userSpaceOnUse">
<stop stop-color="#5AB4E6"/>
<stop offset="0.05" stop-color="#5AB4E6"/>
<stop offset="0.22" stop-color="#50B1E6"/>
<stop offset="0.51" stop-color="#37ACE6"/>
<stop offset="0.88" stop-color="#0EA3E6"/>
<stop offset="1" stop-color="#00A0E6"/>
</linearGradient>
<linearGradient id="paint2_linear_256_33580" x1="44.5187" y1="50.6768" x2="62.2086" y2="29.5949" gradientUnits="userSpaceOnUse">
<stop stop-color="#5AB4E6"/>
<stop offset="0.1" stop-color="#5AB4E6"/>
<stop offset="0.23" stop-color="#52ABE0"/>
<stop offset="0.44" stop-color="#3D92D1"/>
<stop offset="0.71" stop-color="#1B6BB8"/>
<stop offset="0.9" stop-color="#004BA5"/>
<stop offset="1" stop-color="#004BA5"/>
</linearGradient>
<clipPath id="clip0_256_33580">
<rect width="193.057" height="65.5095" fill="white" transform="translate(0.943481 0.015625)"/>
</clipPath>
</defs>
</svg>
