<svg fill="none" height="26" viewBox="0 0 211 26" width="211" xmlns="http://www.w3.org/2000/svg"><g fill="#333"><path d="m34.9572 12.9579c0 .1552.0478.3104.0538.4596.0059.1492-.0657.3104-.0657.4656 0 .1551.0478.3103.0537.4595.006.1493.012.3104.0239.4596s.0298.3104.0418.4596c.0119.1492 0 .3104.0119.4656.012.1551 0 .3103.0179.4655s.0478.3044.0657.4596.0895.2984.1134.4476 0 .3164.0298.4656c.0299.1492.1015.2984.1314.4476.0298.1492.0417.3104.0775.4536.0359.1433.1135.2925.1552.4357.0418.1433.0955.2925.1433.4417.0477.1492.0716.3044.1194.4476.0477.1433.1134.2865.1671.4298.0537.1432.1253.2805.185.4237.0597.1433.0836.2985.1492.4357.0657.1373.1552.2686.2269.3999.0716.1314.1731.2567.2506.388.0776.1313.1314.2805.2209.4059.0895.1253.1671.2566.2626.3819.0955.1254.203.2328.2985.3522s.2208.2089.3282.3223c.1075.1134.1612.2745.2746.376s.2626.1671.382.2626.2328.197.3581.2865c.1254.0895.2448.191.3761.2686s.2745.1373.4118.2089.2567.1791.3939.2387c.1373.0597.2925.1015.4358.1612.1432.0597.2984.0716.4476.1194.1493.0477.2925.0895.4417.1253s.2865.1253.4357.1552c.1493.0298.3104 0 .4656.0298.1552.0299.3044.0418.4536.0597.1433.0179.2985.0358.394-.0597s.0776-.2506.0776-.3939c0-.2268.0298-.2268.0298-.4536s.0179-.2268.0179-.4536-.0059-.2268-.0059-.4536-.0239-.2268-.0239-.4536 0-.2268 0-.4536.0835-.2268.0835-.4537c0-.2268-.0358-.2268-.0358-.4536s.0299-.2268.0299-.4536c0-.1671-.1015-.3103-.1851-.4476-.0835-.1373-.1611-.2925-.2924-.388-.1194-.0895-.2209-.191-.3283-.3044-.1015-.1074-.2328-.191-.3223-.3223-.0776-.1193-.1851-.2387-.2567-.382-.0656-.1313-.1015-.2805-.1611-.4297-.0538-.1373-.0955-.2805-.1433-.4357-.0418-.1373-.1015-.2805-.1373-.4357-.0358-.1433 0-.3044-.0298-.4596-.0299-.1432-.0716-.2924-.0955-.4417-.0239-.1432-.0716-.2924-.0955-.4476-.0179-.1492-.0836-.2925-.1015-.4476-.0179-.1552.0418-.3044.0299-.4596-.012-.1552-.0776-.2925-.0896-.4477-.0119-.1551-.0059-.2984-.0179-.4536-.0119-.1552-.0179-.2984-.0239-.4536-.0059-.1552 0-.3044-.0059-.4596-.006-.1551-.0179-.2984-.0179-.4536s.0119-.3044.0119-.4596c0-.1551.0418-.3043.0418-.4595s-.0418-.3044-.0358-.4536c.0059-.1493-.0239-.3044-.0239-.4536 0-.1493.0179-.3044.0179-.4537 0-.1492.0597-.3044.0657-.4536.0059-.1492-.0538-.3103-.0478-.4595.006-.1493 0-.3104 0-.4537 0-.1432.1134-.29839.1254-.4476.0119-.14922-.0657-.31634-.0478-.45958.0179-.15519.0478-.3044.0657-.45361.0179-.15518.1134-.29246.1432-.43571.0239-.15518.0597-.29843.0895-.44167.0299-.15518 0-.31633.0359-.45958.0358-.15518.1492-.28052.191-.4178.0477-.14921.0716-.29843.1253-.4357.0597-.14922.0836-.29843.1492-.42974.0716-.14324.1612-.26262.2447-.38199.0896-.1313.1851-.24471.2865-.35214.1075-.1134.1791-.26262.2985-.35215.1313-.09549.2447-.19099.3283-.32827.0835-.13727.1253-.26858.1253-.4357 0-.22681.0657-.22681.0657-.45361 0-.22681-.0717-.22681-.0717-.45361 0-.22681.0478-.22681.0478-.45361 0-.22681-.0358-.22681-.0358-.45361 0-.22681.0119-.22681.0119-.45362 0-.2268.0836-.2268.0836-.4536 0-.22681-.0836-.22681-.0836-.45958 0-.232777 0-.226809 0-.459583 0-.143245-.006-.29246-.1015-.387957s-.2447-.11937-.3879-.101465c-.1552.017906-.3044.065655-.4537.08953-.1492.023874-.3044.047747-.4536.077589-.1492.029843-.2984.071623-.4476.107435-.1493.035811-.2925.089528-.4417.137276-.1493.047749-.3044.059686-.4477.119372-.1432.059685-.2925.101465-.4357.161151-.1433.059682-.2686.155182-.3999.226802-.1313.07163-.2686.14325-.3999.22681s-.2447.18502-.3701.27455c-.1253.08953-.2626.16115-.382.25665s-.2208.2089-.3343.31633c-.1134.10744-.2208.2089-.3282.32231-.1075.1134-.2448.19099-.3462.31036-.1015.11937-.1851.24471-.2746.37005s-.1313.28052-.2149.41183c-.0835.13131-.2387.2089-.3223.34021-.0835.13131-.1552.26858-.2268.40586s-.0716.3044-.1373.44764c-.0656.14325-.2089.23875-.2745.38199-.0657.14325-.0896.29246-.1433.44167-.0537.14922-.0537.3044-.1015.45361-.0477.14922-.1611.26859-.2029.4178-.0418.14922-.0836.29246-.1194.44765-.0358.15518-.0835.29246-.1193.44764-.0359.15518-.0478.3044-.0776.45361-.0299.14921-.0418.30439-.0717.45361-.0298.14921-.0835.29843-.1134.44764-.0298.14921-.0238.3044-.0477.45958s-.0776.29843-.0955.45361.0179.31032 0 .46552-.0299.3044-.0418.4596-.0119.3044-.0239.4596c-.0119.1552-.0835.3044-.0895.4596-.006.1551.0418.3103.0358.4655s-.0478.3044-.0478.4596.018.3104.018.4655z"/><path d="m57.2756 12.9579c0 .1552.0478.3104.0537.4596.006.1492-.0656.3104-.0656.4656 0 .1551.0477.3103.0537.4595.006.1493.0119.3104.0239.4596.0119.1492.0298.3104.0417.4596.012.1492 0 .3104.012.4656.0119.1551 0 .3103.0179.4655s.0477.3044.0656.4596c.018.1552.0896.2984.1135.4476.0238.1492-.0001.3164.0298.4656.0298.1492.1015.2984.1313.4476.0299.1492.0418.3104.0776.4536.0358.1433.1134.2925.1552.4357.0418.1433.0955.2925.1432.4417.0478.1492.0717.3044.1194.4476.0478.1433.1134.2865.1671.4298.0538.1432.1254.2805.1851.4237.0597.1433.0835.2985.1492.4357.0657.1373.1552.2686.2268.3999.0716.1314.1731.2567.2507.388s.1313.2805.2209.4059c.0895.1253.1671.2566.2626.3819.0955.1254.2029.2328.2984.3522s.2209.2089.3283.3223.1612.2745.2746.376.2626.1671.382.2626c.1193.0955.2327.197.3581.2865.1253.0895.2447.191.376.2686s.2746.1373.4119.2089.2566.1791.3939.2387c.1373.0597.2925.1015.4357.1612.1433.0597.2985.0716.4477.1194.1492.0477.2925.0895.4417.1253s.2865.1253.4357.1552c.1492.0298.3104 0 .4656.0298.1552.0299.3044.0418.4536.0597.1432.0179.2984.0358.3939-.0597s.0776-.2506.0776-.3939c0-.2268.0299-.2268.0299-.4536s.0179-.2268.0179-.4536-.006-.2268-.006-.4536-.0239-.2268-.0239-.4536 0-.2268 0-.4536.0836-.2268.0836-.4537c0-.2268-.0358-.2268-.0358-.4536s.0298-.2268.0298-.4536c0-.1671-.1014-.3103-.185-.4476s-.1612-.2925-.2925-.388c-.1193-.0895-.2208-.191-.3283-.3044-.1014-.1074-.2327-.191-.3223-.3223-.0776-.1193-.185-.2387-.2566-.382-.0657-.1313-.1015-.2805-.1612-.4297-.0537-.1373-.0955-.2805-.1432-.4357-.0418-.1373-.1015-.2805-.1373-.4357-.0358-.1433 0-.3044-.0299-.4596-.0298-.1432-.0716-.2924-.0955-.4417-.0238-.1432-.0716-.2924-.0955-.4476-.0179-.1492-.0835-.2925-.1014-.4476-.0179-.1552.0418-.3044.0298-.4596-.0119-.1552-.0776-.2925-.0895-.4477-.012-.1551-.006-.2984-.0179-.4536-.012-.1552-.0179-.2984-.0239-.4536s0-.3044-.006-.4596c-.0059-.1551-.0179-.2984-.0179-.4536s.012-.3044.012-.4596c0-.1551.0417-.3043.0417-.4595s-.0417-.3044-.0358-.4536c.006-.1493-.0238-.3044-.0238-.4536 0-.1493.0179-.3044.0179-.4537 0-.1492.0596-.3044.0656-.4536s-.0537-.3103-.0477-.4595c.0059-.1493 0-.3104 0-.4537 0-.1432.1134-.29839.1253-.4476.012-.14922-.0656-.31634-.0477-.45958.0179-.15519.0477-.3044.0656-.45361.0179-.15518.1134-.29246.1433-.43571.0238-.15518.0597-.29843.0895-.44167.0298-.15518 0-.31633.0358-.45958.0358-.15518.1492-.28052.191-.4178.0478-.14921.0716-.29843.1254-.4357.0596-.14922.0835-.29843.1492-.42974.0716-.14324.1611-.26262.2447-.38199.0895-.1313.185-.24471.2865-.35214.1074-.1134.1791-.26262.2984-.35215.1314-.09549.2448-.19099.3283-.32827.0836-.13727.1254-.26858.1254-.4357 0-.22681.0656-.22681.0656-.45361 0-.22681-.0716-.22681-.0716-.45361 0-.22681.0478-.22681.0478-.45361 0-.22681-.0359-.22681-.0359-.45361 0-.22681.012-.22681.012-.45362 0-.2268.0835-.2268.0835-.4536 0-.22681-.0835-.22681-.0835-.45958 0-.232777 0-.226809 0-.459583 0-.143245-.006-.29246-.1015-.387957s-.2447-.11937-.388-.101465c-.1552.017906-.3044.065655-.4536.08953-.1492.023874-.3044.047747-.4536.077589-.1492.029843-.2985.071623-.4477.107435-.1492.035811-.2924.089528-.4417.137276-.1492.047749-.3044.059686-.4476.119372-.1433.059685-.2925.101465-.4358.161151-.1432.059682-.2685.155182-.3999.226802-.1313.07163-.2686.14325-.3999.22681s-.2447.18502-.37.27455c-.1254.08953-.2627.16115-.382.25665-.1194.0955-.2209.2089-.3343.31633-.1134.10744-.2208.2089-.3283.32231-.1074.1134-.2447.19099-.3462.31036-.1014.11937-.185.24471-.2745.37005-.0896.12534-.1313.28052-.2149.41183s-.2388.2089-.3223.34021c-.0836.13131-.1552.26858-.2268.40586-.0717.13728-.0717.3044-.1373.44764-.0657.14325-.2089.23875-.2746.38199-.0656.14325-.0895.29246-.1432.44167-.0537.14922-.0537.3044-.1015.45361-.0477.14922-.1612.26859-.2029.4178-.0418.14922-.0836.29246-.1194.44765-.0358.15518-.0836.29246-.1194.44764s-.0477.3044-.0776.45361c-.0298.14921-.0418.30439-.0716.45361-.0299.14921-.0836.29843-.1134.44764-.0299.14921-.0239.3044-.0478.45958-.0238.15518-.0776.29843-.0955.45361s.0179.31032 0 .46552-.0298.3044-.0417.4596c-.012.1552-.012.3044-.0239.4596-.012.1552-.0836.3044-.0896.4596-.0059.1551.0418.3103.0359.4655-.006.1552-.0478.3044-.0478.4596s.0179.3104.0179.4655z"/><path d="m131.122 12.9046s-.048.0239-.06.0179c-.113-.0895-.191-.2387-.316-.3223-.126-.0836-.263-.1373-.394-.2208-.132-.0836-.251-.1552-.382-.2328-.132-.0776-.263-.1313-.4-.2029-.138-.0717-.251-.1612-.388-.2268-.138-.0657-.257-.1493-.394-.2089-.137-.0597-.281-.1075-.418-.1612s-.298-.0656-.43-.1194c-.131-.0537-.262-.1492-.4-.2029-.137-.0537-.298-.0597-.435-.1134-.138-.0537-.275-.1194-.412-.1671-.138-.0478-.299-.0597-.436-.1015s-.286-.0776-.43-.1253c-.143-.0478-.28-.1134-.418-.1552-.137-.0418-.286-.0776-.429-.1194-.144-.0418-.293-.0776-.43-.1134s-.275-.1253-.418-.1671c-.143-.04178-.292-.05968-.436-.10146-.143-.04178-.298-.05372-.435-.0955-.15-.04178-.281-.1134-.418-.15518-.149-.04178-.287-.08953-.424-.13131-.149-.04178-.292-.07163-.43-.11341-.149-.04774-.298-.06565-.435-.10743-.144-.04775-.263-.17309-.394-.22084-.144-.05371-.299-.06565-.43-.12533-.155-.07163-.293-.16116-.418-.25069-.137-.09549-.245-.21486-.352-.33424-.113-.11937-.227-.23874-.298-.38198-.072-.14325-.096-.3044-.132-.46555s-.077-.31036-.077-.47152c0-.16115-.03-.31633-.012-.45957.018-.15519.053-.31037.095-.45361.048-.14922.155-.26859.239-.39393s.131-.28052.251-.38796c.107-.09549.232-.19696.376-.27455.125-.07162.298-.05968.453-.1134.138-.04775.257-.17309.418-.2089.143-.02984.299-.02984.46-.05372.149-.0179.28-.07759.376-.17905.095-.10147.143-.24472.143-.39393 0-.21487-.024-.21487-.024-.4357 0-.22084 0-.21487 0-.43571 0-.22083.084-.21487.084-.4357 0-.22084-.036-.21487-.036-.43571 0-.22083.03-.21487.03-.4357 0-.22084-.054-.21487-.054-.43571 0-.22083.054-.22083.054-.4357s.006-.220838.006-.435706c0-.149214-.12-.274554-.221-.364083-.102-.089528-.233-.107432-.376-.089527-.143.017906-.305 0-.448.017905-.143.017906-.298.029842-.448.047748-.149.017905-.298.059687-.441.083561-.143.023875-.311-.017905-.454.011938s-.292.07162-.436.107432c-.143.035811-.286.101467-.429.137278-.144.035812-.275.125338-.418.173087-.143.047748-.311.023875-.448.077592s-.262.155183-.4.214865c-.137.05969-.28.10744-.418.17309-.137.06566-.268.13728-.399.2089-.132.07162-.269.14325-.394.22084-.126.07759-.251.17308-.37.25664-.12.08356-.251.16713-.37.26262-.12.0955-.263.16115-.371.26262-.107.10146-.191.23874-.286.35214-.096.11341-.179.24471-.269.35812-.089.1134-.191.23277-.274.35811-.084.12534-.209.22681-.281.35215-.071.12533-.083.29245-.149.42973s-.101.28052-.161.4178-.191.24471-.239.39392c-.048.14922 0 .31037-.036.45958-.036.14922-.083.28649-.113.42974-.03.14324-.125.28052-.149.42973-.024.14922-.042.29843-.06.44765-.018.14921.042.30439.036.45361-.006.14921-.084.29843-.084.44764s.03.31036.042.45958c.012.14921.066.30439.084.45361.017.14921.029.30439.065.45361.036.14921.066.3044.108.44764.041.14325.149.27455.203.4178.053.14323.101.28653.167.42373.065.1373.143.2686.215.4059.071.1373.101.2984.185.4238.083.1253.232.2089.328.3342.095.1253.155.2686.257.388.101.1193.226.2029.334.3163.107.1134.209.2208.322.3283.114.1074.179.2685.299.364.113.0896.286.1075.411.197.126.0895.239.1671.371.2507.131.0836.22.2089.352.2805.131.0716.274.1194.406.185.131.0657.274.1134.411.1791.138.0656.269.1313.406.191.138.0597.275.1134.412.1671.143.0597.287.1074.43.1612.143.0537.274.1432.418.1969.143.0537.28.1254.423.1731.144.0478.299.0776.442.1253.143.0478.293.1015.43.1493.137.0477.298.0776.442.1193.143.0418.286.1134.429.1612.144.0477.299.0716.442.1194.143.0477.293.0895.436.1372.143.0478.28.1373.424.1791.143.0418.298.0716.441.1134.144.0418.317.0298.454.0716.149.0418.274.1731.412.2149.149.0477.298.0895.435.1313.15.0477.323.0179.46.0656.149.0478.263.1851.4.2328.149.0537.298.0836.436.1373.149.0597.31.0776.435.1432.126.0657.203.203.305.2925.101.0895.191.191.274.3044.084.1134.132.2328.185.3641.048.1253.108.2507.132.3879.024.1313.053.2686.053.4119 0 .1551-.047.2984-.077.4416-.03.1433-.06.2925-.126.4298-.065.1373-.173.2327-.268.3521-.096.1194-.155.2567-.275.3522-.113.0895-.238.1731-.376.2506-.125.0717-.256.1433-.4.203-.131.0537-.292.0418-.441.0835-.138.0418-.269.1254-.424.1552-.143.0299-.293.012-.448.0358-.155.0239-.292.1134-.388.2209-.095.1074-.179.2506-.179.4058 0 .2149.018.2149.018.4357 0 .2209.036.2149.036.4357 0 .2209-.072.2149-.072.4357 0 .2209.072.2149.072.4357 0 .2209-.036.2149-.036.4357v.4358c0 .2208.066.2208.066.4357 0 .2148-.078.2208-.078.4357 0 .1432.072.2924.167.3879.096.0955.245.1134.388.1015.155-.012.317.006.466-.012.149-.0179.298-.1074.453-.1253.156-.0179.311-.0119.466-.0358s.304-.0597.454-.0895c.149-.0299.31-.0478.459-.0776.149-.0299.311-.0358.46-.0776s.298-.0955.442-.1373c.143-.0418.298-.0836.447-.1373s.281-.1372.424-.191c.143-.0537.287-.1193.43-.179s.268-.1612.406-.2328c.137-.0716.292-.1134.423-.191.132-.0776.275-.1492.4-.2328.126-.0835.257-.173.382-.2626.126-.0895.245-.191.364-.2924.12-.1015.263-.1731.376-.2806.114-.1074.227-.2148.335-.3282.107-.1134.179-.2626.268-.382.09-.1194.155-.2686.239-.3999s.155-.2626.233-.3999c.077-.1373.167-.2567.233-.3999.065-.1432.137-.2745.197-.4178.059-.1432.089-.2925.131-.4417s.155-.2805.191-.4297-.024-.3163 0-.4715.078-.2984.095-.4536c.018-.1552.084-.3044.09-.4596s0-.3104 0-.4656c0-.1551 0-.3044-.006-.4536s-.036-.3044-.054-.4536-.083-.2924-.107-.4416c-.024-.1493-.042-.2985-.078-.4477s-.113-.2805-.161-.4238c-.048-.1432-.072-.2924-.125-.4357-.054-.1432-.084-.2924-.155-.4297-.072-.1373-.197-.2387-.275-.3641-.078-.1253-.125-.2805-.209-.3999-.084-.1193-.185-.2387-.286-.3521-.102-.1134-.174-.2447-.281-.3581s-.251-.1731-.364-.2806c-.113-.1074-.197-.2327-.316-.3282z"/><path d="m19.274 1.23705c-.0418-.15519-.1611-.256653-.2865-.346182-.1253-.089528-.2447-.214868-.4059-.214868-.2268 0-.2268.035812-.4476.035812-.2209 0-.2268 0-.4477 0-.2208 0-.2268.011937-.4476.011937-.2209 0-.2268-.029842-.4477-.029842-.2208 0-.2268-.029845-.4477-.029845-.2208 0-.2268.011938-.4476.011938-.2209 0-.2268.047749-.4477.047749-.2208 0-.2268-.047749-.4536-.047749s-.2268.047749-.4536.047749-.2268-.023874-.4537-.023874c-.1611 0-.2924.089529-.4118.185026s-.185.208899-.2268.364079c-.0597.22084-.0836.21487-.1373.43571-.0537.22083-.0477.22083-.1015.44167-.0537.22084-.0477.22084-.1014.44167-.0538.22084-.1015.2089-.1552.42974s-.0358.22681-.0955.44764c-.0597.22084-.0299.22681-.0896.44764-.0596.22084-.0895.2089-.1492.42974s-.0656.21487-.1253.4357c-.0597.22084-.0418.22084-.1015.44168-.0597.22083-.0298.2268-.0895.44764s-.1313.20293-.191.4178-.006.23277-.0657.45361c-.0597.22083-.0716.21487-.1253.4357-.0537.22084-.0776.21487-.1313.43571-.0538.22083-.0359.2268-.0896.44764-.0537.22083-.1014.2089-.1552.42973-.0537.22084-.0358.22681-.0955.44765-.0596.22083-.0238.2268-.0776.44764-.0537.22084-.0537.22084-.1134.44167-.0596.22084-.1074.2089-.1671.42974-.0597.2208 0 .2328-.0597.4536s-.0537.2208-.1074.4417c-.0537.2208-.1373.1969-.191.4178-.0537.2208.0298.2447-.0299.4655-.0596.2209-.0835.2149-.1432.4298-.0597.2148-.0716.2148-.1313.4357-.0597.2208-.0478.2208-.1075.4416-.0596.2209-.0298.2268-.0895.4477-.0597.2208-.0537.2208-.1134.4417-.0597.2208-.13728.1969-.191.4178-.05372.2208-.02387.2268-.08356.4476s-.08357.2149-.14325.4297c-.05969.2149-.00597.2328-.06566.4536-.05969.2209-.10744.2089-.16713.4238-.05968.2149-.06565.2209-.11937.4417s0 .2328-.05969.4536-.02387.2268-.08356.4476c-.05969.2209-.08357.2149-.14325.4357-.05969.2209-.06566.2209-.11938.4417-.05372.2209-.04178.2268-.10147.4417s-.12534.2029-.18503.4238c-.05969.2208-.04775.2208-.10147.4416-.05372.2209-.02984.2268-.08953.4477-.05969.2208-.01194.2327-.07163.4536-.05969.2208-.12534.2029-.18503.4237-.05969.2209 0 .2328-.06566.4537-.06565.2208-.06565.2148-.12534.4357-.05969.2208-.05372.2208-.11341.4416-.05969.2209-.06566.2209-.11937.4417-.05372.2208-.04775.2208-.10744.4417-.05969.2208-.07163.2148-.13132.4357-.05968.2208-.10147.2089-.16115.4297-.05969.2209-.01791.2328-.0776.4536-.03581.1313.02388.2567.0955.3522.07163.0955.17907.1671.31635.1671.22681 0 .22681.0537.45363.0537.22681 0 .22681-.0656.45362-.0656.22682 0 .22682-.0239.45363-.0239.22682 0 .22682.0895.45363.0895s.22681-.0955.45363-.0955c.22681 0 .22681.012.45361.012s.2268.0716.4536.0716h.4537c.2268 0 .2268-.0657.4536-.0657s.2268.0716.4536.0716c.1612 0 .3223-.0835.4417-.173.1194-.0896.1791-.2448.2209-.394.0597-.2208.0776-.2148.1313-.4416s.0656-.2209.1253-.4417c.0597-.2209 0-.2388.0597-.4596s.0716-.2208.1254-.4417c.0537-.2208.0477-.2268.1074-.4476s.1194-.2029.1791-.4297c.0596-.2268-.012-.2388.0417-.4596.0538-.2209.1015-.2089.1612-.4298.0597-.2208.0239-.2327.0836-.4536.0596-.2208.0656-.2208.1253-.4416.0597-.2209.1373-.203.197-.4238s-.0239-.2447.0298-.4656c.0537-.2208.0597-.2208.1194-.4416.0597-.2209.1134-.2089.1731-.4298.0597-.2208.0298-.2327.0835-.4536.0538-.2208.0359-.2268.0896-.4536s.0597-.2208.1194-.4417c.0596-.2208.0537-.2208.1134-.4476s.0537-.2268.1074-.4476c.0537-.2209.0955-.2149.1552-.4357.0597-.2209.0716-.2149.1313-.4417s.0298-.2268.0895-.4536.0597-.2209.1194-.4477.0358-.2268.0895-.4536c.0538-.2268.0776-.2149.1373-.4417s.0358-.2268.0955-.4536.0597-.2208.1194-.4476c.0358-.1373.1791-.1791.2925-.1791s.2268.0478.2626.1851c.0597.2208.1194.2089.1731.4297s-.0239.2447.0298.4655c.0538.2209.0597.2209.1194.4417.0597.2209.1313.2029.191.4238.0597.2208-.0298.2447.0299.4655.0596.2209.0835.2149.1432.4357.0597.2209.1134.2089.1671.4298.0538.2208-.0059.2387.0478.4596.0537.2208.0597.2208.1194.4416.0596.2209.0537.2209.1074.4477s.0776.2148.1373.4357c.0597.2208.0776.2148.1313.4416s.0239.2328.0836.4537c.0596.2208.0776.2148.1313.4416s.0179.2328.0776.4536c.0597.2209.1074.2089.1671.4298.0597.2208.0537.2208.1134.4476s.0657.2209.1253.4417c.0597.2208-.0059.2387.0478.4596.0537.2208.1074.2089.1671.4297s.0179.2328.0776.4536c.0597.2209.0776.2149.1373.4417.0358.1373.2746.1432.3104 0 .0597-.2208.0418-.2268.1014-.4477.0597-.2208.0239-.2327.0836-.4536.0597-.2208.1253-.2029.185-.4237.0597-.2209-.0119-.2388.0478-.4596s.0955-.2149.1492-.4357.0597-.2209.1194-.4417-.006-.2387.0477-.4596c.0538-.2208.1313-.2029.191-.4237.0597-.2209.0538-.2209.1134-.4477.0597-.2268.018-.2327.0717-.4536.0537-.2208.0895-.2149.1492-.4357s-.012-.2387.0477-.4596c.0597-.2208.0896-.2148.1493-.4357.0596-.2208.0477-.2268.1074-.4476.0597-.2209.0716-.2209.1313-.4417s.0895-.2149.1492-.4357.0478-.2268.1015-.4476c.0537-.2209.0657-.2209.1253-.4417.0597-.2208.0299-.2328.0836-.4536.0537-.2209.0537-.2209.1134-.4477s.0239-.2327.0836-.4536c.0597-.2208.0895-.2148.1492-.4357.0418-.1731.0776-.3462.0776-.5192 0-.1731-.0179-.3522-.0657-.5253-.0597-.2208-.0597-.2208-.1193-.4476-.0597-.2268-.0179-.2328-.0717-.4536-.0537-.2209-.0477-.2268-.1074-.4477-.0597-.2208-.0955-.21484-.1492-.43567-.0537-.22084-.0955-.21487-.1552-.43571-.0597-.22083-.0657-.22084-.1254-.44167-.0596-.22084-.0358-.22681-.0955-.45361-.0596-.22681-.0477-.22681-.1074-.44764-.0597-.22084-.0776-.22084-.1373-.44168-.0597-.22083.006-.23874-.0477-.46554-.0538-.22681-.1492-.20293-.203-.42377-.0537-.22084-.0298-.23278-.0895-.45361-.0597-.22084-.006-.23874-.0657-.45958-.0596-.22084-.0776-.22084-.1313-.44167-.0537-.22084-.0537-.22681-.1074-.44764-.0537-.22084-.0716-.22084-.1254-.44168-.0537-.22084-.1014-.21487-.1551-.4357-.0538-.22084-.0418-.22681-.1015-.45361-.0597-.22681-.0955-.21487-.1492-.43571-.0538-.22083-.0239-.23277-.0836-.45361s-.0179-.23277-.0776-.45958c-.0597-.2268-.1253-.2089-.1791-.4357-.0537-.22681-.0119-.23874-.0656-.45958z"/><path d="m84.8106.698626c-.1611 0-.2865.095498-.4059.185026-.1193.089529-.2686.185028-.3104.340208-.0596.22084-.0238.2268-.0775.44764-.0538.22084-.0538.22084-.1134.44167-.0597.22084-.0418.22084-.1015.44168-.0597.22083-.0836.21487-.1433.42973-.0597.21487-.0835.21487-.1432.42974s-.0478.22084-.1015.44167c-.0537.22084-.0119.23278-.0656.45361-.0538.22084-.1015.2089-.1612.42974s-.0119.23277-.0716.45361-.0776.21487-.1373.43571c-.0597.22083-.0179.23277-.0716.44764-.0538.21487-.0418.22083-.1015.44167s-.0776.21487-.1373.4357c-.0597.22084-.0477.22084-.1015.44168-.0537.22083-.0477.22083-.1014.44167s-.1015.2089-.1552.42974c-.0537.22083-.0358.2268-.0895.44764-.0538.22084-.0299.2268-.0896.44764s-.0895.2089-.1492.42974c-.0597.22083-.0657.21486-.1253.43572-.0597.2208-.0418.2208-.1015.4417-.0597.2208-.0299.2268-.0836.4476s-.1313.2029-.191.4178-.0059.2328-.0656.4536-.0717.2149-.1254.4357-.0776.2149-.1313.4357c-.0537.2209-.0358.2268-.0895.4477-.0537.2208-.0955.2089-.1552.4297s-.0358.2268-.0955.4476c-.0597.2209-.0239.2268-.0776.4477-.0537.2208-.0537.2208-.1134.4417-.0597.2208-.1075.2089-.1671.4237-.0597.2149 0 .2328-.0597.4536-.0597.2209-.0537.2209-.1075.4417-.0537.2208-.1372.197-.191.4178-.0537.2208.0299.2447-.0298.4596-.0597.2148-.0836.2148-.1433.4297-.0596.2149-.0716.2149-.1313.4357-.0597.2209-.0477.2209-.1074.4417s-.0299.2268-.0895.4476c-.0597.2209-.0538.2209-.1134.4417-.0597.2208-.1373.197-.1911.4178-.0537.2208-.0238.2268-.0835.4476-.0597.2209-.0836.2149-.1433.4358-.0597.2208-.0059.2327-.0656.4536-.0597.2208-.1075.2089-.1672.4297-.0596.2208-.0656.2208-.1193.4357s0 .2328-.0597.4536-.0239.2268-.0836.4477c-.0597.2208-.0835.2148-.1432.4357-.0597.2208-.0657.2208-.1194.4416-.0537.2209-.0418.2268-.1015.4477-.0597.2208-.1253.2029-.185.4237-.0358.1314.0179.2925.0895.394.0717.1014.2209.1492.3582.1492.2268 0 .2268-.0478.4476-.0478.2209 0 .2268.0717.4477.0717.2208 0 .2268-.0538.4476-.0538.2209 0 .2268.012.4477.012h.4476c.2209 0 .2269.0059.4477.0059.2209 0 .2268-.0059.4477-.0059.2208 0 .2268.0179.4536.0179s.2268.0477.4536.0477.2268-.0418.4536-.0418c.1612 0 .2985-.0775.4179-.173.1193-.0955.2089-.2089.2507-.3641.0596-.2209.1074-.2089.1671-.4238s-.006-.2387.0477-.4536c.0538-.2149.0358-.2268.0896-.4476.0537-.2209.1432-.197.2029-.4178.0597-.2209-.0358-.2448.0239-.4656s.0716-.2149.1253-.4357.1313-.2029.1851-.4238c.0537-.2208.0596-.2208.1193-.4357.0597-.2148-.0059-.2387.0478-.4536.0537-.2148.1313-.2029.185-.4237.0537-.2209.0299-.2268.0895-.4477.0597-.2208.0239-.2268.0776-.4476.0538-.2209.0776-.2149.1314-.4357.0537-.2209.0656-.2209.1253-.4357.0597-.2149 0-.2328.0537-.4536.0537-.2209.0716-.2149.1254-.4357.0537-.2209.0477-.2209.1074-.4417.0597-.2209.1194-.203.1791-.4238.0596-.2208-.012-.2387.0417-.4596.0538-.2208.1015-.2089.1612-.4297s.0239-.2268.0776-.4476c.0537-.2209.0657-.2149.1253-.4357.0597-.2209.1373-.197.197-.4178.0597-.2209-.0239-.2448.0299-.4596.0537-.2149.0596-.2209.1193-.4417s.1134-.2029.1731-.4238c.0597-.2208.0239-.2268.0836-.4476s.0298-.2268.0895-.4477c.0597-.2208.0597-.2208.1194-.4416.0597-.2209.0537-.2209.1074-.4417.0538-.2208.0478-.2208.1075-.4417.0597-.2208.0955-.2089.1492-.4297s.0716-.2149.1313-.4357c.0597-.22085.0298-.22682.0895-.44766.0597-.22083.0597-.22083.1194-.44167.0597-.22083.0358-.2268.0895-.44764.0538-.22084.0776-.21487.1373-.43571.0597-.22083.0358-.2268.0955-.44764.0597-.22083.0597-.22083.1134-.44167.0538-.22084.1015-.2089.1612-.42974.0597-.22083.0418-.2268.1015-.44764.0596-.22083 0-.23277.0537-.45361.0537-.22083.1432-.19696.197-.4178.0537-.22083.0537-.22083.1134-.44167.0596-.22084-.0179-.23874.0417-.45958.0597-.22083.1433-.19696.203-.4178.0597-.22083.0298-.2268.0835-.44764.0538-.22084 0-.23277.0597-.45361s.1254-.20293.1791-.42377c.0537-.22083.0537-.22083.1074-.44167s.0657-.22084.1194-.44167c.0537-.22084.0358-.22681.0895-.44765.0538-.22083.0418-.2268.0955-.44764.0358-.13131.0299-.268582-.0417-.370047-.0717-.101466-.209-.149214-.3462-.149214-.2268 0-.2268-.04178-.4537-.04178-.2268 0-.2268.053717-.4536.053717s-.2268 0-.4536 0-.2268.011935-.4536.011935c-.2269 0-.2269-.065652-.4537-.065652s-.2268.053717-.4536.053717-.2268-.041782-.4536-.041782-.2268.017907-.4537.017907c-.2268 0-.2268-.011937-.4536-.011937s-.2268.011937-.4536.011937z"/><path d="m45.824.210309c-.1433-.017906-.2507.071621-.3462.167118s-.2149.196963-.2149.340208c0 .226805.0358.226805.0358.459575v.45958c0 .23278.012.22681.012.45958 0 .23278-.0299.22681-.0299.45958s-.0298.22681-.0298.45958.0119.22681.0119.45958.0478.2268.0478.45958c0 .23277-.0478.2268-.0478.45958 0 .16711.0955.31633.1791.45361.0835.13727.179.26858.3104.37005.1193.08953.2566.16115.3581.27455.0955.10743.2029.22084.2865.35214.0776.11938.1313.26859.2029.40587.0657.1313.1313.26858.191.41183.0537.13727.1134.27455.1612.42377.0418.13727.0418.29842.0776.44764.0358.14324.0895.28649.1194.4357.0298.14325.0835.28649.1074.44168.0239.14324.0119.29842.0358.4536.0239.15519.0298.29843.0478.44765.0179.14921.0477.29246.0596.44764.012.15518.0538.2984.0657.4476.0119.1493-.0597.3044-.0478.4536.012.1493.0657.2985.0717.4477.0059.1492 0 .2984 0 .4536s-.012.2984-.006.4536.0298.2984.0298.4536-.0417.2984-.0417.4536.0238.3044.0179.4536c-.006.1493.0358.3044.0298.4537-.006.1492 0 .3043-.006.4536-.0059.1492-.0596.3044-.0656.4536s.0477.3103.0358.4596c-.0119.1492-.0119.3043-.0239.4536-.0119.1492-.1014.2984-.1134.4476-.0119.1492.0597.3104.0418.4596-.0179.1552-.0657.3044-.0836.4476-.0179.1552-.0597.3044-.0835.4477-.0239.1552-.0418.3044-.0716.4476-.0299.1552-.0418.3104-.0717.4477-.0358.1492-.0776.2984-.1193.4416-.0478.1492-.1731.2686-.2269.3999-.0537.1492-.0835.2984-.1492.4298-.0716.1432-.1671.2566-.2447.376-.0836.1313-.1313.2805-.2268.3939-.1015.1194-.2507.179-.3641.2686-.1254.1014-.2567.2268-.3402.3581-.0836.1313-.0896.3163-.0896.4775 0 .2268.0358.2268.0358.4536s-.0298.2268-.0298.4536-.006.2268-.006.4536.0179.2268.0179.4536-.0716.2268-.0716.4536.012.2268.012.4536.0298.2268.0298.4536c0 .2269.0477.2269.0477.4537 0 .1432 0 .2924.0896.3819.0895.0896.2447.1015.3879.0836.1552-.0179.3104-.0298.4596-.0537.1493-.0239.3045-.0537.4537-.0895s.3044-.0597.4476-.1015c.1433-.0418.2925-.0895.4417-.1373.1492-.0477.2985-.0835.4417-.1373.1433-.0537.3044-.0716.4417-.1372.1373-.0657.2626-.1672.3999-.2388s.2567-.1731.388-.2566c.1313-.0836.2626-.1552.388-.2447.1253-.0896.2805-.1433.3999-.2388.1193-.0955.191-.2507.3044-.3521.1134-.1015.2029-.2268.3103-.3343.1075-.1074.2746-.1611.3761-.2805s.1194-.2924.2149-.4178c.0955-.1253.191-.2387.2745-.3641.0836-.1253.2328-.2148.3104-.3461s.1612-.2627.2328-.3999c.0716-.1373.0835-.3044.1492-.4417s.197-.2447.2567-.388c.0596-.1432.0955-.2924.1492-.4357.0537-.1432.0716-.2984.1253-.4476s.1134-.2865.1612-.4297c.0477-.1433.0955-.2925.1373-.4417.0417-.1492.0179-.3104.0537-.4596s.0776-.2925.1134-.4476c.0358-.1552.0537-.2985.0836-.4536.0298-.1552.1193-.2925.1432-.4417s-.0239-.3104 0-.4656.0836-.2984.1015-.4536 0-.3044.0119-.4596c.012-.1551.0358-.3044.0478-.4595.0119-.1552.1074-.2985.1134-.4536.0059-.1552-.0717-.3104-.0597-.4656.0119-.1552.0179-.3044.0179-.4596s.0656-.3044.0716-.4596c.006-.1551-.0298-.3043-.0298-.4655 0-.1611-.0239-.3104-.0299-.4596-.0059-.1492 0-.3103 0-.4596 0-.1492-.0119-.3103-.0179-.4595s-.0239-.3104-.0298-.4596c-.006-.1492.0179-.3104.0059-.4656-.0119-.1551-.0059-.3103-.0238-.4595-.0179-.1493-.0597-.30444-.0776-.45365s-.0358-.31036-.0537-.45958c-.0179-.14921-.0657-.3044-.0896-.45361s-.0298-.31036-.0537-.45958c-.0239-.14921-.0776-.29843-.1074-.44764-.0299-.14921-.0657-.3044-.1015-.44764-.0358-.14325-.0299-.31037-.0657-.45958-.0358-.14922-.1014-.29246-.1432-.44167-.0418-.14922-.1492-.27456-.2029-.4178-.0538-.14325-.0239-.3223-.0776-.46555-.0538-.14324-.1194-.28649-.1791-.42974-.0597-.14324-.197-.25068-.2626-.38795-.0657-.13728-.0597-.31634-.1313-.45361-.0717-.13728-.1731-.25665-.2567-.38796s-.2089-.23277-.2925-.35811c-.0835-.12534-.1194-.29246-.2149-.41183s-.1969-.23874-.2924-.35812c-.0955-.11937-.203-.23874-.3044-.34617-.1015-.10744-.2328-.20293-.3462-.3044-.1134-.10146-.2447-.19099-.3641-.28649s-.2209-.21487-.3462-.30439c-.1254-.08953-.2626-.15519-.3939-.23875-.1314-.08356-.2448-.19099-.3821-.26261-.1372-.07163-.2984-.08953-.4357-.155187-.1373-.065654-.2805-.125339-.4238-.179056-.1432-.053717-.2865-.095496-.4357-.143244-.1492-.047749-.2745-.155184-.4238-.196964-.1492-.04178-.3103-.023873-.4596-.059684-.1492-.035812-.2924-.101468-.4476-.125342s-.3044-.029841-.4596-.047747z"/><path d="m68.1589.210797c-.1432-.017906-.2506.071622-.3461.167119s-.2149.196962-.2149.340207c0 .226805.0358.226806.0358.459577v.45958c0 .23277.0119.22681.0119.45958s-.0298.22681-.0298.45958-.0299.2268-.0299.45958c0 .23277.012.2268.012.45958 0 .23277.0477.2268.0477.45958 0 .23277-.0477.2268-.0477.45957 0 .16712.0955.31634.179.45361.0836.13728.1791.26859.3104.37005.1194.08953.2567.16116.3581.27456.0955.10743.203.22083.2865.35214.0776.11937.1314.26859.203.40586.0656.13131.1313.26859.191.41184.0537.13727.1134.27455.1611.42376.0418.13728.0418.29843.0776.44764.0359.14325.0896.2865.1194.43571.0299.14324.0836.28649.1075.44167.0238.14325.0119.29843.0358.45361.0238.15518.0298.29843.0477.44764.0179.14922.0478.29246.0597.44765.0119.15518.0537.29841.0657.44761.0119.1492-.0597.3044-.0478.4536.0119.1493.0657.2985.0716.4477.006.1492 0 .2984 0 .4536s-.0119.2984-.0059.4536c.0059.1552.0298.2984.0298.4536s-.0418.2984-.0418.4536.0239.3044.0179.4536c-.0059.1492.0358.3044.0299.4536-.006.1493 0 .3044-.006.4536-.006.1493-.0597.3044-.0656.4537-.006.1492.0477.3103.0358.4595-.012.1493-.012.3044-.0239.4537-.0119.1492-.1015.2984-.1134.4476s.0597.3104.0418.4596c-.0179.1552-.0657.3044-.0836.4476-.0179.1552-.0597.3044-.0836.4477-.0238.1551-.0417.3044-.0716.4476-.0298.1552-.0418.3104-.0716.4476-.0358.1493-.0776.2985-.1194.4417-.0477.1492-.1731.2686-.2268.3999-.0537.1492-.0836.2984-.1492.4297-.0716.1433-.1671.2567-.2447.3761-.0836.1313-.1314.2805-.2269.3939-.1014.1194-.2506.179-.3641.2686-.1253.1014-.2566.2268-.3402.3581-.0835.1313-.0895.3163-.0895.4775 0 .2268.0358.2268.0358.4536s-.0298.2268-.0298.4536-.006.2268-.006.4536.0179.2268.0179.4536-.0716.2268-.0716.4536.0119.2268.0119.4536.0299.2268.0299.4536.0477.2268.0477.4536c0 .1433 0 .2925.0895.382.0896.0896.2448.1015.388.0836.1552-.0179.3104-.0299.4596-.0537.1492-.0239.3044-.0537.4536-.0895.1493-.0359.3044-.0597.4477-.1015.1432-.0418.2925-.0895.4417-.1373.1492-.0477.2984-.0836.4417-.1373.1432-.0537.3044-.0716.4417-.1372.1372-.0657.2626-.1672.3999-.2388s.2566-.1731.388-.2566c.1313-.0836.2626-.1552.3879-.2447.1254-.0896.2806-.1433.3999-.2388.1194-.0955.191-.2507.3044-.3521.1134-.1015.203-.2268.3104-.3343.1074-.1074.2746-.1611.376-.2805.1015-.1194.1194-.2925.2149-.4178s.191-.2387.2746-.3641c.0836-.1253.2328-.2148.3104-.3462.0776-.1313.1611-.2626.2327-.3998.0717-.1373.0836-.3044.1493-.4417.0656-.1373.1969-.2447.2566-.388.0597-.1432.0955-.2924.1492-.4357.0538-.1432.0717-.2984.1254-.4476s.1134-.2865.1611-.4298c.0478-.1432.0955-.2924.1373-.4416s.0179-.3104.0538-.4596c.0358-.1492.0775-.2925.1134-.4476.0358-.1552.0537-.2985.0835-.4537.0299-.1551.1194-.2924.1433-.4416.0238-.1492-.0239-.3104 0-.4656.0238-.1552.0835-.2984.1014-.4536s0-.3044.012-.4596c.0119-.1552.0358-.3044.0477-.4595.012-.1552.1075-.2985.1134-.4537.006-.1551-.0716-.3103-.0597-.4655.012-.1552.018-.3044.018-.4596s.0656-.3044.0716-.4596c.0059-.1551-.0299-.3044-.0299-.4655 0-.1612-.0238-.3104-.0298-.4596s0-.3104 0-.4596-.0119-.3103-.0179-.4595c-.006-.1493-.0239-.3104-.0299-.4596-.0059-.1492.0179-.3104.006-.4656s-.006-.3103-.0239-.4596c-.0179-.1492-.0597-.30435-.0776-.45356s-.0358-.31037-.0537-.45958-.0656-.3044-.0895-.45361c-.0239-.14922-.0299-.31037-.0537-.45958-.0239-.14921-.0776-.29843-.1075-.44764-.0298-.14922-.0656-.3044-.1014-.44764-.0358-.14325-.0299-.31037-.0657-.45958-.0358-.14922-.1015-.29246-.1432-.44167-.0418-.14922-.1493-.27456-.203-.4178-.0537-.14325-.0239-.32231-.0776-.46555-.0537-.14325-.1194-.28649-.179-.42974-.0597-.14324-.197-.25068-.2627-.38795-.0656-.13728-.0597-.31634-.1313-.45361-.0716-.13728-.1731-.25665-.2566-.38796-.0836-.13131-.2089-.23277-.2925-.35811s-.1194-.29246-.2149-.41183-.197-.23875-.2925-.35812-.2029-.23874-.3044-.34617c-.1014-.10744-.2327-.20294-.3462-.3044-.1134-.10147-.2447-.19099-.3641-.28649-.1193-.0955-.2208-.21487-.3461-.3044-.1254-.08952-.2627-.15518-.394-.23874s-.2447-.19099-.382-.26262c-.1373-.07162-.2984-.08952-.4357-.155179-.1373-.065654-.2805-.125339-.4238-.179056-.1432-.053717-.2865-.095496-.4357-.143244-.1492-.047749-.2746-.155184-.4238-.196963-.1492-.04178-.3104-.023874-.4596-.059685s-.2925-.101467-.4476-.125342c-.1552-.023874-.3045-.029841-.4596-.047747z"/><path d="m118.942 17.4824c-.018-.1492-.119-.2567-.221-.3522-.101-.0955-.215-.2208-.364-.2208-.221 0-.221.0358-.447.0358-.227 0-.221 0-.448 0s-.221.0119-.448.0119-.221-.0298-.447-.0298c-.227 0-.221-.0298-.448-.0298s-.221.0119-.448.0119-.221.0477-.447.0477c-.227 0-.221-.0477-.448-.0477s-.221.0477-.448.0477c-.226 0-.226-.0238-.447-.0238s-.227.0418-.448.0418c-.143 0-.245.0596-.334.1551-.09.0955-.155.197-.143.3402.011.1552.041.3044.059.4596s.054.3044.078.4536.012.3104.042.4596c.029.1492.083.2984.119.4476.036.1493.101.2925.143.4358.042.1432.054.3044.102.4476.047.1432.095.2925.149.4357s.131.2805.191.4178.155.2686.227.3999c.071.1313.077.3104.155.4417.077.1313.203.2327.292.3581.09.1253.167.2566.263.376.095.1194.179.2507.281.3641.101.1134.226.2089.334.3163.107.1074.197.2447.31.3402.114.0955.251.1791.376.2686.126.0895.269.1492.4.2328.131.0835.257.1611.394.2387s.245.191.382.2626c.137.0717.298.0776.442.1433.143.0656.28.1134.429.1671.15.0537.263.1791.412.2268.15.0478.317 0 .466.0418s.286.1074.436.1373c.149.0298.292.0776.447.1074s.305.0477.454.0716.304.0179.459.0358c.156.0179.305.0299.46.0418.155.012.299.1075.454.1194.149.0119.286-.0836.382-.1791.095-.0955.185-.2327.185-.376 0-.2268-.054-.2268-.054-.4476 0-.2209.054-.2209.054-.4477s.006-.2268.006-.4476c0-.2209-.054-.2268-.054-.4477 0-.2208-.036-.2268-.036-.4476s.03-.2268.03-.4476c0-.2209.006-.2268.006-.4477 0-.2208-.018-.2268-.018-.4476 0-.1612 0-.3343-.095-.4477-.096-.1134-.257-.2029-.406-.2387-.15-.0358-.317-.0657-.46-.1194-.149-.0597-.316-.0835-.454-.1552-.137-.0716-.238-.2208-.37-.3103-.131-.0896-.286-.1492-.399-.2626-.114-.1134-.215-.2388-.311-.3641-.095-.1254-.185-.2567-.268-.394-.084-.1372-.144-.2805-.203-.4297-.06-.1492-.12-.2924-.168-.4476-.047-.1552-.059-.3044-.089-.4656-.03-.1492-.042-.3103-.06-.4715z"/><path d="m127.461 8.23762c.018.14922.119.25665.221.35215.101.09549.214.22083.364.22083.22 0 .22-.03581.447-.03581h.448c.227 0 .221-.01193.448-.01193.226 0 .22.02984.447.02984s.221.02984.448.02984.221-.01194.448-.01194c.226 0 .22-.04774.447-.04774s.221.04774.448.04774.221-.04774.448-.04774c.226 0 .226.02387.447.02387s.227-.04178.448-.04178c.143 0 .245-.05969.334-.15518.09-.0955.155-.19696.143-.34021-.012-.15518-.041-.3044-.059-.45958s-.054-.3044-.078-.45361c-.024-.14922-.012-.31036-.042-.45958-.03-.14921-.083-.29843-.119-.44764s-.102-.29246-.143-.43571c-.042-.14324-.054-.30439-.102-.44764-.048-.14324-.095-.29246-.149-.4357-.054-.14325-.131-.28053-.191-.4178-.06-.13728-.155-.26859-.227-.39989-.071-.13131-.077-.31037-.155-.44168s-.203-.23277-.292-.35811c-.09-.12534-.168-.25665-.263-.37602-.096-.11937-.179-.25068-.281-.36408-.101-.11341-.226-.2089-.334-.31634-.107-.10743-.197-.24471-.31-.3402-.114-.0955-.251-.17906-.376-.26859-.126-.08953-.269-.14921-.4-.23277-.132-.08356-.257-.16115-.394-.23874s-.245-.191-.382-.26262-.299-.07759-.442-.143245-.28-.113405-.43-.167122c-.149-.053717-.262-.179055-.411-.226803-.15-.047748-.317-.000002-.466-.041782s-.287-.107434-.436-.137277c-.149-.029842-.292-.077591-.447-.107434-.156-.029843-.305-.047748-.454-.071622s-.304-.017904-.46-.03581c-.155-.017905-.304-.029845-.459-.041782s-.299-.1074319-.454-.119369c-.149-.0119371-.286.0835594-.382.179056-.095.095497-.185.232775-.185.37602 0 .226805.054.226805.054.44764 0 .22084-.054.22084-.054.44764 0 .22681-.006.22681-.006.44765 0 .22083.054.2268.054.44764 0 .22083.036.2268.036.44764s-.03.2268-.03.44764-.006.22681-.006.44764c0 .22084.018.22681.018.44764 0 .16116 0 .33424.095.44765.096.1134.257.20293.406.23874s.317.06565.46.11937c.149.05968.316.08356.453.15518.138.07162.239.22084.37.31036.132.08953.287.14922.4.26262.114.11341.215.23874.311.36408.095.12534.185.25665.268.39393.084.13728.144.28052.203.42973.06.14922.12.29246.167.44765.048.15518.06.30439.09.46555.03.14921.042.31036.06.47151z"/><path d="m21.0627 24.526c-.0358.1313.0418.2447.1134.3462.0717.1015.1672.2208.3045.2208.2268 0 .2268-.0358.4536-.0358h.4536c.2268 0 .2268-.0119.4536-.0119s.2268.0298.4537.0298c.2268 0 .2268.0299.4536.0299s.2268-.012.4536-.012.2268-.0477.4536-.0477c.2269 0 .2269.0477.4537.0477s.2268-.0477.4536-.0477.2268.0239.4536.0239c.1612 0 .2925-.0896.4119-.1851s.185-.2089.2208-.364c.0597-.2209.0776-.2149.1373-.4357.0597-.2209.0478-.2209.1015-.4417.0537-.2209.0477-.2209.1014-.4417.0538-.2208.1015-.2089.1552-.4297.0538-.2209.0358-.2268.0896-.4477.0537-.2208.0298-.2268.0895-.4476s.0895-.2089.1492-.4297c.0597-.2209.0657-.2149.1254-.4357.0596-.2209.0417-.2209.1014-.4417.0597-.2209.0299-.2268.0836-.4477.0537-.2208.1313-.2029.191-.4178.0597-.2148.006-.2327.0656-.4536.0597-.2208.0717-.2148.1254-.4357.0537-.2208.0776-.2148.1313-.4357.0537-.2208.0358-.2268.0895-.4476.0538-.2209.0955-.2089.1552-.4298.0597-.2208.0358-.2268.0955-.4476s.0239-.2268.0776-.4476c.0537-.2209.0537-.2209.1134-.4417.0597-.2209.1075-.2089.1672-.4298.0596-.2208 0-.2327.0596-.4536.0597-.2208.0538-.2208.1075-.4416.0537-.2209.1373-.197.191-.4178.0537-.2209-.0299-.2447.0298-.4656.0597-.2208.0836-.2149.1433-.4297.0597-.2149.0716-.2149.1313-.4357.0597-.2209.0477-.2209.1074-.4417s.0299-.2268.0896-.4476c.0596-.2209.0537-.2209.1134-.4417s.1373-.197.191-.4178.0238-.2268.0835-.4477c.0597-.2208.0836-.2148.1433-.4297s.006-.2328.0656-.4536c.0597-.22083.1075-.2089.1672-.42377s.0656-.22083.1193-.44167c.0538-.22084 0-.23277.0597-.45361s.0239-.22681.0836-.44764c.0597-.22084.0836-.21487.1432-.43571.0597-.22083.0657-.22083.1194-.44167s.0418-.2268.1015-.44167.1253-.20293.1791-.42377c.0537-.22084.0477-.22084.1014-.44167.0537-.22084.0299-.22681.0896-.44765.0596-.22083.0119-.23277.0716-.45361.0597-.22083.1253-.20293.185-.42376.0597-.22084 0-.23278.0597-.45361.0597-.22084.0657-.21487.1253-.43571.0597-.22083.0538-.22084.1135-.44167.0596-.22084.0656-.22084.1193-.44167.0537-.22084.0478-.22084.1075-.44168s.0716-.21487.1313-.4357c.0597-.22084.1014-.2089.1611-.42974.0597-.22083.0179-.23277.0776-.45361.0358-.13131-.0238-.256647-.1014-.352144s-.1791-.167119-.3164-.167119c-.2268 0-.2268-.053717-.4476-.053717-.2209 0-.2269.065654-.4477.065654s-.2268.023873-.4477.023873c-.2208 0-.2268-.089527-.4476-.089527-.2209 0-.2268.095497-.4477.095497-.2208 0-.2268-.011938-.4476-.011938-.2209 0-.2269-.071622-.4477-.071622s-.2268 0-.4536 0-.2268.065655-.4537.065655c-.2268 0-.2268-.071625-.4536-.071625-.1611 0-.3223.083561-.4417.173089s-.179.244714-.2208.393924c-.0597.22084-.0776.21487-.1313.43571-.0538.22083-.0657.21486-.1254.4357s0 .23277-.0537.45361-.0716.21487-.1253.43571c-.0538.22083-.0478.22083-.1075.44167-.0597.22083-.1194.20293-.179.42377-.0597.22083.0119.23874-.0418.45958-.0537.22083-.1015.20889-.1552.42973s-.0239.22681-.0776.44764c-.0537.22084-.0657.21487-.1254.43571-.0596.22083-.1372.19696-.1969.4178-.0597.22083.0239.23874-.0299.45958-.0537.22083-.0597.22083-.1193.44167-.0597.22084-.1134.20293-.1731.42377-.0597.22083-.0239.2268-.0836.44764-.0597.22083-.0298.2268-.0895.44764s-.0597.22084-.1194.4357c-.0597.21487-.0537.22084-.1074.44168-.0538.22083-.0478.22083-.1075.44167s-.0955.2089-.1492.42974c-.0537.22087-.0716.21487-.1313.43567-.0597.2209-.0299.2268-.0895.4477-.0597.2208-.0597.2208-.1194.4416-.0597.2209-.0358.2269-.0896.4477-.0537.2208-.0776.2149-.1372.4357-.0597.2208-.0358.2268-.0955.4476-.0597.2209-.0597.2209-.1134.4417-.0538.2208-.1015.2089-.1612.4297-.0597.2209-.0418.2269-.1015.4417-.0597.2149 0 .2328-.0537.4536-.0537.2209-.1432.197-.197.4178-.0537.2209-.0537.2209-.1134.4417s.0179.2387-.0418.4596c-.0596.2208-.1432.1969-.2029.4178-.0597.2208-.0298.2268-.0836.4476-.0537.2209 0 .2328-.0596.4536-.0597.2209-.1254.203-.1791.4238s-.0537.2208-.1074.4417c-.0538.2208-.0657.2208-.1194.4416-.0537.2209-.0358.2268-.0895.4477-.0538.2208-.0418.2268-.0956.4476-.0537.2209-.0895.2089-.1492.4298-.0597.2208-.0358.2268-.0955.4476s-.0955.2089-.1552.4297c-.0596.2209 0 .2328-.0596.4537-.0597.2208-.0597.2208-.1194.4416-.0597.2209-.0478.2209-.1075.4417s-.1193.2029-.179.4238c-.0597.2208-.006.2327-.0657.4536-.0597.2208-.0955.2089-.1552.4297s-.0358.2268-.0955.4477c-.0597.2208-.0656.2208-.1253.4357-.0597.2148-.0418.2268-.1015.4476z"/><path d="m5.56147 1.19408c-.04178-.15519-.16116-.256652-.2865-.34618-.12535-.089529-.24472-.214869-.40588-.214869-.22681 0-.22681.035812-.44766.035812-.22084 0-.22681 0-.44766 0-.22084 0-.22681.011938-.44766.011938-.22084 0-.22681-.029843-.44765-.029843-.22085 0-.22682-.029844-.44766-.029844-.22085 0-.22682.011937-.44766.011937-.22085 0-.22682.04775-.44766.04775-.22085 0-.22681-.04775-.45363-.04775-.22681 0-.22681.04775-.453628.04775-.226814 0-.226813-.023875-.453627-.023875-.137282 0-.232783.095497-.310377.190994-.0775942.095497-.0895319.20293-.0537192.33424.0596879.22084.0358137.22681.0895332.44764.053719.22084.065656.21487.125344.43571.059687.22083.065656.21486.125344.4357.059687.22084.011936.23277.071624.44764s.077597.21487.137284.43571c.059688.22083.083562.21487.14325.42973.059688.21487.023876.22681.077595.44765.053719.22083.047749.22083.101468.44167s.071627.21487.125349.4357c.05372.22084.08356.21487.14325.42974.05968.21487-.01791.23874.03581.45958s.10744.2089.16116.42377c.05372.21486.04178.22083.10147.44167.05968.22084.04178.2268.0955.44167s.07759.21487.13728.43571.01791.23277.07163.44764.07759.21487.13728.43571c.05969.22083.0955.20889.14922.42973s.05968.22084.1134.44168c.05372.22083.00597.23277.06566.45361.05969.2208.11341.2029.1731.4238.05968.2208.05968.2208.11937.4357.05969.2148-.02387.2387.03581.4595.05969.2209.14326.197.19697.4178.05372.2209.02985.2269.08357.4477s.04178.2208.0955.4417c.05372.2208.06565.2148.11937.4357.05372.2208.08357.2148.13729.4297s.05968.2208.11937.4357-.02387.2387.03581.4596c.05969.2208.08954.2089.14922.4297.05969.2209.02985.2268.08357.4477.05371.2208.10744.2089.16712.4237.05969.2149 0 .2328.05969.4536.05969.2209.05372.2209.10744.4417.05372.2209.10744.2089.16712.4238.05969.2148.08954.2089.14922.4297.05969.2209.02985.2268.08954.4477.05968.2208.04775.2208.10743.4416.05969.2209.07163.2149.13132.4357.05968.2209-.01194.2388.04775.4596.05969.2209.07162.2149.12534.4357.05372.2209.08357.2149.14325.4357.05969.2209.10147.2089.15519.4298.05372.2208-.01194.2387.04178.4595.05372.2209.10744.2089.16713.4298.05969.2208.04775.2208.10147.4417.05372.2208.05969.2208.1134.4416.03582.1373.22085.1433.25666 0 .05969-.2208.04775-.2208.10744-.4476s.07163-.2149.13131-.4357c.05969-.2209.10147-.2089.16116-.4298.05969-.2208.01791-.2327.0776-.4536.05969-.2208.02984-.2268.08953-.4536s.06565-.2208.12534-.4416c.05969-.2209.10744-.2089.16713-.4298.05969-.2208-.00597-.2387.04775-.4596.05372-.2208.03581-.2268.0955-.4476s.14325-.197.20294-.4238-.03581-.2447.02387-.4655c.05969-.2209.07163-.2209.12535-.4417s.13131-.2029.18503-.4238c.05372-.2208.06566-.2208.11938-.4416.05372-.2209-.00597-.2388.04775-.4596s.13131-.2029.18503-.4238c.05372-.2208.02984-.2268.08953-.4476.05969-.2209.02388-.2328.07759-.4536.05372-.2209.0776-.2149.13132-.4417s.06566-.2208.12534-.4417c.05969-.2208 0-.2387.05969-.4596.05969-.2208.07163-.2208.12535-.4416.04178-.1731.05968-.3402.05968-.5133s.04178-.3581 0-.5312c-.05968-.2209-.13131-.203-.18503-.4298s-.01194-.2327-.07163-.4595c-.05968-.2269-.08953-.2149-.14921-.4358-.05969-.22079-.04776-.22676-.10744-.4476-.05969-.22083.02387-.24471-.03581-.46554-.05969-.22084-.14326-.20293-.19698-.42377-.05371-.22084-.05371-.2268-.1134-.44764s0-.23874-.05969-.45958-.08953-.21487-.14922-.44168c-.05969-.2268-.08356-.21486-.14325-.44167-.05969-.2268-.05372-.2268-.11341-.44764s-.05968-.22084-.11937-.44764c-.05969-.22681-.06566-.22084-.12535-.44764-.05969-.22681-.02387-.23278-.07759-.45361-.05372-.22084-.04178-.22681-.10147-.45361-.05969-.22681-.08356-.21487-.14325-.44168-.05969-.2268-.05372-.22084-.11341-.44764-.05969-.22681-.08356-.21487-.13728-.44167-.05372-.22681-.03581-.22681-.0955-.45361-.05969-.22681-.0776-.22084-.13728-.44168-.05969-.22083-.05969-.2268-.11341-.44764s-.01791-.23277-.07163-.45958c-.05372-.2268-.07162-.22083-.12534-.44764z"/><path d="m98.5309.662814c-.1612 0-.2865.095498-.4059.185026-.1194.089529-.2686.18503-.3104.34021-.0597.22083-.0238.23277-.0776.45361-.0537.22084-.0596.22084-.1134.44764-.0537.22681-.0417.22681-.1014.44764-.0597.22084-.0836.21487-.1433.43571-.0597.22083-.0835.21487-.1432.4357-.0597.22084-.0478.22681-.1075.44764-.0597.22084-.0119.23278-.0716.45361-.0597.22084-.1015.2089-.1612.42974-.0596.22084-.0119.23277-.0716.45361s-.0776.21487-.1373.44167c-.0597.22681-.0179.23278-.0716.45361-.0537.22084-.0418.22681-.1015.44765-.0596.22083-.0835.21486-.1372.44167-.0538.2268-.0478.2268-.1075.44764s-.0477.22681-.1014.44764c-.0538.22084-.1015.2089-.1552.43571-.0538.2268-.0358.2268-.0955.45361-.0597.2268-.0299.2268-.0896.45361-.0597.2268-.0895.21487-.1492.4357-.0597.22084-.0656.22084-.1253.44164-.0597.2209-.0418.2268-.1015.4477-.0597.2208-.0298.2268-.0895.4536s-.1313.2029-.191.4238c-.0597.2208-.012.2327-.0657.4595s-.0716.2209-.1253.4417c-.0538.2208-.0776.2208-.1314.4417-.0537.2208-.0358.2268-.0955.4536-.0358.1373-.1671.1791-.2805.1791s-.2268-.0418-.2626-.1791c-.0597-.2208-.0955-.2149-.1492-.4357s-.0597-.2208-.1134-.4417c-.0538-.2208-.006-.2328-.0657-.4536s-.1134-.2089-.1731-.4297c-.0597-.2209-.0597-.2209-.1194-.4417s.0179-.2447-.0358-.4656c-.0537-.2208-.1432-.1969-.2029-.4237-.0597-.22682-.0299-.22683-.0836-.45363-.0537-.22681-.0418-.22681-.1014-.44764-.0597-.22084-.0657-.22084-.1254-.44168-.0597-.22083-.0836-.21486-.1373-.4357s-.0597-.22084-.1193-.44167c-.0597-.22084.0238-.24471-.0359-.46555s-.0895-.21487-.1492-.43571c-.0597-.22083-.0298-.2268-.0895-.45361-.0597-.2268-.1075-.2089-.1671-.42973-.0597-.22084 0-.23874-.0597-.45958s-.0537-.22681-.1075-.44764c-.0537-.22084-.1134-.2089-.1671-.42974s-.0895-.21487-.1492-.4357c-.0597-.22084-.0299-.23278-.0895-.45361-.0597-.22084-.0538-.22681-.1075-.44765-.0358-.13727-.1969-.13727-.2387 0-.0597.22084-.1254.20293-.1851.42377s-.0477.22681-.1014.44764c-.0538.22084-.0299.22681-.0896.44765-.0597.22083-.0119.23277-.0716.4536-.0597.22084-.1253.20293-.185.42377s0 .23278-.0657.45958c-.0656.22681-.0716.22084-.1253.44168-.0537.22083-.0537.22083-.1134.44167-.0597.22083-.0657.22083-.1254.44167s-.0477.22681-.1074.44764c-.0597.22084-.0716.21487-.1313.44168-.0597.2268-.1015.2089-.1612.4357-.0597.22681-.0179.23277-.0776.45361s-.0298.22681-.0895.45361c-.0597.22681-.0657.22084-.1254.44167-.0596.2208-.1074.2089-.1671.4297-.0597.2209.006.2388-.0477.4596-.0538.2209-.0358.2268-.0955.4477-.0597.2208-.1433.1969-.203.4237s.0358.2447-.0239.4715c-.0596.2269-.0716.2209-.1253.4417-.0537.2209-.1313.203-.185.4298-.0418.173-.0717.3581-.0717.5312 0 .173.0896.3461.1314.5133.0596.2208-.012.2447.0417.4655.0538.2208.0836.2149.1433.4417s.0955.2148.1492.4357c.0537.2208.0418.2268.0955.4476.0537.2209.0478.2268.1075.4477.0596.2208.1134.2089.173.4297.0597.2208.0478.2268.1015.4476.0537.2209.0657.2209.1254.4417.0597.2209 0 .2388.0537.4656s.1313.2029.185.4297.0119.2328.0716.4596.0896.2148.1493.4357c.0596.2208.0477.2268.1074.4476.0597.2209-.0239.2447.0358.4656.0597.2208.1433.2029.197.4237.0537.2209.0537.2268.1134.4477.0597.2208 0 .2387.0597.4596.0597.2208.0895.2148.1492.4416s.0836.2149.1432.4417c.0597.2268.0538.2268.1135.4476.0596.2209.0596.2209.1193.4477s.0657.2208.1254.4476.0238.2328.0776.4596c.0417.1552.1193.2984.2387.3939s.2805.1254.4417.1254h.4477c.2208 0 .2268-.0239.4476-.0239.2209 0 .2268.0239.4477.0239.2208 0 .2268-.0179.4476-.0179h.4477c.2208 0 .2268.0477.4477.0477.2208 0 .2268-.0179.4476-.0179.2209 0 .2268-.0597.4537-.0597.2268 0 .2268.0836.4536.0836h.4536c.1612 0 .2805-.1194.3999-.2149s.2806-.1731.3164-.3283c.0597-.2208.0298-.2268.0835-.4476s0-.2328.0597-.4536.1254-.2029.1791-.4238c.0537-.2208.0537-.2208.1074-.4416.0537-.2209.0597-.2209.1194-.4357.0597-.2149.0358-.2269.0895-.4477s.0418-.2268.0955-.4417c.0537-.2148.0896-.2089.1492-.4297.0597-.2208.0359-.2268.0955-.4417.0597-.2148.0955-.2089.1552-.4297s0-.2328.0597-.4536c.0597-.2209.0597-.2209.1194-.4417s.0477-.2208.1074-.4417c.0597-.2208.1194-.2029.1791-.4237.0597-.2209.006-.2328.0657-.4536.0596-.2209.0954-.2089.1551-.4298.0597-.2208.0359-.2268.0955-.4476.0597-.2209.0717-.2149.1254-.4357.0537-.2209.0418-.2268.1015-.4417.0596-.2149.0238-.2268.0835-.4476.0597-.2209.1254-.203.185-.4238.0597-.2209-.0119-.2388.0478-.4596s.0955-.2089.1491-.4297c.054-.2209.06-.2209.119-.4417.06-.2208-.005-.2387.048-.4596.054-.2208.132-.2029.191-.4178.06-.2148.054-.2208.108-.4417.053-.2208.018-.2327.071-.4536.054-.2208.09-.2089.15-.4297.059-.2208-.012-.2387.047-.4596.06-.2208.09-.2089.149-.4297.06-.2208.048-.2209.108-.4417s.072-.2149.131-.4357c.06-.22083.09-.20889.149-.42973.06-.22084.048-.22083.102-.44167s.066-.21487.125-.4357c.06-.22084.024-.22681.084-.44765.06-.22083.054-.22083.113-.44167.06-.22084.024-.22681.084-.44764.06-.22084.089-.2089.149-.42974s.066-.22084.125-.4357c.06-.21487.06-.22084.114-.44168.054-.22083.054-.22083.113-.44167.06-.22084.102-.2089.155-.42974.054-.22083.066-.22083.126-.4357.059-.21487.024-.22681.077-.44764.054-.22084.018-.23278.078-.44765.06-.21486.048-.22083.101-.44167.054-.22083.078-.21487.138-.4357.059-.22084.065-.21487.125-.43571.06-.22083.036-.2268.096-.44764.059-.22084.125-.20293.179-.42377.053-.22083-.03-.24471.023-.46554.036-.13131.036-.238747-.041-.340212-.078-.101466-.179-.208899-.317-.208899-.226 0-.226.017905-.453.017905s-.227-.00597-.454-.00597-.227.011937-.454.011937c-.226 0-.226.04178-.453.04178s-.227-.017905-.454-.017905-.227.035812-.453.035812c-.227 0-.227-.035812-.4541-.035812-.2268 0-.2268-.04178-.4536-.04178s-.2268.065654-.4536.059685c-.2268-.005968-.2268-.047747-.4537-.047747z"/><path d="m102.59 13.2039c-.042.1731-.018.3522-.018.5253s-.048.3641 0 .5312c.06.2208.096.2148.149.4357.054.2208.06.2208.114.4476.053.2268.071.2209.131.4417s.03.2328.089.4536c.06.2208.03.2328.09.4536.06.2209.066.2209.125.4417.06.2208.102.2089.162.4357.059.2268.011.2328.071.4596s.102.2148.161.4357c.06.2208.036.2268.096.4536.059.2268.101.2149.155.4357s.072.2208.131.4417c.06.2208.036.2268.096.4536.059.2268.065.2208.125.4417.06.2208.072.2208.125.4416.054.2209.018.2328.072.4596s.078.2149.137.4417c.06.2268.084.2148.144.4416.059.2269.024.2328.083.4537.06.2208.048.2268.108.4476.059.2208.071.2208.131.4417.06.2208.084.2148.143.4417.06.2268-.018.2447.042.4655.042.1552.173.2626.292.3521.12.0896.257.1552.418.1552.227 0 .227.0179.448.0179s.227-.0238.448-.0238c.22 0 .226.0417.447.0417s.227-.0238.448-.0238.227-.0358.448-.0358h.447c.221 0 .227.0537.448.0537s.227-.0597.454-.0597h.453c.227 0 .227.0835.454.0835.137 0 .215-.1372.292-.2327.078-.0955.132-.197.096-.3283-.06-.2208-.042-.2208-.096-.4417-.053-.2208-.065-.2148-.119-.4357-.054-.2208-.084-.2148-.137-.4297-.054-.2149-.06-.2209-.12-.4357-.059-.2149.024-.2388-.036-.4596-.059-.2208-.089-.2089-.149-.4297-.06-.2209-.03-.2268-.083-.4477-.054-.2208-.108-.2089-.168-.4237-.059-.2149 0-.2328-.059-.4537-.06-.2208-.054-.2208-.108-.4416-.053-.2209-.107-.203-.167-.4238-.059-.2208-.089-.2089-.149-.4297-.06-.2209-.03-.2268-.09-.4477-.059-.2208-.047-.2208-.107-.4416-.06-.2209-.072-.2149-.131-.4358-.06-.2208.012-.2387-.048-.4595-.06-.2209-.072-.2149-.125-.4357-.054-.2209-.084-.2149-.144-.4298-.059-.2148-.101-.2089-.155-.4297s.012-.2388-.042-.4596c-.053-.2208-.107-.2089-.167-.4238-.059-.2148-.047-.2208-.101-.4416-.054-.2209-.06-.2209-.114-.4417-.053-.2208-.047-.2208-.107-.4417-.06-.2208-.066-.2148-.119-.4357-.054-.2208-.042-.2268-.096-.4417-.054-.2148-.012-.2327-.072-.4476-.059-.2149-.095-.2089-.155-.4297-.059-.2209-.083-.2149-.143-.4298-.06-.2148-.048-.2208-.107-.4416-.06-.2209-.006-.2328-.066-.4536-.06-.2209-.125-.203-.179-.4238-.054-.2209-.078-.2149-.137-.4357-.06-.22086.029-.24473-.024-.4596-.054-.21487-.15-.19696-.203-.4178-.054-.22084-.048-.22084-.102-.44167-.053-.22084.012-.23874-.041-.45958-.054-.22084-.054-.22084-.108-.44168-.054-.22083-.119-.20293-.179-.42376-.06-.22084.012-.23875-.042-.45958-.053-.22084-.083-.21487-.137-.43571-.054-.22083-.09-.20889-.149-.42973-.06-.22084-.042-.22681-.096-.44167-.053-.21487-.048-.22084-.107-.44168-.06-.22084-.114-.20293-.173-.42377-.06-.22083-.048-.22083-.102-.44167-.053-.22083-.065-.22084-.119-.44167-.054-.22084 0-.23874-.054-.45958-.036-.13728-.203-.11937-.239.01791-.059.22083-.101.20889-.161.42973-.059.22084-.024.23278-.083.45361-.06.22084-.066.22084-.126.44167-.059.22084-.137.20293-.197.42377-.059.22084.024.24471-.029.46555-.054.22084-.06.22084-.12.44167-.06.22084-.113.2089-.173.42974s-.024.23277-.084.45361c-.059.22083-.029.2268-.089.44764s-.06.22084-.119.44167c-.06.22084-.054.22084-.114.44765-.06.2268-.054.2268-.107.44764-.054.22083-.096.21487-.149.4357-.054.22084-.072.21487-.132.44168-.059.2268-.03.2268-.089.45361-.06.2268-.06.2208-.12.4417-.059.2208-.036.2268-.089.4476-.054.2208-.078.2149-.138.4417-.059.2268-.035.2268-.095.4476-.06.2209-.06.2209-.113.4417-.054.2208-.102.2089-.162.4357-.059.2268-.047.2268-.107.4476z"/><g stroke="#333" stroke-miterlimit="10" stroke-width=".23"><path d="m146.803 25.0193v-20.34352h7.743c2.843 0 5 .84288 6.514 2.54294 1.515 1.70005 2.258 4.14298 2.258 7.32878s-.786 5.8716-2.343 7.7145c-1.558 1.843-3.743 2.7573-6.543 2.7573zm7.514-17.9863h-4.757v15.5148h4.757c2.029 0 3.572-.6572 4.615-1.9858s1.557-3.2715 1.557-5.8573-.529-4.3716-1.586-5.68593c-1.057-1.31432-2.586-1.97149-4.586-1.97149z"/><path d="m166.518 25.0194v-14.7862h2.4v2.6573c.4-1.0001.928-1.7429 1.614-2.2287.686-.4857 1.5-.74285 2.486-.74285h.4c.086 0 .171.01428.243.02857v2.62868s-.143-.0143-.215-.0143c-.085 0-.2 0-.371 0-1.329 0-2.343.3571-3.029 1.0857-.685.7286-1.043 1.7715-1.043 3.1573v8.2288h-2.485z"/><path d="m177.032 7.51873v-2.84295h2.486v2.82866h-2.486zm0 17.50057v-14.7862h2.486v14.7862z"/><path d="m188.033 25.0196-5.458-14.7862h2.672l4.128 11.8432 4.029-11.8432h2.672l-5.401 14.7862z"/><path d="m208.004 20.2478h2.457c-.271 1.6286-.971 2.9143-2.128 3.8572s-2.6 1.4143-4.343 1.4143c-2.057 0-3.672-.6857-4.858-2.0714-1.185-1.3858-1.785-3.2573-1.785-5.6431 0-2.5286.585-4.4858 1.771-5.9144 1.186-1.4144 2.8-2.12868 4.872-2.12868 2.071 0 3.771.65718 4.943 1.95718 1.171 1.3001 1.743 3.1573 1.743 5.5431v.6714c0 .1429-.015.2857-.029.4286h-10.672c.029 1.5572.415 2.7572 1.158 3.6144.742.8572 1.785 1.2714 3.1 1.2714 1.014 0 1.843-.2571 2.5-.7857s1.085-1.2572 1.271-2.2143zm-8.057-3.9716h8.114c0-1.3858-.357-2.4429-1.043-3.2001-.685-.7429-1.671-1.1286-2.943-1.1286-1.271 0-2.185.3714-2.9 1.1-.714.7286-1.114 1.8144-1.243 3.2144z"/></g></g></svg>