<svg fill="none" height="26" viewBox="0 0 248 26" width="248" xmlns="http://www.w3.org/2000/svg"><g fill="#333"><path d="m35.6158 12.9535c0 .1552.0517.3103.0517.459 0 .1486-.0647.3102-.0647.4654 0 .1551.0453.3102.0517.4589.0065.1486.013.3102.0259.4589s.0323.3103.0452.4589c.013.1487 0 .3103.013.459.0129.1486 0 .3102.0194.4589s.0452.3038.0646.4589c.0194.1552.0905.2974.1164.4525.0258.1551 0 .3103.0323.4654s.1034.2973.1357.446.0453.3103.0776.4525.1163.2908.1551.4395.097.2909.1422.4395c.0453.1487.0711.3038.1164.446.0452.1422.1098.2909.168.4266.0582.1358.1228.2845.181.4202s.084.2973.1487.4395c.0646.1422.1551.265.2262.4008.0711.1357.1745.2521.2521.3878.0776.1358.1357.278.2198.4072.084.1293.168.2586.2585.3814s.2004.2327.2974.349c.0969.1164.2197.2134.3296.3232.1099.1099.1616.2715.2779.3749.1164.1035.2651.1681.3814.2651.1164.0969.2327.2003.362.2844.1293.084.2456.1874.3749.265.1293.0775.2779.1357.4137.2068.1357.0711.2521.1745.3943.2392.1422.0646.2908.1034.433.1551s.2974.0711.446.1164c.1487.0452.2909.084.4396.1292.1487.0453.2844.1228.4331.1552.1486.0323.3102 0 .4654.0258.1551.0259.3038.0388.4524.0582.1422.0194.2974.0323.3943-.0582.097-.0905.0776-.2521.0776-.3943 0-.2262.0323-.2262.0323-.4524 0-.2263.0129-.2263.0129-.4525s-.0064-.2262-.0064-.4525c0-.2262-.0259-.2262-.0259-.4524 0-.2263 0-.2263 0-.4525s.084-.2262.084-.4525c0-.2262-.0323-.2262-.0323-.4524 0-.2263.0259-.2263.0259-.4525 0-.1616-.1034-.3103-.1875-.446-.084-.1357-.1616-.2909-.2909-.3878-.1163-.0905-.2197-.1875-.3296-.3038-.097-.1099-.2327-.1939-.3167-.3232-.0776-.1228-.1875-.2392-.2586-.3814-.0646-.1293-.1034-.2844-.1616-.4266-.0517-.1357-.0969-.2844-.1422-.4331-.0452-.1422-.0969-.2844-.1357-.433-.0323-.1422 0-.3038-.0323-.459-.0324-.1422-.0711-.2908-.097-.446-.0259-.1486-.0711-.2908-.097-.446-.0193-.1486-.084-.2908-.0969-.446-.0129-.1551.0388-.3038.0258-.4589-.0129-.1551-.0775-.2973-.0905-.446-.0129-.1487-.0064-.2973-.0193-.4525-.013-.1551-.0194-.2973-.0259-.4524-.0065-.1552 0-.3038-.0065-.4525-.0064-.1487-.0129-.2973-.0194-.4525-.0064-.1551.013-.3038.013-.4589s.0452-.3038.0452-.4589c0-.1552-.0388-.3038-.0388-.4525s-.0258-.3038-.0258-.4525c0-.1486.0129-.3038.0194-.4524.0064-.1487.0581-.3038.0646-.4525s-.0517-.3103-.0452-.4589c.0064-.1487 0-.3038 0-.4525s.1099-.29733.1228-.446-.0647-.31673-.0517-.45893c.0194-.15513.0452-.3038.0646-.45247.0194-.15513.1164-.29087.1422-.43953.0259-.15513.0582-.29734.084-.44601.0324-.15513 0-.31672.0324-.45893.0387-.15513.1486-.27794.1939-.41368.0452-.14867.0711-.29733.1228-.43307.0582-.14867.084-.29734.1487-.42662.0711-.1422.1615-.26501.2456-.38136.084-.12927.1874-.24562.2844-.34904.1034-.11635.181-.25856.2973-.34905.1293-.09696.2456-.19391.3297-.32319.084-.12928.1228-.27148.1228-.43307 0-.22624.0646-.22624.0646-.45247s-.0711-.22623-.0711-.45247c0-.22623.0453-.22623.0453-.45246 0-.22624-.0324-.22624-.0324-.45247s.013-.22623.013-.45246c0-.22624.084-.22624.084-.45247s-.084-.22623-.084-.45893 0-.22623 0-.458931c0-.142203-.0065-.290871-.097-.381364s-.2456-.122812-.3878-.103421c-.1551.019392-.3038.064638-.4525.090493-.1486.025856-.3038.045247-.4524.077566-.1487.032319-.2974.071102-.446.109885-.1487.038782-.2909.090493-.4396.135739-.1487.045247-.3038.064638-.446.116349-.1422.05171-.2909.096957-.4331.161595-.1422.064639-.265.155129-.4007.226229-.1358.07111-.2715.14867-.4008.22624-.1293.07756-.2456.18098-.3684.27148-.1228.09049-.2586.16159-.3814.25855s-.2197.2133-.3361.31672c-.1163.10343-.2198.20685-.3297.31673-.1098.10989-.2456.19392-.3425.31026-.097.11635-.181.24563-.278.36844-.0969.12281-.1293.27794-.2197.40722-.0905.12928-.2392.20684-.3168.34258-.0775.13574-.1551.26502-.2262.40076s-.0711.3038-.1357.446c-.0647.1422-.2069.23916-.2715.38136-.0647.14221-.0905.29087-.1487.43954s-.0517.3038-.1034.45247-.1616.27148-.2069.42014c-.0452.14867-.084.29734-.1228.44601-.0388.14866-.084.29733-.1163.446s-.0453.3038-.0776.45247c-.0323.14866-.0452.30379-.0711.45246-.0258.14867-.084.29734-.1099.446-.0258.14867-.0258.3038-.0452.45893-.0194.15514-.0776.29734-.097.45247s.0194.31031 0 .46541-.0323.3038-.0452.4589-.0129.3038-.0194.4589c-.0065.1552-.084.3038-.0905.459-.0065.1551.0388.3102.0323.4654-.0064.1551-.0452.3038-.0517.4589s.0194.3038.0194.4654z"/><path d="m57.8765 12.9535c0 .1552.0517.3103.0517.459 0 .1486-.0646.3102-.0646.4654 0 .1551.0452.3102.0517.4589.0064.1486.0129.3102.0258.4589.013.1487.0324.3103.0453.4589.0129.1487 0 .3103.0129.459.0129.1486 0 .3102.0194.4589s.0453.3038.0646.4589c.0194.1552.0905.2974.1164.4525.0258.1551 0 .3103.0323.4654s.1034.2973.1357.446c.0324.1487.0453.3103.0776.4525s.1164.2908.1551.4395c.0388.1487.097.2909.1423.4395.0452.1487.0711.3038.1163.446s.1099.2909.1681.4266c.0581.1358.1228.2845.1809.4202.0582.1357.0841.2973.1487.4395s.1551.265.2262.4008c.0712.1357.1746.2521.2521.3878.0776.1358.1358.278.2198.4072.084.1293.1681.2586.2586.3814s.2003.2327.2973.349c.0969.1164.2198.2134.3296.3232.1099.1099.1616.2715.278.3749.1163.1035.265.1681.3814.2651.1163.0969.2327.2003.3619.2844.1293.084.2457.1874.3749.265.1293.0775.278.1357.4137.2068.1358.0711.2521.1745.3943.2392.1422.0646.2909.1034.4331.1551s.2973.0711.446.1164c.1487.0452.2909.084.4395.1292.1487.0453.2844.1228.4331.1552.1487.0323.3103 0 .4654.0258.1551.0259.3038.0388.4525.0582.1422.0194.2973.0323.3943-.0582.0969-.0905.0775-.2521.0775-.3943 0-.2262.0323-.2262.0323-.4524 0-.2263.013-.2263.013-.4525s-.0065-.2262-.0065-.4525c0-.2262-.0259-.2262-.0259-.4524 0-.2263 0-.2263 0-.4525s.0841-.2262.0841-.4525c0-.2262-.0323-.2262-.0323-.4524 0-.2263.0258-.2263.0258-.4525 0-.1616-.1034-.3103-.1874-.446-.0841-.1357-.1616-.2909-.2909-.3878-.1164-.0905-.2198-.1875-.3297-.3038-.0969-.1099-.2327-.1939-.3167-.3232-.0776-.1228-.1874-.2392-.2585-.3814-.0647-.1293-.1035-.2844-.1616-.4266-.0518-.1357-.097-.2844-.1422-.4331-.0453-.1422-.097-.2844-.1358-.433-.0323-.1422 0-.3038-.0323-.459-.0323-.1422-.0711-.2908-.097-.446-.0258-.1486-.0711-.2908-.0969-.446-.0194-.1486-.084-.2908-.097-.446-.0129-.1551.0388-.3038.0259-.4589s-.0776-.2973-.0905-.446-.0065-.2973-.0194-.4525c-.0129-.1551-.0194-.2973-.0259-.4524-.0064-.1552 0-.3038-.0064-.4525-.0065-.1487-.013-.2973-.0194-.4525-.0065-.1551.0129-.3038.0129-.4589s.0453-.3038.0453-.4589c0-.1552-.0388-.3038-.0388-.4525s-.0259-.3038-.0259-.4525c0-.1486.013-.3038.0194-.4524.0065-.1487.0582-.3038.0647-.4525.0064-.1487-.0518-.3103-.0453-.4589.0065-.1487 0-.3038 0-.4525s.1099-.29733.1228-.446-.0646-.31673-.0517-.45893c.0194-.15513.0453-.3038.0646-.45247.0194-.15513.1164-.29087.1423-.43953.0258-.15513.0581-.29734.084-.44601.0323-.15513 0-.31672.0323-.45893.0388-.15513.1487-.27794.1939-.41368.0453-.14867.0711-.29733.1228-.43307.0582-.14867.0841-.29734.1487-.42662.0711-.1422.1616-.26501.2456-.38136.084-.12927.1875-.24562.2844-.34904.1034-.11635.181-.25856.2974-.34905.1292-.09696.2456-.19391.3296-.32319s.1228-.27148.1228-.43307c0-.22624.0647-.22624.0647-.45247s-.0711-.22623-.0711-.45247c0-.22623.0452-.22623.0452-.45246 0-.22624-.0323-.22624-.0323-.45247s.0129-.22623.0129-.45246c0-.22624.084-.22624.084-.45247s-.084-.22623-.084-.45893 0-.22623 0-.458931c0-.142203-.0064-.290871-.0969-.381364s-.2457-.122812-.3879-.103421c-.1551.019392-.3038.064638-.4524.090493-.1487.025856-.3038.045247-.4525.077566s-.2973.071102-.446.109885c-.1487.038782-.2909.090493-.4395.135739-.1487.045247-.3038.064638-.446.116349-.1423.05171-.2909.096957-.4331.161595-.1422.064639-.265.155129-.4008.226229-.1357.07111-.2715.14867-.4007.22624-.1293.07756-.2457.18098-.3685.27148-.1228.09049-.2585.16159-.3813.25855s-.2198.2133-.3362.31672c-.1163.10343-.2197.20685-.3296.31673-.1099.10989-.2456.19392-.3426.31026-.0969.11635-.181.24563-.2779.36844-.097.12281-.1293.27794-.2198.40722s-.2392.20684-.3167.34258c-.0776.13574-.1552.26502-.2263.40076s-.0711.3038-.1357.446-.2068.23916-.2715.38136c-.0646.14221-.0905.29087-.1487.43954-.0581.14867-.0517.3038-.1034.45247s-.1616.27148-.2068.42014c-.0453.14867-.084.29734-.1228.44601-.0388.14866-.0841.29733-.1164.446s-.0452.3038-.0775.45247c-.0324.14866-.0453.30379-.0711.45246-.0259.14867-.0841.29734-.1099.446-.0259.14867-.0259.3038-.0453.45893-.0194.15514-.0775.29734-.0969.45247s.0194.31031 0 .46541-.0324.3038-.0453.4589-.0129.3038-.0194.4589c-.0064.1552-.084.3038-.0905.459-.0064.1551.0388.3102.0324.4654-.0065.1551-.0453.3038-.0518.4589-.0064.1551.0194.3038.0194.4654z"/><path d="m131.527 12.9085s-.052.0258-.059.0129c-.116-.0905-.194-.2392-.316-.3232-.123-.084-.265-.1357-.388-.2198-.123-.084-.252-.1551-.382-.2326-.129-.0776-.265-.1358-.394-.2004-.129-.0647-.252-.1616-.388-.2263-.135-.0646-.258-.1486-.394-.2133-.136-.0646-.278-.1034-.42-.1616-.142-.0581-.297-.0646-.433-.1163s-.265-.1487-.401-.2004-.297-.0582-.433-.1099-.271-.1228-.414-.168c-.142-.0453-.297-.0582-.433-.1034-.136-.0453-.291-.0776-.426-.1229-.136-.0452-.278-.1163-.414-.1551s-.291-.0776-.427-.1228c-.135-.0453-.291-.0776-.426-.1164-.136-.0387-.278-.1228-.414-.16155-.136-.03878-.297-.05817-.433-.09695-.136-.03879-.297-.05171-.433-.0905-.149-.03878-.278-.11635-.42-.15513-.149-.03878-.285-.09049-.427-.12927-.149-.04525-.291-.07111-.433-.10989-.149-.04525-.297-.06464-.433-.10988-.149-.05171-.259-.17453-.394-.21977-.143-.05818-.298-.06464-.427-.12282-.155-.0711-.291-.16159-.414-.25208-.135-.09696-.245-.21331-.349-.32966-.11-.12281-.226-.23916-.297-.38136s-.09-.3038-.129-.4654c-.039-.16159-.078-.31026-.078-.47185 0-.1616-.026-.31673-.013-.45893.02-.15513.052-.31026.097-.45247.045-.14867.155-.26501.239-.39429s.136-.28441.246-.38783c.103-.09696.233-.19391.375-.27148.123-.0711.297-.05817.452-.11635.136-.04524.259-.17452.414-.2133.142-.03232.297-.03232.459-.05171.149-.01939.284-.07757.375-.18099.09-.10342.142-.23916.142-.39429 0-.21977-.026-.21977-.026-.43307 0-.21331 0-.21977 0-.43308 0-.2133.084-.21977.084-.43307 0-.21331-.032-.21977-.032-.43308 0-.2133.026-.21977.026-.43307 0-.21331-.052-.21977-.052-.43308 0-.2133.052-.21977.052-.43307 0-.213308 0-.219771 0-.433077 0-.148667-.117-.271479-.22-.361973-.103-.090493-.233-.10342-.375-.090493-.142.012928-.304 0-.446.012928-.142.012927-.297.025855-.446.05171s-.297.058174-.439.08403c-.143.025855-.311-.019392-.453.012927s-.291.071102-.439.109885c-.149.038783-.285.096957-.427.13574-.142.038782-.278.122812-.42.168058-.142.045247-.31.025856-.446.077566s-.265.155129-.401.213309c-.136.05817-.278.10988-.414.17452-.135.06464-.271.13574-.4.20684-.13.0711-.265.1422-.388.21977s-.246.16806-.369.25855c-.122.09049-.252.16806-.368.25855-.116.0905-.259.1616-.369.26502-.109.10342-.187.23916-.29.34905-.104.10988-.175.24562-.272.36197s-.187.23269-.271.35551c-.084.12281-.207.22623-.285.35551-.077.12927-.084.29087-.148.42661-.065.13574-.104.27794-.162.41368s-.194.24562-.239.38783c-.045.1422 0 .31026-.033.45893-.032.14866-.084.2844-.109.43307-.026.14867-.13.27794-.149.42661s-.045.29734-.058.446c-.013.14867.045.3038.039.45247-.007.14867-.085.29734-.085.446 0 .14867.033.31027.039.45893.007.14867.065.3038.084.45247.02.14867.033.3038.065.45246.032.14867.065.3038.11.44601.045.1422.148.27148.207.41368.058.14222.103.28442.168.42662.064.1422.142.2715.213.4007.071.1293.097.2974.181.4267.084.1292.233.2068.323.3296.091.1228.155.265.252.3814.097.1163.227.2004.336.3102.11.1099.207.2198.324.3232.116.1034.174.265.297.362.116.0905.284.1099.407.1939s.239.1681.369.2521c.129.084.219.2068.349.2844.129.0776.271.1164.407.1875s.271.1098.407.1745c.136.0646.265.1293.401.1874.136.0582.271.1099.414.1681.142.0582.284.1034.426.1616s.272.1422.414.2004c.142.0581.284.1228.426.1745.143.0517.298.0776.44.1228s.291.1034.433.1487c.142.0452.297.0775.44.1228.142.0452.284.1163.426.1616.142.0452.298.0711.44.1163.142.0453.291.0905.439.1358.149.0452.278.1357.427.1745s.297.0711.446.1163c.149.0453.31.0259.452.0711.149.0453.272.1681.414.2133.149.0453.297.0841.44.1293.148.0453.316.0194.459.0647.148.0517.265.1809.4.2327.149.0517.298.084.433.1357.149.0646.311.0776.44.1422.123.0646.2.2004.304.2909.103.0905.194.1874.271.3038.078.1163.136.2327.188.3619.045.1228.11.2457.129.3879.019.1292.052.265.052.4136 0 .1552-.046.2974-.078.4396s-.058.2909-.123.4266c-.064.1357-.174.2327-.271.3555s-.155.2521-.278.3491c-.11.0904-.239.1745-.375.252-.123.0711-.259.1422-.401.2004-.129.0517-.291.0388-.446.084-.136.0388-.271.1229-.42.1552-.142.0258-.291.0129-.446.0323s-.291.1163-.388.2198c-.097.1034-.174.2521-.174.4072 0 .2198.013.2198.013.4331s.032.2197.032.433-.071.2198-.071.4331.071.2198.071.4331-.039.2198-.039.4331v.433c0 .2133.065.2198.065.4331s-.078.2198-.078.4331c0 .1422.071.2909.162.3878.09.097.245.1099.388.1034.155-.0129.31 0 .465-.0129s.297-.1034.452-.1228c.156-.0194.311-.0129.466-.0323s.304-.0647.452-.0905c.149-.0259.311-.0453.459-.0776.149-.0323.311-.0388.459-.0776.149-.0387.298-.0969.446-.1357.149-.0388.304-.084.446-.1357s.285-.1358.427-.1939c.142-.0582.284-.1164.426-.181.143-.0647.265-.1616.401-.2327s.291-.1164.42-.1939c.13-.0776.272-.1487.401-.2327.129-.0841.259-.1746.381-.2651.123-.0904.246-.1874.362-.2908.117-.1034.265-.1745.375-.278.11-.1034.227-.2133.33-.3296.103-.1164.174-.2586.271-.3814s.156-.2715.24-.3943.155-.265.232-.3943c.078-.1292.168-.2585.233-.4007s.136-.278.194-.4202.084-.2973.136-.446c.051-.1486.155-.2779.187-.4266s-.026-.3167 0-.4718c.026-.1552.078-.2974.091-.4525s.084-.3038.09-.4589c.007-.1552 0-.3103 0-.4654 0-.1552 0-.3038 0-.4525s-.032-.3038-.052-.4525c-.019-.1486-.084-.2908-.109-.4395-.026-.1487-.046-.2973-.078-.446s-.116-.2779-.162-.4202c-.045-.1422-.071-.2973-.129-.433-.058-.1358-.084-.2909-.155-.4266-.071-.1358-.194-.2327-.272-.362-.077-.1293-.122-.278-.213-.4008-.09-.1228-.187-.2327-.284-.3555s-.175-.2456-.278-.3555c-.104-.1099-.246-.1745-.362-.2779-.117-.1034-.194-.2327-.317-.3297z"/><path d="m19.9784 1.26059c-.0388-.15513-.1616-.25209-.2844-.342579-.1228-.090493-.2457-.213305-.4073-.213305-.2262 0-.2262.038783-.446.038783-.2197 0-.2262 0-.446 0-.2197 0-.2262.012927-.446.012927-.2197 0-.2262-.032319-.446-.032319-.2197 0-.2262-.025855-.446-.025855-.2197 0-.2262.012928-.4524.012928-.2263 0-.2263.045246-.4525.045246s-.2262-.045246-.4525-.045246c-.2262 0-.2262.045246-.4524.045246-.2263 0-.2263-.025855-.4525-.025855-.1616 0-.2909.090493-.4072.180987-.1164.090492-.181.213302-.2263.361972-.0581.21977-.0775.21331-.1357.43308-.0582.21976-.0452.21976-.1034.43953s-.0453.21977-.1034.43954c-.0582.21977-.097.20684-.1552.42661-.0581.21977-.0388.22624-.0905.44601-.0517.21976-.0323.22623-.084.446s-.0905.2133-.1487.43307c-.0581.21977-.0646.21977-.1228.43308-.0581.2133-.0452.21977-.0969.43954-.0517.21976-.0324.22623-.0841.446s-.1292.20037-.1874.42014-.0065.2327-.0647.45247c-.0581.21977-.0711.21331-.1292.43308-.0582.21976-.0776.2133-.1293.43307s-.0323.22623-.0905.446-.097.20684-.1551.42661c-.0582.21977-.0388.22624-.0905.446-.0517.21977-.0194.22624-.0776.44601s-.0582.21977-.1099.43954-.1099.20684-.1616.4266c-.0517.2198 0 .2327-.0581.4525-.0582.2197-.0518.2197-.1099.4395-.0582.2198-.1358.2004-.1939.4202-.0582.2197.0258.2391-.0259.4589s-.084.2133-.1422.4331c-.0582.2197-.0711.2133-.1293.433-.0581.2198-.0517.2198-.1034.4396-.0517.2197-.0323.2262-.0905.446-.0582.2197-.0517.2197-.1099.4395-.0581.2198-.1357.2004-.1939.4202-.0582.2197-.0258.2262-.084.446-.0582.2197-.084.2133-.1422.433-.0582.2198 0 .2327-.0647.4525-.0646.2198-.1098.2068-.168.4266s-.0647.2198-.1228.4396c-.0582.2197 0 .2327-.0582.4524-.05818.2198-.0259.2263-.08404.446-.05817.2198-.08403.2133-.1422.4331s-.06464.2198-.12281.4395c-.05818.2198-.04525.2263-.09696.446-.05171.2198-.12281.2004-.18099.4202-.05817.2198-.04524.2198-.10342.4395-.05817.2198-.03232.2263-.09049.446-.05817.2198-.01293.2327-.0711.4525-.05818.2198-.12928.2004-.18099.4201-.05171.2198 0 .2327-.06464.4525s-.0711.2133-.12281.4331c-.05171.2197-.05817.2197-.10988.4395-.05172.2198-.06464.2198-.12282.4396-.05817.2197-.05171.2197-.10342.4395s-.0711.2133-.12927.4331c-.05818.2197-.10343.2068-.1616.4266-.05817.2197-.01939.2327-.07757.4524-.03231.1293.02586.2521.09696.3491.0711.0969.18099.1616.31673.1616.22623 0 .22623.0517.45247.0517.22623 0 .22623-.0711.45246-.0711.22624 0 .22624-.0194.45247-.0194.22622 0 .22622.0905.45242.0905.2263 0 .2263-.097.4525-.097s.2262.013.4525.013c.2262 0 .2262.0711.4524.0711h.4525c.2262 0 .2262-.0647.4525-.0647.2262 0 .2262.0711.4524.0711.1616 0 .3168-.084.4396-.1745s.181-.2392.2198-.3943c.0581-.2198.0775-.2198.1292-.4395.0517-.2198.0647-.2198.1228-.4396.0582-.2197 0-.2391.0582-.4589s.0711-.2198.1293-.4395c.0582-.2198.0517-.2263.1099-.446.0582-.2198.1228-.2069.1745-.4266.0517-.2198-.0129-.2392.0452-.459.0582-.2197.1035-.2133.1552-.433.0517-.2198.0258-.2327.084-.4525s.0711-.2198.1228-.4395c.0517-.2198.1358-.2004.1939-.4202.0582-.2198-.0258-.2456.0324-.4654.0581-.2198.0581-.2198.1163-.446s.1164-.2068.1745-.4266c.0582-.2198.0259-.2327.0841-.4525.0581-.2197.0323-.2262.0905-.4524.0581-.2263.0646-.2198.1228-.446.0581-.2263.0517-.2198.1098-.446.0582-.2263.0518-.2263.1099-.446.0582-.2198.097-.2133.1552-.4331.0581-.2198.0775-.2198.1292-.4396.0518-.2197.0324-.2262.0905-.4524.0582-.2263.0582-.2198.1164-.446.0582-.2263.0323-.2263.0905-.4525s.0775-.2198.1357-.4395c.0582-.2198.0388-.2263.097-.4525.0581-.2262.0581-.2198.1163-.446.0388-.1422.1745-.181.2909-.181.1163 0 .2262.0453.265.1875.0582.2197.1164.2068.1745.4266.0582.2198-.0258.2456.0324.4654.0581.2197.0581.2197.1163.4395s.1293.2004.1875.4266c.0581.2263-.0324.2456.0258.4654s.084.2133.1422.4331.1099.2068.1681.4266c.0581.2198-.0065.2392.0517.4589.0582.2198.0646.2198.1163.4396.0517.2197.0517.2262.1099.446.0582.2197.0776.2133.1358.4395.0581.2262.0775.2198.1292.4396.0517.2197.0259.2326.0841.4524.0581.2198.0775.2198.1357.4396.0582.2197.0194.2327.0776.4524.0581.2198.1098.2069.168.4266.0582.2198.0517.2198.1099.446.0582.2263.0646.2198.1228.4396.0582.2197-.0064.2391.0517.4589.0582.2198.1099.2068.1681.4331.0582.2262.0194.2327.0776.4524.0581.2198.0775.2198.1357.4396.0388.1422.2715.1422.3103 0 .0581-.2198.0452-.2263.0969-.446.0517-.2198.0259-.2327.084-.4525.0582-.2198.1293-.2004.181-.4266s-.0129-.2392.0453-.4589c.0582-.2198.0905-.2133.1486-.4331.0582-.2198.0582-.2198.1164-.4395.0582-.2198-.0065-.2392.0517-.459.0582-.2197.1357-.2003.1939-.4201s.0517-.2198.1099-.446c.0582-.2263.0129-.2327.0711-.4525s.0905-.2133.1487-.4331c.0581-.2197-.013-.2391.0452-.4589s.0905-.2133.1487-.4331c.0582-.2197.0452-.2262.1034-.446.0582-.2197.0711-.2197.1293-.4395s.0905-.2133.1487-.4331c.0581-.2197.0452-.2262.1034-.446.0581-.2198.0646-.2198.1228-.4395.0582-.2198.0258-.2327.084-.4525s.0582-.2198.1164-.446c.0581-.2262.0258-.2327.084-.4525.0582-.2197.0905-.2133.1487-.433.0452-.1681.0775-.3426.0775-.5171 0-.1746-.0194-.3491-.0646-.5236-.0582-.2198-.0582-.2198-.1164-.446-.0581-.2262-.0194-.2327-.0775-.4525-.0582-.2197-.0517-.2262-.1099-.446-.0582-.21974-.097-.21328-.1487-.43305s-.0969-.2133-.1551-.43307-.0711-.21977-.1293-.43954-.0323-.22623-.0905-.45247c-.0582-.22623-.0452-.22623-.1034-.446s-.0776-.21977-.1357-.43954c-.0582-.21977.0064-.23916-.0517-.46539-.0582-.22623-.1487-.20038-.2069-.42015s-.0323-.23269-.0905-.45246-.0064-.23916-.0646-.45893-.0776-.21977-.1358-.43954c-.0581-.21977-.0517-.22624-.1098-.446-.0582-.21977-.0711-.21977-.1293-.44601-.0582-.22623-.097-.2133-.1552-.43307-.0581-.21977-.0387-.22623-.0969-.45247-.0582-.22623-.0905-.2133-.1487-.43954-.0582-.22623-.0258-.23269-.084-.45246s-.0194-.2327-.0776-.45893c-.0581-.22623-.1228-.20684-.1745-.43308-.0517-.22623-.0065-.23269-.0646-.45893z"/><path d="m85.3418.730445c-.1616 0-.2844.096957-.4072.18745-.1228.090495-.265.187455-.3038.336115-.0582.21977-.0194.22624-.0776.44601-.0582.21976-.0581.21976-.1163.43953s-.0453.21977-.1034.43954c-.0582.21977-.0841.21331-.1422.43308-.0582.21977-.0841.2133-.1423.43307-.0581.21977-.0452.21977-.1034.43954-.0581.21977-.0129.2327-.0711.45247-.0581.21976-.1034.20684-.1616.42661-.0581.21977-.0129.23269-.0711.45246-.0581.21977-.0775.21331-.1357.43308s-.0129.23269-.0711.446-.0388.22623-.097.43954c-.0581.2133-.0775.2133-.1357.43307s-.0453.21977-.1034.43954c-.0582.21977-.0453.21977-.1035.43954-.0581.21977-.0969.20684-.1551.42661s-.0323.22623-.0905.446-.0323.22624-.084.44601c-.0517.21976-.0905.2133-.1487.43307-.0581.21977-.0646.21977-.1228.43952-.0582.2198-.0452.2263-.0969.4396-.0518.2133-.0324.2262-.0841.446-.0517.2197-.1293.2003-.1874.4201-.0582.2198-.0065.2327-.0647.4525-.0581.2197-.0711.2133-.1292.433-.0582.2198-.0776.2134-.1293.4331-.0517.2198-.0323.2263-.0905.446-.0582.2198-.097.2069-.1551.4266-.0582.2198-.0388.2263-.0905.446-.0517.2198-.0194.2263-.0776.446-.0582.2198-.0582.2198-.1099.4396-.0517.2197-.1099.2068-.1616.4266s0 .2327-.0582.4525c-.0581.2197-.0517.2197-.1098.4395-.0582.2198-.1358.2004-.194.4201-.0581.2198.0259.2392-.0258.459-.0517.2197-.084.2133-.1422.433-.0582.2198-.0711.2133-.1293.4331s-.0452.2198-.1034.4396c-.0582.2197-.0323.2262-.0905.446-.0582.2197-.0517.2197-.1099.4395s-.1357.2004-.1939.4201c-.0582.2198-.0259.2263-.0776.446-.0517.2198-.084.2134-.1422.4331-.0581.2198 0 .2327-.0646.4525s-.1099.2068-.1681.4266c-.0581.2198-.0646.2198-.1163.4395-.0517.2198 0 .2327-.0582.4525s-.0258.2262-.084.446-.0841.2133-.1422.4331c-.0582.2198-.0647.2198-.1228.4395-.0582.2198-.0453.2263-.097.446-.0517.2198-.1228.2004-.181.4202-.0323.1292.0194.2908.0905.3878s.2198.1487.3555.1487c.2263 0 .2263-.0453.446-.0453.2198 0 .2263.0711.446.0711.2198 0 .2263-.0517.446-.0517.2198 0 .2263.0129.446.0129h.446c.2198 0 .2263.0065.4525.0065s.2262-.0065.4525-.0065c.2262 0 .2262.0194.4524.0194.2263 0 .2263.0453.4525.0453s.2262-.0388.4525-.0388c.1616 0 .2973-.0776.4137-.1681.1163-.0905.2133-.2133.252-.3619.0582-.2198.1099-.2069.1616-.4267.0517-.2197-.0064-.2391.0453-.4524s.0323-.2262.0905-.446.1422-.1939.2004-.4137c.0581-.2198-.0324-.2456.0193-.4654.0518-.2198.0712-.2198.1229-.4331s.1292-.2003.1874-.4201.0647-.2198.1164-.4396c.0517-.2197-.0065-.2391.0517-.4524.0581-.2133.1292-.2004.1874-.4202.0582-.2197.0323-.2262.0905-.446.0582-.2197.0194-.2262.0776-.446.0582-.2197.0775-.2133.1293-.433.0517-.2198.0646-.2198.1228-.4396.0581-.2198 0-.2327.0581-.4525.0582-.2197.0711-.2133.1229-.433.0517-.2198.0517-.2198.1098-.4396.0582-.2197.1164-.2003.1746-.4201.0581-.2198-.013-.2392.0452-.4589.0582-.2198.1034-.2069.1551-.4267.0518-.2197.0259-.2262.0776-.446.0517-.2197.0646-.2197.1228-.433s.1358-.2004.1939-.4202c.0582-.2197-.0258-.2391.0324-.4589.0581-.2198.0581-.2198.1163-.4395.0582-.2198.1164-.2069.1745-.4267.0582-.2197.0259-.2262.0841-.446.0581-.2197.0323-.2262.0904-.446.0582-.2197.0647-.2197.1164-.4395s.0517-.2198.1099-.4395c.0582-.2198.0517-.2198.1099-.4396.0581-.2197.0969-.2068.1486-.4266s.0711-.2133.1293-.4331c.0582-.21973.0323-.2262.084-.44597.0517-.21976.0582-.21976.1164-.43953s.0323-.22624.0905-.44601c.0582-.21976.0775-.2133.1357-.43307s.0388-.22623.097-.446.0582-.21977.1163-.43954c.0582-.21977.1034-.20684.1616-.42661s.0388-.22624.097-.446c.0582-.21977 0-.2327.0517-.45247s.1422-.20038.2004-.42015c.0581-.21977.0517-.21977.1099-.43954.0581-.21977-.0194-.23916.0387-.45893.0582-.21977.1422-.20037.2004-.42014s.0259-.22624.084-.446c.0582-.21977 0-.2327.0582-.45247s.1228-.20038.181-.42015.0517-.21977.1099-.43954.0646-.21977.1228-.43954c.0582-.21976.0323-.22623.0905-.446s.0388-.22623.097-.446c.0323-.12928.0323-.271479-.0453-.368436s-.2068-.148668-.3426-.148668c-.2262 0-.2262-.038782-.4524-.038782-.2263 0-.2263.05171-.4525.05171s-.2262 0-.4525 0c-.2262 0-.2262.006464-.4524.006464-.2263 0-.2263-.064638-.4525-.064638s-.2262.05171-.4525.05171c-.2262 0-.2262-.038783-.4524-.038783-.2263 0-.2263.019392-.4525.019392s-.2262-.006464-.4525-.012928c-.2262-.006464-.2262.012928-.4524.012928z"/><path d="m35.6158 12.9535c0 .1552.0517.3103.0517.459 0 .1486-.0647.3102-.0647.4654 0 .1551.0453.3102.0517.4589.0065.1486.013.3102.0259.4589s.0323.3103.0452.4589c.013.1487 0 .3103.013.459.0129.1486 0 .3102.0194.4589s.0452.3038.0646.4589c.0194.1552.0905.2974.1164.4525.0258.1551 0 .3103.0323.4654s.1034.2973.1357.446.0453.3103.0776.4525.1163.2908.1551.4395.097.2909.1422.4395c.0453.1487.0711.3038.1164.446.0452.1422.1098.2909.168.4266.0582.1358.1228.2845.181.4202s.084.2973.1487.4395c.0646.1422.1551.265.2262.4008.0711.1357.1745.2521.2521.3878.0776.1358.1357.278.2198.4072.084.1293.168.2586.2585.3814s.2004.2327.2974.349c.0969.1164.2197.2134.3296.3232.1099.1099.1616.2715.2779.3749.1164.1035.2651.1681.3814.2651.1164.0969.2327.2003.362.2844.1293.084.2456.1874.3749.265.1293.0775.2779.1357.4137.2068.1357.0711.2521.1745.3943.2392.1422.0646.2908.1034.433.1551s.2974.0711.446.1164c.1487.0452.2909.084.4396.1292.1487.0453.2844.1228.4331.1552.1486.0323.3102 0 .4654.0258.1551.0259.3038.0388.4524.0582.1422.0194.2974.0323.3943-.0582.097-.0905.0776-.2521.0776-.3943 0-.2262.0323-.2262.0323-.4524 0-.2263.0129-.2263.0129-.4525s-.0064-.2262-.0064-.4525c0-.2262-.0259-.2262-.0259-.4524 0-.2263 0-.2263 0-.4525s.084-.2262.084-.4525c0-.2262-.0323-.2262-.0323-.4524 0-.2263.0259-.2263.0259-.4525 0-.1616-.1034-.3103-.1875-.446-.084-.1357-.1616-.2909-.2909-.3878-.1163-.0905-.2197-.1875-.3296-.3038-.097-.1099-.2327-.1939-.3167-.3232-.0776-.1228-.1875-.2392-.2586-.3814-.0646-.1293-.1034-.2844-.1616-.4266-.0517-.1357-.0969-.2844-.1422-.4331-.0452-.1422-.0969-.2844-.1357-.433-.0323-.1422 0-.3038-.0323-.459-.0324-.1422-.0711-.2908-.097-.446-.0259-.1486-.0711-.2908-.097-.446-.0193-.1486-.084-.2908-.0969-.446-.0129-.1551.0388-.3038.0258-.4589-.0129-.1551-.0775-.2973-.0905-.446-.0129-.1487-.0064-.2973-.0193-.4525-.013-.1551-.0194-.2973-.0259-.4524-.0065-.1552 0-.3038-.0065-.4525-.0064-.1487-.0129-.2973-.0194-.4525-.0064-.1551.013-.3038.013-.4589s.0452-.3038.0452-.4589c0-.1552-.0388-.3038-.0388-.4525s-.0258-.3038-.0258-.4525c0-.1486.0129-.3038.0194-.4524.0064-.1487.0581-.3038.0646-.4525s-.0517-.3103-.0452-.4589c.0064-.1487 0-.3038 0-.4525s.1099-.29733.1228-.446-.0647-.31673-.0517-.45893c.0194-.15513.0452-.3038.0646-.45247.0194-.15513.1164-.29087.1422-.43953.0259-.15513.0582-.29734.084-.44601.0324-.15513 0-.31672.0324-.45893.0387-.15513.1486-.27794.1939-.41368.0452-.14867.0711-.29733.1228-.43307.0582-.14867.084-.29734.1487-.42662.0711-.1422.1615-.26501.2456-.38136.084-.12927.1874-.24562.2844-.34904.1034-.11635.181-.25856.2973-.34905.1293-.09696.2456-.19391.3297-.32319.084-.12928.1228-.27148.1228-.43307 0-.22624.0646-.22624.0646-.45247s-.0711-.22623-.0711-.45247c0-.22623.0453-.22623.0453-.45246 0-.22624-.0324-.22624-.0324-.45247s.013-.22623.013-.45246c0-.22624.084-.22624.084-.45247s-.084-.22623-.084-.45893 0-.22623 0-.458931c0-.142203-.0065-.290871-.097-.381364s-.2456-.122812-.3878-.103421c-.1551.019392-.3038.064638-.4525.090493-.1486.025856-.3038.045247-.4524.077566-.1487.032319-.2974.071102-.446.109885-.1487.038782-.2909.090493-.4396.135739-.1487.045247-.3038.064638-.446.116349-.1422.05171-.2909.096957-.4331.161595-.1422.064639-.265.155129-.4007.226229-.1358.07111-.2715.14867-.4008.22624-.1293.07756-.2456.18098-.3684.27148-.1228.09049-.2586.16159-.3814.25855s-.2197.2133-.3361.31672c-.1163.10343-.2198.20685-.3297.31673-.1098.10989-.2456.19392-.3425.31026-.097.11635-.181.24563-.278.36844-.0969.12281-.1293.27794-.2197.40722-.0905.12928-.2392.20684-.3168.34258-.0775.13574-.1551.26502-.2262.40076s-.0711.3038-.1357.446c-.0647.1422-.2069.23916-.2715.38136-.0647.14221-.0905.29087-.1487.43954s-.0517.3038-.1034.45247-.1616.27148-.2069.42014c-.0452.14867-.084.29734-.1228.44601-.0388.14866-.084.29733-.1163.446s-.0453.3038-.0776.45247c-.0323.14866-.0452.30379-.0711.45246-.0258.14867-.084.29734-.1099.446-.0258.14867-.0258.3038-.0452.45893-.0194.15514-.0776.29734-.097.45247s.0194.31031 0 .46541-.0323.3038-.0452.4589-.0129.3038-.0194.4589c-.0065.1552-.084.3038-.0905.459-.0065.1551.0388.3102.0323.4654-.0064.1551-.0452.3038-.0517.4589s.0194.3038.0194.4654z"/><path d="m46.4618.238976c-.1422-.019392-.2521.071101-.3426.161595-.0905.090493-.2133.193914-.2133.336117 0 .226233.0388.226233.0388.458932v.45893c0 .23269.0129.22623.0129.45893 0 .23269-.0323.22623-.0323.45893 0 .23269-.0259.22623-.0259.45893 0 .23269.0129.22623.0129.45893 0 .23269.0453.22623.0453.45893 0 .23269-.0453.22623-.0453.45893 0 .16159.097.31026.181.45246.0841.14221.181.27148.3103.36844.1163.09049.2585.16159.362.27794.0969.10989.2003.21977.2908.35551.0776.12281.1358.26502.2004.40722.0647.12928.1358.26502.1875.41368.0517.13574.1099.27795.1551.42662.0452.13574.0388.29733.0776.446.0323.1422.0905.28441.1228.43307.0258.14221.084.28441.1099.43954.0258.1422.0129.29734.0323.45247s.0258.29733.0452.446.0453.29733.0582.446.0517.29732.0646.44602c.013.1487-.0581.3038-.0517.4525.0065.1486.0647.2973.0711.446.0065.1486 0 .2973 0 .4524s-.0129.2974-.0064.4525c.0064.1551.0258.2973.0323.4525.0065.1551-.0388.2973-.0388.4524s.0194.3038.0194.4525.0323.3038.0323.4524c0 .1487 0 .3038-.0065.4525-.0064.1487-.0646.3038-.0646.4525 0 .1486.0453.3102.0388.4524-.0065.1423-.0129.3038-.0259.4525-.0129.1487-.1034.2973-.1163.446s.0582.3103.0452.4589c-.0194.1552-.0646.3038-.084.446-.0194.1552-.0582.3038-.084.446-.0259.1552-.0453.3038-.0711.4461-.0323.1551-.0388.3038-.0711.446-.0388.1486-.0776.2973-.1164.4395-.0452.1487-.1745.265-.2262.4007-.0582.1487-.084.2974-.1487.4267-.0711.1422-.168.2585-.2456.3749-.084.1292-.1357.2844-.2262.3878-.1035.1163-.2457.181-.362.265-.1293.097-.2586.2262-.3361.362-.0776.1357-.0841.3167-.0841.4783 0 .2262.0324.2262.0324.4525 0 .2262-.0259.2262-.0259.4524 0 .2263-.0065.2263-.0065.4525s.013.2262.013.4525c0 .2262-.0711.2262-.0711.4524 0 .2263.0129.2263.0129.4525s.0259.2262.0259.4525c0 .2262.0452.2262.0452.4524 0 .1422 0 .2909.0905.3814s.2456.0969.3878.084c.1552-.0194.3103-.0258.459-.0517.1486-.0258.3038-.0582.4524-.084.1487-.0259.3038-.0582.446-.097s.2974-.0905.4396-.1357c.1422-.0453.2973-.084.4395-.1358.1422-.0517.3038-.0711.446-.1357s.265-.1681.3943-.2392.2521-.1745.3878-.252c.1358-.0776.265-.1552.3879-.2457.1228-.0905.2779-.1422.4007-.2391.1228-.097.1939-.2457.3038-.3491s.2069-.2262.3103-.3361.2779-.1616.3749-.2779c.0969-.1164.1228-.2974.2133-.4202s.1874-.2391.2779-.362c.0905-.1228.2327-.2133.3103-.349s.1616-.265.2327-.4008c.0711-.1357.084-.3038.1487-.4395.0646-.1357.1939-.2456.2585-.3878s.097-.2909.1487-.4396c.0517-.1486.0711-.2973.1228-.446.0517-.1486.1163-.2844.1551-.433.0388-.1487.097-.2909.1358-.4396.0387-.1486.0193-.3102.0517-.4589.0323-.1487.0775-.2909.1099-.446.0323-.1551.0517-.2973.084-.4525.0323-.1551.1163-.2908.1422-.4395.0258-.1487-.0259-.3103 0-.4654.0258-.1551.084-.2973.1034-.4525.0194-.1551 0-.3038.0129-.4589.013-.1551.0388-.3038.0517-.4589.013-.1552.1035-.2974.1164-.4525s-.0711-.3103-.0646-.4654c.0064-.1551.0129-.3038.0193-.4589.0065-.1552.0647-.3038.0711-.459.0065-.1551-.0258-.3038-.0258-.4589s-.0259-.3102-.0259-.4589 0-.3103 0-.4589c0-.1487-.0129-.3103-.0194-.459-.0064-.1486-.0193-.3102-.0323-.4589-.0129-.1487.0194-.3103.0065-.4589-.0129-.1487-.0065-.3103-.0194-.459-.0129-.1486-.0582-.30376-.0776-.45243s-.0323-.3038-.0517-.45893-.0646-.3038-.0905-.45247c-.0258-.14866-.0258-.31026-.0581-.45892-.0324-.14867-.0776-.29734-.1099-.44601-.0323-.14866-.0647-.3038-.097-.446s-.0258-.31026-.0646-.45893-.097-.29087-.1422-.43954c-.0453-.14866-.1487-.27794-.2004-.42014-.0517-.14221-.0194-.32319-.0776-.45893-.0581-.13574-.1163-.28441-.1745-.42662-.0582-.1422-.1939-.25208-.2585-.38782-.0647-.13574-.0582-.31673-.1293-.45247s-.1745-.25855-.2521-.38783c-.0776-.12927-.2069-.23269-.2909-.35551-.084-.12281-.1228-.29087-.2133-.41368s-.1939-.23916-.2909-.35551c-.0969-.11635-.2003-.2327-.3038-.34258-.1034-.10988-.2327-.20038-.349-.3038-.1164-.10342-.2392-.18745-.362-.28441-.1228-.09695-.2197-.2133-.349-.30379-.1293-.0905-.265-.15514-.3943-.23917-.1293-.08402-.2456-.19391-.3814-.26501-.1357-.0711-.2973-.09049-.4395-.15513s-.278-.122814-.4202-.180989c-.1422-.058174-.2908-.096957-.433-.142203-.1423-.045247-.2715-.155131-.4202-.193914s-.3103-.025855-.4589-.058174c-.1487-.032319-.2909-.096957-.446-.122813-.1552-.025855-.3038-.025855-.459-.045246z"/><path d="m57.8765 12.9535c0 .1552.0517.3103.0517.459 0 .1486-.0646.3102-.0646.4654 0 .1551.0452.3102.0517.4589.0064.1486.0129.3102.0258.4589.013.1487.0324.3103.0453.4589.0129.1487 0 .3103.0129.459.0129.1486 0 .3102.0194.4589s.0453.3038.0646.4589c.0194.1552.0905.2974.1164.4525.0258.1551 0 .3103.0323.4654s.1034.2973.1357.446c.0324.1487.0453.3103.0776.4525s.1164.2908.1551.4395c.0388.1487.097.2909.1423.4395.0452.1487.0711.3038.1163.446s.1099.2909.1681.4266c.0581.1358.1228.2845.1809.4202.0582.1357.0841.2973.1487.4395s.1551.265.2262.4008c.0712.1357.1746.2521.2521.3878.0776.1358.1358.278.2198.4072.084.1293.1681.2586.2586.3814s.2003.2327.2973.349c.0969.1164.2198.2134.3296.3232.1099.1099.1616.2715.278.3749.1163.1035.265.1681.3814.2651.1163.0969.2327.2003.3619.2844.1293.084.2457.1874.3749.265.1293.0775.278.1357.4137.2068.1358.0711.2521.1745.3943.2392.1422.0646.2909.1034.4331.1551s.2973.0711.446.1164c.1487.0452.2909.084.4395.1292.1487.0453.2844.1228.4331.1552.1487.0323.3103 0 .4654.0258.1551.0259.3038.0388.4525.0582.1422.0194.2973.0323.3943-.0582.0969-.0905.0775-.2521.0775-.3943 0-.2262.0323-.2262.0323-.4524 0-.2263.013-.2263.013-.4525s-.0065-.2262-.0065-.4525c0-.2262-.0259-.2262-.0259-.4524 0-.2263 0-.2263 0-.4525s.0841-.2262.0841-.4525c0-.2262-.0323-.2262-.0323-.4524 0-.2263.0258-.2263.0258-.4525 0-.1616-.1034-.3103-.1874-.446-.0841-.1357-.1616-.2909-.2909-.3878-.1164-.0905-.2198-.1875-.3297-.3038-.0969-.1099-.2327-.1939-.3167-.3232-.0776-.1228-.1874-.2392-.2585-.3814-.0647-.1293-.1035-.2844-.1616-.4266-.0518-.1357-.097-.2844-.1422-.4331-.0453-.1422-.097-.2844-.1358-.433-.0323-.1422 0-.3038-.0323-.459-.0323-.1422-.0711-.2908-.097-.446-.0258-.1486-.0711-.2908-.0969-.446-.0194-.1486-.084-.2908-.097-.446-.0129-.1551.0388-.3038.0259-.4589s-.0776-.2973-.0905-.446-.0065-.2973-.0194-.4525c-.0129-.1551-.0194-.2973-.0259-.4524-.0064-.1552 0-.3038-.0064-.4525-.0065-.1487-.013-.2973-.0194-.4525-.0065-.1551.0129-.3038.0129-.4589s.0453-.3038.0453-.4589c0-.1552-.0388-.3038-.0388-.4525s-.0259-.3038-.0259-.4525c0-.1486.013-.3038.0194-.4524.0065-.1487.0582-.3038.0647-.4525.0064-.1487-.0518-.3103-.0453-.4589.0065-.1487 0-.3038 0-.4525s.1099-.29733.1228-.446-.0646-.31673-.0517-.45893c.0194-.15513.0453-.3038.0646-.45247.0194-.15513.1164-.29087.1423-.43953.0258-.15513.0581-.29734.084-.44601.0323-.15513 0-.31672.0323-.45893.0388-.15513.1487-.27794.1939-.41368.0453-.14867.0711-.29733.1228-.43307.0582-.14867.0841-.29734.1487-.42662.0711-.1422.1616-.26501.2456-.38136.084-.12927.1875-.24562.2844-.34904.1034-.11635.181-.25856.2974-.34905.1292-.09696.2456-.19391.3296-.32319s.1228-.27148.1228-.43307c0-.22624.0647-.22624.0647-.45247s-.0711-.22623-.0711-.45247c0-.22623.0452-.22623.0452-.45246 0-.22624-.0323-.22624-.0323-.45247s.0129-.22623.0129-.45246c0-.22624.084-.22624.084-.45247s-.084-.22623-.084-.45893 0-.22623 0-.458931c0-.142203-.0064-.290871-.0969-.381364s-.2457-.122812-.3879-.103421c-.1551.019392-.3038.064638-.4524.090493-.1487.025856-.3038.045247-.4525.077566s-.2973.071102-.446.109885c-.1487.038782-.2909.090493-.4395.135739-.1487.045247-.3038.064638-.446.116349-.1423.05171-.2909.096957-.4331.161595-.1422.064639-.265.155129-.4008.226229-.1357.07111-.2715.14867-.4007.22624-.1293.07756-.2457.18098-.3685.27148-.1228.09049-.2585.16159-.3813.25855s-.2198.2133-.3362.31672c-.1163.10343-.2197.20685-.3296.31673-.1099.10989-.2456.19392-.3426.31026-.0969.11635-.181.24563-.2779.36844-.097.12281-.1293.27794-.2198.40722s-.2392.20684-.3167.34258c-.0776.13574-.1552.26502-.2263.40076s-.0711.3038-.1357.446-.2068.23916-.2715.38136c-.0646.14221-.0905.29087-.1487.43954-.0581.14867-.0517.3038-.1034.45247s-.1616.27148-.2068.42014c-.0453.14867-.084.29734-.1228.44601-.0388.14866-.0841.29733-.1164.446s-.0452.3038-.0775.45247c-.0324.14866-.0453.30379-.0711.45246-.0259.14867-.0841.29734-.1099.446-.0259.14867-.0259.3038-.0453.45893-.0194.15514-.0775.29734-.0969.45247s.0194.31031 0 .46541-.0324.3038-.0453.4589-.0129.3038-.0194.4589c-.0064.1552-.084.3038-.0905.459-.0064.1551.0388.3102.0324.4654-.0065.1551-.0453.3038-.0518.4589-.0064.1551.0194.3038.0194.4654z"/><path d="m68.7293.238976c-.1422-.019392-.252.071101-.3425.161595-.0905.090493-.2133.193914-.2133.336117 0 .226233.0387.226233.0387.458932v.45893c0 .23269.013.22623.013.45893 0 .23269-.0324.22623-.0324.45893 0 .23269-.0258.22623-.0258.45893 0 .23269.0129.22623.0129.45893 0 .23269.0453.22623.0453.45893 0 .23269-.0453.22623-.0453.45893 0 .16159.097.31026.181.45246.084.14221.181.27148.3103.36844.1163.09049.2585.16159.3619.27794.097.10989.2004.21977.2909.35551.0776.12281.1358.26502.2004.40722.0646.12928.1357.26502.1874.41368.0518.13574.1099.27795.1552.42662.0452.13574.0388.29733.0775.446.0324.1422.0905.28441.1228.43307.0259.14221.0841.28441.1099.43954.0259.1422.013.29734.0324.45247.0193.15513.0258.29733.0452.446s.0452.29733.0582.446c.0129.14867.0517.29732.0646.44602s-.0582.3038-.0517.4525c.0065.1486.0646.2973.0711.446.0065.1486 0 .2973 0 .4524s-.0129.2974-.0065.4525c.0065.1551.0259.2973.0324.4525.0064.1551-.0388.2973-.0388.4524s.0194.3038.0194.4525.0323.3038.0323.4524c0 .1487 0 .3038-.0065.4525-.0064.1487-.0646.3038-.0646.4525 0 .1486.0452.3102.0388.4524-.0065.1423-.013.3038-.0259.4525s-.1034.2973-.1163.446c-.013.1487.0581.3103.0452.4589-.0194.1552-.0646.3038-.084.446-.0194.1552-.0582.3038-.084.446-.0259.1552-.0453.3038-.0712.4461-.0323.1551-.0387.3038-.071.446-.0388.1486-.0776.2973-.1164.4395-.0452.1487-.1745.265-.2262.4007-.0582.1487-.0841.2974-.1487.4267-.0711.1422-.1681.2585-.2456.3749-.0841.1292-.1358.2844-.2263.3878-.1034.1163-.2456.181-.3619.265-.1293.097-.2586.2262-.3362.362-.0775.1357-.084.3167-.084.4783 0 .2262.0323.2262.0323.4525 0 .2262-.0258.2262-.0258.4524 0 .2263-.0065.2263-.0065.4525s.013.2262.013.4525c0 .2262-.0712.2262-.0712.4524 0 .2263.013.2263.013.4525s.0258.2262.0258.4525c0 .2262.0453.2262.0453.4524 0 .1422 0 .2909.0905.3814s.2456.0969.3878.084c.1551-.0194.3103-.0258.4589-.0517.1487-.0258.3038-.0582.4525-.084.1487-.0259.3038-.0582.446-.097s.2973-.0905.4395-.1357c.1422-.0453.2974-.084.4396-.1358.1422-.0517.3038-.0711.446-.1357s.265-.1681.3943-.2392c.1292-.0711.2521-.1745.3878-.252.1357-.0776.265-.1552.3878-.2457s.278-.1422.4008-.2391c.1228-.097.1939-.2457.3038-.3491s.2068-.2262.3102-.3361c.1035-.1099.278-.1616.3749-.2779.097-.1164.1229-.2974.2134-.4202.0904-.1228.1874-.2391.2779-.362.0905-.1228.2327-.2133.3103-.349.0775-.1357.1616-.265.2327-.4008.0711-.1357.084-.3038.1486-.4395.0647-.1357.1939-.2456.2586-.3878.0646-.1422.0969-.2909.1486-.4396.0518-.1486.0711-.2973.1229-.446.0517-.1486.1163-.2844.1551-.433.0388-.1487.0969-.2909.1357-.4396.0388-.1486.0194-.3102.0517-.4589.0324-.1487.0776-.2909.1099-.446s.0517-.2973.0841-.4525c.0323-.1551.1163-.2908.1422-.4395.0258-.1487-.0259-.3103 0-.4654.0258-.1551.084-.2973.1034-.4525.0194-.1551 0-.3038.0129-.4589s.0388-.3038.0517-.4589c.0129-.1552.1034-.2974.1164-.4525.0129-.1551-.0711-.3103-.0647-.4654.0065-.1551.013-.3038.0194-.4589.0065-.1552.0647-.3038.0711-.459.0065-.1551-.0258-.3038-.0258-.4589s-.0259-.3102-.0259-.4589 0-.3103 0-.4589c0-.1487-.0129-.3103-.0194-.459-.0064-.1486-.0194-.3102-.0323-.4589s.0194-.3103.0065-.4589c-.013-.1487-.0065-.3103-.0194-.459-.013-.1486-.0582-.30376-.0776-.45243s-.0323-.3038-.0517-.45893-.0646-.3038-.0905-.45247c-.0259-.14866-.0259-.31026-.0582-.45892-.0323-.14867-.0775-.29734-.1099-.44601-.0323-.14866-.0646-.3038-.0969-.446s-.0259-.31026-.0647-.45893c-.0387-.14867-.0969-.29087-.1422-.43954-.0452-.14866-.1486-.27794-.2003-.42014-.0517-.14221-.0194-.32319-.0776-.45893s-.1163-.28441-.1745-.42662c-.0582-.1422-.1939-.25208-.2586-.38782-.0646-.13574-.0581-.31673-.1292-.45247s-.1746-.25855-.2521-.38783c-.0776-.12927-.2069-.23269-.2909-.35551-.084-.12281-.1228-.29087-.2133-.41368s-.1939-.23916-.2909-.35551c-.0969-.11635-.2004-.2327-.3038-.34258s-.2327-.20038-.349-.3038c-.1164-.10342-.2392-.18745-.362-.28441-.1228-.09695-.2198-.2133-.3491-.30379-.1292-.0905-.265-.15514-.3942-.23917-.1293-.08402-.2457-.19391-.3814-.26501s-.2973-.09049-.4395-.15513c-.1423-.06464-.278-.122814-.4202-.180989-.1422-.058174-.2909-.096957-.4331-.142203-.1422-.045247-.2715-.155131-.4201-.193914-.1487-.038783-.3103-.025855-.4589-.058174-.1487-.032319-.2909-.096957-.4461-.122813-.1551-.025855-.3038-.025855-.4589-.045246z"/><path d="m119.393 17.4718c-.013-.1487-.123-.2521-.22-.3491-.097-.0969-.214-.2198-.362-.2198-.22 0-.22.0388-.446.0388s-.22 0-.446 0-.22.013-.446.013-.22-.0324-.446-.0324-.22-.0258-.446-.0258-.22.0129-.446.0129-.226.0453-.446.0453-.226-.0453-.446-.0453-.226.0453-.446.0453-.226-.0259-.446-.0259-.226.0452-.446.0452c-.142 0-.246.0582-.336.1552-.091.0969-.155.1939-.143.3361.013.1551.039.3038.059.4525.019.1486.051.3038.077.4524.026.1487.007.3103.039.459.032.1486.084.2973.123.446.039.1486.103.2908.142.4395s.058.3038.103.446c.046.1422.091.2973.149.4331.058.1357.129.2779.194.4201s.155.265.226.4008c.071.1357.078.3102.155.4395.078.1293.207.2327.291.362s.168.2585.259.3749c.09.1163.181.2521.284.362.104.1099.226.2068.336.3167s.194.2392.311.3426c.116.1034.252.181.374.2715.123.0904.272.1486.395.2327.123.084.258.1615.394.2391s.246.1939.381.2586c.136.0646.298.0775.44.1422.142.0646.284.1099.427.168.142.0582.258.181.407.2263.148.0452.317 0 .465.0452.149.0453.285.1034.44.1422s.291.0776.446.1099.304.0452.452.0711c.149.0258.304.0194.459.0388s.304.0323.459.0452c.155.013.297.1034.453.1164.148.0064.284-.0841.381-.181.097-.097.187-.2327.187-.3749 0-.2262-.051-.2262-.051-.446s.051-.2198.051-.446c0-.2263 0-.2263 0-.446 0-.2198-.051-.2263-.051-.446 0-.2198-.033-.2263-.033-.446 0-.2198.026-.2263.026-.446 0-.2198.007-.2263.007-.446 0-.2198-.013-.2263-.013-.446 0-.1552 0-.3297-.097-.446-.097-.1164-.252-.2004-.407-.2392-.156-.0388-.317-.0646-.459-.1228-.149-.0582-.317-.084-.453-.1551s-.239-.2198-.368-.3103c-.13-.0905-.285-.1487-.401-.2586-.116-.1098-.213-.2327-.31-.3619-.097-.1293-.188-.2521-.265-.3943-.078-.1422-.143-.278-.201-.4331s-.116-.2909-.161-.446c-.046-.1551-.065-.3038-.091-.4654-.026-.1487-.039-.3103-.058-.4718z"/><path d="m127.887 8.24814c.013.14866.123.25208.219.34904.097.09696.214.21977.362.21977.22 0 .22-.03878.446-.03878h.446c.227 0 .22-.01293.446-.01293.227 0 .22.03232.446.03232.227 0 .22.02586.446.02586.227 0 .22-.01293.446-.01293.227 0 .227-.04525.446-.04525.22 0 .227.04525.446.04525.22 0 .227-.04525.446-.04525.22 0 .227.02586.446.02586.22 0 .227-.04525.446-.04525.143 0 .246-.05817.337-.15513.09-.09696.155-.19392.142-.33612-.013-.15513-.039-.3038-.058-.45247-.02-.14866-.052-.30379-.078-.45246s-.006-.31026-.039-.45893c-.032-.14867-.084-.29734-.123-.446-.038-.14867-.103-.29087-.142-.43954s-.058-.3038-.103-.446c-.045-.14221-.091-.29734-.149-.43308s-.129-.27794-.194-.42015c-.064-.1422-.155-.26501-.226-.40075s-.078-.31026-.155-.43954c-.078-.12928-.207-.2327-.291-.36197-.084-.12928-.168-.25855-.259-.3749-.09-.11635-.181-.25209-.284-.36198-.103-.10988-.226-.20684-.336-.31672-.11-.10989-.194-.23916-.31-.34258-.117-.10342-.252-.18099-.375-.27148-.123-.0905-.272-.14867-.395-.2327-.122-.08403-.258-.1616-.394-.23916-.136-.07757-.245-.19392-.381-.25855-.136-.06464-.297-.07757-.44-.142207-.142-.064638-.284-.109885-.426-.168059-.143-.058174-.259-.180986-.408-.226233-.148-.045246-.316 0-.465-.045246-.149-.045247-.284-.103421-.439-.142204-.156-.038783-.291-.077566-.446-.109885-.156-.032319-.304-.045246-.453-.071102-.149-.025855-.304-.019391-.459-.038782-.155-.019392-.304-.032319-.459-.045247s-.297-.1034208-.452-.11634838c-.149-.0064638-.285.08402938-.382.18098638s-.187.232697-.187.374901c0 .226233.052.226233.052.446006 0 .21977-.052.21977-.052.446v.446c0 .21977.052.22623.052.446s.032.22624.032.44601c0 .21976-.026.22623-.026.446s-.006.22623-.006.446.013.22623.013.446c0 .15513 0 .32966.097.446.096.11635.252.20038.407.23916.155.03879.316.06464.459.12282.148.05817.316.08403.452.15513s.239.21977.369.31026c.129.09049.284.14867.4.25855.117.10989.214.2327.311.36198.097.12927.187.25208.265.39429.077.1422.142.27794.2.43307s.116.29087.162.446c.045.15514.064.3038.09.4654.026.14867.039.31026.058.47186z"/><path d="m131.527 12.9085s-.052.0258-.059.0129c-.116-.0905-.194-.2392-.316-.3232-.123-.084-.265-.1357-.388-.2198-.123-.084-.252-.1551-.382-.2326-.129-.0776-.265-.1358-.394-.2004-.129-.0647-.252-.1616-.388-.2263-.135-.0646-.258-.1486-.394-.2133-.136-.0646-.278-.1034-.42-.1616-.142-.0581-.297-.0646-.433-.1163s-.265-.1487-.401-.2004-.297-.0582-.433-.1099-.271-.1228-.414-.168c-.142-.0453-.297-.0582-.433-.1034-.136-.0453-.291-.0776-.426-.1229-.136-.0452-.278-.1163-.414-.1551s-.291-.0776-.427-.1228c-.135-.0453-.291-.0776-.426-.1164-.136-.0387-.278-.1228-.414-.16155-.136-.03878-.297-.05817-.433-.09695-.136-.03879-.297-.05171-.433-.0905-.149-.03878-.278-.11635-.42-.15513-.149-.03878-.285-.09049-.427-.12927-.149-.04525-.291-.07111-.433-.10989-.149-.04525-.297-.06464-.433-.10988-.149-.05171-.259-.17453-.394-.21977-.143-.05818-.298-.06464-.427-.12282-.155-.0711-.291-.16159-.414-.25208-.135-.09696-.245-.21331-.349-.32966-.11-.12281-.226-.23916-.297-.38136s-.09-.3038-.129-.4654c-.039-.16159-.078-.31026-.078-.47185 0-.1616-.026-.31673-.013-.45893.02-.15513.052-.31026.097-.45247.045-.14867.155-.26501.239-.39429s.136-.28441.246-.38783c.103-.09696.233-.19391.375-.27148.123-.0711.297-.05817.452-.11635.136-.04524.259-.17452.414-.2133.142-.03232.297-.03232.459-.05171.149-.01939.284-.07757.375-.18099.09-.10342.142-.23916.142-.39429 0-.21977-.026-.21977-.026-.43307 0-.21331 0-.21977 0-.43308 0-.2133.084-.21977.084-.43307 0-.21331-.032-.21977-.032-.43308 0-.2133.026-.21977.026-.43307 0-.21331-.052-.21977-.052-.43308 0-.2133.052-.21977.052-.43307 0-.213308 0-.219771 0-.433077 0-.148667-.117-.271479-.22-.361973-.103-.090493-.233-.10342-.375-.090493-.142.012928-.304 0-.446.012928-.142.012927-.297.025855-.446.05171s-.297.058174-.439.08403c-.143.025855-.311-.019392-.453.012927s-.291.071102-.439.109885c-.149.038783-.285.096957-.427.13574-.142.038782-.278.122812-.42.168058-.142.045247-.31.025856-.446.077566s-.265.155129-.401.213309c-.136.05817-.278.10988-.414.17452-.135.06464-.271.13574-.4.20684-.13.0711-.265.1422-.388.21977s-.246.16806-.369.25855c-.122.09049-.252.16806-.368.25855-.116.0905-.259.1616-.369.26502-.109.10342-.187.23916-.29.34905-.104.10988-.175.24562-.272.36197s-.187.23269-.271.35551c-.084.12281-.207.22623-.285.35551-.077.12927-.084.29087-.148.42661-.065.13574-.104.27794-.162.41368s-.194.24562-.239.38783c-.045.1422 0 .31026-.033.45893-.032.14866-.084.2844-.109.43307-.026.14867-.13.27794-.149.42661s-.045.29734-.058.446c-.013.14867.045.3038.039.45247-.007.14867-.085.29734-.085.446 0 .14867.033.31027.039.45893.007.14867.065.3038.084.45247.02.14867.033.3038.065.45246.032.14867.065.3038.11.44601.045.1422.148.27148.207.41368.058.14222.103.28442.168.42662.064.1422.142.2715.213.4007.071.1293.097.2974.181.4267.084.1292.233.2068.323.3296.091.1228.155.265.252.3814.097.1163.227.2004.336.3102.11.1099.207.2198.324.3232.116.1034.174.265.297.362.116.0905.284.1099.407.1939s.239.1681.369.2521c.129.084.219.2068.349.2844.129.0776.271.1164.407.1875s.271.1098.407.1745c.136.0646.265.1293.401.1874.136.0582.271.1099.414.1681.142.0582.284.1034.426.1616s.272.1422.414.2004c.142.0581.284.1228.426.1745.143.0517.298.0776.44.1228s.291.1034.433.1487c.142.0452.297.0775.44.1228.142.0452.284.1163.426.1616.142.0452.298.0711.44.1163.142.0453.291.0905.439.1358.149.0452.278.1357.427.1745s.297.0711.446.1163c.149.0453.31.0259.452.0711.149.0453.272.1681.414.2133.149.0453.297.0841.44.1293.148.0453.316.0194.459.0647.148.0517.265.1809.4.2327.149.0517.298.084.433.1357.149.0646.311.0776.44.1422.123.0646.2.2004.304.2909.103.0905.194.1874.271.3038.078.1163.136.2327.188.3619.045.1228.11.2457.129.3879.019.1292.052.265.052.4136 0 .1552-.046.2974-.078.4396s-.058.2909-.123.4266c-.064.1357-.174.2327-.271.3555s-.155.2521-.278.3491c-.11.0904-.239.1745-.375.252-.123.0711-.259.1422-.401.2004-.129.0517-.291.0388-.446.084-.136.0388-.271.1229-.42.1552-.142.0258-.291.0129-.446.0323s-.291.1163-.388.2198c-.097.1034-.174.2521-.174.4072 0 .2198.013.2198.013.4331s.032.2197.032.433-.071.2198-.071.4331.071.2198.071.4331-.039.2198-.039.4331v.433c0 .2133.065.2198.065.4331s-.078.2198-.078.4331c0 .1422.071.2909.162.3878.09.097.245.1099.388.1034.155-.0129.31 0 .465-.0129s.297-.1034.452-.1228c.156-.0194.311-.0129.466-.0323s.304-.0647.452-.0905c.149-.0259.311-.0453.459-.0776.149-.0323.311-.0388.459-.0776.149-.0387.298-.0969.446-.1357.149-.0388.304-.084.446-.1357s.285-.1358.427-.1939c.142-.0582.284-.1164.426-.181.143-.0647.265-.1616.401-.2327s.291-.1164.42-.1939c.13-.0776.272-.1487.401-.2327.129-.0841.259-.1746.381-.2651.123-.0904.246-.1874.362-.2908.117-.1034.265-.1745.375-.278.11-.1034.227-.2133.33-.3296.103-.1164.174-.2586.271-.3814s.156-.2715.24-.3943.155-.265.232-.3943c.078-.1292.168-.2585.233-.4007s.136-.278.194-.4202.084-.2973.136-.446c.051-.1486.155-.2779.187-.4266s-.026-.3167 0-.4718c.026-.1552.078-.2974.091-.4525s.084-.3038.09-.4589c.007-.1552 0-.3103 0-.4654 0-.1552 0-.3038 0-.4525s-.032-.3038-.052-.4525c-.019-.1486-.084-.2908-.109-.4395-.026-.1487-.046-.2973-.078-.446s-.116-.2779-.162-.4202c-.045-.1422-.071-.2973-.129-.433-.058-.1358-.084-.2909-.155-.4266-.071-.1358-.194-.2327-.272-.362-.077-.1293-.122-.278-.213-.4008-.09-.1228-.187-.2327-.284-.3555s-.175-.2456-.278-.3555c-.104-.1099-.246-.1745-.362-.2779-.117-.1034-.194-.2327-.317-.3297z"/><path d="m21.7444 24.4909c-.0323.1292.0388.2456.1163.3425.0776.097.1681.2198.3038.2198.2263 0 .2263-.0388.4525-.0388h.4525c.2262 0 .2262-.0129.4524-.0129.2263 0 .2263.0323.4525.0323s.2262.0259.4525.0259c.2262 0 .2262-.0129.4524-.0129.2263 0 .2263-.0453.4525-.0453s.2262.0453.4525.0453c.2262 0 .2262-.0453.4524-.0453.2263 0 .2263.0259.4525.0259.1616 0 .2909-.0905.4072-.181.1164-.0905.181-.2133.2262-.362.0582-.2198.0776-.2133.1358-.4331.0582-.2197.0452-.2197.1034-.4395s.0452-.2198.1034-.4395c.0582-.2198.097-.2069.1552-.4267.0581-.2197.0323-.2262.0904-.446.0582-.2197.0324-.2262.0841-.446.0517-.2197.0905-.2133.1486-.433.0582-.2198.0647-.2198.1229-.4331.0581-.2133.0452-.2198.0969-.4396.0517-.2197.0323-.2262.084-.446.0518-.2197.1293-.2003.1875-.4201s.0065-.2327.0646-.4525c.0582-.2197.0711-.2133.1293-.433.0582-.2198.0776-.2133.1293-.4331s.0323-.2263.0905-.446c.0582-.2198.0969-.2069.1551-.4266.0582-.2198.0388-.2263.0905-.446.0517-.2198.0194-.2263.0776-.446.0581-.2198.0581-.2198.1099-.4396.0517-.2197.1098-.2068.1615-.4266.0518-.2198 0-.2327.0582-.4525.0582-.2197.0517-.2197.1099-.4395s.1357-.2004.1939-.4201c.0582-.2198-.0258-.2392.0259-.459.0517-.2197.084-.2133.1422-.433.0582-.2198.0711-.2133.1293-.4331.0581-.2198.0452-.2198.1034-.4396.0582-.2197.0323-.2262.0905-.446.0581-.2197.0517-.2197.1099-.4395.0581-.2198.1357-.2004.1939-.4201.0581-.2198.0258-.2263.0775-.446.0517-.2198.0841-.2133.1422-.4331.0582-.2198 0-.2327.0647-.4525.0646-.21975.1099-.20683.168-.4266.0582-.21976.0647-.21976.1164-.43953s0-.2327.0582-.45247c.0581-.21977.0258-.22623.0775-.446s.0841-.21331.1422-.43308c.0582-.21977.0647-.21977.1228-.43954.0582-.21976.0388-.22623.097-.446s.1228-.20038.181-.42014c.0582-.21977.0452-.21977.1034-.43954s.0323-.22624.084-.44601c.0518-.21976.013-.23269.0711-.45246.0582-.21977.1293-.20038.181-.42015s0-.2327.0647-.45247c.0646-.21976.0711-.2133.1228-.43307s.0582-.21977.1099-.43954.0646-.21977.1228-.43954c.0581-.21977.0517-.21977.1034-.43953.0517-.21977.0711-.21331.1293-.43308.0581-.21977.1034-.20684.1551-.42661s.0194-.2327.0776-.45247c.0323-.12927-.0259-.252085-.097-.349042s-.181-.161595-.3167-.161595c-.2262 0-.2262-.05171-.446-.05171s-.2263.071101-.446.071101c-.2198 0-.2263.019392-.446.019392-.2198 0-.2263-.090493-.446-.090493-.2198 0-.2263.096957-.446.096957-.2198 0-.2263-.012928-.4525-.012928s-.2262-.071102-.4525-.071102c-.2262 0-.2262 0-.4524 0-.2263 0-.2263.064638-.4525.064638s-.2262-.071102-.4525-.071102c-.1616 0-.3167.08403-.4395.174523s-.181.239161-.2198.394291c-.0581.21977-.0775.21331-.1292.43308-.0518.21976-.0647.21976-.1229.43307-.0581.21331 0 .2327-.0581.45247-.0582.21977-.0711.2133-.1228.43307-.0518.21977-.0518.21977-.1099.43954-.0582.21977-.1164.20038-.1746.42015-.0581.21977.013.23916-.0452.45893s-.1034.20684-.1551.42661-.0259.22623-.0776.446-.0646.21331-.1228.43307c-.0582.21977-.1358.20038-.1939.42015-.0582.21977.0258.23916-.0323.45893-.0582.21977-.0582.21977-.1164.43954s-.1163.20684-.1745.42661-.0259.22623-.084.446c-.0582.21977-.0324.22624-.0905.44601-.0582.21977-.0647.21976-.1164.43953s-.0517.21977-.1099.43954c-.0581.21977-.0517.21977-.1099.43954-.0581.21977-.0969.20684-.1486.42666-.0517.2197-.0711.2133-.1293.433-.0582.2198-.0323.2263-.084.446-.0517.2198-.0582.2198-.1164.4396-.0582.2197-.0323.2262-.0905.446-.0581.2197-.0775.2133-.1357.433-.0582.2198-.0388.2263-.097.446-.0581.2198-.0581.2198-.1163.4396s-.1034.2068-.1616.4266-.0388.2262-.097.446c-.0581.2198 0 .2327-.0517.4525-.0517.2197-.1422.2003-.1939.4201s-.0517.2198-.1099.4395c-.0582.2198.0194.2392-.0388.459-.0581.2197-.1422.1939-.2003.4137-.0582.2197-.0259.2262-.0841.446-.0581.2197 0 .2327-.0581.4524-.0582.2198-.1229.2004-.181.4202-.0582.2197-.0517.2197-.1099.4395s-.0647.2198-.1228.4396c-.0582.2197-.0323.2262-.0905.446-.0582.2197-.0388.2262-.097.446-.0582.2197-.0905.2133-.1486.433-.0582.2198-.0388.2263-.097.446-.0582.2198-.097.2069-.1551.4266-.0582.2198 0 .2327-.0647.4525-.0646.2198-.0582.2198-.1163.4396-.0582.2197-.0453.2197-.1034.4395-.0582.2198-.1229.2004-.181.4201-.0582.2198-.0065.2327-.0647.4525-.0581.2198-.0969.2068-.1551.4331-.0582.2262-.0388.2262-.097.446-.0581.2198-.0646.2198-.1292.4395-.0647.2198-.0453.2263-.1035.446z"/><path d="m19.9784 1.26059c-.0388-.15513-.1616-.25209-.2844-.342579-.1228-.090493-.2457-.213305-.4073-.213305-.2262 0-.2262.038783-.446.038783-.2197 0-.2262 0-.446 0-.2197 0-.2262.012927-.446.012927-.2197 0-.2262-.032319-.446-.032319-.2197 0-.2262-.025855-.446-.025855-.2197 0-.2262.012928-.4524.012928-.2263 0-.2263.045246-.4525.045246s-.2262-.045246-.4525-.045246c-.2262 0-.2262.045246-.4524.045246-.2263 0-.2263-.025855-.4525-.025855-.1616 0-.2909.090493-.4072.180987-.1164.090492-.181.213302-.2263.361972-.0581.21977-.0775.21331-.1357.43308-.0582.21976-.0452.21976-.1034.43953s-.0453.21977-.1034.43954c-.0582.21977-.097.20684-.1552.42661-.0581.21977-.0388.22624-.0905.44601-.0517.21976-.0323.22623-.084.446s-.0905.2133-.1487.43307c-.0581.21977-.0646.21977-.1228.43308-.0581.2133-.0452.21977-.0969.43954-.0517.21976-.0324.22623-.0841.446s-.1292.20037-.1874.42014-.0065.2327-.0647.45247c-.0581.21977-.0711.21331-.1292.43308-.0582.21976-.0776.2133-.1293.43307s-.0323.22623-.0905.446-.097.20684-.1551.42661c-.0582.21977-.0388.22624-.0905.446-.0517.21977-.0194.22624-.0776.44601s-.0582.21977-.1099.43954-.1099.20684-.1616.4266c-.0517.2198 0 .2327-.0581.4525-.0582.2197-.0518.2197-.1099.4395-.0582.2198-.1358.2004-.1939.4202-.0582.2197.0258.2391-.0259.4589s-.084.2133-.1422.4331c-.0582.2197-.0711.2133-.1293.433-.0581.2198-.0517.2198-.1034.4396-.0517.2197-.0323.2262-.0905.446-.0582.2197-.0517.2197-.1099.4395-.0581.2198-.1357.2004-.1939.4202-.0582.2197-.0258.2262-.084.446-.0582.2197-.084.2133-.1422.433-.0582.2198 0 .2327-.0647.4525-.0646.2198-.1098.2068-.168.4266s-.0647.2198-.1228.4396c-.0582.2197 0 .2327-.0582.4524-.05818.2198-.0259.2263-.08404.446-.05817.2198-.08403.2133-.1422.4331s-.06464.2198-.12281.4395c-.05818.2198-.04525.2263-.09696.446-.05171.2198-.12281.2004-.18099.4202-.05817.2198-.04524.2198-.10342.4395-.05817.2198-.03232.2263-.09049.446-.05817.2198-.01293.2327-.0711.4525-.05818.2198-.12928.2004-.18099.4201-.05171.2198 0 .2327-.06464.4525s-.0711.2133-.12281.4331c-.05171.2197-.05817.2197-.10988.4395-.05172.2198-.06464.2198-.12282.4396-.05817.2197-.05171.2197-.10342.4395s-.0711.2133-.12927.4331c-.05818.2197-.10343.2068-.1616.4266-.05817.2197-.01939.2327-.07757.4524-.03231.1293.02586.2521.09696.3491.0711.0969.18099.1616.31673.1616.22623 0 .22623.0517.45247.0517.22623 0 .22623-.0711.45246-.0711.22624 0 .22624-.0194.45247-.0194.22622 0 .22622.0905.45242.0905.2263 0 .2263-.097.4525-.097s.2262.013.4525.013c.2262 0 .2262.0711.4524.0711h.4525c.2262 0 .2262-.0647.4525-.0647.2262 0 .2262.0711.4524.0711.1616 0 .3168-.084.4396-.1745s.181-.2392.2198-.3943c.0581-.2198.0775-.2198.1292-.4395.0517-.2198.0647-.2198.1228-.4396.0582-.2197 0-.2391.0582-.4589s.0711-.2198.1293-.4395c.0582-.2198.0517-.2263.1099-.446.0582-.2198.1228-.2069.1745-.4266.0517-.2198-.0129-.2392.0452-.459.0582-.2197.1035-.2133.1552-.433.0517-.2198.0258-.2327.084-.4525s.0711-.2198.1228-.4395c.0517-.2198.1358-.2004.1939-.4202.0582-.2198-.0258-.2456.0324-.4654.0581-.2198.0581-.2198.1163-.446s.1164-.2068.1745-.4266c.0582-.2198.0259-.2327.0841-.4525.0581-.2197.0323-.2262.0905-.4524.0581-.2263.0646-.2198.1228-.446.0581-.2263.0517-.2198.1098-.446.0582-.2263.0518-.2263.1099-.446.0582-.2198.097-.2133.1552-.4331.0581-.2198.0775-.2198.1292-.4396.0518-.2197.0324-.2262.0905-.4524.0582-.2263.0582-.2198.1164-.446.0582-.2263.0323-.2263.0905-.4525s.0775-.2198.1357-.4395c.0582-.2198.0388-.2263.097-.4525.0581-.2262.0581-.2198.1163-.446.0388-.1422.1745-.181.2909-.181.1163 0 .2262.0453.265.1875.0582.2197.1164.2068.1745.4266.0582.2198-.0258.2456.0324.4654.0581.2197.0581.2197.1163.4395s.1293.2004.1875.4266c.0581.2263-.0324.2456.0258.4654s.084.2133.1422.4331.1099.2068.1681.4266c.0581.2198-.0065.2392.0517.4589.0582.2198.0646.2198.1163.4396.0517.2197.0517.2262.1099.446.0582.2197.0776.2133.1358.4395.0581.2262.0775.2198.1292.4396.0517.2197.0259.2326.0841.4524.0581.2198.0775.2198.1357.4396.0582.2197.0194.2327.0776.4524.0581.2198.1098.2069.168.4266.0582.2198.0517.2198.1099.446.0582.2263.0646.2198.1228.4396.0582.2197-.0064.2391.0517.4589.0582.2198.1099.2068.1681.4331.0582.2262.0194.2327.0776.4524.0581.2198.0775.2198.1357.4396.0388.1422.2715.1422.3103 0 .0581-.2198.0452-.2263.0969-.446.0517-.2198.0259-.2327.084-.4525.0582-.2198.1293-.2004.181-.4266s-.0129-.2392.0453-.4589c.0582-.2198.0905-.2133.1486-.4331.0582-.2198.0582-.2198.1164-.4395.0582-.2198-.0065-.2392.0517-.459.0582-.2197.1357-.2003.1939-.4201s.0517-.2198.1099-.446c.0582-.2263.0129-.2327.0711-.4525s.0905-.2133.1487-.4331c.0581-.2197-.013-.2391.0452-.4589s.0905-.2133.1487-.4331c.0582-.2197.0452-.2262.1034-.446.0582-.2197.0711-.2197.1293-.4395s.0905-.2133.1487-.4331c.0581-.2197.0452-.2262.1034-.446.0581-.2198.0646-.2198.1228-.4395.0582-.2198.0258-.2327.084-.4525s.0582-.2198.1164-.446c.0581-.2262.0258-.2327.084-.4525.0582-.2197.0905-.2133.1487-.433.0452-.1681.0775-.3426.0775-.5171 0-.1746-.0194-.3491-.0646-.5236-.0582-.2198-.0582-.2198-.1164-.446-.0581-.2262-.0194-.2327-.0775-.4525-.0582-.2197-.0517-.2262-.1099-.446-.0582-.21974-.097-.21328-.1487-.43305s-.0969-.2133-.1551-.43307-.0711-.21977-.1293-.43954-.0323-.22623-.0905-.45247c-.0582-.22623-.0452-.22623-.1034-.446s-.0776-.21977-.1357-.43954c-.0582-.21977.0064-.23916-.0517-.46539-.0582-.22623-.1487-.20038-.2069-.42015s-.0323-.23269-.0905-.45246-.0064-.23916-.0646-.45893-.0776-.21977-.1358-.43954c-.0581-.21977-.0517-.22624-.1098-.446-.0582-.21977-.0711-.21977-.1293-.44601-.0582-.22623-.097-.2133-.1552-.43307-.0581-.21977-.0387-.22623-.0969-.45247-.0582-.22623-.0905-.2133-.1487-.43954-.0582-.22623-.0258-.23269-.084-.45246s-.0194-.2327-.0776-.45893c-.0581-.22623-.1228-.20684-.1745-.43308-.0517-.22623-.0065-.23269-.0646-.45893z"/><path d="m6.28925 1.22202c-.03878-.15513-.1616-.25209-.28441-.342583s-.24562-.213305-.40722-.213305c-.22623 0-.22623.038783-.446.038783s-.22624 0-.44601 0-.22623.012927-.446.012927-.22623-.032319-.446-.032319-.22624-.025855-.446-.025855c-.21977 0-.22624.012928-.45247.012928s-.22624.045246-.45247.045246-.22623-.045246-.45247-.045246c-.22623 0-.22623.045246-.45246.045246-.22624 0-.22624-.025855-.45247-.025855-.135739 0-.232696.096957-.310262.193914s-.08403.200379-.045247.329649c.058175.21977.032319.22624.090494.44601.058174.21977.064638.2133.122812.43307.058173.21977.064643.21331.122813.43308s.01293.23269.0711.446c.05818.2133.07757.2133.13574.43307.05818.21977.08403.21331.14221.43308.05817.21977.02585.22623.07756.446s.04525.21977.10342.43954c.05818.21977.0711.2133.12928.43307.05817.21977.08403.21331.1422.43308.05818.21977-.01939.23916.03879.45893.05817.21977.10342.20684.16159.42661s.04525.21977.10342.43954c.05818.21977.03878.22623.09696.446.05817.21977.07756.2133.13574.43307.05817.21977.01293.2327.0711.44601.05817.2133.07757.2133.13574.43307s.09049.20684.14867.42661c.05817.21977.05817.21977.11635.43954.05817.21977 0 .2327.06464.45247.06463.2198.10988.2068.16805.4266.05818.2198.05818.2198.11635.4395.05818.2198-.01939.2392.03232.459.05171.2197.14221.1939.20038.4137.05817.2197.02586.2262.08403.446.05817.2197.03878.2262.09696.4395.05817.2133.06463.2198.12281.4331.05817.2133.08403.2133.13574.433.05171.2198.05817.2198.11635.4396.05817.2198-.01939.2391.03232.4589s.09049.2133.14866.4266c.05818.2133.02586.2263.08403.446.05818.2198.10989.2069.1616.4266.05171.2198 0 .2327.05817.4525.05818.2198.05171.2198.10989.4395.05817.2198.10988.2069.16806.4267.05817.2197.09049.2133.14867.433.05817.2198.03231.2263.08402.446.05172.2198.05172.2198.10989.4396.05817.2197.0711.2133.12928.433.05817.2198-.01293.2392.04524.459.05818.2197.0711.2133.12282.4331.05171.2197.08402.2133.1422.433.05817.2198.10342.2069.15513.4266.05171.2198-.01293.2392.04525.459.05817.2197.10988.2068.16806.4266.05817.2197.04524.2197.10342.446.05817.2262.05817.2197.11635.4395.03878.1422.21977.1422.25208 0 .05818-.2198.05171-.2262.10343-.446.05171-.2198.0711-.2198.12927-.4395.05818-.2198.10342-.2069.1616-.4331.05817-.2262.01939-.2327.07756-.4525.05818-.2197.03232-.2262.08403-.4524.05171-.2263.06464-.2198.12281-.4396.05818-.2197.10989-.2068.1616-.4266.05171-.2197-.00646-.2391.05171-.4589s.03232-.2262.09049-.446c.05818-.2198.14221-.2004.20038-.4202.05818-.2197-.03232-.2456.02586-.4654.05817-.2197.0711-.2197.12927-.4395.05818-.2198.12928-.2004.18745-.4266.05818-.2262.06464-.2198.12282-.4395.05817-.2198-.00647-.2392.05171-.459.05817-.2197.12927-.2003.18745-.4266.05817-.2262.03232-.2262.09049-.4524.05817-.2263.01939-.2327.07757-.4525.05817-.2198.07756-.2198.13574-.4396.05817-.2197.06463-.2197.12281-.4395.05817-.2198 0-.2391.05817-.4589.05818-.2198.07111-.2198.12928-.4396.04525-.168.05817-.3361.05817-.5106s.03879-.3555 0-.53c-.05817-.2198-.12927-.2069-.18745-.4266-.05817-.2198-.01292-.2327-.0711-.459-.05817-.2262-.09049-.2133-.14867-.433-.05817-.21981-.04524-.22628-.10342-.44605-.05817-.21977.02586-.24562-.03232-.46539-.05817-.21977-.1422-.20038-.20037-.42661-.05818-.22623-.05172-.22624-.10989-.446-.05817-.21977 0-.23916-.05817-.45893-.05818-.21977-.0905-.21331-.14867-.43954-.05818-.22624-.08403-.21331-.14221-.43954-.05817-.22623-.05171-.22623-.10988-.446s-.06464-.21977-.12281-.44601c-.05818-.22623-.06464-.21976-.12281-.446-.05818-.22623-.0194-.23269-.07757-.45246-.05818-.21977-.03878-.22624-.09696-.45247-.05817-.22623-.08403-.21331-.1422-.43954-.05818-.22623-.05818-.22623-.11635-.446s-.07757-.21977-.13574-.43954-.03878-.22623-.09696-.45246c-.05817-.22624-.07756-.21977-.13574-.43954-.05817-.21977-.05817-.22624-.11635-.44601-.05817-.21976-.01292-.23269-.0711-.45893-.05817-.22623-.0711-.21976-.12927-.446z"/><path d="m85.3418.730933c-.1616 0-.2844.096957-.4072.18745-.1228.090497-.265.187447-.3038.336117-.0582.21977-.0194.22623-.0776.446s-.0581.21977-.1163.43954-.0453.21977-.1034.43954c-.0582.21977-.0841.21331-.1422.43307-.0582.21977-.0841.21331-.1423.43308-.0581.21977-.0452.21977-.1034.43954-.0581.21977-.0129.23269-.0711.45246-.0581.21977-.1034.20685-.1616.42661-.0581.21977-.0129.2327-.0711.45247-.0581.21977-.0775.21331-.1357.43308-.0582.21976-.0129.23269-.0711.446-.0582.2133-.0388.22623-.097.43954-.0581.2133-.0775.2133-.1357.43307s-.0453.21977-.1034.43954c-.0582.21977-.0453.21977-.1035.43954-.0581.21977-.0969.20684-.1551.42661s-.0323.22623-.0905.446-.0323.22623-.084.446-.0905.21331-.1487.43308c-.0581.21977-.0646.21977-.1228.43953-.0582.2198-.0452.2262-.0969.4395-.0518.2134-.0324.2263-.0841.446-.0517.2198-.1293.2004-.1874.4202-.0582.2198-.0065.2327-.0647.4525-.0581.2197-.0711.2133-.1292.433-.0582.2198-.0776.2133-.1293.4331s-.0323.2262-.0905.446-.097.2069-.1551.4266c-.0582.2198-.0388.2263-.0905.446-.0517.2198-.0194.2263-.0776.446-.0582.2198-.0582.2198-.1099.4396-.0517.2197-.1099.2068-.1616.4266-.0517.2197 0 .2327-.0582.4524-.0581.2198-.0517.2198-.1098.4396-.0582.2198-.1358.2004-.194.4201-.0581.2198.0259.2392-.0258.459-.0517.2197-.084.2133-.1422.433-.0582.2198-.0711.2133-.1293.4331s-.0452.2198-.1034.4395c-.0582.2198-.0323.2263-.0905.446-.0582.2198-.0517.2198-.1099.4396s-.1357.2004-.1939.4201c-.0582.2198-.0259.2263-.0776.446-.0517.2198-.084.2133-.1422.4331-.0581.2198 0 .2327-.0646.4525-.0646.2197-.1099.2068-.1681.4266-.0581.2198-.0646.2198-.1163.4395-.0517.2198 0 .2327-.0582.4525s-.0258.2262-.084.446-.0841.2133-.1422.4331c-.0582.2197-.0647.2197-.1228.4395-.0582.2198-.0453.2262-.097.446s-.1228.2004-.181.4202c-.0323.1292.0194.2908.0905.3878.0711.0969.2198.1487.3555.1487.2263 0 .2263-.0453.446-.0453.2198 0 .2263.0711.446.0711.2198 0 .2263-.0517.446-.0517.2198 0 .2263.0129.446.0129h.446c.2198 0 .2263.0065.4525.0065s.2262-.0065.4525-.0065c.2262 0 .2262.0194.4524.0194.2263 0 .2263.0453.4525.0453s.2262-.0388.4525-.0388c.1616 0 .2973-.0776.4137-.1681.1163-.0905.2133-.2133.252-.362.0582-.2197.1099-.2068.1616-.4266.0517-.2197-.0064-.2391.0453-.4524s.0323-.2263.0905-.446c.0582-.2198.1422-.1939.2004-.4137.0581-.2198-.0324-.2456.0193-.4654.0518-.2198.0712-.2198.1229-.4331s.1292-.2004.1874-.4201c.0582-.2198.0647-.2198.1164-.4396.0517-.2197-.0065-.2391.0517-.4524.0581-.2133.1292-.2004.1874-.4202s.0323-.2262.0905-.446.0194-.2262.0776-.446.0775-.2133.1293-.4331c.0517-.2197.0646-.2197.1228-.4395.0581-.2198 0-.2327.0581-.4525.0582-.2197.0711-.2133.1229-.433.0517-.2198.0517-.2198.1098-.4396.0582-.2197.1164-.2004.1746-.4201.0581-.2198-.013-.2392.0452-.459.0582-.2197.1034-.2068.1551-.4266.0518-.2197.0259-.2262.0776-.446.0517-.2197.0646-.2197.1228-.433s.1358-.2004.1939-.4202c.0582-.2198-.0258-.2392.0324-.4589.0581-.2198.0581-.2198.1163-.4396.0582-.2197.1164-.2068.1745-.4266.0582-.2197.0259-.2262.0841-.446.0581-.2197.0323-.2262.0904-.446.0582-.2197.0647-.2197.1164-.4395s.0517-.2198.1099-.4396c.0582-.2197.0517-.2197.1099-.4395.0581-.2198.0969-.2068.1486-.4266s.0711-.2133.1293-.4331c.0582-.21974.0323-.22621.084-.44598s.0582-.21977.1164-.43954c.0582-.21976.0323-.22623.0905-.446s.0775-.2133.1357-.43307.0388-.22623.097-.446.0582-.21977.1163-.43954c.0582-.21977.1034-.20684.1616-.42661s.0388-.22624.097-.44601 0-.23269.0517-.45246.1422-.20038.2004-.42015c.0581-.21977.0517-.21977.1099-.43954.0581-.21977-.0194-.23916.0387-.45893.0582-.21977.1422-.20038.2004-.42014.0582-.21977.0259-.22624.084-.44601.0582-.21977 0-.23269.0582-.45246s.1228-.20038.181-.42015.0517-.21977.1099-.43954.0646-.21977.1228-.43954.0323-.22623.0905-.446.0388-.22623.097-.446c.0323-.12928.0323-.271481-.0453-.368438s-.2068-.148667-.3426-.148667c-.2262 0-.2262-.038783-.4524-.038783-.2263 0-.2263.05171-.4525.05171s-.2262 0-.4525 0c-.2262 0-.2262.006464-.4524.006464-.2263 0-.2263-.064638-.4525-.064638s-.2262.05171-.4525.05171c-.2262 0-.2262-.038782-.4524-.038782-.2263 0-.2263.019391-.4525.019391s-.2262-.006464-.4525-.012927c-.2262-.006464-.2262.012927-.4524.012927z"/><path d="m99.0323.691847c-.1615 0-.2844.096957-.4072.18745-.1228.090494-.265.187453-.3038.336113-.0581.21977-.0194.2327-.0775.45247-.0582.21977-.0582.21977-.1164.446-.0582.22624-.0452.22624-.1034.44601-.0582.21976-.084.2133-.1422.43307s-.084.21331-.1422.43308c-.0582.21976-.0453.22623-.1034.446-.0582.21977-.013.23269-.0711.45246-.0582.21977-.1035.20684-.1616.43308-.0582.22623-.013.23269-.0711.45246-.0582.21977-.0776.21331-.1358.43954-.0581.22624-.0194.2327-.0711.45247s-.0452.22623-.0969.446-.0841.21331-.1358.43954-.0452.22623-.1034.446-.0452.22623-.1034.446-.097.21331-.1551.43308c-.0582.21977-.0388.22623-.0905.45246-.0517.22624-.0324.22624-.0905.45247-.0582.22623-.0905.21331-.1487.43307-.0582.21977-.0646.21977-.1228.43953-.0582.2198-.0453.2262-.1034.446-.0582.2198-.0323.2262-.0905.4525-.0582.2262-.1358.2004-.1875.4266s-.0064.2327-.0646.4589c-.0582.2263-.0711.2198-.1293.4396-.0582.2197-.0776.2197-.1357.4395-.0582.2198-.0323.2262-.0905.4525-.0388.1422-.1681.1745-.2844.1745-.1164 0-.2263-.0388-.2586-.181-.0582-.2198-.0905-.2133-.1487-.4331-.0581-.2197-.0581-.2197-.1163-.4395s-.0065-.2327-.0646-.4525c-.0582-.2197-.1164-.2068-.1681-.4266s-.0646-.2198-.1164-.4395c-.0517-.2198.0194-.2392-.0387-.4654-.0582-.2263-.1422-.2004-.2004-.4202-.0582-.21974-.0259-.2262-.084-.45243-.0582-.22624-.0388-.22624-.097-.44601s-.0646-.21977-.1228-.43953c-.0582-.21977-.084-.21331-.1422-.43954-.0582-.22624-.0582-.21977-.1164-.43954-.0581-.21977.0194-.23916-.0387-.4654-.0582-.22623-.0905-.2133-.1487-.43307s-.0323-.22623-.084-.45247c-.0517-.22623-.1099-.20684-.1681-.42661s0-.23269-.0646-.45893c-.0647-.22623-.0518-.22623-.1099-.446-.0582-.21977-.1099-.20684-.1681-.43307-.0582-.22624-.0905-.21331-.1486-.43308-.0582-.21977-.0324-.22623-.0905-.45246-.0582-.22624-.0517-.22624-.1099-.44601-.0388-.1422-.2004-.13574-.2327 0-.0582.21977-.1228.20038-.181.42661-.0582.22624-.0453.22624-.1034.44601-.0582.21977-.0323.22623-.0905.446s-.013.2327-.0711.45246c-.0582.21977-.1293.20038-.181.42662-.0517.22623 0 .23269-.0647.45246-.0646.21977-.0711.21977-.1228.43954s-.0581.21977-.1163.446c-.0582.22624-.0647.21977-.1228.43954-.0582.21977-.0517.22623-.1099.446s-.0711.21977-.1293.43954-.1034.21331-.1616.43308-.0194.23269-.0776.45246c-.0581.21977-.0323.22624-.084.45247s-.0646.21977-.1228.43956c-.0582.2197-.1099.2068-.1616.4266s.0065.2391-.0517.4589-.0388.2263-.0905.4525-.1422.2004-.2004.4201c-.0581.2198.0323.2457-.0258.4654-.0582.2198-.0711.2198-.1293.4396-.0582.2197-.1293.2068-.1874.4266-.0453.168-.0711.3555-.0711.53s.0904.3426.1357.5171c.0582.2198-.0129.2392.0452.4654.0582.2262.0841.2133.1422.4395.0582.2263.0905.2133.1487.4331s.0388.2262.097.446c.0581.2198.0517.2263.1099.446.0581.2198.1163.2069.1745.4331.0581.2262.0452.2262.1034.446s.0646.2198.1228.446 0 .2392.0517.4589c.0517.2198.1293.2069.1875.4266.0581.2198.0129.2327.0711.459.0581.2262.0905.2133.1486.4395.0582.2262.0453.2262.1035.446.0581.2198-.0259.2456.0323.4654s.1422.2004.2004.4266c.0581.2263.0517.2262.1098.446.0582.2198 0 .2392.0582.4589.0582.2198.0905.2134.1487.4396s.084.2198.1422.4395c.0582.2198.0517.2263.1099.446.0581.2198.0646.2198.1228.446.0582.2263.0646.2198.1228.446.0582.2263.0194.2327.0776.459.0387.1551.1228.2973.2391.3943.1164.0969.2844.1228.4396.1228h.446c.2197 0 .2262-.0259.446-.0259.2197 0 .2262.0194.446.0194.2197 0 .2262-.0194.446-.0194h.446c.2197 0 .2262.0453.4524.0453.2263 0 .2263-.0194.4525-.0194s.2262-.0582.4525-.0582c.2262 0 .2262.084.4524.084h.4525c.1616 0 .278-.1228.3943-.2133.1164-.0905.2779-.1745.3167-.3296.0582-.2198.0259-.2263.0841-.446.0581-.2198 0-.2327.0581-.4525.0582-.2198.1228-.2004.181-.4202.0582-.2197.0517-.2197.1099-.4395s.0646-.2198.1164-.4395c.0517-.2198.0323-.2263.0904-.446.0582-.2198.0388-.2263.097-.446.0582-.2198.0905-.2133.1487-.4331.0581-.2198.0388-.2262.0969-.446.0582-.2198.097-.2069.1552-.4266.0581-.2198 0-.2327.0646-.4525s.0582-.2198.1163-.4395c.0582-.2198.0453-.2198.1035-.4396.0581-.2197.1228-.2003.181-.4201.0581-.2198.0064-.2327.0646-.4525.0582-.2197.0969-.2068.1551-.4266s.0388-.2262.097-.446.0711-.2133.1293-.4331c.0585-.2197.0455-.2262.0965-.446.052-.2197.026-.2262.078-.446.052-.2197.129-.2003.181-.4201s-.013-.2392.045-.4589c.058-.2198.091-.2134.149-.4267s.058-.2197.116-.4395-.006-.2392.052-.4589c.058-.2198.136-.2004.187-.4202.052-.2197.052-.2197.11-.4395s.013-.2327.071-.4525c.059-.2197.091-.2133.149-.4331.058-.2197-.013-.2391.045-.4589s.091-.2133.149-.4331c.058-.2197.045-.2197.103-.4395.059-.2198.071-.2133.13-.43307.058-.21977.09-.21331.148-.42661.058-.21331.046-.21977.104-.43954s.064-.21977.123-.43954c.058-.21977.025-.22623.084-.446.058-.21977.058-.21977.116-.43954s.026-.22623.084-.446.09-.21331.149-.43308c.058-.21977.064-.21977.122-.43954.059-.21976.059-.21976.117-.43953s.058-.21977.11-.43954c.051-.21977.097-.20684.155-.42661s.064-.21977.123-.43954c.058-.21977.019-.22623.077-.446s.02-.22624.078-.44601.045-.21976.103-.43953.078-.21331.136-.43308.071-.21977.123-.43954c.051-.21977.039-.22623.097-.446s.122-.20038.181-.42661c.058-.22623-.033-.24562.026-.46539.032-.12928.032-.239165-.046-.336122-.077-.096957-.181-.206841-.316-.206841-.227 0-.227.019391-.453.019391s-.226-.006464-.452-.006464c-.227 0-.227.012928-.453.012928s-.226.045247-.452.045247c-.227 0-.227-.019392-.453-.019392s-.226.032319-.452.032319-.226-.032319-.453-.032319c-.226 0-.226-.038783-.4522-.038783s-.2262.064638-.4524.064638c-.2263 0-.2263-.05171-.4525-.05171z"/><path d="m103.072 13.1988c-.046.168-.02.349-.02.5235s-.051.362 0 .5301c.058.2197.091.2133.149.433.058.2198.058.2198.116.446.058.2263.071.2198.13.4396.058.2197.032.2327.09.4524.058.2198.032.2327.091.4525.058.2198.071.2198.122.4395.052.2198.104.2133.162.4331s.013.2327.071.4589c.058.2263.103.2133.162.4331.058.2198.038.2262.097.4525.058.2262.097.2133.155.4331.058.2197.071.2197.129.4395s.032.2262.091.4525c.058.2262.064.2197.122.446.059.2262.071.2197.13.446.058.2262.013.2327.071.4589s.077.2198.135.4395c.059.2198.084.2133.143.4396.058.2262.026.2327.084.4524.058.2198.051.2263.11.446.058.2198.071.2198.129.4396.058.2197.084.2133.142.4395.058.2263-.019.2456.039.4654.039.1551.168.2586.291.3555.123.097.258.1552.413.1552.227 0 .227.0193.446.0193.22 0 .227-.0258.446-.0258.22 0 .227.0452.446.0452.22 0 .227-.0194.446-.0194.22 0 .227-.0387.446-.0387h.453c.226 0 .226.0517.452.0517.227 0 .227-.0582.453-.0582h.452c.227 0 .227.0776.453.0776.135 0 .213-.1358.291-.2327.077-.097.129-.1939.097-.3232-.059-.2198-.039-.2263-.097-.4396-.059-.2133-.065-.2197-.123-.433s-.084-.2133-.136-.4331-.058-.2198-.116-.4396c-.058-.2197.019-.2391-.033-.4589-.051-.2198-.09-.2133-.148-.4266s-.026-.2262-.084-.446-.11-.2068-.162-.4266 0-.2327-.058-.4525c-.058-.2197-.052-.2197-.11-.4395s-.11-.2069-.168-.4266c-.058-.2198-.091-.2133-.149-.4266s-.032-.2263-.084-.446c-.051-.2198-.051-.2198-.11-.4396-.058-.2197-.071-.2133-.129-.433-.058-.2198.013-.2392-.045-.4525s-.071-.2133-.123-.4331-.084-.2133-.142-.4331c-.058-.2197-.104-.2068-.155-.4266-.052-.2197.013-.2391-.046-.4589-.058-.2198-.109-.2068-.168-.4266-.058-.2198-.045-.2198-.103-.4396-.058-.2197-.058-.2197-.116-.4395-.059-.2198-.052-.2198-.104-.4395-.051-.2198-.064-.2198-.123-.4331-.058-.2133-.038-.2262-.097-.4395-.058-.2133-.012-.2327-.071-.446-.058-.2134-.097-.2069-.155-.4267-.058-.2197-.084-.2133-.142-.433-.058-.2198-.045-.2198-.103-.4396-.059-.2197-.007-.2327-.065-.4524-.058-.2198-.123-.2004-.181-.4202s-.078-.2133-.136-.4331c-.058-.21973.033-.23912-.026-.45889-.058-.21977-.148-.19391-.206-.41368-.059-.21977-.046-.21977-.104-.43954s.013-.23916-.045-.45893-.052-.21977-.11-.43954-.123-.20037-.181-.42014.013-.23916-.045-.45893-.084-.21331-.136-.43308-.09-.20684-.149-.42661c-.058-.21977-.038-.22623-.097-.446-.058-.21977-.051-.21977-.103-.43954s-.116-.20684-.175-.42661c-.058-.21977-.045-.21977-.103-.43954s-.065-.21977-.123-.43954 0-.23916-.051-.45893c-.039-.1422-.201-.12281-.24.01939-.058.21977-.103.20685-.155.43308s-.026.2327-.077.45246c-.052.21977-.065.21977-.123.43954s-.136.20038-.194.42015.026.24562-.032.46539c-.059.21977-.059.21977-.117.43954s-.116.20684-.174.42661-.026.22624-.084.45247-.033.22623-.091.446-.064.21977-.116.43954-.052.21977-.11.446c-.058.22624-.052.22624-.11.446-.058.21977-.097.21331-.149.43308-.051.21977-.077.21977-.129.43954s-.032.22623-.09.45251c-.059.2262-.059.2197-.117.4395s-.032.2262-.09.446-.078.2133-.136.4395c-.058.2263-.039.2263-.097.446-.058.2198-.058.2198-.116.446-.058.2263-.097.2133-.162.4331-.064.2198-.045.2262-.103.446z"/><g stroke="#333" stroke-miterlimit="10" stroke-width=".23"><path d="m144.043 25.0264 7.607-20.4766h3.077l7.636 20.4766h-3.02l-2.171-6.1113h-8.067l-2.186 6.1113zm5.924-8.4983h6.385l-3.164-9.03047-3.206 9.03047z"/><path d="m174.628 15.0901c-.072-1.021-.446-1.7975-1.107-2.3583-.662-.5464-1.568-.834-2.718-.834-1.352 0-2.401.4889-3.135 1.4667-.733.9778-1.107 2.3583-1.107 4.1701 0 1.8119.359 3.2211 1.064 4.1989s1.711 1.4811 3.005 1.4811c1.165 0 2.1-.302 2.804-.9059.705-.604 1.136-1.4811 1.295-2.6315h2.387c-.13 1.8262-.777 3.2498-1.927 4.2707-1.165 1.021-2.718 1.5387-4.674 1.5387-1.955 0-3.638-.7046-4.802-2.0995-1.165-1.3948-1.74-3.3217-1.74-5.7518 0-2.4302.604-4.4433 1.826-5.8525 1.208-1.4093 2.876-2.11385 5.004-2.11385 1.869 0 3.365.48895 4.501 1.46675 1.121.9778 1.725 2.3007 1.797 3.9688h-2.473z"/><path d="m183.183 21.2734c0 .6614.101 1.1072.288 1.3373.187.2157.546.3307 1.05.3307h.532c.215 0 .474-.0288.819-.0575v2.1282c-.417.0719-.791.1294-1.121.1725-.331.0432-.619.0576-.877.0576-1.18 0-1.999-.2301-2.474-.6759-.474-.4601-.704-1.2654-.704-2.4158v-9.9938h-2.229v-1.9844h2.229v-4.18451h2.502v4.15571h2.689v1.9844h-2.689v9.1455z"/><path d="m188.82 7.41136v-2.86156h2.502v2.84718h-2.502zm0 17.61504v-14.8829h2.502v14.8829z"/><path d="m199.318 25.0265-5.493-14.8829h2.689l4.156 11.9207 4.055-11.9207h2.689l-5.436 14.8829z"/><path d="m219.176 23.0422c-.776.8197-1.61 1.4236-2.487 1.8406-.878.4027-1.798.6184-2.79.6184-1.524 0-2.703-.4027-3.552-1.1935-.848-.7909-1.28-1.8838-1.28-3.293s.417-2.4158 1.266-3.1779c.848-.7621 2.114-1.2654 3.825-1.4811.431-.0431 1.021-.115 1.768-.2013 1.266-.1294 2.042-.2588 2.33-.3739.288-.115.475-.2588.575-.4314.086-.1725.144-.5752.144-1.1791 0-.7621-.273-1.3229-.834-1.7112-.561-.3739-1.395-.5752-2.516-.5752-1.122 0-2.028.2301-2.618.6903-.589.4601-.877 1.1503-.877 2.0562h-2.358v-.115c0-1.4955.532-2.689 1.582-3.5518 1.049-.8771 2.516-1.30851 4.371-1.30851 1.985 0 3.466.37391 4.4 1.12161.935.7477 1.41 1.9125 1.41 3.4943v7.4486c0 .6327.071 1.0497.215 1.2367.144.1869.388.2732.748.2732.072 0 .158 0 .273-.0144.101 0 .23-.0288.388-.0575v1.9269c-.302.0862-.575.1438-.805.1725-.23.0288-.446.0431-.647.0431-.834 0-1.452-.1725-1.869-.5464-.417-.3595-.633-.9059-.633-1.6393v-.0862zm-.244-5.5936c-.662.3594-1.812.647-3.437.8484-.575.0719-1.006.1294-1.294.1725-.906.1438-1.567.417-1.956.8053-.402.3882-.604.949-.604 1.6968 0 .7477.23 1.3085.691 1.7112.46.4026 1.121.6039 1.984.6039 1.337 0 2.444-.3451 3.307-1.021.863-.6758 1.294-1.5386 1.294-2.6027v-2.2288z"/><path d="m228.926 21.2734c0 .6614.101 1.1072.288 1.3373.187.23.547.3307 1.05.3307h.532c.201 0 .474-.0288.819-.0575v2.1282c-.417.0719-.79.1294-1.121.1725-.331.0432-.618.0576-.877.0576-1.179 0-1.999-.2301-2.474-.6759-.474-.4601-.704-1.2654-.704-2.4158v-9.9938h-2.229v-1.9844h2.229v-4.18451h2.502v4.15571h2.689v1.9844h-2.689v9.1455z"/><path d="m244.586 20.2236h2.473c-.273 1.6393-.978 2.9335-2.143 3.8825-1.164.9491-2.617 1.4236-4.371 1.4236-2.071 0-3.696-.6902-4.889-2.085-1.194-1.3949-1.798-3.2786-1.798-5.68 0-2.5452.59-4.5152 1.783-5.9532 1.194-1.4236 2.819-2.14255 4.904-2.14255s3.796.66145 4.975 1.97005c1.179 1.3229 1.755 3.1779 1.755 5.5793v.6758c0 .1438-.015.2876-.029.4314h-10.742c.029 1.5674.417 2.7753 1.165 3.6381.748.8627 1.797 1.2797 3.12 1.2797 1.021 0 1.855-.2588 2.517-.7908.661-.5177 1.093-1.2655 1.28-2.2289zm-8.125-3.9975h8.168c0-1.3949-.36-2.459-1.05-3.2211-.69-.7477-1.682-1.136-2.962-1.136s-2.2.3739-2.905 1.1073c-.704.7477-1.121 1.8262-1.251 3.2354z"/></g></g></svg>