<svg viewBox="0 0 211 26" xmlns="http://www.w3.org/2000/svg"><g fill="#fff"><path d="m35 13v.5.5s0 .3 0 .5v.5.5.5.5.5c0 .2 0 .3.1.4v.5c0 .1.1.3.1.4v.5c0 .1.1.3.2.4 0 .1 0 .3.1.4 0 .1 0 .3.1.4 0 .1.1.3.2.4 0 .1.1.3.2.4 0 .1 0 .3.1.4 0 .1.2.3.2.4s.2.3.3.4c0 .1.1.3.2.4 0 .1.2.3.3.4 0 .1.2.2.3.4 0 .1.2.2.3.3s.2.3.3.4.3.2.4.3c.1 0 .2.2.4.3.1 0 .2.2.4.3.1 0 .3.1.4.2s.3.2.4.2.3.1.4.2c.1 0 .3 0 .4.1.1 0 .3 0 .4.1.1 0 .3.1.4.2h.5.5.4s0-.3 0-.4c0-.2 0-.2 0-.5s0-.2 0-.5 0-.2 0-.5 0-.2 0-.5v-.5c0-.2 0-.2 0-.5s0-.2 0-.5 0-.2 0-.5-.1-.3-.2-.4c0-.1-.2-.3-.3-.4-.1 0-.2-.2-.3-.3s-.2-.2-.3-.3c0-.1-.2-.2-.3-.4 0-.1-.1-.3-.2-.4 0-.1 0-.3-.1-.4 0-.1-.1-.3-.1-.4s0-.3 0-.5c0-.1 0-.3 0-.4s0-.3 0-.4 0-.3-.1-.4c0-.2 0-.3 0-.5s0-.3 0-.4c0-.2 0-.3 0-.5s0-.3 0-.5 0-.3 0-.5 0-.3 0-.5 0-.3 0-.5 0-.3 0-.5 0-.3 0-.5c0-.1 0-.3 0-.5s0-.3 0-.5 0-.3 0-.5c0-.1 0-.3 0-.5 0-.1 0-.3 0-.5s.1-.3.1-.4 0-.3 0-.5 0-.3 0-.5.1-.3.1-.4c0-.2 0-.3 0-.4 0-.2 0-.3 0-.5s.1-.3.2-.4c0-.1 0-.3.1-.4 0-.1 0-.3.1-.4 0-.1.2-.3.2-.4s.2-.2.3-.4c.1-.1.2-.3.3-.4.1 0 .2-.2.3-.3 0-.1.1-.3.1-.4s0-.2 0-.5 0-.2 0-.5 0-.2 0-.5 0-.2 0-.5 0-.2 0-.5 0-.2 0-.5 0-.2 0-.5v-.5c0-.1 0-.3-.1-.4 0 0-.2-.1-.4-.1s-.3 0-.5 0c-.1 0-.3 0-.5 0-.1 0-.3 0-.4.1-.1 0-.3 0-.4.1-.1 0-.3 0-.4.1-.1 0-.3.1-.4.2-.1 0-.3.2-.4.2s-.3.1-.4.2c-.1 0-.2.2-.4.3-.1 0-.3.2-.4.3s-.2.2-.3.3-.2.2-.3.3-.2.2-.3.3-.2.2-.3.4c0 .1-.1.3-.2.4 0 .1-.2.2-.3.3 0 .1-.2.3-.2.4s0 .3-.1.4c0 .1-.2.2-.3.4 0 .1 0 .3-.1.4 0 .1 0 .3-.1.5 0 .1-.2.3-.2.4s0 .3-.1.4c0 .2 0 .3-.1.4v.5.5c0 .1 0 .3-.1.4v.5.5.5.5.5.5.5s0 .3 0 .5 0 .3 0 .5z"/><path d="m57.3 13v.5.5s0 .3 0 .5v.5.5.5.5.5c0 .2 0 .3.1.4v.5c0 .1.1.3.1.4v.5c0 .1.1.3.2.4 0 .1 0 .3.1.4 0 .1 0 .3.1.4 0 .1.1.3.2.4 0 .1.1.3.2.4 0 .1 0 .3.1.4 0 .1.2.3.2.4s.2.3.3.4c0 .1.1.3.2.4 0 .1.2.3.3.4 0 .1.2.2.3.4s.2.2.3.3.2.3.3.4.3.2.4.3c.1 0 .2.2.4.3.1 0 .2.2.4.3.1 0 .3.1.4.2.1 0 .3.2.4.2s.3.1.4.2c.1 0 .3 0 .4.1.1 0 .3 0 .4.1s.3.1.4.2h.5.5.4s0-.3 0-.4c0-.2 0-.2 0-.5s0-.2 0-.5 0-.2 0-.5 0-.2 0-.5v-.5c0-.2 0-.2 0-.5s0-.2 0-.5 0-.2 0-.5-.1-.3-.2-.4-.2-.3-.3-.4c-.1 0-.2-.2-.3-.3s-.2-.2-.3-.3c0-.1-.2-.2-.3-.4 0-.1-.1-.3-.2-.4 0-.1 0-.3-.1-.4 0-.1-.1-.3-.1-.4s0-.3 0-.5c0-.1 0-.3 0-.4s0-.3 0-.4 0-.3-.1-.4c0-.2 0-.3 0-.5s0-.3 0-.4c0-.2 0-.3 0-.5s0-.3 0-.5 0-.3 0-.5 0-.3 0-.5 0-.3 0-.5 0-.3 0-.5 0-.3 0-.5c0-.1 0-.3 0-.5s0-.3 0-.5 0-.3 0-.5c0-.1 0-.3 0-.5 0-.1 0-.3 0-.5s.1-.3.1-.4 0-.3 0-.5 0-.3 0-.5.1-.3.1-.4c0-.2 0-.3 0-.4 0-.2 0-.3 0-.5s.1-.3.2-.4c0-.1 0-.3.1-.4 0-.1 0-.3.1-.4 0-.1.2-.3.2-.4s.2-.2.3-.4c.1-.1.2-.3.3-.4.1 0 .2-.2.3-.3 0-.1.1-.3.1-.4s0-.2 0-.5 0-.2 0-.5 0-.2 0-.5 0-.2 0-.5 0-.2 0-.5 0-.2 0-.5 0-.2 0-.5v-.5c0-.1 0-.3-.1-.4 0 0-.2-.1-.4-.1s-.3 0-.5 0c-.1 0-.3 0-.5 0-.1 0-.3 0-.4.1-.1 0-.3 0-.4.1-.1 0-.3 0-.4.1-.1 0-.3.1-.4.2-.1 0-.3.2-.4.2s-.3.1-.4.2c-.1 0-.2.2-.4.3-.1 0-.3.2-.4.3-.1 0-.2.2-.3.3s-.2.2-.3.3-.2.2-.3.3-.2.2-.3.4c0 .1-.1.3-.2.4 0 .1-.2.2-.3.3 0 .1-.2.3-.2.4s0 .3-.1.4c0 .1-.2.2-.3.4 0 .1 0 .3-.1.4 0 .1 0 .3-.1.5 0 .1-.2.3-.2.4s0 .3-.1.4c0 .2 0 .3-.1.4v.5.5c0 .1 0 .3-.1.4v.5.5.5.5.5.5.5.5s0 .3 0 .5z"/><path d="m131.1 12.9s0 0 0 0c-.1 0-.2-.2-.3-.3-.1 0-.3-.1-.4-.2-.1 0-.3-.2-.4-.2s-.3-.1-.4-.2c-.1 0-.3-.2-.4-.2s-.3-.1-.4-.2c-.1 0-.3-.1-.4-.2-.1 0-.3 0-.4-.1-.1 0-.3-.1-.4-.2-.1 0-.3 0-.4-.1-.1 0-.3-.1-.4-.2-.1 0-.3 0-.4-.1-.1 0-.3 0-.4-.1-.1 0-.3-.1-.4-.2-.1 0-.3 0-.4-.1-.1 0-.3 0-.4-.1-.1 0-.3-.1-.4-.2-.1 0-.3 0-.4-.1-.1 0-.3 0-.4 0-.2 0-.3-.1-.4-.2-.1 0-.3 0-.4-.1-.1 0-.3 0-.4-.1-.1 0-.3 0-.4-.1-.1 0-.3-.2-.4-.2s-.3 0-.4-.1c-.2 0-.3-.2-.4-.3-.1 0-.2-.2-.4-.3-.1-.1-.2-.2-.3-.4 0-.1 0-.3-.1-.5 0-.2 0-.3 0-.5s0-.3 0-.5 0-.3 0-.5c0-.1.2-.3.2-.4s.1-.3.3-.4c.1 0 .2-.2.4-.3.1 0 .3 0 .5-.1.1 0 .3-.2.4-.2h.5c.1 0 .3 0 .4-.2 0-.1.1-.2.1-.4s0-.2 0-.4v-.4c0-.2 0-.2 0-.4s0-.2 0-.4 0-.2 0-.4 0-.2 0-.4 0-.2 0-.4 0-.2 0-.4-.1-.3-.2-.4c-.1 0-.2-.1-.4 0-.1 0-.3 0-.4 0s-.3 0-.4 0-.3 0-.4 0-.3 0-.5 0c-.1 0-.3 0-.4.1-.1 0-.3.1-.4.1s-.3.1-.4.2c-.1 0-.3 0-.4 0s-.3.2-.4.2-.3.1-.4.2c-.1 0-.3.1-.4.2-.1 0-.3.1-.4.2-.1 0-.3.2-.4.3-.1 0-.3.2-.4.3-.1 0-.3.2-.4.3s-.2.2-.3.4c0 .1-.2.2-.3.4 0 .1-.2.2-.3.4 0 .1-.2.2-.3.4 0 .1 0 .3-.1.4 0 .1-.1.3-.2.4 0 .1-.2.2-.2.4v.5c0 .1 0 .3-.1.4 0 .1-.1.3-.1.4v.4.5.4s0 .3 0 .5v.5.5c0 .1 0 .3.1.4 0 .1.1.3.2.4 0 .1.1.3.2.4 0 .1.1.3.2.4 0 .1.1.3.2.4 0 .1.2.2.3.3 0 .1.2.3.3.4s.2.2.3.3.2.2.3.3.2.3.3.4c.1 0 .3.1.4.2.1 0 .2.2.4.3.1 0 .2.2.4.3.1 0 .3.1.4.2.1 0 .3.1.4.2.1 0 .3.1.4.2.1 0 .3.1.4.2.1 0 .3.1.4.2.1 0 .3.1.4.2.1 0 .3.1.4.2.1 0 .3 0 .4.1.1 0 .3.1.4.1s.3 0 .4.1c.1 0 .3.1.4.2.1 0 .3 0 .4.1.1 0 .3 0 .4.1.1 0 .3.1.4.2.1 0 .3 0 .4.1h.5c.1 0 .3.2.4.2s.3 0 .4.1h.5c.1 0 .3.2.4.2s.3 0 .4.1c.1 0 .3 0 .4.1.1 0 .2.2.3.3.1 0 .2.2.3.3 0 .1.1.2.2.4 0 .1.1.3.1.4v.4s0 .3 0 .4 0 .3-.1.4c0 .1-.2.2-.3.4 0 .1-.2.3-.3.4-.1 0-.2.2-.4.3-.1 0-.3.1-.4.2-.1 0-.3 0-.4 0s-.3.1-.4.2c-.1 0-.3 0-.4 0-.2 0-.3.1-.4.2 0 .1-.2.3-.2.4s0 .2 0 .4 0 .2 0 .4 0 .2 0 .4 0 .2 0 .4 0 .2 0 .4v.4.4s0 .2 0 .4 0 .3.2.4c0 0 .2.1.4.1h.5c.1 0 .3-.1.5-.1h.5.5.5.5c.1 0 .3 0 .4-.1.1 0 .3 0 .4-.1.1 0 .3-.1.4-.2.1 0 .3-.1.4-.2.1 0 .3-.2.4-.2s.3-.1.4-.2c.1 0 .3-.1.4-.2.1 0 .3-.2.4-.3.1 0 .2-.2.4-.3.1-.1.3-.2.4-.3s.2-.2.3-.3.2-.3.3-.4c0-.1.2-.3.2-.4s.2-.3.2-.4.2-.3.2-.4.1-.3.2-.4c0-.1 0-.3.1-.4 0-.1.2-.3.2-.4s0-.3 0-.5 0-.3 0-.5 0-.3 0-.5 0-.3 0-.5 0-.3 0-.5 0-.3 0-.5c0-.1 0-.3-.1-.4 0-.1 0-.3 0-.4s-.1-.3-.2-.4c0-.1 0-.3-.1-.4 0-.1 0-.3-.2-.4 0-.1-.2-.2-.3-.4 0-.1-.1-.3-.2-.4 0-.1-.2-.2-.3-.4-.1-.1-.2-.2-.3-.4-.1-.1-.3-.2-.4-.3s-.2-.2-.3-.3z"/><path d="m19.3 1.2c0-.2-.2-.3-.3-.3s-.2-.2-.4-.2-.2 0-.4 0h-.4c-.2 0-.2 0-.4 0s-.2 0-.4 0-.2 0-.4 0-.2 0-.4 0-.2 0-.4 0-.2 0-.5 0-.2 0-.5 0-.2 0-.5 0-.3 0-.4.2-.2.2-.2.4 0 .2-.1.4c0 .2 0 .2-.1.4 0 .2 0 .2-.1.4 0 .2-.1.2-.2.4v.4.4c0 .2 0 .2-.1.4s0 .2-.1.4c0 .2 0 .2-.1.4v.4s-.1.2-.2.4 0 .2 0 .5c0 .2 0 .2-.1.4 0 .2 0 .2-.1.4v.4c0 .2-.1.2-.2.4v.4.4q0 .2-.1.4c0 .2-.1.2-.2.4v.5c0 .2 0 .2-.1.4 0 .2-.1.2-.2.4v.5c0 .2 0 .2-.1.4 0 .2 0 .2-.1.4 0 .2 0 .2-.1.4v.4c0 .2 0 .2-.1.4 0 .2-.1.2-.2.4v.4c0 .2 0 .2-.1.4v.5c0 .2-.1.2-.2.4 0 .2 0 .2-.1.4v.5.4c0 .2 0 .2-.1.4 0 .2 0 .2-.1.4 0 .2 0 .2-.1.4 0 .2-.1.2-.2.4 0 .2 0 .2-.1.4v.4.5c0 .2-.1.2-.2.4v.5c0 .2 0 .2-.1.4 0 .2 0 .2-.1.4 0 .2 0 .2-.1.4 0 .2 0 .2-.1.4 0 .2 0 .2-.1.4 0 .2-.1.2-.2.4v.5.4s.2.2.3.2h.5s.2 0 .5 0 .2 0 .5 0 .2 0 .5 0 .2 0 .5 0 .2 0 .5 0 .2 0 .5 0h.5.5s.2 0 .5 0 .3 0 .4-.2c.1 0 .2-.2.2-.4s0-.2.1-.4c0-.2 0-.2.1-.4 0-.2 0-.2 0-.5 0-.2 0-.2.1-.4 0-.2 0-.2.1-.4 0-.2.1-.2.2-.4 0-.2 0-.2 0-.5 0-.2.1-.2.2-.4 0-.2 0-.2 0-.5 0-.2 0-.2.1-.4 0-.2.1-.2.2-.4s0-.2 0-.5c0-.2 0-.2.1-.4 0-.2.1-.2.2-.4 0-.2 0-.2 0-.5 0-.2 0-.2 0-.5 0-.2 0-.2.1-.4 0-.2 0-.2.1-.4 0-.2 0-.2.1-.4 0-.2 0-.2.2-.4 0-.2 0-.2.1-.4s0-.2 0-.5 0-.2.1-.4 0-.2 0-.5c0-.2 0-.2.1-.4s0-.2 0-.5c0-.2 0-.2.1-.4 0-.1.2-.2.3-.2s.2 0 .3.2c0 .2.1.2.2.4v.5c0 .2 0 .2.1.4 0 .2.1.2.2.4v.5c0 .2 0 .2.1.4 0 .2.1.2.2.4v.5c0 .2 0 .2.1.4 0 .2 0 .2.1.4 0 .2 0 .2.1.4 0 .2 0 .2.1.4v.5c0 .2 0 .2.1.4v.5c0 .2.1.2.2.4 0 .2 0 .2.1.4 0 .2 0 .2.1.4v.5c0 .2.1.2.2.4v.5c0 .2 0 .2.1.4 0 .1.3.1.3 0 0-.2 0-.2.1-.4 0-.2 0-.2 0-.5 0-.2.1-.2.2-.4 0-.2 0-.2 0-.5s0-.2.1-.4c0-.2 0-.2.1-.4s0-.2 0-.5c0-.2.1-.2.2-.4 0-.2 0-.2.1-.4 0-.2 0-.2 0-.5 0-.2 0-.2.1-.4s0-.2 0-.5c0-.2 0-.2.1-.4 0-.2 0-.2.1-.4 0-.2 0-.2.1-.4 0-.2 0-.2.1-.4 0-.2 0-.2.1-.4 0-.2 0-.2.1-.4 0-.2 0-.2 0-.5q0-.2.1-.4c0-.2 0-.2 0-.5 0-.2 0-.2.1-.4 0-.2 0-.3 0-.5s0-.4 0-.5q0-.2-.1-.4c0-.2 0-.2 0-.5 0-.2 0-.2-.1-.4 0-.2 0-.2-.1-.4 0-.2 0-.2-.2-.4 0-.2 0-.2-.1-.4 0-.2 0-.2 0-.5 0-.2 0-.2-.1-.4 0-.2 0-.2-.1-.4 0-.2 0-.2 0-.5 0-.2-.1-.2-.2-.4 0-.2 0-.2 0-.5 0-.2 0-.2 0-.5 0-.2 0-.2-.1-.4 0-.2 0-.2-.1-.4 0-.2 0-.2-.1-.4 0-.2-.1-.2-.2-.4 0-.2 0-.2-.1-.5 0-.2 0-.2-.1-.4 0-.2 0-.2 0-.5 0-.2 0-.2 0-.5 0-.2-.1-.2-.2-.4 0-.2 0-.2 0-.5z"/><path d="m84.8.7c-.2 0-.3 0-.4.2-.1 0-.3.2-.3.3v.4q0 .2-.1.4c0 .2 0 .2-.1.4 0 .2 0 .2-.1.4 0 .2 0 .2-.1.4s0 .2-.1.4v.5c0 .2-.1.2-.2.4s0 .2 0 .5c0 .2 0 .2-.1.4v.4c0 .2 0 .2-.1.4s0 .2-.1.4c0 .2 0 .2-.1.4 0 .2 0 .2-.1.4 0 .2-.1.2-.2.4v.4.4c0 .2 0 .2-.1.4 0 .2 0 .2-.1.4 0 .2 0 .2-.1.4v.4c0 .2-.1.2-.2.4s0 .2 0 .5c0 .2 0 .2-.1.4 0 .2 0 .2-.1.4v.4c0 .2 0 .2-.2.4v.4.4q0 .2-.1.4c0 .2-.1.2-.2.4v.5c0 .2 0 .2-.1.4 0 .2-.1.2-.2.4v.5c0 .2 0 .2-.1.4 0 .2 0 .2-.1.4 0 .2 0 .2-.1.4s0 .2 0 .4 0 .2-.1.4c0 .2-.1.2-.2.4v.4c0 .2 0 .2-.1.4v.5c0 .2-.1.2-.2.4 0 .2 0 .2-.1.4v.5.4c0 .2 0 .2-.1.4 0 .2 0 .2-.1.4 0 .2 0 .2-.1.4 0 .2-.1.2-.2.4v.4c0 .1.2.1.4.1h.4s.2 0 .4 0 .2 0 .4 0 .2 0 .4 0h.4.4s.2 0 .4 0 .2 0 .5 0 .2 0 .5 0 .2 0 .5 0 .3 0 .4-.2c.1 0 .2-.2.3-.4 0-.2.1-.2.2-.4 0-.2 0-.2 0-.5 0-.2 0-.2 0-.4s.1-.2.2-.4c0-.2 0-.2 0-.5 0-.2 0-.2.1-.4 0-.2.1-.2.2-.4 0-.2 0-.2.1-.4 0-.2 0-.2 0-.5 0-.2.1-.2.2-.4 0-.2 0-.2 0-.4s0-.2 0-.4 0-.2.1-.4c0-.2 0-.2.1-.4 0-.2 0-.2 0-.5 0-.2 0-.2.1-.4 0-.2 0-.2.1-.4 0-.2.1-.2.2-.4 0-.2 0-.2 0-.5 0-.2.1-.2.2-.4 0-.2 0-.2 0-.4s0-.2.1-.4c0-.2.1-.2.2-.4 0-.2 0-.2 0-.5 0-.2 0-.2.1-.4 0-.2.1-.2.2-.4 0-.2 0-.2 0-.4s0-.2 0-.4q0-.2.1-.4c0-.2 0-.2.1-.4 0-.2 0-.2.1-.4 0-.2 0-.2.1-.4 0-.2 0-.2.1-.4 0-.2 0-.2 0-.4q0-.2.1-.4c0-.2 0-.2 0-.4s0-.2.1-.4c0-.2 0-.2 0-.4q0-.2.1-.4c0-.2.1-.2.2-.4 0-.2 0-.2.1-.4 0-.2 0-.2 0-.5 0-.2.1-.2.2-.4q0-.2.1-.4c0-.2 0-.2 0-.5 0-.2.1-.2.2-.4 0-.2 0-.2 0-.4s0-.2 0-.5.1-.2.2-.4q0-.2.1-.4c0-.2 0-.2.1-.4 0-.2 0-.2 0-.4s0-.2 0-.4c0-.1 0-.3 0-.4s-.2-.1-.3-.1c-.2 0-.2 0-.5 0s-.2 0-.5 0h-.5c-.2 0-.2 0-.5 0s-.2 0-.5 0-.2 0-.5 0-.2 0-.5 0-.2 0-.5 0-.2 0-.5 0-.2 0-.5 0z"/><path d="m45.8.2c-.1 0-.3 0-.3.2 0 0-.2.2-.2.3v.5.5.5s0 .2 0 .5 0 .2 0 .5 0 .2 0 .5 0 .2 0 .5 0 .2 0 .5 0 .3.2.5c0 .1.2.3.3.4.1 0 .3.2.4.3 0 .1.2.2.3.4 0 .1.1.3.2.4 0 .1.1.3.2.4 0 .1.1.3.2.4v.4c0 .1 0 .3.1.4 0 .1 0 .3.1.4v.5.4.4.4.5.4.5s0 .3 0 .5 0 .3 0 .5 0 .3 0 .5 0 .3 0 .5v.5.5.5.5.5c0 .1-.1.3-.1.4v.5.4.4.4.4c0 .1 0 .3-.1.4 0 .1-.2.3-.2.4s0 .3-.1.4c0 .1-.2.3-.2.4s-.1.3-.2.4-.3.2-.4.3-.3.2-.3.4v.5s0 .2 0 .5 0 .2 0 .5 0 .2 0 .5 0 .2 0 .5 0 .2 0 .5 0 .2 0 .5 0 .2 0 .5 0 .2 0 .5 0 .3 0 .4c0 0 .2.1.4 0h.5.5c.1 0 .3 0 .4-.1.1 0 .3 0 .4-.1.1 0 .3 0 .4-.1.1 0 .3 0 .4-.1.1 0 .3-.2.4-.2s.3-.2.4-.3c.1 0 .3-.2.4-.2s.3-.1.4-.2c.1 0 .2-.3.3-.4s.2-.2.3-.3.3-.2.4-.3.1-.3.2-.4c0-.1.2-.2.3-.4 0-.1.2-.2.3-.3 0-.1.2-.3.2-.4s0-.3.1-.4c0-.1.2-.2.3-.4 0-.1 0-.3.1-.4 0-.1 0-.3.1-.4 0-.1.1-.3.2-.4 0-.1 0-.3.1-.4 0-.1 0-.3 0-.5 0-.1 0-.3.1-.4 0-.2 0-.3 0-.5s.1-.3.1-.4 0-.3 0-.5 0-.3.1-.5c0-.2 0-.3 0-.5s0-.3 0-.5.1-.3.1-.5 0-.3 0-.5 0-.3 0-.5 0-.3 0-.5 0-.3 0-.5 0-.3 0-.5c0-.1 0-.3 0-.5s0-.3 0-.5c0-.1 0-.3 0-.5 0-.1 0-.3 0-.5s0-.3 0-.5c0-.1 0-.3 0-.5 0-.1 0-.3 0-.5 0-.1 0-.3 0-.5 0-.1 0-.3 0-.5 0-.1 0-.3-.1-.4 0-.1 0-.3-.1-.4 0-.1 0-.3 0-.5 0-.1-.1-.3-.1-.4s-.1-.3-.2-.4c0-.1 0-.3 0-.5 0-.1-.1-.3-.2-.4 0-.1-.2-.3-.3-.4 0-.1 0-.3-.1-.5 0-.1-.2-.3-.3-.4 0-.1-.2-.2-.3-.4 0-.1-.1-.3-.2-.4 0-.1-.2-.2-.3-.4 0-.1-.2-.2-.3-.3s-.2-.2-.3-.3-.2-.2-.4-.3-.2-.2-.3-.3c-.1 0-.3-.2-.4-.2s-.2-.2-.4-.3c-.1 0-.3 0-.4-.2-.1 0-.3-.1-.4-.2-.1 0-.3 0-.4-.1-.1 0-.3-.2-.4-.2s-.3 0-.5 0c-.1 0-.3-.1-.4-.1-.2 0-.3 0-.5 0z"/><path d="m68.2.2c-.1 0-.3 0-.3.2 0 0-.2.2-.2.3v.5.5.5s0 .2 0 .5 0 .2 0 .5 0 .2 0 .5 0 .2 0 .5 0 .2 0 .5 0 .3.2.5c0 .1.2.3.3.4.1 0 .3.2.4.3 0 .1.2.2.3.4 0 .1.1.3.2.4 0 .1.1.3.2.4 0 .1.1.3.2.4v.4c0 .1 0 .3.1.4 0 .1 0 .3.1.4v.5.4.4.4.5.4.5s0 .3 0 .5v.5s0 .3 0 .5 0 .3 0 .5v.5.5.5.5.5c0 .1-.1.3-.1.4s0 .3 0 .5v.4.4.4.4c0 .1 0 .3-.1.4 0 .1-.2.3-.2.4s0 .3-.1.4c0 .1-.2.3-.2.4s-.1.3-.2.4-.3.2-.4.3-.3.2-.3.4v.5s0 .2 0 .5 0 .2 0 .5 0 .2 0 .5 0 .2 0 .5 0 .2 0 .5 0 .2 0 .5 0 .2 0 .5 0 .2 0 .5 0 .3 0 .4.2.1.4 0h.5.5c.1 0 .3 0 .4-.1.1 0 .3 0 .4-.1.1 0 .3 0 .4-.1.1 0 .3 0 .4-.1.1 0 .3-.2.4-.2s.3-.2.4-.3c.1 0 .3-.2.4-.2s.3-.1.4-.2c.1 0 .2-.3.3-.4s.2-.2.3-.3.3-.2.4-.3.1-.3.2-.4c0-.1.2-.2.3-.4 0-.1.2-.2.3-.3 0-.1.2-.3.2-.4s0-.3.1-.4c0-.1.2-.2.3-.4 0-.1 0-.3.1-.4 0-.1 0-.3.1-.4 0-.1.1-.3.2-.4 0-.1 0-.3.1-.4s0-.3 0-.5c0-.1 0-.3.1-.4 0-.2 0-.3 0-.5s.1-.3.1-.4 0-.3 0-.5 0-.3.1-.5c0-.2 0-.3 0-.5s0-.3 0-.5.1-.3.1-.5 0-.3 0-.5 0-.3 0-.5 0-.3 0-.5 0-.3 0-.5 0-.3 0-.5c0-.1 0-.3 0-.5s0-.3 0-.5c0-.1 0-.3 0-.5 0-.1 0-.3 0-.5s0-.3 0-.5c0-.1 0-.3 0-.5s0-.3 0-.5c0-.1 0-.3 0-.5 0-.1 0-.3 0-.5 0-.1 0-.3-.1-.4 0-.1 0-.3-.1-.4 0-.1 0-.3 0-.5 0-.1-.1-.3-.1-.4s-.1-.3-.2-.4c0-.1 0-.3 0-.5 0-.1-.1-.3-.2-.4 0-.1-.2-.3-.3-.4 0-.1 0-.3-.1-.5 0-.1-.2-.3-.3-.4 0-.1-.2-.2-.3-.4 0-.1-.1-.3-.2-.4 0-.1-.2-.2-.3-.4 0-.1-.2-.2-.3-.3s-.2-.2-.3-.3-.2-.2-.4-.3c-.1 0-.2-.2-.3-.3-.1 0-.3-.2-.4-.2s-.2-.2-.4-.3c-.1 0-.3 0-.4-.2-.1 0-.3-.1-.4-.2-.1 0-.3 0-.4-.1-.1 0-.3-.2-.4-.2s-.3 0-.5 0-.3-.1-.4-.1c-.2 0-.3 0-.5 0z"/><path d="m118.9 17.5c0-.1-.1-.3-.2-.4-.1 0-.2-.2-.4-.2s-.2 0-.4 0h-.4c-.2 0-.2 0-.4 0s-.2 0-.4 0-.2 0-.4 0-.2 0-.4 0-.2 0-.4 0-.2 0-.4 0-.2 0-.4 0-.2 0-.4 0-.2 0-.4 0-.2 0-.3.2c0 0-.2.2-.1.3v.5.5.5c0 .1 0 .3.1.4 0 .1.1.3.1.4s0 .3.1.4c0 .1 0 .3.1.4s.1.3.2.4c0 .1.2.3.2.4s0 .3.2.4c0 .1.2.2.3.4 0 .1.2.3.3.4 0 .1.2.3.3.4s.2.2.3.3.2.2.3.3c.1 0 .3.2.4.3.1 0 .3.1.4.2.1 0 .3.2.4.2s.2.2.4.3c.1 0 .3 0 .4.1.1 0 .3.1.4.2.2 0 .3.2.4.2h.5s.3.1.4.1.3 0 .4.1h.5.5.5c.2 0 .3.1.5.1.1 0 .3 0 .4-.2 0 0 .2-.2.2-.4s0-.2 0-.4 0-.2 0-.4 0-.2 0-.4 0-.2 0-.4 0-.2 0-.4 0-.2 0-.4 0-.2 0-.4 0-.2 0-.4 0-.3 0-.4-.3-.2-.4-.2c-.2 0-.3 0-.5-.1-.1 0-.3 0-.5-.2-.1 0-.2-.2-.4-.3-.1 0-.3-.1-.4-.3-.1-.1-.2-.2-.3-.4 0-.1-.2-.3-.3-.4 0-.1-.1-.3-.2-.4 0-.1-.1-.3-.2-.4 0-.2 0-.3 0-.5 0-.1 0-.3 0-.5z"/><path d="m127.5 8.2c0 .1.1.3.2.4.1 0 .2.2.4.2h.4.4.4s.2 0 .4 0 .2 0 .4 0 .2 0 .4 0 .2 0 .4 0 .2 0 .4 0 .2 0 .4 0 .2 0 .4 0 .2 0 .4 0 .2 0 .3-.2c0 0 .2-.2.1-.3 0-.2 0-.3 0-.5s0-.3 0-.5c0-.1 0-.3 0-.5 0-.1 0-.3-.1-.4s-.1-.3-.1-.4 0-.3-.1-.4c0-.1 0-.3-.1-.4 0-.1-.1-.3-.2-.4 0-.1-.2-.3-.2-.4s0-.3-.2-.4c0-.1-.2-.2-.3-.4 0-.1-.2-.3-.3-.4 0-.1-.2-.3-.3-.4s-.2-.2-.3-.3-.2-.2-.3-.3c-.1 0-.3-.2-.4-.3-.1 0-.3-.1-.4-.2-.1 0-.3-.2-.4-.2s-.2-.2-.4-.3c-.1 0-.3 0-.4-.1-.1 0-.3-.1-.4-.2-.1 0-.3-.2-.4-.2s-.3 0-.5 0c-.1 0-.3-.1-.4-.1s-.3 0-.4-.1c-.2 0-.3 0-.5 0-.1 0-.3 0-.5 0s-.3 0-.5 0-.3-.1-.5-.1c-.1 0-.3 0-.4.2 0 0-.2.2-.2.4v.4s0 .2 0 .4 0 .2 0 .4 0 .2 0 .4 0 .2 0 .4 0 .2 0 .4 0 .2 0 .4 0 .2 0 .4 0 .3 0 .4.3.2.4.2.3 0 .5.1c.1 0 .3 0 .5.2.1 0 .2.2.4.3.1 0 .3.1.4.3.1.1.2.2.3.4 0 .1.2.3.3.4 0 .1.1.3.2.4 0 .1.1.3.2.4v.5.5z"/><path d="m21.1 24.5c0 .1 0 .2.1.3 0 .1.2.2.3.2h.5.5.5s.2 0 .5 0 .2 0 .5 0 .2 0 .5 0 .2 0 .5 0 .2 0 .5 0 .2 0 .5 0 .2 0 .5 0 .3 0 .4-.2c.1 0 .2-.2.2-.4s0-.2.1-.4c0-.2 0-.2.1-.4 0-.2 0-.2.1-.4 0-.2.1-.2.2-.4 0-.2 0-.2 0-.4s0-.2 0-.4 0-.2.1-.4c0-.2 0-.2.1-.4 0-.2 0-.2.1-.4 0-.2 0-.2 0-.4s.1-.2.2-.4c0-.2 0-.2 0-.5 0-.2 0-.2.1-.4 0-.2 0-.2.1-.4 0-.2 0-.2 0-.4s0-.2.2-.4c0-.2 0-.2 0-.4s0-.2 0-.4q0-.2.1-.4c0-.2.1-.2.2-.4 0-.2 0-.2 0-.5 0-.2 0-.2.1-.4 0-.2.1-.2.2-.4 0-.2 0-.2 0-.5 0-.2 0-.2.1-.4 0-.2 0-.2.1-.4 0-.2 0-.2.1-.4 0-.2 0-.2 0-.4s0-.2.1-.4c0-.2.1-.2.2-.4 0-.2 0-.2 0-.4s0-.2.1-.4 0-.2 0-.5c0-.2.1-.2.2-.4s0-.2.1-.4c0-.2 0-.2 0-.5 0-.2 0-.2 0-.4s0-.2.1-.4c0-.2 0-.2.1-.4 0-.2 0-.2.1-.4s.1-.2.2-.4c0-.2 0-.2.1-.4 0-.2 0-.2 0-.4s0-.2 0-.5c0-.2.1-.2.2-.4 0-.2 0-.2 0-.5 0-.2 0-.2.1-.4 0-.2 0-.2.1-.4 0-.2 0-.2.1-.4 0-.2 0-.2.1-.4s0-.2.1-.4c0-.2.1-.2.2-.4 0-.2 0-.2 0-.5 0-.1 0-.3-.1-.4 0 0-.2-.2-.3-.2-.2 0-.2 0-.4 0s-.2 0-.4 0-.2 0-.4 0-.2 0-.4 0-.2 0-.4 0-.2 0-.4 0-.2 0-.4 0h-.5c-.2 0-.2 0-.5 0s-.2 0-.5 0-.3 0-.4.2c-.1 0-.2.2-.2.4s0 .2-.1.4c0 .2 0 .2-.1.4s0 .2 0 .5c0 .2 0 .2-.1.4 0 .2 0 .2-.1.4 0 .2-.1.2-.2.4v.5c0 .2-.1.2-.2.4s0 .2 0 .4 0 .2-.1.4c0 .2-.1.2-.2.4v.5c0 .2 0 .2-.1.4 0 .2-.1.2-.2.4v.4.4q0 .2-.1.4c0 .2 0 .2-.1.4 0 .2 0 .2-.1.4 0 .2 0 .2-.1.4 0 .2 0 .2-.1.4v.4q0 .2-.1.4v.4c0 .2 0 .2-.1.4v.4q0 .2-.1.4c0 .2-.1.2-.2.4 0 .2 0 .2-.1.4v.5c0 .2-.1.2-.2.4q0 .2-.1.4v.5c0 .2-.1.2-.2.4v.4.5c0 .2-.1.2-.2.4q0 .2-.1.4c0 .2 0 .2-.1.4v.4.4c0 .2 0 .2-.1.4v.4c0 .2 0 .2-.2.4v.5.4c-.2.2-.2.2-.2.4s-.1.2-.2.4v.5c0 .2 0 .2-.2.4s0 .2 0 .4 0 .2-.1.4c0 .2 0 .2-.1.4z"/><path d="m5.6 1.2c0-.2-.2-.3-.3-.3s-.2-.2-.4-.2-.2 0-.4 0h-.4c-.2 0-.2 0-.4 0s-.2 0-.4 0-.2 0-.4 0-.2 0-.4 0-.2 0-.4 0-.2 0-.5 0-.2 0-.5 0-.2 0-.5 0-.2 0-.3.2v.3.4c0 .2 0 .2.1.4 0 .2 0 .2.1.4v.4c0 .2 0 .2.1.4 0 .2 0 .2.1.4v.4c0 .2 0 .2.1.4 0 .2 0 .2.1.4 0 .2 0 .2.1.4v.5c0 .2.1.2.2.4 0 .2 0 .2.1.4v.4s0 .2.1.4 0 .2 0 .4 0 .2.1.4c0 .2 0 .2.1.4 0 .2 0 .2.1.4v.5c0 .2.1.2.2.4q0 .2.1.4v.5c0 .2.1.2.2.4v.4s0 .2 0 .4 0 .2.1.4c0 .2 0 .2.1.4s0 .2.1.4 0 .2 0 .5c0 .2 0 .2.1.4v.4c0 .2.1.2.2.4v.5c0 .2 0 .2.1.4 0 .2.1.2.2.4 0 .2 0 .2.1.4v.4c0 .2 0 .2.1.4 0 .2 0 .2.1.4v.5c0 .2 0 .2.1.4 0 .2 0 .2.1.4 0 .2.1.2.2.4v.5c0 .2.1.2.2.4 0 .2 0 .2.1.4 0 .2 0 .2.1.4 0 .1.2.1.3 0 0-.2 0-.2.1-.4 0-.2 0-.2.1-.4 0-.2.1-.2.2-.4 0-.2 0-.2 0-.5 0-.2 0-.2 0-.5 0-.2 0-.2.1-.4 0-.2.1-.2.2-.4 0-.2 0-.2 0-.5 0-.2 0-.2 0-.4s.1-.2.2-.4c0-.2 0-.2 0-.5 0-.2 0-.2.1-.4 0-.2.1-.2.2-.4 0-.2 0-.2.1-.4 0-.2 0-.2 0-.5s.1-.2.2-.4c0-.2 0-.2 0-.4s0-.2 0-.5c0-.2 0-.2.1-.4s0-.2.1-.4c0-.2 0-.2 0-.5 0-.2 0-.2.1-.4 0-.2 0-.3 0-.5s0-.4 0-.5c0-.2-.1-.2-.2-.4 0-.2 0-.2 0-.5 0-.2 0-.2-.1-.4 0-.2 0-.2-.1-.4 0-.2 0-.2 0-.5 0-.2-.1-.2-.2-.4 0-.2 0-.2-.1-.4 0-.2 0-.2 0-.5s0-.2-.1-.4c0-.2 0-.2-.1-.4 0-.2 0-.2-.1-.4s0-.2-.1-.4c0-.2 0-.2-.1-.4 0-.2 0-.2 0-.5 0-.2 0-.2-.1-.5 0-.2 0-.2-.1-.4 0-.2 0-.2-.1-.4 0-.2 0-.2-.1-.4 0-.2 0-.2 0-.5 0-.2 0-.2-.1-.4 0-.2 0-.2-.1-.4s0-.2 0-.5c0-.2 0-.2-.1-.4z"/><path d="m98.5.7c-.2 0-.3 0-.4.2-.1 0-.3.2-.3.3v.5c0 .2 0 .2-.1.4 0 .2 0 .2-.1.4 0 .2 0 .2-.1.4 0 .2 0 .2-.1.4 0 .2 0 .2-.1.4v.5c0 .2-.1.2-.2.4v.5c0 .2 0 .2-.1.4v.5c0 .2 0 .2-.1.4 0 .2 0 .2-.1.4 0 .2 0 .2-.1.4s0 .2-.1.4c0 .2-.1.2-.2.4v.5.5c0 .2 0 .2-.1.4 0 .2 0 .2-.1.4 0 .2 0 .2-.1.4v.5s-.1.2-.2.4v.5c0 .2 0 .2-.1.4 0 .2 0 .2-.1.4v.5c0 .1-.2.2-.3.2s-.2 0-.3-.2c0-.2 0-.2-.1-.4 0-.2 0-.2-.1-.4 0-.2 0-.2 0-.5 0-.2-.1-.2-.2-.4q0-.2-.1-.4c0-.2 0-.2 0-.5 0-.2-.1-.2-.2-.4 0-.2 0-.2 0-.5 0-.2 0-.2-.1-.4 0-.2 0-.2-.1-.4 0-.2 0-.2-.1-.4 0-.2 0-.2-.1-.4 0-.2 0-.2 0-.5s0-.2-.1-.4c0-.2 0-.2 0-.5 0-.2-.1-.2-.2-.4 0-.2 0-.2 0-.5s0-.2-.1-.4c0-.2-.1-.2-.2-.4 0-.2 0-.2-.1-.4 0-.2 0-.2 0-.5 0-.2 0-.2-.1-.4 0-.1-.2-.1-.2 0 0 .2-.1.2-.2.4s0 .2-.1.4v.4.5c0 .2-.1.2-.2.4s0 .2 0 .5c0 .2 0 .2-.1.4q0 .2-.1.4c0 .2 0 .2-.1.4s0 .2-.1.4c0 .2 0 .2-.1.4 0 .2-.1.2-.2.4v.5.5c0 .2 0 .2-.1.4 0 .2-.1.2-.2.4v.5.4c0 .2-.1.2-.2.4s0 .2 0 .5c0 .2 0 .2-.1.4 0 .2-.1.2-.2.4v.5s0 .3.1.5v.5c0 .2 0 .2.1.4s0 .2.1.4v.4c0 .2 0 .2.1.4 0 .2.1.2.2.4 0 .2 0 .2.1.4 0 .2 0 .2.1.4v.5c0 .2.1.2.2.4v.5c0 .2 0 .2.1.4 0 .2 0 .2.1.4v.5c0 .2.1.2.2.4 0 .2 0 .2.1.4v.5c0 .2 0 .2.1.4 0 .2 0 .2.1.4 0 .2 0 .2.1.4q0 .2.1.4c0 .2 0 .2.1.4v.5c0 .2.1.3.2.4.1 0 .3.1.4.1h.4.4s.2 0 .4 0 .2 0 .4 0h.4.4s.2 0 .4 0 .2 0 .5 0 .2 0 .5 0h.5c.2 0 .3-.1.4-.2.1 0 .3-.2.3-.3 0-.2 0-.2 0-.4s0-.2 0-.5c0-.2.1-.2.2-.4q0-.2.1-.4c0-.2 0-.2.1-.4 0-.2 0-.2 0-.4s0-.2 0-.4 0-.2.1-.4c0-.2 0-.2 0-.4s0-.2.2-.4c0-.2 0-.2 0-.5q0-.2.1-.4c0-.2 0-.2.1-.4 0-.2.1-.2.2-.4 0-.2 0-.2 0-.5 0-.2 0-.2.2-.4 0-.2 0-.2 0-.4s0-.2.1-.4c0-.2 0-.2.1-.4 0-.2 0-.2 0-.4s.1-.2.2-.4c0-.2 0-.2 0-.5s0-.2.1-.4c0-.2 0-.2.1-.4 0-.2 0-.2 0-.5 0-.2.1-.2.2-.4 0-.2 0-.2.1-.4 0-.2 0-.2 0-.5 0-.2 0-.2.2-.4 0-.2 0-.2 0-.5 0-.2 0-.2.1-.4 0-.2 0-.2.1-.4 0-.2 0-.2.1-.4 0-.2 0-.2.1-.4 0-.2 0-.2.1-.4 0-.2 0-.2.1-.4 0-.2 0-.2 0-.4s0-.2.1-.4c0-.2 0-.2 0-.4s0-.2.1-.4 0-.2.1-.4c0-.2 0-.2.1-.4q0-.2.1-.4c0-.2.1-.2.2-.4 0-.2 0-.2.1-.4 0-.2 0-.2 0-.4s0-.2 0-.4 0-.2.1-.4c0-.2 0-.2.1-.4 0-.2 0-.2.1-.4 0-.2 0-.2 0-.4s.1-.2.2-.4c0-.2 0-.2 0-.5 0-.1 0-.2 0-.3s-.2-.2-.3-.2c-.2 0-.2 0-.5 0s-.2 0-.5 0-.2 0-.5 0-.2 0-.5 0-.2 0-.5 0-.2 0-.5 0-.2 0-.5 0-.2 0-.5 0-.2 0-.5 0c-.2 0-.2 0-.5 0z"/><path d="m102.6 13.2v.5s0 .4 0 .5c0 .2 0 .2.1.4 0 .2 0 .2.1.4 0 .2 0 .2.1.4v.5.5c0 .2 0 .2.1.4 0 .2.1.2.2.4v.5c0 .2.1.2.2.4v.5c0 .2.1.2.2.4s0 .2.1.4v.5c0 .2 0 .2.1.4 0 .2 0 .2.1.4v.5c0 .2 0 .2.1.4 0 .2 0 .2.1.4v.5c0 .2 0 .2.1.4 0 .2 0 .2.1.4 0 .2 0 .2.1.4v.5c0 .2.2.3.3.4.1 0 .3.2.4.2s.2 0 .4 0 .2 0 .4 0 .2 0 .4 0 .2 0 .4 0 .2 0 .4 0h.4.4s.2 0 .5 0h.5.5s.2-.1.3-.2c0 0 .1-.2 0-.3 0-.2 0-.2 0-.4s0-.2-.1-.4c0-.2 0-.2-.1-.4 0-.2 0-.2-.1-.4 0-.2 0-.2 0-.5 0-.2 0-.2-.1-.4 0-.2 0-.2 0-.4s-.1-.2-.2-.4c0-.2 0-.2 0-.5 0-.2 0-.2-.1-.4 0-.2-.1-.2-.2-.4 0-.2 0-.2-.1-.4 0-.2 0-.2 0-.4s0-.2-.1-.4c0-.2 0-.2-.1-.4 0-.2 0-.2 0-.5 0-.2 0-.2-.1-.4 0-.2 0-.2-.1-.4 0-.2-.1-.2-.2-.4s0-.2 0-.5c0-.2-.1-.2-.2-.4 0-.2 0-.2-.1-.4 0-.2 0-.2-.1-.4 0-.2 0-.2-.1-.4 0-.2 0-.2-.1-.4 0-.2 0-.2 0-.4s0-.2 0-.4 0-.2-.2-.4c0-.2 0-.2-.1-.4 0-.2 0-.2-.1-.4 0-.2 0-.2 0-.5 0-.2-.1-.2-.2-.4 0-.2 0-.2-.1-.4 0-.2 0-.2 0-.5 0-.2-.2-.2-.2-.4s0-.2-.1-.4c0-.2 0-.2 0-.5q0-.2-.1-.4c0-.2-.1-.2-.2-.4 0-.2 0-.2 0-.5 0-.2 0-.2-.1-.4 0-.2 0-.2-.1-.4 0-.2 0-.2 0-.4s0-.2-.1-.4c0-.2-.1-.2-.2-.4 0-.2 0-.2-.1-.4 0-.2 0-.2-.1-.4 0-.2 0-.2 0-.5 0-.1-.2-.1-.2 0 0 .2-.1.2-.2.4v.5c0 .2 0 .2-.1.4 0 .2-.1.2-.2.4v.5c0 .2 0 .2-.1.4 0 .2-.1.2-.2.4v.5.4s0 .2-.1.4c0 .2 0 .2-.1.4 0 .2 0 .2-.1.4 0 .2 0 .2-.1.4 0 .2 0 .2-.1.4v.5c0 .2 0 .2-.1.4v.4c0 .2 0 .2-.1.4v.4q0 .2-.1.4c0 .2-.1.2-.2.4 0 .2 0 .2-.1.4z"/><g stroke="#333" stroke-miterlimit="10" stroke-width=".2"><path d="m146.8 25v-20.3h7.7c2.8 0 5 .8 6.5 2.5s2.3 4.1 2.3 7.3-.8 5.9-2.3 7.7c-1.6 1.8-3.7 2.8-6.5 2.8h-7.6zm7.5-18h-4.8v15.5h4.8c2 0 3.6-.7 4.6-2s1.6-3.3 1.6-5.9-.5-4.4-1.6-5.7-2.6-2-4.6-2z"/><path d="m166.5 25v-14.8h2.4v2.7c.4-1 .9-1.7 1.6-2.2s1.5-.7 2.5-.7h.4.2v2.6s-.1 0-.2 0h-.4c-1.3 0-2.3.4-3 1.1s-1 1.8-1 3.2v8.2h-2.5z"/><path d="m177 7.5v-2.8h2.5v2.8zm0 17.5v-14.8h2.5v14.8z"/><path d="m188 25-5.5-14.8h2.7l4.1 11.8 4-11.8h2.7l-5.4 14.8z"/><path d="m208 20.2h2.5c-.3 1.6-1 2.9-2.1 3.9-1.2.9-2.6 1.4-4.3 1.4s-3.7-.7-4.9-2.1-1.8-3.3-1.8-5.6.6-4.5 1.8-5.9 2.8-2.1 4.9-2.1 3.8.7 4.9 2c1.2 1.3 1.7 3.2 1.7 5.5v.7.4h-10.7c0 1.6.4 2.8 1.2 3.6.7.9 1.8 1.3 3.1 1.3s1.8-.3 2.5-.8 1.1-1.3 1.3-2.2zm-8.1-3.9h8.1c0-1.4-.4-2.4-1-3.2-.7-.7-1.7-1.1-2.9-1.1s-2.2.4-2.9 1.1-1.1 1.8-1.2 3.2z"/></g></g></svg>