<svg viewBox="0 0 335.8 34.6" xmlns="http://www.w3.org/2000/svg"><g fill="#333"><path d="m46.9 17.4v4.8c0 .2 0 .4.2.6v.6c0 .2 0 .4.2.6s0 .4 0 .6.2.4.2.6 0 .4.2.6 0 .4.2.6c0 .2 0 .4.2.6s.2.4.2.6 0 .4.2.6c0 .2.2.4.3.5 0 .2.2.3.3.5s.2.4.3.5c0 .2.2.3.3.5s.3.3.4.5c0 .2.3.3.4.4s.2.4.4.5.4.2.5.4c.2 0 .3.3.5.4.2 0 .3.3.5.4.2 0 .4.2.6.3.2 0 .3.2.5.3.2 0 .4 0 .6.2.2 0 .4 0 .6.2.2 0 .4 0 .6.2.2 0 .4.2.6.2h1.7s0-.3 0-.5v-3c0-.3 0-.3 0-.6v-1.2c0-.3 0-.4-.3-.6s-.2-.4-.4-.5-.3-.3-.4-.4c0-.1-.3-.3-.4-.4 0-.2-.3-.3-.3-.5s0-.4-.2-.6c0-.2 0-.4-.2-.6 0-.2 0-.4-.2-.6v-.6c0-.2 0-.4 0-.6s0-.4 0-.6 0-.4 0-.6v-.6c0-.2 0-.4 0-.6v-7.2c0-.2 0-.4.2-.6s0-.4 0-.6v-.6c0-.2.2-.4.2-.6s0-.4 0-.6v-.6c0-.2.2-.4.3-.6 0-.2 0-.4.2-.6 0-.2 0-.4.2-.6 0-.2.2-.4.3-.5 0-.2.3-.3.4-.5 0-.2.2-.3.4-.5.2 0 .3-.3.4-.4 0-.2.2-.4.2-.6v-3c0-.3 0-.3 0-.6s0-.3 0-.6v-.6c0-.2 0-.4 0-.5s-.3-.2-.5-.1c-.2 0-.4 0-.6.1-.2 0-.4 0-.6.1-.2 0-.4 0-.6.1s-.4.1-.6.2-.4 0-.6.2c-.2 0-.4.1-.6.2-.2 0-.4.2-.5.3s-.4.2-.5.3c-.2 0-.3.2-.5.4s-.3.2-.5.3-.3.3-.5.4c-.2 0-.3.3-.4.4s-.3.3-.5.4c0 .2-.2.3-.4.5 0 .2-.2.4-.3.5 0 .2-.3.3-.4.5 0 .2-.2.4-.3.5 0 .2 0 .4-.2.6 0 .2-.3.3-.4.5 0 .2 0 .4-.2.6v.6s-.2.4-.3.6c0 .2 0 .4-.2.6 0 .2 0 .4-.2.6v.6s0 .4 0 .6 0 .4 0 .6v.6.6 1.8.6 1.8h-.1z"/><path d="m76.9 17.4v4.8c0 .2 0 .4.2.6v.6c0 .2 0 .4.2.6s0 .4 0 .6.2.4.2.6 0 .4.2.6c0 .2 0 .4.2.6 0 .2 0 .4.2.6 0 .2.2.4.2.6s0 .4.2.6c0 .2.2.4.3.5 0 .2.2.3.3.5 0 .2.2.4.3.5 0 .2.2.3.3.5s.3.3.4.5.3.3.4.4.2.4.4.5.4.2.5.4c.2 0 .3.3.5.4.2 0 .3.3.5.4l.6.3c.2 0 .3.2.5.3.2 0 .4 0 .6.2.2 0 .4 0 .6.2.2 0 .4 0 .6.2.2 0 .4.2.6.2h1.7s0-.3 0-.5v-3c0-.3 0-.3 0-.6v-1.2c0-.3 0-.4-.3-.6 0-.2-.2-.4-.4-.5s-.3-.3-.4-.4-.3-.3-.4-.4c0-.2-.3-.3-.3-.5s0-.4-.2-.6c0-.2 0-.4-.2-.6 0-.2 0-.4-.2-.6v-.6c0-.2 0-.4 0-.6s0-.4 0-.6 0-.4 0-.6v-.6c0-.2 0-.4 0-.6v-7.2c0-.2 0-.4.2-.6s0-.4 0-.6v-.6c0-.2.2-.4.2-.6s0-.4 0-.6v-.6c0-.2.2-.4.3-.6 0-.2 0-.4.2-.6 0-.2 0-.4.2-.6 0-.2.2-.4.3-.5 0-.2.3-.3.4-.5s.2-.3.4-.5c.2 0 .3-.3.4-.4 0-.2.2-.4.2-.6v-3c0-.3 0-.3 0-.6s0-.3 0-.6v-.6c0-.2 0-.4 0-.5s-.3-.2-.5-.1c-.2 0-.4 0-.6.1-.2 0-.4 0-.6.1-.2 0-.4 0-.6.1s-.4.1-.6.2-.4 0-.6.2c-.2 0-.4.1-.6.2-.2 0-.4.2-.5.3s-.4.2-.5.3c-.2 0-.3.2-.5.4s-.3.2-.5.3-.3.3-.5.4c-.2 0-.3.3-.4.4 0 0-.3.3-.5.4 0 .2-.2.3-.4.5s-.2.4-.3.5c0 .2-.3.3-.4.5s-.2.4-.3.5c0 .2 0 .4-.2.6 0 .2-.3.3-.4.5 0 .2 0 .4-.2.6v.6c0 .2-.2.4-.3.6 0 .2 0 .4-.2.6 0 .2 0 .4-.2.6v.6s0 .4 0 .6 0 .4 0 .6v.6.6 1.8.6 1.8z"/><path d="m176 17.4c-.2-.1-.3-.3-.4-.4-.2-.1-.4-.2-.5-.3-.2-.1-.3-.2-.5-.3s-.4-.2-.5-.3c-.2 0-.3-.2-.5-.3-.2 0-.3-.2-.5-.3-.2 0-.4-.1-.6-.2-.2 0-.4 0-.6-.2-.2 0-.4-.2-.5-.3-.2 0-.4 0-.6-.1-.2 0-.4-.2-.6-.2s-.4 0-.6-.1c-.2 0-.4-.1-.6-.2-.2 0-.4-.2-.6-.2s-.4-.1-.6-.2-.4-.1-.6-.2c-.2 0-.4-.2-.6-.2s-.4 0-.6-.1c-.2 0-.4 0-.6-.1-.2 0-.4-.2-.6-.2s-.4-.1-.6-.2c-.2 0-.4 0-.6-.1-.2 0-.4 0-.6-.1-.2 0-.3-.2-.5-.3-.2 0-.4 0-.6-.2-.2 0-.4-.2-.6-.3s-.3-.3-.5-.4c-.1-.2-.3-.3-.4-.5 0-.2-.1-.4-.2-.6s-.1-.4-.1-.6v-.6c0-.2 0-.4.1-.6 0-.2.2-.4.3-.5.1-.2.2-.4.3-.5s.3-.3.5-.4c.2 0 .4 0 .6-.2.2 0 .3-.2.6-.3h.6c.2 0 .4 0 .5-.2s.2-.3.2-.5v-1.2c0-.3.1-.3.1-.6v-3c0-.2-.2-.4-.3-.5s-.3-.1-.5-.1h-1.2c-.2 0-.4 0-.6.1h-.6c-.2 0-.4 0-.6.1s-.4.1-.6.2-.4.2-.6.2-.4 0-.6.1c-.2 0-.4.2-.5.3-.2 0-.4.1-.6.2s-.4.2-.5.3-.4.2-.5.3-.3.2-.5.3-.3.2-.5.3-.3.2-.5.4c-.1 0-.3.3-.4.5 0 .2-.2.3-.4.5-.1.2-.3.3-.4.5s-.3.3-.4.5-.1.4-.2.6-.1.4-.2.6c0 .2-.3.3-.3.5v.6c0 .2-.1.4-.1.6s-.2.4-.2.6v1.2c0 .2-.1.4-.1.6v.6c0 .2 0 .4.1.6v.6c0 .2 0 .4.1.6 0 .2.2.4.3.6 0 .2.1.4.2.6s.2.4.3.5c0 .2.1.4.2.6s.3.3.4.4.2.4.3.5c.1.2.3.3.5.4.1.1.3.3.4.4.2.1.2.4.4.5s.4.1.5.3.3.2.5.3.3.3.5.4.4.2.5.3c.2 0 .4.1.5.2.2 0 .4.2.5.3.2 0 .4.1.6.2.2 0 .4.1.6.2.2 0 .4.2.6.3.2 0 .4.2.6.2s.4.1.6.2.4.1.6.2c.2 0 .4.1.6.2.2 0 .4.2.6.2s.4 0 .6.2.4.1.6.2.4.2.6.2.4 0 .6.2.4 0 .6 0 .4.2.6.3c.2 0 .4.1.6.2h.6c.2 0 .4.2.5.3.2 0 .4.1.6.2.2 0 .4.1.6.2.2 0 .3.3.4.4s.3.3.4.4c.1.2.2.3.3.5 0 .2.1.3.2.5v.6c0 .2 0 .4-.1.6 0 .2 0 .4-.2.6s-.2.3-.4.5c-.1.2-.2.3-.4.5-.1.1-.3.2-.5.3-.2 0-.3.2-.5.3-.2 0-.4 0-.6.1-.2 0-.4.2-.6.2h-.6c-.2 0-.4.2-.5.3s-.2.3-.2.5v4.2c0 .3-.1.3-.1.6s0 .4.2.5h.5.6c.2 0 .4 0 .6-.2h.6.6s.4 0 .6 0h.6s.4 0 .6-.2.4 0 .6-.2.4-.2.6-.3c.2 0 .4-.2.6-.2s.4-.2.5-.3c.2 0 .4-.2.6-.3.2 0 .4-.2.5-.3.2 0 .3-.2.5-.4.2-.1.3-.3.5-.4s.4-.2.5-.4c.1-.1.3-.3.4-.4s.2-.3.4-.5c.1-.2.2-.4.3-.5.1-.2.2-.4.3-.5s.2-.3.3-.5.2-.4.3-.6.1-.4.2-.6c0-.2.2-.4.3-.6v-.6c0-.2.1-.4.1-.6s.1-.4.1-.6v-1.8c0-.2-.1-.4-.1-.6s0-.4-.1-.6c0-.2-.2-.4-.2-.6s0-.4-.2-.6-.1-.4-.2-.6c0-.2-.3-.3-.4-.5s-.2-.4-.3-.5c-.1-.2-.3-.3-.4-.5s-.2-.3-.4-.5-.3-.2-.5-.4c-.2-.1-.3-.3-.4-.4l.6-.2z"/><path d="m25.9 1.7c0-.2-.2-.3-.4-.5-.2-.1-.3-.3-.5-.3h-6c-.3 0-.4 0-.5.2-.2.1-.2.3-.3.5 0 .3-.1.3-.2.6q0 .3-.1.6c-.1.3 0 .3-.1.6 0 .3-.1.3-.2.6q0 .3-.1.6t-.1.6-.2.6-.2.6-.1.6-.1.6c0 .3-.2.3-.3.6v.6q0 .3-.2.6c0 .3-.1.3-.2.6q0 .3-.1.6c0 .3-.1.3-.2.6q0 .3-.1.6 0 .3-.1.6c0 .2 0 .4-.1.6 0 .3-.1.3-.2.6v.6q0 .3-.1.6c0 .3-.2.3-.3.6v.6c0 .3-.1.3-.2.6q0 .3-.2.6 0 .3-.1.6 0 .3-.1.6 0 .3-.1.6c0 .3-.2.3-.3.6q0 .3-.1.6-.1.3-.2.6v.6c0 .3-.1.3-.2.6q0 .3-.2.6v.6q0 .3-.1.6c0 .3-.1.3-.2.6q0 .3-.2.6 0 .3-.1.6c0 .3-.2.3-.2.6s0 .3-.1.6q0 .3-.1.6v.6c0 .3-.2.3-.2.6v.6q0 .3-.2.6 0 .3-.1.6 0 .3-.2.6 0 .3-.1.6 0 .3-.2.6c0 .3-.1.3-.2.6q0 .3-.1.6c0 .2 0 .3.1.5 0 0 .2.2.4.2h1.8.6s.3 0 .6 0h3c.3 0 .4 0 .6-.2s.2-.3.3-.5c0-.3.1-.3.2-.6q0-.3.2-.6v-.6q0-.3.2-.6 0-.3.1-.6c0-.3.2-.3.2-.6v-.6c0-.3.1-.3.2-.6q0-.3.1-.6 0-.3.2-.6c0-.3.2-.3.3-.6v-.6c0-.2 0-.4.2-.6 0-.3.2-.3.2-.6s0-.3.1-.6q0-.3.1-.6 0-.3.2-.6 0-.3.1-.6 0-.3.1-.6c0-.3.1-.3.2-.6 0-.3.1-.3.2-.6q0-.3.1-.6 0-.3.2-.6 0-.3.1-.6c0-.3.1-.3.2-.6q0-.3.1-.6 0-.3.2-.6c0-.2.2-.2.4-.2s.3 0 .4.3c0 .3.2.3.2.6v.6c0 .2 0 .4.2.6 0 .3.2.3.3.6v.6c0 .3.1.3.2.6 0 .3.1.3.2.6v.6q0 .3.2.6 0 .3.1.6c0 .3.1.3.2.6 0 .3.1.3.2.6q0 .3.1.6c0 .3.1.3.2.6q0 .3.1.6c0 .3.1.3.2.6q0 .3.1.6 0 .3.2.6v.6c0 .3.1.3.2.6q0 .3.1.6c0 .3.1.3.2.6 0 .2.4.2.4 0q0-.3.1-.6 0-.3.1-.6c0-.3.2-.3.2-.6v-.6c0-.3.1-.3.2-.6 0-.2 0-.4.2-.6v-.6c0-.3.2-.3.3-.6q0-.3.1-.6v-.6c0-.3.1-.3.2-.6v-.6c0-.3.1-.3.2-.6q0-.3.1-.6 0-.3.2-.6c0-.3.1-.3.2-.6q0-.3.1-.6 0-.3.2-.6 0-.3.1-.6c0-.2 0-.4.2-.6q0-.3.1-.6c0-.3.1-.3.2-.6 0-.2.1-.5.1-.7v-.7c0-.2 0-.4-.2-.6q0-.3-.1-.6 0-.3-.1-.6c0-.3-.1-.3-.2-.6 0-.3-.1-.3-.2-.6q0-.3-.2-.6c-.2-.3 0-.3-.1-.6q0-.3-.1-.6c0-.3-.1-.3-.2-.6v-.6c0-.3-.2-.3-.3-.6q0-.3-.1-.6c-.1-.3 0-.3 0-.6s-.1-.3-.2-.6q0-.3-.1-.6 0-.3-.2-.6c0-.3-.1-.3-.2-.6q0-.3-.1-.6c0-.3-.1-.3-.2-.6q0-.3-.1-.6 0-.3-.1-.6c0-.3-.2-.3-.2-.6v-.6l-.7-.4z"/><path d="m113.8 1c-.2 0-.4.1-.5.3-.2.1-.4.3-.4.5q0 .3 0 .6c0 .2 0 .4-.2.6q0 .3 0 .6l-.2.6c0 .3 0 .3-.2.6q0 .3 0 .6v.6c0 .3 0 .3-.2.6v.6c0 .3 0 .3-.2.6v.6s0 .3 0 .6 0 .3-.2.6q0 .3 0 .6t0 .6c0 .3 0 .3-.2.6q0 .3 0 .6t0 .6c0 .3 0 .3-.2.6q0 .3-.2.6t0 .6 0 .6c0 .3-.2.3-.3.6v.6q0 .3-.2.6c0 .3 0 .3-.2.6q0 .3 0 .6c0 .3 0 .3-.2.6q0 .3 0 .6 0 .3 0 .6v.6c0 .3 0 .3-.2.6v.6q0 .3 0 .6c0 .3-.2.3-.3.6v.6c0 .3 0 .3-.2.6q0 .3-.2.6 0 .3 0 .6 0 .3 0 .6 0 .3 0 .6c0 .3-.2.3-.3.6q0 .3 0 .6c0 .3 0 .3-.2.6v.6c0 .3 0 .3-.2.6q0 .3-.2.6v.6q0 .3 0 .6c0 .3 0 .3-.2.6q0 .3-.2.6 0 .3 0 .6c0 .3-.2.3-.2.6s0 .4 0 .5c0 0 .3.2.5.2h6c.3 0 .4 0 .6-.2.2 0 .3-.3.3-.5 0-.3 0-.3.2-.6v-.6q0-.3 0-.6c0-.3.2-.3.3-.6v-.6q0-.3.2-.6c0-.3.2-.3.3-.6q0-.3.2-.6v-.6c0-.3.2-.3.3-.6s0-.3 0-.6q0-.3 0-.6c0-.3 0-.3.2-.6q0-.3.2-.6v-.6q0-.3.2-.6c0-.2 0-.4 0-.6 0-.3.2-.3.2-.6v-.6c0-.3 0-.3.2-.6q0-.3 0-.6 0-.3.2-.6c0-.3.2-.3.3-.6v-.6c0-.2 0-.4.2-.6 0-.3.2-.3.2-.6s0-.3 0-.6q0-.3 0-.6 0-.3.2-.6c0-.2 0-.4 0-.6q0-.3 0-.6c0-.3 0-.3.2-.6q0-.3.2-.6 0-.3 0-.6 0-.3.2-.6 0-.3 0-.6c0-.3 0-.3.2-.6q0-.3 0-.6c0-.2 0-.4.2-.6 0-.3 0-.3.2-.6q0-.3 0-.6v-.6c0-.3.2-.3.3-.6q0-.3 0-.6v-.6c0-.3.2-.3.3-.6s0-.3 0-.6 0-.3 0-.6.2-.3.2-.6 0-.3 0-.6q0-.3.2-.6c.2-.3 0-.3 0-.6q0-.3 0-.6v-.5c0-.1-.3-.2-.5-.2h-6.5z"/><path d="m46.9 17.4v4.8c0 .2 0 .4.2.6v.6c0 .2 0 .4.2.6v.6s.2.4.2.6 0 .4.2.6c0 .2 0 .4.2.6 0 .2 0 .4.2.6 0 .2.2.4.2.6s0 .4.2.6c0 .2.2.4.3.5 0 .2.2.3.3.5s.2.4.3.5c0 .2.2.3.3.5s.3.3.4.5c0 .2.3.3.4.4s.2.4.4.5.4.2.5.4c.2 0 .3.3.5.4.2 0 .3.3.5.4.2 0 .4.2.6.3.2 0 .3.2.5.3.2 0 .4 0 .6.2.2 0 .4 0 .6.2.2 0 .4 0 .6.2.2 0 .4.2.6.2h1.7s0-.3 0-.5v-3c0-.3 0-.3 0-.6v-1.2c0-.3 0-.4-.3-.6 0-.2-.2-.4-.4-.5s-.3-.3-.4-.4c0-.1-.3-.3-.4-.4 0-.2-.3-.3-.3-.5s0-.4-.2-.6c0-.2 0-.4-.2-.6 0-.2 0-.4-.2-.6v-.6c0-.2 0-.4 0-.6s0-.4 0-.6 0-.4 0-.6v-.6c0-.2 0-.4 0-.6v-7.2c0-.2 0-.4.2-.6s0-.4 0-.6v-.6c0-.2.2-.4.2-.6s0-.4 0-.6v-.6c0-.2.2-.4.3-.6 0-.2 0-.4.2-.6 0-.2 0-.4.2-.6 0-.2.2-.4.3-.5 0-.2.3-.3.4-.5 0-.2.2-.3.4-.5.2 0 .3-.3.4-.4s.2-.4.2-.6v-3c0-.3 0-.3 0-.6s0-.3 0-.6v-.6c0-.2 0-.4 0-.5s-.3-.2-.5-.1c-.2 0-.4 0-.6.1-.2 0-.4 0-.6.1-.2 0-.4 0-.6.1s-.4.1-.6.2c-.2 0-.4 0-.6.2-.2 0-.4.1-.6.2-.2 0-.4.2-.5.3s-.4.2-.5.3c-.2 0-.3.2-.5.4s-.3.2-.5.3-.3.3-.5.4c-.2 0-.3.3-.4.4s-.3.3-.5.4c0 .2-.2.3-.4.5 0 .2-.2.4-.3.5 0 .2-.3.3-.4.5 0 .2-.2.4-.3.5 0 .2 0 .4-.2.6 0 .2-.3.3-.4.5 0 .2 0 .4-.2.6s0 .4 0 .6-.2.4-.3.6c0 .2 0 .4-.2.6 0 .2 0 .4-.2.6v.6.6.6.6.6 1.8.6 1.8h-.1z"/><path d="m61.5.3c-.2 0-.3 0-.5.2 0 .1-.3.3-.3.5v4.8c0 .3 0 .4.2.6 0 .2.2.4.4.5s.3.2.5.4c0 0 .3.3.4.5 0 .2.2.4.3.5 0 .2.2.4.3.6 0 .2 0 .4.2.6v.6c0 .2 0 .4.2.6v.6 9.6c0 .2 0 .4-.2.6v.6.6.6 1.2c0 .2 0 .4-.2.6 0 .2-.2.4-.3.5 0 .2 0 .4-.2.6 0 .2-.2.3-.3.5s-.2.4-.3.5c0 .2-.3.2-.5.4-.2.1-.3.3-.5.5v.6 4.8.5s.3 0 .5 0h.6.6s.4 0 .6 0 .4 0 .6-.2c.2 0 .4 0 .6-.2.2 0 .4 0 .6-.2.2 0 .4-.2.5-.3.2 0 .3-.2.5-.3s.4-.2.5-.3c.2 0 .4-.2.5-.3.2 0 .3-.3.4-.5 0-.1.3-.3.4-.5 0-.1.4-.2.5-.4 0-.2.2-.4.3-.6 0-.2.3-.3.4-.5s.3-.3.4-.5.2-.4.3-.5c0-.2 0-.4.2-.6 0-.2.3-.3.3-.5s0-.4.2-.6 0-.4.2-.6c0-.2.2-.4.2-.6s0-.4.2-.6v-.6c0-.2 0-.4 0-.6s0-.4 0-.6.2-.4.2-.6v-.6c0-.2 0-.4 0-.6v-1.2c0-.2 0-.4.2-.6s0-.4 0-.6v-5.4c0-.2 0-.4 0-.6v-.6c0-.2 0-.4 0-.6v-.6c0-.2 0-.4 0-.6s0-.4 0-.6v-.6c0-.2 0-.4-.2-.6s-.2-.4-.3-.6c0-.2 0-.4 0-.6s-.2-.4-.2-.6-.3-.3-.3-.5 0-.4-.2-.6c0-.2-.2-.3-.3-.5 0-.2-.3-.3-.4-.5s-.2-.4-.3-.6c0-.2-.3-.3-.4-.5 0-.2-.3-.3-.4-.5s-.3-.3-.5-.4c-.2 0-.3-.3-.5-.4s-.3-.3-.5-.4c-.2 0-.4-.2-.5-.3s-.3-.3-.5-.4c-.2 0-.4-.1-.6-.2s-.4-.2-.6-.2-.4-.1-.6-.2c-.2 0-.4-.2-.6-.3h-.6c-.2 0-.4 0-.6-.2s-.4 0-.6 0h.2z"/><path d="m76.9 17.4v4.8c0 .2 0 .4.2.6s0 .4 0 .6 0 .4.2.6 0 .4 0 .6.2.4.2.6 0 .4.2.6c0 .2 0 .4.2.6 0 .2 0 .4.2.6 0 .2.2.4.2.6s0 .4.2.6c0 .2.2.4.3.5 0 .2.2.3.3.5 0 .2.2.4.3.5 0 .2.2.3.3.5s.3.3.4.5.3.3.4.4.2.4.4.5.4.2.5.4c.2 0 .3.3.5.4s.3.3.5.4l.6.3c.2 0 .3.2.5.3.2 0 .4 0 .6.2.2 0 .4 0 .6.2s.4 0 .6.2.4.2.6.2h1.7s0-.3 0-.5v-3c0-.3 0-.3 0-.6v-1.2c0-.3 0-.4-.3-.6 0-.2-.2-.4-.4-.5s-.3-.3-.4-.4-.3-.3-.4-.4c0-.2-.3-.3-.3-.5s0-.4-.2-.6c0-.2 0-.4-.2-.6 0-.2 0-.4-.2-.6v-.6c0-.2 0-.4 0-.6s0-.4 0-.6 0-.4 0-.6v-.6c0-.2 0-.4 0-.6v-7.2c0-.2 0-.4.2-.6s0-.4 0-.6v-.6c0-.2.2-.4.2-.6s0-.4 0-.6v-.6c0-.2.2-.4.3-.6 0-.2 0-.4.2-.6 0-.2 0-.4.2-.6 0-.2.2-.4.3-.5 0-.2.3-.3.4-.5s.2-.3.4-.5c.2 0 .3-.3.4-.4 0-.2.2-.4.2-.6v-3c0-.3 0-.3 0-.6s0-.3 0-.6v-.6c0-.2 0-.4 0-.5s-.3-.2-.5-.1c-.2 0-.4 0-.6.1s-.4 0-.6.1c-.2 0-.4 0-.6.1s-.4.1-.6.2c-.2 0-.4 0-.6.2s-.4.1-.6.2c-.2 0-.4.2-.5.3-.2 0-.4.2-.5.3-.2 0-.3.2-.5.4-.2 0-.3.2-.5.3s-.3.3-.5.4c-.2 0-.3.3-.4.4 0 0-.3.3-.5.4 0 .2-.2.3-.4.5s-.2.4-.3.5c0 .2-.3.3-.4.5s-.2.4-.3.5c0 .2 0 .4-.2.6 0 .2-.3.3-.4.5 0 .2 0 .4-.2.6v.6c0 .2-.2.4-.3.6 0 .2 0 .4-.2.6 0 .2 0 .4-.2.6v.6s0 .4 0 .6 0 .4 0 .6v.6.6 1.8.6 1.8z"/><path d="m91.5.3c-.2 0-.3 0-.5.2s-.3.3-.3.5v4.8c0 .3 0 .4.2.6s.2.4.4.5c.2 0 .3.2.5.4 0 0 .3.3.4.5s.2.4.3.5c0 .2.2.4.3.6 0 .2 0 .4.2.6v.6c0 .2 0 .4.2.6v.6 9.6c0 .2 0 .4-.2.6v.6.6.6 1.2c0 .2 0 .4-.2.6 0 .2-.2.4-.3.5 0 .2 0 .4-.2.6 0 .2-.2.3-.3.5 0 .2-.2.4-.3.5 0 .2-.3.2-.5.4-.2.1-.3.3-.5.5v.6 4.8.5s.3 0 .5 0h.6.6s.4 0 .6 0 .4 0 .6-.2c.2 0 .4 0 .6-.2.2 0 .4 0 .6-.2.2 0 .4-.2.5-.3.2 0 .3-.2.5-.3s.4-.2.5-.3c.2 0 .4-.2.5-.3.2 0 .3-.3.4-.5 0-.1.3-.3.4-.5 0-.1.4-.2.5-.4 0-.2.2-.4.3-.6 0-.2.3-.3.4-.5s.3-.3.4-.5.2-.4.3-.5c0-.2 0-.4.2-.6s.3-.3.3-.5 0-.4.2-.6c0-.2 0-.4.2-.6 0-.2.2-.4.2-.6s0-.4.2-.6v-.6c0-.2 0-.4 0-.6s0-.4 0-.6.2-.4.2-.6v-.6c0-.2 0-.4 0-.6v-1.2c0-.2 0-.4.2-.6v-6c0-.2 0-.4 0-.6v-.6c0-.2 0-.4 0-.6v-.6c0-.2 0-.4 0-.6s0-.4 0-.6v-.6c0-.2 0-.4-.2-.6s-.2-.4-.3-.6c0-.2 0-.4 0-.6s-.2-.4-.2-.6-.3-.3-.3-.5 0-.4-.2-.6c0-.2-.2-.3-.3-.5 0-.2-.3-.3-.4-.5s-.2-.4-.3-.6c0-.2-.3-.3-.4-.5 0-.2-.3-.3-.4-.5 0 0-.3-.3-.5-.4-.2 0-.3-.3-.5-.4s-.3-.3-.5-.4c-.2 0-.4-.2-.5-.3s-.3-.3-.5-.4c-.2 0-.4-.1-.6-.2s-.4-.2-.6-.2-.4-.1-.6-.2c-.2 0-.4-.2-.6-.3h-.6c-.2 0-.4 0-.6-.2s-.4 0-.6 0h.2z"/><path d="m159.6 23.5c0-.2-.2-.3-.3-.5-.1-.1-.3-.3-.5-.3h-6.6q-.3 0-.5.2c-.1.1-.2.3-.2.5v.6c0 .2 0 .4.1.6s0 .4 0 .6.1.4.2.6c0 .2.1.4.2.6 0 .2 0 .4.1.6s.1.4.2.6.2.4.3.6.2.4.3.5.1.4.2.6.3.3.4.5.2.3.3.5.2.3.4.5c.1.1.3.3.5.4.1.1.3.3.4.5s.3.2.5.4c.2 0 .4.2.5.3.2 0 .3.2.5.3s.3.3.5.3.4 0 .6.2c.2 0 .4 0 .6.2.2 0 .3.2.5.3s.4 0 .6 0 .4 0 .6.2h.6 1.8c.2 0 .4 0 .6.2.2 0 .4 0 .5-.2.1 0 .3-.3.3-.5v-4.8c0-.3 0-.4-.1-.6s-.3-.3-.5-.3-.4 0-.6-.2c-.2 0-.4-.1-.6-.2-.2 0-.3-.3-.5-.4s-.4-.2-.5-.3c-.2-.1-.3-.3-.4-.5s-.3-.3-.4-.5-.2-.4-.3-.6c0-.2-.2-.4-.2-.6s0-.4-.1-.6v-.6.2z"/><path d="m171.1 11.1c0 .2.2.3.3.5.1.1.3.3.5.3h6.6q.3 0 .5-.2c.2-.2.2-.3.2-.5v-.6c0-.2 0-.4-.1-.6s0-.4 0-.6-.1-.4-.2-.6c0-.2-.1-.4-.2-.6s0-.4-.1-.6c0-.2-.1-.4-.2-.6s-.2-.4-.3-.6c0-.2-.2-.4-.3-.5s-.1-.4-.2-.6-.3-.3-.4-.5-.2-.3-.3-.5-.2-.3-.4-.5c-.1 0-.3-.3-.5-.4-.1 0-.3-.3-.4-.5-.2 0-.3-.2-.5-.4-.2 0-.4-.2-.5-.3-.2 0-.3-.2-.5-.3s-.3-.3-.5-.3-.4-.1-.6-.2c-.2 0-.4-.1-.6-.2-.2 0-.3-.2-.5-.3h-.6c-.2 0-.4-.1-.6-.2-.2 0-.4-.1-.6-.1h-1.8c-.2 0-.4 0-.6-.2-.2 0-.4 0-.5.2-.1.1-.3.3-.3.5v4.8c0 .3 0 .4.1.6s.3.3.5.3.4 0 .6.2c.2 0 .4 0 .6.2.2 0 .3.3.5.4s.4.2.5.3c.2 0 .3.3.4.5s.3.3.4.5.2.4.3.6c0 .2.2.4.2.6s0 .4.1.6v.6z"/><path d="m176 17.4c-.2-.1-.3-.3-.4-.4-.2-.1-.4-.2-.5-.3-.2-.1-.3-.2-.5-.3s-.4-.2-.5-.3c-.2 0-.3-.2-.5-.3-.2 0-.3-.2-.5-.3-.2 0-.4-.1-.6-.2-.2 0-.4 0-.6-.2-.2 0-.4-.2-.5-.3s-.4 0-.6-.1c-.2 0-.4-.2-.6-.2s-.4 0-.6-.1c-.2 0-.4-.1-.6-.2-.2 0-.4-.2-.6-.2s-.4-.1-.6-.2c-.2 0-.4-.1-.6-.2-.2 0-.4-.2-.6-.2s-.4 0-.6-.1c-.2 0-.4 0-.6-.1-.2 0-.4-.2-.6-.2s-.4-.1-.6-.2c-.2 0-.4 0-.6-.1-.2 0-.4 0-.6-.1-.2 0-.3-.2-.5-.3-.2 0-.4 0-.6-.2-.2 0-.4-.2-.6-.3s-.3-.3-.5-.4c-.1-.2-.3-.3-.4-.5 0-.2-.1-.4-.2-.6 0-.2-.1-.4-.1-.6v-.6c0-.2 0-.4.1-.6 0-.2.2-.4.3-.5.1-.2.2-.4.3-.5s.3-.3.5-.4c.2 0 .4 0 .6-.2.2 0 .3-.2.6-.3h.6c.2 0 .4 0 .5-.2s.2-.3.2-.5v-1.2c0-.3.1-.3.1-.6v-3c0-.2-.2-.4-.3-.5s-.3-.1-.5-.1h-1.2c-.2 0-.4 0-.6.1h-.6c-.2 0-.4 0-.6.1-.2 0-.4.1-.6.2-.2 0-.4.2-.6.2s-.4 0-.6.1c-.2 0-.4.2-.5.3-.2 0-.4.1-.6.2-.2 0-.4.2-.5.3-.2 0-.4.2-.5.3-.2 0-.3.2-.5.3s-.3.2-.5.3-.3.2-.5.4c-.1 0-.3.3-.4.5 0 .2-.2.3-.4.5-.1.2-.3.3-.4.5s-.3.3-.4.5-.1.4-.2.6-.1.4-.2.6c0 .2-.3.3-.3.5v.6c0 .2-.1.4-.1.6s-.2.4-.2.6v1.2c0 .2-.1.4-.1.6v.6c0 .2 0 .4.1.6s0 .4 0 .6 0 .4.1.6c0 .2.2.4.3.6 0 .2.1.4.2.6s.2.4.3.5c0 .2.1.4.2.6s.3.3.4.4.2.4.3.5c.1.2.3.3.5.4s.3.3.4.4c.2.1.2.4.4.5s.4.1.5.3c.2.1.3.2.5.3s.3.3.5.4.4.2.5.3c.2 0 .4.1.5.2.2 0 .4.2.5.3.2 0 .4.1.6.2.2 0 .4.1.6.2.2 0 .4.2.6.3.2 0 .4.2.6.2s.4.1.6.2c.2 0 .4.1.6.2.2 0 .4.1.6.2.2 0 .4.2.6.2s.4 0 .6.2c.2 0 .4.1.6.2.2 0 .4.2.6.2s.4 0 .6.2h.6c.2 0 .4.2.6.3.2 0 .4.1.6.2h.6c.2 0 .4.2.5.3.2 0 .4.1.6.2.2 0 .4.1.6.2.2 0 .3.3.4.4s.3.3.4.4c.1.2.2.3.3.5 0 .2.1.3.2.5v.6c0 .2 0 .4-.1.6 0 .2 0 .4-.2.6s-.2.3-.4.5c-.1.2-.2.3-.4.5-.1.1-.3.2-.5.3-.2 0-.3.2-.5.3-.2 0-.4 0-.6.1-.2 0-.4.2-.6.2h-.6c-.2 0-.4.2-.5.3s-.2.3-.2.5v4.2c0 .3-.1.3-.1.6s0 .4.2.5h.5.6c.2 0 .4 0 .6-.2h.6.6.6s.4 0 .6 0 .4 0 .6-.2c.2 0 .4 0 .6-.2.2 0 .4-.2.6-.3s.4-.2.6-.2.4-.2.5-.3c.2 0 .4-.2.6-.3.2 0 .4-.2.5-.3s.3-.2.5-.4c.2-.1.3-.3.5-.4s.4-.2.5-.4c.1-.1.3-.3.4-.4.1-.2.2-.3.4-.5.1-.2.2-.4.3-.5s.2-.4.3-.5.2-.3.3-.5.2-.4.3-.6.1-.4.2-.6c0-.2.2-.4.3-.6v-.6c0-.2.1-.4.1-.6s.1-.4.1-.6v-1.8c0-.2-.1-.4-.1-.6s0-.4-.1-.6c0-.2-.2-.4-.2-.6s0-.4-.2-.6-.1-.4-.2-.6c0-.2-.3-.3-.4-.5s-.2-.4-.3-.5c-.1-.2-.3-.3-.4-.5s-.2-.3-.4-.5-.3-.2-.5-.4c-.2-.1-.3-.3-.4-.4l.6-.2z"/><path d="m28.3 32.9c0 .2 0 .3.2.5.1 0 .2.3.4.3h6c.3 0 .4 0 .5-.2.2 0 .2-.3.3-.5 0-.3 0-.3.2-.6q0-.3 0-.6t0-.6c0-.3 0-.3.2-.6q0-.3 0-.6t0-.6c0-.3 0-.3.2-.6q0-.3.2-.6t0-.6 0-.6c0-.3.2-.3.3-.6v-.6q0-.3.2-.6c0-.3 0-.3.2-.6q0-.3 0-.6c0-.3 0-.3.2-.6q0-.3 0-.6 0-.3 0-.6c0-.2 0-.4 0-.6 0-.3 0-.3.2-.6v-.6q0-.3 0-.6c0-.3.2-.3.3-.6v-.6c0-.3 0-.3.2-.6q0-.3.2-.6 0-.3 0-.6 0-.3 0-.6 0-.3 0-.6c0-.3.2-.3.3-.6s0-.3 0-.6 0-.3.2-.6v-.6c0-.3 0-.3.2-.6q0-.3.2-.6v-.6q0-.3 0-.6c0-.3 0-.3.2-.6q0-.3.2-.6 0-.3 0-.6c0-.3.2-.3.2-.6s0-.3 0-.6q0-.3 0-.6v-.6c0-.3.2-.3.2-.6v-.6q0-.3.2-.6 0-.3 0-.6 0-.3.2-.6 0-.3 0-.6c0-.3 0-.3.2-.6s0-.3.2-.6q0-.3 0-.6c0-.2 0-.3 0-.5 0-.1-.2-.2-.4-.2h-1.8c-.3 0-.3 0-.6 0s-.3 0-.6 0h-3c-.3 0-.4.1-.6.2s-.2.3-.3.5c0 .3 0 .3-.2.6q0 .3-.2.6v.6q0 .3-.2.6v.6c0 .3-.2.3-.2.6v.6c0 .3 0 .3-.2.6q0 .3 0 .6 0 .3-.2.6c0 .3-.2.3-.3.6v.6c0 .2 0 .4-.2.6 0 .3-.2.3-.2.6s0 .3 0 .6q0 .3 0 .6 0 .3-.2.6v.6q0 .3 0 .6c0 .3 0 .3-.2.6q0 .3-.2.6 0 .3 0 .6 0 .3-.2.6 0 .3 0 .6c0 .3-.1.3-.2.6q0 .3-.1.6c0 .2 0 .4-.2.6 0 .3-.1.3-.2.6q0 .3-.1.6v.6c0 .3-.2.3-.3.6 0 .2 0 .4-.1.6v.6c0 .3-.2.3-.3.6s0 .3-.1.6v.6c0 .3-.2.3-.2.6s0 .3-.1.6q0 .3-.2.6c-.2.3 0 .3-.1.6q0 .3-.1.6c0 .3-.1.3-.2.6q0 .3-.1.6c0 .3-.1.3-.2.6v.6q0 .3-.2.6 0 .3-.1.6c0 .3-.2.3-.2.6v.6c0 .3-.1.3-.2.6q0 .3-.1.6 0 .3-.2.6 0 .3-.1.6h.1z"/><path d="m25.9 1.7c0-.2-.2-.3-.4-.5-.2-.1-.3-.3-.5-.3h-6c-.3 0-.4 0-.5.2-.2.1-.2.3-.3.5 0 .3-.1.3-.2.6q0 .3-.1.6t-.1.6c0 .3-.1.3-.2.6q0 .3-.1.6c-.1.3 0 .3-.1.6 0 .3-.1.3-.2.6q0 .3-.2.6 0 .3-.1.6 0 .3-.1.6c0 .3-.2.3-.3.6v.6q0 .3-.2.6c0 .3-.1.3-.2.6q0 .3-.1.6c0 .3-.1.3-.2.6q0 .3-.1.6 0 .3-.1.6c0 .2 0 .4-.1.6 0 .3-.1.3-.2.6v.6q0 .3-.1.6c0 .3-.2.3-.3.6v.6c0 .3-.1.3-.2.6q0 .3-.2.6 0 .3-.1.6 0 .3-.1.6 0 .3-.1.6c0 .3-.2.3-.3.6q0 .3-.1.6c0 .3-.1.3-.2.6v.6c0 .3-.1.3-.2.6q0 .3-.2.6v.6q0 .3-.1.6c0 .3-.1.3-.2.6q0 .3-.2.6 0 .3-.1.6c0 .3-.2.3-.2.6s0 .3-.1.6q0 .3-.1.6v.6c0 .3-.2.3-.2.6v.6q0 .3-.2.6 0 .3-.1.6 0 .3-.2.6 0 .3-.1.6 0 .3-.2.6c0 .3-.1.3-.2.6q0 .3-.1.6c0 .2 0 .3.1.5 0 0 .2.2.4.2h1.8.6s.3 0 .6 0h3c.3 0 .4 0 .6-.2s.2-.3.3-.5c0-.3.1-.3.2-.6q0-.3.2-.6v-.6q0-.3.2-.6 0-.3.1-.6c0-.3.2-.3.2-.6v-.6c0-.3.1-.3.2-.6q0-.3.1-.6 0-.3.2-.6c0-.3.2-.3.3-.6v-.6c0-.2 0-.4.2-.6 0-.3.2-.3.2-.6s0-.3.1-.6q0-.3.1-.6 0-.3.2-.6 0-.3.1-.6 0-.3.1-.6c0-.3.1-.3.2-.6 0-.3.1-.3.2-.6q0-.3.1-.6 0-.3.2-.6 0-.3.1-.6c0-.3.1-.3.2-.6q0-.3.1-.6 0-.3.2-.6c0-.2.2-.2.4-.2s.3 0 .4.3c0 .3.2.3.2.6v.6c0 .2 0 .4.2.6 0 .3.2.3.3.6v.6c0 .3.1.3.2.6 0 .3.1.3.2.6v.6q0 .3.2.6 0 .3.1.6c0 .3.1.3.2.6 0 .3.1.3.2.6q0 .3.1.6c0 .3.1.3.2.6s0 .3.1.6c0 .3.1.3.2.6q0 .3.1.6 0 .3.2.6v.6c0 .3.1.3.2.6q0 .3.1.6c0 .3.1.3.2.6 0 .2.4.2.4 0q0-.3.1-.6 0-.3.1-.6c0-.3.2-.3.2-.6v-.6c0-.3.1-.3.2-.6 0-.2 0-.4.2-.6v-.6c0-.3.2-.3.3-.6q0-.3.1-.6v-.6c0-.3.1-.3.2-.6v-.6c0-.3.1-.3.2-.6q0-.3.1-.6 0-.3.2-.6c0-.3.1-.3.2-.6q0-.3.1-.6 0-.3.2-.6 0-.3.1-.6c0-.2 0-.4.2-.6q0-.3.1-.6c0-.3.1-.3.2-.6 0-.2.1-.5.1-.7v-.7c0-.2 0-.4-.2-.6q0-.3-.1-.6 0-.3-.1-.6c0-.3-.1-.3-.2-.6 0-.3-.1-.3-.2-.6q0-.3-.2-.6 0-.3-.1-.6 0-.3-.1-.6c0-.3-.1-.3-.2-.6v-.6c0-.3-.2-.3-.3-.6q0-.3-.1-.6v-.6c0-.3-.1-.3-.2-.6q0-.3-.1-.6 0-.3-.2-.6c0-.3-.1-.3-.2-.6q0-.3-.1-.6c0-.3-.1-.3-.2-.6q0-.3-.1-.6c-.1-.3 0-.3-.1-.6 0-.3-.2-.3-.2-.6v-.6l-.7-.4z"/><path d="m7.5 1.6c0-.2-.2-.3-.4-.5-.2-.1-.3-.3-.5-.3h-6c-.3 0-.3.1-.4.3-.1.1-.1.3 0 .4q0 .3 0 .6t.2.6c.2.3 0 .3.2.6s0 .3 0 .6.1.3.2.6q.1.3.2.6 0 .3.1.6 0 .3.1.6c.1.3 0 .3.2.6 0 .3.1.3.2.6v.6c0 .3.1.3.2.6s0 .3.1.6q0 .3 0 .6c0 .3 0 .3.2.6v.6c0 .3 0 .3.2.6 0 .3 0 .3.2.6 0 .2 0 .4.2.6v.6c0 .3 0 .3.2.6 0 .2 0 .4.2.6v.6c0 .3.2.3.3.6q0 .3 0 .6 0 .3 0 .6 0 .3.2.6c0 .3 0 .3.2.6s0 .3.2.6v.6c0 .3 0 .3.2.6q0 .3 0 .6c0 .3 0 .3.2.6s0 .3 0 .6 0 .3 0 .6 0 .3.2.6c0 .3 0 .3.2.6q0 .3 0 .6v.6q0 .3.2.6v.6q0 .3.2.6c0 .3 0 .3.2.6s0 .3.2.6v.6c0 .3 0 .3.2.6q0 .3 0 .6 0 .3.2.6c0 .2.3.2.3 0q0-.3 0-.6 0-.3.2-.6c0-.3 0-.3.2-.6q0-.3 0-.6 0-.3 0-.6 0-.3.2-.6c0-.3.1-.3.2-.6v-.6q0-.3.1-.6c0-.3.2-.3.3-.6v-.6q0-.3.2-.6c0-.3.2-.3.3-.6q0-.3.2-.6v-.6c0-.3.2-.3.3-.6q0-.3.1-.6 0-.3.1-.6c0-.3.1-.3.2-.6q0-.3.2-.6v-.6q0-.3.2-.6v-1.4c0-.3-.2-.3-.3-.6v-.6c0-.3-.1-.3-.2-.6q0-.3-.1-.6v-.6c0-.3-.2-.3-.3-.6q0-.3-.1-.6v-.6c0-.3-.1-.3-.2-.6 0-.3-.1-.3-.2-.6q0-.3-.1-.6 0-.3-.2-.6 0-.3-.2-.6 0-.3-.1-.6 0-.3-.1-.6c0-.3-.1-.3-.2-.6 0-.2 0-.4-.2-.6 0-.3 0-.3-.2-.6q0-.3 0-.6c0-.3 0-.3-.2-.6q0-.3-.2-.6c-.2-.3 0-.3 0-.6s0-.3-.2-.6l.4-.3z"/><path d="m113.8 1c-.2 0-.4.1-.5.3s-.4.3-.4.5q0 .3 0 .6c0 .3 0 .3-.2.6q0 .3 0 .6c0 .3 0 .3-.2.6q0 .3-.2.6t0 .6v.6c0 .3 0 .3-.2.6v.6c0 .3 0 .3-.2.6v.6q0 .3 0 .6c0 .3 0 .3-.2.6q0 .3 0 .6 0 .3 0 .6c0 .3 0 .3-.2.6q0 .3 0 .6 0 .3 0 .6c0 .3 0 .3-.2.6q0 .3-.2.6 0 .3 0 .6 0 .3 0 .6c0 .3-.2.3-.3.6v.6q0 .3-.2.6c0 .3 0 .3-.2.6q0 .3 0 .6c0 .3 0 .3-.2.6q0 .3 0 .6 0 .3 0 .6v.6c0 .3 0 .3-.2.6v.6q0 .3 0 .6c0 .3-.2.3-.3.6v.6c0 .3 0 .3-.2.6q0 .3-.2.6 0 .3 0 .6 0 .3 0 .6 0 .3 0 .6c0 .3-.2.3-.3.6q0 .3 0 .6c0 .3 0 .3-.2.6v.6c0 .3 0 .3-.2.6q0 .3-.2.6v.6q0 .3 0 .6c0 .3 0 .3-.2.6q0 .3-.2.6 0 .3 0 .6c0 .3-.2.3-.2.6s0 .4 0 .5c0 0 .3.2.5.2h6c.3 0 .4 0 .6-.2.2 0 .3-.3.3-.5 0-.3 0-.3.2-.6v-.6q0-.3 0-.6c0-.3.2-.3.3-.6v-.6q0-.3.2-.6c0-.3.2-.3.3-.6q0-.3.2-.6v-.6c0-.3.2-.3.3-.6q0-.3 0-.6 0-.3 0-.6c0-.3 0-.3.2-.6q0-.3.2-.6v-.6q0-.3.2-.6c0-.2 0-.4 0-.6 0-.3.2-.3.2-.6v-.6c0-.3 0-.3.2-.6q0-.3 0-.6 0-.3.2-.6c0-.3.2-.3.3-.6v-.6c0-.2 0-.4.2-.6 0-.3.2-.3.2-.6s0-.3 0-.6q0-.3 0-.6 0-.3.2-.6c0-.2 0-.4 0-.6q0-.3 0-.6c0-.3 0-.3.2-.6q0-.3.2-.6 0-.3 0-.6 0-.3.2-.6 0-.3 0-.6c0-.3 0-.3.2-.6q0-.3 0-.6c0-.2 0-.4.2-.6 0-.3 0-.3.2-.6q0-.3 0-.6c0-.3 0-.3 0-.6s.2-.3.3-.6 0-.3 0-.6 0-.3 0-.6.2-.3.3-.6q0-.3 0-.6v-.6c0-.3.2-.3.2-.6s0-.3 0-.6 0-.3.2-.6q0-.3 0-.6c0-.3 0-.3 0-.6v-.5c0-.1-.3-.2-.5-.2h-6.5z"/><path d="m132.2.9c-.2 0-.4.1-.5.3-.2.1-.4.3-.4.5q0 .3-.1.6c0 .2 0 .4-.2.6q0 .3-.1.6t-.2.6c0 .3-.1.3-.2.6q0 .3-.1.6c-.1.3 0 .3 0 .6s-.1.3-.2.6v.6c0 .3-.1.3-.2.6v.6q0 .3-.1.6c0 .3-.1.3-.2.6q0 .3-.1.6 0 .3-.1.6c0 .3-.1.3-.2.6q0 .3-.1.6 0 .3-.1.6c0 .3-.1.3-.2.6q0 .3-.2.6 0 .3-.1.6 0 .3-.1.6c-.1.3-.2.3-.3.6v.6q0 .3-.2.6c0 .3 0 .3-.2.6s0 .3 0 .6c0 .2-.2.2-.4.2s-.3 0-.3-.2c0-.3 0-.3-.2-.6s0-.3-.2-.6v-.6c0-.3-.2-.3-.2-.6s0-.3-.2-.6v-.6c0-.3-.2-.3-.3-.6q0-.3 0-.6 0-.3 0-.6 0-.3-.2-.6c0-.3 0-.3-.2-.6q0-.3-.2-.6v-.6c0-.3 0-.3-.2-.6q0-.3 0-.6c0-.3 0-.3-.2-.6v-.6q0-.3 0-.6c0-.3 0-.3-.2-.6 0-.3 0-.3-.2-.6q0-.3 0-.6 0-.3 0-.6c0-.2-.3-.2-.3 0 0 .3-.2.3-.2.6s0 .3 0 .6q0 .3 0 .6v.6c0 .3-.2.3-.2.6v.6q0 .3-.2.6 0 .3-.2.6 0 .3-.2.6 0 .3 0 .6 0 .3-.2.6c0 .3 0 .3-.2.6q0 .3 0 .6 0 .3 0 .6 0 .3-.2.6c0 .3 0 .3-.2.6v.6q0 .3 0 .6c0 .3-.2.3-.3.6v.6q0 .3-.2.6-.2.3-.3.6v.7c0 .2 0 .5.2.7v.6c0 .3 0 .3.2.6 0 .3 0 .3.2.6q0 .3 0 .6 0 .3 0 .6c0 .3.2.3.2.6s0 .3 0 .6q0 .3.2.6v.6c0 .3.2.3.3.6s0 .3 0 .6 0 .3.2.6q0 .3 0 .6v.6c0 .3.2.3.3.6q0 .3 0 .6v.6c0 .3 0 .3.2.6s0 .3.2.6q0 .3 0 .6 0 .3.2.6 0 .3.2.6 0 .3 0 .6c0 .2.2.4.3.5.2 0 .4.2.6.2h4.8.6.6c.2 0 .4-.2.5-.3.2 0 .4-.2.4-.4q0-.3.1-.6v-.6c0-.3.2-.3.2-.6s0-.3.1-.6q0-.3.2-.6 0-.3.1-.6 0-.3.1-.6c0-.3.1-.3.2-.6q0-.3.1-.6c0-.3.1-.3.2-.6v-.6q0-.3.2-.6 0-.3.1-.6c0-.3.2-.3.2-.6v-.6c0-.3.1-.3.2-.6q0-.3.1-.6c.1-.3 0-.3.2-.6q0-.3.1-.6 0-.3.1-.6c0-.3.2-.3.2-.6v-.6c0-.3.1-.3.2-.6q0-.3.2-.6v-.6c0-.3.2-.3.3-.6 0-.2 0-.4.1-.6v-.6c0-.3.1-.3.2-.6v-.6c0-.3.1-.3.2-.6q0-.3.1-.6c.1-.3 0-.3.2-.6 0-.3.1-.3.2-.6q0-.3.1-.6 0-.3.2-.6 0-.3.1-.6c.1-.3 0-.3.2-.6q0-.3.1-.6c0-.3.1-.3.2-.6q0-.3.2-.6c.2-.3 0-.3.2-.6 0-.2 0-.4.1-.6 0-.3.1-.3.2-.6s0-.3.2-.6 0-.3.1-.6q0-.3.1-.6c.1-.3 0-.3.1-.6s.1-.3.2-.6q0-.3.2-.6 0-.3.1-.6c0-.3.2-.3.2-.6v-1c-.1-.1-.2-.3-.4-.3h-6v.3z"/><path d="m137.7 17.8v1.4c0 .3.1.3.2.6 0 .2 0 .4.2.6q0 .3.2.6t.1.6.1.6.2.6c0 .3.1.3.2.6v.6c0 .3.1.3.2.6q0 .3.1.6.1.3.2.6 0 .3.2.6 0 .3.1.6 0 .3.2.6 0 .3.2.6c.2.3 0 .3 0 .6s.1.3.2.6c0 .3.1.3.2.6q0 .3.1.6 0 .3.1.6 0 .3.2.6c0 .3.1.3.2.6v.6c0 .2.2.3.4.5.2 0 .3.2.6.2h5.4.6s.3-.2.4-.3c.1 0 .2-.3.1-.4q0-.3-.1-.6 0-.3-.2-.6c0-.3-.1-.3-.2-.6q0-.3-.2-.6v-.6c0-.3-.1-.3-.2-.6q0-.3-.1-.6c0-.3-.1-.3-.2-.6v-.6q0-.3-.1-.6c0-.3-.1-.3-.2-.6 0-.3-.1-.3-.2-.6q0-.3-.1-.6c0-.2 0-.4-.1-.6q0-.3-.2-.6v-.6q0-.3-.2-.6c0-.3-.1-.3-.2-.6 0-.3-.1-.3-.2-.6v-.6c0-.3-.1-.3-.2-.6q0-.3-.1-.6c0-.2 0-.4-.2-.6q0-.3-.1-.6 0-.3-.2-.6 0-.3-.1-.6v-.6c0-.3-.1-.3-.2-.6 0-.3-.1-.3-.2-.6q0-.3-.1-.6v-.6c0-.3-.2-.3-.2-.6s-.1-.3-.2-.6v-.6c0-.3-.2-.3-.3-.6q0-.3-.1-.6v-.6q0-.3-.1-.6c0-.3-.2-.3-.2-.6v-.6c0-.3-.1-.3-.2-.6 0-.3-.1-.3-.2-.6s0-.3-.1-.6 0-.3-.1-.6c0-.3-.2-.3-.2-.6s0-.3-.1-.6q0-.3-.2-.6v-.6c0-.2-.3-.2-.3 0 0 .3-.1.3-.2.6q0 .3-.1.6 0 .3-.2.6-.2.3-.3.6c-.1.3 0 .3 0 .6s0 .4-.2.6c0 .3-.2.3-.2.6s0 .3-.1.6q0 .3-.1.6 0 .3-.2.6c0 .2 0 .4-.1.6q0 .3-.1.6c0 .3-.1.3-.2.6 0 .3-.1.3-.2.6q0 .3-.1.6 0 .3-.2.6 0 .3-.1.6c0 .3-.1.3-.2.6q0 .3-.1.6c0 .2 0 .4-.2.6 0 .3-.1.3-.2.6q0 .3-.1.6l-.9.3z"/><path d="m207.2 34.5c3.4 0 6.1-1 8.3-3 2.1-2 3.3-4.7 3.5-8.1v-.2h-4v.2c-.1 2.2-.9 4-2.2 5.3s-3.2 2-5.3 2-4.6-1-6.1-2.9c-1.5-2-2.3-4.6-2.3-7.9s.7-6.2 2.2-8c1.5-1.9 3.6-2.8 6.2-2.8s3.7.5 4.9 1.4 2 2.3 2.4 4v.2h4.1v-.2c-.3-2.8-1.5-5-3.5-6.6s-4.6-2.4-7.7-2.4-7.1 1.3-9.4 3.8-3.5 6-3.5 10.3 1.1 8.3 3.3 11c2.2 2.6 5.3 4 9.2 4z"/><path d="m231.2 34.3c3 0 5.4-1 7.1-2.8 1.7-1.9 2.5-4.5 2.5-7.9s-.9-6-2.5-7.9c-1.7-1.9-4.1-2.8-7.2-2.8s-5.4 1-7.1 2.8c-1.7 1.9-2.5 4.5-2.5 7.9s.9 6 2.5 7.9c1.7 1.9 4.1 2.8 7.2 2.8zm4.3-5.2c-1 1.2-2.4 1.9-4.3 1.9s-3.3-.6-4.3-1.9-1.5-3.1-1.5-5.5.5-4.2 1.5-5.5c1-1.2 2.5-1.9 4.3-1.9s3.3.6 4.3 1.9 1.5 3.1 1.5 5.5-.5 4.2-1.5 5.5z"/><path d="m248.2 22.3c0-1.9.5-3.3 1.5-4.3s2.4-1.5 4.2-1.5 2.4.3 2.9 1c.6.7.8 2 .8 3.9v12.4h3.8v-13c0-1.4 0-2.5-.2-3.1-.1-.7-.4-1.3-.7-1.8-.6-.9-1.4-1.6-2.5-2.1-1-.5-2.3-.7-3.9-.7s-2.7.3-3.7.9c-.9.5-1.7 1.2-2.4 2.1v-2.4h-3.6v20.2h3.8v-11.5z"/><path d="m269.7 22.3c0-1.9.5-3.3 1.5-4.3s2.4-1.5 4.2-1.5 2.4.3 2.9 1c.6.7.8 2 .8 3.9v12.4h3.8v-13c0-1.4 0-2.5-.2-3.1-.1-.7-.4-1.3-.7-1.8-.6-.9-1.4-1.6-2.5-2.1-1-.5-2.3-.7-3.9-.7s-2.7.3-3.7.9c-.9.5-1.7 1.2-2.4 2.1v-2.4h-3.6v20.2h3.8v-11.5z"/><path d="m295.6 34.4c2.4 0 4.4-.7 5.9-1.9 1.6-1.3 2.6-3.1 2.9-5.3v-.3h-3.7v.2c-.3 1.2-.8 2.2-1.7 2.8-.8.7-1.9 1-3.2 1s-3-.5-4-1.6c-.9-1.1-1.4-2.6-1.5-4.5h14.2v-1.7c0-3.2-.8-5.8-2.4-7.5-1.6-1.8-3.9-2.7-6.8-2.7s-5.1 1-6.7 2.9-2.4 4.6-2.4 8 .8 5.8 2.4 7.7 3.9 2.8 6.7 2.8h.3zm-5.2-12.8c.2-1.7.7-3 1.6-3.9s2.1-1.4 3.7-1.4 2.9.5 3.8 1.4c.8.9 1.3 2.2 1.3 3.9z"/><path d="m316 34.3c2.6 0 4.8-.7 6.3-2.1 1.6-1.4 2.5-3.4 2.6-5.8v-.2h-3.6v.2c-.2 1.5-.8 2.6-1.7 3.4s-2.1 1.1-3.6 1.1-2.9-.6-3.8-1.9-1.4-3.1-1.4-5.4.5-4.2 1.4-5.4 2.3-1.9 4-1.9 2.6.4 3.5 1.1c.8.7 1.3 1.7 1.4 3v.2h3.7v-.2c-.1-2.3-.9-4.1-2.5-5.4-1.5-1.3-3.6-2-6.1-2s-5.2 1-6.8 2.9-2.5 4.6-2.5 7.9.8 5.9 2.4 7.8 3.8 2.9 6.5 2.9z"/><path d="m328.5 29.7c0 1.6.3 2.7 1 3.4.7.6 1.8 1 3.4 1s.7 0 1.2 0 .9 0 1.5-.2h.2v-3.3h-2c-.6 0-1-.1-1.2-.4-.1-.2-.3-.6-.3-1.6v-11.9h3.6v-3.1h-3.6v-5.5h-3.8v5.5h-3v3.1h3v13.1z"/></g></svg>