<svg viewBox="0 0 248 26" xmlns="http://www.w3.org/2000/svg"><g fill="#fff"><path d="m35.6 13v.5s0 .3 0 .5 0 .3 0 .5v.5.5.5.5.5c0 .2 0 .3.1.5v.5c0 .2.1.3.1.4v.5s.1.3.2.4c0 .1 0 .3.1.4 0 .1 0 .3.1.4 0 .1.1.3.2.4 0 .1.1.3.2.4s0 .3.1.4c0 .1.2.3.2.4s.2.3.3.4c0 .1.1.3.2.4 0 .1.2.3.3.4 0 .1.2.2.3.3 0 .1.2.2.3.3s.2.3.3.4.3.2.4.3c.1 0 .2.2.4.3.1 0 .2.2.4.3.1 0 .3.1.4.2.1 0 .3.2.4.2s.3.1.4.2c.1 0 .3 0 .4.1.1 0 .3 0 .4.1.1 0 .3.1.4.2h.5.5.4s0-.3 0-.4c0-.2 0-.2 0-.5s0-.2 0-.5 0-.2 0-.5 0-.2 0-.5v-.5c0-.2 0-.2 0-.5s0-.2 0-.5 0-.2 0-.5-.1-.3-.2-.4c0-.1-.2-.3-.3-.4-.1 0-.2-.2-.3-.3 0-.1-.2-.2-.3-.3 0-.1-.2-.2-.3-.4 0-.1-.1-.3-.2-.4 0-.1 0-.3-.1-.4 0-.1 0-.3-.1-.4 0-.1 0-.3 0-.5 0-.1 0-.3 0-.4s0-.3 0-.4 0-.3 0-.4c0-.2 0-.3 0-.5s0-.3 0-.4 0-.3 0-.5 0-.3 0-.5 0-.3 0-.5c0-.1 0-.3 0-.5s0-.3 0-.5 0-.3 0-.5 0-.3 0-.5 0-.3 0-.5 0-.3 0-.5c0-.1 0-.3 0-.5 0-.1 0-.3 0-.5 0-.1 0-.3 0-.5s.1-.3.1-.4 0-.3 0-.5 0-.3 0-.5.1-.3.1-.4c0-.2 0-.3 0-.4 0-.2 0-.3 0-.5s.1-.3.2-.4c0-.1 0-.3.1-.4 0-.1 0-.3.1-.4 0-.1.2-.3.2-.4s.2-.2.3-.3.2-.3.3-.3.2-.2.3-.3c0-.1.1-.3.1-.4s0-.2 0-.5 0-.2 0-.5 0-.2 0-.5 0-.2 0-.5 0-.2 0-.5 0-.2 0-.5 0-.2 0-.5v-.5c0-.1 0-.3 0-.4s-.2-.1-.4-.1-.3 0-.5 0c-.1 0-.3 0-.5 0-.1 0-.3 0-.4.1-.1 0-.3 0-.4.1-.1 0-.3 0-.4.1-.1 0-.3 0-.4.2-.1 0-.3.2-.4.2s-.3.1-.4.2c-.1 0-.2.2-.4.3-.1 0-.3.2-.4.3-.1 0-.2.2-.3.3s-.2.2-.3.3-.2.2-.3.3c0 .1-.2.2-.3.4 0 .1-.1.3-.2.4 0 .1-.2.2-.3.3 0 .1-.2.3-.2.4s0 .3-.1.4c0 .1-.2.2-.3.4 0 .1 0 .3-.1.4 0 .1 0 .3-.1.5 0 .1-.2.3-.2.4s0 .3-.1.4c0 .1 0 .3-.1.4v.5.5c0 .1 0 .3-.1.4v.5.5.5.5s0 .3 0 .5v.5.5.5s0 .3 0 .5z"/><path d="m57.9 13v.5s0 .3 0 .5 0 .3 0 .5v.5.5.5.5.5c0 .2 0 .3.1.5v.5c0 .2.1.3.1.4v.5c0 .1.1.3.2.4 0 .1 0 .3.1.4 0 .1 0 .3.1.4s.1.3.2.4c0 .1.1.3.2.4 0 .1 0 .3.1.4 0 .1.2.3.2.4s.2.3.3.4c0 .1.1.3.2.4 0 .1.2.3.3.4 0 .1.2.2.3.3 0 .1.2.2.3.3s.2.3.3.4.3.2.4.3c.1 0 .2.2.4.3.1 0 .2.2.4.3.1 0 .3.1.4.2.1 0 .3.2.4.2s.3.1.4.2c.1 0 .3 0 .4.1.1 0 .3 0 .4.1.1 0 .3.1.4.2h.5.5.4s0-.3 0-.4c0-.2 0-.2 0-.5s0-.2 0-.5 0-.2 0-.5 0-.2 0-.5v-.5c0-.2 0-.2 0-.5s0-.2 0-.5 0-.2 0-.5-.1-.3-.2-.4c0-.1-.2-.3-.3-.4-.1 0-.2-.2-.3-.3 0-.1-.2-.2-.3-.3 0-.1-.2-.2-.3-.4 0-.1-.1-.3-.2-.4 0-.1 0-.3-.1-.4 0-.1 0-.3-.1-.4 0-.1 0-.3 0-.5 0-.1 0-.3 0-.4s0-.3 0-.4 0-.3 0-.4c0-.2 0-.3 0-.5s0-.3 0-.4 0-.3 0-.5 0-.3 0-.5 0-.3 0-.5c0-.1 0-.3 0-.5s0-.3 0-.5 0-.3 0-.5 0-.3 0-.5 0-.3 0-.5 0-.3 0-.5c0-.1 0-.3 0-.5 0-.1 0-.3 0-.5 0-.1 0-.3 0-.5s.1-.3.1-.4 0-.3 0-.5 0-.3 0-.5.1-.3.1-.4c0-.2 0-.3 0-.4 0-.2 0-.3 0-.5s.1-.3.2-.4c0-.1 0-.3.1-.4 0-.1 0-.3.1-.4 0-.1.2-.3.2-.4s.2-.2.3-.3.2-.3.3-.3.2-.2.3-.3.1-.3.1-.4 0-.2 0-.5 0-.2 0-.5 0-.2 0-.5 0-.2 0-.5 0-.2 0-.5 0-.2 0-.5 0-.2 0-.5v-.5c0-.1 0-.3 0-.4s-.2-.1-.4-.1-.3 0-.5 0c-.1 0-.3 0-.5 0-.1 0-.3 0-.4.1-.1 0-.3 0-.4.1-.1 0-.3 0-.4.1-.1 0-.3 0-.4.2-.1 0-.3.2-.4.2s-.3.1-.4.2c-.1 0-.2.2-.4.3-.1 0-.3.2-.4.3-.1 0-.2.2-.3.3s-.2.2-.3.3-.2.2-.3.3c0 .1-.2.2-.3.4 0 .1-.1.3-.2.4 0 .1-.2.2-.3.3 0 .1-.2.3-.2.4s0 .3-.1.4c0 .1-.2.2-.3.4 0 .1 0 .3-.1.4 0 .1 0 .3-.1.5 0 .1-.2.3-.2.4s0 .3-.1.4c0 .1 0 .3-.1.4v.5.5c0 .1 0 .3-.1.4v.5.5.5.5s0 .3 0 .5v.5.5.5.5z"/><path d="m131.5 12.9s0 0 0 0c-.1 0-.2-.2-.3-.3-.1 0-.3-.1-.4-.2-.1 0-.3-.2-.4-.2s-.3-.1-.4-.2c-.1 0-.3-.2-.4-.2s-.3-.1-.4-.2c-.1 0-.3-.1-.4-.2-.1 0-.3 0-.4-.1-.1 0-.3-.1-.4-.2-.1 0-.3 0-.4-.1-.1 0-.3-.1-.4-.2-.1 0-.3 0-.4-.1-.1 0-.3 0-.4-.1-.1 0-.3-.1-.4-.2-.1 0-.3 0-.4-.1-.1 0-.3 0-.4-.1-.1 0-.3-.1-.4-.2-.1 0-.3 0-.4 0s-.3 0-.4 0-.3-.1-.4-.2c-.1 0-.3 0-.4-.1-.1 0-.3 0-.4-.1-.1 0-.3 0-.4-.1-.1 0-.3-.2-.4-.2s-.3 0-.4-.1c-.2 0-.3-.2-.4-.3-.1 0-.2-.2-.3-.3s-.2-.2-.3-.4c0-.1 0-.3-.1-.5 0-.2 0-.3 0-.5s0-.3 0-.5 0-.3 0-.5c0-.1.2-.3.2-.4s.1-.3.2-.4c.1 0 .2-.2.4-.3.1 0 .3 0 .5-.1.1 0 .3-.2.4-.2h.5c.1 0 .3 0 .4-.2 0-.1.1-.2.1-.4s0-.2 0-.4v-.4c0-.2 0-.2 0-.4s0-.2 0-.4 0-.2 0-.4 0-.2 0-.4 0-.2 0-.4v-.4c0-.1-.1-.3-.2-.4-.1 0-.2-.1-.4 0-.1 0-.3 0-.4 0s-.3 0-.4 0-.3 0-.4 0-.3 0-.5 0c-.1 0-.3 0-.4.1-.1 0-.3 0-.4.1-.1 0-.3.1-.4.2-.1 0-.3 0-.4 0s-.3.2-.4.2-.3.1-.4.2c-.1 0-.3.1-.4.2-.1 0-.3.1-.4.2-.1 0-.2.2-.4.3-.1 0-.3.2-.4.3-.1 0-.3.2-.4.3s-.2.2-.3.3-.2.2-.3.4c0 .1-.2.2-.3.4 0 .1-.2.2-.3.4 0 .1 0 .3-.1.4 0 .1-.1.3-.2.4 0 .1-.2.2-.2.4v.5c0 .1 0 .3-.1.4 0 .1-.1.3-.1.4v.4.5.4s0 .3 0 .5v.5.5c0 .1 0 .3.1.4 0 .1.1.3.2.4 0 .1.1.3.2.4 0 .1.1.3.2.4 0 .1 0 .3.2.4 0 .1.2.2.3.3 0 .1.2.3.3.4 0 .1.2.2.3.3s.2.2.3.3.2.3.3.4c.1 0 .3.1.4.2.1 0 .2.2.4.3.1 0 .2.2.3.3.1 0 .3.1.4.2s.3.1.4.2c.1 0 .3.1.4.2.1 0 .3.1.4.2.1 0 .3.1.4.2.1 0 .3.1.4.2.1 0 .3.1.4.2.1 0 .3 0 .4.1.1 0 .3.1.4.1s.3 0 .4.1c.1 0 .3.1.4.2.1 0 .3 0 .4.1.1 0 .3 0 .4.1.1 0 .3.1.4.2.1 0 .3 0 .4.1h.5c.1 0 .3.2.4.2s.3 0 .4.1h.5c.1 0 .3.2.4.2s.3 0 .4.1c.1 0 .3 0 .4.1.1 0 .2.2.3.3.1 0 .2.2.3.3 0 .1.1.2.2.4 0 .1.1.2.1.4v.4s0 .3 0 .4 0 .3-.1.4c0 .1-.2.2-.3.4 0 .1-.2.3-.3.3s-.2.2-.4.3c-.1 0-.3.1-.4.2-.1 0-.3 0-.4 0s-.3.1-.4.2c-.1 0-.3 0-.4 0s-.3.1-.4.2c0 .1-.2.3-.2.4v.4s0 .2 0 .4 0 .2 0 .4 0 .2 0 .4 0 .2 0 .4v.4.4s0 .2 0 .4 0 .3.2.4c0 0 .2.1.4.1h.5s.3-.1.5-.1h.5s.3 0 .5 0h.5.5c.1 0 .3 0 .4-.1.1 0 .3 0 .4-.1.1 0 .3-.1.4-.2.1 0 .3-.1.4-.2.1 0 .3-.2.4-.2s.3-.1.4-.2c.1 0 .3-.1.4-.2.1 0 .3-.2.4-.3.1 0 .2-.2.4-.3.1-.1.3-.2.4-.3s.2-.2.3-.3.2-.3.3-.4c0-.1.2-.3.2-.4s.2-.3.2-.4.2-.3.2-.4.1-.3.2-.4 0-.3.1-.4c0-.1.2-.3.2-.4s0-.3 0-.5 0-.3 0-.5 0-.3 0-.5 0-.3 0-.5v-.5c0-.1 0-.3 0-.5 0-.1 0-.3-.1-.4 0-.1 0-.3 0-.4s-.1-.3-.2-.4c0-.1 0-.3-.1-.4 0-.1 0-.3-.2-.4 0-.1-.2-.2-.3-.4 0-.1-.1-.3-.2-.4 0-.1-.2-.2-.3-.4s-.2-.2-.3-.4c-.1-.1-.2-.2-.4-.3-.1-.1-.2-.2-.3-.3z"/><path d="m20 1.3c0-.2-.2-.3-.3-.3s-.2-.2-.4-.2-.2 0-.4 0h-.4c-.2 0-.2 0-.4 0s-.2 0-.4 0-.2 0-.4 0-.2 0-.5 0-.2 0-.5 0-.2 0-.5 0-.2 0-.5 0-.2 0-.5 0-.3 0-.4.2c-.1 0-.2.2-.2.4s0 .2-.1.4c0 .2 0 .2-.1.4 0 .2 0 .2-.1.4 0 .2 0 .2-.2.4v.4.4c0 .2 0 .2-.1.4 0 .2 0 .2-.1.4v.4.4c0 .2-.1.2-.2.4s0 .2 0 .5c0 .2 0 .2-.1.4 0 .2 0 .2-.1.4v.4c0 .2 0 .2-.2.4v.4.4q0 .2-.1.4c0 .2-.1.2-.2.4v.5c0 .2 0 .2-.1.4 0 .2-.1.2-.2.4v.5c0 .2 0 .2-.1.4 0 .2 0 .2-.1.4 0 .2 0 .2-.1.4v.4c0 .2 0 .2-.1.4 0 .2-.1.2-.2.4v.4c0 .2 0 .2-.1.4v.5c0 .2-.1.2-.2.4 0 .2 0 .2-.1.4v.5.4c0 .2 0 .2-.1.4 0 .2 0 .2-.1.4v.4c0 .2-.1.2-.2.4 0 .2 0 .2-.1.4v.4.5c0 .2-.1.2-.2.4v.5c0 .2 0 .2-.1.4 0 .2 0 .2-.1.4 0 .2 0 .2-.1.4 0 .2 0 .2-.1.4 0 .2 0 .2-.1.4 0 .2-.1.2-.2.4v.5.3s.2.2.3.2h.5s.2 0 .5 0 .2 0 .5 0 .2 0 .5 0 .2 0 .5 0 .2 0 .5 0 .2 0 .5 0h.5.5s.2 0 .5 0 .3 0 .4-.2.2-.2.2-.4 0-.2.1-.4c0-.2 0-.2.1-.4 0-.2 0-.2 0-.5 0-.2 0-.2.1-.4 0-.2 0-.2.1-.4 0-.2.1-.2.2-.4 0-.2 0-.2 0-.5 0-.2.1-.2.2-.4 0-.2 0-.2 0-.5 0-.2 0-.2.1-.4 0-.2.1-.2.2-.4 0-.2 0-.2 0-.5q0-.2.1-.4c0-.2.1-.2.2-.4 0-.2 0-.2 0-.5 0-.2 0-.2 0-.5 0-.2 0-.2.1-.4 0-.2 0-.2.1-.4 0-.2 0-.2.1-.4 0-.2 0-.2.2-.4 0-.2 0-.2.1-.4 0-.2 0-.2 0-.5 0-.2 0-.2.1-.4 0-.2 0-.2 0-.5 0-.2 0-.2.1-.4 0-.2 0-.2 0-.5 0-.2 0-.2.1-.4 0-.1.2-.2.3-.2s.2 0 .3.2c0 .2.1.2.2.4v.5q0 .2.1.4c0 .2.1.2.2.4v.5c0 .2 0 .2.1.4 0 .2.1.2.2.4v.5c0 .2 0 .2.1.4 0 .2 0 .2.1.4 0 .2 0 .2.1.4 0 .2 0 .2.1.4v.5c0 .2 0 .2.1.4v.5c0 .2.1.2.2.4 0 .2 0 .2.1.4 0 .2 0 .2.1.4v.5c0 .2.1.2.2.4v.5c0 .2 0 .2.1.4 0 .1.3.1.3 0 0-.2 0-.2 0-.4s0-.2 0-.5c0-.2.1-.2.2-.4 0-.2 0-.2 0-.5 0-.2 0-.2.1-.4q0-.2.1-.4c0-.2 0-.2 0-.5 0-.2.1-.2.2-.4 0-.2 0-.2.1-.4 0-.2 0-.2 0-.5 0-.2 0-.2.1-.4 0-.2 0-.2 0-.5 0-.2 0-.2.1-.4 0-.2 0-.2.1-.4 0-.2 0-.2.1-.4s0-.2.1-.4c0-.2 0-.2.1-.4 0-.2 0-.2.1-.4 0-.2 0-.2 0-.5q0-.2.1-.4c0-.2 0-.2 0-.5 0-.2 0-.2.1-.4 0-.2 0-.3 0-.5s0-.3 0-.5q0-.2-.1-.4c0-.2 0-.2 0-.5 0-.2 0-.2-.1-.4 0-.2 0-.2-.1-.4 0-.2 0-.2-.2-.4 0-.2 0-.2-.1-.4 0-.2 0-.2 0-.5 0-.2 0-.2-.1-.4 0-.2 0-.2-.1-.4 0-.2 0-.2 0-.5 0-.2-.1-.2-.2-.4s0-.2 0-.5 0-.2 0-.5 0-.2-.1-.4c0-.2 0-.2-.1-.4 0-.2 0-.2-.1-.4 0-.2 0-.2-.2-.4 0-.2 0-.2 0-.5 0-.2 0-.2-.1-.4 0-.2 0-.2 0-.5 0-.2 0-.2 0-.5 0-.2-.1-.2-.2-.4 0-.2 0-.2 0-.5z"/><path d="m85.3.7c-.2 0-.3 0-.4.2-.1 0-.3.2-.3.3v.4q0 .2-.1.4c0 .2 0 .2-.1.4 0 .2 0 .2-.1.4 0 .2 0 .2-.1.4 0 .2 0 .2-.1.4v.5c0 .2-.1.2-.2.4v.5c0 .2 0 .2-.1.4v.4.4c0 .2 0 .2-.1.4 0 .2 0 .2-.1.4 0 .2 0 .2-.1.4 0 .2 0 .2-.2.4v.4.4c0 .2 0 .2-.1.4 0 .2 0 .2-.1.4v.4.4c0 .2-.1.2-.2.4v.5c0 .2 0 .2-.1.4 0 .2 0 .2-.1.4v.4c0 .2 0 .2-.2.4v.4.4q0 .2-.1.4c0 .2-.1.2-.2.4v.5c0 .2 0 .2-.1.4 0 .2-.1.2-.2.4v.5c0 .2 0 .2-.1.4 0 .2 0 .2-.1.4 0 .2 0 .2-.1.4v.4c0 .2 0 .2-.1.4 0 .2-.1.2-.2.4v.4c0 .2 0 .2-.1.4v.5c0 .2-.1.2-.2.4 0 .2 0 .2-.1.4v.5.4c0 .2 0 .2-.1.4 0 .2 0 .2-.1.4v.4c0 .2-.1.2-.2.4v.4s.2.1.4.1h.4s.2 0 .4 0 .2 0 .4 0 .2 0 .4 0h.4.5s.2 0 .5 0 .2 0 .5 0 .2 0 .5 0 .2 0 .5 0 .3 0 .4-.2c.1 0 .2-.2.3-.4 0-.2.1-.2.2-.4 0-.2 0-.2 0-.5 0-.2 0-.2 0-.4s.1-.2.2-.4c0-.2 0-.2 0-.5 0-.2 0-.2.1-.4 0-.2.1-.2.2-.4 0-.2 0-.2.1-.4 0-.2 0-.2 0-.5 0-.2.1-.2.2-.4 0-.2 0-.2 0-.4s0-.2 0-.4 0-.2.1-.4c0-.2 0-.2.1-.4 0-.2 0-.2 0-.5 0-.2 0-.2.1-.4q0-.2.1-.4c0-.2.1-.2.2-.4 0-.2 0-.2 0-.5 0-.2.1-.2.2-.4 0-.2 0-.2 0-.4s0-.2.1-.4c0-.2.1-.2.2-.4 0-.2 0-.2 0-.5q0-.2.1-.4c0-.2.1-.2.2-.4 0-.2 0-.2 0-.4s0-.2 0-.4 0-.2.1-.4q0-.2.1-.4c0-.2 0-.2.1-.4 0-.2 0-.2.1-.4 0-.2 0-.2.1-.4 0-.2 0-.2 0-.4s0-.2.1-.4c0-.2 0-.2 0-.4s0-.2.1-.4c0-.2 0-.2 0-.4q0-.2.1-.4c0-.2.1-.2.2-.4 0-.2 0-.2 0-.4s0-.2 0-.5.1-.2.2-.4c0-.2 0-.2.1-.4 0-.2 0-.2 0-.5 0-.2.1-.2.2-.4s0-.2 0-.4 0-.2 0-.5c0-.2.1-.2.2-.4 0-.2 0-.2.1-.4 0-.2 0-.2.1-.4 0-.2 0-.2 0-.4s0-.2 0-.4c0-.1 0-.3 0-.4 0 0-.2-.1-.3-.1-.2 0-.2 0-.5 0s-.2 0-.5 0h-.5c-.2 0-.2 0-.5 0s-.2 0-.5 0-.2 0-.5 0-.2 0-.5 0-.2 0-.5 0-.2 0-.5 0c-.2 0-.2 0-.5 0z"/><path d="m35.6 13v.5s0 .3 0 .5 0 .3 0 .5v.5.5.5.5.5c0 .2 0 .3.1.5v.5c0 .2.1.3.1.4v.5s.1.3.2.4c0 .1 0 .3.1.4 0 .1 0 .3.1.4 0 .1.1.3.2.4 0 .1.1.3.2.4s0 .3.1.4c0 .1.2.3.2.4s.2.3.3.4c0 .1.1.3.2.4 0 .1.2.3.3.4 0 .1.2.2.3.3 0 .1.2.2.3.3s.2.3.3.4.3.2.4.3c.1 0 .2.2.4.3.1 0 .2.2.4.3.1 0 .3.1.4.2.1 0 .3.2.4.2s.3.1.4.2c.1 0 .3 0 .4.1.1 0 .3 0 .4.1.1 0 .3.1.4.2h.5.5.4s0-.3 0-.4c0-.2 0-.2 0-.5s0-.2 0-.5 0-.2 0-.5 0-.2 0-.5v-.5c0-.2 0-.2 0-.5s0-.2 0-.5 0-.2 0-.5-.1-.3-.2-.4c0-.1-.2-.3-.3-.4-.1 0-.2-.2-.3-.3 0-.1-.2-.2-.3-.3 0-.1-.2-.2-.3-.4 0-.1-.1-.3-.2-.4 0-.1 0-.3-.1-.4 0-.1 0-.3-.1-.4 0-.1 0-.3 0-.5 0-.1 0-.3 0-.4s0-.3 0-.4 0-.3 0-.4c0-.2 0-.3 0-.5s0-.3 0-.4 0-.3 0-.5 0-.3 0-.5 0-.3 0-.5c0-.1 0-.3 0-.5s0-.3 0-.5 0-.3 0-.5 0-.3 0-.5 0-.3 0-.5 0-.3 0-.5c0-.1 0-.3 0-.5 0-.1 0-.3 0-.5 0-.1 0-.3 0-.5s.1-.3.1-.4 0-.3 0-.5 0-.3 0-.5.1-.3.1-.4c0-.2 0-.3 0-.4 0-.2 0-.3 0-.5s.1-.3.2-.4c0-.1 0-.3.1-.4 0-.1 0-.3.1-.4 0-.1.2-.3.2-.4s.2-.2.3-.3.2-.3.3-.3.2-.2.3-.3c0-.1.1-.3.1-.4s0-.2 0-.5 0-.2 0-.5 0-.2 0-.5 0-.2 0-.5 0-.2 0-.5 0-.2 0-.5 0-.2 0-.5v-.5c0-.1 0-.3 0-.4s-.2-.1-.4-.1-.3 0-.5 0c-.1 0-.3 0-.5 0-.1 0-.3 0-.4.1-.1 0-.3 0-.4.1-.1 0-.3 0-.4.1-.1 0-.3 0-.4.2-.1 0-.3.2-.4.2s-.3.1-.4.2c-.1 0-.2.2-.4.3-.1 0-.3.2-.4.3-.1 0-.2.2-.3.3s-.2.2-.3.3-.2.2-.3.3c0 .1-.2.2-.3.4 0 .1-.1.3-.2.4 0 .1-.2.2-.3.3 0 .1-.2.3-.2.4s0 .3-.1.4c0 .1-.2.2-.3.4 0 .1 0 .3-.1.4 0 .1 0 .3-.1.5 0 .1-.2.3-.2.4s0 .3-.1.4c0 .1 0 .3-.1.4v.5.5c0 .1 0 .3-.1.4v.5.5.5.5s0 .3 0 .5v.5.5.5s0 .3 0 .5z"/><path d="m46.5.2c-.1 0-.3 0-.3.2 0 0-.2.2-.2.3v.5.5.5s0 .2 0 .5 0 .2 0 .5 0 .2 0 .5 0 .2 0 .5 0 .2 0 .5 0 .3.2.5c0 .1.2.3.3.4.1 0 .3.2.4.3 0 .1.2.2.3.4 0 .1.1.3.2.4 0 .1.1.3.2.4 0 .1.1.3.2.4v.4c0 .1 0 .3.1.4 0 .1 0 .3.1.4v.5.4.4.4.5.4.5s0 .3 0 .5v.5.5s0 .3 0 .5 0 .3 0 .5 0 .3 0 .5v.5s0 .3 0 .5v.5c0 .1-.1.3-.1.4v.5.4.4.4.4c0 .1 0 .3-.1.4 0 .1-.2.3-.2.4s0 .3-.1.4c0 .1-.2.3-.2.4s-.1.3-.2.4-.2.2-.4.3c-.1 0-.3.2-.3.4v.5s0 .2 0 .5 0 .2 0 .5 0 .2 0 .5 0 .2 0 .5 0 .2 0 .5 0 .2 0 .5 0 .2 0 .5 0 .2 0 .5 0 .3 0 .4.2 0 .4 0h.5.5.4c.1 0 .3 0 .4-.1.1 0 .3 0 .4-.1.1 0 .3 0 .4-.1s.3-.2.4-.2.3-.2.4-.3c.1 0 .3-.2.4-.2s.3-.1.4-.2c.1 0 .2-.2.3-.3s.2-.2.3-.3.3-.2.4-.3c0-.1.1-.3.2-.4s.2-.2.3-.4c0-.1.2-.2.3-.3s.2-.3.2-.4 0-.3.1-.4c0-.1.2-.2.3-.4 0-.1 0-.3.1-.4 0-.1 0-.3.1-.4 0-.1.1-.3.2-.4 0-.1 0-.3.1-.4 0-.1 0-.3 0-.5 0-.1 0-.3.1-.4 0-.2 0-.3 0-.5s.1-.3.1-.4 0-.3 0-.5 0-.3.1-.5c0-.2 0-.3 0-.5s0-.3 0-.5.1-.3.1-.5 0-.3 0-.5 0-.3 0-.5 0-.3 0-.5 0-.3 0-.5 0-.3 0-.5v-.5c0-.1 0-.3 0-.5 0-.1 0-.3 0-.5 0-.1 0-.3 0-.5 0-.1 0-.3 0-.5 0-.1 0-.3 0-.5 0-.1 0-.3 0-.5s0-.3 0-.5c0-.1 0-.3 0-.5 0-.1 0-.3-.1-.4 0-.1 0-.3 0-.4s0-.3 0-.5c0-.1 0-.3-.1-.4 0-.1-.1-.3-.2-.4 0-.1 0-.3 0-.5 0-.1-.1-.3-.2-.4 0-.1-.2-.3-.3-.4 0-.1 0-.3-.1-.5 0-.1-.2-.3-.3-.4 0-.1-.2-.2-.3-.4 0-.1-.1-.3-.2-.4 0-.1-.2-.2-.3-.4 0-.1-.2-.2-.3-.3s-.2-.2-.3-.3-.2-.2-.4-.3c-.1 0-.2-.2-.3-.3-.1 0-.3-.2-.4-.2s-.2-.2-.4-.3c-.1 0-.3 0-.4-.2-.1 0-.3-.1-.4-.2-.1 0-.3 0-.4-.1-.1 0-.3-.2-.4-.2s-.3 0-.5 0c-.1 0-.3 0-.4-.1-.2 0-.3 0-.5 0z"/><path d="m57.9 13v.5s0 .3 0 .5 0 .3 0 .5v.5.5.5.5.5c0 .2 0 .3.1.5v.5c0 .2.1.3.1.4v.5c0 .1.1.3.2.4 0 .1 0 .3.1.4 0 .1 0 .3.1.4s.1.3.2.4c0 .1.1.3.2.4 0 .1 0 .3.1.4 0 .1.2.3.2.4s.2.3.3.4c0 .1.1.3.2.4 0 .1.2.3.3.4 0 .1.2.2.3.3 0 .1.2.2.3.3s.2.3.3.4.3.2.4.3c.1 0 .2.2.4.3.1 0 .2.2.4.3.1 0 .3.1.4.2.1 0 .3.2.4.2s.3.1.4.2c.1 0 .3 0 .4.1.1 0 .3 0 .4.1.1 0 .3.1.4.2h.5.5.4s0-.3 0-.4c0-.2 0-.2 0-.5s0-.2 0-.5 0-.2 0-.5 0-.2 0-.5v-.5c0-.2 0-.2 0-.5s0-.2 0-.5 0-.2 0-.5-.1-.3-.2-.4c0-.1-.2-.3-.3-.4-.1 0-.2-.2-.3-.3 0-.1-.2-.2-.3-.3 0-.1-.2-.2-.3-.4 0-.1-.1-.3-.2-.4 0-.1 0-.3-.1-.4 0-.1 0-.3-.1-.4 0-.1 0-.3 0-.5 0-.1 0-.3 0-.4s0-.3 0-.4 0-.3 0-.4c0-.2 0-.3 0-.5s0-.3 0-.4 0-.3 0-.5 0-.3 0-.5 0-.3 0-.5c0-.1 0-.3 0-.5s0-.3 0-.5 0-.3 0-.5 0-.3 0-.5 0-.3 0-.5 0-.3 0-.5c0-.1 0-.3 0-.5 0-.1 0-.3 0-.5 0-.1 0-.3 0-.5s.1-.3.1-.4 0-.3 0-.5 0-.3 0-.5.1-.3.1-.4c0-.2 0-.3 0-.4 0-.2 0-.3 0-.5s.1-.3.2-.4c0-.1 0-.3.1-.4 0-.1 0-.3.1-.4 0-.1.2-.3.2-.4s.2-.2.3-.3.2-.3.3-.3.2-.2.3-.3.1-.3.1-.4 0-.2 0-.5 0-.2 0-.5 0-.2 0-.5 0-.2 0-.5 0-.2 0-.5 0-.2 0-.5 0-.2 0-.5v-.5c0-.1 0-.3 0-.4s-.2-.1-.4-.1-.3 0-.5 0c-.1 0-.3 0-.5 0-.1 0-.3 0-.4.1-.1 0-.3 0-.4.1-.1 0-.3 0-.4.1-.1 0-.3 0-.4.2-.1 0-.3.2-.4.2s-.3.1-.4.2c-.1 0-.2.2-.4.3-.1 0-.3.2-.4.3-.1 0-.2.2-.3.3s-.2.2-.3.3-.2.2-.3.3c0 .1-.2.2-.3.4 0 .1-.1.3-.2.4 0 .1-.2.2-.3.3 0 .1-.2.3-.2.4s0 .3-.1.4c0 .1-.2.2-.3.4 0 .1 0 .3-.1.4 0 .1 0 .3-.1.5 0 .1-.2.3-.2.4s0 .3-.1.4c0 .1 0 .3-.1.4v.5.5c0 .1 0 .3-.1.4v.5.5.5.5s0 .3 0 .5v.5.5.5.5z"/><path d="m68.7.2c-.1 0-.3 0-.3.2 0 0-.2.2-.2.3v.5.5.5s0 .2 0 .5 0 .2 0 .5 0 .2 0 .5 0 .2 0 .5 0 .2 0 .5 0 .3.2.5c0 .1.2.3.3.4.1 0 .3.2.4.3 0 .1.2.2.3.4 0 .1.1.3.2.4 0 .1.1.3.2.4 0 .1.1.3.2.4v.4c0 .1 0 .3.1.4 0 .1 0 .3.1.4v.5.4s0 .3 0 .4v.4s0 .3 0 .5v.4.5s0 .3 0 .5v.5.5s0 .3 0 .5 0 .3 0 .5 0 .3 0 .5v.5s0 .3 0 .5v.5c0 .1-.1.3-.1.4v.5.4.4.4.4c0 .1 0 .3-.1.4 0 .1-.2.3-.2.4s0 .3-.1.4c0 .1-.2.3-.2.4s-.1.3-.2.4-.2.2-.4.3c-.1 0-.3.2-.3.4v.5s0 .2 0 .5 0 .2 0 .5 0 .2 0 .5 0 .2 0 .5 0 .2 0 .5 0 .2 0 .5 0 .2 0 .5 0 .2 0 .5 0 .3 0 .4.2 0 .4 0h.5.5.4c.1 0 .3 0 .4-.1.1 0 .3 0 .4-.1.1 0 .3 0 .4-.1.1 0 .3-.2.4-.2s.3-.2.4-.3c.1 0 .3-.2.4-.2s.3-.1.4-.2c.1 0 .2-.2.3-.3s.2-.2.3-.3.3-.2.4-.3c0-.1.1-.3.2-.4 0-.1.2-.2.3-.4 0-.1.2-.2.3-.3 0-.1.2-.3.2-.4s0-.3.1-.4c0-.1.2-.2.3-.4 0-.1 0-.3.1-.4 0-.1 0-.3.1-.4 0-.1.1-.3.2-.4 0-.1 0-.3.1-.4 0-.1 0-.3 0-.5 0-.1 0-.3.1-.4 0-.2 0-.3 0-.5s.1-.3.1-.4 0-.3 0-.5 0-.3.1-.5c0-.2 0-.3 0-.5s0-.3 0-.5.1-.3.1-.5 0-.3 0-.5 0-.3 0-.5 0-.3 0-.5 0-.3 0-.5 0-.3 0-.5v-.5c0-.1 0-.3 0-.5 0-.1 0-.3 0-.5 0-.1 0-.3 0-.5 0-.1 0-.3 0-.5 0-.1 0-.3 0-.5 0-.1 0-.3 0-.5s0-.3 0-.5c0-.1 0-.3 0-.5 0-.1 0-.3-.1-.4 0-.1 0-.3 0-.4s0-.3 0-.5c0-.1 0-.3-.1-.4 0-.1-.1-.3-.2-.4 0-.1 0-.3 0-.5 0-.1-.1-.3-.2-.4 0-.1-.2-.3-.3-.4 0-.1 0-.3-.1-.5 0-.1-.2-.3-.3-.4 0-.1-.2-.2-.3-.4 0-.1-.1-.3-.2-.4 0-.1-.2-.2-.3-.4 0-.1-.2-.2-.3-.3s-.2-.2-.3-.3-.2-.2-.4-.3c-.1 0-.2-.2-.3-.3-.1 0-.3-.2-.4-.2s-.2-.2-.4-.3c-.1 0-.3 0-.4-.2-.1 0-.3-.1-.4-.2-.1 0-.3 0-.4-.1-.1 0-.3-.2-.4-.2s-.3 0-.5 0c-.1 0-.3 0-.4-.1-.2 0-.3 0-.5 0z"/><path d="m119.4 17.5c0-.1-.1-.3-.2-.3 0 0-.2-.2-.4-.2s-.2 0-.4 0h-.4c-.2 0-.2 0-.4 0s-.2 0-.4 0-.2 0-.4 0-.2 0-.4 0-.2 0-.4 0-.2 0-.4 0-.2 0-.4 0-.2 0-.4 0-.2 0-.4 0-.2 0-.3.2c0 0-.2.2-.1.3v.5.5.5c0 .1 0 .3.1.4 0 .1.1.3.1.4s0 .3.1.4c0 .1 0 .3.1.4 0 .1.1.3.2.4 0 .1.2.3.2.4s0 .3.2.4c0 .1.2.2.3.4 0 .1.2.3.3.4 0 .1.2.3.3.4s.2.2.3.3.2.2.3.3.3.2.4.3c.1 0 .3.1.4.2.1 0 .3.2.4.2s.2.2.4.3c.1 0 .3 0 .4.1.1 0 .3.1.4.2.1 0 .3.2.4.2h.5c.1 0 .3.1.4.1.2 0 .3 0 .4.1h.5.5s.3 0 .5 0 .3.1.5.1c.1 0 .3 0 .4-.2 0 0 .2-.2.2-.4s0-.2 0-.4 0-.2 0-.4v-.4c0-.2 0-.2 0-.4s0-.2 0-.4 0-.2 0-.4 0-.2 0-.4 0-.2 0-.4 0-.3 0-.4-.3-.2-.4-.2c-.2 0-.3 0-.5-.1-.1 0-.3 0-.5-.2-.1 0-.2-.2-.4-.3-.1 0-.3-.1-.4-.3-.1-.1-.2-.2-.3-.4 0-.1-.2-.3-.3-.4 0-.1-.1-.3-.2-.4s-.1-.3-.2-.4c0-.2 0-.3 0-.5 0-.1 0-.3 0-.5z"/><path d="m127.9 8.2c0 .1.1.3.2.3 0 0 .2.2.4.2h.4.4.4s.2 0 .4 0 .2 0 .4 0 .2 0 .4 0 .2 0 .4 0 .2 0 .4 0 .2 0 .4 0 .2 0 .4 0 .2 0 .4 0 .2 0 .3-.2c0 0 .2-.2.1-.3 0-.2 0-.3 0-.5 0-.1 0-.3 0-.5 0-.1 0-.3 0-.5 0-.1 0-.3-.1-.4 0-.1-.1-.3-.1-.4s0-.3-.1-.4c0-.1 0-.3-.1-.4 0-.1-.1-.3-.2-.4 0-.1-.2-.3-.2-.4s0-.3-.2-.4c0-.1-.2-.2-.3-.4 0-.1-.2-.3-.3-.4 0-.1-.2-.3-.3-.4s-.2-.2-.3-.3-.2-.2-.3-.3-.3-.2-.4-.3c-.1 0-.3-.1-.4-.2-.1 0-.3-.2-.4-.2s-.2-.2-.4-.3c-.1 0-.3 0-.4-.1-.1 0-.3-.1-.4-.2-.1 0-.3-.2-.4-.2s-.3 0-.5 0c-.1 0-.3-.1-.4-.1-.2 0-.3 0-.4-.1-.2 0-.3 0-.5 0-.1 0-.3 0-.5 0s-.3 0-.5 0-.3-.1-.5-.1c-.1 0-.3 0-.4.2 0 0-.2.2-.2.4v.4s0 .2 0 .4v.4.4s0 .2 0 .4 0 .2 0 .4 0 .2 0 .4 0 .2 0 .4 0 .3 0 .4.3.2.4.2c.2 0 .3 0 .5.1.1 0 .3 0 .5.2.1 0 .2.2.4.3.1 0 .3.1.4.3.1.1.2.2.3.4 0 .1.2.3.3.4 0 .1.1.3.2.4s.1.3.2.4v.5.5z"/><path d="m131.5 12.9s0 0 0 0c-.1 0-.2-.2-.3-.3-.1 0-.3-.1-.4-.2-.1 0-.3-.2-.4-.2s-.3-.1-.4-.2c-.1 0-.3-.2-.4-.2s-.3-.1-.4-.2c-.1 0-.3-.1-.4-.2-.1 0-.3 0-.4-.1-.1 0-.3-.1-.4-.2-.1 0-.3 0-.4-.1-.1 0-.3-.1-.4-.2-.1 0-.3 0-.4-.1-.1 0-.3 0-.4-.1-.1 0-.3-.1-.4-.2-.1 0-.3 0-.4-.1-.1 0-.3 0-.4-.1-.1 0-.3-.1-.4-.2-.1 0-.3 0-.4 0s-.3 0-.4 0-.3-.1-.4-.2c-.1 0-.3 0-.4-.1-.1 0-.3 0-.4-.1-.1 0-.3 0-.4-.1-.1 0-.3-.2-.4-.2s-.3 0-.4-.1c-.2 0-.3-.2-.4-.3-.1 0-.2-.2-.3-.3s-.2-.2-.3-.4c0-.1 0-.3-.1-.5 0-.2 0-.3 0-.5s0-.3 0-.5 0-.3 0-.5c0-.1.2-.3.2-.4s.1-.3.2-.4c.1 0 .2-.2.4-.3.1 0 .3 0 .5-.1.1 0 .3-.2.4-.2h.5c.1 0 .3 0 .4-.2 0-.1.1-.2.1-.4s0-.2 0-.4v-.4c0-.2 0-.2 0-.4s0-.2 0-.4 0-.2 0-.4 0-.2 0-.4 0-.2 0-.4v-.4c0-.1-.1-.3-.2-.4-.1 0-.2-.1-.4 0-.1 0-.3 0-.4 0s-.3 0-.4 0-.3 0-.4 0-.3 0-.5 0c-.1 0-.3 0-.4.1-.1 0-.3 0-.4.1-.1 0-.3.1-.4.2-.1 0-.3 0-.4 0s-.3.2-.4.2-.3.1-.4.2c-.1 0-.3.1-.4.2-.1 0-.3.1-.4.2-.1 0-.2.2-.4.3-.1 0-.3.2-.4.3-.1 0-.3.2-.4.3s-.2.2-.3.3-.2.2-.3.4c0 .1-.2.2-.3.4 0 .1-.2.2-.3.4 0 .1 0 .3-.1.4 0 .1-.1.3-.2.4 0 .1-.2.2-.2.4v.5c0 .1 0 .3-.1.4 0 .1-.1.3-.1.4v.4.5.4s0 .3 0 .5v.5.5c0 .1 0 .3.1.4 0 .1.1.3.2.4 0 .1.1.3.2.4 0 .1.1.3.2.4 0 .1 0 .3.2.4 0 .1.2.2.3.3 0 .1.2.3.3.4 0 .1.2.2.3.3s.2.2.3.3.2.3.3.4c.1 0 .3.1.4.2.1 0 .2.2.4.3.1 0 .2.2.3.3.1 0 .3.1.4.2s.3.1.4.2c.1 0 .3.1.4.2.1 0 .3.1.4.2.1 0 .3.1.4.2.1 0 .3.1.4.2.1 0 .3.1.4.2.1 0 .3 0 .4.1.1 0 .3.1.4.1s.3 0 .4.1c.1 0 .3.1.4.2.1 0 .3 0 .4.1.1 0 .3 0 .4.1.1 0 .3.1.4.2.1 0 .3 0 .4.1h.5c.1 0 .3.2.4.2s.3 0 .4.1h.5c.1 0 .3.2.4.2s.3 0 .4.1c.1 0 .3 0 .4.1.1 0 .2.2.3.3.1 0 .2.2.3.3 0 .1.1.2.2.4 0 .1.1.2.1.4v.4s0 .3 0 .4 0 .3-.1.4c0 .1-.2.2-.3.4 0 .1-.2.3-.3.3s-.2.2-.4.3c-.1 0-.3.1-.4.2-.1 0-.3 0-.4 0s-.3.1-.4.2c-.1 0-.3 0-.4 0s-.3.1-.4.2c0 .1-.2.3-.2.4v.4s0 .2 0 .4 0 .2 0 .4 0 .2 0 .4 0 .2 0 .4v.4.4s0 .2 0 .4 0 .3.2.4c0 0 .2.1.4.1h.5s.3-.1.5-.1h.5s.3 0 .5 0h.5.5c.1 0 .3 0 .4-.1.1 0 .3 0 .4-.1.1 0 .3-.1.4-.2.1 0 .3-.1.4-.2.1 0 .3-.2.4-.2s.3-.1.4-.2c.1 0 .3-.1.4-.2.1 0 .3-.2.4-.3.1 0 .2-.2.4-.3.1-.1.3-.2.4-.3s.2-.2.3-.3.2-.3.3-.4c0-.1.2-.3.2-.4s.2-.3.2-.4.2-.3.2-.4.1-.3.2-.4 0-.3.1-.4c0-.1.2-.3.2-.4s0-.3 0-.5 0-.3 0-.5 0-.3 0-.5 0-.3 0-.5v-.5c0-.1 0-.3 0-.5 0-.1 0-.3-.1-.4 0-.1 0-.3 0-.4s-.1-.3-.2-.4c0-.1 0-.3-.1-.4 0-.1 0-.3-.2-.4 0-.1-.2-.2-.3-.4 0-.1-.1-.3-.2-.4 0-.1-.2-.2-.3-.4s-.2-.2-.3-.4c-.1-.1-.2-.2-.4-.3-.1-.1-.2-.2-.3-.3z"/><path d="m21.7 24.5c0 .1 0 .2.1.3 0 0 .2.2.3.2h.5.5.5s.2 0 .5 0 .2 0 .5 0 .2 0 .5 0 .2 0 .5 0 .2 0 .5 0 .2 0 .5 0 .2 0 .5 0 .3 0 .4-.2c.1 0 .2-.2.2-.4s0-.2.1-.4c0-.2 0-.2.1-.4 0-.2 0-.2.1-.4 0-.2 0-.2.2-.4 0-.2 0-.2 0-.4s0-.2 0-.4 0-.2.1-.4c0-.2 0-.2.1-.4 0-.2 0-.2 0-.4s0-.2 0-.4.1-.2.2-.4c0-.2 0-.2 0-.5 0-.2 0-.2.1-.4 0-.2 0-.2.1-.4 0-.2 0-.2 0-.4s0-.2.2-.4c0-.2 0-.2 0-.4s0-.2 0-.4q0-.2.1-.4c0-.2.1-.2.2-.4 0-.2 0-.2 0-.5 0-.2 0-.2.1-.4 0-.2.1-.2.2-.4 0-.2 0-.2 0-.5 0-.2 0-.2.1-.4 0-.2 0-.2.1-.4 0-.2 0-.2.1-.4 0-.2 0-.2 0-.4s0-.2.1-.4c0-.2.1-.2.2-.4 0-.2 0-.2 0-.4s0-.2.1-.4c0-.2 0-.2 0-.5 0-.2.1-.2.2-.4 0-.2 0-.2.1-.4 0-.2 0-.2 0-.5 0-.2 0-.2 0-.4s0-.2.1-.4c0-.2 0-.2.1-.4 0-.2 0-.2 0-.4s.1-.2.2-.4c0-.2 0-.2.1-.4s0-.2 0-.4 0-.2 0-.5c0-.2.1-.2.2-.4 0-.2 0-.2 0-.5 0-.2 0-.2.1-.4 0-.2 0-.2.1-.4 0-.2 0-.2.1-.4 0-.2 0-.2.1-.4 0-.2 0-.2.1-.4 0-.2.1-.2.2-.4s0-.2 0-.5c0-.1 0-.3 0-.3s-.2-.2-.3-.2c-.2 0-.2 0-.4 0s-.2 0-.4 0-.2 0-.4 0-.2 0-.4 0-.2 0-.4 0-.2 0-.5 0-.2 0-.5 0h-.5c-.2 0-.2 0-.5 0s-.2 0-.5 0-.3 0-.4.2c-.1 0-.2.2-.2.4s0 .2-.1.4c0 .2 0 .2-.1.4v.5c0 .2 0 .2-.1.4q0 .2-.1.4c0 .2-.1.2-.2.4v.5c0 .2-.1.2-.2.4v.4s0 .2-.1.4c0 .2-.1.2-.2.4v.5q0 .2-.1.4c0 .2-.1.2-.2.4s0 .2 0 .4v.4c0 .2 0 .2-.1.4q0 .2-.1.4c0 .2 0 .2-.1.4 0 .2 0 .2-.1.4 0 .2 0 .2-.1.4v.4c0 .2 0 .2-.1.4v.4c0 .2 0 .2-.1.4v.4q0 .2-.1.4c0 .2-.1.2-.2.4v.4.5c0 .2-.1.2-.2.4q0 .2-.1.4v.5c0 .2-.1.2-.2.4v.4.5c0 .2-.1.2-.2.4 0 .2 0 .2-.1.4 0 .2 0 .2-.1.4v.4.4c0 .2 0 .2-.1.4v.4c0 .2 0 .2-.2.4v.5c0 .2 0 .2-.1.4 0 .2 0 .2-.1.4 0 .2-.1.2-.2.4v.5c0 .2 0 .2-.2.4v.4c0 .2 0 .2-.1.4 0 .2 0 .2-.1.4z"/><path d="m20 1.3c0-.2-.2-.3-.3-.3s-.2-.2-.4-.2-.2 0-.4 0h-.4c-.2 0-.2 0-.4 0s-.2 0-.4 0-.2 0-.4 0-.2 0-.5 0-.2 0-.5 0-.2 0-.5 0-.2 0-.5 0-.2 0-.5 0-.3 0-.4.2c-.1 0-.2.2-.2.4s0 .2-.1.4c0 .2 0 .2-.1.4 0 .2 0 .2-.1.4 0 .2 0 .2-.2.4v.4.4c0 .2 0 .2-.1.4 0 .2 0 .2-.1.4v.4.4c0 .2-.1.2-.2.4s0 .2 0 .5c0 .2 0 .2-.1.4 0 .2 0 .2-.1.4v.4c0 .2 0 .2-.2.4v.4.4q0 .2-.1.4c0 .2-.1.2-.2.4v.5c0 .2 0 .2-.1.4 0 .2-.1.2-.2.4v.5c0 .2 0 .2-.1.4 0 .2 0 .2-.1.4 0 .2 0 .2-.1.4v.4c0 .2 0 .2-.1.4 0 .2-.1.2-.2.4v.4c0 .2 0 .2-.1.4v.5c0 .2-.1.2-.2.4 0 .2 0 .2-.1.4v.5.4c0 .2 0 .2-.1.4 0 .2 0 .2-.1.4v.4c0 .2-.1.2-.2.4 0 .2 0 .2-.1.4v.4.5c0 .2-.1.2-.2.4v.5c0 .2 0 .2-.1.4 0 .2 0 .2-.1.4 0 .2 0 .2-.1.4 0 .2 0 .2-.1.4 0 .2 0 .2-.1.4 0 .2-.1.2-.2.4v.5.3s.2.2.3.2h.5s.2 0 .5 0 .2 0 .5 0 .2 0 .5 0 .2 0 .5 0 .2 0 .5 0 .2 0 .5 0h.5.5s.2 0 .5 0 .3 0 .4-.2.2-.2.2-.4 0-.2.1-.4c0-.2 0-.2.1-.4 0-.2 0-.2 0-.5 0-.2 0-.2.1-.4 0-.2 0-.2.1-.4 0-.2.1-.2.2-.4 0-.2 0-.2 0-.5 0-.2.1-.2.2-.4 0-.2 0-.2 0-.5 0-.2 0-.2.1-.4 0-.2.1-.2.2-.4 0-.2 0-.2 0-.5q0-.2.1-.4c0-.2.1-.2.2-.4 0-.2 0-.2 0-.5 0-.2 0-.2 0-.5 0-.2 0-.2.1-.4 0-.2 0-.2.1-.4 0-.2 0-.2.1-.4 0-.2 0-.2.2-.4 0-.2 0-.2.1-.4 0-.2 0-.2 0-.5 0-.2 0-.2.1-.4 0-.2 0-.2 0-.5 0-.2 0-.2.1-.4 0-.2 0-.2 0-.5 0-.2 0-.2.1-.4 0-.1.2-.2.3-.2s.2 0 .3.2c0 .2.1.2.2.4v.5q0 .2.1.4c0 .2.1.2.2.4v.5c0 .2 0 .2.1.4 0 .2.1.2.2.4v.5c0 .2 0 .2.1.4 0 .2 0 .2.1.4 0 .2 0 .2.1.4 0 .2 0 .2.1.4v.5c0 .2 0 .2.1.4v.5c0 .2.1.2.2.4 0 .2 0 .2.1.4 0 .2 0 .2.1.4v.5c0 .2.1.2.2.4v.5c0 .2 0 .2.1.4 0 .1.3.1.3 0 0-.2 0-.2 0-.4s0-.2 0-.5c0-.2.1-.2.2-.4 0-.2 0-.2 0-.5 0-.2 0-.2.1-.4q0-.2.1-.4c0-.2 0-.2 0-.5 0-.2.1-.2.2-.4 0-.2 0-.2.1-.4 0-.2 0-.2 0-.5 0-.2 0-.2.1-.4 0-.2 0-.2 0-.5 0-.2 0-.2.1-.4 0-.2 0-.2.1-.4 0-.2 0-.2.1-.4s0-.2.1-.4c0-.2 0-.2.1-.4 0-.2 0-.2.1-.4 0-.2 0-.2 0-.5q0-.2.1-.4c0-.2 0-.2 0-.5 0-.2 0-.2.1-.4 0-.2 0-.3 0-.5s0-.3 0-.5q0-.2-.1-.4c0-.2 0-.2 0-.5 0-.2 0-.2-.1-.4 0-.2 0-.2-.1-.4 0-.2 0-.2-.2-.4 0-.2 0-.2-.1-.4 0-.2 0-.2 0-.5 0-.2 0-.2-.1-.4 0-.2 0-.2-.1-.4 0-.2 0-.2 0-.5 0-.2-.1-.2-.2-.4s0-.2 0-.5 0-.2 0-.5 0-.2-.1-.4c0-.2 0-.2-.1-.4 0-.2 0-.2-.1-.4 0-.2 0-.2-.2-.4 0-.2 0-.2 0-.5 0-.2 0-.2-.1-.4 0-.2 0-.2 0-.5 0-.2 0-.2 0-.5 0-.2-.1-.2-.2-.4 0-.2 0-.2 0-.5z"/><path d="m6.3 1.2c0-.2-.2-.3-.3-.3s-.2-.2-.4-.2-.2 0-.4 0h-.4c-.2 0-.2 0-.4 0s-.2 0-.4 0-.2 0-.4 0-.2 0-.5 0-.2 0-.5 0-.2 0-.5 0-.2 0-.5 0-.2 0-.5 0-.2 0-.3.2v.3.4c0 .2 0 .2.1.4 0 .2 0 .2.1.4v.4c0 .2 0 .2.1.4 0 .2 0 .2.1.4v.4s0 .2.1.4c0 .2 0 .2.1.4 0 .2 0 .2.1.4v.5c0 .2.1.2.2.4s0 .2.1.4v.4c0 .2 0 .2.1.4v.4c0 .2 0 .2.1.4 0 .2 0 .2.1.4q0 .2.1.4v.5c0 .2.1.2.2.4q0 .2.1.4v.5c0 .2.1.2.2.4v.4.4c0 .2 0 .2.1.4 0 .2 0 .2.1.4 0 .2 0 .2.1.4v.5s0 .2.1.4v.4c0 .2.1.2.2.4v.5c0 .2 0 .2.1.4 0 .2.1.2.2.4 0 .2 0 .2.1.4v.4q0 .2.1.4c0 .2 0 .2.1.4v.5c0 .2 0 .2.1.4 0 .2 0 .2.1.4 0 .2.1.2.2.4v.5c0 .2.1.2.2.4 0 .2 0 .2.1.4 0 .2 0 .2.1.4 0 .1.2.1.3 0 0-.2 0-.2.1-.4 0-.2 0-.2.1-.4 0-.2.1-.2.2-.4 0-.2 0-.2 0-.5 0-.2 0-.2 0-.5 0-.2 0-.2.1-.4 0-.2.1-.2.2-.4 0-.2 0-.2 0-.5 0-.2 0-.2 0-.4s.1-.2.2-.4c0-.2 0-.2 0-.5 0-.2 0-.2.1-.4 0-.2.1-.2.2-.4 0-.2 0-.2.1-.4 0-.2 0-.2 0-.5 0-.2.1-.2.2-.4 0-.2 0-.2 0-.5 0-.2 0-.2 0-.5 0-.2 0-.2.1-.4 0-.2 0-.2.1-.4 0-.2 0-.2 0-.5 0-.2 0-.2.1-.4 0-.2 0-.3 0-.5s0-.4 0-.5c0-.2-.1-.2-.2-.4 0-.2 0-.2 0-.5 0-.2 0-.2-.1-.4 0-.2 0-.2-.1-.4 0-.2 0-.2 0-.5 0-.2-.1-.2-.2-.4 0-.2 0-.2-.1-.4 0-.2 0-.2 0-.5 0-.2 0-.2-.1-.4 0-.2 0-.2-.1-.4 0-.2 0-.2-.1-.4s0-.2-.1-.4c0-.2 0-.2-.1-.4 0-.2 0-.2 0-.5 0-.2 0-.2 0-.5 0-.2 0-.2-.1-.4q0-.2-.1-.4c0-.2 0-.2-.1-.4 0-.2 0-.2 0-.5 0-.2 0-.2-.1-.4 0-.2 0-.2-.1-.4 0-.2 0-.2 0-.5 0-.2 0-.2-.1-.4z"/><path d="m85.3.7c-.2 0-.3 0-.4.2-.1 0-.3.2-.3.3v.4s0 .2-.1.4c0 .2 0 .2-.1.4 0 .2 0 .2-.1.4 0 .2 0 .2-.1.4 0 .2 0 .2-.1.4v.5c0 .2-.1.2-.2.4v.5c0 .2 0 .2-.1.4v.4.4c0 .2 0 .2-.1.4 0 .2 0 .2-.1.4 0 .2 0 .2-.1.4 0 .2 0 .2-.2.4v.4.4c0 .2 0 .2-.1.4 0 .2 0 .2-.1.4v.4.4c0 .2-.1.2-.2.4v.5c0 .2 0 .2-.1.4 0 .2 0 .2-.1.4v.4c0 .2 0 .2-.2.4v.4.4q0 .2-.1.4c0 .2-.1.2-.2.4v.5c0 .2 0 .2-.1.4 0 .2-.1.2-.2.4v.5c0 .2 0 .2-.1.4 0 .2 0 .2-.1.4 0 .2 0 .2-.1.4v.4c0 .2 0 .2-.1.4 0 .2-.1.2-.2.4v.4c0 .2 0 .2-.1.4v.5c0 .2-.1.2-.2.4 0 .2 0 .2-.1.4v.5.4c0 .2 0 .2-.1.4 0 .2 0 .2-.1.4v.4c0 .2-.1.2-.2.4v.4s.2.1.4.1h.4s.2 0 .4 0 .2 0 .4 0 .2 0 .4 0h.4.5s.2 0 .5 0 .2 0 .5 0 .2 0 .5 0 .2 0 .5 0 .3 0 .4-.2c.1 0 .2-.2.3-.4 0-.2.1-.2.2-.4 0-.2 0-.2 0-.5 0-.2 0-.2 0-.4s.1-.2.2-.4c0-.2 0-.2 0-.5 0-.2 0-.2.1-.4 0-.2.1-.2.2-.4 0-.2 0-.2.1-.4 0-.2 0-.2 0-.5 0-.2.1-.2.2-.4 0-.2 0-.2 0-.4s0-.2 0-.4 0-.2.1-.4c0-.2 0-.2.1-.4 0-.2 0-.2 0-.5 0-.2 0-.2.1-.4q0-.2.1-.4c0-.2.1-.2.2-.4 0-.2 0-.2 0-.5 0-.2.1-.2.2-.4 0-.2 0-.2 0-.4s0-.2.1-.4c0-.2.1-.2.2-.4 0-.2 0-.2 0-.5q0-.2.1-.4c0-.2.1-.2.2-.4 0-.2 0-.2 0-.4s0-.2 0-.4 0-.2.1-.4q0-.2.1-.4c0-.2 0-.2.1-.4 0-.2 0-.2.1-.4 0-.2 0-.2.1-.4 0-.2 0-.2 0-.4s0-.2.1-.4c0-.2 0-.2 0-.4s0-.2.1-.4c0-.2 0-.2 0-.4q0-.2.1-.4c0-.2.1-.2.2-.4 0-.2 0-.2 0-.4s0-.2 0-.5.1-.2.2-.4c0-.2 0-.2.1-.4 0-.2 0-.2 0-.5 0-.2.1-.2.2-.4 0-.2 0-.2 0-.4s0-.2 0-.5c0-.2.1-.2.2-.4 0-.2 0-.2.1-.4 0-.2 0-.2.1-.4 0-.2 0-.2 0-.4s0-.2 0-.4c0-.1 0-.3 0-.4 0 0-.2-.1-.3-.1-.2 0-.2 0-.5 0s-.2 0-.5 0h-.5c-.2 0-.2 0-.5 0s-.2 0-.5 0-.2 0-.5 0-.2 0-.5 0-.2 0-.5 0-.2 0-.5 0c-.2 0-.2 0-.5 0z"/><path d="m99 .7c-.2 0-.3 0-.4.2-.1 0-.3.2-.3.3v.5q0 .2-.1.4c0 .2 0 .2-.1.4 0 .2 0 .2-.1.4 0 .2 0 .2-.1.4 0 .2 0 .2-.1.4v.5c0 .2-.1.2-.2.4v.5c0 .2 0 .2-.1.4v.5.4c0 .2 0 .2-.1.4 0 .2 0 .2-.1.4 0 .2 0 .2-.1.4 0 .2 0 .2-.2.4v.5.5c0 .2 0 .2-.1.4 0 .2 0 .2-.1.4 0 .2 0 .2-.1.4v.5c0 .2-.1.2-.2.4v.5c0 .2 0 .2-.1.4 0 .2 0 .2-.1.4v.5c0 .1-.2.2-.3.2s-.2 0-.3-.2c0-.2 0-.2-.1-.4q0-.2-.1-.4c0-.2 0-.2 0-.5 0-.2-.1-.2-.2-.4 0-.2 0-.2-.1-.4 0-.2 0-.2 0-.5 0-.2-.1-.2-.2-.4 0-.2 0-.2 0-.5 0-.2 0-.2 0-.4s0-.2-.1-.4c0-.2 0-.2-.1-.4 0-.2 0-.2-.1-.4 0-.2 0-.2 0-.5 0-.2 0-.2-.1-.4 0-.2 0-.2 0-.5 0-.2-.1-.2-.2-.4s0-.2 0-.5c0-.2 0-.2-.1-.4 0-.2-.1-.2-.2-.4 0-.2 0-.2-.1-.4 0-.2 0-.2 0-.5 0-.2 0-.2-.1-.4 0-.1-.2-.1-.2 0 0 .2-.1.2-.2.4 0 .2 0 .2-.1.4v.4.5c0 .2-.1.2-.2.4v.5c0 .2 0 .2-.1.4 0 .2 0 .2-.1.4 0 .2 0 .2-.1.4 0 .2 0 .2-.1.4 0 .2 0 .2-.1.4 0 .2-.1.2-.2.4v.5.5c0 .2 0 .2-.1.4 0 .2-.1.2-.2.4s0 .2 0 .5v.5c0 .2-.1.2-.2.4v.5c0 .2 0 .2-.1.4 0 .2-.1.2-.2.4v.5s0 .3.1.5v.5c0 .2 0 .2.1.4 0 .2 0 .2.1.4v.4c0 .2 0 .2.1.4 0 .2.1.2.2.4 0 .2 0 .2.1.4 0 .2 0 .2.1.4v.5c0 .2.1.2.2.4v.5c0 .2 0 .2.1.4 0 .2 0 .2.1.4v.5c0 .2.1.2.2.4 0 .2 0 .2.1.4v.5c0 .2 0 .2.1.4 0 .2 0 .2.1.4 0 .2 0 .2.1.4 0 .2 0 .2.1.4 0 .2 0 .2.1.4v.5c0 .2.1.3.2.4.1 0 .3.1.4.1h.4.4s.2 0 .4 0 .2 0 .4 0h.4.5s.2 0 .5 0 .2 0 .5 0 .2 0 .5 0h.5c.2 0 .3-.1.4-.2.1 0 .3-.2.3-.3 0-.2 0-.2 0-.4s0-.2 0-.5c0-.2.1-.2.2-.4 0-.2 0-.2.1-.4 0-.2 0-.2.1-.4 0-.2 0-.2 0-.4s0-.2 0-.4 0-.2.1-.4c0-.2 0-.2 0-.4s0-.2.2-.4c0-.2 0-.2 0-.5 0-.2 0-.2.1-.4 0-.2 0-.2.1-.4 0-.2.1-.2.2-.4 0-.2 0-.2 0-.5 0-.2 0-.2.2-.4 0-.2 0-.2 0-.4s0-.2.1-.4c0-.2 0-.2 0-.4s0-.2 0-.4.1-.2.2-.4c0-.2 0-.2 0-.5 0-.2 0-.2.1-.4 0-.2 0-.2.1-.4 0-.2 0-.2 0-.5 0-.2.1-.2.2-.4q0-.2.1-.4c0-.2 0-.2 0-.5 0-.2 0-.2.1-.4 0-.2 0-.2 0-.5s0-.2.1-.4c0-.2 0-.2.1-.4 0-.2 0-.2.1-.4 0-.2 0-.2.1-.4 0-.2 0-.2.1-.4 0-.2 0-.2.1-.4 0-.2 0-.2 0-.4q0-.2.1-.4c0-.2 0-.2 0-.4s0-.2.1-.4c0-.2 0-.2.1-.4q0-.2.1-.4t.1-.4c0-.2 0-.2.2-.4s0-.2.1-.4c0-.2 0-.2 0-.4s0-.2 0-.4 0-.2.1-.4c0-.2 0-.2.1-.4s0-.2.1-.4c0-.2 0-.2 0-.4s.1-.2.2-.4c0-.2 0-.2 0-.5 0-.1 0-.2 0-.3 0 0-.2-.2-.3-.2-.2 0-.2 0-.5 0s-.2 0-.5 0-.2 0-.5 0-.2 0-.5 0-.2 0-.5 0-.2 0-.5 0-.2 0-.5 0-.2 0-.5 0-.2 0-.5 0-.2 0-.5 0z"/><path d="m103.1 13.2v.5s0 .4 0 .5c0 .2 0 .2.1.4q0 .2.1.4c0 .2 0 .2.1.4v.5.5c0 .2 0 .2.1.4 0 .2.1.2.2.4v.5c0 .2.1.2.2.4v.5c0 .2 0 .2.2.4 0 .2 0 .2.1.4v.5c0 .2 0 .2.1.4 0 .2 0 .2.1.4v.5s0 .2.1.4c0 .2 0 .2.1.4v.5c0 .2 0 .2.1.4 0 .2 0 .2.1.4 0 .2 0 .2.1.4v.5c0 .2.2.3.3.4.1 0 .3.2.4.2h.4s.2 0 .4 0 .2 0 .4 0 .2 0 .4 0 .2 0 .4 0h.5.5s.2 0 .5 0h.5.5s.2-.1.3-.2c0 0 .1-.2 0-.3 0-.2 0-.2 0-.4s0-.2-.1-.4c0-.2 0-.2-.1-.4 0-.2 0-.2-.1-.4 0-.2 0-.2 0-.5 0-.2 0-.2-.1-.4 0-.2 0-.2 0-.4s-.1-.2-.2-.4c0-.2 0-.2 0-.5 0-.2 0-.2-.1-.4 0-.2-.1-.2-.2-.4 0-.2 0-.2-.1-.4 0-.2 0-.2 0-.4q0-.2-.1-.4c0-.2 0-.2-.1-.4 0-.2 0-.2 0-.5 0-.2 0-.2-.1-.4 0-.2 0-.2-.1-.4 0-.2-.1-.2-.2-.4 0-.2 0-.2 0-.5 0-.2-.1-.2-.2-.4 0-.2 0-.2-.1-.4q0-.2-.1-.4c0-.2 0-.2-.1-.4 0-.2 0-.2-.1-.4 0-.2 0-.2 0-.4s0-.2 0-.4 0-.2-.2-.4c0-.2 0-.2-.1-.4 0-.2 0-.2-.1-.4 0-.2 0-.2 0-.5 0-.2-.1-.2-.2-.4 0-.2 0-.2-.1-.4 0-.2 0-.2 0-.5 0-.2-.1-.2-.2-.4 0-.2 0-.2-.1-.4 0-.2 0-.2 0-.5 0-.2 0-.2-.1-.4 0-.2-.1-.2-.2-.4 0-.2 0-.2 0-.5s0-.2-.1-.4c0-.2 0-.2-.1-.4 0-.2 0-.2 0-.4s0-.2-.1-.4c0-.2-.1-.2-.2-.4 0-.2 0-.2-.1-.4s0-.2-.1-.4c0-.2 0-.2 0-.5 0-.1-.2-.1-.2 0 0 .2-.1.2-.2.4v.5c0 .2 0 .2-.1.4s-.1.2-.2.4v.5q0 .2-.1.4c0 .2-.1.2-.2.4v.5.4c0 .2 0 .2-.1.4q0 .2-.1.4c0 .2 0 .2-.1.4 0 .2 0 .2-.1.4 0 .2 0 .2-.1.4v.5c0 .2 0 .2-.1.4s0 .2 0 .4 0 .2-.1.4v.4q0 .2-.1.4c0 .2 0 .2-.2.4 0 .2 0 .2-.1.4z"/><g stroke="#333" stroke-miterlimit="10" stroke-width=".2"><path d="m144 25 7.6-20.5h3.1l7.6 20.5h-3l-2.2-6.1h-8.1l-2.2 6.1h-2.9zm6-8.5h6.4l-3.2-9z"/><path d="m174.6 15.1c0-1-.4-1.8-1.1-2.4-.7-.5-1.6-.8-2.7-.8s-2.4.5-3.1 1.5-1.1 2.4-1.1 4.2.4 3.2 1.1 4.2 1.7 1.5 3 1.5 2.1-.3 2.8-.9 1.1-1.5 1.3-2.6h2.4c-.1 1.8-.8 3.2-1.9 4.3-1.2 1-2.7 1.5-4.7 1.5s-3.6-.7-4.8-2.1-1.7-3.3-1.7-5.8.6-4.4 1.8-5.9c1.2-1.4 2.9-2.1 5-2.1s3.4.5 4.5 1.5 1.7 2.3 1.8 4h-2.5z"/><path d="m183.2 21.3c0 .7.1 1.1.3 1.3s.5.3 1.1.3h.5.8v2.1c-.4 0-.8.1-1.1.2-.3 0-.6 0-.9 0-1.2 0-2-.2-2.5-.7s-.7-1.3-.7-2.4v-10h-2.2v-2h2.2v-4.2h2.5v4.2h2.7v2h-2.7v9.1z"/><path d="m188.8 7.4v-2.9h2.5v2.8h-2.5zm0 17.6v-14.9h2.5v14.9z"/><path d="m199.3 25-5.5-14.9h2.7l4.2 11.9 4.1-11.9h2.7l-5.4 14.9h-2.7z"/><path d="m219.2 23c-.8.8-1.6 1.4-2.5 1.8s-1.8.6-2.8.6c-1.5 0-2.7-.4-3.6-1.2-.8-.8-1.3-1.9-1.3-3.3s.4-2.4 1.3-3.2c.8-.8 2.1-1.3 3.8-1.5.4 0 1-.1 1.8-.2 1.3-.1 2-.3 2.3-.4s.5-.3.6-.4c0-.2.1-.6.1-1.2s-.3-1.3-.8-1.7c-.6-.4-1.4-.6-2.5-.6s-2 .2-2.6.7-.9 1.2-.9 2.1h-2.4c0-1.6.5-2.8 1.6-3.7 1-.9 2.5-1.3 4.4-1.3s3.5.4 4.4 1.1 1.4 1.9 1.4 3.5v7.4c0 .6 0 1 .2 1.2.1.2.4.3.7.3s.2 0 .3 0h.4v1.9c-.3 0-.6.1-.8.2-.2 0-.4 0-.6 0-.8 0-1.5-.2-1.9-.5-.4-.4-.6-.9-.6-1.6zm-.3-5.6c-.7.4-1.8.6-3.4.8-.6 0-1 .1-1.3.2-.9.1-1.6.4-2 .8s-.6.9-.6 1.7.2 1.3.7 1.7 1.1.6 2 .6c1.3 0 2.4-.3 3.3-1s1.3-1.5 1.3-2.6z"/><path d="m228.9 21.3c0 .7.1 1.1.3 1.3s.5.3 1.1.3h.5.8v2.1c-.4 0-.8.1-1.1.2-.3 0-.6 0-.9 0-1.2 0-2-.2-2.5-.7s-.7-1.3-.7-2.4v-10h-2.2v-2h2.2v-4.2h2.5v4.2h2.7v2h-2.7v9.1z"/><path d="m244.6 20.2h2.5c-.3 1.6-1 2.9-2.1 3.9-1.2.9-2.6 1.4-4.4 1.4s-3.7-.7-4.9-2.1-1.8-3.3-1.8-5.7.6-4.5 1.8-6c1.2-1.4 2.8-2.1 4.9-2.1s3.8.7 5 2 1.8 3.2 1.8 5.6v.7.4h-10.7c0 1.6.4 2.8 1.2 3.6.7.9 1.8 1.3 3.1 1.3s1.9-.3 2.5-.8c.7-.5 1.1-1.3 1.3-2.2zm-8.1-4h8.2c0-1.4-.4-2.5-1.1-3.2s-1.7-1.1-3-1.1-2.2.4-2.9 1.1-1.1 1.8-1.3 3.2z"/></g></g></svg>