<svg width="240" height="253" viewBox="0 0 240 253" fill="none" xmlns="http://www.w3.org/2000/svg">
<rect y="0.470459" width="240" height="252" rx="10" fill="white"/>
<path d="M39.5545 38.4525C39.5545 39.9218 39.3138 41.1885 38.8325 42.2525C38.3512 43.2911 37.7052 44.1525 36.8945 44.8365C36.1092 45.5205 35.1718 46.0271 34.0825 46.3565C33.0185 46.6605 31.9038 46.8125 30.7385 46.8125C29.5478 46.8125 28.4205 46.6605 27.3565 46.3565C26.2925 46.0271 25.3552 45.5205 24.5445 44.8365C23.7592 44.1525 23.1258 43.2911 22.6445 42.2525C22.1632 41.1885 21.9225 39.9218 21.9225 38.4525V28.2685C21.9225 26.7231 22.1632 25.4185 22.6445 24.3545C23.1258 23.2905 23.7592 22.4291 24.5445 21.7705C25.3552 21.1118 26.2925 20.6431 27.3565 20.3645C28.4205 20.0605 29.5478 19.9085 30.7385 19.9085C31.9038 19.9085 33.0185 20.0605 34.0825 20.3645C35.1718 20.6431 36.1092 21.1118 36.8945 21.7705C37.7052 22.4291 38.3512 23.2905 38.8325 24.3545C39.3138 25.4185 39.5545 26.7105 39.5545 28.2305V38.4525ZM34.2345 28.7245C34.2345 27.3058 33.9432 26.2291 33.3605 25.4945C32.8032 24.7598 31.9292 24.3925 30.7385 24.3925C29.5225 24.3925 28.6232 24.7598 28.0405 25.4945C27.4832 26.2291 27.2045 27.3058 27.2045 28.7245V37.9965C27.2045 39.4151 27.4832 40.4918 28.0405 41.2265C28.6232 41.9611 29.5225 42.3285 30.7385 42.3285C31.9292 42.3285 32.8032 41.9611 33.3605 41.2265C33.9432 40.4918 34.2345 39.4151 34.2345 37.9965V28.7245ZM56.124 20.2505L47.954 38.2245H52.97V31.5365H58.29V38.2245H60.684V42.7465H58.29V46.4705H52.97V42.7465H41.342V39.0605L50.31 20.2505H56.124Z" fill="#00A73C"/>
<path d="M154.289 116.033C154.302 97.3304 139.1 82.1292 120.398 82.1423C110.846 82.1511 102.204 86.1228 96.0316 92.5021C108.25 81.9886 126.68 82.507 138.248 94.0749C144.311 100.138 147.338 108.09 147.334 116.042H141.627L150.8 131.951L160 116.033H154.293" fill="white"/>
<path d="M154.289 116.033C154.302 97.3304 139.1 82.1292 120.398 82.1423C110.846 82.1511 102.204 86.1228 96.0316 92.5021C108.25 81.9886 126.68 82.507 138.248 94.0749C144.311 100.138 147.338 108.09 147.334 116.042H141.627L150.8 131.951L160 116.033H154.293" stroke="white" stroke-width="2" stroke-linecap="round" stroke-linejoin="round"/>
<path d="M147.334 116.038L141.627 116.042L150.796 131.946L159.996 116.029L154.289 116.033" stroke="#00A73C" stroke-width="2" stroke-linecap="round" stroke-linejoin="round"/>
<path d="M154.262 116.06C154.262 97.3744 139.061 82.1687 120.371 82.1687C110.829 82.1687 102.196 86.1316 96.0316 92.5021" stroke="#00A73C" stroke-width="2" stroke-linecap="round" stroke-linejoin="round"/>
<path d="M85.7071 116.908C85.6939 135.61 100.895 150.812 119.598 150.799C129.149 150.79 137.791 146.818 143.964 140.439C131.746 150.952 113.311 150.434 101.747 138.87C95.6846 132.807 92.6575 124.855 92.6619 116.903H98.3689L89.1955 100.995L80 116.912H85.7071" fill="white"/>
<path d="M85.7071 116.908C85.6939 135.61 100.895 150.812 119.598 150.799C129.149 150.79 137.791 146.818 143.964 140.439C131.746 150.952 113.311 150.434 101.747 138.87C95.6846 132.807 92.6575 124.855 92.6619 116.903H98.3689L89.1955 100.995L80 116.912H85.7071" stroke="white" stroke-width="2" stroke-linecap="round" stroke-linejoin="round"/>
<path d="M92.6663 116.903L98.3733 116.899L89.1998 100.995L80 116.912L85.7071 116.908" stroke="#00A73C" stroke-width="2" stroke-linecap="round" stroke-linejoin="round"/>
<path d="M85.707 116.907C85.6939 135.61 100.895 150.812 119.598 150.798C129.149 150.79 137.791 146.818 143.964 140.439" stroke="#00A73C" stroke-width="2" stroke-linecap="round" stroke-linejoin="round"/>
<path d="M122.644 97.4771H117.199C116.824 97.4771 116.456 97.7816 116.382 98.1495L115.382 102.856C115.309 103.227 114.967 103.662 114.623 103.823L111.609 105.562C111.298 105.78 110.749 105.86 110.391 105.736L105.815 104.254C105.461 104.134 105.016 104.301 104.825 104.626L102.106 109.329C101.918 109.653 101.995 110.122 102.276 110.369L105.852 113.594C106.136 113.845 106.344 114.356 106.31 114.734V118.213C106.347 118.591 106.14 119.103 105.852 119.354L102.276 122.569C101.992 122.816 101.915 123.284 102.102 123.609L104.829 128.332C105.016 128.657 105.461 128.824 105.815 128.703L110.391 127.211C110.749 127.088 111.298 127.168 111.609 127.385L114.62 129.128C114.964 129.289 115.305 129.724 115.379 130.095L116.379 134.801C116.453 135.169 116.817 135.47 117.195 135.47H122.638C123.012 135.47 123.38 135.166 123.454 134.798L124.454 130.092C124.528 129.72 124.869 129.282 125.213 129.125L128.227 127.385C128.538 127.168 129.087 127.088 129.445 127.211L134.024 128.693C134.379 128.814 134.824 128.647 135.011 128.322L137.731 123.616C137.918 123.291 137.841 122.823 137.557 122.575L133.984 119.351C133.7 119.1 133.492 118.588 133.526 118.21V114.731C133.492 114.353 133.696 113.838 133.984 113.59L137.563 110.376C137.848 110.128 137.925 109.66 137.737 109.335L135.011 104.612C134.824 104.288 134.379 104.12 134.024 104.241L129.448 105.729C129.09 105.853 128.542 105.776 128.231 105.555L125.217 103.816C124.872 103.655 124.531 103.221 124.457 102.846L123.457 98.1395C123.384 97.7715 123.019 97.4705 122.641 97.4705L122.644 97.4771ZM119.925 109.516C123.772 109.516 126.886 112.634 126.886 116.48C126.886 120.327 123.768 123.442 119.925 123.442C116.081 123.442 112.964 120.324 112.964 116.48C112.964 112.637 116.081 109.516 119.925 109.516Z" fill="#EBF5E9" stroke="#00A73C" stroke-width="2" stroke-linecap="round" stroke-linejoin="round"/>
<path d="M67.1003 185.654C67.0363 186.15 67.0043 186.774 67.0043 187.27C67.0043 187.622 67.0203 188.006 67.0203 188.422H69.0203C69.5483 188.422 70.3003 188.358 70.6843 188.294V190.422C70.1723 190.406 69.5643 190.374 69.1323 190.374H67.0683C67.1163 192.71 67.1803 195.382 67.2123 197.542C67.2283 198.566 66.6363 199.158 65.4203 199.158C64.4443 199.158 63.5483 199.126 62.6363 199.062L62.4603 196.982C63.1803 197.11 64.0443 197.174 64.5883 197.174C64.9883 197.174 65.1483 196.966 65.1483 196.502C65.1483 195.43 65.1483 193.83 65.1163 192.182C63.7083 194.022 61.1163 196.246 58.5883 197.59L57.1163 195.926C60.2363 194.454 62.8763 192.198 64.1562 190.374H59.7883C59.2123 190.374 58.5243 190.406 57.9643 190.438V188.31C58.4283 188.374 59.1963 188.422 59.7403 188.422H65.0363C65.0203 188.006 65.0043 187.622 64.9883 187.27C64.9403 186.582 64.8923 186.07 64.8283 185.654H67.1003ZM83.7243 188.678C83.7243 189.238 84.1723 189.686 84.7323 189.686C85.2923 189.686 85.7563 189.238 85.7563 188.678C85.7563 188.118 85.2923 187.654 84.7323 187.654C84.1723 187.654 83.7243 188.118 83.7243 188.678ZM82.6683 188.678C82.6683 187.526 83.5803 186.598 84.7323 186.598C85.8843 186.598 86.8123 187.526 86.8123 188.678C86.8123 189.83 85.8843 190.742 84.7323 190.742C83.5803 190.742 82.6683 189.83 82.6683 188.678ZM72.7163 193.91C73.1963 193.526 73.5483 193.174 74.0443 192.694C74.7643 191.958 76.0123 190.39 77.1163 189.078C78.0603 187.958 79.0043 187.782 80.2523 188.95C81.3243 189.958 82.5563 191.238 83.5163 192.278C84.5883 193.414 86.2203 195.19 87.4523 196.502L85.6923 198.39C84.6203 197.062 83.2603 195.414 82.3163 194.31C81.3883 193.206 79.9643 191.654 79.3883 191.062C78.8763 190.55 78.5403 190.582 78.0763 191.158C77.4523 191.958 76.3163 193.542 75.6763 194.406C75.3083 194.918 74.9243 195.478 74.6363 195.894L72.7163 193.91ZM91.2763 197.83C91.4683 197.43 91.4843 197.158 91.4843 196.79V188.118C91.4843 187.51 91.4043 186.758 91.3083 186.294H93.8203C93.7243 186.918 93.6603 187.494 93.6603 188.118V196.438C96.2683 195.686 99.8363 193.638 101.884 191.142L103.02 192.95C100.828 195.574 97.5163 197.478 93.7403 198.71C93.5163 198.79 93.1643 198.902 92.7963 199.142L91.2763 197.83ZM105.628 191.062C106.204 191.11 107.372 191.158 108.204 191.158H116.796C117.548 191.158 118.252 191.094 118.668 191.062V193.574C118.284 193.558 117.468 193.494 116.796 193.494H108.204C107.292 193.494 106.22 193.526 105.628 193.574V191.062ZM124.788 185.798C125.844 186.374 127.604 187.51 128.436 188.086L127.236 189.862C126.34 189.238 124.676 188.15 123.62 187.558L124.788 185.798ZM121.812 197.158C123.604 196.854 125.524 196.326 127.268 195.366C129.988 193.846 132.212 191.654 133.492 189.366L134.724 191.542C133.236 193.75 130.98 195.782 128.356 197.286C126.724 198.214 124.436 199.014 123.012 199.27L121.812 197.158ZM122.324 189.446C123.396 190.022 125.156 191.126 125.972 191.702L124.804 193.494C123.892 192.87 122.228 191.782 121.156 191.222L122.324 189.446ZM139.252 189.43C139.668 189.478 140.644 189.51 141.236 189.51H147.284C147.668 189.51 148.26 189.494 148.516 189.478C148.5 189.686 148.5 190.214 148.5 190.55V198.582C148.5 198.838 148.516 199.382 148.516 199.67H146.5C146.516 199.526 146.516 199.27 146.516 199.03H140.452C140.004 199.03 139.348 199.062 139.076 199.078V197.11C139.348 197.142 139.892 197.174 140.468 197.174H146.516V195.046H141.412C140.804 195.046 140.036 195.062 139.668 195.078V193.19C140.084 193.222 140.804 193.238 141.412 193.238H146.516V191.302H141.236C140.644 191.302 139.636 191.334 139.252 191.366V189.43ZM155.7 186.31C156.82 187.062 158.9 188.726 159.828 189.702L158.196 191.366C157.364 190.47 155.364 188.726 154.196 187.91L155.7 186.31ZM153.7 196.966C156.196 196.614 158.276 195.798 159.828 194.87C162.564 193.254 164.644 190.806 165.652 188.646L166.9 190.902C165.684 193.062 163.556 195.27 160.98 196.822C159.364 197.798 157.3 198.694 155.044 199.078L153.7 196.966ZM182.676 192.838C182.676 196.214 180.612 198.598 176.58 199.222L175.38 197.318C175.988 197.254 176.436 197.158 176.868 197.062C178.916 196.582 180.516 195.11 180.516 192.774C180.516 190.566 179.316 188.918 177.156 188.55C176.932 189.91 176.66 191.382 176.196 192.886C175.236 196.118 173.86 198.102 172.116 198.102C170.34 198.102 168.868 196.15 168.868 193.446C168.868 189.75 172.068 186.598 176.212 186.598C180.18 186.598 182.676 189.35 182.676 192.838ZM170.916 193.238C170.916 194.854 171.556 195.638 172.18 195.638C172.852 195.638 173.476 194.63 174.132 192.47C174.5 191.286 174.804 189.926 174.98 188.598C172.34 189.142 170.916 191.478 170.916 193.238ZM107.36 211.302V210.646H100.576V211.302H107.36ZM107.36 213.126V212.454H100.576V213.126H107.36ZM109.264 209.43V214.342H98.752V209.43H109.264ZM108.352 218.486H106.192C106.464 219.062 106.832 219.59 107.264 220.054C107.696 219.59 108.064 219.062 108.352 218.486ZM99.872 220.39V221.174C100.544 221.126 101.248 221.078 101.952 221.014V220.39H99.872ZM99.872 218.406V219.078H101.952V218.406H99.872ZM101.952 216.438H99.872V217.078H101.952V216.438ZM109.472 216.966L110.64 217.414C110.208 218.918 109.52 220.166 108.624 221.174C109.424 221.702 110.384 222.102 111.44 222.358C111.072 222.71 110.576 223.398 110.32 223.846C109.184 223.51 108.192 223.014 107.344 222.358C106.528 222.982 105.616 223.478 104.624 223.846C104.448 223.478 104.096 222.95 103.776 222.566V223.862H101.952V222.566C100.112 222.742 98.288 222.902 96.88 223.03L96.736 221.398C97.152 221.366 97.632 221.35 98.128 221.302V216.438H96.88V214.934H111.104V216.438H103.776V222.294C104.592 222.022 105.376 221.638 106.048 221.142C105.472 220.454 104.976 219.654 104.592 218.774L105.648 218.486H104.176V217.03H109.152L109.472 216.966ZM120.896 212.614H123.024C123.168 212.278 123.312 211.862 123.44 211.494H120.512C120.704 211.862 120.848 212.278 120.896 212.614ZM125.088 219.446V214.054H122.704V214.886H124.592V216.038H122.704V216.918H124.208V219.702C124.496 219.702 124.736 219.702 124.848 219.702C125.024 219.686 125.088 219.638 125.088 219.446ZM122.896 218.87V217.99H121.168V218.87H122.896ZM118.768 211.558L119.04 211.494H116.928V210.022H121.008V208.918H122.848V210.022H127.168V211.494H125.328C125.12 211.91 124.928 212.278 124.752 212.614H126.832V219.478C126.832 220.246 126.704 220.662 126.192 220.95C125.664 221.206 124.992 221.222 124.032 221.222C123.984 220.854 123.824 220.342 123.664 219.942H121.168V220.438H119.872V216.918H121.344V216.038H119.472V214.886H121.344V214.054H119.056V221.158H117.344V212.614H119.168C119.072 212.262 118.928 211.878 118.768 211.558ZM116.688 211.862L115.12 213.062C114.672 212.278 113.616 211.174 112.72 210.406L114.176 209.318C115.072 210.038 116.176 211.094 116.688 211.862ZM116.256 215.126V220.23C116.88 221.302 118 221.75 119.632 221.814C121.552 221.894 125.328 221.846 127.536 221.67C127.312 222.118 127.04 222.998 126.944 223.526C124.96 223.622 121.568 223.654 119.616 223.574C117.712 223.494 116.432 223.03 115.472 221.798C114.832 222.422 114.176 223.03 113.36 223.718L112.464 221.83C113.088 221.43 113.808 220.902 114.448 220.358V216.87H112.656V215.126H116.256ZM132.56 209.126L134.448 209.75C133.984 210.838 133.424 211.926 132.784 212.982V223.83H130.88V215.67C130.368 216.294 129.824 216.87 129.296 217.366C129.088 216.886 128.544 215.83 128.192 215.35C129.92 213.894 131.6 211.542 132.56 209.126ZM138.448 221.894H140.8C141.568 221.894 141.696 221.35 141.824 219.094C142.272 219.43 143.072 219.798 143.584 219.91C143.36 222.662 142.864 223.67 140.976 223.67H138.24C136.224 223.67 135.648 223.03 135.648 220.774V209.334H137.568V214.806C139.072 213.942 140.544 212.918 141.6 212.006L143.008 213.67C141.424 214.79 139.44 215.862 137.568 216.758V220.79C137.568 221.734 137.68 221.894 138.448 221.894Z" fill="#333333"/>
</svg>
