<svg width="240" height="253" viewBox="0 0 240 253" fill="none" xmlns="http://www.w3.org/2000/svg">
<rect y="0.470459" width="240" height="252" rx="10" fill="white"/>
<path d="M39.5545 38.4525C39.5545 39.9218 39.3138 41.1885 38.8325 42.2525C38.3512 43.2911 37.7052 44.1525 36.8945 44.8365C36.1092 45.5205 35.1718 46.0271 34.0825 46.3565C33.0185 46.6605 31.9038 46.8125 30.7385 46.8125C29.5478 46.8125 28.4205 46.6605 27.3565 46.3565C26.2925 46.0271 25.3552 45.5205 24.5445 44.8365C23.7592 44.1525 23.1258 43.2911 22.6445 42.2525C22.1632 41.1885 21.9225 39.9218 21.9225 38.4525V28.2685C21.9225 26.7231 22.1632 25.4185 22.6445 24.3545C23.1258 23.2905 23.7592 22.4291 24.5445 21.7705C25.3552 21.1118 26.2925 20.6431 27.3565 20.3645C28.4205 20.0605 29.5478 19.9085 30.7385 19.9085C31.9038 19.9085 33.0185 20.0605 34.0825 20.3645C35.1718 20.6431 36.1092 21.1118 36.8945 21.7705C37.7052 22.4291 38.3512 23.2905 38.8325 24.3545C39.3138 25.4185 39.5545 26.7105 39.5545 28.2305V38.4525ZM34.2345 28.7245C34.2345 27.3058 33.9432 26.2291 33.3605 25.4945C32.8032 24.7598 31.9292 24.3925 30.7385 24.3925C29.5225 24.3925 28.6232 24.7598 28.0405 25.4945C27.4832 26.2291 27.2045 27.3058 27.2045 28.7245V37.9965C27.2045 39.4151 27.4832 40.4918 28.0405 41.2265C28.6232 41.9611 29.5225 42.3285 30.7385 42.3285C31.9292 42.3285 32.8032 41.9611 33.3605 41.2265C33.9432 40.4918 34.2345 39.4151 34.2345 37.9965V28.7245ZM51.336 32.9805C50.652 32.9805 50.082 33.1578 49.626 33.5125C49.1953 33.8671 48.8407 34.3358 48.562 34.9185H43.774V20.2505H58.708V25.0765H48.98V29.5605C49.3347 29.2058 49.816 28.8891 50.424 28.6105C51.0573 28.3318 51.868 28.1925 52.856 28.1925C53.8693 28.1925 54.794 28.3825 55.63 28.7625C56.466 29.1425 57.188 29.7251 57.796 30.5105C58.404 31.2958 58.8727 32.2711 59.202 33.4365C59.5313 34.6018 59.696 35.9698 59.696 37.5405C59.696 40.6565 58.9993 42.9871 57.606 44.5325C56.238 46.0525 54.1987 46.8125 51.488 46.8125C50.3733 46.8125 49.322 46.6605 48.334 46.3565C47.3713 46.0525 46.51 45.6091 45.75 45.0265C44.99 44.4185 44.3567 43.6711 43.85 42.7845C43.3687 41.8978 43.0773 40.8718 42.976 39.7065H48.22C48.4227 40.5425 48.7773 41.1885 49.284 41.6445C49.7907 42.1005 50.4747 42.3285 51.336 42.3285C52.2987 42.3285 53.046 41.9611 53.578 41.2265C54.11 40.4918 54.376 39.3518 54.376 37.8065C54.376 36.2105 54.1353 35.0071 53.654 34.1965C53.1727 33.3858 52.4 32.9805 51.336 32.9805Z" fill="#00A73C"/>
<rect x="124" y="20.4705" width="96" height="26" rx="13" fill="#F39C1A"/>
<path d="M157.118 29.3005L155.76 30.0985C155.494 29.4405 154.836 28.4045 154.304 27.6065L155.55 26.9205C156.11 27.6485 156.81 28.6425 157.118 29.3005ZM157.342 32.1425H153.87C154.542 34.7605 155.802 37.0565 157.734 38.2465C157.342 38.5545 156.796 39.1845 156.53 39.6465C154.962 38.5125 153.884 36.7485 153.114 34.6345C152.624 36.4125 151.658 38.1765 149.936 39.6745C149.656 39.3805 149.222 39.0305 148.802 38.7505V39.6605H147.15V35.1385C146.506 35.7125 145.862 36.2865 145.274 36.7625L144.434 35.3345C145.106 34.8445 146.142 34.0325 147.15 33.1645V31.1765L146.03 31.8625C145.764 31.1485 145.078 29.9865 144.518 29.1465L145.82 28.3905C146.268 28.9925 146.786 29.7905 147.15 30.4345V26.5985H148.802V38.4285C150.958 36.4825 151.672 34.1865 151.896 32.1425H149.152V30.4905H151.994V30.1965V26.6405H153.646V30.1965V30.4905H157.342V32.1425ZM169.494 31.1485H167.492C165.896 31.1485 165.518 30.7425 165.518 29.3985V26.7105H167.058V27.8445C168.01 27.5925 168.962 27.2705 169.564 26.9485L170.712 27.9425C169.662 28.3905 168.276 28.7545 167.058 29.0065V29.3985C167.058 29.7765 167.128 29.8325 167.688 29.8325H169.34C169.76 29.8325 169.858 29.7065 169.9 28.9085C170.208 29.1185 170.824 29.3425 171.244 29.4125C171.09 30.7845 170.656 31.1485 169.494 31.1485ZM169.564 35.8805H167.506C165.896 35.8805 165.518 35.4605 165.518 34.1025V31.2745H167.058V32.5485C168.066 32.2825 169.074 31.9465 169.718 31.5965L170.866 32.5905C169.788 33.0805 168.346 33.4725 167.058 33.7245V34.0885C167.058 34.5085 167.128 34.5505 167.702 34.5505H169.41C169.844 34.5505 169.928 34.4105 169.984 33.5425C170.292 33.7665 170.922 33.9905 171.328 34.0605C171.174 35.4885 170.74 35.8805 169.564 35.8805ZM158.756 29.7205L158.686 28.4325L159.764 28.4185C160.114 27.8025 160.464 27.0885 160.674 26.5425L162.312 26.9345C162.004 27.4245 161.668 27.9285 161.346 28.3765L163.068 28.3345C162.886 28.1105 162.69 27.8865 162.508 27.6905L163.67 27.0745C164.37 27.7605 165.14 28.7265 165.448 29.3985L164.202 30.0985C164.132 29.9165 164.02 29.7205 163.908 29.5105C162.046 29.6085 160.156 29.6645 158.756 29.7205ZM159.764 39.4365L158.462 38.5265C159.358 38.0085 160.044 37.1545 160.366 36.2585L161.78 36.7905C161.402 37.8265 160.786 38.8205 159.764 39.4365ZM160.884 33.1925H163.152V32.6745H160.884V33.1925ZM163.152 31.2885H160.884V31.7785H163.152V31.2885ZM163.516 36.1605L164.048 35.6705C163.642 35.8385 163.082 35.8525 162.368 35.8525C162.298 35.4885 162.102 35.0125 161.934 34.7185C162.354 34.7325 162.83 34.7325 162.942 34.7325C163.096 34.7185 163.152 34.6765 163.152 34.5365V34.1165H160.884V35.8805H159.4V30.2105H164.65V34.5365C164.65 34.8445 164.622 35.0685 164.552 35.2505C165.28 35.6005 166.176 36.1745 166.624 36.6505L165.546 37.6585C165.154 37.1825 164.272 36.5385 163.516 36.1605ZM164.538 38.2185H166.456C166.96 38.2185 167.058 38.0785 167.114 37.1545C167.436 37.3925 168.094 37.6025 168.514 37.6865C168.346 39.1705 167.898 39.5485 166.638 39.5485H164.342C162.606 39.5485 162.172 39.1425 162.172 37.8265V36.4125H163.796V37.8125C163.796 38.1765 163.922 38.2185 164.538 38.2185ZM167.87 36.8605L169.186 36.1325C170.11 36.8325 171.118 37.8405 171.538 38.6525L170.096 39.4645C169.746 38.7085 168.78 37.6165 167.87 36.8605ZM177.278 27.0465V28.3065H173.162V27.0465H177.278ZM180.582 26.6685H182.108C183.004 28.1525 184.39 29.6225 185.762 30.3085C185.454 30.7145 185.104 31.3305 184.88 31.8205C183.55 30.9805 182.15 29.4965 181.394 28.2365C180.694 29.4965 179.364 31.0225 177.908 31.9325C177.74 31.5125 177.362 30.8825 177.082 30.5325C177.236 30.4485 177.39 30.3505 177.53 30.2385H172.462V28.9225H177.726V30.0985C178.93 29.1885 180.022 27.8165 180.582 26.6685ZM182.626 32.3245L184.082 32.9545C182.934 34.4105 181.184 35.6145 179.448 36.4125C179.21 36.0625 178.776 35.5725 178.384 35.2645C179.966 34.6485 181.73 33.5425 182.626 32.3245ZM181.366 30.3365L182.808 30.9105C181.94 32.0585 180.652 33.0665 179.406 33.7385C179.154 33.4305 178.706 32.9965 178.342 32.7305C179.434 32.1845 180.708 31.2465 181.366 30.3365ZM177.32 30.8685V32.1425H173.12V30.8685H177.32ZM173.12 34.0325V32.7865H177.32V34.0325H173.12ZM175.92 36.0345H174.478V37.6445H175.92V36.0345ZM177.334 34.7185V38.9465H174.478V39.4925H173.078V34.7185H177.334ZM183.732 34.5505L185.23 35.1945C183.802 37.3785 181.436 38.8345 178.734 39.7165C178.524 39.2825 178.104 38.6945 177.698 38.2885C180.218 37.6445 182.528 36.3705 183.732 34.5505ZM190.2 30.0005L189.122 30.3645C189.108 29.7065 188.898 28.7125 188.646 27.9565L189.654 27.6345C189.948 28.3625 190.158 29.3565 190.2 30.0005ZM199.58 31.2045V32.7445H198.348V39.6745H196.766V32.7445H195.408C195.394 34.8305 195.1 37.7845 193.294 39.7165C193.084 39.3525 192.482 38.7925 192.104 38.5825C192.174 38.4985 192.258 38.4145 192.328 38.3305H188.352V39.3105H186.91V27.0885H188.352V34.6765C189.052 34.0465 189.738 33.0245 190.172 32.0445H188.618V30.6445H190.312V26.7525H191.67V30.0145C191.922 29.3425 192.188 28.3205 192.314 27.6205L193.616 27.9285C193.266 28.7685 192.902 29.7485 192.594 30.3645L191.67 30.0565V30.6445H193.35V32.0445H191.67V32.2405C192.062 32.5625 193.182 33.5985 193.448 33.8645L192.552 34.9705C192.37 34.6765 192.02 34.2005 191.67 33.7525V36.6225H190.312V34.2145C189.906 34.9565 189.444 35.6425 188.94 36.1045C188.828 35.7125 188.562 35.1805 188.352 34.8165V36.8885H193.126V36.9865C193.742 35.5445 193.812 33.9345 193.812 32.5765V27.7185L194.792 27.9845C196.052 27.6765 197.354 27.2285 198.166 26.7805L199.51 27.9985C198.32 28.5305 196.808 28.9505 195.408 29.2585V31.2045H199.58Z" fill="white"/>
<path d="M154.289 116.033C154.302 97.3304 139.1 82.1292 120.398 82.1423C110.846 82.1511 102.204 86.1228 96.0316 92.5021C108.25 81.9886 126.68 82.507 138.248 94.0749C144.311 100.138 147.338 108.09 147.334 116.042H141.627L150.8 131.951L160 116.033H154.293" fill="white"/>
<path d="M154.289 116.033C154.302 97.3304 139.1 82.1292 120.398 82.1423C110.846 82.1511 102.204 86.1228 96.0316 92.5021C108.25 81.9886 126.68 82.507 138.248 94.0749C144.311 100.138 147.338 108.09 147.334 116.042H141.627L150.8 131.951L160 116.033H154.293" stroke="white" stroke-width="2" stroke-linecap="round" stroke-linejoin="round"/>
<path d="M147.334 116.038L141.627 116.042L150.796 131.946L159.996 116.029L154.289 116.033" stroke="#00A73C" stroke-width="2" stroke-linecap="round" stroke-linejoin="round"/>
<path d="M154.262 116.06C154.262 97.3744 139.061 82.1687 120.371 82.1687C110.829 82.1687 102.196 86.1316 96.0316 92.5021" stroke="#00A73C" stroke-width="2" stroke-linecap="round" stroke-linejoin="round"/>
<path d="M85.7071 116.908C85.6939 135.61 100.895 150.812 119.598 150.799C129.149 150.79 137.791 146.818 143.964 140.439C131.746 150.952 113.311 150.434 101.747 138.87C95.6846 132.807 92.6575 124.855 92.6619 116.903H98.3689L89.1955 100.995L80 116.912H85.7071" fill="white"/>
<path d="M85.7071 116.908C85.6939 135.61 100.895 150.812 119.598 150.799C129.149 150.79 137.791 146.818 143.964 140.439C131.746 150.952 113.311 150.434 101.747 138.87C95.6846 132.807 92.6575 124.855 92.6619 116.903H98.3689L89.1955 100.995L80 116.912H85.7071" stroke="white" stroke-width="2" stroke-linecap="round" stroke-linejoin="round"/>
<path d="M92.6663 116.903L98.3733 116.899L89.1998 100.995L80 116.912L85.7071 116.908" stroke="#00A73C" stroke-width="2" stroke-linecap="round" stroke-linejoin="round"/>
<path d="M85.707 116.907C85.6939 135.61 100.895 150.812 119.598 150.798C129.149 150.79 137.791 146.818 143.964 140.439" stroke="#00A73C" stroke-width="2" stroke-linecap="round" stroke-linejoin="round"/>
<path d="M130.907 127.408C135.581 117.241 131.97 107.22 114.273 94.6856C113.702 94.2814 112.955 94.6548 113.162 95.2611C116.039 103.569 109.093 109.707 107.709 115.172C105.789 122.746 109.427 132.074 118.385 133.778C122.564 134.574 128.429 132.799 130.907 127.412V127.408Z" fill="#EBF5E9" stroke="#EBF5E9" stroke-width="2" stroke-linecap="round" stroke-linejoin="round"/>
<path d="M123.253 133.603C126.307 132.851 129.307 130.883 130.907 127.408C135.581 117.241 131.97 107.22 114.273 94.6856C113.702 94.2814 112.955 94.6548 113.162 95.2611C116.039 103.569 109.093 109.707 107.709 115.172C106.106 121.494 108.373 129.033 114.374 132.346" fill="#EBF5E9"/>
<path d="M123.253 133.603C126.307 132.851 129.307 130.883 130.907 127.408C135.581 117.241 131.97 107.22 114.273 94.6856C113.702 94.2814 112.955 94.6548 113.162 95.2611C116.039 103.569 109.093 109.707 107.709 115.172C106.106 121.494 108.373 129.033 114.374 132.346" stroke="#00A73C" stroke-width="2" stroke-linecap="round" stroke-linejoin="round"/>
<path d="M117.832 141.99C113.201 132.987 132.137 124.886 119.348 107.141" stroke="#00A73C" stroke-width="2" stroke-linecap="round" stroke-linejoin="round"/>
<path d="M62.0144 188.054H59.5984C59.8704 188.598 60.0784 189.334 60.1424 189.814L59.3424 190.038H62.4784L61.4224 189.814C61.6304 189.334 61.8864 188.598 62.0144 188.054ZM61.8064 194.438V194.566C62.3824 194.966 63.7104 196.022 64.0784 196.31L62.9744 197.67C62.7184 197.35 62.2704 196.87 61.8064 196.422V199.83H59.9664V196.614C59.3424 197.51 58.6224 198.31 57.9344 198.87C57.6464 198.454 57.1024 197.83 56.7024 197.526C57.7424 196.838 58.8464 195.638 59.5824 194.438H57.1504V192.838H59.9664V191.606H57.1024V190.038H58.5744C58.5104 189.51 58.3184 188.822 58.0944 188.278L59.0704 188.054H57.2784V186.502H59.9664V185.046H61.8064V186.502H64.4624V188.054H62.8144L63.7424 188.23C63.4544 188.918 63.1984 189.558 62.9744 190.038H64.5904V191.606H61.8064V192.838H64.4464V194.438H61.8064ZM71.8544 190.182V191.942H70.3344V199.766H68.4944V191.942H66.8624C66.8464 194.326 66.5104 197.702 64.3984 199.894C64.1584 199.478 63.4704 198.822 63.0384 198.598C64.8784 196.646 65.0704 193.926 65.0704 191.718V186.182L66.1744 186.486C67.6944 186.118 69.2784 185.606 70.2544 185.078L71.7744 186.47C70.3664 187.094 68.5424 187.59 66.8624 187.942V190.182H71.8544ZM81.7904 194.566C81.6624 195.014 81.5664 195.542 81.5664 195.894C81.5664 196.598 82.0464 197.126 83.7584 197.126C84.8304 197.126 85.9344 196.998 87.0864 196.79L87.0064 198.838C86.1104 198.95 85.0224 199.062 83.7424 199.062C81.0544 199.062 79.5984 198.134 79.5984 196.518C79.5984 195.782 79.7584 195.014 79.8864 194.374L81.7904 194.566ZM79.9824 185.702C79.8544 186.134 79.7104 186.854 79.6464 187.206C79.6144 187.382 79.5664 187.59 79.5184 187.814C80.4144 187.686 81.3104 187.51 82.1904 187.302V189.302C81.2304 189.526 80.1424 189.702 79.0704 189.83C78.9264 190.518 78.7664 191.222 78.5904 191.878C78.0144 194.118 76.9424 197.382 76.0464 199.286L73.8224 198.534C74.7824 196.934 75.9984 193.574 76.5904 191.334C76.7024 190.902 76.8304 190.454 76.9264 189.99C76.5584 190.006 76.2064 190.022 75.8704 190.022C75.1024 190.022 74.4944 189.99 73.9344 189.958L73.8864 187.958C74.7024 188.054 75.2464 188.086 75.9024 188.086C76.3664 188.086 76.8464 188.07 77.3424 188.038C77.4064 187.686 77.4544 187.382 77.4864 187.126C77.5504 186.534 77.5824 185.878 77.5344 185.51L79.9824 185.702ZM80.9264 190.534C81.8224 190.454 82.9744 190.374 83.9984 190.374C84.9104 190.374 85.8704 190.422 86.8144 190.518L86.7664 192.438C85.9664 192.342 84.9904 192.246 84.0144 192.246C82.9264 192.246 81.9344 192.294 80.9264 192.406V190.534ZM95.9504 185.59C95.8224 186.102 95.6144 186.918 95.3744 187.782C96.1584 187.638 96.9104 187.462 97.5344 187.27L97.5984 189.126C96.8624 189.318 95.8704 189.526 94.7984 189.686C94.0304 191.926 92.6704 194.726 91.3744 196.534L89.4384 195.542C90.7024 193.974 91.9984 191.622 92.7024 189.894C92.4144 189.91 92.1424 189.91 91.8704 189.91C91.2144 189.91 90.5584 189.894 89.8704 189.846L89.7264 187.99C90.4144 188.07 91.2624 188.102 91.8544 188.102C92.3344 188.102 92.8144 188.086 93.3104 188.038C93.5344 187.158 93.7104 186.198 93.7424 185.366L95.9504 185.59ZM95.1184 196.662C95.1184 197.254 95.6144 197.654 96.4944 197.654C97.5984 197.654 97.9344 197.046 97.9344 196.166C97.9344 196.07 97.9344 195.974 97.9344 195.846C97.5184 195.75 97.0864 195.686 96.6384 195.686C95.7104 195.686 95.1184 196.102 95.1184 196.662ZM99.6944 190.566C99.6464 191.238 99.6784 191.91 99.6944 192.614C99.7104 193.078 99.7584 193.846 99.7904 194.646C101.166 195.158 102.286 195.958 103.102 196.694L102.03 198.406C101.47 197.894 100.75 197.222 99.8704 196.694C99.8704 196.742 99.8704 196.806 99.8704 196.854C99.8704 198.342 99.0544 199.494 96.7824 199.494C94.7984 199.494 93.2304 198.614 93.2304 196.854C93.2304 195.286 94.5424 194.086 96.7664 194.086C97.1504 194.086 97.5024 194.118 97.8704 194.15C97.8064 192.966 97.7264 191.542 97.6944 190.566H99.6944ZM102.446 191.414C101.518 190.678 99.6944 189.638 98.6064 189.142L99.6304 187.558C100.782 188.054 102.766 189.142 103.582 189.734L102.446 191.414ZM117.246 186.054C117.214 186.502 117.182 187.014 117.182 187.654V190.822C117.182 194.262 116.51 195.75 115.326 197.062C114.27 198.214 112.606 198.998 111.438 199.366L109.774 197.606C111.358 197.238 112.654 196.63 113.614 195.59C114.718 194.39 114.926 193.19 114.926 190.694V187.654C114.926 187.014 114.894 186.502 114.83 186.054H117.246ZM109.822 186.182C109.79 186.55 109.774 186.902 109.774 187.414V192.822C109.774 193.222 109.79 193.846 109.822 194.214H107.502C107.518 193.91 107.582 193.286 107.582 192.806V187.414C107.582 187.11 107.566 186.55 107.518 186.182H109.822ZM132.366 191.398C132.366 195.366 131.406 197.782 127.55 199.478L125.838 197.862C128.926 196.79 130.286 195.414 130.286 191.478V190.87H126.494V193.046C126.494 193.75 126.542 194.406 126.558 194.726H124.318C124.366 194.406 124.414 193.766 124.414 193.046V190.87H123.054C122.254 190.87 121.678 190.902 121.326 190.934V188.758C121.598 188.806 122.254 188.902 123.054 188.902H124.414V187.318C124.414 186.854 124.366 186.358 124.318 185.878H126.59C126.542 186.182 126.494 186.694 126.494 187.318V188.902H130.286V187.222C130.286 186.582 130.238 186.054 130.19 185.734H132.478C132.43 186.054 132.366 186.582 132.366 187.222V188.902H133.55C134.398 188.902 134.878 188.87 135.31 188.79V190.918C134.958 190.886 134.398 190.87 133.55 190.87H132.366V191.398ZM137.39 192.246C140.254 191.51 142.606 190.47 144.382 189.382C146.03 188.358 147.854 186.758 148.894 185.494L150.622 187.142C149.406 188.342 147.87 189.59 146.318 190.614V197.078C146.318 197.782 146.35 198.774 146.462 199.174H143.934C143.998 198.79 144.046 197.782 144.046 197.078V191.958C142.398 192.822 140.366 193.686 138.398 194.262L137.39 192.246ZM161.254 185.99C160.886 186.55 160.47 187.27 160.278 187.622C160.262 187.654 160.246 187.67 160.23 187.702H163.446C163.942 187.702 164.47 187.622 164.838 187.51L166.47 188.518C166.294 188.822 166.07 189.27 165.942 189.67C165.51 191.094 164.598 193.222 163.158 195.014C161.638 196.87 159.702 198.342 156.694 199.526L154.806 197.83C158.086 196.854 159.862 195.462 161.254 193.878C162.342 192.63 163.27 190.71 163.526 189.51H159.03C157.958 190.902 156.566 192.31 154.998 193.382L153.206 192.054C156.006 190.342 157.398 188.278 158.198 186.902C158.438 186.502 158.774 185.766 158.918 185.222L161.254 185.99ZM175.65 198.118C175.714 197.814 175.778 197.366 175.778 196.934V187.606C175.778 186.886 175.666 186.278 175.65 186.23H178.034C178.018 186.278 177.922 186.902 177.922 187.622V195.99C179.218 195.43 180.802 194.166 181.874 192.614L183.106 194.374C181.778 196.102 179.474 197.83 177.682 198.742C177.33 198.934 177.138 199.094 176.994 199.222L175.65 198.118ZM168.242 197.878C169.65 196.886 170.514 195.414 170.962 194.054C171.41 192.678 171.426 189.654 171.426 187.718C171.426 187.078 171.378 186.646 171.282 186.246H173.634C173.618 186.326 173.522 187.03 173.522 187.702C173.522 189.59 173.474 192.966 173.042 194.582C172.562 196.39 171.554 197.958 170.194 199.174L168.242 197.878ZM64.864 210.742C64.864 211.238 65.28 211.654 65.792 211.654C66.288 211.654 66.704 211.238 66.704 210.742C66.704 210.23 66.288 209.814 65.792 209.814C65.28 209.814 64.864 210.23 64.864 210.742ZM63.872 210.742C63.872 209.686 64.736 208.822 65.792 208.822C66.832 208.822 67.696 209.686 67.696 210.742C67.696 211.782 66.832 212.646 65.792 212.646C65.728 212.646 65.648 212.646 65.584 212.63C65.536 212.806 65.504 212.966 65.456 213.11C65.088 214.678 64.4 217.158 63.056 218.934C61.616 220.854 59.472 222.438 56.624 223.366L54.88 221.446C58.048 220.71 59.856 219.318 61.152 217.686C62.208 216.358 62.816 214.55 63.024 213.174H55.584C54.848 213.174 54.08 213.206 53.68 213.238V210.982C54.144 211.046 55.056 211.11 55.584 211.11H62.992C63.216 211.11 63.568 211.094 63.904 211.046C63.888 210.95 63.872 210.854 63.872 210.742ZM71.568 210.198C72.016 210.262 72.688 210.278 73.232 210.278H79.392C79.888 210.278 80.672 210.262 81.12 210.198V212.262C80.688 212.23 79.936 212.214 79.36 212.214H73.232C72.72 212.214 72.032 212.23 71.568 212.262V210.198ZM82.464 214.838C82.352 215.046 82.224 215.334 82.16 215.51C81.68 217.062 80.992 218.614 79.792 219.942C78.176 221.734 76.128 222.822 74.08 223.398L72.496 221.59C74.896 221.094 76.816 220.038 78.032 218.79C78.896 217.91 79.392 216.918 79.68 216.022H71.952C71.568 216.022 70.768 216.038 70.096 216.102V214.022C70.768 214.07 71.456 214.118 71.952 214.118H79.872C80.384 214.118 80.816 214.054 81.04 213.958L82.464 214.838ZM87.856 210.31C88.976 211.062 91.056 212.726 91.984 213.702L90.352 215.366C89.52 214.47 87.52 212.726 86.352 211.91L87.856 210.31ZM85.856 220.966C88.352 220.614 90.432 219.798 91.984 218.87C94.72 217.254 96.8 214.806 97.808 212.646L99.056 214.902C97.84 217.062 95.712 219.27 93.136 220.822C91.52 221.798 89.456 222.694 87.2 223.078L85.856 220.966ZM114.832 216.838C114.832 220.214 112.768 222.598 108.736 223.222L107.536 221.318C108.144 221.254 108.592 221.158 109.024 221.062C111.072 220.582 112.672 219.11 112.672 216.774C112.672 214.566 111.472 212.918 109.312 212.55C109.088 213.91 108.816 215.382 108.352 216.886C107.392 220.118 106.016 222.102 104.272 222.102C102.496 222.102 101.024 220.15 101.024 217.446C101.024 213.75 104.224 210.598 108.368 210.598C112.336 210.598 114.832 213.35 114.832 216.838ZM103.072 217.238C103.072 218.854 103.712 219.638 104.336 219.638C105.008 219.638 105.632 218.63 106.288 216.47C106.656 215.286 106.96 213.926 107.136 212.598C104.496 213.142 103.072 215.478 103.072 217.238ZM122.864 208.854H124.816C126.544 211.382 129.168 213.558 131.728 214.662C131.248 215.158 130.816 215.782 130.448 216.374C127.968 214.998 125.296 212.694 123.92 210.726C122.624 212.678 120.16 214.902 117.52 216.39C117.28 215.958 116.736 215.254 116.32 214.854C119.088 213.43 121.664 210.886 122.864 208.854ZM125.088 218.502V221.702H130.816V223.43H117.2V221.702H118.944V216.15H120.816V221.702H123.088V213.398H125.088V216.822H129.376V218.502H125.088ZM144.848 221.126V212.71H146.688V223.846H144.848V222.918H135.184V223.862H133.328V212.71H135.184V221.126H144.848ZM142.16 215.83V214.486H140.768V215.83H142.16ZM142.16 218.63V217.27H140.768V218.63H142.16ZM137.744 217.27V218.63H139.136V217.27H137.744ZM137.744 214.486V215.83H139.136V214.486H137.744ZM132.848 209.878H147.168V211.654H140.896V212.934H143.808V220.182H136.192V212.934H138.992V211.654H132.848V209.878ZM152 214.342C153.12 214.342 154.048 215.27 154.048 216.39C154.048 217.51 153.12 218.438 152 218.438C150.88 218.438 149.952 217.51 149.952 216.39C149.952 215.27 150.88 214.342 152 214.342ZM159.056 213.254H162.96V212.342H164.864V213.254H168.848V211.99H159.056V213.254ZM171.04 219.942H165.792C166.928 221.222 168.72 221.958 171.248 222.23C170.864 222.63 170.368 223.382 170.128 223.894C167.088 223.414 165.184 222.278 163.92 220.294C162.976 221.718 161.2 222.982 157.936 223.862C157.712 223.446 157.168 222.726 156.752 222.326C159.44 221.718 160.976 220.886 161.856 219.942H157.04V218.294H162.784C162.864 217.958 162.912 217.622 162.944 217.286H158.848V215.75H162.96V214.79H158.592V213.734H157.168V210.326H163.008V208.934H164.96V210.326H170.816V213.734H169.536V214.79H164.864V215.75H169.216V217.286H164.848C164.832 217.622 164.8 217.958 164.72 218.294H171.04V219.942ZM186.928 209.83V211.638H179.152V209.83H186.928ZM176.08 208.918L177.92 209.67C176.768 211.174 175.04 212.822 173.52 213.878C173.28 213.462 172.8 212.694 172.464 212.326C173.792 211.478 175.312 210.038 176.08 208.918ZM176.688 212.374L178.512 213.078C178.032 213.894 177.44 214.726 176.8 215.526V223.878H174.896V217.622C174.448 218.054 174.016 218.454 173.584 218.806C173.312 218.422 172.672 217.558 172.288 217.158C173.92 216.038 175.664 214.182 176.688 212.374ZM187.328 214.23V216.038H185.136V221.654C185.136 222.678 184.944 223.206 184.24 223.494C183.568 223.782 182.544 223.814 181.12 223.814C181.04 223.254 180.8 222.438 180.544 221.878C181.456 221.926 182.512 221.926 182.8 221.91C183.088 221.91 183.2 221.846 183.2 221.606V216.038H178.48V214.23H187.328Z" fill="#333333"/>
</svg>
