<svg width="240" height="253" viewBox="0 0 240 253" fill="none" xmlns="http://www.w3.org/2000/svg">
<rect y="0.470459" width="240" height="252" rx="10" fill="white"/>
<path d="M39.5545 38.4525C39.5545 39.9218 39.3138 41.1885 38.8325 42.2525C38.3512 43.2911 37.7052 44.1525 36.8945 44.8365C36.1092 45.5205 35.1718 46.0271 34.0825 46.3565C33.0185 46.6605 31.9038 46.8125 30.7385 46.8125C29.5478 46.8125 28.4205 46.6605 27.3565 46.3565C26.2925 46.0271 25.3552 45.5205 24.5445 44.8365C23.7592 44.1525 23.1258 43.2911 22.6445 42.2525C22.1632 41.1885 21.9225 39.9218 21.9225 38.4525V28.2685C21.9225 26.7231 22.1632 25.4185 22.6445 24.3545C23.1258 23.2905 23.7592 22.4291 24.5445 21.7705C25.3552 21.1118 26.2925 20.6431 27.3565 20.3645C28.4205 20.0605 29.5478 19.9085 30.7385 19.9085C31.9038 19.9085 33.0185 20.0605 34.0825 20.3645C35.1718 20.6431 36.1092 21.1118 36.8945 21.7705C37.7052 22.4291 38.3512 23.2905 38.8325 24.3545C39.3138 25.4185 39.5545 26.7105 39.5545 28.2305V38.4525ZM34.2345 28.7245C34.2345 27.3058 33.9432 26.2291 33.3605 25.4945C32.8032 24.7598 31.9292 24.3925 30.7385 24.3925C29.5225 24.3925 28.6232 24.7598 28.0405 25.4945C27.4832 26.2291 27.2045 27.3058 27.2045 28.7245V37.9965C27.2045 39.4151 27.4832 40.4918 28.0405 41.2265C28.6232 41.9611 29.5225 42.3285 30.7385 42.3285C31.9292 42.3285 32.8032 41.9611 33.3605 41.2265C33.9432 40.4918 34.2345 39.4151 34.2345 37.9965V28.7245ZM48.372 30.7005H50.31C51.3993 30.7005 52.2733 30.4218 52.932 29.8645C53.616 29.3071 53.958 28.4711 53.958 27.3565C53.958 26.4698 53.654 25.7478 53.046 25.1905C52.438 24.6078 51.6527 24.3165 50.69 24.3165C49.7527 24.3165 49.0053 24.5825 48.448 25.1145C47.8907 25.6465 47.5487 26.3178 47.422 27.1285H42.71C42.7607 26.0645 43.0013 25.0891 43.432 24.2025C43.888 23.3158 44.4833 22.5558 45.218 21.9225C45.9527 21.2891 46.8013 20.7951 47.764 20.4405C48.752 20.0858 49.816 19.9085 50.956 19.9085C52.1467 19.9085 53.2487 20.0985 54.262 20.4785C55.2753 20.8585 56.1493 21.3778 56.884 22.0365C57.6187 22.6951 58.1887 23.4678 58.594 24.3545C59.0247 25.2158 59.24 26.1405 59.24 27.1285C59.24 27.8631 59.1387 28.5345 58.936 29.1425C58.7333 29.7505 58.4547 30.2951 58.1 30.7765C57.7707 31.2325 57.3907 31.6378 56.96 31.9925C56.5293 32.3471 56.0987 32.6385 55.668 32.8665C56.808 33.4238 57.7453 34.2218 58.48 35.2605C59.24 36.2738 59.62 37.5658 59.62 39.1365C59.62 40.2005 59.43 41.2011 59.05 42.1385C58.6953 43.0758 58.1633 43.8865 57.454 44.5705C56.7447 45.2545 55.8707 45.7991 54.832 46.2045C53.7933 46.6098 52.6027 46.8125 51.26 46.8125C49.8667 46.8125 48.6253 46.6351 47.536 46.2805C46.472 45.9005 45.56 45.3811 44.8 44.7225C44.04 44.0638 43.4573 43.2911 43.052 42.4045C42.6467 41.4925 42.4187 40.5045 42.368 39.4405H47.042C47.1687 40.2765 47.5487 40.9731 48.182 41.5305C48.8153 42.0625 49.7273 42.3285 50.918 42.3285C51.982 42.3285 52.818 41.9991 53.426 41.3405C54.034 40.6565 54.338 39.8331 54.338 38.8705C54.338 37.7051 54.0087 36.8058 53.35 36.1725C52.6913 35.5138 51.678 35.1845 50.31 35.1845H48.372V30.7005Z" fill="#00A73C"/>
<rect x="124" y="20.4705" width="96" height="26" rx="13" fill="#F39C1A"/>
<path d="M157.118 29.3005L155.76 30.0985C155.494 29.4405 154.836 28.4045 154.304 27.6065L155.55 26.9205C156.11 27.6485 156.81 28.6425 157.118 29.3005ZM157.342 32.1425H153.87C154.542 34.7605 155.802 37.0565 157.734 38.2465C157.342 38.5545 156.796 39.1845 156.53 39.6465C154.962 38.5125 153.884 36.7485 153.114 34.6345C152.624 36.4125 151.658 38.1765 149.936 39.6745C149.656 39.3805 149.222 39.0305 148.802 38.7505V39.6605H147.15V35.1385C146.506 35.7125 145.862 36.2865 145.274 36.7625L144.434 35.3345C145.106 34.8445 146.142 34.0325 147.15 33.1645V31.1765L146.03 31.8625C145.764 31.1485 145.078 29.9865 144.518 29.1465L145.82 28.3905C146.268 28.9925 146.786 29.7905 147.15 30.4345V26.5985H148.802V38.4285C150.958 36.4825 151.672 34.1865 151.896 32.1425H149.152V30.4905H151.994V30.1965V26.6405H153.646V30.1965V30.4905H157.342V32.1425ZM169.494 31.1485H167.492C165.896 31.1485 165.518 30.7425 165.518 29.3985V26.7105H167.058V27.8445C168.01 27.5925 168.962 27.2705 169.564 26.9485L170.712 27.9425C169.662 28.3905 168.276 28.7545 167.058 29.0065V29.3985C167.058 29.7765 167.128 29.8325 167.688 29.8325H169.34C169.76 29.8325 169.858 29.7065 169.9 28.9085C170.208 29.1185 170.824 29.3425 171.244 29.4125C171.09 30.7845 170.656 31.1485 169.494 31.1485ZM169.564 35.8805H167.506C165.896 35.8805 165.518 35.4605 165.518 34.1025V31.2745H167.058V32.5485C168.066 32.2825 169.074 31.9465 169.718 31.5965L170.866 32.5905C169.788 33.0805 168.346 33.4725 167.058 33.7245V34.0885C167.058 34.5085 167.128 34.5505 167.702 34.5505H169.41C169.844 34.5505 169.928 34.4105 169.984 33.5425C170.292 33.7665 170.922 33.9905 171.328 34.0605C171.174 35.4885 170.74 35.8805 169.564 35.8805ZM158.756 29.7205L158.686 28.4325L159.764 28.4185C160.114 27.8025 160.464 27.0885 160.674 26.5425L162.312 26.9345C162.004 27.4245 161.668 27.9285 161.346 28.3765L163.068 28.3345C162.886 28.1105 162.69 27.8865 162.508 27.6905L163.67 27.0745C164.37 27.7605 165.14 28.7265 165.448 29.3985L164.202 30.0985C164.132 29.9165 164.02 29.7205 163.908 29.5105C162.046 29.6085 160.156 29.6645 158.756 29.7205ZM159.764 39.4365L158.462 38.5265C159.358 38.0085 160.044 37.1545 160.366 36.2585L161.78 36.7905C161.402 37.8265 160.786 38.8205 159.764 39.4365ZM160.884 33.1925H163.152V32.6745H160.884V33.1925ZM163.152 31.2885H160.884V31.7785H163.152V31.2885ZM163.516 36.1605L164.048 35.6705C163.642 35.8385 163.082 35.8525 162.368 35.8525C162.298 35.4885 162.102 35.0125 161.934 34.7185C162.354 34.7325 162.83 34.7325 162.942 34.7325C163.096 34.7185 163.152 34.6765 163.152 34.5365V34.1165H160.884V35.8805H159.4V30.2105H164.65V34.5365C164.65 34.8445 164.622 35.0685 164.552 35.2505C165.28 35.6005 166.176 36.1745 166.624 36.6505L165.546 37.6585C165.154 37.1825 164.272 36.5385 163.516 36.1605ZM164.538 38.2185H166.456C166.96 38.2185 167.058 38.0785 167.114 37.1545C167.436 37.3925 168.094 37.6025 168.514 37.6865C168.346 39.1705 167.898 39.5485 166.638 39.5485H164.342C162.606 39.5485 162.172 39.1425 162.172 37.8265V36.4125H163.796V37.8125C163.796 38.1765 163.922 38.2185 164.538 38.2185ZM167.87 36.8605L169.186 36.1325C170.11 36.8325 171.118 37.8405 171.538 38.6525L170.096 39.4645C169.746 38.7085 168.78 37.6165 167.87 36.8605ZM177.278 27.0465V28.3065H173.162V27.0465H177.278ZM180.582 26.6685H182.108C183.004 28.1525 184.39 29.6225 185.762 30.3085C185.454 30.7145 185.104 31.3305 184.88 31.8205C183.55 30.9805 182.15 29.4965 181.394 28.2365C180.694 29.4965 179.364 31.0225 177.908 31.9325C177.74 31.5125 177.362 30.8825 177.082 30.5325C177.236 30.4485 177.39 30.3505 177.53 30.2385H172.462V28.9225H177.726V30.0985C178.93 29.1885 180.022 27.8165 180.582 26.6685ZM182.626 32.3245L184.082 32.9545C182.934 34.4105 181.184 35.6145 179.448 36.4125C179.21 36.0625 178.776 35.5725 178.384 35.2645C179.966 34.6485 181.73 33.5425 182.626 32.3245ZM181.366 30.3365L182.808 30.9105C181.94 32.0585 180.652 33.0665 179.406 33.7385C179.154 33.4305 178.706 32.9965 178.342 32.7305C179.434 32.1845 180.708 31.2465 181.366 30.3365ZM177.32 30.8685V32.1425H173.12V30.8685H177.32ZM173.12 34.0325V32.7865H177.32V34.0325H173.12ZM175.92 36.0345H174.478V37.6445H175.92V36.0345ZM177.334 34.7185V38.9465H174.478V39.4925H173.078V34.7185H177.334ZM183.732 34.5505L185.23 35.1945C183.802 37.3785 181.436 38.8345 178.734 39.7165C178.524 39.2825 178.104 38.6945 177.698 38.2885C180.218 37.6445 182.528 36.3705 183.732 34.5505ZM190.2 30.0005L189.122 30.3645C189.108 29.7065 188.898 28.7125 188.646 27.9565L189.654 27.6345C189.948 28.3625 190.158 29.3565 190.2 30.0005ZM199.58 31.2045V32.7445H198.348V39.6745H196.766V32.7445H195.408C195.394 34.8305 195.1 37.7845 193.294 39.7165C193.084 39.3525 192.482 38.7925 192.104 38.5825C192.174 38.4985 192.258 38.4145 192.328 38.3305H188.352V39.3105H186.91V27.0885H188.352V34.6765C189.052 34.0465 189.738 33.0245 190.172 32.0445H188.618V30.6445H190.312V26.7525H191.67V30.0145C191.922 29.3425 192.188 28.3205 192.314 27.6205L193.616 27.9285C193.266 28.7685 192.902 29.7485 192.594 30.3645L191.67 30.0565V30.6445H193.35V32.0445H191.67V32.2405C192.062 32.5625 193.182 33.5985 193.448 33.8645L192.552 34.9705C192.37 34.6765 192.02 34.2005 191.67 33.7525V36.6225H190.312V34.2145C189.906 34.9565 189.444 35.6425 188.94 36.1045C188.828 35.7125 188.562 35.1805 188.352 34.8165V36.8885H193.126V36.9865C193.742 35.5445 193.812 33.9345 193.812 32.5765V27.7185L194.792 27.9845C196.052 27.6765 197.354 27.2285 198.166 26.7805L199.51 27.9985C198.32 28.5305 196.808 28.9505 195.408 29.2585V31.2045H199.58Z" fill="white"/>
<path d="M105.174 135.431V97.4417" stroke="#00A73C" stroke-width="2" stroke-linecap="round" stroke-linejoin="round"/>
<path d="M95.1236 135.431V97.5291" stroke="#00A73C" stroke-width="2" stroke-linecap="round" stroke-linejoin="round"/>
<path d="M85.0687 135.431V107.719" stroke="#00A73C" stroke-width="2" stroke-linecap="round" stroke-linejoin="round"/>
<path d="M125.279 135.431V87.3821" stroke="#00A73C" stroke-width="2" stroke-linecap="round" stroke-linejoin="round"/>
<path d="M115.229 135.431V97.4417" stroke="#00A73C" stroke-width="2" stroke-linecap="round" stroke-linejoin="round"/>
<path d="M80.2637 112.587L100.156 92.424L110.201 102.469L129.726 82.9351" stroke="white" stroke-width="2" stroke-linecap="round" stroke-linejoin="round"/>
<path d="M81.3574 111.479L100.156 92.424L110.201 102.469L129.726 82.9351" stroke="#00A73C" stroke-width="2" stroke-linecap="round" stroke-linejoin="round"/>
<path d="M123.866 76.4705H135.75V88.3546" stroke="#00A73C" stroke-width="2" stroke-linecap="round" stroke-linejoin="round"/>
<path d="M158.328 148.414L149.623 139.704C153.436 133.172 152.856 124.839 147.973 118.825C147.867 118.689 147.751 118.563 147.639 118.428C147.339 118.075 147.078 117.702 146.744 117.368C143.13 113.758 138.397 111.958 133.665 111.963C133.655 111.963 133.65 111.963 133.641 111.963C133.365 111.963 133.094 111.992 132.818 112.007C132.508 112.021 132.199 112.021 131.889 112.055C131.323 112.108 130.766 112.191 130.22 112.297C130.2 112.297 130.176 112.302 130.157 112.307C122.787 113.72 116.981 119.521 115.568 126.891C115.563 126.93 115.558 126.963 115.553 127.002C115.452 127.539 115.369 128.076 115.316 128.628C115.282 128.957 115.282 129.281 115.268 129.61C115.258 129.867 115.229 130.118 115.229 130.38C115.229 130.389 115.229 130.394 115.229 130.404C115.224 135.136 117.024 139.869 120.639 143.478C120.944 143.783 121.292 144.02 121.611 144.301C121.786 144.456 121.965 144.606 122.149 144.751C128.158 149.599 136.457 150.161 142.975 146.357L151.68 155.062C153.518 156.901 156.494 156.901 158.333 155.062C160.172 153.228 160.172 150.248 158.333 148.414H158.328Z" fill="white" stroke="white" stroke-width="2" stroke-linecap="round" stroke-linejoin="round"/>
<path d="M158.357 148.448L149.652 139.738C153.775 132.673 152.827 123.46 146.773 117.402C139.559 110.192 127.878 110.192 120.668 117.402C113.453 124.612 113.453 136.298 120.668 143.507C126.726 149.566 135.934 150.514 142.999 146.386L151.704 155.091C153.543 156.93 156.519 156.93 158.357 155.091C160.196 153.258 160.196 150.277 158.357 148.443V148.448ZM133.675 140.144C128.284 140.144 123.915 135.775 123.915 130.385C123.915 124.994 128.284 120.625 133.675 120.625C139.065 120.625 143.434 124.994 143.434 130.385C143.434 135.775 139.065 140.144 133.675 140.144Z" fill="#EBF5E9" stroke="#00A73C" stroke-width="2" stroke-linecap="round" stroke-linejoin="round"/>
<path d="M55.2502 186.39C55.7622 186.47 56.4182 186.518 56.9622 186.518H62.1942C62.7382 186.518 63.3782 186.47 63.9222 186.39V188.454C63.3782 188.422 62.7542 188.406 62.1942 188.406H56.9622C56.4182 188.406 55.7302 188.422 55.2502 188.454V186.39ZM53.3942 190.486C53.8742 190.55 54.4342 190.582 54.9302 190.582H65.4102C65.7462 190.582 66.4502 190.55 66.8662 190.486V192.566C66.4662 192.534 65.8582 192.518 65.4102 192.518H61.5542C61.4582 194.166 61.1062 195.51 60.5302 196.63C59.9702 197.75 58.7382 198.982 57.3142 199.702L55.4422 198.342C56.5782 197.91 57.6982 196.998 58.3382 196.054C58.9942 195.062 59.2662 193.862 59.3302 192.518H54.9302C54.4662 192.518 53.8422 192.55 53.3942 192.582V190.486ZM64.8822 185.286C65.2822 185.878 65.8422 186.886 66.1462 187.478L64.8662 188.038C64.5302 187.382 64.0342 186.422 63.6022 185.814L64.8822 185.286ZM66.7702 184.566C67.1862 185.174 67.7782 186.182 68.0662 186.742L66.7862 187.302C66.4502 186.63 65.9382 185.702 65.5062 185.094L66.7702 184.566ZM69.7142 191.062C70.2902 191.11 71.4582 191.158 72.2902 191.158H80.8822C81.6342 191.158 82.3382 191.094 82.7542 191.062V193.574C82.3702 193.558 81.5542 193.494 80.8822 193.494H72.2902C71.3782 193.494 70.3062 193.526 69.7142 193.574V191.062ZM93.3462 185.798C92.9462 186.358 92.5462 187.078 92.3542 187.43H95.6022C96.0982 187.43 96.6422 187.366 96.9942 187.254L98.6262 188.262C98.4502 188.566 98.2422 188.998 98.0982 189.398C97.6662 190.694 96.8662 192.406 95.7302 194.006C96.4182 194.502 97.0422 194.966 97.5062 195.35L95.9862 197.158C95.5542 196.758 94.9622 196.262 94.3062 195.734C92.8982 197.222 91.0742 198.582 88.5782 199.526L86.7222 197.91C89.4902 197.062 91.2662 195.766 92.5942 194.438C91.5542 193.67 90.4982 192.95 89.6822 192.438L91.1062 190.982C91.9542 191.462 92.9622 192.118 93.9702 192.79C94.8022 191.638 95.4902 190.246 95.7302 189.254H91.1542C90.0342 190.742 88.5462 192.278 86.9302 193.398L85.2022 192.07C88.0022 190.326 89.4902 188.134 90.2902 186.742C90.5462 186.358 90.8822 185.622 91.0262 185.078L93.3462 185.798ZM104.802 185.126L106.69 185.75C106.226 186.838 105.666 187.926 105.026 188.982V199.83H103.122V191.67C102.61 192.294 102.066 192.87 101.538 193.366C101.33 192.886 100.786 191.83 100.434 191.35C102.162 189.894 103.842 187.542 104.802 185.126ZM110.69 197.894H113.042C113.81 197.894 113.938 197.35 114.066 195.094C114.514 195.43 115.314 195.798 115.826 195.91C115.602 198.662 115.106 199.67 113.218 199.67H110.482C108.466 199.67 107.89 199.03 107.89 196.774V185.334H109.81V190.806C111.314 189.942 112.786 188.918 113.842 188.006L115.25 189.67C113.666 190.79 111.682 191.862 109.81 192.758V196.79C109.81 197.734 109.922 197.894 110.69 197.894ZM120.242 190.342C121.362 190.342 122.29 191.27 122.29 192.39C122.29 193.51 121.362 194.438 120.242 194.438C119.122 194.438 118.194 193.51 118.194 192.39C118.194 191.27 119.122 190.342 120.242 190.342ZM128.898 192.15V193.142H135.586V192.15H128.898ZM128.898 189.606V190.598H135.586V189.606H128.898ZM128.898 187.078V188.07H135.586V187.078H128.898ZM135.618 197.926H137.282C137.826 197.926 137.922 197.654 138.002 195.798C138.402 196.102 139.25 196.422 139.746 196.55C139.538 199.078 139.042 199.734 137.458 199.734H135.346C133.442 199.734 132.994 199.158 132.994 197.366V194.806H131.058C130.722 197.35 129.778 199.03 125.826 199.926C125.65 199.414 125.138 198.63 124.77 198.23C128.05 197.622 128.738 196.55 129.01 194.806H127.058V185.414H137.522V194.806H134.914V197.35C134.914 197.862 135.01 197.926 135.618 197.926ZM145.234 185.494C147.026 185.83 150.098 186.166 151.762 186.278L151.506 188.15C149.826 188.022 146.834 187.67 144.93 187.35L145.234 185.494ZM152.322 190.582C151.906 190.87 151.57 191.158 151.282 191.398C150.546 192.022 149.058 193.398 148.674 193.814C148.818 193.798 149.106 193.862 149.282 193.926C149.746 194.07 150.034 194.422 150.242 195.014C150.386 195.446 150.562 196.054 150.706 196.47C150.85 196.966 151.202 197.222 151.826 197.222C153.058 197.222 154.162 197.094 154.962 196.934L154.834 199.03C154.178 199.158 152.53 199.27 151.698 199.27C150.178 199.27 149.362 198.934 148.962 197.894C148.802 197.414 148.61 196.662 148.498 196.262C148.322 195.702 147.97 195.494 147.65 195.494C147.314 195.494 146.978 195.75 146.594 196.134C146.05 196.694 144.85 198.006 143.746 199.414L141.858 198.086C142.146 197.846 142.53 197.51 142.962 197.094C143.778 196.262 147.058 192.998 148.514 191.462C147.394 191.494 145.474 191.67 144.562 191.75C144.002 191.798 143.522 191.878 143.186 191.926L142.994 189.718C143.362 189.75 143.938 189.782 144.53 189.766C145.282 189.766 148.914 189.606 150.242 189.43C150.546 189.398 150.978 189.318 151.154 189.254L152.322 190.582ZM161.998 196.582C161.998 197.174 162.654 197.574 163.614 197.574C163.95 197.574 164.254 197.558 164.542 197.526C164.446 196.486 163.854 195.814 162.99 195.814C162.382 195.814 161.998 196.182 161.998 196.582ZM159.278 186.278C159.726 186.342 160.286 186.358 160.734 186.358C161.582 186.358 165.006 186.294 165.918 186.214C166.574 186.15 166.942 186.102 167.134 186.038L168.174 187.462C167.806 187.702 167.422 187.926 167.054 188.198C166.19 188.806 164.51 190.214 163.502 191.014C164.03 190.886 164.51 190.838 165.022 190.838C167.742 190.838 169.806 192.534 169.806 194.87C169.806 197.398 167.886 199.398 164.014 199.398C161.79 199.398 160.11 198.374 160.11 196.774C160.11 195.478 161.278 194.278 162.974 194.278C164.958 194.278 166.158 195.494 166.382 197.014C167.262 196.55 167.71 195.814 167.71 194.838C167.71 193.398 166.27 192.422 164.382 192.422C161.934 192.422 160.334 193.718 158.622 195.67L157.166 194.166C158.302 193.254 160.238 191.622 161.182 190.838C162.078 190.102 163.742 188.758 164.526 188.07C163.71 188.086 161.502 188.182 160.654 188.23C160.222 188.262 159.71 188.31 159.342 188.358L159.278 186.278ZM176.318 185.126L178.206 185.75C177.742 186.838 177.182 187.926 176.542 188.982V199.83H174.638V191.67C174.126 192.294 173.582 192.87 173.054 193.366C172.846 192.886 172.302 191.83 171.95 191.35C173.678 189.894 175.358 187.542 176.318 185.126ZM182.206 197.894H184.558C185.326 197.894 185.454 197.35 185.582 195.094C186.03 195.43 186.83 195.798 187.342 195.91C187.118 198.662 186.622 199.67 184.734 199.67H181.998C179.982 199.67 179.406 199.03 179.406 196.774V185.334H181.326V190.806C182.83 189.942 184.302 188.918 185.358 188.006L186.766 189.67C185.182 190.79 183.198 191.862 181.326 192.758V196.79C181.326 197.734 181.438 197.894 182.206 197.894ZM38.608 216.39C38.608 212.966 40.032 210.406 41.76 208.71L43.28 209.382C41.68 211.11 40.416 213.318 40.416 216.39C40.416 219.462 41.68 221.67 43.28 223.398L41.76 224.07C40.032 222.374 38.608 219.814 38.608 216.39ZM52.72 219.51H55.296C55.392 218.678 55.488 217.606 55.568 216.278H48.528C48.368 217.398 48.208 218.502 48.048 219.51H52.416C51.792 218.87 50.688 218.07 49.744 217.526L50.96 216.406C51.952 216.934 53.216 217.782 53.84 218.438L52.72 219.51ZM55.792 211.35H49.2C49.072 212.374 48.928 213.446 48.784 214.518H52.928C52.352 213.926 51.2 213.174 50.272 212.662L51.392 211.526C52.336 211.99 53.552 212.742 54.176 213.334L53.056 214.518H55.664C55.712 213.574 55.76 212.518 55.792 211.35ZM59.488 216.278H57.488C57.408 217.574 57.328 218.646 57.232 219.51H59.056V221.238H56.976C56.832 222.07 56.64 222.566 56.432 222.87C56 223.51 55.584 223.718 54.96 223.83C54.384 223.926 53.504 223.91 52.624 223.878C52.608 223.398 52.384 222.662 52.112 222.198C52.928 222.278 53.616 222.278 54 222.278C54.32 222.278 54.48 222.198 54.672 221.942C54.784 221.814 54.88 221.59 54.976 221.238H47.776L47.584 222.31L45.568 222.15C45.904 220.55 46.272 218.47 46.592 216.278H44.528V214.518H46.832C47.056 212.838 47.248 211.142 47.392 209.622H57.776C57.776 209.622 57.76 210.358 57.744 210.598C57.696 212.07 57.648 213.366 57.584 214.518H59.488V216.278ZM68.576 218.758H67.328C67.152 219.654 66.88 220.406 66.48 221.03C66.976 221.318 67.44 221.606 67.808 221.878C68.992 221.254 69.92 220.454 70.624 219.462C70.176 218.518 69.824 217.462 69.536 216.31C69.312 216.726 69.056 217.11 68.8 217.462C68.736 217.398 68.672 217.318 68.576 217.222V218.758ZM63.984 218.758L63.52 219.606C64 219.798 64.464 219.99 64.928 220.214C65.184 219.814 65.392 219.334 65.536 218.758H63.984ZM72.592 213.558H70.752C70.976 214.902 71.296 216.166 71.728 217.318C72.128 216.23 72.416 214.966 72.592 213.558ZM75.456 213.558H74.56C74.224 215.926 73.68 217.91 72.816 219.526C73.552 220.662 74.48 221.574 75.648 222.182C75.216 222.566 74.624 223.302 74.336 223.83C73.248 223.174 72.368 222.326 71.648 221.286C70.768 222.342 69.664 223.206 68.272 223.91C68.16 223.638 67.92 223.206 67.664 222.822L66.944 223.558C66.512 223.19 65.936 222.774 65.28 222.358C64.336 223.062 63.056 223.526 61.344 223.878C61.232 223.334 60.896 222.694 60.592 222.31C61.888 222.134 62.88 221.878 63.632 221.446C63.344 221.286 63.04 221.142 62.736 221.014L62.56 221.318L60.896 220.806C61.248 220.246 61.648 219.526 62.048 218.758H60.528V217.222H62.848C63.04 216.822 63.232 216.438 63.392 216.086L63.744 216.166V214.63C63.008 215.366 62.144 216.038 61.344 216.486C61.136 216.07 60.736 215.446 60.384 215.11C61.36 214.71 62.432 213.942 63.2 213.11H60.704V211.606H61.92C61.776 211.062 61.424 210.326 61.088 209.75L62.464 209.174C62.88 209.782 63.296 210.598 63.424 211.158L62.4 211.606H63.744V208.918H65.488V211.606H66.752L65.696 211.142C66.064 210.566 66.512 209.718 66.768 209.11L68.368 209.75C67.872 210.438 67.376 211.11 66.992 211.606H68.512V213.11H65.888C66.656 213.542 67.792 214.214 68.144 214.454L67.136 215.766C66.784 215.43 66.112 214.87 65.488 214.374V216.31H64.464L65.152 216.454L64.768 217.222H68.576C68.208 216.854 67.632 216.358 67.28 216.118C68.64 214.486 69.408 211.766 69.792 208.918L71.712 209.174C71.584 210.07 71.408 210.95 71.2 211.798H75.456V213.558ZM80.08 223.574C79.104 222.374 77.744 220.998 76.64 220.038L78.304 218.598C79.44 219.526 80.992 221.11 81.792 222.102L80.08 223.574ZM87.664 208.966L89.424 209.51C89.072 210.47 88.64 211.462 88.16 212.422V223.862H86.32V215.494C85.936 216.038 85.536 216.534 85.136 216.966C84.976 216.518 84.464 215.446 84.16 214.998C85.552 213.526 86.88 211.254 87.664 208.966ZM90.624 219.366L92.384 219.91C91.776 221.078 90.928 222.39 90.096 223.254C89.728 222.95 89.088 222.534 88.672 222.31C89.44 221.526 90.224 220.294 90.624 219.366ZM97.696 218.342L94.944 218.486V223.862H93.056V218.566L89.056 218.758L88.784 216.966L91.776 216.886C91.936 216.726 92.096 216.582 92.256 216.406C91.488 215.686 90.272 214.806 89.296 214.166L90.4 212.934C90.672 213.094 90.96 213.27 91.248 213.462C91.6 212.982 91.968 212.422 92.304 211.878C91.456 211.958 90.608 212.038 89.808 212.102C89.744 211.654 89.52 210.966 89.312 210.55C92.192 210.31 95.456 209.83 97.488 209.238L98.736 210.758C97.52 211.094 96.096 211.35 94.624 211.574L94.688 211.606C93.968 212.518 93.168 213.542 92.496 214.31C92.88 214.582 93.216 214.854 93.504 215.094C94.384 214.102 95.232 213.046 95.856 212.134L97.6 212.934C96.544 214.246 95.28 215.638 94.08 216.822C94.976 216.79 95.904 216.758 96.832 216.726C96.592 216.31 96.32 215.91 96.064 215.542L97.648 214.918C98.512 216.038 99.424 217.574 99.808 218.614L98.096 219.35C98 219.062 97.872 218.71 97.696 218.342ZM95.728 220.022L97.28 219.286C98.048 220.198 98.976 221.462 99.344 222.31L97.68 223.158C97.36 222.294 96.496 220.982 95.728 220.022ZM108.576 218.758H107.328C107.152 219.654 106.88 220.406 106.48 221.03C106.976 221.318 107.44 221.606 107.808 221.878C108.992 221.254 109.92 220.454 110.624 219.462C110.176 218.518 109.824 217.462 109.536 216.31C109.312 216.726 109.056 217.11 108.8 217.462C108.736 217.398 108.672 217.318 108.576 217.222V218.758ZM103.984 218.758L103.52 219.606C104 219.798 104.464 219.99 104.928 220.214C105.184 219.814 105.392 219.334 105.536 218.758H103.984ZM112.592 213.558H110.752C110.976 214.902 111.296 216.166 111.728 217.318C112.128 216.23 112.416 214.966 112.592 213.558ZM115.456 213.558H114.56C114.224 215.926 113.68 217.91 112.816 219.526C113.552 220.662 114.48 221.574 115.648 222.182C115.216 222.566 114.624 223.302 114.336 223.83C113.248 223.174 112.368 222.326 111.648 221.286C110.768 222.342 109.664 223.206 108.272 223.91C108.16 223.638 107.92 223.206 107.664 222.822L106.944 223.558C106.512 223.19 105.936 222.774 105.28 222.358C104.336 223.062 103.056 223.526 101.344 223.878C101.232 223.334 100.896 222.694 100.592 222.31C101.888 222.134 102.88 221.878 103.632 221.446C103.344 221.286 103.04 221.142 102.736 221.014L102.56 221.318L100.896 220.806C101.248 220.246 101.648 219.526 102.048 218.758H100.528V217.222H102.848C103.04 216.822 103.232 216.438 103.392 216.086L103.744 216.166V214.63C103.008 215.366 102.144 216.038 101.344 216.486C101.136 216.07 100.736 215.446 100.384 215.11C101.36 214.71 102.432 213.942 103.2 213.11H100.704V211.606H101.92C101.776 211.062 101.424 210.326 101.088 209.75L102.464 209.174C102.88 209.782 103.296 210.598 103.424 211.158L102.4 211.606H103.744V208.918H105.488V211.606H106.752L105.696 211.142C106.064 210.566 106.512 209.718 106.768 209.11L108.368 209.75C107.872 210.438 107.376 211.11 106.992 211.606H108.512V213.11H105.888C106.656 213.542 107.792 214.214 108.144 214.454L107.136 215.766C106.784 215.43 106.112 214.87 105.488 214.374V216.31H104.464L105.152 216.454L104.768 217.222H108.576C108.208 216.854 107.632 216.358 107.28 216.118C108.64 214.486 109.408 211.766 109.792 208.918L111.712 209.174C111.584 210.07 111.408 210.95 111.2 211.798H115.456V213.558ZM127.792 221.142H121.456V222.038H127.792V221.142ZM126.576 216.822H121.456V217.654H126.576V216.822ZM121.456 219.014V219.75H129.68V223.878H127.792V223.446H121.456V223.878H119.632V215.446H128.464V219.014H121.456ZM131.36 210.038V211.526H128.72C128.992 211.91 129.248 212.294 129.392 212.598L127.632 213.094C127.456 212.678 127.056 212.054 126.672 211.526H125.744C125.456 211.894 125.152 212.214 124.864 212.502V213.366H130.992V216.534H129.136V214.79H118.944V216.534H117.152V213.366H123.04V212.246H123.744C123.456 212.086 123.152 211.942 122.944 211.846C123.072 211.75 123.216 211.638 123.344 211.526H121.472C121.696 211.91 121.888 212.294 122 212.582L120.288 213.062C120.16 212.662 119.872 212.054 119.552 211.526H119.296C118.88 212.118 118.432 212.646 118.016 213.062C117.648 212.758 116.896 212.246 116.464 212.038C117.424 211.238 118.336 210.006 118.816 208.79L120.592 209.27C120.48 209.526 120.352 209.782 120.224 210.038H123.776V211.11C124.416 210.454 124.96 209.622 125.296 208.79L127.104 209.222C126.992 209.494 126.864 209.766 126.72 210.038H131.36ZM137.744 218.87L138.064 220.662C136.304 221.286 134.384 221.894 132.848 222.39L132.416 220.454C132.976 220.31 133.632 220.134 134.368 219.926V216.166H132.752V214.422H134.368V211.606H132.608V209.83H137.888V211.606H136.176V214.422H137.616V216.166H136.176V219.366C136.704 219.206 137.232 219.046 137.744 218.87ZM140.208 214.038V215.414H141.856V214.038H140.208ZM140.208 211.206V212.55H141.856V211.206H140.208ZM145.04 212.55V211.206H143.456V212.55H145.04ZM145.04 215.414V214.038H143.456V215.414H145.04ZM143.632 221.638H147.568V223.366H137.28V221.638H141.696V220.118H138.384V218.406H141.696V217.03H138.496V209.59H146.848V217.03H143.632V218.406H147.024V220.118H143.632V221.638ZM153.392 216.39C153.392 219.814 151.968 222.374 150.24 224.07L148.72 223.398C150.32 221.67 151.584 219.462 151.584 216.39C151.584 213.318 150.32 211.11 148.72 209.382L150.24 208.71C151.968 210.406 153.392 212.966 153.392 216.39ZM158.608 216.39C158.608 212.966 160.032 210.406 161.76 208.71L163.28 209.382C161.68 211.11 160.416 213.318 160.416 216.39C160.416 219.462 161.68 221.67 163.28 223.398L161.76 224.07C160.032 222.374 158.608 219.814 158.608 216.39ZM174.896 213.174L173.456 213.686C173.344 212.838 172.944 211.558 172.544 210.598L173.888 210.134C174.352 211.094 174.752 212.326 174.896 213.174ZM165.072 218.278L166.528 218.518C166.4 220.038 166.048 221.606 165.584 222.63C165.28 222.438 164.624 222.118 164.256 221.99C164.72 221.046 164.944 219.622 165.072 218.278ZM168.384 218.582L169.632 218.214C170.032 219.126 170.352 220.294 170.448 221.094L169.12 221.526C169.056 220.726 168.736 219.526 168.384 218.582ZM177.632 209.99L179.264 210.502C178.816 211.622 178.32 212.902 177.92 213.718L176.656 213.27C177.008 212.374 177.456 210.966 177.632 209.99ZM167.28 215.734L168.608 215.654C168.464 215.27 168.304 214.886 168.128 214.55C167.84 214.966 167.568 215.366 167.28 215.734ZM179.488 221.414V223.142H172.304V223.814H170.528V217.574L169.328 218.102C169.28 217.83 169.216 217.526 169.12 217.19L168.304 217.254V223.862H166.704V217.382L164.592 217.542L164.4 215.894C164.784 215.878 165.2 215.846 165.664 215.83C165.872 215.542 166.096 215.222 166.304 214.902C165.888 214.166 165.104 213.27 164.448 212.582L165.36 211.35C165.488 211.462 165.616 211.59 165.744 211.718C166.192 210.838 166.64 209.75 166.896 208.934L168.512 209.494C167.936 210.598 167.28 211.862 166.72 212.758C166.912 212.982 167.088 213.206 167.232 213.414C167.76 212.518 168.24 211.59 168.608 210.806L170.112 211.494C169.52 212.47 168.832 213.542 168.128 214.55L169.376 214.038C169.84 214.95 170.288 216.07 170.528 216.95V209.526H172.304V218.774C173.152 218.022 174.016 216.742 174.544 215.574H172.624V213.878H175.008V209.238H176.656V213.878H179.168V215.574H176.656V215.814C177.344 216.406 178.992 218.07 179.376 218.486L178.256 219.958C177.92 219.398 177.264 218.518 176.656 217.75V221.19H175.008V217.83C174.448 218.918 173.776 219.942 173.056 220.598C172.912 220.102 172.576 219.382 172.304 218.902V221.414H179.488ZM189.952 212.646V211.718H186.64V210.166H189.952V208.918H191.84V210.166H195.216V211.718H191.84V212.646H194.752V214.182H187.216V212.646H189.952ZM181.072 218.278L182.592 218.534C182.448 220.054 182.096 221.638 181.648 222.662C181.328 222.438 180.64 222.134 180.256 221.99C180.72 221.046 180.944 219.622 181.072 218.278ZM185.248 217.174L184.448 217.238V223.862H182.816V217.366L180.592 217.542L180.4 215.894L181.552 215.83C181.792 215.542 182.032 215.222 182.272 214.886C181.824 214.166 181.088 213.302 180.448 212.646L181.376 211.366C181.488 211.478 181.616 211.59 181.744 211.702C182.192 210.822 182.64 209.75 182.896 208.934L184.544 209.51C183.984 210.614 183.328 211.878 182.736 212.774C182.928 212.982 183.104 213.206 183.248 213.398C183.808 212.502 184.32 211.59 184.688 210.806L186.24 211.526C185.36 212.87 184.272 214.454 183.264 215.734L184.656 215.654C184.496 215.302 184.32 214.95 184.144 214.63L185.488 214.07C185.904 214.79 186.304 215.654 186.592 216.422V214.918H195.376V218.086H193.712V216.39H188.176V218.086H186.592V217.606L185.488 218.118C185.44 217.846 185.344 217.526 185.248 217.174ZM184.592 218.614L185.92 218.214C186.304 219.094 186.64 220.262 186.736 221.03L185.328 221.494C185.248 220.71 184.944 219.526 184.592 218.614ZM188.512 218.438V217.19H190.224V218.47C190.224 220.118 189.792 222.422 186.816 223.878C186.528 223.494 185.936 222.95 185.52 222.614C188.144 221.366 188.512 219.606 188.512 218.438ZM193.328 222.102H193.872C194.096 222.102 194.176 221.846 194.208 220.118C194.544 220.422 195.248 220.694 195.728 220.822C195.568 223.11 195.136 223.702 194.048 223.702H193.024C191.664 223.702 191.376 223.19 191.376 221.606V217.19H193.088V221.606C193.088 222.038 193.12 222.102 193.328 222.102ZM201.392 216.39C201.392 219.814 199.968 222.374 198.24 224.07L196.72 223.398C198.32 221.67 199.584 219.462 199.584 216.39C199.584 213.318 198.32 211.11 196.72 209.382L198.24 208.71C199.968 210.406 201.392 212.966 201.392 216.39Z" fill="#333333"/>
</svg>
