<svg width="240" height="253" viewBox="0 0 240 253" fill="none" xmlns="http://www.w3.org/2000/svg">
<rect y="0.470459" width="240" height="252" rx="10" fill="white"/>
<path d="M39.5545 38.4525C39.5545 39.9218 39.3138 41.1885 38.8325 42.2525C38.3512 43.2911 37.7052 44.1525 36.8945 44.8365C36.1092 45.5205 35.1718 46.0271 34.0825 46.3565C33.0185 46.6605 31.9038 46.8125 30.7385 46.8125C29.5478 46.8125 28.4205 46.6605 27.3565 46.3565C26.2925 46.0271 25.3552 45.5205 24.5445 44.8365C23.7592 44.1525 23.1258 43.2911 22.6445 42.2525C22.1632 41.1885 21.9225 39.9218 21.9225 38.4525V28.2685C21.9225 26.7231 22.1632 25.4185 22.6445 24.3545C23.1258 23.2905 23.7592 22.4291 24.5445 21.7705C25.3552 21.1118 26.2925 20.6431 27.3565 20.3645C28.4205 20.0605 29.5478 19.9085 30.7385 19.9085C31.9038 19.9085 33.0185 20.0605 34.0825 20.3645C35.1718 20.6431 36.1092 21.1118 36.8945 21.7705C37.7052 22.4291 38.3512 23.2905 38.8325 24.3545C39.3138 25.4185 39.5545 26.7105 39.5545 28.2305V38.4525ZM34.2345 28.7245C34.2345 27.3058 33.9432 26.2291 33.3605 25.4945C32.8032 24.7598 31.9292 24.3925 30.7385 24.3925C29.5225 24.3925 28.6232 24.7598 28.0405 25.4945C27.4832 26.2291 27.2045 27.3058 27.2045 28.7245V37.9965C27.2045 39.4151 27.4832 40.4918 28.0405 41.2265C28.6232 41.9611 29.5225 42.3285 30.7385 42.3285C31.9292 42.3285 32.8032 41.9611 33.3605 41.2265C33.9432 40.4918 34.2345 39.4151 34.2345 37.9965V28.7245ZM54.832 46.4705H49.512V25.7985L45.75 28.2685V23.1385L50.044 20.2505H54.832V46.4705Z" fill="#00A73C"/>
<rect x="124" y="20.4705" width="96" height="26" rx="13" fill="#F39C1A"/>
<path d="M157.118 29.3005L155.76 30.0985C155.494 29.4405 154.836 28.4045 154.304 27.6065L155.55 26.9205C156.11 27.6485 156.81 28.6425 157.118 29.3005ZM157.342 32.1425H153.87C154.542 34.7605 155.802 37.0565 157.734 38.2465C157.342 38.5545 156.796 39.1845 156.53 39.6465C154.962 38.5125 153.884 36.7485 153.114 34.6345C152.624 36.4125 151.658 38.1765 149.936 39.6745C149.656 39.3805 149.222 39.0305 148.802 38.7505V39.6605H147.15V35.1385C146.506 35.7125 145.862 36.2865 145.274 36.7625L144.434 35.3345C145.106 34.8445 146.142 34.0325 147.15 33.1645V31.1765L146.03 31.8625C145.764 31.1485 145.078 29.9865 144.518 29.1465L145.82 28.3905C146.268 28.9925 146.786 29.7905 147.15 30.4345V26.5985H148.802V38.4285C150.958 36.4825 151.672 34.1865 151.896 32.1425H149.152V30.4905H151.994V30.1965V26.6405H153.646V30.1965V30.4905H157.342V32.1425ZM169.494 31.1485H167.492C165.896 31.1485 165.518 30.7425 165.518 29.3985V26.7105H167.058V27.8445C168.01 27.5925 168.962 27.2705 169.564 26.9485L170.712 27.9425C169.662 28.3905 168.276 28.7545 167.058 29.0065V29.3985C167.058 29.7765 167.128 29.8325 167.688 29.8325H169.34C169.76 29.8325 169.858 29.7065 169.9 28.9085C170.208 29.1185 170.824 29.3425 171.244 29.4125C171.09 30.7845 170.656 31.1485 169.494 31.1485ZM169.564 35.8805H167.506C165.896 35.8805 165.518 35.4605 165.518 34.1025V31.2745H167.058V32.5485C168.066 32.2825 169.074 31.9465 169.718 31.5965L170.866 32.5905C169.788 33.0805 168.346 33.4725 167.058 33.7245V34.0885C167.058 34.5085 167.128 34.5505 167.702 34.5505H169.41C169.844 34.5505 169.928 34.4105 169.984 33.5425C170.292 33.7665 170.922 33.9905 171.328 34.0605C171.174 35.4885 170.74 35.8805 169.564 35.8805ZM158.756 29.7205L158.686 28.4325L159.764 28.4185C160.114 27.8025 160.464 27.0885 160.674 26.5425L162.312 26.9345C162.004 27.4245 161.668 27.9285 161.346 28.3765L163.068 28.3345C162.886 28.1105 162.69 27.8865 162.508 27.6905L163.67 27.0745C164.37 27.7605 165.14 28.7265 165.448 29.3985L164.202 30.0985C164.132 29.9165 164.02 29.7205 163.908 29.5105C162.046 29.6085 160.156 29.6645 158.756 29.7205ZM159.764 39.4365L158.462 38.5265C159.358 38.0085 160.044 37.1545 160.366 36.2585L161.78 36.7905C161.402 37.8265 160.786 38.8205 159.764 39.4365ZM160.884 33.1925H163.152V32.6745H160.884V33.1925ZM163.152 31.2885H160.884V31.7785H163.152V31.2885ZM163.516 36.1605L164.048 35.6705C163.642 35.8385 163.082 35.8525 162.368 35.8525C162.298 35.4885 162.102 35.0125 161.934 34.7185C162.354 34.7325 162.83 34.7325 162.942 34.7325C163.096 34.7185 163.152 34.6765 163.152 34.5365V34.1165H160.884V35.8805H159.4V30.2105H164.65V34.5365C164.65 34.8445 164.622 35.0685 164.552 35.2505C165.28 35.6005 166.176 36.1745 166.624 36.6505L165.546 37.6585C165.154 37.1825 164.272 36.5385 163.516 36.1605ZM164.538 38.2185H166.456C166.96 38.2185 167.058 38.0785 167.114 37.1545C167.436 37.3925 168.094 37.6025 168.514 37.6865C168.346 39.1705 167.898 39.5485 166.638 39.5485H164.342C162.606 39.5485 162.172 39.1425 162.172 37.8265V36.4125H163.796V37.8125C163.796 38.1765 163.922 38.2185 164.538 38.2185ZM167.87 36.8605L169.186 36.1325C170.11 36.8325 171.118 37.8405 171.538 38.6525L170.096 39.4645C169.746 38.7085 168.78 37.6165 167.87 36.8605ZM177.278 27.0465V28.3065H173.162V27.0465H177.278ZM180.582 26.6685H182.108C183.004 28.1525 184.39 29.6225 185.762 30.3085C185.454 30.7145 185.104 31.3305 184.88 31.8205C183.55 30.9805 182.15 29.4965 181.394 28.2365C180.694 29.4965 179.364 31.0225 177.908 31.9325C177.74 31.5125 177.362 30.8825 177.082 30.5325C177.236 30.4485 177.39 30.3505 177.53 30.2385H172.462V28.9225H177.726V30.0985C178.93 29.1885 180.022 27.8165 180.582 26.6685ZM182.626 32.3245L184.082 32.9545C182.934 34.4105 181.184 35.6145 179.448 36.4125C179.21 36.0625 178.776 35.5725 178.384 35.2645C179.966 34.6485 181.73 33.5425 182.626 32.3245ZM181.366 30.3365L182.808 30.9105C181.94 32.0585 180.652 33.0665 179.406 33.7385C179.154 33.4305 178.706 32.9965 178.342 32.7305C179.434 32.1845 180.708 31.2465 181.366 30.3365ZM177.32 30.8685V32.1425H173.12V30.8685H177.32ZM173.12 34.0325V32.7865H177.32V34.0325H173.12ZM175.92 36.0345H174.478V37.6445H175.92V36.0345ZM177.334 34.7185V38.9465H174.478V39.4925H173.078V34.7185H177.334ZM183.732 34.5505L185.23 35.1945C183.802 37.3785 181.436 38.8345 178.734 39.7165C178.524 39.2825 178.104 38.6945 177.698 38.2885C180.218 37.6445 182.528 36.3705 183.732 34.5505ZM190.2 30.0005L189.122 30.3645C189.108 29.7065 188.898 28.7125 188.646 27.9565L189.654 27.6345C189.948 28.3625 190.158 29.3565 190.2 30.0005ZM199.58 31.2045V32.7445H198.348V39.6745H196.766V32.7445H195.408C195.394 34.8305 195.1 37.7845 193.294 39.7165C193.084 39.3525 192.482 38.7925 192.104 38.5825C192.174 38.4985 192.258 38.4145 192.328 38.3305H188.352V39.3105H186.91V27.0885H188.352V34.6765C189.052 34.0465 189.738 33.0245 190.172 32.0445H188.618V30.6445H190.312V26.7525H191.67V30.0145C191.922 29.3425 192.188 28.3205 192.314 27.6205L193.616 27.9285C193.266 28.7685 192.902 29.7485 192.594 30.3645L191.67 30.0565V30.6445H193.35V32.0445H191.67V32.2405C192.062 32.5625 193.182 33.5985 193.448 33.8645L192.552 34.9705C192.37 34.6765 192.02 34.2005 191.67 33.7525V36.6225H190.312V34.2145C189.906 34.9565 189.444 35.6425 188.94 36.1045C188.828 35.7125 188.562 35.1805 188.352 34.8165V36.8885H193.126V36.9865C193.742 35.5445 193.812 33.9345 193.812 32.5765V27.7185L194.792 27.9845C196.052 27.6765 197.354 27.2285 198.166 26.7805L199.51 27.9985C198.32 28.5305 196.808 28.9505 195.408 29.2585V31.2045H199.58Z" fill="white"/>
<path d="M160 95.7642H150.812V140.081H160V95.7642Z" fill="#EBF5E9" stroke="#EBF5E9" stroke-width="2" stroke-miterlimit="10" stroke-linecap="square"/>
<path d="M142.924 108.126H133.736V140.081H142.924V108.126Z" fill="#EBF5E9" stroke="#EBF5E9" stroke-width="2" stroke-miterlimit="10" stroke-linecap="square"/>
<path d="M125.853 101.577H116.664V140.081H125.853V101.577Z" fill="#EBF5E9" stroke="#EBF5E9" stroke-width="2" stroke-miterlimit="10" stroke-linecap="square"/>
<path d="M108.776 114.592H99.5881V140.086H108.776V114.592Z" fill="#EBF5E9" stroke="#EBF5E9" stroke-width="2" stroke-miterlimit="10" stroke-linecap="square"/>
<path d="M99.5881 108.102L120.437 88.2389L137.096 101.646L154.197 81.8469" stroke="#00A73C" stroke-width="2" stroke-linecap="round" stroke-linejoin="round"/>
<path d="M99.5881 114.592H108.776V120.576" stroke="#00A73C" stroke-width="2" stroke-miterlimit="10" stroke-linecap="square"/>
<path d="M133.736 108.126H142.924V138.477" stroke="#00A73C" stroke-width="2" stroke-miterlimit="10" stroke-linecap="square"/>
<path d="M116.664 101.577H125.853V124.467" stroke="#00A73C" stroke-width="2" stroke-miterlimit="10" stroke-linecap="square"/>
<path d="M150.812 95.7642H160V138.443" stroke="#00A73C" stroke-width="2" stroke-miterlimit="10" stroke-linecap="square"/>
<path d="M148.276 76.4705H160V87.3265" stroke="#00A73C" stroke-width="2" stroke-linecap="round" stroke-linejoin="round"/>
<path d="M108.776 138.477V140.081" stroke="#00A73C" stroke-width="2" stroke-linecap="square" stroke-linejoin="round"/>
<path d="M125.853 138.477V140.081" stroke="#00A73C" stroke-width="2" stroke-linecap="square" stroke-linejoin="round"/>
<path d="M142.924 138.477V140.081" stroke="#00A73C" stroke-width="2" stroke-linecap="square" stroke-linejoin="round"/>
<path d="M160 138.477V140.081" stroke="#00A73C" stroke-width="2" stroke-linecap="square" stroke-linejoin="round"/>
<path d="M108.712 156.47C120.304 156.47 130.64 150.535 137.429 141.258C130.645 131.982 120.304 126.046 108.712 126.046C97.1204 126.046 86.7844 131.982 80 141.258C86.7844 150.535 97.1253 156.47 108.717 156.47H108.712Z" fill="white" stroke="#00A73C" stroke-width="2" stroke-linecap="round" stroke-linejoin="round"/>
<path d="M117.94 141.258C117.94 146.35 113.809 150.481 108.717 150.481C103.625 150.481 99.4947 146.35 99.4947 141.258C99.4947 136.166 103.625 132.036 108.717 132.036C113.809 132.036 117.94 136.166 117.94 141.258Z" fill="#EBF5E9" stroke="#00A73C" stroke-width="2" stroke-linecap="round" stroke-linejoin="round"/>
<path d="M53.1721 186.39C53.6841 186.47 54.3401 186.518 54.8841 186.518H60.1161C60.6601 186.518 61.3001 186.47 61.8441 186.39V188.454C61.3001 188.422 60.6761 188.406 60.1161 188.406H54.8841C54.3401 188.406 53.6521 188.422 53.1721 188.454V186.39ZM51.3161 190.486C51.7961 190.55 52.3561 190.582 52.8521 190.582H63.3321C63.6681 190.582 64.3721 190.55 64.7881 190.486V192.566C64.3881 192.534 63.7801 192.518 63.3321 192.518H59.4761C59.3801 194.166 59.0281 195.51 58.4521 196.63C57.8921 197.75 56.6601 198.982 55.2361 199.702L53.3641 198.342C54.5001 197.91 55.6201 196.998 56.2601 196.054C56.9161 195.062 57.1881 193.862 57.2521 192.518H52.8521C52.3881 192.518 51.7641 192.55 51.3161 192.582V190.486ZM62.8041 185.286C63.2041 185.878 63.7641 186.886 64.0681 187.478L62.7881 188.038C62.4521 187.382 61.9561 186.422 61.5241 185.814L62.8041 185.286ZM64.6921 184.566C65.1081 185.174 65.7001 186.182 65.9881 186.742L64.7081 187.302C64.3721 186.63 63.8601 185.702 63.4281 185.094L64.6921 184.566ZM67.6361 191.062C68.2121 191.11 69.3801 191.158 70.2121 191.158H78.8041C79.5561 191.158 80.2601 191.094 80.6761 191.062V193.574C80.2921 193.558 79.4761 193.494 78.8041 193.494H70.2121C69.3001 193.494 68.2281 193.526 67.6361 193.574V191.062ZM91.2681 185.798C90.8681 186.358 90.4681 187.078 90.2761 187.43H93.5241C94.0201 187.43 94.5641 187.366 94.9161 187.254L96.5481 188.262C96.3721 188.566 96.1641 188.998 96.0201 189.398C95.5881 190.694 94.7881 192.406 93.6521 194.006C94.3401 194.502 94.9641 194.966 95.4281 195.35L93.9081 197.158C93.4761 196.758 92.8841 196.262 92.2281 195.734C90.8201 197.222 88.9961 198.582 86.5001 199.526L84.6441 197.91C87.4121 197.062 89.1881 195.766 90.5161 194.438C89.4761 193.67 88.4201 192.95 87.6041 192.438L89.0281 190.982C89.8761 191.462 90.8841 192.118 91.8921 192.79C92.7241 191.638 93.4121 190.246 93.6521 189.254H89.0761C87.9561 190.742 86.4681 192.278 84.8521 193.398L83.1241 192.07C85.9241 190.326 87.4121 188.134 88.2121 186.742C88.4681 186.358 88.8041 185.622 88.9481 185.078L91.2681 185.798ZM102.724 185.126L104.612 185.75C104.148 186.838 103.588 187.926 102.948 188.982V199.83H101.044V191.67C100.532 192.294 99.9881 192.87 99.4601 193.366C99.2521 192.886 98.7081 191.83 98.3561 191.35C100.084 189.894 101.764 187.542 102.724 185.126ZM108.612 197.894H110.964C111.732 197.894 111.86 197.35 111.988 195.094C112.436 195.43 113.236 195.798 113.748 195.91C113.524 198.662 113.028 199.67 111.14 199.67H108.404C106.388 199.67 105.812 199.03 105.812 196.774V185.334H107.732V190.806C109.236 189.942 110.708 188.918 111.764 188.006L113.172 189.67C111.588 190.79 109.604 191.862 107.732 192.758V196.79C107.732 197.734 107.844 197.894 108.612 197.894ZM118.164 190.342C119.284 190.342 120.212 191.27 120.212 192.39C120.212 193.51 119.284 194.438 118.164 194.438C117.044 194.438 116.116 193.51 116.116 192.39C116.116 191.27 117.044 190.342 118.164 190.342ZM126.82 192.15V193.142H133.508V192.15H126.82ZM126.82 189.606V190.598H133.508V189.606H126.82ZM126.82 187.078V188.07H133.508V187.078H126.82ZM133.54 197.926H135.204C135.748 197.926 135.844 197.654 135.924 195.798C136.324 196.102 137.172 196.422 137.668 196.55C137.46 199.078 136.964 199.734 135.38 199.734H133.268C131.364 199.734 130.916 199.158 130.916 197.366V194.806H128.98C128.644 197.35 127.7 199.03 123.748 199.926C123.572 199.414 123.06 198.63 122.692 198.23C125.972 197.622 126.66 196.55 126.932 194.806H124.98V185.414H135.444V194.806H132.836V197.35C132.836 197.862 132.932 197.926 133.54 197.926ZM143.156 185.494C144.948 185.83 148.02 186.166 149.684 186.278L149.428 188.15C147.748 188.022 144.756 187.67 142.852 187.35L143.156 185.494ZM150.244 190.582C149.828 190.87 149.492 191.158 149.204 191.398C148.468 192.022 146.98 193.398 146.596 193.814C146.74 193.798 147.028 193.862 147.204 193.926C147.668 194.07 147.956 194.422 148.164 195.014C148.308 195.446 148.484 196.054 148.628 196.47C148.772 196.966 149.124 197.222 149.748 197.222C150.98 197.222 152.084 197.094 152.884 196.934L152.756 199.03C152.1 199.158 150.452 199.27 149.62 199.27C148.1 199.27 147.284 198.934 146.884 197.894C146.724 197.414 146.532 196.662 146.42 196.262C146.244 195.702 145.892 195.494 145.572 195.494C145.236 195.494 144.9 195.75 144.516 196.134C143.972 196.694 142.772 198.006 141.668 199.414L139.78 198.086C140.068 197.846 140.452 197.51 140.884 197.094C141.7 196.262 144.98 192.998 146.436 191.462C145.316 191.494 143.396 191.67 142.484 191.75C141.924 191.798 141.444 191.878 141.108 191.926L140.916 189.718C141.284 189.75 141.86 189.782 142.452 189.766C143.204 189.766 146.836 189.606 148.164 189.43C148.468 189.398 148.9 189.318 149.076 189.254L150.244 190.582ZM159.92 196.582C159.92 197.174 160.576 197.574 161.536 197.574C161.872 197.574 162.176 197.558 162.464 197.526C162.368 196.486 161.776 195.814 160.912 195.814C160.304 195.814 159.92 196.182 159.92 196.582ZM157.2 186.278C157.648 186.342 158.208 186.358 158.656 186.358C159.504 186.358 162.928 186.294 163.84 186.214C164.496 186.15 164.864 186.102 165.056 186.038L166.096 187.462C165.728 187.702 165.344 187.926 164.976 188.198C164.112 188.806 162.432 190.214 161.424 191.014C161.952 190.886 162.432 190.838 162.944 190.838C165.664 190.838 167.728 192.534 167.728 194.87C167.728 197.398 165.808 199.398 161.936 199.398C159.712 199.398 158.032 198.374 158.032 196.774C158.032 195.478 159.2 194.278 160.896 194.278C162.88 194.278 164.08 195.494 164.304 197.014C165.184 196.55 165.632 195.814 165.632 194.838C165.632 193.398 164.192 192.422 162.304 192.422C159.856 192.422 158.256 193.718 156.544 195.67L155.088 194.166C156.224 193.254 158.16 191.622 159.104 190.838C160 190.102 161.664 188.758 162.448 188.07C161.632 188.086 159.424 188.182 158.576 188.23C158.144 188.262 157.632 188.31 157.264 188.358L157.2 186.278ZM174.24 185.126L176.128 185.75C175.664 186.838 175.104 187.926 174.464 188.982V199.83H172.56V191.67C172.048 192.294 171.504 192.87 170.976 193.366C170.768 192.886 170.224 191.83 169.872 191.35C171.6 189.894 173.28 187.542 174.24 185.126ZM180.128 197.894H182.48C183.248 197.894 183.376 197.35 183.504 195.094C183.952 195.43 184.752 195.798 185.264 195.91C185.04 198.662 184.544 199.67 182.656 199.67H179.92C177.904 199.67 177.328 199.03 177.328 196.774V185.334H179.248V190.806C180.752 189.942 182.224 188.918 183.28 188.006L184.688 189.67C183.104 190.79 181.12 191.862 179.248 192.758V196.79C179.248 197.734 179.36 197.894 180.128 197.894ZM50.608 216.39C50.608 212.966 52.032 210.406 53.76 208.71L55.28 209.382C53.68 211.11 52.416 213.318 52.416 216.39C52.416 219.462 53.68 221.67 55.28 223.398L53.76 224.07C52.032 222.374 50.608 219.814 50.608 216.39ZM64.72 219.51H67.296C67.392 218.678 67.488 217.606 67.568 216.278H60.528C60.368 217.398 60.208 218.502 60.048 219.51H64.416C63.792 218.87 62.688 218.07 61.744 217.526L62.96 216.406C63.952 216.934 65.216 217.782 65.84 218.438L64.72 219.51ZM67.792 211.35H61.2C61.072 212.374 60.928 213.446 60.784 214.518H64.928C64.352 213.926 63.2 213.174 62.272 212.662L63.392 211.526C64.336 211.99 65.552 212.742 66.176 213.334L65.056 214.518H67.664C67.712 213.574 67.76 212.518 67.792 211.35ZM71.488 216.278H69.488C69.408 217.574 69.328 218.646 69.232 219.51H71.056V221.238H68.976C68.832 222.07 68.64 222.566 68.432 222.87C68 223.51 67.584 223.718 66.96 223.83C66.384 223.926 65.504 223.91 64.624 223.878C64.608 223.398 64.384 222.662 64.112 222.198C64.928 222.278 65.616 222.278 66 222.278C66.32 222.278 66.48 222.198 66.672 221.942C66.784 221.814 66.88 221.59 66.976 221.238H59.776L59.584 222.31L57.568 222.15C57.904 220.55 58.272 218.47 58.592 216.278H56.528V214.518H58.832C59.056 212.838 59.248 211.142 59.392 209.622H69.776C69.776 209.622 69.76 210.358 69.744 210.598C69.696 212.07 69.648 213.366 69.584 214.518H71.488V216.278ZM80.576 218.758H79.328C79.152 219.654 78.88 220.406 78.48 221.03C78.976 221.318 79.44 221.606 79.808 221.878C80.992 221.254 81.92 220.454 82.624 219.462C82.176 218.518 81.824 217.462 81.536 216.31C81.312 216.726 81.056 217.11 80.8 217.462C80.736 217.398 80.672 217.318 80.576 217.222V218.758ZM75.984 218.758L75.52 219.606C76 219.798 76.464 219.99 76.928 220.214C77.184 219.814 77.392 219.334 77.536 218.758H75.984ZM84.592 213.558H82.752C82.976 214.902 83.296 216.166 83.728 217.318C84.128 216.23 84.416 214.966 84.592 213.558ZM87.456 213.558H86.56C86.224 215.926 85.68 217.91 84.816 219.526C85.552 220.662 86.48 221.574 87.648 222.182C87.216 222.566 86.624 223.302 86.336 223.83C85.248 223.174 84.368 222.326 83.648 221.286C82.768 222.342 81.664 223.206 80.272 223.91C80.16 223.638 79.92 223.206 79.664 222.822L78.944 223.558C78.512 223.19 77.936 222.774 77.28 222.358C76.336 223.062 75.056 223.526 73.344 223.878C73.232 223.334 72.896 222.694 72.592 222.31C73.888 222.134 74.88 221.878 75.632 221.446C75.344 221.286 75.04 221.142 74.736 221.014L74.56 221.318L72.896 220.806C73.248 220.246 73.648 219.526 74.048 218.758H72.528V217.222H74.848C75.04 216.822 75.232 216.438 75.392 216.086L75.744 216.166V214.63C75.008 215.366 74.144 216.038 73.344 216.486C73.136 216.07 72.736 215.446 72.384 215.11C73.36 214.71 74.432 213.942 75.2 213.11H72.704V211.606H73.92C73.776 211.062 73.424 210.326 73.088 209.75L74.464 209.174C74.88 209.782 75.296 210.598 75.424 211.158L74.4 211.606H75.744V208.918H77.488V211.606H78.752L77.696 211.142C78.064 210.566 78.512 209.718 78.768 209.11L80.368 209.75C79.872 210.438 79.376 211.11 78.992 211.606H80.512V213.11H77.888C78.656 213.542 79.792 214.214 80.144 214.454L79.136 215.766C78.784 215.43 78.112 214.87 77.488 214.374V216.31H76.464L77.152 216.454L76.768 217.222H80.576C80.208 216.854 79.632 216.358 79.28 216.118C80.64 214.486 81.408 211.766 81.792 208.918L83.712 209.174C83.584 210.07 83.408 210.95 83.2 211.798H87.456V213.558ZM102.832 216.838C102.832 220.214 100.768 222.598 96.736 223.222L95.536 221.318C96.144 221.254 96.592 221.158 97.024 221.062C99.072 220.582 100.672 219.11 100.672 216.774C100.672 214.566 99.472 212.918 97.312 212.55C97.088 213.91 96.816 215.382 96.352 216.886C95.392 220.118 94.016 222.102 92.272 222.102C90.496 222.102 89.024 220.15 89.024 217.446C89.024 213.75 92.224 210.598 96.368 210.598C100.336 210.598 102.832 213.35 102.832 216.838ZM91.072 217.238C91.072 218.854 91.712 219.638 92.336 219.638C93.008 219.638 93.632 218.63 94.288 216.47C94.656 215.286 94.96 213.926 95.136 212.598C92.496 213.142 91.072 215.478 91.072 217.238ZM109.808 215.718L110.048 217.478C109.456 217.638 108.864 217.814 108.256 217.974V221.83C108.256 222.726 108.096 223.174 107.6 223.478C107.104 223.766 106.416 223.83 105.424 223.83C105.36 223.35 105.136 222.582 104.896 222.086C105.408 222.118 105.936 222.118 106.112 222.102C106.304 222.102 106.384 222.038 106.384 221.846V218.454C105.84 218.598 105.344 218.726 104.864 218.854L104.4 217.03C104.976 216.918 105.648 216.758 106.384 216.598V213.686H104.672V211.926H106.384V208.918H108.256V211.926H109.728V213.686H108.256V216.118L109.808 215.718ZM113.728 211.542H112.368V215.782H113.728V211.542ZM116.88 215.782V211.542H115.488V215.782H116.88ZM113.504 221.686H116.608C117.488 221.686 117.664 221.27 117.808 219.478C118.272 219.798 119.088 220.118 119.648 220.246C119.392 222.646 118.768 223.526 116.768 223.526H113.28C111.088 223.526 110.384 222.934 110.384 220.55V209.67H118.88V218.598H116.88V217.59H112.368V220.566C112.368 221.542 112.512 221.686 113.504 221.686ZM125.344 215.622L125.584 217.334C125.072 217.494 124.56 217.654 124.048 217.798V221.846C124.048 222.726 123.904 223.206 123.424 223.51C122.928 223.814 122.256 223.878 121.2 223.862C121.152 223.398 120.944 222.614 120.72 222.102C121.296 222.134 121.856 222.134 122.048 222.118C122.24 222.118 122.32 222.054 122.32 221.846V218.31C121.792 218.47 121.264 218.614 120.8 218.742L120.384 216.918C120.928 216.806 121.6 216.63 122.32 216.454V213.686H120.64V211.942H122.32V208.934H124.048V211.942H125.504V213.686H124.048V215.99L125.344 215.622ZM127.6 217.382L128.752 217.35C128.96 216.934 129.168 216.438 129.344 215.974H127.696C127.68 216.422 127.648 216.902 127.6 217.382ZM133.232 211.03H127.728V212.134H133.232V211.03ZM133.12 215.974H131.12C130.864 216.438 130.608 216.902 130.352 217.302C131.104 217.286 131.904 217.254 132.72 217.222C132.48 216.982 132.256 216.758 132.032 216.55L133.12 215.974ZM131.984 221.99H135.488V223.414H126.928V221.99H130.304V220.998H127.648V219.622H130.304V218.694L127.712 218.822L127.584 217.558C127.376 219.702 126.896 222.022 125.808 223.686C125.536 223.35 124.8 222.806 124.4 222.614C125.92 220.246 126.032 216.822 126.032 214.342V209.494H135.04V213.67H127.728V214.342V214.486H135.232V215.974H133.264C134.064 216.71 135.008 217.718 135.424 218.422L134.192 219.094C134.08 218.918 133.952 218.71 133.792 218.486L131.984 218.598V219.622H134.736V220.998H131.984V221.99ZM141.392 216.39C141.392 219.814 139.968 222.374 138.24 224.07L136.72 223.398C138.32 221.67 139.584 219.462 139.584 216.39C139.584 213.318 138.32 211.11 136.72 209.382L138.24 208.71C139.968 210.406 141.392 212.966 141.392 216.39ZM146.608 216.39C146.608 212.966 148.032 210.406 149.76 208.71L151.28 209.382C149.68 211.11 148.416 213.318 148.416 216.39C148.416 219.462 149.68 221.67 151.28 223.398L149.76 224.07C148.032 222.374 146.608 219.814 146.608 216.39ZM155.04 212.342V214.534H153.168V210.534H158.976V208.934H160.992V210.534H166.848V214.534H164.88V212.342H155.04ZM160.976 219.318V221.702C161.552 221.766 162.16 221.798 162.8 221.798C163.664 221.798 166.304 221.798 167.376 221.75C167.104 222.214 166.8 223.126 166.704 223.686H162.704C159.76 223.686 157.568 223.206 156.096 220.934C155.584 222.15 154.88 223.174 153.968 223.958C153.648 223.622 152.848 222.95 152.4 222.662C154.128 221.382 154.912 219.174 155.2 216.438L157.184 216.63C157.088 217.35 156.976 218.022 156.832 218.662C157.312 219.942 158.064 220.71 159.008 221.174V215.526H155.6V213.718H164.4V215.526H160.976V217.526H165.376V219.318H160.976ZM179.632 217.414V215.382H172.288V217.414H179.632ZM181.568 213.622V219.174H170.48V213.622H174.96V208.918H176.896V210.326H182.624V212.102H176.896V213.622H181.568ZM170.256 223.798L168.496 222.95C169.28 222.246 170.048 220.982 170.496 219.83L172.336 220.278C171.872 221.558 171.104 222.95 170.256 223.798ZM173.12 220.39L174.928 220.214C175.168 221.302 175.344 222.678 175.376 223.51L173.44 223.75C173.44 222.918 173.312 221.494 173.12 220.39ZM176.384 220.406L178.128 220.022C178.624 221.03 179.152 222.358 179.344 223.19L177.504 223.67C177.328 222.838 176.848 221.462 176.384 220.406ZM179.632 220.31L181.344 219.702C182.112 220.71 183.04 222.102 183.44 223.046L181.6 223.75C181.264 222.838 180.4 221.382 179.632 220.31ZM189.392 216.39C189.392 219.814 187.968 222.374 186.24 224.07L184.72 223.398C186.32 221.67 187.584 219.462 187.584 216.39C187.584 213.318 186.32 211.11 184.72 209.382L186.24 208.71C187.968 210.406 189.392 212.966 189.392 216.39Z" fill="#333333"/>
</svg>
