<svg width="240" height="253" viewBox="0 0 240 253" fill="none" xmlns="http://www.w3.org/2000/svg">
<rect y="0.470459" width="240" height="252" rx="10" fill="white"/>
<path d="M39.5545 38.4525C39.5545 39.9218 39.3138 41.1885 38.8325 42.2525C38.3512 43.2911 37.7052 44.1525 36.8945 44.8365C36.1092 45.5205 35.1718 46.0271 34.0825 46.3565C33.0185 46.6605 31.9038 46.8125 30.7385 46.8125C29.5478 46.8125 28.4205 46.6605 27.3565 46.3565C26.2925 46.0271 25.3552 45.5205 24.5445 44.8365C23.7592 44.1525 23.1258 43.2911 22.6445 42.2525C22.1632 41.1885 21.9225 39.9218 21.9225 38.4525V28.2685C21.9225 26.7231 22.1632 25.4185 22.6445 24.3545C23.1258 23.2905 23.7592 22.4291 24.5445 21.7705C25.3552 21.1118 26.2925 20.6431 27.3565 20.3645C28.4205 20.0605 29.5478 19.9085 30.7385 19.9085C31.9038 19.9085 33.0185 20.0605 34.0825 20.3645C35.1718 20.6431 36.1092 21.1118 36.8945 21.7705C37.7052 22.4291 38.3512 23.2905 38.8325 24.3545C39.3138 25.4185 39.5545 26.7105 39.5545 28.2305V38.4525ZM34.2345 28.7245C34.2345 27.3058 33.9432 26.2291 33.3605 25.4945C32.8032 24.7598 31.9292 24.3925 30.7385 24.3925C29.5225 24.3925 28.6232 24.7598 28.0405 25.4945C27.4832 26.2291 27.2045 27.3058 27.2045 28.7245V37.9965C27.2045 39.4151 27.4832 40.4918 28.0405 41.2265C28.6232 41.9611 29.5225 42.3285 30.7385 42.3285C31.9292 42.3285 32.8032 41.9611 33.3605 41.2265C33.9432 40.4918 34.2345 39.4151 34.2345 37.9965V28.7245ZM59.126 46.4705H42.938V43.0505L51.716 32.7145C52.5267 31.7518 53.1347 30.8651 53.54 30.0545C53.9453 29.2185 54.148 28.3698 54.148 27.5085C54.148 26.4445 53.8187 25.6465 53.16 25.1145C52.5013 24.5825 51.7413 24.3165 50.88 24.3165C49.9933 24.3165 49.246 24.5825 48.638 25.1145C48.03 25.6465 47.688 26.4445 47.612 27.5085H42.9C42.9 26.3685 43.1153 25.3425 43.546 24.4305C43.9767 23.4931 44.5593 22.6951 45.294 22.0365C46.054 21.3525 46.928 20.8331 47.916 20.4785C48.9293 20.0985 50.006 19.9085 51.146 19.9085C52.3113 19.9085 53.4007 20.0985 54.414 20.4785C55.4273 20.8585 56.3013 21.3905 57.036 22.0745C57.796 22.7585 58.3787 23.5691 58.784 24.5065C59.2147 25.4185 59.43 26.4191 59.43 27.5085C59.43 28.3698 59.3033 29.1931 59.05 29.9785C58.7967 30.7385 58.4673 31.4605 58.062 32.1445C57.682 32.8031 57.2513 33.4365 56.77 34.0445C56.314 34.6271 55.8833 35.1591 55.478 35.6405L50.082 41.9865H59.126V46.4705Z" fill="#00A73C"/>
<path d="M110.624 107.891L111.447 103.782C112.147 100.291 109.473 97.0295 105.913 97.0295H87.2071C85.1504 97.0295 83.3826 98.479 82.981 100.497L82.0555 105.114L80.0869 114.952C79.6903 116.926 80.6746 119.027 82.5599 119.732C84.9643 120.633 87.4911 119.154 87.971 116.75L90.3019 105.109H98.3721L94.9051 122.43L93.2842 130.515L89.4841 149.486C89.0875 151.459 90.0718 153.56 91.9571 154.27C94.3615 155.171 96.8883 153.692 97.3682 151.288L101.526 130.515H114.106L112.005 140.999C111.608 142.973 112.593 145.073 114.478 145.783C116.882 146.684 119.409 145.21 119.889 142.801L122.347 130.515L122.925 127.635C123.464 124.942 121.402 122.43 118.655 122.43H107.706L108.998 115.966L110.619 107.881L110.624 107.891Z" fill="#EBF5E9" stroke="#EBF5E9" stroke-width="2" stroke-linecap="round" stroke-linejoin="round"/>
<path d="M108.127 114.771H122.259C124.713 114.771 126.657 112.582 126.245 110.05C125.922 108.062 124.057 106.686 122.044 106.686H109.748" fill="#EBF5E9"/>
<path d="M108.127 114.771H122.259C124.713 114.771 126.657 112.582 126.245 110.05C125.922 108.062 124.057 106.686 122.044 106.686H109.748" stroke="#EBF5E9" stroke-width="2" stroke-linecap="round" stroke-linejoin="round"/>
<path d="M114.963 84.9488C114.963 88.5726 112.025 91.5107 108.401 91.5107C104.777 91.5107 101.839 88.5726 101.839 84.9488C101.839 81.3251 104.782 78.3918 108.406 78.3918C112.03 78.3918 114.968 81.33 114.968 84.9537L114.963 84.9488Z" fill="#EBF5E9" stroke="#00A73C" stroke-width="2" stroke-linecap="round" stroke-linejoin="round"/>
<path d="M97.8383 148.952L101.526 130.525H114.106L112.005 141.009C111.608 142.982 112.593 145.083 114.478 145.793C116.882 146.694 119.409 145.22 119.889 142.811L122.347 130.525L122.925 127.645C123.464 124.952 121.402 122.44 118.655 122.44H107.706L108.998 115.976L109.238 114.771H122.254C124.708 114.771 126.652 112.582 126.241 110.05C125.917 108.062 124.052 106.686 122.039 106.686H110.859L111.442 103.787C112.142 100.296 109.469 97.0344 105.908 97.0344H87.2071C85.1504 97.0344 83.3826 98.4839 82.981 100.501L82.0555 105.119L80.0869 114.957C79.6903 116.931 80.6746 119.031 82.5599 119.742C84.9643 120.643 87.4911 119.164 87.971 116.759L90.3019 105.119H98.3721L94.9051 122.445L93.2842 130.529L89.4841 149.5C89.0875 151.474 90.0718 153.574 91.9571 154.284C92.4517 154.471 92.9463 154.554 93.4311 154.549" stroke="#00A73C" stroke-width="2" stroke-linecap="round" stroke-linejoin="round"/>
<path d="M93.4311 154.549H125.78V143.198H142.89V131.847H160V78.3918L134.414 88.7342C133.757 88.9986 133.757 89.929 134.414 90.1935L154.403 98.2734" stroke="#00A73C" stroke-width="2" stroke-linecap="round" stroke-linejoin="round"/>
<path d="M84.208 208.838H91.616V206.95H84.208V208.838ZM91.616 203.27H84.208V205.158H91.616V203.27ZM91.616 199.638H84.208V201.478H91.616V199.638ZM82.288 197.782H93.632V211.686H91.616V210.694H84.208V211.686H82.288V197.782ZM107.168 199.83V199.078H106.304V199.83H107.168ZM109.392 202.518V201.206H108.448V202.518H109.392ZM104.16 201.206V202.518H104.992V201.206H104.16ZM107.168 201.206H106.288V202.518H107.168V201.206ZM104.8 199.83V199.078H102.144V197.558H111.424V199.078H108.64V199.83H111.024V203.894H102.608V199.83H104.8ZM110.608 205.846H103.104V204.47H110.608V205.846ZM102.304 205.638L101.328 206.998C101.12 206.502 100.768 205.75 100.416 205.03V211.846H98.688V205.862C98.272 207.094 97.776 208.214 97.232 209.014C97.056 208.486 96.672 207.766 96.4 207.334C97.296 206.086 98.144 203.862 98.544 201.974H96.768V200.214H98.688V196.918H100.416V200.214H102V201.974H100.416V202.726C100.864 203.35 102.048 205.19 102.304 205.638ZM103.664 208.118L105.12 208.934C104.464 209.91 103.504 210.886 102.624 211.494C102.352 211.158 101.84 210.646 101.456 210.342C102.288 209.798 103.168 208.902 103.664 208.118ZM111.472 208.006H107.632V210.182C107.632 210.934 107.504 211.35 106.992 211.622C106.496 211.862 105.856 211.878 104.96 211.878C104.896 211.398 104.672 210.79 104.464 210.342C104.976 210.374 105.488 210.374 105.632 210.358C105.824 210.342 105.872 210.31 105.872 210.166V208.006H102.064V206.47H111.472V208.006ZM108.112 209.046L109.472 208.15C110.224 208.854 111.152 209.814 111.584 210.502L110.16 211.494C109.76 210.838 108.864 209.782 108.112 209.046ZM124.784 203.078V202.262H121.936V203.078H124.784ZM124.784 205.174V204.358H121.936V205.174H124.784ZM124.784 207.286V206.454H121.936V207.286H124.784ZM120.176 200.886H121.712C121.744 200.614 121.776 200.31 121.808 200.006H117.824V198.374H121.936C121.968 197.878 122 197.382 122.016 196.934L123.92 197.014C123.888 197.446 123.84 197.91 123.792 198.374H127.28V200.006H123.616C123.568 200.31 123.536 200.614 123.488 200.886H126.624V208.662H120.176V200.886ZM115.824 196.966L117.632 197.542C117.216 198.646 116.688 199.766 116.096 200.838V211.83H114.288V203.654C113.936 204.118 113.568 204.55 113.2 204.934C113.024 204.47 112.512 203.414 112.192 202.966C113.632 201.526 115.008 199.254 115.824 196.966ZM127.376 209.494V211.126H119.216V211.846H117.456V201.814H119.216V209.494H127.376ZM134.176 197.414V198.854H129.344V197.414H134.176ZM134.784 199.558V201.062H128.528V199.558H134.784ZM134.208 203.974V205.398H129.28V203.974H134.208ZM140.32 205.494H137.264C137.648 206.294 138.176 207.014 138.816 207.654C139.44 207.03 139.936 206.31 140.32 205.494ZM132.544 209.526V207.686H130.848V209.526H132.544ZM141.52 203.702L142.768 204.166C142.256 206.102 141.408 207.622 140.304 208.822C141.248 209.43 142.368 209.894 143.6 210.198C143.184 210.598 142.64 211.35 142.368 211.846C141.024 211.446 139.856 210.854 138.848 210.102C137.776 210.854 136.544 211.43 135.184 211.846C134.992 211.382 134.544 210.63 134.192 210.198V211.014H130.848V211.638H129.232V206.182H134.192V210.166C135.392 209.862 136.48 209.414 137.424 208.79C136.688 207.99 136.08 207.062 135.584 206.022L137.216 205.494H134.992V203.782H135.536C135.264 203.462 134.592 202.886 134.208 202.63V203.238H129.28V201.782H134.208V202.55C135.584 201.606 135.76 200.342 135.76 199.27V197.366H141.12V200.95C141.12 201.398 141.152 201.446 141.328 201.446H141.728C141.936 201.446 142 201.238 142.016 199.846C142.368 200.118 143.104 200.39 143.568 200.518C143.408 202.502 142.992 203.062 141.92 203.062H140.992C139.712 203.062 139.344 202.566 139.344 200.982V199.046H137.552V199.318C137.552 200.822 137.232 202.646 135.568 203.782H141.2L141.52 203.702ZM147.04 200.342V202.534H145.168V198.534H150.976V196.934H152.992V198.534H158.848V202.534H156.88V200.342H147.04ZM152.976 207.318V209.702C153.552 209.766 154.16 209.798 154.8 209.798C155.664 209.798 158.304 209.798 159.376 209.75C159.104 210.214 158.8 211.126 158.704 211.686H154.704C151.76 211.686 149.568 211.206 148.096 208.934C147.584 210.15 146.88 211.174 145.968 211.958C145.648 211.622 144.848 210.95 144.4 210.662C146.128 209.382 146.912 207.174 147.2 204.438L149.184 204.63C149.088 205.35 148.976 206.022 148.832 206.662C149.312 207.942 150.064 208.71 151.008 209.174V203.526H147.6V201.718H156.4V203.526H152.976V205.526H157.376V207.318H152.976Z" fill="#333333"/>
</svg>
