<svg fill="none" height="36" viewBox="0 0 390 36" width="390" xmlns="http://www.w3.org/2000/svg"><g fill="#fff"><path d="m46.9353 18.1618c0 .2087.0696.4173.0696.6173s-.087.4174-.087.6261.0609.4174.0696.6174c.0087.1999.0174.4173.0348.6173s.0435.4174.0609.6174c.0173.2 0 .4174.0173.6174.0174.1999 0 .4173.0261.6173s.0609.4087.087.6174.1217.4.1565.6087c.0348.2086 0 .4173.0435.626s.1391.4.1826.6.0608.4174.1043.6087.1565.3913.2087.5912c.0522.2.1304.3913.1913.5913s.0957.4087.1565.6c.0609.1913.1478.3913.2261.5739s.1652.3826.2435.5652c.0782.1826.113.4.2.5913.0869.1913.2086.3565.3043.5391.0956.1826.2348.3391.3391.5217.1044.1826.1826.3739.2957.5478.113.1739.226.3478.3478.513.1217.1652.2695.313.4.4696.1304.1565.2956.2869.4434.4347s.2174.3652.3739.5044c.1565.1391.3565.226.513.3565.1565.1304.3131.2695.487.3826.1739.113.3304.2521.5043.3565.1739.1043.3739.1826.5565.2782.1826.0957.3391.2348.5304.3217.1913.087.3913.1392.5826.2087.1913.0696.4.0957.6.1565.2.0609.3913.1131.5913.1739.2.0609.3826.1653.5825.2087.2.0435.4174 0 .6261.0348s.4087.0522.6087.0783c.1913.0261.4.0435.5304-.0783.1304-.1217.1043-.3391.1043-.5304 0-.3043.0435-.3043.0435-.6087 0-.3043.0174-.3043.0174-.6086 0-.3044-.0087-.3044-.0087-.6087s-.0348-.3043-.0348-.6087c0-.3043 0-.3043 0-.6087 0-.3043.1131-.3043.1131-.6086 0-.3044-.0435-.3044-.0435-.6087s.0348-.3043.0348-.6087c0-.2173-.1392-.4173-.2522-.5999s-.2174-.3913-.3913-.5218c-.1565-.1217-.2956-.2521-.4434-.4086-.1305-.1479-.3131-.2609-.4261-.4348-.1044-.1652-.2522-.3217-.3478-.513-.087-.1739-.1391-.3826-.2174-.5739-.0696-.1826-.1304-.3826-.1913-.5826-.0609-.1913-.1304-.3826-.1826-.5826-.0435-.1913 0-.4087-.0435-.6173-.0435-.1913-.0956-.3913-.1304-.6-.0348-.2-.0957-.3913-.1304-.6-.0261-.2-.1131-.3913-.1305-.6s.0522-.4087.0348-.6173c-.0174-.2087-.1043-.4-.1217-.6s-.0087-.4-.0261-.6087-.0261-.4-.0348-.6087c-.0087-.2086 0-.4086-.0087-.6086s-.0174-.4-.0261-.6087.0174-.4087.0174-.6174.0609-.4086.0609-.6173-.0522-.4087-.0522-.6087-.0348-.4087-.0348-.6087.0174-.4087.0261-.6086c.0087-.2.0783-.4087.087-.6087s-.0696-.4174-.0609-.6174 0-.4087 0-.6087c0-.1999.1478-.3999.1652-.5999s-.0869-.4261-.0696-.6174c.0261-.2087.0609-.4087.087-.6087.0261-.2087.1565-.3913.1913-.5912.0348-.2087.0783-.4.113-.6.0435-.2087 0-.4261.0435-.6174.0522-.2087.2-.3739.2609-.5565.0608-.2.0956-.39997.1652-.58257.0782-.19999.113-.39999.2-.57389.0956-.1913.2174-.35651.3304-.51302.113-.17391.2522-.33042.3826-.46955.1391-.15651.2435-.34781.4-.46955.1739-.13043.3304-.26085.4434-.43476.1131-.17391.1652-.3652.1652-.58259 0-.30433.087-.30433.087-.60867 0-.30433-.0956-.30433-.0956-.60867 0-.30433.0608-.30433.0608-.60867 0-.30433-.0435-.30433-.0435-.60867 0-.30433.0174-.30433.0174-.60867s.1131-.30434.1131-.60867c0-.30434-.1131-.30434-.1131-.61737s0-.30433 0-.61736c0-.1913-.0087-.39129-.1304-.51303-.1217-.12173-.3304-.16521-.5217-.13912-.2087.02609-.4087.08695-.6087.12173-.2.03479-.4087.06087-.6087.10435-.1999.04347-.3999.09565-.5999.14782s-.3913.12173-.5913.1826-.4087.08695-.6.15651c-.1913.06957-.3913.13043-.5826.21739-.1913.08695-.3565.20868-.5391.30433s-.3652.19999-.5391.30434c-.1739.10434-.3304.24347-.4956.3652s-.3478.21738-.5131.34781c-.1652.13043-.2956.28695-.4521.42607-.1565.13913-.2957.27825-.4435.42607s-.3304.26086-.4608.41738c-.1305.15651-.2435.33042-.3739.49563-.1305.16521-.1739.3739-.2957.5478-.1217.17391-.3217.27825-.426.46085-.1044.1826-.2087.35651-.3044.53911-.0956.1826-.0956.40868-.1826.59998-.0869.19129-.2782.32172-.3652.51302-.0869.19129-.1217.39129-.2.59128-.0782.19999-.0695.40868-.1391.60867s-.2174.3652-.2782.56519c-.0609.2-.1131.39999-.1653.6-.0521.2-.113.4-.1565.6-.0434.1999-.0608.4086-.1043.6086s-.0609.4087-.0957.6087c-.0347.2-.113.4-.1478.6s-.0348.4087-.0608.6173c-.0261.2087-.1044.4-.1305.6087s.0261.4174 0 .6261-.0435.4086-.0608.6173c-.0174.2087-.0174.4087-.0261.6174s-.1131.4087-.1218.6174.0522.4173.0435.626-.0609.4087-.0695.6174c-.0087.2087.026.4087.026.6261z"/><path d="m76.8809 18.1618c0 .2087.0695.4173.0695.6173s-.0869.4174-.0869.6261.0608.4174.0695.6174c.0087.1999.0174.4173.0348.6173s.0435.4174.0609.6174 0 .4174.0174.6174c.0174.1999 0 .4173.026.6173.0261.2.0609.4087.087.6174s.1217.4.1565.6087c.0348.2086 0 .4173.0435.626s.1391.4.1826.6.0609.4174.1043.6087c.0435.1913.1566.3913.2087.5912.0522.2.1305.3913.1913.5913.0609.2.0957.4087.1565.6.0609.1913.1479.3913.2261.5739.0783.1826.1652.3826.2435.5652.0782.1826.113.4.2.5913.0869.1913.2087.3565.3043.5391.0957.1826.2348.3391.3391.5217.1044.1826.1826.3739.2957.5478.113.1739.2261.3478.3478.513s.2695.313.4.4696c.1304.1565.2956.2869.4434.4347.1479.1478.2174.3652.3739.5044.1566.1391.3565.226.5131.3565.1565.1304.313.2695.4869.3826.1739.113.3304.2521.5043.3565.1739.1043.3739.1826.5565.2782.1826.0957.3391.2348.5304.3217.1913.087.3913.1392.5826.2087.1913.0696.4.0957.6.1565.2.0609.3913.1131.5913.1739.2.0609.3826.1653.5826.2087.2.0435.4173 0 .626.0348s.4087.0522.6087.0783c.1913.0261.4.0435.5304-.0783.1304-.1217.1044-.3391.1044-.5304 0-.3043.0434-.3043.0434-.6087 0-.3043.0174-.3043.0174-.6086 0-.3044-.0087-.3044-.0087-.6087s-.0347-.3043-.0347-.6087c0-.3043 0-.3043 0-.6087 0-.3043.113-.3043.113-.6086 0-.3044-.0435-.3044-.0435-.6087s.0348-.3043.0348-.6087c0-.2173-.1391-.4173-.2522-.5999-.113-.1826-.2174-.3913-.3913-.5218-.1565-.1217-.2956-.2521-.4434-.4086-.1305-.1479-.3131-.2609-.4261-.4348-.1043-.1652-.2522-.3217-.3478-.513-.087-.1739-.1391-.3826-.2174-.5739-.0695-.1826-.1304-.3826-.1913-.5826-.0609-.1913-.1304-.3826-.1826-.5826-.0435-.1913 0-.4087-.0435-.6173-.0434-.1913-.0956-.3913-.1304-.6-.0348-.2-.0956-.3913-.1304-.6-.0261-.2-.1131-.3913-.1305-.6-.0173-.2087.0522-.4087.0348-.6173-.0174-.2087-.1043-.4-.1217-.6s-.0087-.4-.0261-.6087-.0261-.4-.0348-.6087c-.0087-.2086 0-.4086-.0087-.6086s-.0174-.4-.0261-.6087c-.0086-.2087.0174-.4087.0174-.6174s.0609-.4086.0609-.6173-.0522-.4087-.0522-.6087-.0347-.4087-.0347-.6087.0173-.4087.026-.6086c.0087-.2.0783-.4087.087-.6087s-.0696-.4174-.0609-.6174 0-.4087 0-.6087c0-.1999.1478-.3999.1652-.5999s-.0869-.4261-.0695-.6174c.0261-.2087.0608-.4087.0869-.6087.0261-.2087.1565-.3913.1913-.5912.0348-.2087.0783-.4.1131-.6.0434-.2087 0-.4261.0434-.6174.0522-.2087.2-.3739.2609-.5565.0609-.2.0956-.39997.1652-.58257.0783-.19999.1131-.39999.2-.57389.0957-.1913.2174-.35651.3304-.51302.1131-.17391.2522-.33042.3826-.46955.1391-.15651.2435-.34781.4-.46955.1739-.13043.3304-.26085.4435-.43476.113-.17391.1652-.3652.1652-.58259 0-.30433.0869-.30433.0869-.60867 0-.30433-.0956-.30433-.0956-.60867 0-.30433.0608-.30433.0608-.60867 0-.30433-.0434-.30433-.0434-.60867 0-.30433.0174-.30433.0174-.60867s.113-.30434.113-.60867c0-.30434-.113-.30434-.113-.61737s0-.30433 0-.61736c0-.1913-.0087-.39129-.1305-.51303-.1217-.12173-.3304-.16521-.5217-.13912-.2087.02609-.4087.08695-.6087.12173-.2.03479-.4086.06087-.6086.10435-.2.04347-.4.09565-.6.14782s-.3913.12173-.5913.1826-.4087.08695-.6.15651c-.1913.06957-.3913.13043-.5826.21739-.1912.08695-.3565.20868-.5391.30433s-.3652.19999-.5391.30434c-.1739.10434-.3304.24347-.4956.3652s-.3478.21738-.513.34781-.2957.28695-.4522.42607c-.1565.13913-.2956.27825-.4434.42607-.1479.14782-.3305.26086-.4609.41738-.1304.15651-.2435.33042-.3739.49563s-.1739.3739-.2956.5478c-.1218.17391-.3218.27825-.4261.46085-.1044.1826-.2087.35651-.3043.53911-.0957.1826-.0957.40868-.1826.59998-.087.19129-.2783.32172-.3653.51302-.0869.19129-.1217.39129-.1999.59128-.0783.19999-.0696.40868-.1392.60867-.0695.19999-.2174.3652-.2782.56519-.0609.2-.1131.39999-.1652.6-.0522.2-.1131.4-.1565.6-.0435.1999-.0609.4086-.1044.6086s-.0609.4087-.0956.6087c-.0348.2-.1131.4-.1479.6-.0347.2-.0347.4087-.0608.6173-.0261.2087-.1044.4-.1305.6087-.026.2087.0261.4174 0 .6261-.026.2087-.0434.4086-.0608.6173s-.0174.4087-.0261.6174-.113.4087-.1217.6174.0521.4173.0434.626-.0608.4087-.0695.6174.0261.4087.0261.6261z"/><path d="m175.955 18.1004s-.07.0347-.079.0173c-.156-.1217-.261-.3217-.426-.4347-.165-.1131-.356-.1826-.522-.2957-.165-.113-.339-.2086-.513-.313-.173-.1043-.356-.1826-.53-.2695-.174-.087-.339-.2174-.522-.3044-.182-.0869-.348-.2-.53-.2869-.183-.087-.374-.1391-.565-.2174-.192-.0783-.4-.087-.583-.1565-.182-.0696-.356-.2-.539-.2696-.183-.0695-.4-.0782-.583-.1478-.182-.0696-.365-.1652-.556-.2261-.191-.0608-.4-.0782-.583-.1391-.182-.0609-.391-.1043-.574-.1652-.182-.0609-.373-.1565-.556-.2087s-.391-.1043-.574-.1652-.391-.1043-.574-.1565c-.182-.0522-.374-.1652-.556-.2174-.183-.0522-.4-.0783-.583-.1304-.183-.0522-.4-.0696-.583-.1218-.199-.0521-.373-.1565-.565-.2087-.2-.0521-.382-.1217-.574-.1739-.2-.0608-.391-.0956-.582-.1478-.2-.0608-.4-.0869-.583-.1478-.2-.0696-.348-.2348-.53-.2956-.191-.0783-.4-.087-.574-.1652-.209-.0957-.391-.2174-.557-.3392-.182-.1304-.33-.2869-.469-.4434-.148-.1652-.304-.3218-.4-.513-.096-.1913-.122-.4087-.174-.6261s-.104-.4174-.104-.6348c0-.21735-.035-.42604-.018-.61733.026-.20869.07-.41738.131-.60867.061-.2.208-.35651.321-.53042.113-.1739.183-.38259.331-.52171.139-.13043.313-.26086.504-.36521.165-.09564.4-.07825.609-.15651.182-.06087.348-.23477.556-.28695.192-.04347.4-.04347.618-.06956.2-.02608.382-.10434.504-.24347.122-.13912.191-.32172.191-.53041 0-.29564-.034-.29564-.034-.58259 0-.28694 0-.29564 0-.58258 0-.28695.113-.29564.113-.58259 0-.28694-.044-.29564-.044-.58258 0-.28695.035-.29564.035-.58259 0-.28694-.07-.29564-.07-.58258 0-.28695.07-.29564.07-.58259 0-.28694 0-.29564 0-.58258 0-.19999-.157-.3652-.296-.48694-.139-.121731-.313-.139122-.504-.121731s-.409 0-.6.017391c-.191.01739-.4.03478-.6.06956s-.4.07826-.591.11304c-.192.03478-.418-.02609-.609.01739s-.391.09565-.591.14782-.383.13043-.574.1826-.374.16521-.565.22608c-.192.06087-.418.03478-.6.10434-.183.06957-.357.20869-.539.28695-.183.07826-.374.14782-.557.23477s-.365.1826-.539.27825-.357.1913-.522.29564-.33.22608-.495.34781c-.166.12174-.34.22608-.496.34782-.157.12173-.348.21738-.496.3565-.147.13913-.252.32173-.391.46955s-.235.33042-.365.48694c-.131.15651-.252.31303-.365.47824s-.279.30433-.383.47824c-.104.1739-.113.39129-.2.57389s-.139.3739-.217.5565c-.079.1826-.261.33042-.322.52171-.061.1913 0 .41738-.044.61737-.043.19999-.113.38259-.147.58259-.035.19999-.174.37389-.2.57388-.026.2-.061.39999-.079.59998-.017.20004.061.40864.053.60864-.009.2-.113.4-.113.6s.043.4174.052.6174c.008.2.087.4087.113.6086.026.2.043.4087.087.6087.043.2.087.4087.148.6.06.1913.199.3652.278.5565.078.1913.139.3826.226.5739s.191.3652.287.5391c.095.1739.13.4.243.5739s.313.2782.435.4434.209.3565.339.5131c.131.1565.304.2695.452.4173.148.1479.279.2957.435.4348.157.1391.235.3565.4.4869.157.1218.383.1479.548.2609s.322.2261.495.3391c.174.1131.296.2783.47.3826s.365.1565.548.2522c.182.0956.365.1478.548.2347.182.087.356.1739.539.2522.182.0783.365.1478.556.2261.192.0782.383.1391.574.2174.191.0782.365.1913.557.2695.191.0783.382.1652.574.2348.191.0696.4.1043.591.1652s.391.1391.582.2c.192.0609.4.1043.592.1652.191.0609.382.1565.574.2174.191.0609.4.0956.591.1565s.391.1217.591.1826.374.1826.574.2348c.2.0521.4.0956.6.1565s.417.0348.609.0956c.2.0609.365.2261.556.287.2.0609.4.113.591.1739.2.0609.427.0261.618.0869.2.0696.356.2435.539.3131.2.0695.4.113.583.1826.2.0869.417.1043.591.1913.165.0869.269.2695.408.3913.14.1217.261.2521.366.4086.104.1566.182.3131.252.487.061.1652.148.3304.174.5217.026.1739.069.3565.069.5565 0 .2087-.061.4-.104.5913-.044.1913-.078.3913-.165.5739s-.235.313-.365.4782c-.131.1652-.209.3391-.374.4696-.148.1217-.322.2347-.505.3391-.165.0956-.347.1913-.539.2695-.174.0696-.391.0522-.6.1131-.182.0521-.365.1652-.565.2087-.191.0347-.391.0173-.6.0434s-.391.1565-.522.2957c-.13.1391-.234.3391-.234.5478 0 .2956.017.2956.017.5826 0 .2869.043.2956.043.5825 0 .287-.095.2957-.095.5826 0 .287.095.2957.095.5826 0 .287-.052.2957-.052.5826v.5826c0 .2869.087.2956.087.5826 0 .2869-.104.2956-.104.5826 0 .1912.096.3912.217.5217.122.1304.331.1478.522.1391.209-.0174.417 0 .626-.0174s.4-.1391.609-.1652c.208-.0261.417-.0174.626-.0435.208-.0261.408-.0869.608-.1217s.418-.0609.618-.1044c.2-.0434.417-.0521.617-.1043s.4-.1304.6-.1826.409-.113.6-.1826.383-.1826.574-.2609c.191-.0782.383-.1565.574-.2434.191-.087.356-.2174.539-.3131.183-.0956.391-.1565.565-.2608.174-.1044.365-.2.539-.3131.174-.113.348-.2347.513-.3565.166-.1217.331-.2521.487-.3913.157-.1391.357-.2347.505-.3739.147-.1391.304-.2869.443-.4434s.235-.3478.365-.513c.131-.1652.209-.3652.322-.5304.113-.1653.209-.3566.313-.5305s.226-.3478.313-.5391.183-.3739.261-.5652.113-.3999.183-.5999c.069-.2.208-.3739.252-.5739.043-.2-.035-.4261 0-.6348.034-.2087.104-.4.121-.6087.018-.2086.113-.4086.122-.6173s0-.4174 0-.6261 0-.4087 0-.6087c0-.1999-.043-.4086-.069-.6086s-.113-.3913-.148-.5913-.061-.4-.105-.6c-.043-.2-.156-.3739-.217-.5652s-.096-.4-.174-.5826-.113-.3912-.209-.5739c-.095-.1826-.26-.313-.365-.4869-.104-.1739-.165-.3739-.287-.5391-.121-.1652-.252-.313-.382-.4782-.131-.1652-.235-.3305-.374-.4783s-.331-.2348-.487-.3739c-.157-.1391-.261-.313-.426-.4434z"/><path d="m25.9003 2.4313c-.0522-.20869-.2174-.33912-.3826-.46086-.1652-.12173-.3304-.28694-.5478-.28694-.3043 0-.3043.05217-.6.05217-.2956 0-.3043 0-.5999 0-.2957 0-.3044.01739-.6.01739-.2957 0-.3044-.04347-.6-.04347s-.3043-.03479-.6-.03479c-.2956 0-.3043.0174-.6086.0174-.3044 0-.3044.06086-.6087.06086-.3044 0-.3044-.06086-.6087-.06086s-.3043.06086-.6087.06086c-.3043 0-.3043-.03478-.6086-.03478-.2174 0-.3913.12174-.5478.24347-.1566.12173-.2435.28694-.3044.48694-.0782.29564-.1043.28694-.1826.58258-.0782.29564-.0608.29564-.1391.59128s-.0609.29564-.1391.59128c-.0783.29564-.1305.27825-.2087.57389-.0783.29564-.0522.30434-.1217.59998-.0696.29564-.0435.30433-.1131.59997s-.1217.28695-.2.58259c-.0782.29564-.0869.29564-.1652.58258-.0782.28695-.0609.29564-.1304.59128-.0696.29564-.0435.30434-.1131.59998-.0695.29564-.1739.26955-.2521.56519-.0783.29564-.0087.31303-.087.60867-.0782.29564-.0956.28695-.1739.58254-.0782.2957-.1043.287-.1739.5826-.0696.2957-.0435.3044-.1217.6-.0783.2956-.1305.2783-.2087.5739-.0783.2956-.0522.3043-.1217.6-.0696.2956-.0261.3043-.1044.5999-.0782.2957-.0782.2957-.1478.5913-.0696.2957-.1478.2783-.2174.5739-.0696.2957 0 .3131-.0783.6087-.0782.2956-.0695.2956-.1478.5913-.0782.2956-.1826.2695-.2608.5652-.0783.2956.0348.3217-.0348.6173-.0696.2957-.1131.287-.1913.5826-.0783.2957-.0957.287-.1739.5826-.0783.2956-.0696.2956-.1391.5913-.0696.2956-.0435.3043-.1218.6-.0782.2956-.0695.2956-.1478.5912-.0783.2957-.1826.2696-.2609.5652-.0782.2957-.0347.3044-.113.6s-.113.287-.1913.5826c-.0782.2956 0 .313-.0869.6087-.087.2956-.1479.2782-.2261.5739-.0783.2956-.087.2956-.1652.5912-.0783.2957 0 .3131-.0783.6087-.0782.2956-.0348.3043-.113.6-.0783.2956-.1131.2869-.1913.5826-.0783.2956-.087.2956-.1652.5912-.0783.2957-.0609.3044-.1305.6-.0695.2957-.1652.2696-.2434.5652-.0783.2957-.0609.2957-.1392.5913-.0782.2956-.0434.3043-.1217.6-.0783.2956-.0174.313-.0956.6086-.0783.2957-.174.2696-.2435.5652-.0696.2957 0 .3131-.087.6087-.0869.2956-.0956.2869-.1652.5826-.0695.2956-.0782.2956-.1478.5913-.0696.2956-.0869.2956-.1652.5913-.0783.2956-.0696.2956-.1391.5912-.0696.2957-.0957.287-.1739.5826-.0783.2957-.1392.2783-.21742.5739-.07826.2956-.02609.313-.10435.6087-.04347.1739.03479.3391.13047.4695.0956.1305.2434.2174.426.2174.3044 0 .3044.0696.6087.0696s.3043-.0957.6087-.0957c.3043 0 .3043-.0261.6086-.0261.3044 0 .3044.1218.6087.1218.3044 0 .3044-.1305.6087-.1305s.3043.0174.6087.0174c.3043 0 .3043.0957.6086.0957h.6087c.3043 0 .3043-.087.6087-.087.3043 0 .3043.0957.6087.0957.2173 0 .426-.1131.5912-.2348s.2435-.3217.2957-.5304c.0782-.2957.1043-.2957.1739-.5913.0695-.2956.0869-.2956.1652-.5913.0783-.2956 0-.3217.0783-.6173.0782-.2957.0956-.2957.1739-.5913.0782-.2957.0695-.3044.1478-.6.0782-.2956.1652-.2782.2348-.5739.0695-.2956-.0174-.3217.0608-.6174.0783-.2956.1391-.2869.2087-.5825.0696-.2957.0348-.3131.113-.6087.0783-.2956.0957-.2956.1653-.5913.0695-.2956.1826-.2695.2608-.5652.0783-.2956-.0348-.3304.0435-.626.0782-.2957.0783-.2957.1565-.6.0783-.3044.1565-.2783.2348-.5739.0782-.2956.0348-.313.113-.6087.0783-.2956.0435-.3043.1218-.6087.0782-.3043.0869-.2956.1652-.5999.0782-.3044.0695-.2957.1478-.6.0782-.3043.0695-.3043.1478-.6.0783-.2956.1304-.2869.2087-.5826.0783-.2956.1043-.2956.1739-.5912.0696-.2957.0435-.3044.1217-.6087.0783-.3043.0783-.2957.1566-.6.0782-.3043.0434-.3043.1217-.6087.0782-.3043.1043-.2956.1826-.5912.0782-.2957.0522-.3044.1304-.6087.0783-.3043.0783-.2957.1565-.6.0522-.1913.2348-.2435.3913-.2435s.3044.0609.3565.2522c.0783.2956.1565.2783.2348.5739s-.0348.3304.0435.6261c.0782.2956.0782.2956.1565.5912.0783.2957.1739.2696.2522.5739.0782.3044-.0435.3305.0347.6261.0783.2956.1131.2869.1913.5826.0783.2956.1479.2782.2261.5739.0783.2956-.0087.3217.0696.6173.0782.2957.0869.2957.1565.5913.0696.2957.0696.3043.1478.6.0783.2956.1044.2869.1826.5913.0783.3043.1044.2956.1739.5912.0696.2957.0348.3131.1131.6087.0782.2957.1043.2957.1826.5913.0782.2956.026.313.1043.6087.0783.2956.1478.2782.2261.5739.0782.2956.0695.2956.1478.5999.0783.3044.087.2957.1652.5913.0783.2957-.0087.3217.0696.6174.0782.2956.1478.2782.2261.5826.0782.3043.026.313.1043.6086.0783.2957.1043.2957.1826.5913.0522.1913.3652.1913.4174 0 .0782-.2956.0608-.3043.1304-.6.0696-.2956.0348-.313.113-.6086.0783-.2957.174-.2696.2435-.5739.0696-.3044-.0174-.3217.0609-.6174.0782-.2956.1217-.2869.2-.5826.0782-.2956.0782-.2956.1565-.5912.0782-.2957-.0087-.3218.0696-.6174.0782-.2957.1826-.2696.2608-.5652.0783-.2956.0696-.2956.1478-.6.0783-.3043.0174-.313.0957-.6087.0782-.2956.1217-.2869.2-.5825.0782-.2957-.0174-.3218.0608-.6174.0783-.2956.1218-.287.2-.5826.0783-.2956.0609-.3043.1392-.6.0782-.2956.0956-.2956.1739-.5912.0782-.2957.1217-.287.2-.5826.0782-.2957.0608-.3044.1391-.6.0782-.2956.0869-.2956.1652-.5913.0782-.2956.0348-.313.113-.6087.0783-.2956.0783-.2956.1565-.5999.0783-.3044.0348-.3131.1131-.6087.0782-.2956.1217-.287.2-.5826.0608-.2261.1043-.4608.1043-.6956s-.0261-.4696-.0869-.7043c-.0783-.2957-.0783-.2957-.1565-.6-.0783-.3043-.0261-.313-.1044-.6087-.0783-.2956-.0696-.3043-.1478-.6-.0783-.2956-.1304-.2869-.2-.5825-.0696-.2957-.1304-.287-.2087-.5826-.0782-.2957-.0956-.2957-.1739-.5913s-.0435-.3043-.1217-.6087c-.0783-.3043-.0609-.3043-.1392-.6-.0782-.2956-.1043-.2956-.1826-.5912-.0782-.2957.0087-.3218-.0695-.6261-.0783-.30433-.2-.26955-.2783-.56519-.0782-.29564-.0434-.31303-.1217-.60867s-.0087-.32173-.087-.61737c-.0782-.29564-.1043-.29564-.1826-.59128-.0782-.29564-.0695-.30433-.1478-.59997-.0782-.29564-.0956-.29564-.1739-.59998-.0782-.30433-.1304-.28694-.2087-.58258-.0782-.29564-.0521-.30434-.1304-.60867-.0783-.30434-.1217-.28695-.2-.59128-.0783-.30434-.0348-.31303-.113-.60867-.0783-.29564-.0261-.31303-.1044-.61737-.0782-.30434-.1652-.27825-.2348-.58258-.0695-.30434-.0086-.31304-.0869-.61737z"/><path d="m113.826 1.71844c-.217 0-.382.13043-.547.25216-.166.12173-.357.25216-.409.45216-.078.29564-.026.30433-.104.59997-.079.29564-.079.29564-.157.59128s-.061.29564-.139.59128-.113.28695-.191.58259c-.079.29564-.113.28694-.192.58258-.078.29564-.06.29564-.139.59128-.078.29564-.017.31303-.095.60867-.079.29564-.139.27825-.218.57389-.078.29564-.017.31303-.095.60867-.079.29564-.105.28695-.183.58259s-.017.31303-.096.59997c-.078.28695-.052.30434-.13.59128-.078.28695-.104.28695-.183.58259-.078.2956-.061.2956-.139.5913-.078.2956-.061.2956-.139.5913-.078.2956-.13.2782-.209.5738-.078.2957-.043.3044-.121.6-.079.2957-.044.3044-.113.6-.07.2956-.122.2869-.2.5826-.079.2956-.087.2956-.166.5913-.078.2956-.06.3043-.13.5912-.07.287-.043.3044-.113.6-.07.2957-.174.2696-.252.5652-.078.2957-.009.313-.087.6087-.078.2956-.096.2869-.174.5826-.078.2956-.104.2869-.174.5826-.07.2956-.043.3043-.122.5999-.078.2957-.13.2783-.208.5739-.079.2957-.053.3044-.122.6-.07.2956-.026.3043-.104.6-.079.2956-.079.2956-.148.5913-.07.2956-.148.2782-.218.5738-.069.2957 0 .3131-.078.6087-.078.2957-.07.2957-.148.5913s-.182.2695-.261.5652c-.078.2956.035.3217-.034.6174-.07.2956-.113.2869-.192.5825-.078.2957-.095.287-.174.5826-.078.2957-.06.2957-.139.5913-.078.2956-.043.3043-.121.6-.079.2956-.07.2956-.148.5913-.079.2956-.183.2695-.261.5652-.078.2956-.035.3043-.104.5999-.07.2957-.114.287-.192.5826-.078.2957 0 .313-.087.6087-.087.2956-.148.2782-.226.5739-.078.2956-.087.2956-.156.5913-.07.2956 0 .313-.079.6086-.078.2957-.034.3044-.113.6-.078.2956-.113.2869-.191.5826-.078.2956-.087.2956-.165.5913-.078.2956-.061.3043-.131.5999-.069.2957-.165.2696-.243.5652-.044.1739.026.3913.122.5218.095.1304.295.1999.478.1999.304 0 .304-.0608.6-.0608s.304.0956.6.0956.304-.0695.6-.0695c.295 0 .304.0174.6.0174h.6c.295 0 .304.0087.608.0087.305 0 .305-.0087.609-.0087s.304.026.609.026c.304 0 .304.0609.609.0609.304 0 .304-.0522.608-.0522.218 0 .4-.1043.557-.226.156-.1218.287-.287.339-.487.078-.2956.148-.2782.217-.5739.07-.2956-.009-.3217.061-.6086.07-.287.044-.3044.122-.6.078-.2957.191-.2609.269-.5565.079-.2957-.043-.3304.026-.6261.07-.2956.096-.2956.166-.5826.069-.2869.174-.2695.252-.5652.078-.2956.087-.2956.156-.5912.07-.2957-.008-.3218.07-.6087s.174-.2696.252-.5652.044-.3043.122-.6c.078-.2956.026-.3043.104-.5999.078-.2957.104-.287.174-.5826.07-.2957.087-.2957.165-.5913.078-.2957 0-.313.078-.6087.079-.2956.096-.2869.166-.5826.069-.2956.069-.2956.148-.5913.078-.2956.156-.2695.234-.5651.079-.2957-.017-.3218.061-.6174.078-.2957.139-.2783.209-.5739.069-.2956.035-.3043.104-.6.07-.2956.087-.2956.165-.5826.079-.2869.183-.2695.261-.5652.079-.2956-.035-.3217.044-.6173.078-.2957.078-.2957.156-.5913.079-.2956.157-.2783.235-.5739s.035-.3043.113-.6c.078-.2956.044-.3043.122-.5999.078-.2957.087-.2957.156-.5913.07-.2957.07-.2957.148-.5913s.07-.2956.148-.5913c.078-.2956.13-.2782.2-.5739.07-.2956.096-.2869.174-.5826.078-.2956.043-.3043.113-.5999.069-.2957.078-.2957.156-.5913.079-.2957.044-.3043.122-.6.078-.2956.104-.2869.183-.5826.078-.2956.052-.3043.13-.5999.078-.2957.078-.2957.157-.5913.078-.2957.139-.2783.217-.5739.078-.29566.052-.30436.131-.6.078-.29564 0-.31303.069-.60867.07-.29564.191-.26955.27-.56519.078-.29564.069-.29564.147-.59128.079-.29564-.026-.32173.053-.61737.078-.29564.191-.26955.269-.56519s.035-.30434.113-.59998 0-.31303.078-.60867c.079-.29564.166-.26955.244-.56519s.069-.29564.148-.59128c.078-.29564.087-.29564.165-.59128s.043-.30434.122-.59998c.078-.29564.052-.30433.13-.59997.044-.17391.044-.36521-.061-.49564-.104-.13043-.278-.19999-.461-.19999-.304 0-.304-.05217-.608-.05217-.305 0-.305.06956-.609.06956s-.304 0-.609 0c-.304 0-.304.0087-.608.0087-.305 0-.305-.08696-.609-.08696s-.304.06957-.609.06957c-.304 0-.304-.05217-.608-.05217-.305 0-.305.02608-.609.02608s-.304-.00869-.609-.01739c-.304-.00869-.304.01739-.608.01739z"/><path d="m46.9345 18.1618c0 .2087.0696.4173.0696.6173s-.087.4174-.087.6261.0609.4174.0696.6174c.0087.1999.0174.4173.0347.6173.0174.2.0435.4174.0609.6174s0 .4174.0174.6174c.0174.1999 0 .4173.0261.6173s.0609.4087.0869.6174c.0261.2087.1218.4.1566.6087.0347.2086 0 .4173.0434.626.0435.2087.1392.4.1826.6.0435.2.0609.4174.1044.6087s.1565.3913.2087.5912c.0521.2.1304.3913.1913.5913.0608.2.0956.4087.1565.6.0608.1913.1478.3913.2261.5739.0782.1826.1652.3826.2434.5652.0783.1826.1131.4.2.5913.087.1913.2087.3565.3044.5391.0956.1826.2347.3391.3391.5217.1043.1826.1826.3739.2956.5478.1131.1739.2261.3478.3478.513.1218.1652.2696.313.4.4696.1304.1565.2957.2869.4435.4347s.2174.3652.3739.5044c.1565.1391.3565.226.513.3565.1565.1304.313.2695.4869.3826.1739.113.3305.2521.5044.3565.1739.1043.3739.1826.5565.2782.1826.0957.3391.2348.5304.3217.1913.087.3913.1392.5826.2087.1913.0696.3999.0957.5999.1565.2.0609.3913.1131.5913.1739.2.0609.3826.1653.5826.2087.2.0435.4174 0 .6261.0348s.4086.0522.6086.0783c.1913.0261.4.0435.5305-.0783.1304-.1217.1043-.3391.1043-.5304 0-.3043.0435-.3043.0435-.6087 0-.3043.0174-.3043.0174-.6086 0-.3044-.0087-.3044-.0087-.6087s-.0348-.3043-.0348-.6087c0-.3043 0-.3043 0-.6087 0-.3043.113-.3043.113-.6086 0-.3044-.0434-.3044-.0434-.6087s.0347-.3043.0347-.6087c0-.2173-.1391-.4173-.2521-.5999-.1131-.1826-.2174-.3913-.3913-.5218-.1565-.1217-.2957-.2521-.4435-.4086-.1304-.1479-.313-.2609-.4261-.4348-.1043-.1652-.2521-.3217-.3478-.513-.0869-.1739-.1391-.3826-.2173-.5739-.0696-.1826-.1305-.3826-.1913-.5826-.0609-.1913-.1305-.3826-.1826-.5826-.0435-.1913 0-.4087-.0435-.6173-.0435-.1913-.0957-.3913-.1305-.6-.0347-.2-.0956-.3913-.1304-.6-.0261-.2-.113-.3913-.1304-.6s.0522-.4087.0348-.6173c-.0174-.2087-.1044-.4-.1218-.6s-.0087-.4-.0261-.6087c-.0173-.2087-.026-.4-.0347-.6087-.0087-.2086 0-.4086-.0087-.6086s-.0174-.4-.0261-.6087.0174-.4087.0174-.6174.0608-.4086.0608-.6173-.0521-.4087-.0521-.6087-.0348-.4087-.0348-.6087.0174-.4087.0261-.6086c.0087-.2.0782-.4087.0869-.6087s-.0695-.4174-.0608-.6174 0-.4087 0-.6087c0-.1999.1478-.3999.1652-.5999s-.087-.4261-.0696-.6174c.0261-.2087.0609-.4087.087-.6087.026-.2087.1565-.3913.1913-.5912.0347-.2087.0782-.4.113-.6.0435-.2087 0-.4261.0435-.6174.0521-.2087.2-.3739.2608-.5565.0609-.2.0957-.39997.1652-.58257.0783-.19999.1131-.39999.2-.57389.0957-.1913.2174-.35651.3305-.51302.113-.17391.2521-.33042.3826-.46955.1391-.15651.2434-.34781.3999-.46955.1739-.13043.3305-.26085.4435-.43476s.1652-.3652.1652-.58259c0-.30433.087-.30433.087-.60867 0-.30433-.0957-.30433-.0957-.60867 0-.30433.0609-.30433.0609-.60867 0-.30433-.0435-.30433-.0435-.60867 0-.30433.0174-.30433.0174-.60867s.113-.30434.113-.60867c0-.30434-.113-.30434-.113-.61737s0-.30433 0-.61736c0-.1913-.0087-.39129-.1304-.51303-.1218-.12173-.3305-.16521-.5217-.13912-.2087.02609-.4087.08695-.6087.12173-.2.03479-.4087.06087-.6087.10435-.2.04347-.4.09565-.6.14782s-.3913.12173-.5913.1826c-.1999.06087-.4086.08695-.5999.15651-.1913.06957-.3913.13043-.5826.21739-.1913.08695-.3565.20868-.5391.30433s-.3652.19999-.5391.30434c-.1739.10434-.3305.24347-.4957.3652s-.3478.21738-.513.34781-.2956.28695-.4521.42607c-.1566.13913-.2957.27825-.4435.42607s-.3304.26086-.4609.41738c-.1304.15651-.2434.33042-.3739.49563-.1304.16521-.1739.3739-.2956.5478-.1217.17391-.3217.27825-.4261.46085-.1043.1826-.2087.35651-.3043.53911-.0957.1826-.0957.40868-.1826.59998-.087.19129-.2783.32172-.3652.51302-.087.19129-.1217.39129-.2.59128s-.0696.40868-.1391.60867c-.0696.19999-.2174.3652-.2783.56519-.0608.2-.113.39999-.1652.6-.0522.2-.113.4-.1565.6-.0435.1999-.0609.4086-.1043.6086-.0435.2-.0609.4087-.0957.6087s-.113.4-.1478.6-.0348.4087-.0609.6173c-.0261.2087-.1043.4-.1304.6087s.0261.4174 0 .6261-.0435.4086-.0609.6173-.0174.4087-.0261.6174-.113.4087-.1217.6174.0522.4173.0435.626-.0609.4087-.0696.6174.0261.4087.0261.6261z"/><path d="m61.5249 1.05819c-.1913-.02609-.3391.09565-.4609.21738-.1217.12173-.2869.26086-.2869.45216 0 .30433.0522.30433.0522.61736v.61737c0 .31303.0173.30433.0173.61736s-.0434.30434-.0434.61737-.0348.30434-.0348.61737.0174.30433.0174.61736.0608.30434.0608.61737-.0608.30433-.0608.61736c0 .21739.1304.41738.2434.60868.1131.19129.2435.3652.4174.49563.1565.12173.3478.21738.487.3739.1304.14782.2695.29564.3912.47824.1044.16521.1827.3565.2696.5478.087.17391.1826.35651.2522.5565.0695.1826.1478.3739.2087.5739.0608.1826.0521.4.1043.6.0435.1913.1217.3826.1652.5825.0348.1913.113.3826.1478.5913.0348.1913.0174.4.0435.6087s.0348.4.0609.6.0608.4.0782.6c.0174.1999.0696.3999.087.5999s-.0783.4087-.0696.6087.087.4.0957.6 0 .4 0 .6086c0 .2087-.0174.4-.0087.6087s.0348.4.0435.6087-.0522.4-.0522.6087c0 .2086.0261.4086.0261.6086s.0434.4087.0434.6087 0 .4087-.0087.6087c-.0086.2-.0869.4086-.0869.6086s.0609.4174.0522.6087-.0174.4087-.0348.6087-.1391.4-.1565.6c-.0174.1999.0782.4173.0608.6173-.026.2087-.0869.4087-.113.6-.0261.2087-.0783.4087-.113.6-.0348.2087-.0609.4087-.0957.5999-.0435.2087-.0522.4087-.0956.6-.0522.2-.1044.4-.1566.5913-.0608.2-.2347.3565-.3043.5391-.0782.2-.113.4-.2.5739-.0956.1913-.2261.3478-.3304.5043-.113.1739-.1826.3826-.3043.5217-.1392.1566-.3305.2435-.487.3566-.1739.1304-.3478.3043-.4521.4869-.1044.1826-.1131.4261-.1131.6434 0 .3044.0435.3044.0435.6087s-.0348.3043-.0348.6087c0 .3043-.0087.3043-.0087.6087 0 .3043.0174.3043.0174.6086 0 .3044-.0956.3044-.0956.6087s.0174.3043.0174.6087c0 .3043.0347.3043.0347.6086 0 .3044.0609.3044.0609.6087 0 .1913 0 .3913.1217.513.1218.1218.3305.1305.5218.1131.2087-.0261.4173-.0348.6173-.0696s.4087-.0782.6087-.113.4087-.0783.6-.1305c.1913-.0521.4-.1217.5913-.1826.1913-.0608.3999-.113.5912-.1826.1913-.0695.4087-.0956.6-.1826.1913-.0869.3565-.226.5304-.3217.1739-.0956.3392-.2348.5218-.3391.1826-.1044.3565-.2087.5217-.3304.1652-.1218.3739-.1913.5391-.3218.1652-.1304.2608-.3304.4087-.4695.1478-.1391.2782-.3043.4173-.4522.1392-.1478.3739-.2173.5044-.3739.1304-.1565.1652-.3999.2869-.5651.1217-.1653.2522-.3218.3739-.487s.313-.2869.4174-.4695c.1043-.1826.2174-.3565.313-.5391.0957-.1826.1131-.4087.2-.5913.087-.1826.2609-.3304.3478-.5217.087-.1913.1304-.3913.2-.5913s.0957-.4.1652-.6c.0696-.2.1565-.3826.2087-.5826s.1304-.3913.1826-.5913c.0522-.1999.0261-.4173.0696-.6173s.1043-.3913.1478-.6.0696-.4.113-.6087c.0435-.2087.1565-.3913.1913-.5912.0348-.2-.0348-.4174 0-.6261s.1131-.4.1392-.6087c.026-.2087 0-.4087.0173-.6173.0174-.2087.0522-.4087.0696-.6174s.1391-.4.1565-.6087-.0956-.4174-.0869-.626c.0087-.2087.0174-.4087.0261-.6174s.0869-.4087.0956-.6174-.0348-.4087-.0348-.6173c0-.2087-.0348-.4174-.0348-.6174s0-.4174 0-.6174-.0173-.4173-.026-.6173-.0261-.4174-.0435-.6174.0261-.4174.0087-.6174-.0087-.4173-.0261-.6173-.0783-.4087-.1044-.6087c-.026-.2-.0434-.4087-.0695-.6174s-.087-.4087-.1218-.6086c-.0347-.2-.0347-.4174-.0782-.6174s-.1044-.4-.1478-.6c-.0435-.2-.087-.4087-.1305-.6-.0434-.1913-.0347-.4173-.0869-.6173-.0522-.20002-.1304-.39132-.1913-.59131s-.2-.3739-.2696-.5652c-.0695-.19129-.026-.43476-.1043-.61736s-.1565-.3826-.2348-.57389c-.0782-.1913-.2608-.33912-.3478-.52172-.0869-.1826-.0783-.42607-.1739-.60867-.0957-.1826-.2348-.34781-.3391-.52172-.1044-.1739-.2783-.31303-.3913-.47824s-.1652-.39129-.287-.5565c-.1217-.16521-.2608-.32172-.3912-.47824-.1305-.15652-.2696-.31303-.4087-.46085s-.3131-.26955-.4696-.40868c-.1565-.13912-.3217-.25216-.4869-.38259s-.2956-.28695-.4696-.40868c-.1739-.12174-.3565-.20869-.5304-.32173s-.3304-.26086-.513-.3565c-.1826-.09565-.4-.12174-.5913-.20869s-.3739-.16521-.5652-.24347-.3913-.13043-.5826-.1913c-.1913-.06086-.3652-.20868-.5652-.26086-.1999-.05217-.4173-.03478-.6173-.07825-.2-.04348-.3913-.13043-.6-.16521s-.4087-.03478-.6174-.06087z"/><path d="m76.8798 18.162c0 .2087.0695.4174.0695.6174s-.0869.4173-.0869.626.0608.4174.0695.6174.0174.4174.0348.6174.0435.4173.0609.6173 0 .4174.0174.6174 0 .4174.0261.6174c.026.2.0608.4086.0869.6173s.1217.4.1565.6087 0 .4174.0435.6261.1391.3999.1826.5999.0609.4174.1043.6087c.0435.1913.1566.3913.2087.5913.0522.2.1305.3913.1913.5913.0609.2.0957.4086.1565.5999.0609.1913.1479.3913.2261.5739.0783.1826.1652.3826.2435.5652s.113.4.2.5913c.0869.1913.2087.3565.3043.5391.0957.1826.2348.3391.3391.5217.1044.1826.1826.3739.2957.5478.113.1739.2261.3479.3478.5131s.2695.313.4.4695c.1304.1565.2956.287.4434.4348.1479.1478.2174.3652.3739.5043.1566.1391.3565.2261.5131.3565.1565.1304.313.2696.4869.3826s.3304.2522.5043.3565c.1739.1044.3739.1826.5565.2783.1826.0956.3391.2347.5304.3217.1913.0869.3913.1391.5826.2087.1913.0695.4.0956.6.1565s.3913.113.5913.1739.3826.1652.5826.2087.4173 0 .626.0348c.2087.0347.4087.0521.6087.0782.1913.0261.4.0435.5304-.0782.1305-.1218.1044-.3392.1044-.5305 0-.3043.0434-.3043.0434-.6086 0-.3044.0174-.3044.0174-.6087s-.0087-.3043-.0087-.6087c0-.3043-.0347-.3043-.0347-.6086 0-.3044 0-.3044 0-.6087s.113-.3043.113-.6087c0-.3043-.0435-.3043-.0435-.6087 0-.3043.0348-.3043.0348-.6086 0-.2174-.1391-.4174-.2522-.6-.113-.1826-.2174-.3913-.3913-.5217-.1565-.1217-.2956-.2522-.4434-.4087-.1305-.1478-.313-.2609-.4261-.4348-.1043-.1652-.2522-.3217-.3478-.513-.087-.1739-.1391-.3826-.2174-.5739-.0695-.1826-.1304-.3826-.1913-.5826-.0609-.1912-.1304-.3825-.1826-.5825-.0435-.1913 0-.4087-.0435-.6174-.0434-.1913-.0956-.3913-.1304-.6-.0348-.2-.0956-.3913-.1304-.6-.0261-.1999-.1131-.3912-.1305-.5999-.0173-.2087.0522-.4087.0348-.6174s-.1043-.4-.1217-.6-.0087-.4-.0261-.6086c-.0174-.2087-.0261-.4-.0348-.6087s0-.4087-.0087-.6087-.0174-.4-.0261-.6087c-.0086-.2086.0174-.4086.0174-.6173s.0609-.4087.0609-.6174-.0522-.4087-.0522-.6087-.0347-.4086-.0347-.6086.0173-.4087.026-.6087.0783-.4087.087-.6087-.0696-.4173-.0609-.6173 0-.4087 0-.6087.1478-.4.1652-.6-.0869-.4261-.0695-.6174c.0261-.2086.0608-.4086.0869-.6086.0261-.2087.1565-.3913.1913-.5913.0348-.2087.0783-.4.1131-.6.0434-.2087 0-.426.0434-.6173.0522-.2087.2-.3739.2609-.5565.0609-.2.0956-.40003.1652-.58263.0783-.19999.1131-.39998.2-.57389.0957-.19129.2174-.3565.3304-.51302.1131-.17391.2522-.33042.3826-.46955.1391-.15651.2435-.34781.4-.46954.1739-.13043.3304-.26086.4435-.43477.113-.1739.1652-.3652.1652-.58258 0-.30434.0869-.30434.0869-.60867 0-.30434-.0956-.30434-.0956-.60867 0-.30434.0608-.30434.0608-.60867 0-.30434-.0434-.30434-.0434-.60867 0-.30434.0174-.30434.0174-.60868 0-.30433.113-.30433.113-.60867 0-.30433-.113-.30433-.113-.61736s0-.30434 0-.61737c0-.1913-.0087-.39129-.1305-.51302-.1217-.12174-.3304-.16521-.5217-.13913-.2087.02609-.4087.08696-.6087.12174s-.4086.06087-.6086.10434c-.2.04348-.4.09565-.6.14782s-.3913.12174-.5913.1826c-.2.06087-.4087.08696-.6.15652s-.3913.13043-.5826.21738c-.1912.08695-.3565.20869-.5391.30434-.1826.09564-.3652.19999-.5391.30433-.1739.10435-.3304.24347-.4956.3652-.1652.12174-.3478.21739-.513.34782s-.2957.28694-.4522.42607c-.1565.13912-.2956.27825-.4434.42607-.1479.14782-.3305.26085-.4609.41737-.1304.15651-.2435.33042-.3739.49563s-.1739.3739-.2956.54781c-.1218.1739-.3218.27824-.4261.46085-.1044.1826-.2087.3565-.3043.5391-.0957.18261-.0957.40868-.1826.59998-.087.1913-.2783.32173-.3653.51302-.0869.1913-.1217.39129-.1999.59128-.0783.19999-.0696.40868-.1392.60867-.0695.2-.2174.36521-.2782.5652-.0609.19999-.1131.39998-.1652.59995-.0522.2-.1131.4-.1565.6-.0435.2-.0609.4087-.1044.6087s-.0609.4086-.0956.6086c-.0348.2-.1131.4-.1479.6-.0347.2-.0347.4087-.0608.6174s-.1044.4-.1305.6087c-.026.2086.0261.4173 0 .626-.026.2087-.0434.4087-.0608.6174s-.0174.4087-.0261.6173c-.0087.2087-.113.4087-.1217.6174s.0521.4174.0434.6261-.0608.4087-.0695.6173c-.0087.2087.0261.4087.0261.6261z"/><path d="m91.48 1.05819c-.1913-.02609-.3392.09565-.4609.21738s-.2869.26086-.2869.45216c0 .30433.0521.30433.0521.61736v.61737c0 .31303.0174.30433.0174.61736s-.0435.30434-.0435.61737-.0347.30434-.0347.61737.0174.30433.0174.61736.0608.30434.0608.61737-.0608.30433-.0608.61736c0 .21739.1304.41738.2434.60868.1131.19129.2435.3652.4174.49563.1565.12173.3478.21738.4869.3739.1305.14782.2696.29564.3913.47824.1044.16521.1826.3565.2696.5478.0869.17391.1826.35651.2521.5565.0696.1826.1479.3739.2087.5739.0609.1826.0522.4.1044.6.0435.1913.1217.3826.1652.5825.0348.1913.113.3826.1478.5913.0348.1913.0174.4.0435.6087s.0348.4.0608.6c.0261.2.0609.4.0783.6.0174.1999.0696.3999.087.5999s-.0783.4087-.0696.6087.087.4.0956.6c.0087.2 0 .4 0 .6086 0 .2087-.0173.4-.0087.6087.0087.2087.0348.4.0435.6087s-.0521.4-.0521.6087c0 .2086.026.4086.026.6086s.0435.4087.0435.6087 0 .4087-.0087.6087-.0869.4086-.0869.6086.0608.4174.0521.6087-.0173.4087-.0347.6087-.1392.4-.1566.6c-.0173.1999.0783.4173.0609.6173-.0261.2087-.0869.4087-.113.6-.0261.2087-.0783.4087-.1131.6-.0347.2087-.0608.4087-.0956.5999-.0435.2087-.0522.4087-.0957.6-.0521.2-.1043.4-.1565.5913-.0608.2-.2348.3565-.3043.5391-.0783.2-.1131.4-.2.5739-.0957.1913-.2261.3478-.3304.5043-.1131.1739-.1826.3826-.3044.5217-.1391.1566-.3304.2435-.4869.3566-.1739.1304-.3478.3043-.4522.4869-.1043.1826-.113.4261-.113.6434 0 .3044.0435.3044.0435.6087s-.0348.3043-.0348.6087c0 .3043-.0087.3043-.0087.6087 0 .3043.0174.3043.0174.6086 0 .3044-.0957.3044-.0957.6087s.0174.3043.0174.6087c0 .3043.0348.3043.0348.6086 0 .3044.0609.3044.0609.6087 0 .1913 0 .3913.1217.513.1218.1218.3304.1305.5217.1131.2087-.0261.4174-.0348.6174-.0696s.4087-.0782.6087-.113.4087-.0783.6-.1305c.1912-.0521.3999-.1217.5912-.1826.1913-.0608.4-.113.5913-.1826.1913-.0695.4087-.0956.6-.1826.1913-.0869.3565-.226.5304-.3217.1739-.0956.3391-.2348.5217-.3391.1826-.1044.3565-.2087.5217-.3304.1653-.1218.3739-.1913.5392-.3218.1652-.1304.2608-.3304.4086-.4695.1479-.1391.2783-.3043.4174-.4522.1391-.1478.3739-.2173.5043-.3739.1305-.1565.1652-.3999.287-.5651.1217-.1653.2521-.3218.3739-.487.1217-.1652.313-.2869.4174-.4695.1043-.1826.2173-.3565.313-.5391.0961-.1826.1131-.4087.2001-.5913s.261-.3304.348-.5217.13-.3913.2-.5913c.069-.2.095-.4.165-.6.069-.2.156-.3826.209-.5826.052-.2.13-.3913.182-.5913.052-.1999.026-.4173.07-.6173.043-.2.104-.3913.148-.6.043-.2087.069-.4.113-.6087.043-.2087.156-.3913.191-.5912.035-.2-.035-.4174 0-.6261s.113-.4.139-.6087 0-.4087.017-.6173c.018-.2087.053-.4087.07-.6174s.139-.4.156-.6087c.018-.2087-.095-.4174-.086-.626.008-.2087.017-.4087.026-.6174.008-.2087.087-.4087.095-.6174.009-.2087-.035-.4087-.035-.6173 0-.2087-.034-.4174-.034-.6174s0-.4174 0-.6174-.018-.4173-.026-.6173c-.009-.2-.026-.4174-.044-.6174-.017-.2.026-.4174.009-.6174-.018-.2-.009-.4173-.026-.6173-.018-.2-.078-.4087-.105-.6087-.026-.2-.043-.4087-.069-.6174s-.087-.4087-.122-.6086c-.035-.2-.035-.4174-.078-.6174-.044-.2-.104-.4-.148-.6-.043-.2-.087-.4087-.13-.6-.044-.1913-.035-.4173-.087-.6173-.053-.20002-.131-.39132-.192-.59131s-.2-.3739-.269-.5652c-.07-.19129-.026-.43476-.105-.61736-.078-.1826-.156-.3826-.234-.57389-.079-.1913-.261-.33912-.348-.52172s-.078-.42607-.174-.60867c-.0957-.1826-.2348-.34781-.3391-.52172-.1044-.1739-.2783-.31303-.3913-.47824-.1131-.16521-.1652-.39129-.287-.5565-.1217-.16521-.2608-.32172-.3913-.47824-.1304-.15652-.2695-.31303-.4086-.46085-.1392-.14782-.3131-.26955-.4696-.40868-.1565-.13912-.3217-.25216-.4869-.38259s-.2957-.28695-.4696-.40868c-.1739-.12174-.3565-.20869-.5304-.32173s-.3304-.26086-.513-.3565c-.1826-.09565-.4-.12174-.5913-.20869s-.3739-.16521-.5652-.24347-.3913-.13043-.5826-.1913c-.1913-.06086-.3652-.20868-.5652-.26086-.2-.05217-.4173-.03478-.6173-.07825-.2-.04348-.3913-.13043-.6-.16521s-.4087-.03478-.6174-.06087z"/><path d="m159.634 24.2396c-.017-.2-.165-.3391-.295-.4696-.131-.1304-.287-.2956-.487-.2956-.296 0-.296.0522-.6.0522-.305 0-.296 0-.6 0-.305 0-.296.0174-.6.0174-.305 0-.296-.0435-.6-.0435-.305 0-.296-.0348-.6-.0348-.305 0-.296.0174-.6.0174-.305 0-.305.0609-.6.0609-.296 0-.305-.0609-.6-.0609-.296 0-.304.0609-.6.0609s-.304-.0348-.6-.0348c-.304 0-.304.0608-.6.0608-.191 0-.33.0783-.452.2087-.122.1305-.209.2609-.192.4522.018.2087.053.4087.079.6087.026.1999.069.4086.104.6086s.009.4174.052.6174c.044.2.113.4.165.6.053.2.14.3913.192.5912.052.2.078.4087.139.6s.122.4.2.5826.174.3739.261.5652.208.3565.304.5391.104.4174.209.5913c.104.1739.278.313.391.4869s.226.3478.348.5044c.122.1565.243.3391.382.4869.14.1478.305.2782.453.4261.147.1478.26.3217.417.4608s.339.2435.504.3652c.166.1217.366.2.531.313.165.1131.348.2174.53.3218.183.1043.331.2608.513.3478.183.0869.4.1043.591.1913.192.0869.383.1478.574.2261.192.0782.348.2434.548.3043s.426 0 .626.0609c.2.0608.383.1391.591.1913.209.0521.392.1043.6.1478.209.0435.409.0608.609.0956s.409.0261.618.0522c.208.0261.408.0435.617.0609s.4.1391.609.1565c.2.0087.382-.1131.513-.2435.13-.1304.252-.313.252-.5043 0-.3044-.07-.3044-.07-.6s.07-.2956.07-.6c0-.3043 0-.3043 0-.5999 0-.2957-.07-.3044-.07-.6 0-.2957-.043-.3044-.043-.6s.034-.3043.034-.6c0-.2956.009-.3043.009-.5999 0-.2957-.017-.3044-.017-.6 0-.2087 0-.4435-.131-.6-.13-.1565-.339-.2695-.547-.3217-.209-.0522-.427-.087-.618-.1652-.2-.0783-.426-.1131-.608-.2087-.183-.0957-.322-.2957-.496-.4174s-.383-.2-.539-.3478c-.157-.1478-.287-.313-.418-.4869-.13-.1739-.252-.3392-.356-.5305s-.191-.3739-.27-.5825c-.078-.2087-.156-.3913-.217-.6s-.087-.4087-.122-.6261c-.035-.2-.052-.4174-.078-.6347z"/><path d="m171.06 11.8309c.017.2.165.3391.295.4696.131.1304.287.2956.487.2956.296 0 .296-.0522.6-.0522h.6c.305 0 .296-.0173.6-.0173.305 0 .296.0434.6.0434.305 0 .296.0348.6.0348.305 0 .296-.0174.6-.0174.305 0 .305-.0608.6-.0608.296 0 .304.0608.6.0608s.304-.0608.6-.0608.304.0347.6.0347.304-.0608.6-.0608c.191 0 .33-.0783.452-.2087s.209-.2609.192-.4522c-.018-.2087-.053-.4087-.079-.6086-.026-.2-.069-.4087-.104-.6087s-.009-.4174-.052-.6174c-.044-.19997-.113-.39997-.165-.59996-.053-.19999-.14-.39129-.192-.59128s-.078-.40868-.139-.59997c-.061-.1913-.122-.39999-.2-.58259s-.174-.3739-.261-.56519c-.087-.1913-.208-.35651-.304-.53911s-.104-.41738-.209-.59128c-.104-.17391-.278-.31303-.391-.48694-.113-.1739-.226-.34781-.348-.50433-.122-.15651-.243-.33911-.382-.48693-.14-.14782-.305-.27825-.453-.42607-.147-.14782-.26-.32173-.417-.46085-.157-.13913-.339-.24347-.504-.36521-.166-.12173-.366-.19999-.531-.31303-.165-.11303-.348-.21738-.53-.32172-.183-.10435-.331-.26086-.513-.34781-.183-.08696-.4-.10435-.591-.1913-.192-.08695-.383-.14782-.574-.22608-.192-.07826-.348-.24347-.548-.30433-.2-.06087-.426 0-.626-.06087s-.383-.13913-.591-.1913c-.209-.05217-.392-.10434-.6-.14782-.209-.04347-.409-.06086-.609-.09565-.2-.034777-.409-.026082-.618-.052168-.208-.026086-.408-.043476-.617-.060867-.209-.01739-.4-.139124-.609-.156515-.2-.008695-.382.113039-.513.243468-.13.130432-.252.313032-.252.504332 0 .30433.07.30433.07.59997s-.07.29564-.07.59998v.59997c0 .29564.07.30434.07.59998s.043.30433.043.59997-.034.30434-.034.59998-.009.30433-.009.59997c0 .29565.017.30434.017.59998 0 .20869 0 .44346.131.59998.13.15651.339.26955.547.32172.209.05217.427.08696.618.16521.2.07826.426.11304.608.20869.183.09565.322.29564.496.41737.174.12174.383.2.539.34782.157.14782.287.31303.418.48693.13.17391.252.33912.356.53042.104.19129.191.37389.27.58258.078.20865.156.39125.217.59995s.087.4087.122.6261c.035.2.052.4174.078.6347z"/><path d="m175.954 18.1s-.069.0348-.078.0174c-.156-.1217-.261-.3217-.426-.4348-.165-.113-.356-.1826-.522-.2956-.165-.113-.339-.2087-.513-.313-.174-.1044-.356-.1826-.53-.2696-.174-.0869-.339-.2174-.522-.3043-.182-.087-.348-.2-.53-.287-.183-.0869-.374-.1391-.565-.2173-.192-.0783-.4-.087-.583-.1566-.183-.0695-.356-.1999-.539-.2695s-.4-.0783-.583-.1478c-.182-.0696-.365-.1652-.556-.2261s-.4-.0783-.583-.1391c-.182-.0609-.391-.1044-.574-.1652-.182-.0609-.374-.1566-.556-.2087-.183-.0522-.391-.1044-.574-.1652-.183-.0609-.391-.1044-.574-.1566-.183-.0521-.374-.1652-.556-.2173-.183-.0522-.4-.0783-.583-.1305-.183-.0521-.4-.0695-.583-.1217-.2-.0522-.373-.1565-.565-.2087-.2-.0522-.382-.1217-.574-.1739-.2-.0609-.391-.0956-.582-.1478-.2-.0609-.4-.087-.583-.1478-.2-.0696-.348-.2348-.53-.2957-.192-.0782-.4-.0869-.574-.1652-.209-.0956-.391-.2174-.557-.3391-.182-.1304-.33-.2869-.469-.4435-.148-.1652-.305-.3217-.4-.513-.096-.1913-.122-.4087-.174-.626-.052-.2174-.104-.4174-.104-.6348 0-.21738-.035-.42607-.018-.61737.026-.20869.07-.41737.131-.60867.06-.19999.208-.35651.321-.53041.113-.17391.183-.3826.331-.52172.139-.13043.313-.26086.504-.3652.165-.09565.4-.07826.609-.15652.182-.06086.348-.23477.556-.28694.192-.04348.4-.04348.618-.06956.2-.02609.382-.10435.504-.24347.122-.13913.191-.32173.191-.53042 0-.29564-.035-.29564-.035-.58258 0-.28695 0-.29564 0-.58259 0-.28694.114-.29564.114-.58258 0-.28695-.044-.29564-.044-.58259 0-.28694.035-.29564.035-.58258 0-.28695-.07-.29564-.07-.58259 0-.28694.07-.29564.07-.58258 0-.28695 0-.29564 0-.58259 0-.19999-.157-.3652-.296-.48693-.139-.121737-.313-.139127-.504-.121737-.191.017387-.409 0-.6.017387-.191.01739-.4.03478-.6.06957-.2.03478-.4.07825-.591.11304-.192.03478-.418-.02609-.609.01739-.191.04347-.391.09564-.591.14782-.2.05217-.383.13043-.574.1826-.192.05217-.374.16521-.565.22607-.192.06087-.418.03479-.6.10435-.183.06956-.357.20869-.54.28694-.182.07826-.373.14782-.556.23478-.183.08695-.365.1826-.539.27825-.174.09564-.357.19129-.522.29564-.165.10434-.33.22607-.495.34781-.166.12173-.34.22608-.496.34781-.157.12173-.348.21738-.496.35651-.148.13912-.252.32172-.391.46954s-.235.33042-.365.48694c-.131.15652-.252.31303-.365.47824s-.279.30434-.383.47824c-.104.17391-.113.39129-.2.57389s-.139.3739-.217.5565c-.079.1826-.261.33042-.322.52172s0 .41737-.044.61736c-.043.2-.113.3826-.147.58259-.035.19999-.174.3739-.2.57389-.027.19999-.061.39998-.079.59998-.017.19997.061.40867.053.60867-.009.2-.114.4-.114.6s.044.4173.053.6173c.008.2.087.4087.113.6087s.043.4087.087.6087c.043.2.087.4087.147.6.061.1913.2.3652.279.5565.078.1913.139.3825.226.5738s.191.3652.287.5392c.095.1739.13.3999.243.5738s.313.2783.435.4435.209.3565.339.513c.131.1565.304.2696.452.4174s.278.2956.435.4348c.157.1391.235.3565.4.4869.156.1217.383.1478.548.2609.165.113.322.226.495.3391.174.113.296.2782.47.3826.174.1043.365.1565.548.2521.182.0957.365.1479.548.2348.182.087.356.1739.539.2522.182.0782.365.1478.556.226.191.0783.383.1392.574.2174.191.0783.365.1913.557.2696.191.0782.382.1652.573.2348.192.0695.4.1043.592.1652.191.0608.391.1391.582.2.192.0608.4.1043.592.1652.191.0608.382.1565.574.2174.191.0608.399.0956.591.1565.191.0608.391.1217.591.1826.2.0608.374.1826.574.2347.2.0522.4.0957.6.1566.2.0608.417.0347.609.0956.2.0609.365.2261.556.2869.2.0609.4.1131.591.174.2.0608.426.026.618.0869.2.0696.356.2435.539.313.2.0696.4.1131.582.1826.2.087.418.1044.592.1913.165.087.269.2696.408.3913.14.1218.261.2522.366.4087.104.1565.182.313.252.4869.061.1653.148.3305.174.5218.026.1739.069.3565.069.5565 0 .2086-.061.3999-.104.5912-.044.1913-.078.3913-.165.5739s-.235.3131-.366.4783c-.13.1652-.208.3391-.373.4695-.148.1218-.322.2348-.505.3391-.165.0957-.348.1913-.539.2696-.174.0696-.391.0522-.6.113-.182.0522-.365.1652-.565.2087-.191.0348-.391.0174-.6.0435s-.391.1565-.522.2956c-.13.1392-.234.3391-.234.5478 0 .2957.017.2957.017.5826 0 .287.043.2957.043.5826 0 .287-.095.2956-.095.5826 0 .2869.095.2956.095.5826 0 .2869-.052.2956-.052.5826v.5825c0 .287.087.2957.087.5826 0 .287-.104.2957-.104.5826 0 .1913.095.3913.217.5217.122.1305.331.1479.522.1392.209-.0174.417 0 .626-.0174s.4-.1392.609-.1652c.208-.0261.417-.0174.626-.0435.208-.0261.408-.087.608-.1218.2-.0347.418-.0608.618-.1043s.417-.0522.617-.1043c.2-.0522.4-.1305.6-.1826.2-.0522.409-.1131.6-.1826.191-.0696.383-.1826.574-.2609s.383-.1565.574-.2435c.191-.0869.356-.2174.539-.313.183-.0957.391-.1565.565-.2609.174-.1043.365-.2.539-.313s.348-.2348.513-.3565c.166-.1217.331-.2522.487-.3913.157-.1391.357-.2348.505-.3739.147-.1391.304-.2869.443-.4434.139-.1566.235-.3479.365-.5131.131-.1652.209-.3652.322-.5304s.209-.3565.313-.5304.226-.3478.313-.5391.183-.3739.261-.5652.113-.4.182-.6c.07-.2.209-.3739.253-.5739.043-.2-.035-.426 0-.6347.034-.2087.104-.4.121-.6087.018-.2087.113-.4087.122-.6174.009-.2086 0-.4173 0-.626s0-.4087 0-.6087-.043-.4087-.069-.6087c-.027-.2-.113-.3912-.148-.5912s-.061-.4-.105-.6c-.043-.2-.156-.3739-.217-.5652s-.096-.4-.174-.5826-.113-.3913-.209-.5739c-.095-.1826-.26-.313-.365-.4869-.104-.1739-.165-.3739-.287-.5391-.121-.1652-.252-.3131-.382-.4783-.131-.1652-.235-.3304-.374-.4782s-.331-.2348-.487-.3739c-.157-.1391-.261-.313-.426-.4435z"/><path d="m28.2741 33.6823c-.0435.1739.0521.3305.1565.4609.1043.1304.2261.2956.4087.2956.3043 0 .3043-.0521.6086-.0521h.6087c.3043 0 .3043-.0174.6087-.0174.3043 0 .3043.0434.6086.0434.3044 0 .3044.0348.6087.0348s.3043-.0174.6087-.0174c.3043 0 .3043-.0608.6087-.0608.3043 0 .3043.0608.6086.0608.3044 0 .3044-.0608.6087-.0608s.3043.0348.6087.0348c.2174 0 .3913-.1218.5478-.2435.1565-.1218.2434-.287.3043-.487.0783-.2956.1044-.2869.1826-.5825.0783-.2957.0609-.2957.1391-.5913.0783-.2957.0609-.2957.1392-.5913.0782-.2956.1304-.2782.2087-.5739.0782-.2956.0434-.3043.1217-.6.0782-.2956.0435-.3043.113-.5999.0696-.2957.1218-.287.2-.5826.0783-.2957.087-.2957.1652-.5826.0783-.287.0609-.2956.1305-.5913.0695-.2956.0434-.3043.113-.6.0696-.2956.1739-.2695.2522-.5652.0782-.2956.0087-.313.0869-.6086.0783-.2957.0957-.287.1739-.5826.0783-.2957.1044-.287.1739-.5826.0696-.2956.0435-.3043.1218-.6.0782-.2956.1304-.2782.2087-.5739.0782-.2956.0521-.3043.1217-.5999.0695-.2957.0261-.3044.1043-.6.0783-.2957.0783-.2957.1478-.5913.0696-.2956.1479-.2782.2174-.5739.0696-.2956 0-.313.0783-.6087.0782-.2956.0696-.2956.1478-.5912.0783-.2957.1826-.2696.2609-.5652.0782-.2957-.0348-.3218.0348-.6174.0695-.2956.113-.2869.1912-.5826.0783-.2956.0957-.2869.174-.5826.0782-.2956.0608-.2956.1391-.5912.0782-.2957.0435-.3044.1217-.6.0783-.2957.0696-.2957.1478-.5913.0783-.2956.1826-.2696.2609-.5652s.0348-.3043.1043-.6c.0696-.2956.1131-.2869.1913-.5826.0783-.2956 0-.313.087-.6086.0869-.2957.1478-.2783.2261-.5739.0782-.2957.0869-.2957.1565-.5913.0695-.2956 0-.313.0782-.6087.0783-.2956.0348-.3043.1044-.5999.0695-.2957.113-.287.1913-.5826.0782-.2957.0869-.2957.1652-.5913.0782-.2957.0522-.3043.1304-.6.0783-.29563.1652-.26954.2435-.56518.0782-.29564.0609-.29564.1391-.59128.0783-.29564.0435-.30434.1131-.59998.0695-.29564.0173-.31303.0956-.60867s.1739-.26955.2435-.56519c.0695-.29564 0-.31303.0869-.60867.087-.29564.0957-.28695.1652-.58259.0696-.29564.0783-.29564.1479-.59128.0695-.29564.0869-.29564.1652-.59128.0782-.29564.0695-.29564.1391-.59128s.0956-.28694.1739-.58258.1391-.27825.2087-.57389c.0695-.29564.0261-.31303.1043-.60867.0435-.17391-.0348-.33912-.1304-.46955-.0957-.13043-.2435-.21738-.4261-.21738-.3043 0-.3043-.06957-.5999-.06957-.2957 0-.3044.09565-.6.09565-.2957 0-.3044.02609-.6.02609s-.3043-.12174-.6-.12174c-.2956 0-.3043.13043-.6.13043-.2956 0-.3043-.01739-.6086-.01739-.3044 0-.3044-.09564-.6087-.09564s-.3043 0-.6087 0c-.3043 0-.3043.08695-.6086.08695-.3044 0-.3044-.09565-.6087-.09565-.2174 0-.4261.11304-.5913.23477-.1652.12174-.2435.32173-.2956.53042-.0783.29564-.1044.28694-.1739.58258-.0696.29564-.087.29564-.1653.58259-.0782.28694 0 .31303-.0782.60867-.0783.29564-.0957.28694-.1652.58258-.0696.29564-.0696.29564-.1478.59128-.0783.29564-.1566.26956-.2348.5652-.0783.29564.0174.32172-.0609.61736-.0782.29564-.1391.27825-.2087.57389-.0695.29564-.0348.30434-.1043.59998-.0696.29564-.087.28694-.1652.58258-.0783.29564-.1826.26956-.2609.5652-.0782.29564.0348.32172-.0435.61736-.0782.29564-.0782.29564-.1565.59128-.0782.2956-.1565.2783-.2348.5739-.0782.2956-.0347.3043-.113.6-.0782.2956-.0435.3043-.1217.5999-.0783.2957-.087.2957-.1565.5913-.0696.2957-.0696.2957-.1479.5913-.0782.2956-.0695.2956-.1478.5913-.0782.2956-.1304.2782-.2.5739-.0695.2956-.0956.2869-.1739.5826-.0782.2956-.0435.3043-.113.5999-.0696.2957-.0783.2957-.1565.5913-.0783.2957-.0435.3044-.1218.6-.0782.2956-.1043.2869-.1826.5826-.0782.2956-.0521.3043-.1304.6-.0783.2956-.0783.2956-.1565.5912-.0783.2957-.1391.2783-.2174.5739-.0783.2957-.0522.3044-.1304.6-.0783.2956 0 .313-.0696.6087-.0696.2956-.1913.2695-.2609.5652-.0695.2956-.0695.2956-.1478.5912-.0782.2957.0261.3218-.0521.6174-.0783.2956-.1913.2609-.2696.5565s-.0348.3043-.113.6c-.0783.2956 0 .313-.0783.6087-.0783.2956-.1652.2695-.2435.5651-.0782.2957-.0695.2957-.1478.5913-.0782.2957-.0869.2957-.1652.5913s-.0435.3043-.1217.6c-.0783.2956-.0522.3043-.1305.6-.0782.2956-.1217.2869-.2.5825-.0782.2957-.0521.3044-.1304.6-.0782.2957-.1304.2783-.2087.5739-.0782.2957 0 .313-.0869.6087-.087.2956-.0783.2956-.1565.5913-.0783.2956-.0609.2956-.1392.5912-.0782.2957-.1652.2696-.2434.5652-.0783.2957-.0087.3131-.087.6087-.0782.2956-.1304.2783-.2087.5826-.0782.3043-.0521.3043-.1304.6-.0783.2956-.087.2956-.1739.5912-.087.2957-.0609.3044-.1391.6z"/><path d="m25.9011 2.43169c-.0521-.20868-.2173-.33911-.3825-.46085-.1653-.12173-.3305-.28694-.5479-.28694-.3043 0-.3043.05217-.5999.05217-.2957 0-.3044 0-.6 0s-.3043.01739-.6.01739c-.2956 0-.3043-.04348-.6-.04348-.2956 0-.3043-.03478-.5999-.03478-.2957 0-.3044.01739-.6087.01739s-.3043.06087-.6087.06087c-.3043 0-.3043-.06087-.6087-.06087-.3043 0-.3043.06087-.6086.06087-.3044 0-.3044-.03478-.6087-.03478-.2174 0-.3913.12173-.5478.24347-.1565.12173-.2435.28694-.3043.48693-.0783.29564-.1044.28695-.1826.58259-.0783.29564-.0609.29564-.1392.59128-.0782.29564-.0608.29564-.1391.59128-.0782.29564-.1304.27825-.2087.57389-.0782.29564-.0521.30433-.1217.59997s-.0435.30434-.113.59998c-.0696.29564-.1218.28694-.2.58258-.0783.29564-.087.29564-.1653.58259-.0782.28694-.0608.29564-.1304.59128-.0695.29564-.0435.30433-.113.59997-.0696.29564-.1739.26956-.2522.5652-.0782.29564-.0087.31303-.0869.60867-.0783.29564-.0957.28695-.1739.58254-.0783.2957-.1044.287-.174.5826-.0695.2957-.0434.3044-.1217.6-.0782.2956-.1304.2783-.2087.5739-.0782.2956-.0521.3043-.1217.6-.0696.2956-.0261.3043-.1043.5999-.0783.2957-.0783.2957-.1479.5913-.0695.2957-.1478.2783-.2174.5739-.0695.2957 0 .313-.0782.6087-.0783.2956-.0696.2956-.1478.5913-.0783.2956-.1826.2695-.2609.5652-.0782.2956.0348.3217-.0348.6173-.0695.2957-.113.287-.1913.5826-.0782.2957-.0956.287-.1739.5826-.0782.2956-.0695.2956-.1391.5913-.0696.2956-.0435.3043-.1217.6-.0783.2956-.0696.2956-.1479.5912-.0782.2957-.1826.2696-.2608.5652-.0783.2957-.0348.3044-.1131.6-.0782.2956-.113.2869-.1913.5826-.0782.2956 0 .313-.0869.6087-.087.2956-.1478.2782-.2261.5738-.0782.2957-.0869.2957-.1652.5913-.0783.2957 0 .3131-.0783.6087-.0782.2956-.0347.3043-.113.6-.0782.2956-.113.2869-.1913.5826-.0782.2956-.0869.2956-.1652.5912-.0783.2957-.0609.3044-.1304.6-.0696.2957-.1652.2696-.2435.5652-.0783.2957-.0609.2957-.1391.5913-.0783.2956-.0435.3043-.1218.6-.0782.2956-.0173.313-.0956.6086-.0783.2957-.1739.2696-.2435.5652-.0695.2957 0 .3131-.0869.6087-.087.2956-.0957.2869-.1652.5826-.0696.2956-.0783.2956-.1479.5913-.0695.2956-.0869.2956-.1652.5912-.0782.2957-.0695.2957-.1391.5913-.0696.2957-.0956.287-.1739.5826-.0783.2957-.1391.2783-.21738.5739-.07826.2956-.02609.313-.10435.6087-.04347.1739.03478.3391.13043.4695.0957.1304.2435.2174.4261.2174.3043 0 .3043.0696.6086.0696.3044 0 .3044-.0957.6087-.0957.3044 0 .3044-.0261.6087-.0261s.3043.1218.6087.1218c.3043 0 .3043-.1305.6086-.1305.3044 0 .3044.0174.6087.0174s.3043.0957.6087.0957h.6087c.3043 0 .3043-.087.6086-.087.3044 0 .3044.0957.6087.0957.2174 0 .4261-.1131.5913-.2348s.2434-.3217.2956-.5304c.0783-.2957.1044-.2957.1739-.5913.0696-.2956.087-.2956.1652-.5913.0783-.2956 0-.3217.0783-.6173.0782-.2957.0956-.2957.1739-.5913.0783-.2957.0696-.3044.1478-.6.0783-.2956.1652-.2782.2348-.5739.0696-.2956-.0174-.3217.0609-.6174.0782-.2956.1391-.2869.2086-.5825.0696-.2957.0348-.3131.1131-.6087.0782-.2957.0956-.2956.1652-.5913.0696-.2956.1826-.2695.2609-.5652.0782-.2956-.0348-.3304.0434-.626.0783-.2957.0783-.2957.1565-.6.0783-.3044.1566-.2783.2348-.5739.0783-.2957.0348-.313.1131-.6087.0782-.2956.0434-.3043.1217-.6087.0783-.3043.0869-.2956.1652-.5999.0783-.3044.0696-.2957.1478-.6.0783-.3043.0696-.3043.1478-.6.0783-.2956.1305-.2869.2087-.5826.0783-.2956.1044-.2956.1739-.5912.0696-.2957.0435-.3044.1218-.6087.0782-.3044.0782-.2957.1565-.6.0782-.3043.0435-.3043.1217-.6087.0783-.3043.1044-.2956.1826-.5912.0783-.2957.0522-.3044.1305-.6087.0782-.3043.0782-.2957.1565-.6.0521-.1913.2347-.2435.3913-.2435.1565 0 .3043.0609.3565.2522.0782.2956.1565.2783.2347.5739.0783.2956-.0347.3304.0435.6261.0783.2956.0783.2956.1565.5912.0783.2957.1739.2696.2522.5739.0783.3044-.0435.3304.0348.6261.0782.2956.113.2869.1913.5826.0782.2956.1478.2782.2261.5739.0782.2956-.0087.3217.0695.6173.0783.2957.087.2957.1565.5913.0696.2956.0696.3043.1479.6.0782.2956.1043.2869.1826.5913.0782.3043.1043.2956.1739.5912.0695.2957.0347.3131.113.6087.0783.2957.1043.2957.1826.5913s.0261.313.1043.6087c.0783.2956.1479.2782.2261.5739.0783.2956.0696.2956.1478.5999.0783.3044.087.2957.1653.5913.0782.2957-.0087.3217.0695.6174.0783.2956.1478.2782.2261.5826.0783.3043.0261.313.1043.6086.0783.2957.1044.2957.1826.5913.0522.1913.3652.1913.4174 0 .0783-.2956.0609-.3043.1304-.6.0696-.2956.0348-.313.1131-.6086.0782-.2957.1739-.2696.2435-.5739.0695-.3044-.0174-.3217.0608-.6174.0783-.2956.1218-.2869.2-.5826.0783-.2956.0783-.2956.1565-.5913.0783-.2956-.0087-.3217.0696-.6173.0782-.2957.1826-.2696.2608-.5652.0783-.2957.0696-.2957.1479-.6.0782-.3043.0174-.313.0956-.6087.0783-.2956.1218-.2869.2-.5825.0783-.2957-.0174-.3218.0609-.6174.0782-.2956.1217-.287.2-.5826.0782-.2956.0608-.3043.1391-.6.0783-.2956.0956-.2956.1739-.5913.0783-.2956.1217-.2869.2-.5825.0783-.2957.0609-.3044.1391-.6.0783-.2957.087-.2957.1652-.5913.0783-.2956.0348-.313.1131-.6087.0782-.2956.0782-.2956.1565-.5999.0782-.3044.0348-.3131.113-.6087.0783-.2956.1218-.287.2-.5826.0609-.2261.1044-.4608.1044-.6956s-.0261-.4696-.087-.7043c-.0783-.2957-.0782-.2957-.1565-.6s-.0261-.313-.1044-.6087c-.0782-.2956-.0695-.3043-.1478-.6-.0782-.2956-.1304-.2869-.2-.5825-.0695-.2957-.1304-.287-.2087-.5826-.0782-.2957-.0956-.2957-.1739-.5913-.0782-.2956-.0434-.3043-.1217-.6087-.0783-.3043-.0609-.3043-.1391-.6-.0783-.2956-.1044-.2956-.1826-.5912-.0783-.2957.0087-.3218-.0696-.6261-.0782-.30433-.2-.26955-.2782-.56519-.0783-.29564-.0435-.31303-.1218-.60867-.0782-.29564-.0087-.32173-.0869-.61737-.0783-.29564-.1044-.29564-.1826-.59128-.0783-.29564-.0696-.30433-.1478-.59997-.0783-.29564-.0957-.29564-.1739-.59998-.0783-.30434-.1305-.28694-.2087-.58258-.0783-.29564-.0522-.30434-.1305-.60868-.0782-.30433-.1217-.28694-.2-.59128-.0782-.30433-.0347-.31303-.113-.60867s-.0261-.31303-.1043-.61736c-.0783-.30434-.1653-.27825-.2348-.58259-.0696-.30433-.0087-.31303-.087-.61736z"/><path d="m7.48309 2.37932c-.05217-.20868-.21738-.33911-.38259-.46085-.16521-.12173-.33042-.28694-.54781-.28694-.30433 0-.30433.05217-.59997.05217s-.30434 0-.59998 0-.30434.01739-.59998.01739-.30433-.04348-.59997-.04348-.30434-.03478-.59998-.03478-.30434.01739-.60867.01739c-.30434 0-.30434.06087-.60867.06087-.30434 0-.30434-.06087-.60868-.06087-.30433 0-.30433.06087-.60867.06087-.304334 0-.304334-.03478-.60867-.03478-.182601 0-.313031.13043-.417375.26086-.1043438.13043-.1130391.26955-.0608672.44346.0782582.29564.0434766.30433.1217342.59997.078258.29564.086953.28695.165211.58259s.086953.28694.165211.58258.017391.31303.095649.59998c.078258.28694.104343.28694.182601.58258s.113039.28695.191297.58259c.078259.29564.034782.30434.104349.59998.06956.29564.06086.29564.13912.59128s.09565.28694.17391.58258c.07825.29564.11304.28695.19129.58259.07826.29564-.02608.32172.05218.61736.07825.29564.13912.27825.21738.57389s.06087.29564.13912.5913c.07826.2956.05218.3043.13043.6.07826.2956.10435.2869.1826.5825.07826.2957.0174.3131.09565.6.07826.287.10435.287.1826.5826.07826.2956.12174.2783.2.5739.07825.2956.07825.2956.15651.5913.07826.2956 0 .313.08696.6086.08695.2957.14782.2783.22607.5739.07826.2957.07826.2957.15652.5913.07826.2957-.02609.3217.04348.6174.06956.2956.19129.2608.26955.5565.07826.2956.03478.3043.11304.6.07826.2956.05217.3043.13043.5912.07826.287.08695.2957.16521.5826.07826.287.11304.287.1826.5826s.07826.2956.15652.5913c.07826.2956-.02609.3217.04347.6174.06957.2956.12174.2869.2.5738.07825.287.03478.3044.11304.6.07825.2957.14782.2783.21738.5739s0 .313.07826.6087c.07825.2956.06956.2956.14782.5913.07825.2956.14782.2782.22608.5738.07825.2957.12173.287.19999.5826.07826.2957.04347.3044.11304.6.06956.2956.06956.2956.14782.5913.07825.2956.09565.2869.1739.5826.07826.2956-.01739.3217.06087.6173.07826.2957.09565.287.16521.5826.06956.2957.11304.287.1913.5826s.13912.2783.20869.5739c.06956.2956-.01739.3217.06086.6174.07826.2956.14782.2782.22608.5739.07826.2956.06087.2956.13913.5999.07825.3044.07825.2957.15651.5913.05217.1913.29564.1913.33912 0 .07826-.2956.06956-.3043.13912-.6.06957-.2956.09565-.2956.17391-.5912.07826-.2957.13913-.2783.21738-.5826.07826-.3044.02609-.3131.10435-.6087.07825-.2956.04347-.3043.11304-.6087.06956-.3043.08695-.2956.16521-.5913.07826-.2956.14782-.2782.21738-.5738.06956-.2957-.0087-.3218.06956-.6174s.04348-.3043.12174-.6c.07825-.2956.19129-.2695.26955-.5652.07826-.2956-.04348-.3304.03478-.626.07826-.2957.09565-.2957.17391-.5913.07826-.2957.17391-.2696.25216-.5739.07826-.3043.08696-.2956.16521-.5913.07826-.2956-.00869-.3217.06957-.6174.07823-.2956.17393-.2695.25213-.5738.0783-.3044.0435-.3044.1218-.6087.0782-.3044.0261-.313.1043-.6087.0783-.2956.1044-.2956.1826-.5913.0783-.2956.087-.2956.1652-.5912.0783-.2957 0-.3218.0783-.6174.0782-.2957.0956-.2957.1739-.5913.0609-.2261.0782-.4522.0782-.6869 0-.2348.0522-.4783 0-.713-.0782-.2957-.1739-.2783-.2521-.5739-.0783-.2957-.0174-.3131-.0957-.6174-.0782-.3043-.1217-.2869-.2-.5826-.0782-.2956-.0608-.3043-.1391-.6-.0782-.2956.0348-.3304-.0435-.626-.0782-.2957-.1913-.2696-.2695-.5739-.0783-.3043-.0696-.3043-.14784-.6-.07826-.2956 0-.3217-.07826-.6173-.07825-.2957-.12173-.287-.19999-.5913-.07826-.3044-.11304-.287-.1913-.5913-.07825-.30434-.06956-.30434-.14782-.59998-.07825-.29564-.08695-.29564-.16521-.59998-.07825-.30433-.08695-.29564-.16521-.59997-.07825-.30434-.02608-.31303-.10434-.60867-.07826-.29565-.05217-.30434-.13043-.60868-.07826-.30433-.11304-.28694-.1913-.59128-.07826-.30433-.07826-.30433-.15651-.59997-.07826-.29564-.10435-.29564-.1826-.59128-.07826-.29564-.05218-.30434-.13044-.60867-.07825-.30434-.10434-.29564-.1826-.59128-.07825-.29564-.07825-.30434-.15651-.59998s-.01739-.31303-.09565-.61737c-.07826-.30433-.09565-.29564-.17391-.59997z"/><path d="m113.825 1.71844c-.218 0-.383.13043-.548.25216s-.357.25216-.409.45216c-.078.29564-.026.30433-.104.59997s-.078.29564-.157.59128c-.078.29564-.06.29564-.139.59128-.078.29564-.113.28695-.191.58259s-.113.28694-.191.58258c-.079.29564-.061.29564-.139.59128-.079.29564-.018.31303-.096.60867s-.139.27825-.217.57389c-.079.29564-.018.31303-.096.60867s-.104.28695-.183.58259c-.078.29564-.017.31303-.095.59997-.079.28695-.052.30434-.131.59128-.078.28695-.104.28695-.182.58259-.079.2956-.061.2956-.139.5913-.079.2956-.061.2956-.14.5913-.078.2956-.13.2782-.208.5738-.079.2957-.044.3044-.122.6-.078.2957-.044.3044-.113.6-.07.2956-.122.2869-.2.5826-.078.2956-.087.2956-.165.5913-.079.2956-.061.3043-.131.5912-.069.287-.043.3044-.113.6-.069.2957-.174.2696-.252.5652-.078.2957-.009.313-.087.6087-.078.2956-.096.2869-.174.5826-.078.2956-.104.2869-.174.5826-.069.2956-.043.3043-.121.5999-.079.2957-.131.2783-.209.5739-.078.2957-.052.3044-.122.6-.069.2956-.026.3043-.104.6-.078.2956-.078.2956-.148.5913-.07.2956-.148.2782-.217.5738-.07.2957 0 .3131-.079.6087-.078.2957-.069.2957-.147.5913-.079.2956-.183.2695-.261.5652-.079.2956.034.3217-.035.6174-.07.2956-.113.2869-.191.5825-.079.2957-.096.287-.174.5826-.079.2957-.061.2957-.139.5913-.079.2956-.044.3043-.122.6-.078.2956-.07.2956-.148.5913-.078.2956-.183.2695-.261.5652-.078.2956-.035.3043-.104.5999-.07.2957-.113.287-.191.5826-.079.2957 0 .313-.087.6087-.087.2956-.148.2782-.227.5739-.078.2956-.086.2956-.156.5913-.07.2956 0 .313-.078.6086-.079.2957-.035.3044-.113.6-.079.2956-.113.2869-.192.5826-.078.2956-.087.2956-.165.5913-.078.2956-.061.3043-.13.5999-.07.2957-.165.2696-.244.5652-.043.1739.026.3913.122.5218.096.1304.296.1999.478.1999.305 0 .305-.0608.6-.0608.296 0 .305.0956.6.0956.296 0 .305-.0695.6-.0695.296 0 .305.0174.6.0174h.6c.296 0 .304.0087.609.0087.304 0 .304-.0087.608-.0087.305 0 .305.026.609.026s.304.0609.609.0609c.304 0 .304-.0522.608-.0522.218 0 .4-.1043.557-.226.157-.1218.287-.287.339-.487.078-.2956.148-.2782.217-.5739.07-.2956-.008-.3217.061-.6086.07-.287.044-.3044.122-.6.078-.2957.191-.2609.27-.5565.078-.2957-.044-.3304.026-.6261.069-.2956.095-.2956.165-.5826.07-.2869.174-.2695.252-.5652.078-.2956.087-.2956.157-.5912.069-.2957-.009-.3218.069-.6087s.174-.2696.252-.5652c.079-.2956.044-.3043.122-.6.078-.2956.026-.3043.104-.5999.079-.2957.105-.287.174-.5826.07-.2957.087-.2957.166-.5913.078-.2957 0-.313.078-.6087.078-.2956.095-.2869.165-.5826.07-.2956.07-.2956.148-.5913.078-.2956.156-.2695.235-.5651.078-.2957-.018-.3218.06-.6174.079-.2957.14-.2783.209-.5739.07-.2956.035-.3043.105-.6.069-.2956.086-.2956.165-.5826.078-.2869.182-.2695.261-.5652.078-.2956-.035-.3217.043-.6173.078-.2957.078-.2957.157-.5913.078-.2956.156-.2783.234-.5739.079-.2956.035-.3043.113-.6.079-.2956.044-.3043.122-.5999.078-.2957.087-.2957.157-.5913.069-.2957.069-.2957.147-.5913.079-.2956.07-.2956.148-.5913.079-.2956.131-.2782.2-.5739.07-.2956.096-.2869.174-.5826.078-.2956.044-.3043.113-.5999.07-.2957.078-.2957.157-.5913.078-.2957.043-.3043.121-.6.079-.2956.105-.2869.183-.5826.078-.2956.052-.3043.131-.5999.078-.2957.078-.2957.156-.5913.078-.2957.139-.2783.217-.5739.079-.29566.053-.30436.131-.6s0-.31303.069-.60867c.07-.29564.192-.26955.27-.56519s.07-.29564.148-.59128-.026-.32173.052-.61737.191-.26955.269-.56519c.079-.29564.035-.30434.114-.59998.078-.29564 0-.31303.078-.60867s.165-.26955.243-.56519c.079-.29564.07-.29564.148-.59128s.087-.29564.165-.59128c.079-.29564.044-.30434.122-.59998s.052-.30433.13-.59997c.044-.17391.044-.36521-.06-.49564-.105-.13043-.279-.19999-.461-.19999-.305 0-.305-.05217-.609-.05217s-.304.06956-.609.06956c-.304 0-.304 0-.608 0-.305 0-.305.0087-.609.0087s-.304-.08696-.609-.08696c-.304 0-.304.06957-.608.06957-.305 0-.305-.05217-.609-.05217s-.304.02608-.609.02608c-.304 0-.304-.00869-.608-.01739-.305-.00869-.305.01739-.609.01739z"/><path d="m132.243 1.66618c-.217 0-.382.13043-.547.25216-.166.12174-.357.25217-.409.45216-.078.29564-.026.31303-.104.60867-.079.29564-.079.29564-.157.59998-.078.30433-.061.30433-.139.59997s-.113.28695-.191.58259c-.079.29564-.113.28694-.192.58258-.078.29564-.061.30434-.139.59998s-.017.31303-.095.60867c-.079.29564-.14.27825-.218.58258-.078.30434-.017.31303-.095.60867-.079.29564-.105.28695-.183.59128-.078.30434-.026.31304-.096.60868-.069.29564-.061.30433-.13.59997-.07.29564-.113.28695-.183.59128-.069.3043-.061.3043-.139.6-.078.2956-.061.3043-.139.6-.078.2956-.13.2869-.209.5825-.078.2957-.052.3044-.121.6087-.07.3043-.044.3043-.122.6087-.078.3043-.122.2869-.2.5826-.078.2956-.087.2956-.165.5912-.079.2957-.061.3044-.139.6-.079.2957-.044.3044-.122.6087s-.183.2695-.252.5739c-.07.3043-.009.313-.087.6173-.079.3044-.096.2957-.174.5913-.078.2957-.105.2957-.183.5913s-.043.3043-.122.6087c-.052.1913-.226.2348-.382.2348-.157 0-.305-.0522-.348-.2435-.078-.2957-.122-.287-.2-.5826s-.078-.2956-.156-.5913c-.079-.2956-.009-.313-.087-.6087-.079-.2956-.157-.2782-.227-.5738-.069-.2957-.086-.2957-.156-.5913-.07-.2957.026-.3217-.052-.6261-.078-.3043-.191-.2695-.27-.5652-.078-.2956-.035-.3043-.113-.6087-.078-.3043-.052-.3043-.13-.5999-.078-.2957-.087-.2957-.165-.5913-.079-.2956-.113-.287-.192-.5913-.078-.3043-.078-.2956-.156-.5913-.079-.2956.026-.3217-.052-.626-.079-.3044-.122-.287-.2-.5826-.079-.29565-.044-.30435-.113-.60868-.07-.30434-.148-.27825-.227-.57389-.078-.29564 0-.31303-.086-.61737-.087-.30433-.07-.30433-.148-.59997-.079-.29564-.148-.27825-.226-.58259-.079-.30434-.122-.28694-.2-.58258-.079-.29564-.044-.30434-.122-.60868-.078-.30433-.07-.30433-.148-.59997-.052-.1913-.269-.1826-.313 0-.078.29564-.165.26955-.243.57389-.079.30433-.061.30433-.14.59997-.078.29564-.043.30434-.121.59998-.079.29564-.018.31303-.096.60867s-.174.26955-.243.57389c-.07.30434 0 .31303-.087.60867s-.096.29564-.166.59128c-.069.29564-.078.29564-.156.59998-.078.3043-.087.2956-.165.5913-.079.2956-.07.3043-.148.6-.078.2956-.096.2956-.174.5912-.078.2957-.139.287-.217.5826-.079.2957-.026.313-.105.6087-.078.2956-.043.3043-.113.6087-.069.3043-.087.2956-.165.5912-.078.2957-.148.2783-.217.5739-.07.2957.008.3218-.07.6174s-.052.3043-.122.6087c-.069.3043-.191.2695-.269.5652-.078.2956.043.3304-.035.626-.078.2957-.096.2957-.174.5913s-.174.2783-.252.5739c-.061.2261-.096.4782-.096.713s.122.4609.183.6956c.078.2957-.018.3218.061.6261.078.3043.113.2869.191.5913.078.3043.122.2869.2.5826.078.2956.052.3043.13.5999.079.2957.07.3044.148.6.079.2957.157.2783.235.5826s.061.3043.139.6c.078.2956.087.2956.165.5999.079.3044 0 .3218.07.6174.07.2957.174.2783.252.5739s.017.313.096.6174c.078.3043.121.2869.2.5912.078.3044.061.3044.139.6.078.2957-.035.3304.043.6261.079.2956.192.2695.27.5739.078.3043.069.3043.148.5999.078.2957 0 .3218.078.6174.078.2957.122.287.2.5913s.113.2956.191.5913c.079.2956.07.3043.148.6.078.2956.087.2956.165.5999.079.3044.087.2957.166.6.078.3043.026.313.104.6174.052.2087.165.4.322.5304.156.1304.382.1652.591.1652h.6c.295 0 .304-.0348.6-.0348.295 0 .304.0261.6.0261.295 0 .304-.0261.6-.0261h.6c.295 0 .304.0609.608.0609.305 0 .305-.0261.609-.0261s.304-.0783.609-.0783c.304 0 .304.1131.608.1131h.609c.217 0 .374-.1652.531-.287.156-.1217.373-.2347.426-.4434.078-.2957.034-.3044.113-.6.078-.2956 0-.313.078-.6087.078-.2956.165-.2695.243-.5652.079-.2956.07-.2956.148-.5913.078-.2956.087-.2956.157-.5912.069-.2957.043-.3044.121-.6.079-.2956.053-.3043.131-.6.078-.2956.122-.2869.2-.5826.078-.2956.052-.3043.13-.5999.079-.2957.131-.2783.209-.5739.078-.2957 0-.3131.087-.6087s.078-.2956.156-.5913c.079-.2956.061-.2956.14-.5913.078-.2956.165-.2695.243-.5652.078-.2956.009-.313.087-.6086.078-.2957.13-.2783.209-.5739.078-.2957.052-.3044.13-.6s.096-.2869.174-.5826c.078-.2956.061-.3043.13-.6.07-.2956.035-.3043.105-.5999.069-.2957.174-.2696.243-.5652.07-.2957-.017-.3218.061-.6174s.122-.2869.2-.5739c.078-.2869.078-.2956.157-.5913.078-.2956-.009-.3217.069-.6173.078-.2957.183-.2696.252-.5652.07-.2957.07-.2957.148-.5913s.018-.313.096-.6087c.078-.2956.122-.2869.2-.5826.078-.2956-.018-.3217.061-.6173.078-.2957.121-.287.2-.5826.078-.2956.061-.2957.139-.5913s.095-.2869.174-.5826c.078-.2956.121-.2869.2-.5739.078-.2869.061-.2956.139-.5912.078-.2957.087-.2957.165-.5913.078-.2957.035-.3044.113-.6s.078-.2956.157-.5913c.078-.2956.034-.3043.113-.6.078-.2956.121-.2869.2-.5825.078-.29568.087-.29568.165-.59132s.078-.29564.156-.59128c.079-.29564.079-.29564.148-.59128.07-.29564.131-.27825.209-.57389s.087-.29564.165-.59128.026-.30434.104-.59998c.079-.29564.027-.30433.105-.59997s.061-.29564.139-.59128.104-.28695.182-.58259c.079-.29564.096-.29564.166-.59128.069-.29564.052-.30433.13-.59998.078-.29564.165-.26955.244-.57388.078-.30434-.044-.33043.034-.62607.044-.1739.044-.32172-.06-.45215-.105-.13043-.244-.27825-.427-.27825-.304 0-.304.02608-.608.02608-.305 0-.305-.00869-.609-.00869s-.304.01739-.609.01739c-.304 0-.304.06087-.608.06087-.305 0-.305-.02609-.609-.02609s-.304.04348-.609.04348c-.304 0-.304-.04348-.608-.04348-.305 0-.305-.05217-.609-.05217s-.304.08695-.609.08695c-.304 0-.304-.06956-.608-.06956z"/><path d="m137.678 18.4912c-.061.2261-.026.4695-.026.7043s-.07.487 0 .713c.078.2957.122.287.2.5826.078.2957.078.2957.156.6.079.3043.096.2956.174.5913.078.2956.044.313.122.6086.078.2957.043.3131.122.6087.078.2957.095.2957.165.5913.069.2956.139.2869.217.5826.079.2956.018.313.096.6173.078.3044.139.287.217.5826.079.2957.053.3044.131.6087s.13.2869.208.5826c.079.2956.096.2956.174.5913.079.2956.044.3043.122.6086.078.3044.087.2957.165.6.079.3043.096.2957.174.6s.018.313.096.6174c.078.3043.104.2956.182.5912.079.2957.113.287.192.5913.078.3043.035.313.113.6087.078.2956.069.3043.148.6.078.2956.095.2956.174.5912.078.2957.113.287.191.5913.078.3044-.026.3304.052.6261.052.2087.226.3478.391.4782.165.1305.348.2087.557.2087.304 0 .304.0261.6.0261.295 0 .304-.0348.6-.0348.295 0 .304.0609.6.0609.295 0 .304-.0261.6-.0261.295 0 .304-.0522.6-.0522h.608c.305 0 .305.0696.609.0696s.304-.0783.609-.0783h.608c.305 0 .305.1044.609.1044.183 0 .287-.1826.391-.3131.105-.1304.174-.2608.131-.4347-.079-.2957-.052-.3044-.131-.5913-.078-.2869-.087-.2956-.165-.5826-.078-.2869-.113-.2869-.182-.5826-.07-.2956-.079-.2956-.157-.5913-.078-.2956.026-.3217-.043-.6173-.07-.2957-.122-.287-.2-.5739-.079-.287-.035-.3043-.114-.6-.078-.2956-.147-.2782-.217-.5739-.069-.2956 0-.313-.078-.6086-.078-.2957-.07-.2957-.148-.5913-.078-.2957-.148-.2783-.226-.5739-.078-.2957-.122-.287-.2-.5739-.078-.287-.044-.3043-.113-.6-.07-.2956-.07-.2956-.148-.5913-.078-.2956-.096-.2869-.174-.5825-.078-.2957.018-.3218-.061-.6087-.078-.287-.095-.287-.165-.5826-.069-.2956-.113-.2869-.191-.5826-.078-.2956-.139-.2782-.209-.5739-.069-.2956.018-.3217-.061-.6173-.078-.2957-.148-.2783-.226-.5739-.078-.2957-.061-.2957-.139-.5913-.078-.2957-.078-.2957-.156-.5913-.079-.2956-.07-.2956-.14-.5913-.069-.2956-.087-.2956-.165-.5826-.078-.2869-.052-.3043-.13-.5912-.078-.287-.018-.3131-.096-.6-.078-.287-.13-.2783-.209-.5739-.078-.2956-.113-.2869-.191-.5826-.078-.2956-.061-.2956-.139-.5913-.078-.2956-.009-.313-.087-.6086-.078-.2957-.165-.2696-.243-.5652-.079-.2957-.105-.287-.183-.5826-.078-.2957.043-.3217-.035-.6174-.078-.2956-.2-.2608-.278-.5565-.078-.2956-.061-.2956-.139-.5913-.078-.2956.017-.3217-.061-.6173-.078-.2957-.07-.2957-.148-.5913-.078-.2957-.165-.2696-.243-.5652-.079-.2956.017-.3217-.061-.6174-.078-.29561-.113-.28692-.183-.58256-.069-.29564-.122-.27825-.2-.57389s-.052-.30433-.13-.59997-.07-.29564-.139-.59128c-.07-.29564-.157-.27825-.235-.57389s-.061-.29564-.139-.59128c-.079-.29564-.087-.29564-.165-.59128-.079-.29564 0-.32173-.07-.61737-.052-.1913-.27-.16521-.322.02609-.078.29564-.139.27825-.208.58258-.07.30434-.035.31303-.105.60867-.069.29564-.087.29564-.165.59128s-.183.26956-.261.5652.035.33042-.043.62606c-.079.29564-.079.29564-.157.59128s-.156.27825-.235.57389c-.078.29564-.034.30433-.113.60867-.078.3043-.043.3043-.121.6-.079.2956-.087.2956-.157.5913-.069.2956-.069.2956-.148.5999-.078.3044-.069.3044-.148.6-.078.2956-.13.287-.2.5826-.069.2956-.104.2956-.173.5913-.07.2956-.044.3043-.122.6086-.078.3044-.078.2957-.157.5913-.078.2957-.043.3044-.121.6-.079.2956-.105.2869-.183.5913-.078.3043-.052.3043-.13.6-.079.2956-.079.2956-.157.5999-.078.3044-.13.287-.217.5826-.087.2957-.061.3043-.139.6z"/><path d="m207.204 35.2299c3.366 0 6.148-1.0086 8.278-2.9999 2.131-1.9912 3.296-4.7041 3.452-8.0518v-.2261h-4.008v.2087c-.104 2.2086-.852 4.0085-2.226 5.3476s-3.165 2.0173-5.322 2.0173c-2.53 0-4.582-.9826-6.112-2.9216-1.539-1.9564-2.322-4.5998-2.322-7.8606 0-3.452.748-6.1562 2.235-8.0431 1.469-1.8695 3.565-2.81728 6.243-2.81728 2.008 0 3.661.46958 4.904 1.40868 1.243.9304 2.035 2.2781 2.374 4.0085l.035.1739h4.043l-.026-.2435c-.313-2.7912-1.487-5.0259-3.487-6.64318-1.991-1.60863-4.582-2.42599-7.695-2.42599-3.913 0-7.061 1.2869-9.365 3.82593-2.304 2.53034-3.47 5.99104-3.47 10.28654 0 4.6433 1.113 8.3388 3.305 10.9735 2.208 2.6433 5.286 3.9911 9.164 3.9911z"/><path d="m231.16 35.0821c3.043 0 5.434-.9565 7.13-2.8433 1.687-1.8782 2.539-4.5303 2.539-7.8954 0-3.365-.861-6.0171-2.548-7.8866-1.695-1.8782-4.104-2.8347-7.156-2.8347s-5.435.9565-7.13 2.8434c-1.687 1.8782-2.539 4.5302-2.539 7.8779s.861 6.0346 2.547 7.9041c1.696 1.8781 4.105 2.8259 7.157 2.8259zm4.295-5.2519c-.982 1.2347-2.426 1.8608-4.295 1.8608-1.87 0-3.339-.6261-4.339-1.8695-1.018-1.2521-1.531-3.0956-1.531-5.4781s.513-4.2259 1.522-5.478c1-1.2347 2.461-1.8608 4.348-1.8608s3.313.6261 4.295 1.8608c1 1.2521 1.505 3.0955 1.505 5.4693 0 2.3739-.505 4.2347-1.505 5.4868z"/><path d="m248.195 22.9963c0-1.8608.495-3.3217 1.478-4.3216.982-1 2.382-1.513 4.174-1.513 1.373 0 2.356.3478 2.904 1.0347.565.7044.843 2.0087.843 3.8955v12.3821h3.791v-13.0255c0-1.4086-.069-2.4608-.208-3.1129-.139-.6696-.374-1.2608-.696-1.7565-.574-.9304-1.4-1.6434-2.461-2.1042-1.043-.4609-2.339-.6957-3.852-.6957-1.408 0-2.661.287-3.739.8522-.895.4782-1.695 1.1651-2.391 2.0608v-2.4173h-3.608v20.1991h3.756v-11.4777z"/><path d="m269.691 22.9954c0-1.8608.495-3.3216 1.478-4.3215.982-1 2.382-1.513 4.174-1.513 1.373 0 2.356.3478 2.904 1.0347.565.7043.843 2.0086.843 3.8955v12.3821h3.791v-13.0255c0-1.4087-.069-2.4608-.208-3.113-.139-.6695-.374-1.2608-.696-1.7564-.574-.9304-1.4-1.6434-2.461-2.1043-1.043-.4608-2.339-.6956-3.852-.6956-1.408 0-2.661.287-3.739.8522-.895.4782-1.695 1.1651-2.391 2.0607v-2.4173h-3.608v20.1992h3.756v-11.4778z"/><path d="m295.584 35.1168c2.374 0 4.383-.6522 5.948-1.9304 1.574-1.2869 2.556-3.0607 2.922-5.2867l.043-.2522h-3.721l-.035.1739c-.244 1.2261-.792 2.1739-1.626 2.8347-.835.6608-1.922 1-3.218 1-1.695 0-3.043-.5478-3.991-1.6348-.921-1.0521-1.426-2.5564-1.487-4.4606h14.235l.026-.1913c.026-.1913.043-.3913.043-.5913s.009-.5043.009-.913c0-3.226-.8-5.765-2.391-7.5475-1.592-1.7913-3.87-2.6956-6.757-2.6956-2.886 0-5.069.9826-6.678 2.9216-1.599 1.9217-2.408 4.6259-2.408 8.0345 0 3.2259.817 5.8084 2.435 7.6866 1.626 1.8869 3.86 2.8434 6.66 2.8434zm-5.165-12.7647c.183-1.7043.705-3.026 1.574-3.9303.896-.9391 2.139-1.4086 3.713-1.4086s2.896.4782 3.774 1.4347c.843.9217 1.296 2.2347 1.339 3.9042h-10.391z"/><path d="m315.993 35.0819c2.634 0 4.773-.7043 6.347-2.0956 1.574-1.3912 2.461-3.3563 2.635-5.8258l.017-.2348h-3.6l-.026.1826c-.217 1.4695-.765 2.5912-1.652 3.3564s-2.087 1.1478-3.573 1.1478c-1.661 0-2.913-.6087-3.818-1.8695-.913-1.2608-1.374-3.0955-1.374-5.4433 0-2.3477.479-4.1563 1.426-5.4084.94-1.2435 2.253-1.8521 3.992-1.8521 1.469 0 2.634.3565 3.469 1.0521.826.6869 1.296 1.6869 1.391 2.9738l.018.2h3.713v-.2261c-.113-2.2695-.94-4.0868-2.479-5.4259-1.53-1.3303-3.582-1.9999-6.112-1.9999-2.87 0-5.165.9739-6.809 2.8869-1.635 1.9042-2.469 4.5737-2.469 7.9214s.8 5.8867 2.365 7.7823c1.582 1.9042 3.782 2.8607 6.539 2.8607z"/><path d="m328.514 30.3959c0 1.5912.339 2.7216 1.008 3.365.67.6435 1.827.9652 3.435.9652.348 0 .739-.0261 1.2-.0782.435-.0522.939-.1218 1.496-.2261l.182-.0348v-3.2433l-.234.0174c-.435.0347-.8.0608-1.07.0695s-.504.0174-.704.0174c-.609 0-1.018-.1217-1.226-.3652-.148-.1739-.331-.6-.331-1.626v-11.9213h3.565v-3.0694h-3.565v-5.52153h-3.756v5.52153h-2.957v3.0694h2.957v13.0517z"/></g></svg>