<svg xmlns="http://www.w3.org/2000/svg" width="75.168" height="98.653" viewBox="0 0 75.168 98.653">
  <g id="グループ_489" data-name="グループ 489" transform="translate(-114.422 -465.828)">
    <path id="パス_196" data-name="パス 196" d="M173.489,469.71h9.553a5.948,5.948,0,0,1,5.948,5.948v81.616a5.948,5.948,0,0,1-5.948,5.948H120.97a5.948,5.948,0,0,1-5.948-5.948V475.658a5.948,5.948,0,0,1,5.948-5.948h9.553" transform="translate(0 0.659)" fill="none" stroke="#000" stroke-linejoin="round" stroke-width="1.2"/>
    <rect id="長方形_290" data-name="長方形 290" width="29.251" height="8.204" transform="translate(137.381 466.428)" fill="none" stroke="#000" stroke-linejoin="round" stroke-width="1.2"/>
    <rect id="長方形_291" data-name="長方形 291" width="12.204" height="12.204" rx="4.045" transform="translate(126.545 485.873)" fill="#8cc23e" stroke="#000" stroke-linejoin="round" stroke-width="1.2"/>
    <g id="グループ_486" data-name="グループ 486" transform="translate(145.325 488.903)">
      <line id="線_65" data-name="線 65" x2="36.564" fill="none" stroke="#000" stroke-linejoin="round" stroke-width="1.2"/>
      <line id="線_66" data-name="線 66" x2="18.282" transform="translate(0 6.144)" fill="none" stroke="#000" stroke-linejoin="round" stroke-width="1.2"/>
    </g>
    <rect id="長方形_292" data-name="長方形 292" width="12.204" height="12.204" rx="4.045" transform="translate(126.545 511.023)" fill="#8cc23e" stroke="#000" stroke-linejoin="round" stroke-width="1.2"/>
    <g id="グループ_487" data-name="グループ 487" transform="translate(145.325 514.053)">
      <line id="線_67" data-name="線 67" x2="36.564" fill="none" stroke="#000" stroke-linejoin="round" stroke-width="1.2"/>
      <line id="線_68" data-name="線 68" x2="18.282" transform="translate(0 6.144)" fill="none" stroke="#000" stroke-linejoin="round" stroke-width="1.2"/>
    </g>
    <rect id="長方形_293" data-name="長方形 293" width="12.204" height="12.204" rx="4.045" transform="translate(126.545 536.172)" fill="#8cc23e" stroke="#000" stroke-linejoin="round" stroke-width="1.2"/>
    <g id="グループ_488" data-name="グループ 488" transform="translate(145.325 539.203)">
      <line id="線_69" data-name="線 69" x2="36.564" fill="none" stroke="#000" stroke-linejoin="round" stroke-width="1.2"/>
      <line id="線_70" data-name="線 70" x2="18.282" transform="translate(0 6.144)" fill="none" stroke="#000" stroke-linejoin="round" stroke-width="1.2"/>
    </g>
  </g>
</svg>
