<svg xmlns="http://www.w3.org/2000/svg" width="85.531" height="85.712" viewBox="0 0 85.531 85.712">
  <g id="グループ_490" data-name="グループ 490" transform="translate(-249.245 -473.622)">
    <path id="パス_197" data-name="パス 197" d="M330.1,508.027l-5.241-.543a1.474,1.474,0,0,1-1.176-.993,36.164,36.164,0,0,0-2.259-5.424,1.367,1.367,0,0,1,.18-1.536l3.344-4.157a4.583,4.583,0,0,0-.361-6.147L319.26,483.9a4.683,4.683,0,0,0-6.146-.361l-4.248,3.435a1.385,1.385,0,0,1-1.536.18,46.052,46.052,0,0,0-5.423-2.26,1.471,1.471,0,0,1-.994-1.174l-.543-5.423a4.53,4.53,0,0,0-4.61-4.067H288.17a4.679,4.679,0,0,0-4.61,4.067l-.543,5.423a1.472,1.472,0,0,1-.993,1.174,30,30,0,0,0-5.333,2.17,1.369,1.369,0,0,1-1.537-.181l-4.248-3.434a4.582,4.582,0,0,0-6.146.361l-5.333,5.423a4.684,4.684,0,0,0-.361,6.147l3.344,4.157a1.385,1.385,0,0,1,.181,1.536,28.645,28.645,0,0,0-2.26,5.424,1.472,1.472,0,0,1-1.174.993l-5.243.543a4.531,4.531,0,0,0-4.067,4.61v7.591a4.679,4.679,0,0,0,4.067,4.61l5.151.543a1.357,1.357,0,0,1,1.176.994,39.313,39.313,0,0,0,2.26,5.694,1.369,1.369,0,0,1-.181,1.536l-3.163,3.977a4.58,4.58,0,0,0,.361,6.146l5.331,5.333a4.683,4.683,0,0,0,6.147.362l3.886-3.163a1.387,1.387,0,0,1,1.537-.181,32.544,32.544,0,0,0,5.784,2.44,1.473,1.473,0,0,1,.994,1.176l.543,4.971a4.529,4.529,0,0,0,4.609,4.067h7.592a4.68,4.68,0,0,0,4.61-4.067l.541-4.971a1.475,1.475,0,0,1,.994-1.176,35.61,35.61,0,0,0,5.784-2.44,1.369,1.369,0,0,1,1.537.181l3.886,3.163a4.583,4.583,0,0,0,6.147-.362l5.061-5.423a4.681,4.681,0,0,0,.361-6.146l-3.164-3.977a1.387,1.387,0,0,1-.18-1.537,31.126,31.126,0,0,0,2.26-5.694,1.474,1.474,0,0,1,1.174-.994l5.151-.541a4.531,4.531,0,0,0,4.067-4.61v-7.591a4.507,4.507,0,0,0-4.067-4.52Z" transform="translate(0 0)" fill="none" stroke="#000" stroke-linejoin="round" stroke-width="1.2"/>
    <circle id="楕円形_55" data-name="楕円形 55" cx="20.123" cy="20.123" r="20.123" transform="translate(271.888 496.355)" fill="#8cc23e" stroke="#000" stroke-width="1.2"/>
  </g>
</svg>
