<?xml version="1.0" encoding="UTF-8"?><svg id="_レイヤー_2" xmlns="http://www.w3.org/2000/svg" width="64" height="51" viewBox="0 0 64 51"><defs><style>.cls-1{fill:#edd6c0;}.cls-2{fill:#b3d1e2;}.cls-3{stroke-linecap:round;}.cls-3,.cls-4{fill:none;stroke:#666;stroke-miterlimit:10;stroke-width:2px;}</style></defs><g id="Layer_1"><path class="cls-2" d="M63,19l-4.99,4.99c-.56,.56-1.46,.56-2.02,0l-15.98-15.98c-.56-.56-.56-1.46,0-2.02l4.99-4.99"/><path class="cls-2" d="M1,19l4.99,4.99c.56,.56,1.46,.56,2.02,0l15.98-15.98c.56-.56,.56-1.46,0-2.02L19,1"/><path class="cls-1" d="M18.5,36.5l-.5,.5s-1,1-2,1c-1.66,0-3-1.34-3-3,0-1,1-2,1-2l.5-.5"/><path class="cls-1" d="M22.5,40.5l-.5,.5s-1,1-2,1c-1.66,0-3-1.34-3-3,0-1,1-2,1-2l.5-.5"/><path class="cls-1" d="M26.5,44.5l-.5,.5s-1,1-2,1c-1.66,0-3-1.34-3-3,0-1,1-2,1-2l.5-.5"/><path class="cls-1" d="M30.5,48.5l-.5,.5s-1,1-2,1c-1.66,0-3-1.34-3-3,0-1,1-2,1-2l.5-.5"/><path class="cls-1" d="M42,10H22l-13,13v1l4,4v3l18,18s1,1,2,1c1.66,0,3-1.34,3-3,0-1-1-2-1-2l2,2s1,1,2,1c1.66,0,3-1.34,3-3,0-1-1-2-1-2l1,1s1,1,2,1c1.66,0,3-1.34,3-3,0-1-1-2-1-2l-2-2s1,1,2,1c1.66,0,3-1.34,3-3,0-1-1-2-1-2l-1-1h1l4-4v-2l3-3v-1l-13-13Z"/><path class="cls-4" d="M42,10H22l-13,13v1l4,4v3l18,18s1,1,2,1c1.66,0,3-1.34,3-3,0-1-1-2-1-2l2,2s1,1,2,1c1.66,0,3-1.34,3-3,0-1-1-2-1-2l1,1s1,1,2,1c1.66,0,3-1.34,3-3,0-1-1-2-1-2l-2-2s1,1,2,1c1.66,0,3-1.34,3-3,0-1-1-2-1-2l-1-1h1l4-4v-2l3-3v-1l-13-13Z"/><path class="cls-4" d="M42,10H22l-13,13v1l4,4v3l18,18s1,1,2,1c1.66,0,3-1.34,3-3,0-1-1-2-1-2l2,2s1,1,2,1c1.66,0,3-1.34,3-3,0-1-1-2-1-2l1,1s1,1,2,1c1.66,0,3-1.34,3-3,0-1-1-2-1-2l-2-2s1,1,2,1c1.66,0,3-1.34,3-3,0-1-1-2-1-2l-1-1h1l4-4v-2l3-3v-1l-13-13Z"/><path class="cls-3" d="M18.5,36.5l-.5,.5s-1,1-2,1c-1.66,0-3-1.34-3-3,0-1,1-2,1-2l.5-.5"/><path class="cls-3" d="M22.5,40.5l-.5,.5s-1,1-2,1c-1.66,0-3-1.34-3-3,0-1,1-2,1-2l.5-.5"/><path class="cls-3" d="M26.5,44.5l-.5,.5s-1,1-2,1c-1.66,0-3-1.34-3-3,0-1,1-2,1-2l.5-.5"/><path class="cls-3" d="M30.5,48.5l-.5,.5s-1,1-2,1c-1.66,0-3-1.34-3-3,0-1,1-2,1-2l.5-.5"/><path class="cls-3" d="M1,19l4.99,4.99c.56,.56,1.46,.56,2.02,0l15.98-15.98c.56-.56,.56-1.46,0-2.02L19,1"/><path class="cls-3" d="M63,19l-4.99,4.99c-.56,.56-1.46,.56-2.02,0l-15.98-15.98c-.56-.56-.56-1.46,0-2.02l4.99-4.99"/><line class="cls-3" x1="35" y1="45" x2="27" y2="37"/><line class="cls-3" x1="41" y1="43" x2="31" y2="33"/><line class="cls-3" x1="44" y1="38" x2="35" y2="29"/><line class="cls-3" x1="7.29" y1="18.71" x2="9.71" y2="16.29"/><line class="cls-3" x1="54.29" y1="16.29" x2="56.71" y2="18.71"/><path class="cls-3" d="M29,10l-6.07,6.07c-1.09,1.09-1.09,2.86,0,3.95h0c1.09,1.09,2.85,1.09,3.94,.01l4.62-4.57c.39-.39,.92-.6,1.47-.6h0c1.15,0,2.09,.94,2.09,2.09v3.49c0,.38,.15,.74,.42,1.01l11.54,11.54"/><path class="cls-3" d="M37,23h3.05c1.66,0,3-1.34,3-3h0"/></g></svg>