<?xml version="1.0" encoding="UTF-8"?><svg id="_レイヤー_2" xmlns="http://www.w3.org/2000/svg" width="60" height="54" viewBox="0 0 60 54"><defs><style>.cls-1,.cls-2{fill:#fff;}.cls-3{fill:#b3d1e2;}.cls-4{fill:#5f6465;}.cls-2{stroke:#666;stroke-miterlimit:10;stroke-width:2px;}</style></defs><g id="_編集モード"><g><g><polygon class="cls-2" points="38 53 22 53 24 43 36 43 38 53"/><rect class="cls-2" x="1" y="1" width="58" height="42" rx="2.82" ry="2.82"/><rect class="cls-4" x="17" y="52" width="26" height="2" rx="1" ry="1"/><rect class="cls-4" x="1" y="34" width="58" height="2"/><rect class="cls-4" x="28.66" y="37.66" width="2.58" height="2.58" rx="1.29" ry="1.29"/><rect class="cls-3" x="4" y="4" width="52" height="28" rx="1.42" ry="1.42"/></g><g><path class="cls-1" d="M52,19c-4.11,0-6.21-2.3-8.07-4.32-1.81-1.97-3.37-3.68-6.6-3.68s-4.79,1.7-6.6,3.68c-1.86,2.03-3.96,4.32-8.07,4.32s-6.21-2.3-8.07-4.32c-1.81-1.97-3.37-3.68-6.59-3.68v-2c4.1,0,6.21,2.3,8.07,4.32,1.81,1.97,3.37,3.68,6.59,3.68s4.79-1.7,6.6-3.68c1.86-2.03,3.96-4.32,8.07-4.32s6.21,2.3,8.07,4.32c1.81,1.97,3.37,3.68,6.6,3.68v2Z"/><rect class="cls-1" x="14" y="19" width="2" height="7"/><rect class="cls-1" x="20" y="23" width="2" height="3"/><rect class="cls-1" x="26" y="22" width="2" height="4"/><rect class="cls-1" x="32" y="17" width="2" height="9"/><rect class="cls-1" x="38" y="15" width="2" height="11"/><rect class="cls-1" x="44" y="20" width="2" height="6"/><path class="cls-1" d="M51,27H9c-.55,0-1-.45-1-1V15h2v10H50v-2h2v3c0,.55-.45,1-1,1Z"/></g></g></g></svg>