<?xml version="1.0" encoding="UTF-8"?><svg id="_レイヤー_2" xmlns="http://www.w3.org/2000/svg" width="56" height="63" viewBox="0 0 56 63"><defs><style>.cls-1{fill:#b3d1e2;}.cls-2{fill:#5f6465;}.cls-3{fill:none;stroke:#666;stroke-linecap:round;stroke-miterlimit:10;stroke-width:2px;}</style></defs><g id="_編集モード"><path class="cls-1" d="M39,39V17.84c0-1.57-1.27-2.84-2.84-2.84H19.84c-1.57,0-2.84,1.27-2.84,2.84v21.16"/><path class="cls-3" d="M39,39V17.84c0-1.57-1.27-2.84-2.84-2.84H19.84c-1.57,0-2.84,1.27-2.84,2.84v21.16"/><path class="cls-1" d="M17,45.41c0-.78,.63-1.41,1.41-1.41h1.17c.79,0,1.42-.64,1.42-1.42V24.84c0-1.57-1.27-2.84-2.84-2.84H3.84c-1.57,0-2.84,1.27-2.84,2.84v17.73c0,.79,.64,1.42,1.42,1.42h1.17c.78,0,1.41,.63,1.41,1.41"/><path class="cls-1" d="M51,45.41c0-.78,.63-1.41,1.41-1.41h1.17c.79,0,1.42-.64,1.42-1.42V24.84c0-1.57-1.27-2.84-2.84-2.84h-14.31c-1.57,0-2.84,1.27-2.84,2.84v17.73c0,.79,.64,1.42,1.42,1.42h1.17c.78,0,1.41,.63,1.41,1.41"/><line class="cls-3" x1="45" y1="47" x2="45" y2="62"/><rect class="cls-2" x="10" y="25" width="2" height="2" rx="1" ry="1"/><path class="cls-3" d="M17,62v-16.59c0-.78,.63-1.41,1.41-1.41h1.17c.79,0,1.42-.64,1.42-1.42V24.84c0-1.57-1.27-2.84-2.84-2.84H3.84c-1.57,0-2.84,1.27-2.84,2.84v17.73c0,.79,.64,1.42,1.42,1.42h1.17c.78,0,1.41,.63,1.41,1.41v16.59"/><circle class="cls-3" cx="28" cy="6" r="5"/><circle class="cls-3" cx="11" cy="14" r="4"/><path class="cls-3" d="M51,62v-16.59c0-.78,.63-1.41,1.41-1.41h1.17c.79,0,1.42-.64,1.42-1.42V24.84c0-1.57-1.27-2.84-2.84-2.84h-14.31c-1.57,0-2.84,1.27-2.84,2.84v17.73c0,.79,.64,1.42,1.42,1.42h1.17c.78,0,1.41,.63,1.41,1.41v16.59"/><circle class="cls-3" cx="45" cy="14" r="4"/><rect class="cls-2" x="27" y="18" width="2" height="2" rx="1" ry="1"/><rect class="cls-2" x="27" y="22" width="2" height="2" rx="1" ry="1"/><rect class="cls-2" x="44" y="25" width="2" height="2" rx="1" ry="1"/><line class="cls-3" x1="28" y1="62" x2="28" y2="42"/><line class="cls-3" x1="11" y1="47" x2="11" y2="62"/></g></svg>