<?xml version="1.0" encoding="UTF-8"?><svg id="_レイヤー_2" xmlns="http://www.w3.org/2000/svg" width="64" height="56" viewBox="0 0 64 56"><defs><style>.cls-1,.cls-2{fill:#fff;}.cls-3{fill:#b3d1e2;}.cls-4{fill:#5f6465;}.cls-2{stroke:#666;stroke-miterlimit:10;stroke-width:2px;}</style></defs><g id="_編集モード"><g><circle class="cls-1" cx="57" cy="37" r="6"/><path class="cls-2" d="M57,43H2.43c-.79,0-1.43-.64-1.43-1.43V8.43c0-.79,.64-1.43,1.43-1.43H48"/><g><path class="cls-1" d="M63,37c0-3.31-2.69-6-6-6s-6,2.69-6,6V7c0-3.31,2.69-6,6-6s6,2.69,6,6v30h0Z"/><path class="cls-4" d="M57,44v-2c2.76,0,5-2.24,5-5s-2.24-5-5-5-5,2.24-5,5c0,.55-.45,1-1,1s-1-.45-1-1V7c0-3.86,3.14-7,7-7s7,3.14,7,7v30c0,3.86-3.14,7-7,7Zm0-14c1.96,0,3.73,.81,5,2.11V7c0-2.76-2.24-5-5-5s-5,2.24-5,5v25.11c1.27-1.3,3.04-2.11,5-2.11Z"/></g><g><rect class="cls-3" x="8" y="11" width="2" height="28"/><rect class="cls-3" x="13" y="11" width="2" height="28"/><rect class="cls-3" x="23" y="11" width="2" height="28"/><rect class="cls-3" x="18" y="11" width="2" height="28"/><rect class="cls-3" x="33" y="11" width="2" height="28"/><rect class="cls-3" x="28" y="11" width="2" height="28"/><rect class="cls-3" x="38" y="11" width="2" height="28"/><rect class="cls-3" x="43" y="11" width="2" height="28"/><rect class="cls-3" x="5" y="19" width="43" height="2"/><rect class="cls-3" x="5" y="14" width="43" height="2"/><rect class="cls-3" x="5" y="24" width="43" height="2"/><rect class="cls-3" x="5" y="29" width="43" height="2"/><rect class="cls-3" x="5" y="34" width="43" height="2"/></g></g><rect class="cls-3" x="1" y="47" width="62" height="8"/><path class="cls-4" d="M63,56H1c-.55,0-1-.45-1-1v-8c0-.55,.45-1,1-1H63c.55,0,1,.45,1,1v8c0,.55-.45,1-1,1ZM2,54H62v-6H2v6Z"/><path class="cls-4" d="M6,55h-2v-3c0-.55,.45-1,1-1h0c.55,0,1,.45,1,1v3Z"/><path class="cls-4" d="M10.36,55h-2v-3c0-.55,.45-1,1-1h0c.55,0,1,.45,1,1v3Z"/><path class="cls-4" d="M14.73,55h-2v-3c0-.55,.45-1,1-1h0c.55,0,1,.45,1,1v3Z"/><path class="cls-4" d="M19.09,55h-2v-3c0-.55,.45-1,1-1h0c.55,0,1,.45,1,1v3Z"/><path class="cls-4" d="M23.45,55h-2v-3c0-.55,.45-1,1-1h0c.55,0,1,.45,1,1v3Z"/><path class="cls-4" d="M27.82,55h-2v-3c0-.55,.45-1,1-1h0c.55,0,1,.45,1,1v3Z"/><path class="cls-4" d="M32.18,55h-2v-3c0-.55,.45-1,1-1h0c.55,0,1,.45,1,1v3Z"/><path class="cls-4" d="M36.55,55h-2v-3c0-.55,.45-1,1-1h0c.55,0,1,.45,1,1v3Z"/><path class="cls-4" d="M40.91,55h-2v-3c0-.55,.45-1,1-1h0c.55,0,1,.45,1,1v3Z"/><path class="cls-4" d="M45.27,55h-2v-3c0-.55,.45-1,1-1h0c.55,0,1,.45,1,1v3Z"/><path class="cls-4" d="M49.64,55h-2v-3c0-.55,.45-1,1-1h0c.55,0,1,.45,1,1v3Z"/><path class="cls-4" d="M54,55h-2v-3c0-.55,.45-1,1-1h0c.55,0,1,.45,1,1v3Z"/></g></svg>