<svg id="コンポーネント_19_1" data-name="コンポーネント 19 – 1" xmlns="http://www.w3.org/2000/svg" width="235.759" height="131.832" viewBox="0 0 235.759 131.832">
  <path id="パス_840" data-name="パス 840" d="M8.052-17.732H1.936v1.606H8.052Zm.638,2.9H.88V-13.2H8.69Zm-.572,2.992H1.848v1.584h6.27ZM1.848-7.3h6.27V-8.91H1.848ZM6.4-4.29v3.168H3.542V-4.29ZM8.14-5.94H1.826V1.452H3.542V.528h4.6Zm3.388-6.534H13.97v1.914H11.528Zm0-3.454H13.97v1.87H11.528Zm6.732,1.87H15.752v-1.87H18.26Zm0,3.5H15.752v-1.914H18.26ZM20.768-5.5V-7.326H15.84V-8.91h4.312V-17.6H9.7v8.69H13.86v1.584H8.954V-5.5H12.98A13.281,13.281,0,0,1,8.162-.748,8.377,8.377,0,0,1,9.526.814a15.063,15.063,0,0,0,4.334-4.6v5.5h1.98v-5.7A18.317,18.317,0,0,0,19.954.682,7.71,7.71,0,0,1,21.34-.858,15.558,15.558,0,0,1,16.786-5.5ZM42.7-11.7H38.038v-1.364H42.7Zm0,2.728H38.038V-10.34H42.7Zm0,2.772H38.038V-7.59H42.7ZM36.19-14.52v9.768h8.426V-14.52H40.7c.2-.44.4-.946.594-1.43h4.114v-1.518H35.42v1.518H39.4c-.132.484-.264.968-.418,1.43ZM41.03-3.784A18.117,18.117,0,0,1,44.308-.836l1.474-.924A17.36,17.36,0,0,0,42.46-4.554Zm-3.036-.682a10.277,10.277,0,0,1-3.5,2.508A10.25,10.25,0,0,1,35.838-.726a13.577,13.577,0,0,0,3.85-3.212Zm-5.5-10.3H28.71v-1.386h3.784Zm0,2.75H28.71V-13.42h3.784Zm1.892-5.566h-7.48v7h7.48ZM31.7-3.96h3.454V-5.5H31.7V-7.568h3.85V-9.13H25.74v1.562h4.2v5.456A5.747,5.747,0,0,1,28.534-4.07c.088-.814.132-1.628.154-2.464H27.016C26.95-3.872,26.642-1.1,25.366.44A5.639,5.639,0,0,1,26.6,1.826a8.435,8.435,0,0,0,1.628-3.74c1.87,2.706,4.862,3.19,9.328,3.19H45.21A5.6,5.6,0,0,1,45.892-.44C44.4-.4,38.764-.4,37.554-.4A17.438,17.438,0,0,1,31.7-1.078ZM56.43-5.544V-7.766h1.65v2.222Zm-3.1-2.222H55v2.222H53.306c.022-.55.022-1.078.022-1.584Zm2.882-7.128a18.512,18.512,0,0,1-.814,1.98H53.152c.33-.616.638-1.3.924-1.98Zm.22,3.52h1.65v2.09H56.43Zm-3.1,0H55v2.09H53.328Zm14.63-4.29c-.11,2.244-.264,3.146-.506,3.41a.592.592,0,0,1-.594.2,15.686,15.686,0,0,1-1.782-.088,4.97,4.97,0,0,1,.462,1.694,14.158,14.158,0,0,0,2.222-.022,1.651,1.651,0,0,0,1.254-.616c.462-.528.66-2,.814-5.566.022-.22.022-.7.022-.7H60.28v1.694h2.728a5.337,5.337,0,0,1-3.234,4.334v-1.584H57.156a28.243,28.243,0,0,0,1.32-2.9l-1.188-.748L57-16.478h-2.31c.176-.528.33-1.056.484-1.584l-1.87-.418a15.911,15.911,0,0,1-3.322,6.864,13.794,13.794,0,0,1,1.5,1.21l.2-.242v3.5c0,2.464-.154,5.7-1.628,8.008a8.058,8.058,0,0,1,1.452.9A12.977,12.977,0,0,0,53.2-3.982H58.08V-.4c0,.286-.11.374-.4.4C57.42,0,56.5,0,55.44-.022a6.5,6.5,0,0,1,.638,1.716A7.573,7.573,0,0,0,59,1.386c.594-.308.77-.88.77-1.76V-11.132a5.589,5.589,0,0,1,.968,1.276c2.706-1.21,3.718-3.234,4.158-5.808ZM70.444-4.026h-4V-6.4h3.586v-1.76H66.44v-2.112H64.5v2.112h-1.54q.231-.792.4-1.584L61.666-10.1a12.462,12.462,0,0,1-1.892,4.84,9.329,9.329,0,0,1,1.54.814A10.839,10.839,0,0,0,62.348-6.4H64.5v2.376H60.148v1.782H64.5V1.628H66.44V-2.244h4Zm10.6-12.012a16.126,16.126,0,0,0-3.96-2.266L75.966-16.83a16.941,16.941,0,0,1,3.894,2.442Zm-1.122,5.72a18.823,18.823,0,0,0-4.048-2.134l-1.122,1.54A16.825,16.825,0,0,1,78.738-8.58Zm-.748,3.41A66.6,66.6,0,0,1,75.394.132l1.76,1.3c1.188-2.112,2.53-4.73,3.586-7.04ZM88-13.112h3.278V-8.58H87.934c.044-.792.066-1.562.066-2.354Zm7.018,6.446V-8.58H93.28v-6.446H88v-3.41H85.976v3.41H81.95v1.914h4.026v2.156c0,.792-.022,1.584-.088,2.376H80.806v1.914h4.8c-.616,2.662-2.134,5.1-5.852,7A8.769,8.769,0,0,1,81.4,1.782a11.021,11.021,0,0,0,6.094-7.524c1.232,3.5,3.234,6.116,6.292,7.524A7.6,7.6,0,0,1,95.216,0a10.319,10.319,0,0,1-5.962-6.666Zm13.926-10.846-2.288-.176a10.955,10.955,0,0,1-.506,2.618c-.44.022-.88.022-1.3.022a28.436,28.436,0,0,1-3.784-.242v2.068c1.232.088,2.75.132,3.674.132h.638a22.1,22.1,0,0,1-4.972,6.424L102.3-5.258a23.929,23.929,0,0,1,2-2.354A5.607,5.607,0,0,1,107.954-9.2a1.771,1.771,0,0,1,1.8,1.1c-2.552,1.3-5.192,3.014-5.192,5.72,0,2.728,2.552,3.5,5.83,3.5a56.022,56.022,0,0,0,6.116-.4l.066-2.222a37.462,37.462,0,0,1-6.116.572c-2.222,0-3.652-.308-3.652-1.8,0-1.3,1.188-2.31,3.08-3.344-.022,1.078-.044,2.332-.088,3.1h2.09c-.022-1.056-.044-2.816-.066-4.07,1.54-.7,2.97-1.276,4.092-1.716.66-.264,1.606-.616,2.244-.814l-.9-2.024c-.7.352-1.342.638-2.09.968-1.034.484-2.156.946-3.52,1.584a2.9,2.9,0,0,0-2.948-1.87,6.461,6.461,0,0,0-2.816.66,17.654,17.654,0,0,0,1.694-2.9,67.975,67.975,0,0,0,7.238-.572v-2.046a50.72,50.72,0,0,1-6.468.638C108.636-16.082,108.812-16.9,108.944-17.512ZM139.3-9.944v-.748h2.09c1.056,0,1.826.022,2.178.066v-2.332a14.619,14.619,0,0,1-2.2.132H139.3v-2.552a14.343,14.343,0,0,1,.132-1.914H136.95a15.189,15.189,0,0,1,.11,1.914v2.552h-5.808v-2.53a11.856,11.856,0,0,1,.132-1.76H128.9a12.073,12.073,0,0,1,.132,1.76v2.53h-2.156A13.676,13.676,0,0,1,124.586-13v2.4c.352-.044,1.254-.088,2.288-.088h2.156v3.3c0,.924-.088,1.826-.11,2.134h2.442a19.559,19.559,0,0,1-.11-2.134v-3.3h5.808v.88c0,5.83-1.936,7.722-6.05,9.24l1.87,1.76C138.028-1.122,139.3-4.268,139.3-9.944Zm25.344-6.424a1.305,1.305,0,0,1,1.3-1.32,1.324,1.324,0,0,1,1.32,1.32,1.324,1.324,0,0,1-1.32,1.32A1.305,1.305,0,0,1,164.648-16.368Zm-1.166,0a2.46,2.46,0,0,0,2.464,2.464,2.479,2.479,0,0,0,2.486-2.464,2.479,2.479,0,0,0-2.486-2.464A2.46,2.46,0,0,0,163.482-16.368Zm-3.388-.77h-2.6a9.373,9.373,0,0,1,.176,1.716v2.046h-5.9a18.266,18.266,0,0,1-1.958-.132v2.31c.594-.044,1.3-.066,1.98-.066h5.874v9.438c-.022.594-.264.814-.836.814a15.018,15.018,0,0,1-2.508-.242l.2,2.178a32.957,32.957,0,0,0,3.322.154c1.452,0,2.068-.682,2.068-1.87V-11.264h5.544c.55,0,1.3,0,1.936.044v-2.288a14.637,14.637,0,0,1-1.958.132h-5.522V-15.4A11.819,11.819,0,0,1,160.094-17.138ZM155.1-7.986l-1.958-.946a22.838,22.838,0,0,1-4.158,5.72l1.892,1.3A32.87,32.87,0,0,0,155.1-7.986Zm9.306-.968L162.514-7.92a38.1,38.1,0,0,1,3.652,5.874L168.19-3.19A47.275,47.275,0,0,0,164.406-8.954Zm10.208-.858v2.728c.748-.066,2.068-.11,3.278-.11H189.86c.968,0,1.98.088,2.464.11V-9.812c-.55.044-1.408.132-2.464.132H177.892C176.7-9.68,175.34-9.768,174.614-9.812Zm29.7,7.788a23.031,23.031,0,0,1-.176,2.816h2.706a25.777,25.777,0,0,1-.176-2.816v-6.8a57.605,57.605,0,0,1,8.316,3.432l.99-2.4a74.573,74.573,0,0,0-9.306-3.52V-14.74c0-.77.088-1.738.154-2.464h-2.706a15.926,15.926,0,0,1,.2,2.464Z" transform="translate(-0.741 18.832)"/>
  <g id="グループ_576" data-name="グループ 576" transform="translate(-696.241 -2384.998)">
    <path id="パス_842" data-name="パス 842" d="M3.024-.72V-2.268H9.1V-.72ZM9.1-4.836V-3.3H3.024V-4.836ZM9.1-7.4v1.536H3.024V-7.4ZM6.072-8.472c.2-.432.4-.948.588-1.452L5.328-10.08a13.045,13.045,0,0,1-.4,1.608H1.908V.96H3.024V.312H9.1v.6h1.176V-8.472Zm15.372-.312a9.252,9.252,0,0,0-2.28-1.236l-.612.84a9.457,9.457,0,0,1,2.232,1.332ZM20.8-5.676A9.9,9.9,0,0,0,18.48-6.792l-.612.852A9.716,9.716,0,0,1,20.16-4.716ZM19.224.78c.708-1.128,1.488-2.544,2.112-3.792l-.84-.744a39.838,39.838,0,0,1-2.22,3.8Zm7.548-3.66V-.588h-3.66V-2.88ZM22.032.948h1.08v-.5h3.66V.912H27.9V-3.912H22.032Zm3.552-8.772c.408.468.828,1.02,1.212,1.56-1.176.06-2.34.12-3.408.168.552-1.092,1.14-2.484,1.608-3.7l-1.284-.3a25.079,25.079,0,0,1-1.524,4.056c-.42.024-.8.036-1.152.048l.132,1.128c1.644-.108,4-.252,6.276-.408.2.36.384.7.516.984l1.032-.588A17.419,17.419,0,0,0,26.556-8.3Zm12.108-2.184a13.452,13.452,0,0,1-2.544,4.62,7,7,0,0,1,.624,1.128c.3-.36.588-.744.888-1.176V.924h1.068V-7.284a19.163,19.163,0,0,0,1.008-2.424Zm8.52,3.288V-7.776H42.78v-2.232H41.688v2.232H38.472V-6.72H41.1a12.152,12.152,0,0,1-3.156,4.98,4.124,4.124,0,0,1,.792.852A13.54,13.54,0,0,0,41.688-5.8v3.612H39.9v1.008h1.788V.876H42.78V-1.176h1.776V-2.184H42.78V-5.868A13.961,13.961,0,0,0,45.648-.924a4.285,4.285,0,0,1,.852-.888A12.069,12.069,0,0,1,43.4-6.72ZM59.5-4.572v2.016h-2.6V-4.572ZM60.528-1.56v-4H55.872V-.72h1.02v-.84Zm2.556-6.48h-5.2c.3-.552.612-1.212.876-1.824l-1.416-.228a15.341,15.341,0,0,1-.7,2.052H53.376V.936h1.1V-6.948h7.488v6.5c0,.2-.072.264-.312.276S60.6-.156,59.808-.192a4.26,4.26,0,0,1,.384,1.14A7.81,7.81,0,0,0,62.484.756c.444-.192.6-.54.6-1.188ZM78.828-9.432H77.436a7.2,7.2,0,0,1,.12.756c.024.312.048,1.032.06,1.764-.492.012-.984.024-1.44.024a13.012,13.012,0,0,1-1.884-.132v1.212c.552.024,1.344.06,1.9.06.468,0,.96-.012,1.452-.024v.4c0,2.184-.132,3.42-1.248,4.464a3.916,3.916,0,0,1-1.272.84l1.1.864C78.7-.72,78.792-2.58,78.792-5.364v-.468c.7-.036,1.356-.108,1.872-.18l.012-1.224a17.849,17.849,0,0,1-1.9.252c-.012-.72-.024-1.428-.012-1.692A6.671,6.671,0,0,1,78.828-9.432Zm-6.036.18-1.4-.132a6.064,6.064,0,0,1-.06.9,32.885,32.885,0,0,0-.432,4.8,13.271,13.271,0,0,0,.66,3.84L72.6.036c-.012-.144-.036-.324-.036-.444a3.48,3.48,0,0,1,.06-.564c.144-.624.48-1.848.8-2.76l-.624-.4c-.2.528-.456,1.2-.612,1.644a15.86,15.86,0,0,1,.36-5.9C72.612-8.616,72.708-9,72.792-9.252Z" transform="translate(711 2506.524)"/>
    <g id="長方形_4" data-name="長方形 4" transform="translate(697 2487.093)" fill="none" stroke="#000" stroke-width="1">
      <rect width="110" height="29.736" stroke="none"/>
      <rect x="0.5" y="0.5" width="109" height="28.736" fill="none"/>
    </g>
    <path id="パス_843" data-name="パス 843" d="M3.612-3.264l-1.3.324V-8.688H1.272v6c-.312.084-.6.144-.852.2L.672-1.356c.852-.228,1.908-.516,2.94-.8v3.1h1.08V-10.008H3.612ZM10.44-9.24l-.2.036H5.172v1.1h4.74A14.368,14.368,0,0,1,8.268-3.48,15.845,15.845,0,0,1,6.744-8.028l-1.056.192A17.914,17.914,0,0,0,7.56-2.412,8.168,8.168,0,0,1,4.8-.036a3.971,3.971,0,0,1,.78.96,9.591,9.591,0,0,0,2.664-2.28A8.309,8.309,0,0,0,10.872.936a4.388,4.388,0,0,1,.792-.96,7.312,7.312,0,0,1-2.7-2.328,16.243,16.243,0,0,0,2.22-6.672Zm5.292,4.26H18.3v.7H15.732ZM18.3-7.164H15.732v-.66H18.3Zm0,1.44H15.732v-.684H18.3Zm5.628,3.84v-.9h-4.8V-3.42H23.6v-.864H19.368v-.7h3.324v-.744H19.368v-.684h3.3v-.756h-3.3v-.66H23.2v-.888H19.428c.228-.36.456-.78.672-1.2l-1.236-.156a10.551,10.551,0,0,1-.588,1.356h-2.04c.264-.384.492-.78.708-1.152l-1.164-.228a9.978,9.978,0,0,1-2.82,3.4,3.929,3.929,0,0,1,.792.756,10.784,10.784,0,0,0,.936-.864V-3.42h3.336v.636H13.272v.9H17.16a13.387,13.387,0,0,1-4.212,1.8,6.5,6.5,0,0,1,.72.912A13.521,13.521,0,0,0,18.024-1.4V.936h1.1V-1.428A13.853,13.853,0,0,0,23.5.768a4.53,4.53,0,0,1,.684-.912,13.443,13.443,0,0,1-4.14-1.74Zm10.344.216H31.716v-.744h2.556Zm-2.556-2.3h2.556v.684H31.716ZM28.332-6.216v-.72h2.256v.72Zm5.748-.72v.72H31.716v-.72Zm2.568,3.648H35.4V-4.764H31.716v-.708h3.492V-7.68H31.716v-.612H36.4v-.9h-4.68v-.876H30.588v.876H26.04v.9h4.548v.612H27.264v2.208h3.324v.708H26.952v.792h3.636v.684h-4.8v.876h4.8v.744H26.844v.84h3.744v.636c0,.2-.072.264-.288.276C30.108.1,29.388.1,28.728.072a3.447,3.447,0,0,1,.384.9,7.067,7.067,0,0,0,2.04-.156c.408-.156.564-.408.564-1.02V-.828h2.556v.516H35.4v-2.1h1.248Zm8.8-3.8a11.2,11.2,0,0,1-.528,1.14H42.384l.348-.072a5.048,5.048,0,0,0-.516-1.068Zm3.612,5.256v-.936H44.328V-3.5h3.684v-.84H44.328v-.72h4.248v-.888H46.032c.2-.336.444-.732.672-1.14H49.02v-.936H47.292a18.776,18.776,0,0,0,1-1.632l-1.152-.288a10.459,10.459,0,0,1-.84,1.776l.456.144h-1.3V-10.08H44.4v2.052H43.212V-10.08H42.168v2.052h-1.32l.612-.228a8.341,8.341,0,0,0-.96-1.716l-.972.324a9,9,0,0,1,.876,1.62H38.628v.936h2.724l-.288.048a5.945,5.945,0,0,1,.5,1.092h-2.46v.888h4.128v.72H39.7v.84h3.54v.732H38.58v.936h3.708A11.643,11.643,0,0,1,38.244-.168a5.008,5.008,0,0,1,.732.948,11.919,11.919,0,0,0,4.26-2.16V.948h1.092V-1.464a10.7,10.7,0,0,0,4.3,2.256,5.011,5.011,0,0,1,.744-1A11.02,11.02,0,0,1,45.3-1.836Zm7.1-4.512V-7.692h2.352A17.137,17.137,0,0,1,56.94-6.348ZM59.136-2.3H54.612v-1h4.524ZM54.612-.372V-1.428h4.524V-.372Zm7.1-4.98v-1H58.572A17.355,17.355,0,0,0,61.224-9.18l-.96-.5a13.144,13.144,0,0,1-1.308,1.548v-.528h-2.8v-1.4h-1.1v1.4H52.128v.972h2.928v1.344H51.084v1h4.392a21.536,21.536,0,0,1-4.692,2.208,6.118,6.118,0,0,1,.684.924c.684-.264,1.368-.552,2.04-.864V.948h1.1V.576h4.524V.9h1.152V-4.224H55.632c.576-.36,1.14-.72,1.68-1.128Zm8.58.78v2.016h-2.6V-4.572ZM71.328-1.56v-4H66.672V-.72h1.02v-.84Zm2.556-6.48h-5.2c.3-.552.612-1.212.876-1.824l-1.416-.228a15.341,15.341,0,0,1-.7,2.052H64.176V.936h1.1V-6.948h7.488v6.5c0,.2-.072.264-.312.276S71.4-.156,70.608-.192a4.26,4.26,0,0,1,.384,1.14A7.81,7.81,0,0,0,73.284.756c.444-.192.6-.54.6-1.188ZM84.828-9.432H83.436a7.2,7.2,0,0,1,.12.756c.024.312.048,1.032.06,1.764-.492.012-.984.024-1.44.024a13.012,13.012,0,0,1-1.884-.132v1.212c.552.024,1.344.06,1.9.06.468,0,.96-.012,1.452-.024v.4c0,2.184-.132,3.42-1.248,4.464a3.916,3.916,0,0,1-1.272.84l1.1.864C84.7-.72,84.792-2.58,84.792-5.364v-.468c.7-.036,1.356-.108,1.872-.18l.012-1.224a17.849,17.849,0,0,1-1.9.252c-.012-.72-.024-1.428-.012-1.692A6.671,6.671,0,0,1,84.828-9.432Zm-6.036.18-1.4-.132a6.064,6.064,0,0,1-.06.9,32.885,32.885,0,0,0-.432,4.8,13.271,13.271,0,0,0,.66,3.84L78.6.036c-.012-.144-.036-.324-.036-.444a3.48,3.48,0,0,1,.06-.564c.144-.624.48-1.848.8-2.76l-.624-.4c-.2.528-.456,1.2-.612,1.644a15.86,15.86,0,0,1,.36-5.9C78.612-8.616,78.708-9,78.792-9.252Z" transform="translate(833 2506.524)"/>
    <g id="パス_86" data-name="パス 86" transform="translate(822 2487.093)" fill="none">
      <path d="M0,0H110V29.736H0Z" stroke="none"/>
      <path d="M 1 0.9999980926513672 L 1 28.73648452758789 L 109 28.73648452758789 L 109 0.9999980926513672 L 1 0.9999980926513672 M 0 -1.9073486328125e-06 L 110 -1.9073486328125e-06 L 110 29.73648452758789 L 0 29.73648452758789 L 0 -1.9073486328125e-06 Z" stroke="none" fill="#000"/>
    </g>
  </g>
  <path id="パス_841" data-name="パス 841" d="M21.738-12.831,17.6-24.134q-.306-.752-.634-1.786t-.658-2.232q-.306,1.2-.635,2.244t-.634,1.821L10.927-12.831ZM32.9,0H28.012a2.087,2.087,0,0,1-1.34-.411A2.561,2.561,0,0,1,25.9-1.434L23.359-8.366H9.283L6.745-1.434a2.253,2.253,0,0,1-.728.987A2.033,2.033,0,0,1,4.676,0H-.259L13.113-33.981h6.439ZM54.5-19.012a2.893,2.893,0,0,1-.505.517,1.167,1.167,0,0,1-.717.188,1.6,1.6,0,0,1-.869-.27q-.423-.27-1.01-.611A7.554,7.554,0,0,0,50-19.8a6.425,6.425,0,0,0-2.009-.27,6.129,6.129,0,0,0-2.679.552,5.078,5.078,0,0,0-1.915,1.586,7.148,7.148,0,0,0-1.14,2.5,13.439,13.439,0,0,0-.376,3.325,13.037,13.037,0,0,0,.411,3.431,7.336,7.336,0,0,0,1.187,2.526,5.107,5.107,0,0,0,1.88,1.551,5.7,5.7,0,0,0,2.491.529,6.176,6.176,0,0,0,2.244-.341,7.081,7.081,0,0,0,1.445-.752q.587-.411,1.022-.752a1.541,1.541,0,0,1,.975-.341,1.178,1.178,0,0,1,1.058.54L56.259-3.6A10.494,10.494,0,0,1,54.167-1.7,11.305,11.305,0,0,1,51.829-.482a11.891,11.891,0,0,1-2.491.646,17.535,17.535,0,0,1-2.55.188,10.694,10.694,0,0,1-4.207-.834,9.936,9.936,0,0,1-3.454-2.432,11.615,11.615,0,0,1-2.338-3.913,15.117,15.117,0,0,1-.858-5.276,15.335,15.335,0,0,1,.764-4.923,11.153,11.153,0,0,1,2.244-3.925,10.29,10.29,0,0,1,3.666-2.6,12.629,12.629,0,0,1,5.029-.94,11.963,11.963,0,0,1,4.735.87,11.57,11.57,0,0,1,3.654,2.491ZM70.265.376A6.334,6.334,0,0,1,65.436-1.4a6.839,6.839,0,0,1-1.68-4.9V-19.764H61.288a1.132,1.132,0,0,1-.8-.306,1.191,1.191,0,0,1-.329-.917v-2.3l3.877-.635,1.222-6.58a1.289,1.289,0,0,1,.447-.729,1.328,1.328,0,0,1,.846-.259H69.56V-23.9H76v4.136H69.56V-6.7a2.6,2.6,0,0,0,.552,1.762,1.9,1.9,0,0,0,1.516.635,2.731,2.731,0,0,0,.9-.129,4.98,4.98,0,0,0,.634-.27q.27-.141.482-.27a.805.805,0,0,1,.423-.129.664.664,0,0,1,.423.129,1.961,1.961,0,0,1,.353.388l1.739,2.82a8.787,8.787,0,0,1-2.914,1.6A10.846,10.846,0,0,1,70.265.376ZM88.078-24.111V0H82.25V-24.111Zm.8-7.027a3.307,3.307,0,0,1-.305,1.41,3.875,3.875,0,0,1-.811,1.152,3.875,3.875,0,0,1-1.187.787,3.641,3.641,0,0,1-1.457.294,3.5,3.5,0,0,1-1.422-.294,3.766,3.766,0,0,1-1.163-.787,3.807,3.807,0,0,1-.787-1.152,3.419,3.419,0,0,1-.294-1.41,3.641,3.641,0,0,1,.294-1.457,3.729,3.729,0,0,1,.787-1.175,3.766,3.766,0,0,1,1.163-.787,3.5,3.5,0,0,1,1.422-.294,3.641,3.641,0,0,1,1.457.294,3.875,3.875,0,0,1,1.187.787,3.791,3.791,0,0,1,.811,1.175A3.521,3.521,0,0,1,88.877-31.138Zm29.211,7.027L108.523,0h-5.264L93.695-24.111h4.794a1.855,1.855,0,0,1,1.093.306,1.438,1.438,0,0,1,.576.775l4.653,12.878q.376,1.128.658,2.209t.493,2.162q.235-1.081.517-2.162t.682-2.209l4.747-12.878a1.588,1.588,0,0,1,.588-.775,1.68,1.68,0,0,1,1.01-.306Zm17.578,13.818a32.012,32.012,0,0,0-4.23.435,11.276,11.276,0,0,0-2.749.811A3.615,3.615,0,0,0,127.205-7.9a2.5,2.5,0,0,0-.446,1.433,2.52,2.52,0,0,0,.9,2.186,3.921,3.921,0,0,0,2.362.658,6.888,6.888,0,0,0,3.09-.646,9.177,9.177,0,0,0,2.55-1.962Zm-13.3-10.457a14.307,14.307,0,0,1,10.011-3.807,9.783,9.783,0,0,1,3.783.693,7.994,7.994,0,0,1,2.82,1.927,8.247,8.247,0,0,1,1.751,2.949,11.333,11.333,0,0,1,.6,3.76V0H138.7a2.661,2.661,0,0,1-1.269-.247,1.711,1.711,0,0,1-.705-1l-.517-1.739a20.983,20.983,0,0,1-1.786,1.445,10.514,10.514,0,0,1-1.809,1.046A9.722,9.722,0,0,1,130.6.153a11.577,11.577,0,0,1-2.362.223,9.258,9.258,0,0,1-2.82-.411,6.2,6.2,0,0,1-2.232-1.234,5.539,5.539,0,0,1-1.457-2.045,7.252,7.252,0,0,1-.517-2.843,5.66,5.66,0,0,1,.306-1.821,5.324,5.324,0,0,1,1-1.727,8.315,8.315,0,0,1,1.8-1.551,11.683,11.683,0,0,1,2.714-1.269,23.451,23.451,0,0,1,3.748-.881,37.442,37.442,0,0,1,4.888-.411v-1.41a5.277,5.277,0,0,0-1.034-3.584,3.783,3.783,0,0,0-2.984-1.163,7.086,7.086,0,0,0-2.338.329,9.622,9.622,0,0,0-1.633.74q-.705.411-1.281.74a2.535,2.535,0,0,1-1.281.329,1.674,1.674,0,0,1-1.034-.317,2.651,2.651,0,0,1-.682-.74ZM156.839.376A6.334,6.334,0,0,1,152.01-1.4a6.839,6.839,0,0,1-1.68-4.9V-19.764h-2.467a1.132,1.132,0,0,1-.8-.306,1.191,1.191,0,0,1-.329-.917v-2.3l3.878-.635,1.222-6.58a1.29,1.29,0,0,1,.447-.729,1.328,1.328,0,0,1,.846-.259h3.008V-23.9h6.439v4.136h-6.439V-6.7a2.6,2.6,0,0,0,.552,1.762A1.9,1.9,0,0,0,158.2-4.3a2.731,2.731,0,0,0,.9-.129,4.979,4.979,0,0,0,.634-.27q.27-.141.482-.27a.805.805,0,0,1,.423-.129.664.664,0,0,1,.423.129,1.961,1.961,0,0,1,.352.388l1.739,2.82a8.787,8.787,0,0,1-2.914,1.6A10.846,10.846,0,0,1,156.839.376Zm17.813-24.487V0h-5.828V-24.111Zm.8-7.027a3.307,3.307,0,0,1-.306,1.41,3.875,3.875,0,0,1-.811,1.152,3.875,3.875,0,0,1-1.187.787,3.641,3.641,0,0,1-1.457.294,3.5,3.5,0,0,1-1.422-.294,3.766,3.766,0,0,1-1.163-.787,3.807,3.807,0,0,1-.787-1.152,3.419,3.419,0,0,1-.294-1.41,3.641,3.641,0,0,1,.294-1.457,3.73,3.73,0,0,1,.787-1.175,3.766,3.766,0,0,1,1.163-.787,3.5,3.5,0,0,1,1.422-.294,3.641,3.641,0,0,1,1.457.294,3.875,3.875,0,0,1,1.187.787,3.79,3.79,0,0,1,.811,1.175A3.521,3.521,0,0,1,175.451-31.138Zm18.142,6.65a13.146,13.146,0,0,1,4.876.87,10.683,10.683,0,0,1,3.76,2.468,10.838,10.838,0,0,1,2.409,3.9,14.838,14.838,0,0,1,.846,5.147,14.911,14.911,0,0,1-.846,5.17,11.075,11.075,0,0,1-2.409,3.924,10.528,10.528,0,0,1-3.76,2.491,13.146,13.146,0,0,1-4.876.87,13.306,13.306,0,0,1-4.911-.87,10.506,10.506,0,0,1-3.772-2.491,11.212,11.212,0,0,1-2.421-3.924,14.727,14.727,0,0,1-.858-5.17,14.655,14.655,0,0,1,.858-5.147,10.97,10.97,0,0,1,2.421-3.9,10.661,10.661,0,0,1,3.772-2.468A13.306,13.306,0,0,1,193.593-24.487Zm0,20.375a5.105,5.105,0,0,0,4.453-2.021,10.134,10.134,0,0,0,1.445-5.922A10.249,10.249,0,0,0,198.046-18a5.083,5.083,0,0,0-4.453-2.045,5.184,5.184,0,0,0-4.524,2.056,10.132,10.132,0,0,0-1.469,5.934,10.017,10.017,0,0,0,1.469,5.91A5.207,5.207,0,0,0,193.593-4.112ZM217.7-21.15a15.7,15.7,0,0,1,1.539-1.351,9.725,9.725,0,0,1,1.715-1.058,9.614,9.614,0,0,1,1.939-.681,9.712,9.712,0,0,1,2.256-.247,8.644,8.644,0,0,1,3.5.67,6.919,6.919,0,0,1,2.55,1.88,8.264,8.264,0,0,1,1.551,2.89,12.284,12.284,0,0,1,.529,3.7V0h-5.8V-15.345a5.191,5.191,0,0,0-1.01-3.419,3.783,3.783,0,0,0-3.079-1.21,6.044,6.044,0,0,0-2.82.682,10.106,10.106,0,0,0-2.491,1.856V0h-5.8V-24.111h3.548a1.426,1.426,0,0,1,1.48,1.058Z" transform="translate(0.259 77.832)"/>
</svg>
