<svg id="コンポーネント_29_1" data-name="コンポーネント 29 – 1" xmlns="http://www.w3.org/2000/svg" xmlns:xlink="http://www.w3.org/1999/xlink" width="605" height="93.47" viewBox="0 0 605 93.47">
  <defs>
    <clipPath id="clip-path">
      <rect id="長方形_346" data-name="長方形 346" width="605" height="80" transform="translate(658 3717)" fill="#fff"/>
    </clipPath>
    <clipPath id="clip-path-2">
      <rect id="長方形_147" data-name="長方形 147" width="24.318" height="31.266" transform="translate(0 0)" fill="#0077c0"/>
    </clipPath>
  </defs>
  <g id="グループ_911" data-name="グループ 911" transform="translate(1263 3810.47) rotate(180)">
    <g id="グループ_909" data-name="グループ 909">
      <g id="マスクグループ_116" data-name="マスクグループ 116" clip-path="url(#clip-path)">
        <g id="長方形_345" data-name="長方形 345" transform="translate(710 3717)" fill="#fff" stroke="#0cb04b" stroke-width="8">
          <rect width="500" height="140" rx="36" stroke="none"/>
          <rect x="4" y="4" width="492" height="132" rx="32" fill="none"/>
        </g>
      </g>
      <rect id="長方形_349" data-name="長方形 349" width="12" height="23" transform="translate(1200 3774)" fill="#fff"/>
      <g id="グループ_907" data-name="グループ 907" transform="translate(1221.928 3618.537) rotate(90)">
        <g id="マスクグループ_10" data-name="マスクグループ 10" transform="translate(155.463 0)" clip-path="url(#clip-path-2)">
          <path id="パス_99" data-name="パス 99" d="M0,18.846,11.335,0,22.347,19.6" transform="translate(15.826 4.65) rotate(90)" fill="none" stroke="#0cb04b" stroke-width="7"/>
        </g>
      </g>
    </g>
  </g>
  <path id="パス_849" data-name="パス 849" d="M-26.64-6.552l-2.112-5.772q-.156-.384-.324-.912t-.336-1.14q-.156.612-.324,1.146t-.324.93l-2.1,5.748ZM-20.94,0h-2.5a1.065,1.065,0,0,1-.684-.21,1.308,1.308,0,0,1-.4-.522l-1.3-3.54H-33l-1.3,3.54a1.15,1.15,0,0,1-.372.5A1.038,1.038,0,0,1-35.352,0h-2.52l6.828-17.352h3.288ZM-9.912-9.708a1.477,1.477,0,0,1-.258.264.6.6,0,0,1-.366.1.815.815,0,0,1-.444-.138Q-11.2-9.624-11.5-9.8a3.858,3.858,0,0,0-.714-.312,3.281,3.281,0,0,0-1.026-.138,3.13,3.13,0,0,0-1.368.282,2.593,2.593,0,0,0-.978.81,3.65,3.65,0,0,0-.582,1.278,6.862,6.862,0,0,0-.192,1.7,6.657,6.657,0,0,0,.21,1.752,3.746,3.746,0,0,0,.606,1.29,2.608,2.608,0,0,0,.96.792,2.909,2.909,0,0,0,1.272.27,3.154,3.154,0,0,0,1.146-.174,3.616,3.616,0,0,0,.738-.384q.3-.21.522-.384a.787.787,0,0,1,.5-.174.6.6,0,0,1,.54.276l.852,1.08A5.359,5.359,0,0,1-10.08-.87a5.773,5.773,0,0,1-1.194.624,6.072,6.072,0,0,1-1.272.33,8.954,8.954,0,0,1-1.3.1A5.461,5.461,0,0,1-16-.246,5.074,5.074,0,0,1-17.76-1.488a5.931,5.931,0,0,1-1.194-2,7.719,7.719,0,0,1-.438-2.694A7.83,7.83,0,0,1-19-8.694a5.7,5.7,0,0,1,1.146-2,5.254,5.254,0,0,1,1.872-1.326,6.449,6.449,0,0,1,2.568-.48A6.109,6.109,0,0,1-11-12.06a5.908,5.908,0,0,1,1.866,1.272ZM6.456,0H3.492V-10.092H-2.22V-3.42a1.326,1.326,0,0,0,.282.9.973.973,0,0,0,.774.324A1.4,1.4,0,0,0-.7-2.262,2.543,2.543,0,0,0-.378-2.4q.138-.072.246-.138A.411.411,0,0,1,.084-2.6.339.339,0,0,1,.3-2.538a1,1,0,0,1,.18.2L1.368-.9A4.487,4.487,0,0,1-.12-.084,5.538,5.538,0,0,1-1.86.192,3.234,3.234,0,0,1-4.326-.714a3.492,3.492,0,0,1-.858-2.5v-6.876h-1.26a.578.578,0,0,1-.408-.156.608.608,0,0,1-.168-.468v-1.176l1.98-.336.624-3.348a.658.658,0,0,1,.228-.372.678.678,0,0,1,.432-.132H-2.22V-12.2H6.456Zm.516-15.948a1.729,1.729,0,0,1-.156.726,1.956,1.956,0,0,1-.414.594,1.96,1.96,0,0,1-.612.4,1.9,1.9,0,0,1-.75.15,1.746,1.746,0,0,1-.72-.15,1.944,1.944,0,0,1-.588-.4,1.923,1.923,0,0,1-.4-.594,1.788,1.788,0,0,1-.15-.726,1.817,1.817,0,0,1,.15-.738,2,2,0,0,1,.4-.6,1.892,1.892,0,0,1,.588-.408,1.746,1.746,0,0,1,.72-.15,1.9,1.9,0,0,1,.75.15,1.908,1.908,0,0,1,.612.408,2.034,2.034,0,0,1,.414.6A1.757,1.757,0,0,1,6.972-15.948ZM16.128-12.5a6.713,6.713,0,0,1,2.49.444,5.455,5.455,0,0,1,1.92,1.26,5.534,5.534,0,0,1,1.23,1.992A7.577,7.577,0,0,1,22.2-6.18a7.614,7.614,0,0,1-.432,2.64,5.655,5.655,0,0,1-1.23,2,5.376,5.376,0,0,1-1.92,1.272,6.713,6.713,0,0,1-2.49.444A6.794,6.794,0,0,1,13.62-.264a5.365,5.365,0,0,1-1.926-1.272,5.726,5.726,0,0,1-1.236-2,7.52,7.52,0,0,1-.438-2.64,7.483,7.483,0,0,1,.438-2.628A5.6,5.6,0,0,1,11.694-10.8a5.444,5.444,0,0,1,1.926-1.26A6.794,6.794,0,0,1,16.128-12.5Zm0,10.4A2.607,2.607,0,0,0,18.4-3.132a5.175,5.175,0,0,0,.738-3.024A5.234,5.234,0,0,0,18.4-9.192a2.6,2.6,0,0,0-2.274-1.044,2.647,2.647,0,0,0-2.31,1.05,5.174,5.174,0,0,0-.75,3.03,5.115,5.115,0,0,0,.75,3.018A2.659,2.659,0,0,0,16.128-2.1ZM28.44-10.8a8.018,8.018,0,0,1,.786-.69,4.966,4.966,0,0,1,.876-.54,4.909,4.909,0,0,1,.99-.348,4.96,4.96,0,0,1,1.152-.126,4.414,4.414,0,0,1,1.788.342,3.533,3.533,0,0,1,1.3.96,4.22,4.22,0,0,1,.792,1.476,6.273,6.273,0,0,1,.27,1.89V0H33.432V-7.836a2.651,2.651,0,0,0-.516-1.746,1.932,1.932,0,0,0-1.572-.618,3.086,3.086,0,0,0-1.44.348,5.161,5.161,0,0,0-1.272.948V0H25.668V-12.312H27.48a.728.728,0,0,1,.756.54Z" transform="translate(303 56.152)" fill="#0cb04b"/>
  <path id="パス_848" data-name="パス 848" d="M-87.438-20.488a39.941,39.941,0,0,0,5.772,8.268H-97.318a29.219,29.219,0,0,0,5.512-8.4l-2.574-.754a22.065,22.065,0,0,1-7.7,9.7,18.134,18.134,0,0,1,2.054,1.924,22.157,22.157,0,0,0,2.366-2.106v2h4.862c-.546,4.108-1.924,7.9-7.9,9.88a7.632,7.632,0,0,1,1.534,2.158c6.682-2.444,8.346-6.994,9-12.038h6.006c-.26,6.032-.6,8.476-1.2,9.1a1.394,1.394,0,0,1-1.118.364c-.6,0-2.08-.026-3.666-.182a5.546,5.546,0,0,1,.806,2.444,29.31,29.31,0,0,0,4.03,0A2.8,2.8,0,0,0-83.174.806c.884-1.014,1.248-4.03,1.586-11.908.026-.234.026-.78.026-1.014a23.748,23.748,0,0,0,2.184,2.132,13.3,13.3,0,0,1,2.028-2.158A28.788,28.788,0,0,1-85.1-21.424Zm19.318,2H-62.3v4.368H-68.12Zm2.652,9c.1-.832.156-1.664.208-2.5h5.3v-8.632H-70.33v8.632h2.7c-.234,4.524-.806,9.568-4.29,12.376a6.055,6.055,0,0,1,1.664,1.69c2.73-2.288,3.926-5.746,4.524-9.412h3.64C-62.3-2.652-62.556-.806-63-.338c-.182.26-.442.286-.858.286a26.19,26.19,0,0,1-2.782-.13,5,5,0,0,1,.676,2.132A19.613,19.613,0,0,0-62.816,1.9a2.221,2.221,0,0,0,1.768-.832c.7-.806.962-3.224,1.248-9.568.026-.312.026-.988.026-.988Zm10.166-9.2h-2.34V-4.342h2.34Zm3.874-2.6v20.28c0,.468-.182.624-.676.65-.52,0-2.158.026-3.926-.052a11.2,11.2,0,0,1,.858,2.47,15.217,15.217,0,0,0,4.888-.416c.91-.442,1.274-1.144,1.274-2.652v-20.28ZM-29.9-12.9A3.018,3.018,0,0,0-32.916-9.88,3.018,3.018,0,0,0-29.9-6.864,3.018,3.018,0,0,0-26.884-9.88,3.018,3.018,0,0,0-29.9-12.9Zm22.308-5.356v2.678c2.08.182,4.316.286,6.968.286,2.444,0,5.434-.156,7.228-.312v-2.7C4.68-18.1,1.9-17.94-.624-17.94A66.411,66.411,0,0,1-7.592-18.252ZM-6.058-7.54-8.736-7.8a15.926,15.926,0,0,0-.52,3.666c0,3.406,3.016,5.278,8.606,5.278A38.635,38.635,0,0,0,8.268.234l-.026-2.86A34.506,34.506,0,0,1-.728-1.612c-4,0-5.824-1.274-5.824-3.12A9.982,9.982,0,0,1-6.058-7.54ZM7.306-21.06l-1.69.7A26.483,26.483,0,0,1,7.7-16.744L9.412-17.5A37.677,37.677,0,0,0,7.306-21.06Zm2.964-1.092-1.664.7a27.2,27.2,0,0,1,2.132,3.588l1.69-.754A40.345,40.345,0,0,0,10.27-22.152Zm12.324,2.808.1,2.678c.65-.1,1.482-.182,2.028-.208,1.17-.052,3.952-.182,4.992-.208-.7,1.43-1.586,3.458-2.444,5.356-5.148.182-8.736,3.172-8.736,7.1A3.552,3.552,0,0,0,22.178-.78a4.034,4.034,0,0,0,3.614-2,52.641,52.641,0,0,0,3.12-6.578A18.259,18.259,0,0,1,35.8-7.1,11.183,11.183,0,0,1,29.068-.1L31.252,1.69a12.491,12.491,0,0,0,6.734-7.436q1.365.975,2.5,1.95l1.2-2.808c-.806-.572-1.794-1.222-2.964-1.9a43.743,43.743,0,0,0,.52-4.94l-2.7-.286a16.822,16.822,0,0,1,.026,2.574q-.039.7-.156,1.482A22.836,22.836,0,0,0,29.9-11.6c1.04-2.34,2.106-4.784,2.808-5.928a5.277,5.277,0,0,1,.78-.962l-1.638-1.3a5.924,5.924,0,0,1-1.508.312c-1.144.078-4.29.234-5.694.234A19.734,19.734,0,0,1,22.594-19.344ZM20.9-4.992c0-1.95,1.95-4.03,5.356-4.394a30.571,30.571,0,0,1-2.522,5.07,1.745,1.745,0,0,1-1.456.884A1.393,1.393,0,0,1,20.9-4.992ZM52.078-15.938A26.56,26.56,0,0,0,50.232-20.8l-2,.676a25.145,25.145,0,0,1,1.716,4.966Zm-.7,9.906V-8.216h6.318v2.184Zm6.318-6.448v2.21H51.376v-2.21Zm2.314-2.262H55.666v-7.072H53.274v7.072H49.088V1.846h2.288V-3.978h6.318V-.91c0,.364-.13.468-.494.494-.338,0-1.534,0-2.73-.052a8.841,8.841,0,0,1,.676,2.236,8.992,8.992,0,0,0,3.822-.416c.806-.338,1.04-1.04,1.04-2.21Zm-1.066-.494c.7-1.3,1.56-3.38,2.288-5.2l-2.444-.6a30.605,30.605,0,0,1-1.872,5.252Zm5.876-3.484h-2.34V-4.394h2.34Zm3.406-2.6V-.988c0,.468-.208.624-.676.624-.546.026-2.184.026-3.926-.052a11.837,11.837,0,0,1,.858,2.5,14.564,14.564,0,0,0,4.862-.468c.884-.39,1.274-1.092,1.274-2.6V-21.32Zm16.328,2.236a16.647,16.647,0,0,0-4.264-2.522L78.91-19.89a19.668,19.668,0,0,1,4.212,2.73ZM83.33-12.3a17.137,17.137,0,0,0-4.29-2.392l-1.352,1.768a17.925,17.925,0,0,1,4.238,2.574Zm-1.82,4A76.5,76.5,0,0,1,77.974.312L80.158,1.56a89.86,89.86,0,0,0,3.3-8.606Zm10.452-.182v3.432H89.44V-8.476Zm1.69,5.226V-10.3H87.776v8.554H89.44V-3.25Zm-.026-10.66H87.75v1.82h5.876Zm5.3.26A27.543,27.543,0,0,1,97.058-7.8c-.312-2.262-.546-4.966-.728-7.9H101.3v-2.132h-1.222l1.274-1.248a14.6,14.6,0,0,0-3.406-2.652l-1.3,1.222a16.538,16.538,0,0,1,3.25,2.678H96.226c-.052-1.222-.078-2.47-.1-3.718h-2.21c.026,1.274.078,2.522.13,3.718H84.63v7.02c0,3.51-.234,8.268-2.392,11.622a9.015,9.015,0,0,1,1.82,1.248c2.34-3.588,2.7-9.048,2.7-12.87V-15.7H94.12a80.16,80.16,0,0,0,1.2,11.05A16.189,16.189,0,0,1,90.142.286a13.312,13.312,0,0,1,1.612,1.586,19.5,19.5,0,0,0,4.238-3.9C96.8.52,97.89,1.976,99.4,2c.988.026,2.08-1.04,2.626-5.434a6.509,6.509,0,0,1-1.716-1.248c-.156,2.5-.468,3.848-.91,3.848-.65-.026-1.248-1.378-1.742-3.614a30.56,30.56,0,0,0,3.38-8.84Z" transform="translate(302 22.152)"/>
</svg>
