<svg xmlns="http://www.w3.org/2000/svg" width="327.432" height="26.236" viewBox="0 0 327.432 26.236">
  <path id="パス_839" data-name="パス 839" d="M-139.44-18.956l-2.212-2.072a14.44,14.44,0,0,1-2.856.252H-159.6a22.2,22.2,0,0,1-3.416-.28v3.892c1.316-.112,2.24-.2,3.416-.2h14.588a16.651,16.651,0,0,1-5.152,5.208l2.912,2.324a28.518,28.518,0,0,0,6.72-7.672A14.1,14.1,0,0,1-139.44-18.956Zm-11.424,3.78h-4.06a15.522,15.522,0,0,1,.2,2.52c0,4.592-.672,7.56-4.228,10.024a11.064,11.064,0,0,1-2.94,1.54l3.276,2.66C-151-2.52-150.864-8.232-150.864-15.176Zm30.128-6.664-4.088-1.344a13.471,13.471,0,0,1-1.26,2.94,24.654,24.654,0,0,1-8.736,9.016l3.136,2.324a31.915,31.915,0,0,0,7.056-6.776h7.868a19.9,19.9,0,0,1-3.976,7.644c-2.436,2.772-5.544,5.208-11.284,6.916l3.3,2.968a26.145,26.145,0,0,0,11.312-7.9,29.215,29.215,0,0,0,4.872-9.352,11.211,11.211,0,0,1,.924-2.016l-2.856-1.764a8.978,8.978,0,0,1-2.436.336h-5.628c.028-.056.056-.084.084-.14C-122.108-19.6-121.38-20.86-120.736-21.84Zm20.384.364v3.612c.868-.056,2.044-.112,3.024-.112H-86.1c.98,0,2.072.056,3.024.112v-3.612a21.936,21.936,0,0,1-3.024.2H-97.356A21.535,21.535,0,0,1-100.352-21.476Zm-3.248,7.168v3.668c.784-.056,1.848-.112,2.688-.112h7.7a12.033,12.033,0,0,1-1.736,6.188,11.631,11.631,0,0,1-5.068,4l3.276,2.38a13.435,13.435,0,0,0,5.628-5.376,17.763,17.763,0,0,0,1.792-7.2h6.748c.784,0,1.848.028,2.548.084v-3.64a21.175,21.175,0,0,1-2.548.168h-18.34C-101.78-14.14-102.76-14.224-103.6-14.308ZM-73.864-7.98l1.652,3.3a58.413,58.413,0,0,0,8.036-3.276V-.56c0,.98-.084,2.464-.14,3.024h4.144a15.589,15.589,0,0,1-.2-3.024v-9.6a36.7,36.7,0,0,0,6.272-5.1l-2.772-2.716a29.172,29.172,0,0,1-6.972,5.992A36.973,36.973,0,0,1-73.864-7.98ZM-26.208-19.4-28.644-18.4A25.392,25.392,0,0,1-26.1-13.832l2.52-1.092A41.748,41.748,0,0,0-26.208-19.4Zm3.752-1.54-2.408,1.092A29.294,29.294,0,0,1-22.176-15.4l2.436-1.176A40.755,40.755,0,0,0-22.456-20.944ZM-45.08-7.98l3.36,3.472c.5-.728,1.176-1.708,1.82-2.6,1.12-1.512,3.108-4.284,4.2-5.684.812-1.008,1.4-1.064,2.3-.168,1.008,1.036,3.5,3.752,5.124,5.684,1.652,1.932,4.032,4.816,5.908,7.14l3.08-3.3c-2.156-2.3-5.012-5.4-6.888-7.392-1.68-1.82-3.836-4.06-5.712-5.824-2.184-2.044-3.836-1.736-5.488.224-1.932,2.3-4.116,5.04-5.376,6.328A31.511,31.511,0,0,1-45.08-7.98Zm32.4-4.984v4.4c1.036-.084,2.912-.14,4.508-.14H6.86c1.176,0,2.6.112,3.276.14v-4.4c-.728.056-1.96.168-3.276.168H-8.176C-9.632-12.8-11.676-12.88-12.684-12.964Zm36.316-9.212L21.588-19.1c1.848,1.036,4.76,2.94,6.328,4.032l2.1-3.108C28.56-19.18,25.48-21.168,23.632-22.176ZM18.424-2.3l2.1,3.7a34.071,34.071,0,0,0,9.352-3.472A33.808,33.808,0,0,0,41.02-12.124l-2.156-3.808a28.543,28.543,0,0,1-10.892,10.5A30.339,30.339,0,0,1,18.424-2.3Zm.9-13.5-2.044,3.108c1.876.98,4.788,2.884,6.384,3.976L25.7-11.844C24.276-12.852,21.2-14.784,19.32-15.792Zm32.424-.028v3.388c.672-.056,2.436-.112,3.472-.112h9.24v3.388H55.524c-1.064,0-2.324-.028-3.052-.084v3.3c.644-.028,1.988-.056,3.052-.056h8.932v3.724H53.872a24.026,24.026,0,0,1-2.436-.112V1.064C51.912,1.036,53.06.98,53.844.98H64.456c0,.42,0,.868-.028,1.12h3.528c0-.5-.028-1.456-.028-1.9V-13.86c0-.588,0-1.512.028-1.876-.448.028-1.484.056-2.156.056H55.216C54.18-15.68,52.472-15.736,51.744-15.82Zm31.584-5.46L80.7-18.48a58.218,58.218,0,0,1,7,6.048l2.856-2.912A56.551,56.551,0,0,0,83.328-21.28Zm-3.5,18.648,2.352,3.7A30.323,30.323,0,0,0,92.568-2.884a29.774,29.774,0,0,0,10.36-10.36l-2.184-3.948A26.365,26.365,0,0,1,90.552-6.3,28.859,28.859,0,0,1,79.828-2.632Zm48.188-1.4h-5.04V-5.348h5.04ZM122.976-9.1h5.04v1.2h-5.04Zm-7.784-5.572v-1.344h4.4v1.344Zm12.32-1.344v1.344h-4.536v-1.344Zm6.8,8.12H131.4V-11.34h-8.428v-1.232h7.952v-5.544h-7.952v-1.148h10.7V-21.9h-10.7v-1.82h-3.388v1.82H109.144v2.632h10.444v1.148H112v5.544h7.588v1.232H111.3V-9.1h8.288v1.2H108.5v2.548h11.088v1.316h-8.512v2.408h8.512v.868c0,.5-.168.672-.7.7-.448,0-2.1,0-3.444-.056a10.265,10.265,0,0,1,1.092,2.632,14.746,14.746,0,0,0,4.956-.476c1.092-.476,1.484-1.148,1.484-2.8v-.868h5.04V-.476H131.4V-5.348h2.912Zm10.64-9.212c.728-1.6,1.4-3.22,1.96-4.844v2.38h1.848c-.56,3.836-1.68,8.2-3.808,10.892Zm8.008,3.444a34.651,34.651,0,0,1-.952,4.284,22.455,22.455,0,0,0-2.324-1.848c.308-.784.588-1.6.868-2.436ZM159.572-4.2V-20.5h-2.744v-1.988h-9.716l.084-.28-3.08-.924a31.307,31.307,0,0,1-5.544,10.78,23.164,23.164,0,0,1,1.6,3.584,22.337,22.337,0,0,0,1.736-2.3V2.408h3.052V-8.484a17.039,17.039,0,0,1,1.848,2.24A12.962,12.962,0,0,0,148.428-8.6a19.445,19.445,0,0,1,2.436,2.3,14.525,14.525,0,0,1-4.9,6.188,11.613,11.613,0,0,1,2.072,2.548c4.284-3.136,7.224-9.464,8.232-18.508l-1.932-.588-.532.112h-2.492c.224-1.008.42-2.044.616-3.024h4.7V-4.2Zm1.764-18.984V-1.372c0,.476-.168.588-.616.616-.5.028-1.932.028-3.444-.056a12.564,12.564,0,0,1,1.008,3.276c2.212,0,3.78-.112,4.788-.644,1.036-.532,1.344-1.4,1.344-3.164v-21.84Z" transform="translate(163.016 23.716)" fill="#0077c0"/>
</svg>
