<svg id="コンポーネント_25_1" data-name="コンポーネント 25 – 1" xmlns="http://www.w3.org/2000/svg" width="298.376" height="64.936" viewBox="0 0 298.376 64.936">
  <path id="パス_821" data-name="パス 821" d="M-129.732-8.816v-3.648c.228.228.38.418.532.57a24.1,24.1,0,0,0,1.748-2.736,40.229,40.229,0,0,0,2.584,7.486,18.667,18.667,0,0,1-6.688,5.738A35.394,35.394,0,0,0-134.71-3.42a15.358,15.358,0,0,0,2.014-5.4Zm-10.906,0h3.686A11.554,11.554,0,0,1-138.4-5.358c-1.1-.532-2.2-.988-3.344-1.444Zm20.444-12.35a40.66,40.66,0,0,1-2.052,8.93,47.948,47.948,0,0,1-2.318-8.93Zm6.8,0v-4.18H-123.5c.494-2.014.912-4.1,1.216-6.232l-4.56-.608c-.912,6.764-2.736,13.224-5.966,17.1a26.347,26.347,0,0,1,3.078,2.622h-9.044l.912-1.824-1.634-.342h2.432v-4.6c1.482,1.178,3.078,2.508,3.914,3.306l2.394-3.116c-.836-.57-3.534-2.166-5.358-3.192h6.232V-25.8h-3.61c.912-1.178,2.09-2.774,3.268-4.408l-3.8-1.52a36.7,36.7,0,0,1-2.546,4.826l2.508,1.1h-3v-6.384h-4.142V-25.8H-144.4l2.432-1.064a16.19,16.19,0,0,0-2.28-4.712l-3.268,1.368A20.243,20.243,0,0,1-145.54-25.8h-2.888v3.572h5.928a20.187,20.187,0,0,1-6.688,4.75,13.671,13.671,0,0,1,2.28,3.268,27.388,27.388,0,0,0,5.7-4.408v3.648l-.836-.19c-.38.836-.836,1.748-1.292,2.7h-5.51v3.648h3.61c-.95,1.824-1.9,3.534-2.736,4.864l3.952,1.216.418-.722a21.913,21.913,0,0,1,2.128,1.026,19.968,19.968,0,0,1-7.22,2.052,9.982,9.982,0,0,1,1.786,3.724c4.066-.836,7.106-1.938,9.348-3.61a36.013,36.013,0,0,1,3.952,2.85L-131.9.836a17.159,17.159,0,0,1,1.444,2.584,24.681,24.681,0,0,0,8.018-6.232,20.625,20.625,0,0,0,6.384,6.042,17.449,17.449,0,0,1,3.116-3.914,17.835,17.835,0,0,1-6.726-6.308,42.759,42.759,0,0,0,4.142-14.174Zm14.1-3.154h23.522v5.586H-71.1v-9.8H-85.082v-3.648H-89.87v3.648h-13.908v9.8h4.484Zm28.5,12.426h-14.25v-.3A35.78,35.78,0,0,0-76.8-19.266l-2.888-2.2-1.064.228H-97.432v4.1H-84.74a26.985,26.985,0,0,1-3.458,2.85h-1.634v2.394h-14.06V-7.6h14.06v5.586c0,.532-.228.684-.988.684-.76.038-3.61,0-5.928-.076A18.323,18.323,0,0,1-94.772,3.23c3.116,0,5.548-.076,7.334-.76,1.862-.722,2.394-1.9,2.394-4.37V-7.6h14.25Zm10.716-14.174.494,5.206c4.408-.95,12.16-1.786,15.732-2.166a15.2,15.2,0,0,0-5.662,11.742c0,8.246,7.524,12.5,15.5,13.034l1.786-5.206c-6.46-.342-12.312-2.584-12.312-8.854a11.548,11.548,0,0,1,8.056-10.64,39.477,39.477,0,0,1,7.334-.532l-.038-4.864c-2.7.114-6.84.342-10.754.684-6.954.57-13.224,1.14-16.416,1.406C-57.076-26.182-58.558-26.106-60.078-26.068Zm25.5,6.308-2.812,1.178A29.319,29.319,0,0,1-34.428-13.3l2.888-1.292A47.166,47.166,0,0,0-34.58-19.76Zm4.256-1.748L-33.1-20.216a33.429,33.429,0,0,1,3.116,5.13l2.85-1.368A56.84,56.84,0,0,0-30.324-21.508Zm22.382,6.5H7.942v2.356H-7.942Zm0-6.042H7.942V-18.7H-7.942Zm0-6H7.942V-24.7H-7.942ZM8.018-1.292c-1.444,0-1.672-.152-1.672-1.368V-8.7H12.54V-31.008H-12.312V-8.7h4.636C-8.322-4.56-9.956-2.014-17.746-.57a14.321,14.321,0,0,1,2.508,4.028C-5.852,1.33-3.61-2.66-2.812-8.7h4.6v6.08C1.786,1.634,2.85,3,7.372,3h5.016c3.762,0,4.94-1.558,5.434-7.562A14.393,14.393,0,0,1,13.68-6.346c-.19,4.408-.418,5.054-1.71,5.054Zm31.5-3.192c0-.95.912-1.824,2.356-1.824,2.052,0,3.458,1.6,3.686,4.066a19.838,19.838,0,0,1-2.2.114C41.078-2.128,39.52-3.078,39.52-4.484ZM33.06-28.956l.152,4.94c.874-.114,2.09-.228,3.116-.3,2.014-.114,7.258-.342,9.2-.38-1.862,1.634-5.814,4.826-7.942,6.574-2.242,1.862-6.84,5.738-9.538,7.9L31.5-6.65c4.066-4.636,7.866-7.714,13.68-7.714,4.484,0,7.9,2.318,7.9,5.738a5.507,5.507,0,0,1-3.154,5.168c-.532-3.61-3.382-6.5-8.094-6.5-4.028,0-6.8,2.85-6.8,5.928,0,3.8,3.99,6.232,9.272,6.232,9.2,0,13.756-4.75,13.756-10.754,0-5.548-4.9-9.576-11.362-9.576a14.844,14.844,0,0,0-3.61.418c2.394-1.9,6.384-5.244,8.436-6.688.874-.646,1.786-1.178,2.66-1.748l-2.47-3.382a16.6,16.6,0,0,1-2.888.418c-2.166.19-10.3.342-12.312.342A26.37,26.37,0,0,1,33.06-28.956Zm40.926,6.384a17.584,17.584,0,0,1-4.864,7.03,31.508,31.508,0,0,1,3.42,2.7,24.97,24.97,0,0,0,5.624-8.664ZM87.058-4.712a33.937,33.937,0,0,0-4.066-4.256,34.521,34.521,0,0,0,2.242-5.548l.152.418,3.762-2.014a27.47,27.47,0,0,0-4.484-6.954l-3.5,1.748A30.8,30.8,0,0,1,84.816-15.5l-3.762-.8a31.146,31.146,0,0,1-1.52,4.37c-1.292-1.026-2.584-2.014-3.8-2.888l-2.546,3.154c1.368,1.064,2.85,2.28,4.294,3.572A22.2,22.2,0,0,1,69.274-.38a24.316,24.316,0,0,1,3.04,3.61A28.57,28.57,0,0,0,80.75-5.016a29.825,29.825,0,0,1,3.458,3.99Zm9.386-19.152c.038-2.508.076-5.13.076-7.828H92.188c0,2.736,0,5.358-.038,7.828H88.73v-3.572H81.776V-32H77.368v4.56H70.224v4.028h18.24v3.838h3.572c-.38,8.512-1.748,15.238-6.8,19.722A13.73,13.73,0,0,1,88.426,3.42C94.164-1.824,95.8-9.8,96.292-19.57H99.94c-.228,12.236-.57,16.872-1.368,17.9a1.4,1.4,0,0,1-1.33.646c-.722,0-2.28-.038-3.99-.152A10.427,10.427,0,0,1,94.544,3.04a26.8,26.8,0,0,0,4.826-.152,3.84,3.84,0,0,0,2.964-1.862c1.254-1.71,1.558-7.258,1.862-22.876.038-.57.038-2.014.038-2.014Zm26.22,5.548v-2.432h6.118v2.432Zm0-8.36h6.118v2.432h-6.118Zm16.948,2.432H133.57v-2.432h6.042Zm0,5.928H133.57v-2.432h6.042ZM148.086-8.17v-4.142H133.57v-2.242h11.02V-30.438H117.914v15.884h10.868v2.242H114.228V-8.17h11.248A34.066,34.066,0,0,1,113.05-1.482a23.432,23.432,0,0,1,3.078,3.762,36.49,36.49,0,0,0,12.654-8.132V3.306h4.788V-6.042a38.126,38.126,0,0,0,12.578,8.094,18.264,18.264,0,0,1,3.04-3.838A37.237,37.237,0,0,1,136.876-8.17Z" transform="translate(149.188 32.186)" fill="#0077c0"/>
  <path id="パス_72" data-name="パス 72" d="M0,0H68" transform="translate(115.188 64.186)" fill="none" stroke="#1b66a2" stroke-width="1.5"/>
</svg>
