<svg id="コンポーネント_20_1" data-name="コンポーネント 20 – 1" xmlns="http://www.w3.org/2000/svg" xmlns:xlink="http://www.w3.org/1999/xlink" width="300.384" height="415.016" viewBox="0 0 300.384 415.016">
  <defs>
    <clipPath id="clip-path">
      <rect id="長方形_147" data-name="長方形 147" width="24.318" height="31.266" transform="translate(0 0)" fill="#0077c0"/>
    </clipPath>
    <clipPath id="clip-path-2">
      <path id="パス_764" data-name="パス 764" d="M9990.46,6308.2s-23.538,24.263-1.821,41.29-61.1.994-61.1.994l-5.521-18.47,12.417-38.187h37.978l18.047,6.663Z" transform="translate(-9922.019 -6293.83)" fill="#fff"/>
    </clipPath>
    <clipPath id="clip-path-3">
      <path id="パス_780" data-name="パス 780" d="M9984.615,6308.354s-11.149,13.912,10.568,30.939-67.645,11.194-67.645,11.194l-5.521-18.47,12.417-38.187h37.978l-6.264,10.052Z" transform="translate(-9922.019 -6293.83)" fill="#fff"/>
    </clipPath>
  </defs>
  <g id="グループ_670" data-name="グループ 670" transform="translate(34 125.734)">
    <g id="マスクグループ_10" data-name="マスクグループ 10" transform="translate(155.463 0)" clip-path="url(#clip-path)">
      <path id="パス_99" data-name="パス 99" d="M0,18.846,11.335,0,22.347,19.6" transform="translate(15.826 4.65) rotate(90)" fill="none" stroke="#000" stroke-width="7"/>
    </g>
    <rect id="長方形_146" data-name="長方形 146" width="38.463" height="6.948" transform="translate(117 12.159)"/>
  </g>
  <line id="線_40" data-name="線 40" y2="380" transform="translate(234)" fill="none" stroke="#000" stroke-width="4" stroke-dasharray="13"/>
  <path id="パス_836" data-name="パス 836" d="M-53.112-18.912a36.869,36.869,0,0,0,5.328,7.632H-62.232a26.971,26.971,0,0,0,5.088-7.752l-2.376-.7a20.368,20.368,0,0,1-7.1,8.952A16.738,16.738,0,0,1-64.728-9a20.453,20.453,0,0,0,2.184-1.944V-9.1h4.488c-.5,3.792-1.776,7.3-7.3,9.12a7.045,7.045,0,0,1,1.416,1.992c6.168-2.256,7.7-6.456,8.3-11.112h5.544c-.24,5.568-.552,7.824-1.1,8.4a1.287,1.287,0,0,1-1.032.336c-.552,0-1.92-.024-3.384-.168a5.119,5.119,0,0,1,.744,2.256,27.055,27.055,0,0,0,3.72,0A2.587,2.587,0,0,0-49.176.744c.816-.936,1.152-3.72,1.464-10.992.024-.216.024-.72.024-.936a21.921,21.921,0,0,0,2.016,1.968A12.275,12.275,0,0,1-43.8-11.208a26.574,26.574,0,0,1-7.152-8.568Zm17.832,1.848H-29.9v4.032H-35.28Zm2.448,8.3c.1-.768.144-1.536.192-2.3h4.9v-7.968H-37.32v7.968h2.5c-.216,4.176-.744,8.832-3.96,11.424a5.589,5.589,0,0,1,1.536,1.56c2.52-2.112,3.624-5.3,4.176-8.688h3.36c-.192,4.32-.432,6.024-.84,6.456-.168.24-.408.264-.792.264a24.175,24.175,0,0,1-2.568-.12A4.612,4.612,0,0,1-33.288,1.8a18.1,18.1,0,0,0,2.9-.048A2.051,2.051,0,0,0-28.752.984c.648-.744.888-2.976,1.152-8.832.024-.288.024-.912.024-.912Zm9.384-8.5h-2.16V-4.008h2.16Zm3.576-2.4V-.936c0,.432-.168.576-.624.6-.48,0-1.992.024-3.624-.048a10.335,10.335,0,0,1,.792,2.28,14.046,14.046,0,0,0,4.512-.384C-17.976,1.1-17.64.456-17.64-.936v-18.72Zm9.96,13.224A17.686,17.686,0,0,1-11.28-.816,12.405,12.405,0,0,1-9.576,0a21.084,21.084,0,0,0,1.56-6.1Zm5.256.456A26.743,26.743,0,0,1-3.168-1.3l1.776-.648a27.281,27.281,0,0,0-1.56-4.584Zm10.1,4.2V-8.064h2.76v6.288ZM.888-8.064H3.48v6.288H.888ZM3.48-16.2v6.1H.888v-6.1Zm4.728,6.1H5.448v-6.1h2.76Zm-9.336-8.184V-8.016a22.3,22.3,0,0,0-2.28-4.536l-1.656.72q.468.792.936,1.656l-3.048.216c1.56-1.968,3.288-4.44,4.608-6.5l-1.872-.888a41.122,41.122,0,0,1-2.472,4.2,13.982,13.982,0,0,0-1.176-1.392c.864-1.344,1.872-3.216,2.736-4.848l-1.992-.768a33.355,33.355,0,0,1-1.992,4.392c-.24-.216-.456-.408-.672-.6l-1.08,1.488A23.232,23.232,0,0,1-8.04-11.472c-.432.6-.84,1.152-1.248,1.656-.7.048-1.344.1-1.9.12L-10.9-7.7c1.1-.1,2.376-.216,3.72-.36V1.848h1.992v-10.1l1.848-.192a15.026,15.026,0,0,1,.552,1.68l1.656-.792V1.56H.888V.288h7.32v1.08H10.3V-18.288Zm30.816-.624a36.869,36.869,0,0,0,5.328,7.632H20.568a26.971,26.971,0,0,0,5.088-7.752l-2.376-.7a20.368,20.368,0,0,1-7.1,8.952A16.739,16.739,0,0,1,18.072-9a20.453,20.453,0,0,0,2.184-1.944V-9.1h4.488c-.5,3.792-1.776,7.3-7.3,9.12a7.045,7.045,0,0,1,1.416,1.992c6.168-2.256,7.7-6.456,8.3-11.112h5.544c-.24,5.568-.552,7.824-1.1,8.4a1.287,1.287,0,0,1-1.032.336c-.552,0-1.92-.024-3.384-.168a5.119,5.119,0,0,1,.744,2.256,27.055,27.055,0,0,0,3.72,0A2.587,2.587,0,0,0,33.624.744c.816-.936,1.152-3.72,1.464-10.992.024-.216.024-.72.024-.936a21.921,21.921,0,0,0,2.016,1.968A12.275,12.275,0,0,1,39-11.208a26.574,26.574,0,0,1-7.152-8.568Zm20.784-.864A26.074,26.074,0,0,1,43.7-10.3a15.318,15.318,0,0,1,1.344,2.328,26.319,26.319,0,0,0,2.784-3.024V1.848h2.232V-14.136a34.467,34.467,0,0,0,2.592-4.92ZM58.512-.528c-1.248,0-1.488-.24-1.488-1.608V-8.688a58.135,58.135,0,0,0,8.28-4.968L63.7-15.6a38.055,38.055,0,0,1-6.672,4.632V-19.56H54.792v17.4c0,2.9.792,3.72,3.5,3.72h4.536c2.616,0,3.264-1.416,3.552-5.4A6.571,6.571,0,0,1,64.3-4.8c-.192,3.432-.36,4.272-1.608,4.272Z" transform="translate(234 413)"/>
  <g id="グループ_960" data-name="グループ 960" transform="translate(-524 -2760.633)">
    <g id="楕円形_59" data-name="楕円形 59" transform="translate(524 2826)" fill="#fff" stroke="#000" stroke-width="2">
      <circle cx="71" cy="71" r="71" stroke="none"/>
      <circle cx="71" cy="71" r="70" fill="none"/>
    </g>
    <path id="パス_830" data-name="パス 830" d="M-22.308-6.032h-3.51V-8.814h3.51Zm4.16-2.782v-.13A13.746,13.746,0,0,0-15.262-7.15,9.365,9.365,0,0,1-13.754-9,12.853,12.853,0,0,1-17.238-11.1a22.968,22.968,0,0,0,2.964-2.028l-1.612-1.2a32.008,32.008,0,0,1-2.652,1.976c-.416-.442-.78-.91-1.144-1.378a16.557,16.557,0,0,0,2.964-2.158L-18.3-17a26.333,26.333,0,0,1-2.262,1.846,13.85,13.85,0,0,1-1.014-2.184l-1.976.572A19.431,19.431,0,0,0-20.1-10.842h-7.644a15.836,15.836,0,0,0,2.964-5.174l-1.378-.65-.39.1h-5.46v1.82h4.472a12.936,12.936,0,0,1-1.43,2.158,25.125,25.125,0,0,0-2.47-1.612l-1.274,1.326a22.479,22.479,0,0,1,2.392,1.742,14.14,14.14,0,0,1-3.536,2.392c.026-.91.052-1.768.052-2.548v-6.474h19.292v-2.054h-9.464v-2h-2.522v2h-9.542v8.528c0,3.614-.182,8.476-2.184,11.882A8.876,8.876,0,0,1-36.374,2c1.768-2.886,2.34-7.02,2.522-10.582A9.76,9.76,0,0,1-32.63-6.968,17.024,17.024,0,0,0-29.8-8.814h1.742v2.782h-4.524v2.054h4.342C-28.652-2.262-29.9-.7-33.566.39a8.238,8.238,0,0,1,1.4,1.768c4.5-1.43,5.876-3.666,6.24-6.136h3.614V-.884c0,2.21.52,2.86,2.7,2.86h2.626c1.768,0,2.34-.832,2.574-3.822A6.122,6.122,0,0,1-16.432-2.7c-.052,2.262-.182,2.678-.78,2.678H-19.24c-.65,0-.78-.13-.78-.884V-3.978h4.732V-6.032H-20.02V-8.814Zm21.684-9.23-.884.676c.7.312,1.456.7,2.184,1.118-2.912.052-5.8.078-8.45.13.494-.6,1.014-1.274,1.508-1.924ZM-10.4-16.068l.1,2c4.6-.1,11.388-.338,17.836-.572.624.39,1.2.806,1.638,1.144l1.586-1.352a38.052,38.052,0,0,0-5.434-3.2h6.214v-1.924H1.274v-1.846h-2.5v1.846h-10.14v1.924h6.474c-.416.65-.91,1.352-1.378,1.95Zm5.018,5.8h4.16v1.638h-4.16Zm10.686,0v1.638H1.092V-10.27Zm6.162,6.734v-1.95H1.17V-6.838H7.644V-10.27h3.822v-1.846H7.644v-1.508H5.3v1.508H1.092v-1.69H-1.222v1.69h-4.16v-1.508h-2.21v1.508h-3.822v1.846h3.822v3.432h6.318v1.352h-10.14v1.95h7.93a26.086,26.086,0,0,1-8.5,3.51,9.344,9.344,0,0,1,1.508,1.872,25.084,25.084,0,0,0,9.2-4.862V2.028H1.17V-2.964A26.411,26.411,0,0,0,10.5,1.768a9.047,9.047,0,0,1,1.56-1.924,26.876,26.876,0,0,1-8.658-3.38ZM23.66-10.374l-2.73.78v-4.784h2.418v-2.288H20.93v-5.148H18.694v5.148H17.056c.156-1.092.286-2.21.416-3.328l-2.054-.338a30.081,30.081,0,0,1-1.638,8.476,14.567,14.567,0,0,1,1.768,1.092,25.47,25.47,0,0,0,1.066-3.614h2.08v5.46c-1.768.494-3.406.936-4.706,1.274l.624,2.314,4.082-1.248V2.028H20.93V-7.28c1.014-.312,2.028-.624,3.042-.962Zm4.16-7.254c.39-1.2.78-2.47,1.066-3.77L26.7-21.814c-.858,3.848-2.34,7.54-4.446,9.828a18.381,18.381,0,0,1,1.872,1.378,19.513,19.513,0,0,0,2.808-4.784h1.846c-1.2,4-3.328,8.112-6.006,10.192a8.727,8.727,0,0,1,1.872,1.378c2.756-2.444,5.018-7.2,6.162-11.57h1.742C31.252-9.1,28.522-2.886,24.336.1a10.963,10.963,0,0,1,2,1.43c4.212-3.38,6.994-10.218,8.32-16.926h.728c-.468,9.88-1.014,13.572-1.768,14.43a1,1,0,0,1-.936.468c-.494,0-1.456,0-2.548-.1a5.715,5.715,0,0,1,.676,2.366,15.011,15.011,0,0,0,2.938-.052,2.454,2.454,0,0,0,1.9-1.144C36.66-.7,37.154-4.81,37.726-16.484c.026-.312.026-1.144.026-1.144Z" transform="translate(596 2912)"/>
    <rect id="長方形_355" data-name="長方形 355" width="112" height="46" transform="translate(539 2822)" fill="#fff"/>
  </g>
  <g id="グループ_1126" data-name="グループ 1126" transform="translate(-706.584 -3135.033)">
    <g id="マスクグループ_133" data-name="マスクグループ 133" transform="translate(722.018 3177.721)" clip-path="url(#clip-path-2)">
      <g id="グループ_1118" data-name="グループ 1118" transform="translate(5.316 3.931)">
        <g id="グループ_1116" data-name="グループ 1116" transform="translate(0)">
          <path id="パス_757" data-name="パス 757" d="M404.668,173.5c-5.26,1.432-15.879,6.27-19.6,22.3-5.03,21.643,19.081,22.234,22.631,22.234s31.212-1.228,22.041-23.025c-6.62-15.733-13.471-20.187-17.995-21.5" transform="translate(-384.379 -165.788)" fill="none" stroke="#000" stroke-linejoin="round" stroke-width="1.2"/>
          <ellipse id="楕円形_95" data-name="楕円形 95" cx="3.846" cy="3.039" rx="3.846" ry="3.039" transform="translate(19.982 3.484)" fill="none" stroke="#000" stroke-linejoin="round" stroke-width="1.2"/>
          <path id="パス_758" data-name="パス 758" d="M405.575,170.224a8.437,8.437,0,0,0-8.189-4.992c-6.144.233-1.386,7.937,6.618,8.121" transform="translate(-385.073 -165.225)" fill="none" stroke="#000" stroke-linejoin="round" stroke-width="1.2"/>
          <path id="パス_759" data-name="パス 759" d="M413.5,170.293a9.413,9.413,0,0,1,7.568-3.846c4.955.074,2.856,5.884-5.821,7.12" transform="translate(-386.359 -165.308)" fill="none" stroke="#000" stroke-linejoin="round" stroke-width="1.2"/>
        </g>
        <g id="グループ_1117" data-name="グループ 1117" transform="translate(39.478 4.569)">
          <path id="パス_760" data-name="パス 760" d="M435.037,210.165a15.706,15.706,0,0,0,2.769.137c2.7,0,23.744-.935,16.767-17.517-5.036-11.969-10.249-15.356-13.69-16.357" transform="translate(-427.303 -170.555)" fill="none" stroke="#000" stroke-linejoin="round" stroke-width="1.2"/>
          <path id="パス_761" data-name="パス 761" d="M434.96,176.424a17.081,17.081,0,0,0-7.884,4.509" transform="translate(-426.761 -170.555)" fill="none" stroke="#000" stroke-linejoin="round" stroke-width="1.2"/>
          <ellipse id="楕円形_96" data-name="楕円形 96" cx="2.926" cy="2.312" rx="2.926" ry="2.312" transform="translate(7.965 2.65)" fill="none" stroke="#000" stroke-linejoin="round" stroke-width="1.2"/>
          <path id="パス_762" data-name="パス 762" d="M435.1,173.93a6.418,6.418,0,0,0-6.23-3.8c-4.673.177-1.053,6.038,5.035,6.178" transform="translate(-426.738 -170.127)" fill="none" stroke="#000" stroke-linejoin="round" stroke-width="1.2"/>
          <path id="パス_763" data-name="パス 763" d="M441.128,173.982a7.161,7.161,0,0,1,5.757-2.926c3.77.057,2.172,4.476-4.428,5.418" transform="translate(-427.717 -170.19)" fill="none" stroke="#000" stroke-linejoin="round" stroke-width="1.2"/>
        </g>
        <rect id="長方形_375" data-name="長方形 375" width="19.388" height="9.565" transform="translate(14.134 19.789)" stroke="#000" stroke-linejoin="round" stroke-width="1.2"/>
        <line id="線_191" data-name="線 191" x1="3.44" y2="3.645" transform="translate(18.246 9.047)" fill="#97ba3b" stroke="#000" stroke-linejoin="round" stroke-width="1.2"/>
        <line id="線_192" data-name="線 192" x2="1.767" y2="2.538" transform="translate(25.375 9.305)" fill="#97ba3b" stroke="#000" stroke-linejoin="round" stroke-width="1.2"/>
        <line id="線_193" data-name="線 193" x2="2.834" y2="3.929" transform="translate(51.859 11.843)" fill="#97ba3b" stroke="#000" stroke-linejoin="round" stroke-width="1.2"/>
        <line id="線_194" data-name="線 194" x1="0.945" y2="2.354" transform="translate(48.395 11.843)" fill="#97ba3b" stroke="#000" stroke-linejoin="round" stroke-width="1.2"/>
      </g>
    </g>
    <g id="マスクグループ_135" data-name="マスクグループ 135" transform="translate(777.576 3177.721)" clip-path="url(#clip-path-3)">
      <g id="グループ_1124" data-name="グループ 1124" transform="translate(5.316 3.931)">
        <g id="グループ_1122" data-name="グループ 1122" transform="translate(0)">
          <path id="パス_773" data-name="パス 773" d="M404.668,173.5c-5.26,1.432-15.879,6.27-19.6,22.3-5.03,21.643,19.081,22.234,22.631,22.234s31.212-1.228,22.041-23.025c-6.62-15.733-13.471-20.187-17.995-21.5" transform="translate(-384.379 -165.788)" fill="none" stroke="#000" stroke-linejoin="round" stroke-width="1.2"/>
          <ellipse id="楕円形_99" data-name="楕円形 99" cx="3.846" cy="3.039" rx="3.846" ry="3.039" transform="translate(19.982 3.484)" fill="none" stroke="#000" stroke-linejoin="round" stroke-width="1.2"/>
          <path id="パス_774" data-name="パス 774" d="M405.575,170.224a8.437,8.437,0,0,0-8.189-4.992c-6.144.233-1.386,7.937,6.618,8.121" transform="translate(-385.073 -165.225)" fill="none" stroke="#000" stroke-linejoin="round" stroke-width="1.2"/>
          <path id="パス_775" data-name="パス 775" d="M413.5,170.293a9.413,9.413,0,0,1,7.568-3.846c4.955.074,2.856,5.884-5.821,7.12" transform="translate(-386.359 -165.308)" fill="none" stroke="#000" stroke-linejoin="round" stroke-width="1.2"/>
        </g>
        <rect id="長方形_377" data-name="長方形 377" width="19.388" height="9.565" transform="translate(14.134 19.789)" stroke="#000" stroke-linejoin="round" stroke-width="1.2"/>
        <line id="線_199" data-name="線 199" x1="3.44" y2="3.645" transform="translate(18.246 9.047)" fill="#97ba3b" stroke="#000" stroke-linejoin="round" stroke-width="1.2"/>
        <line id="線_200" data-name="線 200" x2="1.767" y2="2.538" transform="translate(25.375 9.305)" fill="#97ba3b" stroke="#000" stroke-linejoin="round" stroke-width="1.2"/>
      </g>
    </g>
  </g>
</svg>
