<svg id="コンポーネント_22_1" data-name="コンポーネント 22 – 1" xmlns="http://www.w3.org/2000/svg" xmlns:xlink="http://www.w3.org/1999/xlink" width="337.781" height="324.986" viewBox="0 0 337.781 324.986">
  <defs>
    <clipPath id="clip-path">
      <rect id="長方形_147" data-name="長方形 147" width="24.318" height="31.266" transform="translate(0 0)" fill="#0077c0"/>
    </clipPath>
    <clipPath id="clip-path-5">
      <path id="パス_418" data-name="パス 418" d="M10102.275,6278.65l-26.462,10.669,61.071,1.072-3-12.848Z" transform="translate(-10075.813 -6277.544)" fill="#fff"/>
    </clipPath>
    <clipPath id="clip-path-6">
      <path id="パス_772" data-name="パス 772" d="M9972.441,6304.419s-17.342,17.876-1.342,30.42-45.014.732-45.014.732l-4.068-13.607,9.148-28.135h27.98l13.295,4.909Z" transform="translate(-9922.018 -6293.83)" fill="#fff"/>
    </clipPath>
  </defs>
  <g id="コンポーネント_21_1" data-name="コンポーネント 21 – 1">
    <path id="パス_837" data-name="パス 837" d="M8,0H212a8,8,0,0,1,8,8V54a8,8,0,0,1-8,8H8a8,8,0,0,1-8-8V8A8,8,0,0,1,8,0Z" transform="translate(117.781 3.986)" fill="#fff"/>
    <path id="パス_837_-_アウトライン" data-name="パス 837 - アウトライン" d="M8,2A6.007,6.007,0,0,0,2,8V54a6.007,6.007,0,0,0,6,6H212a6.007,6.007,0,0,0,6-6V8a6.007,6.007,0,0,0-6-6H8M8,0H212a8,8,0,0,1,8,8V54a8,8,0,0,1-8,8H8a8,8,0,0,1-8-8V8A8,8,0,0,1,8,0Z" transform="translate(117.781 3.986)" fill="#0077c0"/>
    <path id="パス_834" data-name="パス 834" d="M-33.912-5.544v1.776h7.368c-.84,2.16-2.712,3.384-8.208,4.008a5.423,5.423,0,0,1,.984,1.68c6.36-.84,8.592-2.568,9.528-5.688H-17.3c-.264,2.208-.552,3.24-.96,3.576C-18.48,0-18.72.024-19.2.024A31.827,31.827,0,0,1-22.464-.12,4.418,4.418,0,0,1-21.84,1.8a34.746,34.746,0,0,0,3.5.024,2.937,2.937,0,0,0,1.9-.672c.672-.672,1.056-2.232,1.416-5.832.048-.288.1-.864.1-.864Zm6.96-4.056a16.378,16.378,0,0,0-3.12-1.032L-30.6-9.624a18.9,18.9,0,0,1,3.144,1.152Zm.048-2.448a15.73,15.73,0,0,0-3.144-.96l-.48,1.032a16.521,16.521,0,0,1,3.144,1.08Zm2.208-2.928H-32.76v8.592h1.848v-7.224h4.368v5.616c0,.192-.072.264-.288.288-.216,0-.888,0-1.584-.024a6.889,6.889,0,0,1,.528,1.32,7.571,7.571,0,0,0,2.472-.216c.576-.216.72-.576.72-1.368Zm2.208.12v6.1h1.9v-6.1Zm7.008-.48h-1.992v7.2c0,.264-.072.312-.336.312-.264.024-1.152.024-2.064,0A7.6,7.6,0,0,1-19.3-6.336a9.579,9.579,0,0,0,2.952-.24c.648-.216.864-.6.864-1.512ZM-19.1-17.808a20.457,20.457,0,0,0,1.464-1.944l-2.256-.432a18.457,18.457,0,0,1-1.512,2.352l.1.024h-5.9l.288-.072a9.4,9.4,0,0,0-1.392-2.28l-2.04.456a11.606,11.606,0,0,1,1.08,1.9h-5.112v1.728H-13.56v-1.728Zm11.28,2.376H7.752v3.408h2.28v-5.52H1.152v-2.568H-1.224v2.568h-8.784v5.52h2.184ZM1.128-5.16H7.992V-7.248H1.128v-3.528H6.792v-2.136H-6.72v2.136h5.544v9.312A6.87,6.87,0,0,1-5.088-5.688a29.35,29.35,0,0,0,.576-3.144l-2.3-.216c-.5,4.2-1.728,7.56-4.368,9.528A12.071,12.071,0,0,1-9.336,2.016,12.217,12.217,0,0,0-5.952-2.976C-3.768.792-.312,1.584,4.392,1.584H10.1a6.732,6.732,0,0,1,.84-2.256c-1.368.048-5.4.048-6.432.048A25.076,25.076,0,0,1,1.128-.84ZM22.2-7.1c-.456-.672-2.448-3.144-3.264-4.056v-1.848h3.1V-15.12h-3.1v-5.016H16.8v5.016H13.3v2.112h3.216A25.134,25.134,0,0,1,12.72-4.44a11.745,11.745,0,0,1,1.1,2.04A23.453,23.453,0,0,0,16.8-8.616V1.872h2.136V-8.52A34.829,34.829,0,0,1,20.88-5.352Zm10.632-4.152-.384.1H29.64v-3.264h5.448v-2.088H29.64v-3.624H27.432v3.624h-5.3v2.088h5.3v3.264H22.464v2.088h9.024A13.572,13.572,0,0,1,28.32-4.08a14.353,14.353,0,0,1-2.976-4.9l-1.968.552a17.985,17.985,0,0,0,3.312,5.736,16.879,16.879,0,0,1-5.9,2.64,8.3,8.3,0,0,1,1.2,1.992A19.266,19.266,0,0,0,28.3-1.1a15.8,15.8,0,0,0,5.688,3.048,8.737,8.737,0,0,1,1.44-1.92,15.135,15.135,0,0,1-5.448-2.616,16.77,16.77,0,0,0,4.3-8.112Z" transform="translate(273.781 44.986)" fill="#0077c0"/>
    <g id="長方形_291" data-name="長方形 291" transform="translate(117.781 90.986)" fill="#fff" stroke="#0077c0" stroke-width="2">
      <rect width="220" height="62" rx="8" stroke="none"/>
      <rect x="1" y="1" width="218" height="60" rx="7" fill="none"/>
    </g>
    <path id="パス_833" data-name="パス 833" d="M-45.912-6.432A17.686,17.686,0,0,1-47.28-.816a12.405,12.405,0,0,1,1.7.816,21.084,21.084,0,0,0,1.56-6.1Zm6.72-1.9a10.027,10.027,0,0,1,.528,1.464l1.728-.84a21.274,21.274,0,0,0-2.52-4.824l-1.608.7c.36.552.7,1.152,1.032,1.776l-3.192.216c1.584-1.992,3.312-4.512,4.656-6.624l-1.872-.888A46.438,46.438,0,0,1-42.912-13.1a14.543,14.543,0,0,0-1.2-1.416c.864-1.344,1.9-3.24,2.76-4.872l-1.992-.768a28.719,28.719,0,0,1-2.016,4.416l-.648-.576-1.08,1.488a22.067,22.067,0,0,1,3.048,3.408q-.684.936-1.3,1.728c-.7.048-1.32.1-1.9.12l.312,1.992c1.1-.12,2.4-.24,3.744-.36V1.848h1.992V-8.136Zm-1.416,2.352a25.462,25.462,0,0,1,1.416,4.368l1.776-.624a23.16,23.16,0,0,0-1.512-4.3Zm6.048-5.256V-16.2c1.032-.168,2.112-.36,3.168-.576.048,1.92.1,3.792.168,5.544ZM-24.936-9.1v-2.136H-29.16c-.072-1.92-.12-3.96-.12-6.048A28.507,28.507,0,0,0-25.7-18.432l-1.752-1.728A42.124,42.124,0,0,1-35.5-17.9l-1.176-.384V-.864c-.648.12-1.248.24-1.776.336l.792,2.112c2.136-.5,4.848-1.2,7.416-1.872l-.288-1.92c-1.344.312-2.736.624-4.032.888V-9.1H-31.1c.384,5.64,1.2,9.84,3.216,10.656,1.56.912,2.928-.168,3.336-4.08a9.217,9.217,0,0,1-1.632-1.3c-.12,2.112-.384,3.5-.72,3.384C-28.1-.768-28.752-4.3-29.04-9.1ZM-13.872-19.32h-2.64a15.605,15.605,0,0,1,.144,1.9c0,.432-.024,1.3-.024,2.376q-.9.072-1.656.072a24.247,24.247,0,0,1-3.192-.192l.072,2.3c.792.072,1.7.12,3.168.12q.684,0,1.584-.072c-.024.912-.024,1.824-.024,2.664v1.488c-2.832,1.224-5.3,3.36-5.3,5.4,0,2.3,3.192,4.224,5.28,4.224,1.416,0,2.352-.744,2.352-3.288,0-.96-.072-2.976-.1-4.968a16.237,16.237,0,0,1,4.92-.792c2.184,0,3.84,1.032,3.84,2.88,0,2.016-1.752,3.072-3.768,3.456a12.658,12.658,0,0,1-2.88.168l.864,2.448A18.654,18.654,0,0,0-8.184.5C-4.656-.336-3-2.328-3-5.184c0-3.072-2.688-4.992-6.264-4.992a18.747,18.747,0,0,0-4.992.768v-.84c0-.864.024-1.824.048-2.784,1.656-.192,3.432-.48,4.824-.792l-.048-2.352a30.081,30.081,0,0,1-4.728.912c.048-.864.072-1.632.1-2.208C-14.016-18.048-13.944-18.864-13.872-19.32ZM-6.7-16.68l-1.056,1.824A34.763,34.763,0,0,1-2.208-11.3l1.176-1.92A42.98,42.98,0,0,0-6.7-16.68Zm-12.7,13.3c0-.96,1.248-2.184,3-3.048.024,1.56.072,2.952.072,3.72,0,.792-.336,1.1-.816,1.1C-17.952-1.608-19.392-2.424-19.392-3.384ZM9.216-19.2H6.576a11.813,11.813,0,0,1,.192,2.592v.768c-.288.024-.576.024-.864.024a28.43,28.43,0,0,1-3.84-.312l.12,2.208a35.572,35.572,0,0,0,3.864.24c.24,0,.48,0,.744-.024v2.064a2.2,2.2,0,0,0-.408-.024c-2.472,0-4.176,2.184-4.176,4.824,0,2.9,1.776,4.008,3.288,4.008a4.675,4.675,0,0,0,.6-.048v.888c0,1.728.48,3.144,5.64,3.144a23.812,23.812,0,0,0,5.088-.5c2.424-.7,3.192-1.872,3.312-4.08.048-1.008.024-1.608,0-2.688l-2.592-.792A22.7,22.7,0,0,1,17.688-4.1a2.387,2.387,0,0,1-1.9,2.568A16.412,16.412,0,0,1,11.9-1.1c-3.192,0-3.5-.528-3.5-1.728,0-.384,0-.84.024-1.3A6.323,6.323,0,0,0,9.672-8.184a3.746,3.746,0,0,0-.648-2.256v-3.408a36.986,36.986,0,0,0,4.488-.7v-2.3a30.06,30.06,0,0,1-4.488.84v-.6A16.614,16.614,0,0,1,9.216-19.2Zm8.256,2.328-1.56,1.584a30.009,30.009,0,0,1,4.8,4.656l1.7-1.752A29.32,29.32,0,0,0,17.472-16.872ZM5.736-5.088c-.792,0-1.512-.7-1.512-1.92,0-1.608.912-2.736,2.016-2.736.768,0,1.272.624,1.272,1.68C7.512-6.552,7.032-5.088,5.736-5.088ZM25.56-12.816l1.08,2.688c2.184-.912,8.088-3.456,11.856-3.456,3.1,0,4.824,1.872,4.824,4.3,0,4.584-5.4,6.48-11.76,6.648l1.08,2.5c7.848-.408,13.344-3.5,13.344-9.12,0-4.2-3.264-6.576-7.392-6.576-3.528,0-8.3,1.728-10.248,2.328A26.209,26.209,0,0,1,25.56-12.816Z" transform="translate(273.781 131.986)" fill="#0077c0"/>
    <g id="長方形_292" data-name="長方形 292" transform="translate(117.781 177.986)" fill="#fff" stroke="#0077c0" stroke-width="2">
      <rect width="220" height="62" rx="8" stroke="none"/>
      <rect x="1" y="1" width="218" height="60" rx="7" fill="none"/>
    </g>
    <path id="パス_832" data-name="パス 832" d="M-22.8-1.008v-5.52h7.464V-8.664H-22.8v-4.8h8.352v-2.184H-22.8v-4.464h-2.3v4.464h-4.344c.456-1.152.888-2.376,1.248-3.6l-2.3-.528a20.719,20.719,0,0,1-4.344,8.688,14.293,14.293,0,0,1,2.04,1.344,20.721,20.721,0,0,0,2.376-3.72H-25.1v4.8h-6.84v2.136h6.84v5.52h-9.5v2.16H-13.3v-2.16Zm15.792-15.84v2.472c1.92.168,3.984.264,6.432.264,2.256,0,5.016-.144,6.672-.288v-2.5c-1.776.192-4.344.336-6.672.336A61.3,61.3,0,0,1-7.008-16.848ZM-5.592-6.96-8.064-7.2a14.7,14.7,0,0,0-.48,3.384C-8.544-.672-5.76,1.056-.6,1.056A35.663,35.663,0,0,0,7.632.216l-.024-2.64a31.852,31.852,0,0,1-8.28.936c-3.7,0-5.376-1.176-5.376-2.88A9.214,9.214,0,0,1-5.592-6.96ZM6.744-19.44l-1.56.648A24.446,24.446,0,0,1,7.1-15.456l1.584-.7A34.779,34.779,0,0,0,6.744-19.44ZM9.48-20.448,7.944-19.8a25.1,25.1,0,0,1,1.968,3.312l1.56-.7A37.241,37.241,0,0,0,9.48-20.448Zm7.776,2.592.1,2.472c.6-.1,1.368-.168,1.872-.192,1.08-.048,3.648-.168,4.608-.192-.648,1.32-1.464,3.192-2.256,4.944-4.752.168-8.064,2.928-8.064,6.552A3.279,3.279,0,0,0,16.872-.72a3.723,3.723,0,0,0,3.336-1.848,48.592,48.592,0,0,0,2.88-6.072,16.855,16.855,0,0,1,6.36,2.088A10.323,10.323,0,0,1,23.232-.1L25.248,1.56A11.53,11.53,0,0,0,31.464-5.3q1.26.9,2.3,1.8l1.1-2.592c-.744-.528-1.656-1.128-2.736-1.752a40.379,40.379,0,0,0,.48-4.56l-2.5-.264a15.528,15.528,0,0,1,.024,2.376q-.036.648-.144,1.368A21.079,21.079,0,0,0,24-10.7c.96-2.16,1.944-4.416,2.592-5.472a4.871,4.871,0,0,1,.72-.888l-1.512-1.2a5.469,5.469,0,0,1-1.392.288c-1.056.072-3.96.216-5.256.216A18.215,18.215,0,0,1,17.256-17.856ZM15.7-4.608c0-1.8,1.8-3.72,4.944-4.056a28.219,28.219,0,0,1-2.328,4.68,1.611,1.611,0,0,1-1.344.816A1.285,1.285,0,0,1,15.7-4.608Z" transform="translate(273.781 218.986)" fill="#0077c0"/>
    <g id="長方形_293" data-name="長方形 293" transform="translate(117.781 266.986)" fill="#fff" stroke="#000" stroke-width="2">
      <rect width="220" height="58" rx="29" stroke="none"/>
      <rect x="1" y="1" width="218" height="56" rx="28" fill="none"/>
    </g>
    <path id="パス_831" data-name="パス 831" d="M-20.592-5.568h-3.24V-8.136h3.24Zm3.84-2.568v-.12A12.689,12.689,0,0,0-14.088-6.6,8.645,8.645,0,0,1-12.7-8.3a11.864,11.864,0,0,1-3.216-1.944,21.2,21.2,0,0,0,2.736-1.872l-1.488-1.1A29.546,29.546,0,0,1-17.112-11.4c-.384-.408-.72-.84-1.056-1.272a15.284,15.284,0,0,0,2.736-1.992L-16.9-15.7a24.307,24.307,0,0,1-2.088,1.7,12.785,12.785,0,0,1-.936-2.016l-1.824.528a17.937,17.937,0,0,0,3.192,5.472h-7.056a14.618,14.618,0,0,0,2.736-4.776l-1.272-.6-.36.1h-5.04v1.68h4.128a11.941,11.941,0,0,1-1.32,1.992,23.193,23.193,0,0,0-2.28-1.488l-1.176,1.224a20.75,20.75,0,0,1,2.208,1.608,13.052,13.052,0,0,1-3.264,2.208c.024-.84.048-1.632.048-2.352v-5.976h17.808v-1.9h-8.736v-1.848h-2.328v1.848h-8.808v7.872c0,3.336-.168,7.824-2.016,10.968a8.193,8.193,0,0,1,1.7,1.3c1.632-2.664,2.16-6.48,2.328-9.768A9.009,9.009,0,0,1-30.12-6.432a15.715,15.715,0,0,0,2.616-1.7H-25.9v2.568h-4.176v1.9h4.008C-26.448-2.088-27.6-.648-30.984.36a7.6,7.6,0,0,1,1.3,1.632c4.152-1.32,5.424-3.384,5.76-5.664h3.336V-.816c0,2.04.48,2.64,2.5,2.64h2.424c1.632,0,2.16-.768,2.376-3.528A5.651,5.651,0,0,1-15.168-2.5c-.048,2.088-.168,2.472-.72,2.472H-17.76c-.6,0-.72-.12-.72-.816V-3.672h4.368v-1.9H-18.48V-8.136Zm20.016-8.52-.816.624c.648.288,1.344.648,2.016,1.032-2.688.048-5.352.072-7.8.12.456-.552.936-1.176,1.392-1.776ZM-9.6-14.832l.1,1.848c4.248-.1,10.512-.312,16.464-.528.576.36,1.1.744,1.512,1.056L9.936-13.7A35.125,35.125,0,0,0,4.92-16.656h5.736v-1.776H1.176v-1.7h-2.3v1.7h-9.36v1.776h5.976c-.384.6-.84,1.248-1.272,1.8ZM-4.968-9.48h3.84v1.512h-3.84Zm9.864,0v1.512H1.008V-9.48Zm5.688,6.216v-1.8H1.08V-6.312H7.056V-9.48h3.528v-1.7H7.056v-1.392H4.9v1.392H1.008v-1.56H-1.128v1.56h-3.84v-1.392h-2.04v1.392h-3.528v1.7h3.528v3.168h5.832v1.248h-9.36v1.8h7.32a24.079,24.079,0,0,1-7.848,3.24A8.625,8.625,0,0,1-9.672,1.7a23.154,23.154,0,0,0,8.5-4.488V1.872H1.08V-2.736A24.38,24.38,0,0,0,9.7,1.632a8.351,8.351,0,0,1,1.44-1.776,24.809,24.809,0,0,1-7.992-3.12ZM21.84-9.576l-2.52.72v-4.416h2.232v-2.112H19.32v-4.752H17.256v4.752H15.744c.144-1.008.264-2.04.384-3.072l-1.9-.312a27.767,27.767,0,0,1-1.512,7.824,13.446,13.446,0,0,1,1.632,1.008,23.511,23.511,0,0,0,.984-3.336h1.92v5.04c-1.632.456-3.144.864-4.344,1.176l.576,2.136,3.768-1.152V1.872H19.32V-6.72c.936-.288,1.872-.576,2.808-.888Zm3.84-6.7c.36-1.1.72-2.28.984-3.48l-2.016-.384c-.792,3.552-2.16,6.96-4.1,9.072a16.967,16.967,0,0,1,1.728,1.272,18.012,18.012,0,0,0,2.592-4.416h1.7c-1.1,3.7-3.072,7.488-5.544,9.408a8.056,8.056,0,0,1,1.728,1.272c2.544-2.256,4.632-6.648,5.688-10.68h1.608C28.848-8.4,26.328-2.664,22.464.1a10.119,10.119,0,0,1,1.848,1.32c3.888-3.12,6.456-9.432,7.68-15.624h.672c-.432,9.12-.936,12.528-1.632,13.32a.921.921,0,0,1-.864.432c-.456,0-1.344,0-2.352-.1a5.276,5.276,0,0,1,.624,2.184,13.856,13.856,0,0,0,2.712-.048A2.266,2.266,0,0,0,32.9.528C33.84-.648,34.3-4.44,34.824-15.216c.024-.288.024-1.056.024-1.056Z" transform="translate(278.781 305.986)"/>
    <g id="グループ_671" data-name="グループ 671" transform="translate(-82 18.353)">
      <g id="マスクグループ_10" data-name="マスクグループ 10" transform="translate(155.463 0)" clip-path="url(#clip-path)">
        <path id="パス_99" data-name="パス 99" d="M0,18.846,11.335,0,22.347,19.6" transform="translate(15.826 4.65) rotate(90)" fill="none" stroke="#0177c0" stroke-width="7"/>
      </g>
      <rect id="長方形_146" data-name="長方形 146" width="73.463" height="6.948" transform="translate(82 12.159)" fill="#0077c0"/>
    </g>
    <g id="グループ_672" data-name="グループ 672" transform="translate(-82 107.353)">
      <g id="マスクグループ_10-2" data-name="マスクグループ 10" transform="translate(155.463 0)" clip-path="url(#clip-path)">
        <path id="パス_99-2" data-name="パス 99" d="M0,18.846,11.335,0,22.347,19.6" transform="translate(15.826 4.65) rotate(90)" fill="none" stroke="#0177c0" stroke-width="7"/>
      </g>
      <rect id="長方形_146-2" data-name="長方形 146" width="73.463" height="6.948" transform="translate(82 12.159)" fill="#0077c0"/>
    </g>
    <g id="グループ_673" data-name="グループ 673" transform="translate(-82 193.353)">
      <g id="マスクグループ_10-3" data-name="マスクグループ 10" transform="translate(155.463 0)" clip-path="url(#clip-path)">
        <path id="パス_99-3" data-name="パス 99" d="M0,18.846,11.335,0,22.347,19.6" transform="translate(15.826 4.65) rotate(90)" fill="none" stroke="#0177c0" stroke-width="7"/>
      </g>
      <rect id="長方形_146-3" data-name="長方形 146" width="73.463" height="6.948" transform="translate(82 12.159)" fill="#0077c0"/>
    </g>
    <g id="グループ_674" data-name="グループ 674" transform="translate(-82 279.353)">
      <g id="マスクグループ_10-4" data-name="マスクグループ 10" transform="translate(155.463 0)" clip-path="url(#clip-path)">
        <path id="パス_99-4" data-name="パス 99" d="M0,18.846,11.335,0,22.347,19.6" transform="translate(15.826 4.65) rotate(90)" fill="none" stroke="#000" stroke-width="7"/>
      </g>
      <rect id="長方形_146-4" data-name="長方形 146" width="73.463" height="6.948" transform="translate(82 12.159)"/>
    </g>
    <path id="パス_624" data-name="パス 624" d="M-4203.843,2518.671l-1.876,4.692h13.74l-2.929-4.692Z" transform="translate(4348.781 -2516.014)" fill="#fff"/>
    <g id="グループ_948" data-name="グループ 948" transform="translate(-1228.745 -6471.481)">
      <path id="パス_411" data-name="パス 411" d="M10053.876,6285l-.2-.1-3.329-1.709.185-.5,2.716-7.365,64.294-10v4.97l-.465.107Zm-2.03-2.392,2.188,1.124,62.313-14.385v-2.615l-62.214,9.671Z" transform="translate(-8691.998 229.541)" fill="#0077c0"/>
      <path id="パス_412" data-name="パス 412" d="M10057.725,6280.878l-5.084-6.947.969-.709,5.084,6.947Z" transform="translate(-8691.373 231.869)" fill="#0077c0"/>
      <path id="パス_413" data-name="パス 413" d="M2.777,18.968l-3.524-1.81L2.152,9.3l64.3-10V4.27ZM.747,16.576,2.935,17.7,65.248,3.316V.7L3.034,10.373Z" transform="matrix(0.995, -0.105, 0.105, 0.995, 1370.292, 6506.717)" fill="#0077c0"/>
      <path id="パス_414" data-name="パス 414" d="M4.6,7.3-.484.354.484-.354,5.569,6.592Z" transform="matrix(0.995, -0.105, 0.105, 0.995, 1373.959, 6516.259)" fill="#0077c0"/>
      <path id="パス_417" data-name="パス 417" d="M2.777,18.968l-3.524-1.81L2.152,9.3l64.3-10V4.27ZM.747,16.576,2.935,17.7,65.248,3.316V.7L3.034,10.373Z" transform="translate(1366.168 6482.085) rotate(3)" fill="#0077c0"/>
      <g id="マスクグループ_84" data-name="マスクグループ 84" transform="translate(1393.912 6510.637)" clip-path="url(#clip-path-5)">
        <path id="パス_415" data-name="パス 415" d="M2.777-.634l63.669,14.7v4.971l-64.295-10-2.9-7.861ZM65.247,15.018,2.935.634.747,1.758l2.287,6.2,62.213,9.672Z" transform="matrix(-0.985, 0.174, -0.174, -0.985, 57.035, 10.3)" fill="#0077c0"/>
        <path id="パス_416" data-name="パス 416" d="M.484,7.3l-.968-.709L4.6-.354l.968.709Z" transform="matrix(-0.985, 0.174, -0.174, -0.985, 54.161, 9.268)" fill="#0077c0"/>
      </g>
      <path id="パス_419" data-name="パス 419" d="M10066.342,6247.481h0c.3,0,.7.155,1.58,1.283a56.593,56.593,0,0,1,4.053,6.472.019.019,0,0,1,0,.007l.028.051.044.08h0l0,.006c1.4,2.693,1.654,4.95.763,6.712-1.235,2.443-4.208,2.958-4.466,3a7.108,7.108,0,0,1-1.224.1,5.066,5.066,0,0,1-4.465-2.111c-1.525-2.353-1-6.445,1.555-12.165a.254.254,0,0,1,.013-.026l1.559-3.076a.6.6,0,0,1,.251-.257A.645.645,0,0,1,10066.342,6247.481Zm4.585,8.338c-2.571-4.576-3.833-6.24-4.386-6.841l-1.236,2.44c-2.958,6.622-2.523,9.642-1.638,11.008a3.95,3.95,0,0,0,3.458,1.564,5.862,5.862,0,0,0,1.007-.08l.027,0c.025,0,2.609-.417,3.588-2.362C10072.462,6260.124,10072.186,6258.2,10070.927,6255.819Z" transform="translate(-8688.512 224)" fill="#0077c0"/>
      <path id="パス_420" data-name="パス 420" d="M10066.227,6264.164l-1.356-15.334,1.2-.105,1.356,15.334Z" transform="translate(-8687.565 224.217)" fill="#0077c0"/>
      <path id="パス_421" data-name="パス 421" d="M10066.953,6258.272l-4.5-1.466.311-.951,4.5,1.466Z" transform="translate(-8688.448 226.546)" fill="#0077c0"/>
      <path id="パス_422" data-name="パス 422" d="M10066.389,6256.287l-.684-.729,3.5-3.286.684.729Z" transform="translate(-8687.387 225.406)" fill="#0077c0"/>
    </g>
    <path id="パス_626" data-name="パス 626" d="M-4215.169,2682.113l-.75,5.816h73.709v-6.466Z" transform="translate(4348.781 -2511.014)" fill="#fff"/>
  </g>
  <g id="グループ_1114" data-name="グループ 1114" transform="translate(-1114.673 -2965.16)">
    <g id="グループ_1113" data-name="グループ 1113" transform="translate(1271.098 3066.982)">
      <path id="パス_738" data-name="パス 738" d="M974.022,201.408s-23.078-9.041-27.441-17.21,1.745-13.245,4.759-15.624,6.027-4.124,10.151-3.807c3.331-.952,6.662-1.11,8.248,1.745l1.586,2.855,5.393,1.745h16.655l2.379.318,1.745.815-1.586,1.4s2.062,1.111,1.586,2.539,1.269,2.034,1.269,2.034a3.049,3.049,0,0,0-2.221,2.919c0,2.343-.793,12.336-4.282,15.985S985.759,204.422,974.022,201.408Z" transform="translate(-945.06 -164.147)" fill="#fff" stroke="#0077c0" stroke-miterlimit="10" stroke-width="1"/>
      <path id="パス_739" data-name="パス 739" d="M969.3,175.922c.2,0,5.941-4.851,8.681-5l.2.364,5.393,1.745s-5.829,3.172-7.574,4.917C973.146,177.27,969.3,175.922,969.3,175.922Z" transform="translate(-951.918 -166.063)" fill="#fff"/>
      <path id="パス_740" data-name="パス 740" d="M959.358,195.862s-.894-9.166,4.974-15.828a21.812,21.812,0,0,1,2.6-2.571" transform="translate(-949.091 -167.914)" fill="#fff" stroke="#0077c0" stroke-miterlimit="10" stroke-width="1"/>
      <path id="パス_741" data-name="パス 741" d="M988.689,202.794a11.714,11.714,0,0,1,1.705-13.194c5.591-6.315,10.945-2.389,13.562,1.774" transform="translate(-957.031 -170.411)" fill="none" stroke="#0077c0" stroke-linecap="round" stroke-miterlimit="10" stroke-width="1"/>
      <path id="パス_742" data-name="パス 742" d="M996.065,199.3v2.855s.714,2.141,4.283,1.428,3.212-7.97,1.309-8.209" transform="translate(-959.49 -172.98)" fill="none" stroke="#0077c0" stroke-linecap="round" stroke-miterlimit="10" stroke-width="1"/>
      <path id="パス_743" data-name="パス 743" d="M985.329,212.552a5.352,5.352,0,0,1-2.823-4.387" transform="translate(-955.654 -176.6)" fill="none" stroke="#0077c0" stroke-linecap="round" stroke-miterlimit="10" stroke-width="1"/>
      <path id="パス_744" data-name="パス 744" d="M973.691,206.738s-1.071-2.462-.714-3.617" transform="translate(-952.937 -175.173)" fill="none" stroke="#0077c0" stroke-linecap="round" stroke-miterlimit="10" stroke-width="1"/>
      <path id="パス_745" data-name="パス 745" d="M972.24,176.83l-.682-1.6-1.31.425h-2.26l2.393,1.836Z" transform="translate(-951.546 -167.281)" fill="#fff"/>
      <path id="パス_746" data-name="パス 746" d="M967.968,197.628s-1.5-10.8,6.273-18.176a49.223,49.223,0,0,1,8.8-6.424c-2.855,1.666-6.412,4.357-6.412,4.357s-2.708,1.1-4.612,0-4.6-3.008-4.6-3.008h3.3s1.735-2.347,6.732-3.457l.2.364,2.78.9,2.123.687" transform="translate(-951.386 -166.063)" fill="none" stroke="#0077c0" stroke-linejoin="round" stroke-width="1"/>
      <path id="パス_747" data-name="パス 747" d="M985.6,188.555s-.833-2.985,5.472-5.958" transform="translate(-956.518 -169.367)" fill="none" stroke="#0077c0" stroke-linecap="round" stroke-linejoin="round" stroke-width="1"/>
      <path id="パス_748" data-name="パス 748" d="M983.291,182.355s.833-2.838,5.116-3.977" transform="translate(-955.876 -168.173)" fill="none" stroke="#0077c0" stroke-linecap="round" stroke-linejoin="round" stroke-width="1"/>
      <path id="パス_749" data-name="パス 749" d="M996.047,177.463s-.714,1.183,3.5,1.54c3.061.26,10.244,4.679,11.043,10.489" transform="translate(-959.472 -167.914)" fill="none" stroke="#0077c0" stroke-linecap="round" stroke-linejoin="round" stroke-width="1"/>
      <path id="パス_750" data-name="パス 750" d="M962.221,176.709a2.8,2.8,0,0,1,1.309-2.261c1.428-1.138,1.19-1.971,1.19-1.971" transform="translate(-949.914 -166.503)" fill="none" stroke="#0077c0" stroke-linecap="round" stroke-linejoin="round" stroke-width="1"/>
      <path id="パス_751" data-name="パス 751" d="M957.743,171.241s2.868-2.617,4.467-2.974a4.475,4.475,0,0,1,2.472,0" transform="translate(-948.648 -165.267)" fill="none" stroke="#0077c0" stroke-linecap="round" stroke-linejoin="round" stroke-width="1"/>
      <path id="パス_752" data-name="パス 752" d="M967.973,165.011a10.942,10.942,0,0,1,4.323,2.855" transform="translate(-951.542 -164.391)" fill="none" stroke="#0077c0" stroke-linecap="round" stroke-linejoin="round" stroke-width="1"/>
      <path id="パス_753" data-name="パス 753" d="M950.277,190.8s.357,2.445,1.428,3.278" transform="translate(-946.536 -171.687)" fill="none" stroke="#0077c0" stroke-linecap="round" stroke-linejoin="round" stroke-width="1"/>
      <line id="線_189" data-name="線 189" y2="3.017" transform="translate(44.13 8.369)" fill="none" stroke="#0077c0" stroke-linecap="round" stroke-linejoin="round" stroke-width="1"/>
      <line id="線_190" data-name="線 190" y2="5.099" transform="translate(47.461 8.369)" fill="none" stroke="#0077c0" stroke-linecap="round" stroke-linejoin="round" stroke-width="1"/>
      <path id="パス_754" data-name="パス 754" d="M1013.727,176.8a10.03,10.03,0,0,0,.714,4.156" transform="translate(-964.482 -167.727)" fill="none" stroke="#0077c0" stroke-linecap="round" stroke-linejoin="round" stroke-width="1"/>
      <path id="パス_755" data-name="パス 755" d="M973.685,166.2a2.335,2.335,0,0,1-.787-2.043" transform="translate(-952.932 -164.149)" fill="none" stroke="#0077c0" stroke-linecap="round" stroke-linejoin="round" stroke-width="1"/>
      <path id="パス_756" data-name="パス 756" d="M975.826,166.256s.535.3.773,1.963" transform="translate(-953.764 -164.743)" fill="none" stroke="#0077c0" stroke-linecap="round" stroke-linejoin="round" stroke-width="1"/>
    </g>
    <g id="グループ_1112" data-name="グループ 1112" transform="translate(1246 3068.416)">
      <path id="パス_738-2" data-name="パス 738" d="M974.022,201.408s-23.078-9.041-27.441-17.21,1.745-13.245,4.759-15.624,6.027-4.124,10.151-3.807c3.331-.952,6.662-1.11,8.248,1.745l1.586,2.855,5.393,1.745h16.655l2.379.318,1.745.815-1.586,1.4s2.062,1.111,1.586,2.539,1.269,2.034,1.269,2.034a3.049,3.049,0,0,0-2.221,2.919c0,2.343-.793,12.336-4.282,15.985S985.759,204.422,974.022,201.408Z" transform="translate(-945.06 -164.147)" fill="#fff" stroke="#0077c0" stroke-miterlimit="10" stroke-width="1"/>
      <path id="パス_739-2" data-name="パス 739" d="M969.3,175.922c.2,0,5.941-4.851,8.681-5l.2.364,5.393,1.745s-5.829,3.172-7.574,4.917C973.146,177.27,969.3,175.922,969.3,175.922Z" transform="translate(-951.918 -166.063)" fill="#fff"/>
      <path id="パス_740-2" data-name="パス 740" d="M959.358,195.862s-.894-9.166,4.974-15.828a21.812,21.812,0,0,1,2.6-2.571" transform="translate(-949.091 -167.914)" fill="#fff" stroke="#0077c0" stroke-miterlimit="10" stroke-width="1"/>
      <path id="パス_741-2" data-name="パス 741" d="M988.689,202.794a11.714,11.714,0,0,1,1.705-13.194c5.591-6.315,10.945-2.389,13.562,1.774" transform="translate(-957.031 -170.411)" fill="none" stroke="#0077c0" stroke-linecap="round" stroke-miterlimit="10" stroke-width="1"/>
      <path id="パス_742-2" data-name="パス 742" d="M996.065,199.3v2.855s.714,2.141,4.283,1.428,3.212-7.97,1.309-8.209" transform="translate(-959.49 -172.98)" fill="none" stroke="#0077c0" stroke-linecap="round" stroke-miterlimit="10" stroke-width="1"/>
      <path id="パス_743-2" data-name="パス 743" d="M985.329,212.552a5.352,5.352,0,0,1-2.823-4.387" transform="translate(-955.654 -176.6)" fill="none" stroke="#0077c0" stroke-linecap="round" stroke-miterlimit="10" stroke-width="1"/>
      <path id="パス_744-2" data-name="パス 744" d="M973.691,206.738s-1.071-2.462-.714-3.617" transform="translate(-952.937 -175.173)" fill="none" stroke="#0077c0" stroke-linecap="round" stroke-miterlimit="10" stroke-width="1"/>
      <path id="パス_745-2" data-name="パス 745" d="M972.24,176.83l-.682-1.6-1.31.425h-2.26l2.393,1.836Z" transform="translate(-951.546 -167.281)" fill="#fff"/>
      <path id="パス_746-2" data-name="パス 746" d="M967.968,197.628s-1.5-10.8,6.273-18.176a49.223,49.223,0,0,1,8.8-6.424c-2.855,1.666-6.412,4.357-6.412,4.357s-2.708,1.1-4.612,0-4.6-3.008-4.6-3.008h3.3s1.735-2.347,6.732-3.457l.2.364,2.78.9,2.123.687" transform="translate(-951.386 -166.063)" fill="none" stroke="#0077c0" stroke-linejoin="round" stroke-width="1"/>
      <path id="パス_747-2" data-name="パス 747" d="M985.6,188.555s-.833-2.985,5.472-5.958" transform="translate(-956.518 -169.367)" fill="none" stroke="#0077c0" stroke-linecap="round" stroke-linejoin="round" stroke-width="1"/>
      <path id="パス_748-2" data-name="パス 748" d="M983.291,182.355s.833-2.838,5.116-3.977" transform="translate(-955.876 -168.173)" fill="none" stroke="#0077c0" stroke-linecap="round" stroke-linejoin="round" stroke-width="1"/>
      <path id="パス_749-2" data-name="パス 749" d="M996.047,177.463s-.714,1.183,3.5,1.54c3.061.26,10.244,4.679,11.043,10.489" transform="translate(-959.472 -167.914)" fill="none" stroke="#0077c0" stroke-linecap="round" stroke-linejoin="round" stroke-width="1"/>
      <path id="パス_750-2" data-name="パス 750" d="M962.221,176.709a2.8,2.8,0,0,1,1.309-2.261c1.428-1.138,1.19-1.971,1.19-1.971" transform="translate(-949.914 -166.503)" fill="none" stroke="#0077c0" stroke-linecap="round" stroke-linejoin="round" stroke-width="1"/>
      <path id="パス_751-2" data-name="パス 751" d="M957.743,171.241s2.868-2.617,4.467-2.974a4.475,4.475,0,0,1,2.472,0" transform="translate(-948.648 -165.267)" fill="none" stroke="#0077c0" stroke-linecap="round" stroke-linejoin="round" stroke-width="1"/>
      <path id="パス_752-2" data-name="パス 752" d="M967.973,165.011a10.942,10.942,0,0,1,4.323,2.855" transform="translate(-951.542 -164.391)" fill="none" stroke="#0077c0" stroke-linecap="round" stroke-linejoin="round" stroke-width="1"/>
      <path id="パス_753-2" data-name="パス 753" d="M950.277,190.8s.357,2.445,1.428,3.278" transform="translate(-946.536 -171.687)" fill="none" stroke="#0077c0" stroke-linecap="round" stroke-linejoin="round" stroke-width="1"/>
      <line id="線_189-2" data-name="線 189" y2="3.017" transform="translate(44.13 8.369)" fill="none" stroke="#0077c0" stroke-linecap="round" stroke-linejoin="round" stroke-width="1"/>
      <line id="線_190-2" data-name="線 190" y2="5.099" transform="translate(47.461 8.369)" fill="none" stroke="#0077c0" stroke-linecap="round" stroke-linejoin="round" stroke-width="1"/>
      <path id="パス_754-2" data-name="パス 754" d="M1013.727,176.8a10.03,10.03,0,0,0,.714,4.156" transform="translate(-964.482 -167.727)" fill="none" stroke="#0077c0" stroke-linecap="round" stroke-linejoin="round" stroke-width="1"/>
      <path id="パス_755-2" data-name="パス 755" d="M973.685,166.2a2.335,2.335,0,0,1-.787-2.043" transform="translate(-952.932 -164.149)" fill="none" stroke="#0077c0" stroke-linecap="round" stroke-linejoin="round" stroke-width="1"/>
      <path id="パス_756-2" data-name="パス 756" d="M975.826,166.256s.535.3.773,1.963" transform="translate(-953.764 -164.743)" fill="none" stroke="#0077c0" stroke-linecap="round" stroke-linejoin="round" stroke-width="1"/>
    </g>
  </g>
  <g id="グループ_1125" data-name="グループ 1125" transform="translate(-850.023 -2903.364)">
    <g id="グループ_1115" data-name="グループ 1115" transform="translate(1034.091 3180.617)" opacity="0.501">
      <g id="グループ_700" data-name="グループ 700" transform="translate(0)">
        <path id="パス_396" data-name="パス 396" d="M399.327,173.5c-3.875,1.055-11.7,4.62-14.442,16.427-3.706,15.945,14.058,16.381,16.674,16.381s23-.9,16.238-16.963c-4.877-11.591-9.925-14.873-13.258-15.842" transform="translate(-384.379 -167.819)" fill="none" stroke="#000" stroke-linejoin="round" stroke-width="1.2" stroke-dasharray="3"/>
        <ellipse id="楕円形_65" data-name="楕円形 65" cx="2.834" cy="2.239" rx="2.834" ry="2.239" transform="translate(14.722 2.567)" fill="none" stroke="#000" stroke-linejoin="round" stroke-width="1.2" stroke-dasharray="3"/>
        <path id="パス_397" data-name="パス 397" d="M402.682,168.908a6.216,6.216,0,0,0-6.033-3.678c-4.526.172-1.021,5.847,4.876,5.983" transform="translate(-387.577 -165.225)" fill="none" stroke="#000" stroke-linejoin="round" stroke-width="1.2" stroke-dasharray="3"/>
        <path id="パス_398" data-name="パス 398" d="M413.5,169.28a6.935,6.935,0,0,1,5.575-2.834c3.651.054,2.1,4.335-4.289,5.246" transform="translate(-393.504 -165.608)" fill="none" stroke="#000" stroke-linejoin="round" stroke-width="1.2" stroke-dasharray="3"/>
      </g>
      <g id="グループ_701" data-name="グループ 701" transform="translate(29.086 3.366)">
        <path id="パス_399" data-name="パス 399" d="M435.037,201.284a11.571,11.571,0,0,0,2.04.1c1.99,0,17.494-.689,12.353-12.905-3.711-8.818-7.551-11.314-10.086-12.051" transform="translate(-429.339 -172.101)" fill="none" stroke="#000" stroke-linejoin="round" stroke-width="1.2" stroke-dasharray="3"/>
        <path id="パス_400" data-name="パス 400" d="M432.884,176.424a12.585,12.585,0,0,0-5.808,3.322" transform="translate(-426.844 -172.1)" fill="none" stroke="#000" stroke-linejoin="round" stroke-width="1.2" stroke-dasharray="3"/>
        <ellipse id="楕円形_66" data-name="楕円形 66" cx="2.156" cy="1.703" rx="2.156" ry="1.703" transform="translate(5.868 1.952)" fill="none" stroke="#000" stroke-linejoin="round" stroke-width="1.2" stroke-dasharray="3"/>
        <path id="パス_401" data-name="パス 401" d="M432.9,172.929a4.729,4.729,0,0,0-4.59-2.8c-3.443.13-.776,4.449,3.71,4.552" transform="translate(-426.738 -170.127)" fill="none" stroke="#000" stroke-linejoin="round" stroke-width="1.2" stroke-dasharray="3"/>
        <path id="パス_402" data-name="パス 402" d="M441.128,173.212a5.275,5.275,0,0,1,4.241-2.156c2.777.042,1.6,3.3-3.262,3.991" transform="translate(-431.247 -170.418)" fill="none" stroke="#000" stroke-linejoin="round" stroke-width="1.2" stroke-dasharray="3"/>
      </g>
      <rect id="長方形_313" data-name="長方形 313" width="14.284" height="7.047" transform="translate(10.414 14.579)" fill="none" stroke="#000" stroke-linejoin="round" stroke-width="1.2" stroke-dasharray="3"/>
      <line id="線_47" data-name="線 47" x1="2.534" y2="2.685" transform="translate(13.443 6.665)" fill="#97ba3b" stroke="#000" stroke-linejoin="round" stroke-width="1.2"/>
      <line id="線_48" data-name="線 48" x2="1.302" y2="1.87" transform="translate(18.695 6.855)" fill="#97ba3b" stroke="#000" stroke-linejoin="round" stroke-width="1.2"/>
      <line id="線_49" data-name="線 49" x2="2.088" y2="2.895" transform="translate(38.207 8.725)" fill="#97ba3b" stroke="#000" stroke-linejoin="round" stroke-width="1.2"/>
      <line id="線_50" data-name="線 50" x1="0.696" y2="1.735" transform="translate(35.655 8.725)" fill="#97ba3b" stroke="#000" stroke-linejoin="round" stroke-width="1.2"/>
    </g>
    <g id="マスクグループ_134" data-name="マスクグループ 134" transform="translate(986.018 3177.721)" clip-path="url(#clip-path-6)">
      <g id="グループ_1121" data-name="グループ 1121" transform="translate(3.917 2.896)">
        <g id="グループ_1119" data-name="グループ 1119" transform="translate(0)">
          <path id="パス_765" data-name="パス 765" d="M399.327,173.5c-3.875,1.055-11.7,4.62-14.442,16.427-3.706,15.945,14.058,16.381,16.674,16.381s23-.9,16.238-16.963c-4.877-11.591-9.925-14.873-13.258-15.842" transform="translate(-384.379 -167.819)" fill="none" stroke="#000" stroke-linejoin="round" stroke-width="1.2"/>
          <ellipse id="楕円形_97" data-name="楕円形 97" cx="2.834" cy="2.239" rx="2.834" ry="2.239" transform="translate(14.722 2.567)" fill="none" stroke="#000" stroke-linejoin="round" stroke-width="1.2"/>
          <path id="パス_766" data-name="パス 766" d="M402.682,168.908a6.216,6.216,0,0,0-6.033-3.678c-4.526.172-1.021,5.847,4.876,5.983" transform="translate(-387.577 -165.225)" fill="none" stroke="#000" stroke-linejoin="round" stroke-width="1.2"/>
          <path id="パス_767" data-name="パス 767" d="M413.5,169.28a6.935,6.935,0,0,1,5.575-2.834c3.651.054,2.1,4.335-4.289,5.246" transform="translate(-393.504 -165.608)" fill="none" stroke="#000" stroke-linejoin="round" stroke-width="1.2"/>
        </g>
        <g id="グループ_1120" data-name="グループ 1120" transform="translate(29.086 3.366)">
          <path id="パス_768" data-name="パス 768" d="M435.037,201.284a11.571,11.571,0,0,0,2.04.1c1.99,0,17.494-.689,12.353-12.905-3.711-8.818-7.551-11.314-10.086-12.051" transform="translate(-429.339 -172.101)" fill="none" stroke="#000" stroke-linejoin="round" stroke-width="1.2"/>
          <path id="パス_769" data-name="パス 769" d="M432.884,176.424a12.585,12.585,0,0,0-5.808,3.322" transform="translate(-426.844 -172.1)" fill="none" stroke="#000" stroke-linejoin="round" stroke-width="1.2"/>
          <ellipse id="楕円形_98" data-name="楕円形 98" cx="2.156" cy="1.703" rx="2.156" ry="1.703" transform="translate(5.868 1.952)" fill="none" stroke="#000" stroke-linejoin="round" stroke-width="1.2"/>
          <path id="パス_770" data-name="パス 770" d="M432.9,172.929a4.729,4.729,0,0,0-4.59-2.8c-3.443.13-.776,4.449,3.71,4.552" transform="translate(-426.738 -170.127)" fill="none" stroke="#000" stroke-linejoin="round" stroke-width="1.2"/>
          <path id="パス_771" data-name="パス 771" d="M441.128,173.212a5.275,5.275,0,0,1,4.241-2.156c2.777.042,1.6,3.3-3.262,3.991" transform="translate(-431.247 -170.418)" fill="none" stroke="#000" stroke-linejoin="round" stroke-width="1.2"/>
        </g>
        <rect id="長方形_376" data-name="長方形 376" width="14.284" height="7.047" transform="translate(10.414 14.579)" stroke="#000" stroke-linejoin="round" stroke-width="1.2"/>
        <line id="線_195" data-name="線 195" x1="2.534" y2="2.685" transform="translate(13.443 6.665)" fill="#97ba3b" stroke="#000" stroke-linejoin="round" stroke-width="1.2"/>
        <line id="線_196" data-name="線 196" x2="1.302" y2="1.87" transform="translate(18.695 6.855)" fill="#97ba3b" stroke="#000" stroke-linejoin="round" stroke-width="1.2"/>
        <line id="線_197" data-name="線 197" x2="2.088" y2="2.895" transform="translate(38.207 8.725)" fill="#97ba3b" stroke="#000" stroke-linejoin="round" stroke-width="1.2"/>
        <line id="線_198" data-name="線 198" x1="0.696" y2="1.735" transform="translate(35.655 8.725)" fill="#97ba3b" stroke="#000" stroke-linejoin="round" stroke-width="1.2"/>
      </g>
    </g>
  </g>
  <path id="パス_790" data-name="パス 790" d="M-1514.175,2714.876l-4.278-12.092,6.541,1.168-2.263-6.345s18.4-2.843,24.326,0,3.849,11.544,3.849,11.544l-7.664,11.156-18.248-1.654Z" transform="translate(1666.781 -2528.014)" fill="#fff"/>
  <g id="グループ_1127" data-name="グループ 1127" transform="translate(-790.934 -119.151)">
    <path id="パス_781" data-name="パス 781" d="M960.883,314.136s-9.575-6.036-10.72-7.7-2.706-6.869-2.706-6.869a52.952,52.952,0,0,1,7.285,0c-1.145-3.851-1.769-6.14-2.914-6.765,6.66-1.561,10.3-.74,19.254,2.752,1.353.786.52,3.076.52,3.076l-4.787,10.1S964.213,312.887,960.883,314.136Z" transform="translate(-2.589)" fill="none" stroke="#0077c0" stroke-linecap="round" stroke-linejoin="round" stroke-width="1"/>
    <path id="パス_782" data-name="パス 782" d="M980.945,310.119l3.872,1.626s5.1-5,9.367-4.892a38.288,38.288,0,0,0-7.6,6.037l3.851,2.185s4.371-4.891,8.742-4.891l.625.208s-6.557,4.059-7.077,4.683-.729,1.145-.208,1.353a35.763,35.763,0,0,1,3.018,2.082s3.435-3.642,7.7-3.746c-2.081,1.457-6.244,4.891-6.244,4.891l3.851,2.6a9.264,9.264,0,0,1,6.349-2.6c-3.226,2.081-5.2,3.642-5.2,3.642l3.226,2.81-.937,1.561-3.746-2.5a61.773,61.773,0,0,0-2.186,6.869,9.536,9.536,0,0,1,1.145-7.909l-3.331-2.81s-1.353.05-3.33,8.039c-.729-5.229.186-6.582,1.238-9.288l-3.215-2.6a36.289,36.289,0,0,0-3.018,10.2c-.937-5.2-.417-7.7,1.248-11.344l-3.33-2.082s-2.29,2.6-3.643,10.824c-.312-6.557.205-9.783,1.918-11.969-1.918-.728-3.9-1.252-3.9-1.252Z" transform="translate(-14.763 -5.518)" fill="none" stroke="#0077c0" stroke-linecap="round" stroke-linejoin="round" stroke-width="1"/>
    <path id="パス_783" data-name="パス 783" d="M1018.563,338.53l.937-1.561s9.47-2.186,14.466,0a47.508,47.508,0,0,1-10.511,4.683s0,5.516-1.249,8.534C1018.563,345.4,1018.209,344.83,1018.563,338.53Z" transform="translate(-29.047 -16.38)" fill="none" stroke="#0077c0" stroke-linecap="round" stroke-linejoin="round" stroke-width="1"/>
    <path id="パス_784" data-name="パス 784" d="M945.388,344.995l3.538-1.145a16.455,16.455,0,0,0,2.706,2.6l3.538-1.353a9.7,9.7,0,0,0,2.394,2.5l3.122-1.041s.833,2.081,1.561,2.394,3.643-1.041,3.643-1.041a13.009,13.009,0,0,1,1.561,6.349c-.262,3.077-6.036,4.579-6.036,4.579l-16.027-2.082-1.249-6.765Z" transform="translate(-1.352 -19.306)" fill="#fff" stroke="#0077c0" stroke-linecap="round" stroke-linejoin="round" stroke-width="1"/>
    <path id="パス_785" data-name="パス 785" d="M944.036,345.675l.832,5.1,3.331-.833,1.457,3.435s3.018.312,4.475-1.249c.624,2.082.937,3.331.937,3.331l5-1.665,1.457,2.81,4.579-1.665s.833,5.2-4.579,8.95-9.158,4.267-14.571,2.082S937.167,354.313,944.036,345.675Z" transform="translate(0 -19.986)" fill="#fff" stroke="#0077c0" stroke-linecap="round" stroke-linejoin="round" stroke-width="1"/>
    <path id="パス_786" data-name="パス 786" d="M982.105,373.814c-.006.019,5.663-.511,9.254-3.009s6.817-7.545,6.817-7.545h2.29l1.509,4.111v1.166A64.2,64.2,0,0,0,992.348,372c-3.747,1.873-7.865,8.951-7.865,8.951l-1.836-2.446-1.306-3.383Z" transform="translate(-15.216 -26.54)" fill="#fff" stroke="#0077c0" stroke-linecap="round" stroke-linejoin="round" stroke-width="1"/>
    <path id="パス_787" data-name="パス 787" d="M1004.692,357.867s2.6.78,2.186,3.278a3.733,3.733,0,0,1,2.186,2.81,4.18,4.18,0,0,1,.676,4.267c1.613,0,2.446.885,2.238,2.134a4.063,4.063,0,0,0,2.134-4.943c-.832-2.758-2.654-3.122-2.654-3.122s1.457-2.862-.156-4.059S1004.692,357.867,1004.692,357.867Z" transform="translate(-23.918 -24.425)" fill="#fff" stroke="#0077c0" stroke-linecap="round" stroke-linejoin="round" stroke-width="1"/>
    <path id="パス_788" data-name="パス 788" d="M1015.475,364.335a9.561,9.561,0,0,1,6.3-1.145l.365.728.676.728s-4.376-.586-6.377.176Z" transform="translate(-27.936 -26.47)" fill="#fff" stroke="#0077c0" stroke-linecap="round" stroke-linejoin="round" stroke-width="1"/>
    <path id="パス_789" data-name="パス 789" d="M977.561,376.864l3.226,1.144s-1.353,3.226,1.353,3.955c-.52,2.082.567,3.434,2.886,4.162-1.533.729-2.469,1.874-4.447.625a2.467,2.467,0,0,1-.807-3.331s-2.523-1.249-2.627-2.186A32.607,32.607,0,0,1,977.561,376.864Z" transform="translate(-13.647 -31.609)" fill="#fff" stroke="#0077c0" stroke-linecap="round" stroke-linejoin="round" stroke-width="1"/>
    <circle id="楕円形_100" data-name="楕円形 100" cx="1.388" cy="1.388" r="1.388" transform="translate(958.988 296.999)" fill="#0077c0" stroke="#0077c0" stroke-width="1"/>
  </g>
</svg>
