<svg id="コンポーネント_23_1" data-name="コンポーネント 23 – 1" xmlns="http://www.w3.org/2000/svg" xmlns:xlink="http://www.w3.org/1999/xlink" width="278.781" height="236" viewBox="0 0 278.781 236">
  <defs>
    <clipPath id="clip-path">
      <rect id="長方形_147" data-name="長方形 147" width="24.318" height="31.266" transform="translate(0 0)" fill="#0cb04b"/>
    </clipPath>
  </defs>
  <g id="長方形_294" data-name="長方形 294" transform="translate(108.781)" fill="#fff" stroke="#0cb04b" stroke-width="2">
    <rect width="170" height="236" rx="18" stroke="none"/>
    <rect x="1" y="1" width="168" height="234" rx="17" fill="none"/>
  </g>
  <path id="パス_838" data-name="パス 838" d="M-40.488-18.384h-2.856a18.556,18.556,0,0,1,.144,2.208v4.128c0,4.2-.312,6.072-1.992,7.992a11.194,11.194,0,0,1-5.76,3.12l1.992,2.088a13.107,13.107,0,0,0,5.736-3.5c1.776-2.016,2.64-4.056,2.64-9.552v-4.272C-40.584-17.04-40.536-17.76-40.488-18.384Zm-11.136.192h-2.76a15.5,15.5,0,0,1,.1,1.776v8.04c0,.7-.072,1.536-.1,1.944h2.76c-.048-.48-.1-1.32-.1-1.944v-8.04C-51.72-17.088-51.672-17.688-51.624-18.192Zm33.792,7.344v-.816h2.28c1.152,0,1.992.024,2.376.072v-2.544a15.948,15.948,0,0,1-2.4.144h-2.256v-2.784a15.649,15.649,0,0,1,.144-2.088H-20.4a16.571,16.571,0,0,1,.12,2.088v2.784h-6.336v-2.76a12.935,12.935,0,0,1,.144-1.92h-2.712a13.17,13.17,0,0,1,.144,1.92v2.76h-2.352a14.92,14.92,0,0,1-2.5-.192v2.616c.384-.048,1.368-.1,2.5-.1h2.352v3.6c0,1.008-.1,1.992-.12,2.328H-26.5a21.34,21.34,0,0,1-.12-2.328v-3.6h6.336v.96c0,6.36-2.112,8.424-6.6,10.08l2.04,1.92C-19.224-1.224-17.832-4.656-17.832-10.848Zm8.256,1.9L-8.4-6.576A49.1,49.1,0,0,0,.456-10.3v8.352A27.811,27.811,0,0,1,.312.888H3.288A18.048,18.048,0,0,1,3.12-1.944V-11.9A40.486,40.486,0,0,0,9.576-17.16L7.56-19.08A29.625,29.625,0,0,1,.888-13.368,39.631,39.631,0,0,1-9.576-8.952Zm34.968-9.72-2.784-.912a10.64,10.64,0,0,1-.888,2.16A20.368,20.368,0,0,1,14.184-9.48L16.3-7.9a25.063,25.063,0,0,0,6.1-5.88H29.88A18.022,18.022,0,0,1,26.232-6.7a19.229,19.229,0,0,1-9.624,6L18.84,1.3a21.627,21.627,0,0,0,9.6-6.648,23.753,23.753,0,0,0,4.224-8.16,8.213,8.213,0,0,1,.672-1.464l-1.968-1.2a5.636,5.636,0,0,1-1.8.24h-5.76c.12-.192.24-.408.336-.6C24.408-17.016,24.912-17.952,25.392-18.672ZM47.76-.528,49.344.792a7.46,7.46,0,0,1,.912-.6A25.252,25.252,0,0,0,58.44-6.432L56.976-8.5a16.884,16.884,0,0,1-6.528,5.52V-16.248a14.455,14.455,0,0,1,.12-1.92H47.784a17.59,17.59,0,0,1,.144,1.92V-2.04A6.922,6.922,0,0,1,47.76-.528ZM36.7-.744,39,.792a13.484,13.484,0,0,0,4.272-6.72c.648-2.4.744-7.512.744-10.248a17.963,17.963,0,0,1,.12-1.92H41.352a7.479,7.479,0,0,1,.192,1.944c0,2.76,0,7.44-.7,9.576A11.109,11.109,0,0,1,36.7-.744Z" transform="translate(193.781 156.418)" fill="#0cb04b"/>
  <g id="グループ_961" data-name="グループ 961" transform="translate(-1115.219 -2734)">
    <g id="グループ_677" data-name="グループ 677" transform="translate(1034.219 2923.367)">
      <g id="マスクグループ_10" data-name="マスクグループ 10" transform="translate(155.463 0)" clip-path="url(#clip-path)">
        <path id="パス_99" data-name="パス 99" d="M0,18.846,11.335,0,22.347,19.6" transform="translate(15.826 4.65) rotate(90)" fill="none" stroke="#0cb04b" stroke-width="7"/>
      </g>
      <rect id="長方形_146" data-name="長方形 146" width="73.463" height="6.948" transform="translate(82 12.159)" fill="#0cb04b"/>
    </g>
    <path id="パス_623" data-name="パス 623" d="M0,0H41.463l-6,6.948H0Z" transform="translate(1115.219 2935.526)" fill="#0077c0"/>
  </g>
  <g id="グループ_962" data-name="グループ 962" transform="translate(-1115.219 -2821)">
    <g id="グループ_677-2" data-name="グループ 677" transform="translate(1034.219 2923.367)">
      <g id="マスクグループ_10-2" data-name="マスクグループ 10" transform="translate(155.463 0)" clip-path="url(#clip-path)">
        <path id="パス_99-2" data-name="パス 99" d="M0,18.846,11.335,0,22.347,19.6" transform="translate(15.826 4.65) rotate(90)" fill="none" stroke="#0cb04b" stroke-width="7"/>
      </g>
      <rect id="長方形_146-2" data-name="長方形 146" width="73.463" height="6.948" transform="translate(82 12.159)" fill="#0cb04b"/>
    </g>
    <path id="パス_623-2" data-name="パス 623" d="M0,0H41.463l-6,6.948H0Z" transform="translate(1115.219 2935.526)" fill="#0077c0"/>
  </g>
  <g id="グループ_963" data-name="グループ 963" transform="translate(-1115.219 -2908)">
    <g id="グループ_677-3" data-name="グループ 677" transform="translate(1034.219 2923.367)">
      <g id="マスクグループ_10-3" data-name="マスクグループ 10" transform="translate(155.463 0)" clip-path="url(#clip-path)">
        <path id="パス_99-3" data-name="パス 99" d="M0,18.846,11.335,0,22.347,19.6" transform="translate(15.826 4.65) rotate(90)" fill="none" stroke="#0cb04b" stroke-width="7"/>
      </g>
      <rect id="長方形_146-3" data-name="長方形 146" width="73.463" height="6.948" transform="translate(82 12.159)" fill="#0cb04b"/>
    </g>
    <path id="パス_623-3" data-name="パス 623" d="M0,0H41.463l-6,6.948H0Z" transform="translate(1115.219 2935.526)" fill="#0077c0"/>
  </g>
  <g id="リサイクル矢印2" transform="translate(167.487 68.196)">
    <path id="パス_627" data-name="パス 627" d="M8.175,200.559l5.439-9.575,4.455,2.573-6.058-10.5L0,183.08l4.281,2.528s-2.553,4.29-3.117,5.277c-.907,1.583-1.373,3.9-.365,5.512.154.253,3.051,5.414,5.388,9.469.049-1.8.966-3.474,1.992-5.308h0Z" transform="translate(0 -160.839)" fill="none" stroke="#0cb04b" stroke-width="1"/>
    <path id="パス_628" data-name="パス 628" d="M69.37,361.618c.13.224.261.446.384.666.6,1.031,2.03,2.384,7.6,2.286,1.217-.023,6.065.011,7.511.023l.07-10.9-14.191-.1C69.145,356.449,67.785,358.871,69.37,361.618Z" transform="translate(-61.612 -313.86)" fill="none" stroke="#0cb04b" stroke-width="1"/>
    <path id="パス_629" data-name="パス 629" d="M100.894,3.8h-.767c-1.187,0-3.082.564-5.781,5.442-.589,1.063-3.042,5.246-3.773,6.491l9.4,5.515L107.162,9.01C105.484,6.192,104.067,3.8,100.894,3.8Z" transform="translate(-81.269)" fill="none" stroke="#0cb04b" stroke-width="1"/>
    <path id="パス_630" data-name="パス 630" d="M238.6,20.286,244.58,9.874l-4.327,2.444s-2.447-4.361-3.014-5.338c-.916-1.579-2.693-3.138-4.591-3.075-.292.008-6.214-.063-10.895-.068,1.531.944,2.526,2.573,3.6,4.38l0-.009,5.577,9.5-4.457,2.573Z" transform="translate(-198.977 -0.03)" fill="none" stroke="#0cb04b" stroke-width="1"/>
    <path id="パス_631" data-name="パス 631" d="M284.945,309.884l-11.017.079v-5.145l-6.064,10.5,6.025,10.386.051-4.969s5,.062,6.129.056c1.826-.008,4.061-.76,4.958-2.441.139-.257,3.162-5.353,5.5-9.4-1.578.854-3.492.9-5.588.924Z" transform="translate(-240.351 -270.097)" fill="none" stroke="#0cb04b" stroke-width="1"/>
    <path id="パス_632" data-name="パス 632" d="M374.528,179.911c-.624-1.045-3.018-5.257-3.733-6.517l-9.478,5.387,7.008,12.345c3.277-.042,6.054-.076,7.64-2.818l.388-.672C376.944,186.609,377.4,184.688,374.528,179.911Z" transform="translate(-324.207 -152.171)" fill="none" stroke="#0cb04b" stroke-width="1"/>
  </g>
</svg>
