<svg id="コンポーネント_11_1" data-name="コンポーネント 11 – 1" xmlns="http://www.w3.org/2000/svg" width="668.387" height="94.5" viewBox="0 0 668.387 94.5">
  <path id="パス_808" data-name="パス 808" d="M28.035-1.05a33,33,0,0,0,9.686-1.313,19.764,19.764,0,0,0,7.271-3.911,16.953,16.953,0,0,0,4.568-6.379,22.658,22.658,0,0,0,1.575-8.768,15.2,15.2,0,0,0-1.286-6.353,13.461,13.461,0,0,0-3.675-4.83,16.772,16.772,0,0,0-5.854-3.071,26.142,26.142,0,0,0-7.77-1.076H13.44L9.03-1.05ZM13.6-37.8H30.45a24.714,24.714,0,0,0,10-1.838A20.2,20.2,0,0,0,47.3-44.389,18.841,18.841,0,0,0,51.24-50.82a20.46,20.46,0,0,0,1.26-6.93q0-6.93-4.489-10.815T34.23-72.45H17.85ZM34.335-73.5q9.765,0,14.542,4.069T53.655-57.96a19.818,19.818,0,0,1-1.417,7.429,21.769,21.769,0,0,1-3.859,6.326,20.724,20.724,0,0,1-5.722,4.567,18.273,18.273,0,0,1-7.009,2.153,23.6,23.6,0,0,1,7.035,1.575A16.915,16.915,0,0,1,47.959-32.6a13.529,13.529,0,0,1,3.307,4.83A16.488,16.488,0,0,1,52.4-21.525a23.363,23.363,0,0,1-1.68,9.135,18.226,18.226,0,0,1-4.83,6.746,21.316,21.316,0,0,1-7.691,4.2A33.82,33.82,0,0,1,27.93,0H7.665L16.7-73.5ZM98.07-51.135a18.45,18.45,0,0,0-8.951,2.153,23.957,23.957,0,0,0-6.93,5.67,31.527,31.527,0,0,0-4.882,8.006,42.368,42.368,0,0,0-2.756,9.161q7.77-.84,13.388-1.916a80.373,80.373,0,0,0,9.5-2.336,30.486,30.486,0,0,0,6.274-2.7,14.6,14.6,0,0,0,3.7-3.019,8.548,8.548,0,0,0,1.759-3.229,12.941,12.941,0,0,0,.446-3.386,7.226,7.226,0,0,0-.6-2.73,7.868,7.868,0,0,0-1.943-2.73,10.586,10.586,0,0,0-3.57-2.1A15.483,15.483,0,0,0,98.07-51.135ZM109.2-9.555a48.03,48.03,0,0,1-4.8,4.594,28.846,28.846,0,0,1-4.7,3.176A19.856,19.856,0,0,1,94.867.053a22.745,22.745,0,0,1-5.2.577A18.553,18.553,0,0,1,82.294-.735a14.11,14.11,0,0,1-5.3-3.885,16.5,16.5,0,0,1-3.176-6.169,29.7,29.7,0,0,1-1.05-8.216,42.429,42.429,0,0,1,.735-7.744A40.3,40.3,0,0,1,75.7-34.388a38.344,38.344,0,0,1,3.623-6.93,27.233,27.233,0,0,1,4.961-5.67,22.412,22.412,0,0,1,6.248-3.806,19.9,19.9,0,0,1,7.534-1.391,16.055,16.055,0,0,1,6.09,1,11.156,11.156,0,0,1,3.832,2.467,8.658,8.658,0,0,1,2,3.1,8.779,8.779,0,0,1,.578,2.888,13.719,13.719,0,0,1-.551,3.911,9.626,9.626,0,0,1-1.995,3.544A15.14,15.14,0,0,1,104-32.13a34.915,34.915,0,0,1-6.589,2.756,82.974,82.974,0,0,1-9.686,2.363q-5.67,1.076-13.335,1.916a40.35,40.35,0,0,0-.472,6.09,27.787,27.787,0,0,0,1,7.744,16.346,16.346,0,0,0,2.966,5.854,12.858,12.858,0,0,0,4.935,3.7A17.376,17.376,0,0,0,89.775-.42a19.459,19.459,0,0,0,5.434-.709,22.238,22.238,0,0,0,4.384-1.759,22.489,22.489,0,0,0,3.439-2.258q1.5-1.207,2.572-2.257t1.811-1.759a2.035,2.035,0,0,1,1.155-.709.712.712,0,0,1,.525.21Zm62.317-41.9L134.872,18.06a1.281,1.281,0,0,1-1.155.84h-.63L143.64-.893,129.412-51.45h.63a.8.8,0,0,1,.84.735L144.007-3.99q.1.525.21,1.024a9.609,9.609,0,0,1,.158,1.024,16.283,16.283,0,0,1,.892-2.048l24.675-46.935a.878.878,0,0,1,.84-.525ZM201.757-.42a17.635,17.635,0,0,0,9.476-2.651,24.89,24.89,0,0,0,7.324-7.009A34.68,34.68,0,0,0,223.282-20a39.209,39.209,0,0,0,1.68-11.393,27.365,27.365,0,0,0-1.155-8.269,17.776,17.776,0,0,0-3.308-6.2,14.475,14.475,0,0,0-5.2-3.911,16.506,16.506,0,0,0-6.825-1.365,18.05,18.05,0,0,0-6.536,1.181,20.176,20.176,0,0,0-5.644,3.308,25.537,25.537,0,0,0-4.62,5.04,32.64,32.64,0,0,0-3.465,6.353,39.062,39.062,0,0,0-2.179,7.245,39.389,39.389,0,0,0-.761,7.744,27.622,27.622,0,0,0,1.155,8.3,18.288,18.288,0,0,0,3.281,6.248,14.111,14.111,0,0,0,5.171,3.938A16.639,16.639,0,0,0,201.757-.42Zm-.1,1.05a17.851,17.851,0,0,1-7.376-1.47,15.458,15.458,0,0,1-5.565-4.174,18.675,18.675,0,0,1-3.491-6.562,29.043,29.043,0,0,1-1.208-8.689,40.59,40.59,0,0,1,.788-7.98,38.679,38.679,0,0,1,2.284-7.481,34.986,34.986,0,0,1,3.622-6.562,25.652,25.652,0,0,1,4.856-5.224,21.612,21.612,0,0,1,6.011-3.439,19.75,19.75,0,0,1,7.009-1.234,17.669,17.669,0,0,1,7.35,1.47,15.516,15.516,0,0,1,5.539,4.174,19.037,19.037,0,0,1,3.518,6.536,28.027,28.027,0,0,1,1.234,8.61,40.325,40.325,0,0,1-.788,7.928,39.317,39.317,0,0,1-2.284,7.507,35.439,35.439,0,0,1-3.623,6.615,25.351,25.351,0,0,1-4.856,5.25A22.139,22.139,0,0,1,208.661-.63,19.382,19.382,0,0,1,201.652.63Zm49.3-31.5a50.329,50.329,0,0,1,4.83-8.82,37.711,37.711,0,0,1,5.854-6.72,25.191,25.191,0,0,1,6.484-4.279,16.4,16.4,0,0,1,6.72-1.5q6.667,0,9.188,5.04t1.417,14.175L281.557,0H280.4l3.885-32.97a37.444,37.444,0,0,0,.236-7.665,15.891,15.891,0,0,0-1.444-5.7,8.327,8.327,0,0,0-3.229-3.57,9.856,9.856,0,0,0-5.119-1.234,15.129,15.129,0,0,0-6.589,1.6,25.431,25.431,0,0,0-6.458,4.568,41.662,41.662,0,0,0-5.932,7.193,59.659,59.659,0,0,0-5.066,9.476L247.327,0h-1.155l6.195-51.66h.21q.42,0,.525.236a1.215,1.215,0,0,1,.1.5Zm95.288-10.657a19.407,19.407,0,0,0-2.861-4.515,14.746,14.746,0,0,0-3.465-2.966A13.839,13.839,0,0,0,336-50.636a17.683,17.683,0,0,0-4.2-.5,16.224,16.224,0,0,0-7.009,1.522,21.69,21.69,0,0,0-5.88,4.1,29.554,29.554,0,0,0-4.7,5.959,41.549,41.549,0,0,0-3.439,7.166,45.787,45.787,0,0,0-2.1,7.718,42.687,42.687,0,0,0-.709,7.56,27.835,27.835,0,0,0,.788,6.9,16.032,16.032,0,0,0,2.31,5.25,10.453,10.453,0,0,0,3.806,3.36A11.325,11.325,0,0,0,320.145-.42a14.55,14.55,0,0,0,6.72-1.733,24.886,24.886,0,0,0,6.484-4.988,44.416,44.416,0,0,0,5.906-7.875,65.2,65.2,0,0,0,4.987-10.4ZM351.645-75.6,342.4,0h-.315q-.42,0-.525-.236a1.214,1.214,0,0,1-.105-.5l2.573-21.945a57.157,57.157,0,0,1-4.751,9.424,43.191,43.191,0,0,1-5.775,7.376,24.783,24.783,0,0,1-6.484,4.8A15.244,15.244,0,0,1,320.145.63a12.274,12.274,0,0,1-5.932-1.365,12.018,12.018,0,0,1-4.174-3.728A16.428,16.428,0,0,1,307.6-10.08a29.87,29.87,0,0,1-.788-7.035,42.411,42.411,0,0,1,.761-7.8,45.938,45.938,0,0,1,2.258-7.98,42.89,42.89,0,0,1,3.675-7.4,31.365,31.365,0,0,1,4.961-6.143,22.551,22.551,0,0,1,6.142-4.2,17.22,17.22,0,0,1,7.3-1.549,17.7,17.7,0,0,1,4.41.551,15.722,15.722,0,0,1,4.042,1.654A14.824,14.824,0,0,1,343.8-47.2a16.342,16.342,0,0,1,2.651,3.938L350.49-75.6Z" transform="translate(-7.665 75.6)"/>
  <path id="パス_809" data-name="パス 809" d="M99.015-73.5,68.565,0h-1.05L53.655-70.56a4.764,4.764,0,0,1-.131-.892q-.026-.473-.079-.945a12.552,12.552,0,0,1-.63,1.838L21.63,0H20.58L8.19-73.5h.945a.464.464,0,0,1,.525.525L21-3.885q.21,1.05.368,2.31.21-.63.42-1.181t.473-1.129l30.555-69.09a.744.744,0,0,1,.735-.525h.21q.472,0,.525.525L67.83-3.885q.21,1.05.368,2.31.21-.63.42-1.181t.473-1.129l28.245-69.09a.756.756,0,0,1,.341-.394,1.012,1.012,0,0,1,.5-.131Zm45.307,24.465a15.729,15.729,0,0,0-4.042-1.523,20.543,20.543,0,0,0-4.515-.472,21.576,21.576,0,0,0-7.4,1.313,28.8,28.8,0,0,0-6.878,3.623,32.827,32.827,0,0,0-5.985,5.512,38.234,38.234,0,0,0-4.725,6.983,37.356,37.356,0,0,0-3.1,7.98,33.363,33.363,0,0,0-1.1,8.505,33.159,33.159,0,0,0,.656,6.9,16.193,16.193,0,0,0,2.021,5.25A9.508,9.508,0,0,0,112.77-1.6,10.543,10.543,0,0,0,117.915-.42a14.088,14.088,0,0,0,6.641-1.733A23.543,23.543,0,0,0,130.83-7.14a44.735,44.735,0,0,0,5.67-7.875,71.8,71.8,0,0,0,4.883-10.4Zm-3.15,26.407a65.181,65.181,0,0,1-4.594,9.4,40.356,40.356,0,0,1-5.539,7.35,24.319,24.319,0,0,1-6.3,4.8A14.713,14.713,0,0,1,117.915.63a11.893,11.893,0,0,1-5.8-1.312,10.563,10.563,0,0,1-3.885-3.675,17.29,17.29,0,0,1-2.2-5.618,33.584,33.584,0,0,1-.709-7.14,33.492,33.492,0,0,1,1.155-8.715,39.411,39.411,0,0,1,3.2-8.19,38.84,38.84,0,0,1,4.882-7.193,34.807,34.807,0,0,1,6.221-5.722,29.486,29.486,0,0,1,7.193-3.78,22.931,22.931,0,0,1,7.8-1.365,22.881,22.881,0,0,1,5.2.551,14.521,14.521,0,0,1,4.568,1.969L139.545,0h-.315q-.42,0-.525-.236a1.215,1.215,0,0,1-.1-.5Zm55.387-24.2a.543.543,0,0,1-.525.315q-.367,0-1.05-.709A11.98,11.98,0,0,0,192.99-48.8a15.61,15.61,0,0,0-3.412-1.6,16.266,16.266,0,0,0-5.3-.735,15.8,15.8,0,0,0-5.723,1.05,16.264,16.264,0,0,0-4.83,2.861,14.1,14.1,0,0,0-3.334,4.174,10.524,10.524,0,0,0-1.234,4.935,7.444,7.444,0,0,0,1.05,4.069,9.57,9.57,0,0,0,2.756,2.809,19.268,19.268,0,0,0,3.885,1.995q2.179.84,4.462,1.654t4.489,1.732a17.27,17.27,0,0,1,3.911,2.231,10.223,10.223,0,0,1,2.756,3.229,9.545,9.545,0,0,1,1.05,4.646,15.562,15.562,0,0,1-1.26,6.09,16.994,16.994,0,0,1-3.544,5.329,17.456,17.456,0,0,1-5.486,3.754A17.453,17.453,0,0,1,176.085.84,20.4,20.4,0,0,1,171.6.394,15.623,15.623,0,0,1,168.053-.84a14.091,14.091,0,0,1-2.914-1.943,27.652,27.652,0,0,1-2.6-2.573l.315-.315a.86.86,0,0,1,.525-.315q.263,0,1,.919a12.279,12.279,0,0,0,2.205,2.021,16.3,16.3,0,0,0,3.806,2.021,16.285,16.285,0,0,0,5.906.919,16.743,16.743,0,0,0,6.563-1.26,15.834,15.834,0,0,0,5.119-3.386,15.219,15.219,0,0,0,3.307-4.961,15.539,15.539,0,0,0,1.181-6.038,8.458,8.458,0,0,0-1.05-4.357,9.864,9.864,0,0,0-2.756-3.019,16.91,16.91,0,0,0-3.911-2.074q-2.2-.84-4.489-1.628t-4.463-1.68a18.688,18.688,0,0,1-3.885-2.126,9.759,9.759,0,0,1-2.756-3.045,8.715,8.715,0,0,1-1.05-4.436,11.669,11.669,0,0,1,1.286-5.329,14.706,14.706,0,0,1,3.518-4.489,17.513,17.513,0,0,1,5.2-3.1,17.425,17.425,0,0,1,6.379-1.155A18.279,18.279,0,0,1,191.415-51a15.084,15.084,0,0,1,5.355,3.859ZM218.348-7.665q0-.262.026-.761t.1-1.418q.079-.919.262-2.363t.446-3.649l3.938-32.34H215.3q-.63,0-.63-.525l.1-.315,8.452-.21,2.887-20.685a1.382,1.382,0,0,1,.21-.5.483.483,0,0,1,.42-.236h.315l-2.625,21.42H240.5L240.4-48.2H224.28L220.342-15.75q-.263,2.153-.446,3.57t-.262,2.363q-.079.945-.1,1.444t-.026.709a10.325,10.325,0,0,0,.5,3.413,6.042,6.042,0,0,0,1.391,2.31,5.473,5.473,0,0,0,2.1,1.312,7.94,7.94,0,0,0,2.625.42,9.229,9.229,0,0,0,3.649-.683,17.124,17.124,0,0,0,2.783-1.47,15.4,15.4,0,0,0,1.916-1.47q.735-.682,1-.683a.423.423,0,0,1,.42.21l.105.21a13.489,13.489,0,0,1-4.463,3.544A12.031,12.031,0,0,1,226.012.84a7.688,7.688,0,0,1-5.644-2Q218.348-3.15,218.348-7.665Zm63.21-43.47a18.45,18.45,0,0,0-8.951,2.153,23.957,23.957,0,0,0-6.93,5.67,31.527,31.527,0,0,0-4.883,8.006,42.367,42.367,0,0,0-2.756,9.161q7.77-.84,13.388-1.916a80.373,80.373,0,0,0,9.5-2.336,30.486,30.486,0,0,0,6.274-2.7,14.6,14.6,0,0,0,3.7-3.019,8.548,8.548,0,0,0,1.759-3.229,12.94,12.94,0,0,0,.446-3.386,7.226,7.226,0,0,0-.6-2.73,7.868,7.868,0,0,0-1.943-2.73,10.586,10.586,0,0,0-3.57-2.1A15.483,15.483,0,0,0,281.557-51.135Zm11.13,41.58a48.028,48.028,0,0,1-4.8,4.594,28.846,28.846,0,0,1-4.7,3.176,19.855,19.855,0,0,1-4.83,1.838,22.745,22.745,0,0,1-5.2.577,18.553,18.553,0,0,1-7.376-1.365,14.11,14.11,0,0,1-5.3-3.885,16.5,16.5,0,0,1-3.176-6.169,29.7,29.7,0,0,1-1.05-8.216,42.427,42.427,0,0,1,.735-7.744,40.3,40.3,0,0,1,2.2-7.639,38.345,38.345,0,0,1,3.622-6.93,27.233,27.233,0,0,1,4.961-5.67,22.412,22.412,0,0,1,6.247-3.806,19.9,19.9,0,0,1,7.534-1.391,16.055,16.055,0,0,1,6.09,1,11.157,11.157,0,0,1,3.832,2.467,8.659,8.659,0,0,1,1.995,3.1,8.78,8.78,0,0,1,.578,2.888,13.72,13.72,0,0,1-.551,3.911,9.626,9.626,0,0,1-1.995,3.544,15.14,15.14,0,0,1-4.016,3.15,34.915,34.915,0,0,1-6.589,2.756,82.974,82.974,0,0,1-9.686,2.363q-5.67,1.076-13.335,1.916a40.349,40.349,0,0,0-.473,6.09,27.786,27.786,0,0,0,1,7.744,16.346,16.346,0,0,0,2.966,5.854,12.858,12.858,0,0,0,4.935,3.7A17.376,17.376,0,0,0,273.263-.42a19.459,19.459,0,0,0,5.434-.709,22.238,22.238,0,0,0,4.384-1.759,22.49,22.49,0,0,0,3.439-2.258q1.5-1.207,2.572-2.257T290.9-9.161a2.035,2.035,0,0,1,1.155-.709.712.712,0,0,1,.525.21Z" transform="translate(374.335 76.392)"/>
</svg>
