<svg id="コンポーネント_20_1" data-name="コンポーネント 20 – 1" xmlns="http://www.w3.org/2000/svg" width="353.115" height="66.723" viewBox="0 0 353.115 66.723">
  <path id="パス_814" data-name="パス 814" d="M-151.47-7.672a1.207,1.207,0,0,1,.878.382l2.385,2.587a13.1,13.1,0,0,1-4.871,3.758A16.787,16.787,0,0,1-160.02.36a16.4,16.4,0,0,1-6.514-1.238,14.357,14.357,0,0,1-4.939-3.443,15.071,15.071,0,0,1-3.139-5.265,19.763,19.763,0,0,1-1.091-6.682,18.6,18.6,0,0,1,1.17-6.716,15.437,15.437,0,0,1,3.3-5.254,14.918,14.918,0,0,1,5.074-3.431,16.828,16.828,0,0,1,6.525-1.226,16.026,16.026,0,0,1,6.311,1.17,15.035,15.035,0,0,1,4.691,3.06l-2.025,2.813a1.837,1.837,0,0,1-.461.472,1.307,1.307,0,0,1-.776.2,1.484,1.484,0,0,1-.7-.191q-.36-.191-.787-.472t-.99-.619a8.149,8.149,0,0,0-1.3-.619,10.652,10.652,0,0,0-1.721-.472,11.892,11.892,0,0,0-2.261-.191,10.035,10.035,0,0,0-3.994.776,8.679,8.679,0,0,0-3.116,2.25,10.372,10.372,0,0,0-2.025,3.6,15.086,15.086,0,0,0-.72,4.849,14.252,14.252,0,0,0,.776,4.883,10.735,10.735,0,0,0,2.1,3.6,8.983,8.983,0,0,0,3.128,2.239,9.667,9.667,0,0,0,3.87.776A16.858,16.858,0,0,0-157.4-4.9a9.5,9.5,0,0,0,1.845-.428,8.19,8.19,0,0,0,1.6-.754,9.982,9.982,0,0,0,1.5-1.136,2.133,2.133,0,0,1,.472-.326A1.143,1.143,0,0,1-151.47-7.672Zm21.308-15.413V0h-5.58V-23.085Zm.765-6.728a3.166,3.166,0,0,1-.293,1.35,3.71,3.71,0,0,1-.776,1.1,3.71,3.71,0,0,1-1.136.754,3.486,3.486,0,0,1-1.4.281,3.352,3.352,0,0,1-1.361-.281,3.606,3.606,0,0,1-1.114-.754,3.645,3.645,0,0,1-.754-1.1,3.274,3.274,0,0,1-.281-1.35,3.486,3.486,0,0,1,.281-1.395,3.571,3.571,0,0,1,.754-1.125,3.606,3.606,0,0,1,1.114-.754A3.352,3.352,0,0,1-133-33.368a3.486,3.486,0,0,1,1.4.281,3.71,3.71,0,0,1,1.136.754,3.629,3.629,0,0,1,.776,1.125A3.371,3.371,0,0,1-129.4-29.813ZM-110.25-19.08a9.954,9.954,0,0,1,2.565-3.251,5.469,5.469,0,0,1,3.51-1.181,4.293,4.293,0,0,1,2.565.7l-.36,4.163a1.075,1.075,0,0,1-.326.574.9.9,0,0,1-.574.169,6.557,6.557,0,0,1-1-.112,7.736,7.736,0,0,0-1.294-.113,4.657,4.657,0,0,0-1.643.27,4.131,4.131,0,0,0-1.294.776,5.291,5.291,0,0,0-1.013,1.226,11.965,11.965,0,0,0-.821,1.642V0h-5.557V-23.085h3.262a1.8,1.8,0,0,1,1.192.3,1.785,1.785,0,0,1,.45,1.091Zm36.428.878a2.77,2.77,0,0,1-.484.495,1.117,1.117,0,0,1-.686.18,1.528,1.528,0,0,1-.833-.259q-.4-.259-.967-.585a7.233,7.233,0,0,0-1.339-.585,6.151,6.151,0,0,0-1.924-.259,5.869,5.869,0,0,0-2.565.529,4.862,4.862,0,0,0-1.834,1.519,6.843,6.843,0,0,0-1.091,2.4,12.867,12.867,0,0,0-.36,3.184A12.482,12.482,0,0,0-85.511-8.3a7.024,7.024,0,0,0,1.136,2.419,4.889,4.889,0,0,0,1.8,1.485,5.455,5.455,0,0,0,2.385.506,5.913,5.913,0,0,0,2.149-.326,6.78,6.78,0,0,0,1.384-.72q.563-.394.979-.72a1.475,1.475,0,0,1,.934-.326,1.128,1.128,0,0,1,1.012.517l1.6,2.025a10.047,10.047,0,0,1-2,1.811,10.824,10.824,0,0,1-2.239,1.17,11.385,11.385,0,0,1-2.385.619A16.789,16.789,0,0,1-81.2.338a10.239,10.239,0,0,1-4.027-.8A9.513,9.513,0,0,1-88.537-2.79a11.121,11.121,0,0,1-2.239-3.746,14.474,14.474,0,0,1-.821-5.051,14.682,14.682,0,0,1,.731-4.714,10.679,10.679,0,0,1,2.149-3.757,9.852,9.852,0,0,1,3.51-2.486,12.092,12.092,0,0,1,4.815-.9,11.454,11.454,0,0,1,4.534.833,11.078,11.078,0,0,1,3.5,2.385Zm34.042-4.883V0h-3.4a1.309,1.309,0,0,1-1.4-1.013l-.382-1.845A12.4,12.4,0,0,1-48.083-.529,8.621,8.621,0,0,1-52.11.36a8.2,8.2,0,0,1-3.341-.641,6.692,6.692,0,0,1-2.441-1.811,7.93,7.93,0,0,1-1.5-2.779A11.761,11.761,0,0,1-59.9-8.415v-14.67h5.557v14.67a4.93,4.93,0,0,0,.979,3.274,3.628,3.628,0,0,0,2.936,1.159,5.869,5.869,0,0,0,2.7-.641A9.438,9.438,0,0,0-45.338-6.39v-16.7Zm20.115-10.35V0h-5.557V-33.435ZM7.088-9.855a30.65,30.65,0,0,0-4.05.416,10.8,10.8,0,0,0-2.632.776,3.461,3.461,0,0,0-1.418,1.1A2.4,2.4,0,0,0-1.44-6.187,2.413,2.413,0,0,0-.574-4.095a3.755,3.755,0,0,0,2.261.63,6.6,6.6,0,0,0,2.959-.619A8.787,8.787,0,0,0,7.088-5.962ZM-5.647-19.868a13.7,13.7,0,0,1,9.585-3.645,9.367,9.367,0,0,1,3.623.664A7.654,7.654,0,0,1,10.26-21a7.9,7.9,0,0,1,1.676,2.824,10.851,10.851,0,0,1,.574,3.6V0H9.99A2.547,2.547,0,0,1,8.775-.236,1.638,1.638,0,0,1,8.1-1.192L7.605-2.858A20.091,20.091,0,0,1,5.9-1.474a10.066,10.066,0,0,1-1.733,1A9.308,9.308,0,0,1,2.239.146,11.084,11.084,0,0,1-.022.36a8.864,8.864,0,0,1-2.7-.394A5.933,5.933,0,0,1-4.86-1.215a5.3,5.3,0,0,1-1.4-1.958A6.944,6.944,0,0,1-6.75-5.895a5.42,5.42,0,0,1,.293-1.744A5.1,5.1,0,0,1-5.5-9.292,7.961,7.961,0,0,1-3.78-10.778a11.185,11.185,0,0,1,2.6-1.215,22.453,22.453,0,0,1,3.589-.844,35.848,35.848,0,0,1,4.68-.394v-1.35a5.053,5.053,0,0,0-.99-3.431A3.623,3.623,0,0,0,3.24-19.125,6.785,6.785,0,0,0,1-18.81,9.213,9.213,0,0,0-.562-18.1q-.675.394-1.226.709a2.427,2.427,0,0,1-1.226.315,1.6,1.6,0,0,1-.99-.3,2.538,2.538,0,0,1-.652-.709Zm37.62.788a9.954,9.954,0,0,1,2.565-3.251,5.468,5.468,0,0,1,3.51-1.181,4.293,4.293,0,0,1,2.565.7l-.36,4.163a1.075,1.075,0,0,1-.326.574.9.9,0,0,1-.574.169,6.557,6.557,0,0,1-1-.112,7.737,7.737,0,0,0-1.294-.113,4.656,4.656,0,0,0-1.642.27,4.131,4.131,0,0,0-1.294.776,5.291,5.291,0,0,0-1.013,1.226,11.965,11.965,0,0,0-.821,1.642V0H26.73V-23.085h3.262a1.8,1.8,0,0,1,1.193.3,1.785,1.785,0,0,1,.45,1.091ZM94.725-7.672a1.207,1.207,0,0,1,.878.382L97.988-4.7A13.1,13.1,0,0,1,93.116-.945,16.787,16.787,0,0,1,86.175.36,16.4,16.4,0,0,1,79.661-.877,14.357,14.357,0,0,1,74.723-4.32a15.071,15.071,0,0,1-3.139-5.265,19.763,19.763,0,0,1-1.091-6.682,18.6,18.6,0,0,1,1.17-6.716,15.437,15.437,0,0,1,3.3-5.254,14.918,14.918,0,0,1,5.074-3.431A16.828,16.828,0,0,1,86.558-32.9a16.026,16.026,0,0,1,6.311,1.17,15.036,15.036,0,0,1,4.691,3.06l-2.025,2.813a1.837,1.837,0,0,1-.461.472,1.307,1.307,0,0,1-.776.2,1.484,1.484,0,0,1-.7-.191q-.36-.191-.787-.472t-.99-.619a8.149,8.149,0,0,0-1.305-.619,10.652,10.652,0,0,0-1.721-.472,11.891,11.891,0,0,0-2.261-.191,10.035,10.035,0,0,0-3.994.776,8.679,8.679,0,0,0-3.116,2.25,10.372,10.372,0,0,0-2.025,3.6,15.086,15.086,0,0,0-.72,4.849,14.252,14.252,0,0,0,.776,4.883,10.735,10.735,0,0,0,2.1,3.6,8.983,8.983,0,0,0,3.127,2.239,9.667,9.667,0,0,0,3.87.776A16.858,16.858,0,0,0,88.8-4.9a9.5,9.5,0,0,0,1.845-.428,8.191,8.191,0,0,0,1.6-.754,9.981,9.981,0,0,0,1.5-1.136,2.133,2.133,0,0,1,.473-.326A1.143,1.143,0,0,1,94.725-7.672Zm21.307-15.413V0h-5.58V-23.085Zm.765-6.728a3.167,3.167,0,0,1-.293,1.35,3.71,3.71,0,0,1-.776,1.1,3.71,3.71,0,0,1-1.136.754,3.486,3.486,0,0,1-1.4.281,3.352,3.352,0,0,1-1.361-.281,3.606,3.606,0,0,1-1.114-.754,3.645,3.645,0,0,1-.754-1.1,3.274,3.274,0,0,1-.281-1.35,3.486,3.486,0,0,1,.281-1.395,3.571,3.571,0,0,1,.754-1.125,3.606,3.606,0,0,1,1.114-.754,3.352,3.352,0,0,1,1.361-.281,3.486,3.486,0,0,1,1.4.281,3.71,3.71,0,0,1,1.136.754,3.629,3.629,0,0,1,.776,1.125A3.371,3.371,0,0,1,116.8-29.813ZM138.4.36a6.065,6.065,0,0,1-4.624-1.7,6.548,6.548,0,0,1-1.609-4.691V-18.923H129.8a1.083,1.083,0,0,1-.765-.292,1.141,1.141,0,0,1-.315-.878v-2.2l3.712-.608,1.17-6.3a1.235,1.235,0,0,1,.427-.7,1.272,1.272,0,0,1,.81-.248h2.88v7.268h6.165v3.96h-6.165v12.51a2.486,2.486,0,0,0,.529,1.688,1.824,1.824,0,0,0,1.451.608,2.615,2.615,0,0,0,.866-.124,4.768,4.768,0,0,0,.607-.259q.259-.135.461-.259a.771.771,0,0,1,.405-.124.636.636,0,0,1,.4.124,1.877,1.877,0,0,1,.337.371l1.665,2.7a8.413,8.413,0,0,1-2.79,1.53A10.385,10.385,0,0,1,138.4.36Zm39.015-23.445L164.835,6.345a2.148,2.148,0,0,1-.641.889,1.961,1.961,0,0,1-1.2.3h-4.14l4.32-9.27-9.338-21.353h4.883a1.533,1.533,0,0,1,1.024.315,2.015,2.015,0,0,1,.551.72l4.9,11.97a11.081,11.081,0,0,1,.416,1.215q.169.607.326,1.238.2-.63.4-1.249t.45-1.226l4.635-11.948a1.638,1.638,0,0,1,.6-.742,1.586,1.586,0,0,1,.934-.293Z" transform="translate(175.703 33.435)" fill="#0077c0"/>
  <line id="線_1" data-name="線 1" x2="61.543" transform="translate(144.931 65.723)" fill="none" stroke="#28669f" stroke-width="2"/>
</svg>
