<svg xmlns="http://www.w3.org/2000/svg" width="399.302" height="49.608" viewBox="0 0 399.302 49.608">
  <path id="パス_851" data-name="パス 851" d="M-161.226-30.263h-14.151v-1.59h14.151Zm0,4.293h-14.151v-1.643h14.151Zm0,4.346h-14.151v-1.7h14.151Zm-19.981-12.985v15.794h26.076V-34.609h-11.5l.689-1.7h15.1v-4.24h-7.791c.742-1.007,1.537-2.226,2.332-3.551l-5.883-.9a39.557,39.557,0,0,1-2.279,4.452h-7.261a22.5,22.5,0,0,0-2.438-4.4l-5.141.954a23.516,23.516,0,0,1,1.8,3.445h-7.9v4.24h13.674c-.106.583-.265,1.166-.371,1.7Zm-4.876-3.18a34.7,34.7,0,0,0-7.367-6.519l-4.081,3.445a37.136,37.136,0,0,1,7.155,6.837Zm23.956,25.175c3.975-.053,7.791-.159,10.6-.265A27.007,27.007,0,0,1-149.99-17.7c-7.314.53-21.147.689-27.56.424-4.505-.159-7.685-1.325-9.434-4.24V-31.8H-198.8v4.77h6.1v6.413c-2.226,1.272-4.558,2.438-6.519,3.392l2.12,4.982c2.968-1.8,5.565-3.445,8.109-5.194,2.544,3.339,6.148,4.505,11.5,4.717,2.438.053,5.724.106,9.275.106v2.226h-30.74v4.77h11.713l-2.809,2.332a39.927,39.927,0,0,1,7.049,6.2l4.558-3.869a34.563,34.563,0,0,0-5.512-4.664h15.741v4.081c0,.583-.265.795-1.113.795-.795.053-3.71.053-6.307-.106a21.076,21.076,0,0,1,1.961,5.459c3.922,0,6.731-.053,8.851-.848,2.12-.848,2.7-2.332,2.7-5.141v-4.24h11.342v-4.77h-11.342Zm31.27-29.309v6.413h12.084c.159,1.8.371,3.71.742,5.724l-3.233-.583C-124.179-16.43-130.486-6.2-141.51-.636a50.338,50.338,0,0,1,5.777,5.141c9.222-5.512,15.582-14.31,19.557-26.182,2.915,9.487,8.533,19.5,19.5,26.129A33.933,33.933,0,0,1-91.584-1.06c-19.5-11.5-20.935-30.846-20.935-40.863ZM-69.748-5.989c0-1.8,2.067-3.286,5.83-3.286a29.435,29.435,0,0,1,4.346.371c.053.954.053,1.7.053,2.279,0,3.074-1.855,3.869-4.664,3.869C-67.84-2.756-69.748-3.975-69.748-5.989Zm16.589-36.888h-7.155A21.306,21.306,0,0,1-60-39.22v2.491h-2.067A98.948,98.948,0,0,1-75.154-37.9l.159,6.042A121.836,121.836,0,0,0-62.01-30.9h1.961c-.053,1.8-.053,3.71-.053,5.459h-2.544a93.652,93.652,0,0,1-12.773-1.007l.053,6.254c3.5.424,9.54.689,12.614.689H-60c.053,1.59.106,3.286.212,4.929-1.06-.106-2.173-.159-3.286-.159-8.162,0-13.091,3.763-13.091,9.116,0,5.618,4.452,8.851,12.932,8.851,7,0,10.441-3.5,10.441-8,0-.583,0-1.219-.053-1.961A40.624,40.624,0,0,1-42.135.636L-38.319-5.3a41.494,41.494,0,0,0-14.84-8c-.159-2.12-.265-4.293-.371-6.307,5.088-.159,9.222-.53,13.992-1.06l.053-6.254c-4.293.583-8.8,1.007-14.151,1.272v-5.459c5.141-.265,9.964-.742,13.462-1.166l.053-6.095A111.08,111.08,0,0,1-53.53-36.941c0-.848,0-1.643.053-2.173A35.794,35.794,0,0,1-53.159-42.877Zm30.316,6.519.689,7.261c6.148-1.325,16.96-2.491,21.942-3.021a21.2,21.2,0,0,0-7.9,16.377C-8.109-4.24,2.385,1.7,13.515,2.438l2.491-7.261C7-5.3-1.166-8.427-1.166-17.172c0-6.307,4.823-13.144,11.236-14.84,2.809-.689,7.367-.689,10.229-.742l-.053-6.784c-3.763.159-9.54.477-15,.954-9.7.795-18.444,1.59-22.9,1.961C-18.656-36.517-20.723-36.411-22.843-36.358Zm35.563,8.8L8.8-25.917a40.893,40.893,0,0,1,4.134,7.367l4.028-1.8A65.785,65.785,0,0,0,12.72-27.56ZM18.656-30l-3.869,1.8a46.626,46.626,0,0,1,4.346,7.155l3.975-1.908A79.276,79.276,0,0,0,18.656-30ZM80.931-18.656c0-11.554-8.268-20.67-21.412-20.67-13.727,0-24.327,10.441-24.327,22.684,0,8.957,4.876,15.423,10.759,15.423,5.777,0,10.335-6.572,13.515-17.278a107.185,107.185,0,0,0,3.18-14.363c7.155,1.219,11.13,6.678,11.13,13.992,0,7.738-5.3,12.614-12.084,14.2a40.764,40.764,0,0,1-4.929.848l3.975,6.307C74.094.424,80.931-7.473,80.931-18.656ZM41.976-17.331c0-5.83,4.717-13.568,13.462-15.37a79.554,79.554,0,0,1-2.809,12.826c-2.173,7.155-4.24,10.494-6.466,10.494C44.1-9.381,41.976-11.978,41.976-17.331Zm65.561-21.2v5.618h9.01c-.742,2.067-1.749,4.293-2.65,6.2-2.226.053-4.24.053-6.042.106l.636,5.883c7-.318,16.695-.742,25.917-1.325a28.317,28.317,0,0,1,2.014,3.445l5.3-2.915c-1.7-3.286-5.671-7.844-9.116-11.13l-4.876,2.6c.848.848,1.749,1.855,2.65,2.809-3.392.159-6.837.265-10.017.318,1.06-1.855,2.226-3.922,3.339-5.989h17.172v-5.618h-14.1v-6.307h-6.413v6.307Zm.265-.9a39.915,39.915,0,0,0-9.593-5.194l-3.445,4.664a36.4,36.4,0,0,1,9.381,5.724Zm-2.915,14.1c-2.12-1.8-6.519-3.869-9.805-5.035l-3.339,4.717a41.163,41.163,0,0,1,9.54,5.565Zm-2.173,8.374A168.39,168.39,0,0,1,93.227-.053l5.512,3.922c2.968-5.194,6.1-11.289,8.745-16.907Zm8.9,2.544c0,4.558-.689,10.388-6.784,14.734a18.45,18.45,0,0,1,4.452,4.134c7.1-5.353,8-12.773,8-18.656v-5.141h-5.671Zm8.745,16.748h5.512v-21.2h-5.512Zm15.264-3.5a.759.759,0,0,1-.583-.265,4.623,4.623,0,0,1-.106-1.484v-16.43h-5.777V-3.074c0,3.6.371,4.717,1.219,5.565a5.23,5.23,0,0,0,3.6,1.325h2.7a6.394,6.394,0,0,0,2.915-.689A3.963,3.963,0,0,0,141.351.742a37.235,37.235,0,0,0,.636-6.2,13.653,13.653,0,0,1-4.24-2.332c-.053,2.385-.106,4.24-.159,5.035-.106.848-.212,1.272-.424,1.378a.977.977,0,0,1-.689.212Zm27.189-37.047c0,.583-.106,2.067-.212,4.081-2.279.318-4.611.583-6.148.689a45.538,45.538,0,0,1-4.611.053l.689,6.784c2.968-.424,7.049-.954,9.646-1.272-.053,1.272-.159,2.544-.265,3.763-3.021,4.452-8.321,11.448-11.342,15.158L154.76-3.18c1.855-2.491,4.452-6.36,6.678-9.7-.053,4.452-.106,7.526-.212,11.66,0,.848-.053,2.7-.159,3.922h7.314c-.159-1.219-.318-3.127-.371-4.081-.318-4.982-.318-9.434-.318-13.78,0-1.378.053-2.809.106-4.293,4.346-4.77,10.07-9.646,13.992-9.646,2.226,0,3.6,1.325,3.6,3.922,0,4.823-1.908,12.614-1.908,18.338,0,5.141,2.65,8,6.625,8a14.126,14.126,0,0,0,9.964-3.922l-.848-7.473c-2.438,2.438-4.929,3.816-6.89,3.816-1.325,0-2.014-1.007-2.014-2.385,0-5.459,1.749-13.25,1.749-18.762,0-4.452-2.6-7.844-8.321-7.844-5.141,0-11.236,4.293-15.423,7.95.053-.424.053-.8.106-1.166.9-1.378,1.961-3.127,2.7-4.081l-1.961-2.544c.371-3.286.848-5.989,1.166-7.473l-7.738-.265A29.263,29.263,0,0,1,162.816-38.213Z" transform="translate(199.227 44.997)" fill="#0077c0"/>
</svg>
