<svg id="コンポーネント_24_1" data-name="コンポーネント 24 – 1" xmlns="http://www.w3.org/2000/svg" width="525.088" height="65.012" viewBox="0 0 525.088 65.012">
  <path id="パス_820" data-name="パス 820" d="M-315.1-21.7h-10.146v-1.14H-315.1Zm0,3.078h-10.146V-19.8H-315.1Zm0,3.116h-10.146V-16.72H-315.1Zm-14.326-9.31V-13.49h18.7V-24.814h-8.246l.494-1.216h10.83v-3.04h-5.586c.532-.722,1.1-1.6,1.672-2.546l-4.218-.646a28.361,28.361,0,0,1-1.634,3.192h-5.206a16.131,16.131,0,0,0-1.748-3.154l-3.686.684a16.862,16.862,0,0,1,1.292,2.47h-5.662v3.04h9.8c-.076.418-.19.836-.266,1.216Zm-3.5-2.28a24.878,24.878,0,0,0-5.282-4.674l-2.926,2.47A26.625,26.625,0,0,1-336-24.4Zm17.176,18.05c2.85-.038,5.586-.114,7.6-.19a19.363,19.363,0,0,1,1.1-3.458c-5.244.38-15.162.494-19.76.3-3.23-.114-5.51-.95-6.764-3.04V-22.8h-8.474v3.42h4.37v4.6c-1.6.912-3.268,1.748-4.674,2.432l1.52,3.572c2.128-1.292,3.99-2.47,5.814-3.724,1.824,2.394,4.408,3.23,8.246,3.382,1.748.038,4.1.076,6.65.076v1.6h-22.04v3.42h8.4l-2.014,1.672a28.627,28.627,0,0,1,5.054,4.446l3.268-2.774A24.783,24.783,0,0,0-331.4-4.028h11.286V-1.1c0,.418-.19.57-.8.57-.57.038-2.66.038-4.522-.076a15.111,15.111,0,0,1,1.406,3.914c2.812,0,4.826-.038,6.346-.608,1.52-.608,1.938-1.672,1.938-3.686v-3.04h8.132v-3.42h-8.132Zm24.32-21.014v4.6h8.664c.114,1.292.266,2.66.532,4.1l-2.318-.418c-2.09,9.994-6.612,17.328-14.516,21.318a36.094,36.094,0,0,1,4.142,3.686c6.612-3.952,11.172-10.26,14.022-18.772,2.09,6.8,6.118,13.984,13.984,18.734A24.329,24.329,0,0,1-263.264-.76c-13.984-8.246-15.01-22.116-15.01-29.3Zm68.7,4.75-3.724-2.394a12.738,12.738,0,0,1-3,.3H-247c-1.254,0-3.42-.19-4.56-.3v5.358c.988-.076,2.812-.152,4.522-.152h17.708a24.054,24.054,0,0,1-4.446,10.716c-3.078,3.838-7.372,7.144-14.9,8.93l4.142,4.522A30.4,30.4,0,0,0-229.254-8.816c3.154-4.218,4.826-10.108,5.7-13.832A16.6,16.6,0,0,1-222.718-25.308Zm14.706-1.634c.076,1.064.076,2.622.076,3.686V-4.674c0,1.824-.114,5.13-.114,5.32h5.244c0-.114,0-.988-.038-2.052h18.316c0,1.1-.038,1.976-.038,2.052h5.244c0-.152-.076-3.8-.076-5.282v-18.62c0-1.14,0-2.546.076-3.686-1.368.076-2.812.076-3.762.076h-20.9C-205.01-26.866-206.454-26.9-208.012-26.942Zm5.168,4.9h18.354V-6.27h-18.354Zm37.24,4.446v5.966c1.406-.114,3.952-.19,6.118-.19h20.406c1.6,0,3.534.152,4.446.19v-5.966c-.988.076-2.66.228-4.446.228h-20.406C-161.462-17.366-164.236-17.48-165.6-17.594Zm52.744-12.692-4.75,1.938c1.71,4.028,3.534,8.094,5.282,11.324-3.648,2.7-6.308,5.852-6.308,10.032,0,6.536,5.738,8.626,13.3,8.626a70.572,70.572,0,0,0,12.2-.95l.076-5.472a58.664,58.664,0,0,1-12.426,1.406c-5.282,0-7.9-1.444-7.9-4.18,0-2.66,2.128-4.826,5.282-6.916a112.48,112.48,0,0,1,10.6-5.624c1.406-.722,2.622-1.368,3.762-2.052l-2.622-4.408A23.745,23.745,0,0,1-99.9-24.244c-1.786,1.026-5.092,2.66-8.208,4.484A90.263,90.263,0,0,1-112.86-30.286Zm38.418,8.4v-3h23.256v3h-9.462v-2.166H-65.17v2.166ZM-45.98-6V-9.918H-60.99a12.9,12.9,0,0,0,.3-2.394h10.374V-15.96H-60.648v-2.28h11.1v-2.508h3.04v-8.094H-60.42v-3.306h-4.636v3.306h-13.87v8.094h3.382v2.508H-65.17v2.28h-9.766v3.648h9.728a17.415,17.415,0,0,1-.38,2.394H-79.23V-6h11.438c-2.09,2.242-5.738,4.218-12.122,5.662A18.441,18.441,0,0,1-77.1,3.306c7.752-2.09,11.97-5.092,14.212-8.474,3,4.712,7.524,7.41,14.744,8.55A17.581,17.581,0,0,1-45.486-.57c-6-.646-10.26-2.394-12.958-5.434ZM-14.63-26.41h-6.726v2.622h6.726V-22.5h-8.588v2.812H-1.482V-22.5h-8.626v-1.292h6.992V-26.41h-6.992V-27.7h7.9v-2.736h-7.9v-1.71H-14.63v1.71h-7.638V-27.7h7.638ZM-35.454-9.956c-.3,3.192-.836,6.574-1.938,8.816a18.982,18.982,0,0,1,3.306,1.6,34.88,34.88,0,0,0,2.242-9.8Zm10.108-2.622a20.678,20.678,0,0,1,.532,2.052l3.382-1.52a32.791,32.791,0,0,0-3.268-7.98l-3.23,1.292c.418.8.836,1.634,1.216,2.508L-30.248-16c2.394-3.04,4.978-6.8,7.068-9.994l-3.686-1.71a61.262,61.262,0,0,1-3.42,6.156A19.115,19.115,0,0,0-31.5-23.028a85.551,85.551,0,0,0,4.294-7.752l-3.914-1.368a46.628,46.628,0,0,1-2.736,6.574c-.3-.266-.608-.532-.874-.8l-2.2,3.04a34.971,34.971,0,0,1,4.332,5.32c-.57.8-1.14,1.558-1.71,2.242l-2.736.152.3,3.914,5.434-.38V3.306h3.876V-12.388ZM-27.018-9.31A28.324,28.324,0,0,1-25.27-2.47l3.344-1.1a28.269,28.269,0,0,0-1.938-6.688Zm10.184,2.09H-7.6v1.6h-9.234Zm0-4.218H-7.6V-9.8h-9.234Zm0-4.18H-7.6v1.6h-9.234ZM-3.306-2.812v-15.58H-20.862v15.58h3.306A29.55,29.55,0,0,1-25.042.646c.836.8,2.09,2.014,2.774,2.812a33.692,33.692,0,0,0,9.12-4.6l-2.546-1.672h6.916L-11.134-1.1a65.817,65.817,0,0,1,6.27,4.446L-.912,1.216c-1.52-1.064-4.142-2.66-6.46-4.028Z" transform="translate(526 32.262)" fill="#0077c0"/>
  <path id="パス_72" data-name="パス 72" d="M0,0H68" transform="translate(231 64.262)" fill="none" stroke="#1b66a2" stroke-width="1.5"/>
  <path id="合体_11" data-name="合体 11" d="M-5414.277,256.637c-.2-.012-.388-.13-.582-.147s-.393-.034-.586-.057-.4-.017-.587-.046-.393-.052-.584-.087-.383-.1-.572-.139-.374-.127-.561-.177-.412,0-.6-.057-.342-.22-.524-.287-.369-.135-.547-.211-.392-.092-.566-.178-.319-.237-.489-.332-.338-.2-.5-.3-.353-.179-.51-.3-.33-.218-.479-.344-.259-.3-.4-.434-.3-.256-.43-.4-.24-.309-.362-.463-.224-.318-.336-.479-.271-.289-.373-.458-.109-.383-.2-.557-.208-.329-.291-.508-.174-.347-.246-.531-.126-.367-.19-.554-.078-.38-.133-.57-.137-.363-.185-.555-.114-.371-.153-.565-.018-.389-.05-.584-.073-.379-.1-.575-.059-.382-.078-.579a.515.515,0,0,1,.184-.431.571.571,0,0,1,.429-.2c.287,0,.287-.054.574-.054s.287.029.574.029.285-.058.572-.058.286.06.572.06.286-.06.572-.06.286-.013.572-.013.285.037.57.037.286.037.572.037.285-.017.571-.017h.571c.286,0,.286-.046.571-.046a.746.746,0,0,1,.468.28.744.744,0,0,1,.284.445c.021.206.039.406.074.6s.064.4.119.592a5.144,5.144,0,0,0,.21.567,4.631,4.631,0,0,0,.26.546,4.385,4.385,0,0,0,.342.5,4.181,4.181,0,0,0,.4.458,4.322,4.322,0,0,0,.513.33,4.5,4.5,0,0,0,.472.393,5.556,5.556,0,0,0,.582.2c.185.07.387.1.587.152a1.079,1.079,0,0,1,.52.306.861.861,0,0,1,.125.567c0,.285.02.285.02.569s-.009.285-.009.569-.036.284-.036.568.043.284.043.568.07.284.07.568-.007.284-.007.567-.07.283-.07.566.067.284.067.567a.718.718,0,0,1-.236.48.707.707,0,0,1-.465.228Zm3.273-.2a.722.722,0,0,1-.211-.49c0-.276.1-.276.1-.553s-.086-.276-.086-.553,0-.276,0-.552.047-.276.047-.552-.089-.276-.089-.552.092-.275.092-.551-.044-.275-.044-.551-.021-.275-.021-.551a.78.78,0,0,1,.226-.516.881.881,0,0,1,.5-.278c.2-.026.393-.006.574-.042s.362-.147.539-.2.4-.036.568-.1a4.276,4.276,0,0,0,.513-.257,3.5,3.5,0,0,0,.478-.316,2.7,2.7,0,0,0,.355-.446,2.453,2.453,0,0,0,.344-.448,2.416,2.416,0,0,0,.157-.543,2.669,2.669,0,0,0,.1-.559,2.935,2.935,0,0,0-.068-.524,2.512,2.512,0,0,0-.168-.5,2.227,2.227,0,0,0-.236-.462,2.114,2.114,0,0,0-.348-.386c-.132-.117-.231-.289-.389-.372s-.372-.1-.561-.179c-.171-.071-.364-.105-.557-.175-.175-.064-.322-.234-.515-.3s-.4-.025-.587-.084-.368-.109-.56-.166-.338-.214-.53-.27-.392-.033-.583-.09-.376-.089-.568-.145-.353-.168-.543-.225l-.561-.17c-.184-.056-.377-.09-.567-.149s-.359-.143-.549-.2-.377-.091-.565-.153-.366-.126-.553-.191-.378-.093-.565-.16-.358-.152-.543-.22-.347-.181-.531-.251-.365-.132-.549-.2-.357-.137-.53-.211-.348-.16-.518-.24-.358-.137-.525-.223-.358-.145-.522-.237-.29-.259-.448-.359-.317-.21-.471-.317-.377-.135-.525-.249-.234-.332-.379-.462-.276-.274-.414-.413-.3-.251-.431-.4-.207-.333-.325-.488-.309-.26-.416-.422-.139-.371-.235-.541-.193-.335-.277-.512-.145-.357-.216-.539-.206-.339-.264-.526-.095-.378-.138-.569-.055-.384-.083-.578-.1-.38-.109-.576-.054-.389-.054-.586.1-.381.106-.568-.064-.388-.048-.575.048-.382.074-.568.153-.361.189-.546.095-.366.143-.548-.015-.4.045-.58.234-.321.305-.5.123-.359.206-.529.1-.38.193-.544.255-.292.362-.449.231-.3.35-.451.215-.316.345-.457.229-.312.371-.443.322-.213.472-.334.312-.217.47-.329.307-.223.472-.325.331-.187.5-.279.335-.178.512-.262.351-.144.53-.219.329-.2.512-.271.39-.04.575-.1.347-.165.535-.216.36-.131.55-.175.37-.1.561-.137a1.237,1.237,0,0,1,.3-.009,1.36,1.36,0,0,0,.285-.006c.187-.031.373-.079.566-.105s.379-.041.572-.062.382,0,.576-.02a.612.612,0,0,1,.484.117.674.674,0,0,1,.281.462c0,.276-.008.276-.008.553s-.069.276-.069.553.067.276.067.552-.037.276-.037.552.044.276.044.552-.105.275-.105.551,0,.275,0,.551.033.275.033.551a.717.717,0,0,1-.186.5.778.778,0,0,1-.482.229c-.206.028-.408.026-.587.067a4.323,4.323,0,0,0-.532.268,4.248,4.248,0,0,0-.577.145,2.631,2.631,0,0,0-.48.349,2.175,2.175,0,0,0-.318.493,2.378,2.378,0,0,0-.305.5,3.111,3.111,0,0,0-.123.574,4.732,4.732,0,0,0,.012.584,2.548,2.548,0,0,0,.1.6,2.4,2.4,0,0,0,.167.59,2.455,2.455,0,0,0,.383.484,2.741,2.741,0,0,0,.451.421,3.376,3.376,0,0,0,.534.32c.164.074.363.087.547.157s.316.22.5.282.366.081.554.138.363.089.552.143.355.114.544.167.349.142.536.194.371.066.558.118.369.074.556.127.347.155.533.209.365.091.551.146.364.1.548.152.349.141.533.2.364.1.547.157.375.068.558.13.346.151.528.215.375.073.556.14.333.187.512.256.375.08.553.151.363.131.536.2.337.189.507.269.328.2.494.286.346.165.509.258.331.193.489.292.348.17.5.276.256.3.4.411c.006,0,.022,0,.038-.01s.032-.015.038-.01c.152.122.262.288.4.416s.331.216.463.353.237.307.359.453.252.293.363.448.17.346.27.51.264.293.351.463.122.366.2.543.1.367.163.55.158.349.207.535.067.374.1.564.117.367.14.559.055.379.066.573.007.382.007.576.017.4.007.59-.093.389-.115.582-.086.383-.12.575.042.411,0,.6-.184.359-.242.545-.1.381-.171.563-.165.357-.249.533-.2.336-.3.506-.188.342-.3.5-.185.35-.307.5-.214.337-.348.483-.28.281-.424.418-.327.227-.479.355-.3.249-.463.368-.321.226-.488.334-.339.2-.513.3-.362.152-.541.243-.333.211-.516.292-.36.156-.547.23-.354.177-.544.243-.378.113-.57.171-.375.125-.569.176-.393.052-.588.1-.389.062-.585.1-.384.084-.583.116-.394.017-.592.044-.379.137-.579.159a2.664,2.664,0,0,1-.312.008c-.094,0-.189,0-.283.005-.032,0-.065,0-.1,0A.565.565,0,0,1-5411,256.437Zm-75.55.049c-.2-.023-.392-.044-.584-.075a1.716,1.716,0,0,0-.283-.015,1.507,1.507,0,0,1-.311-.02c-.194-.041-.37-.15-.558-.2s-.38-.1-.565-.161-.389-.08-.572-.149-.378-.121-.556-.2-.333-.216-.507-.306-.36-.162-.527-.263-.32-.229-.481-.341-.307-.242-.46-.364-.345-.2-.49-.333-.215-.337-.353-.478-.293-.258-.422-.407-.265-.286-.384-.443-.222-.319-.333-.482-.176-.346-.279-.515-.228-.316-.321-.489-.207-.331-.293-.509-.114-.373-.192-.555-.163-.351-.234-.536-.148-.359-.212-.546-.093-.377-.15-.566-.129-.366-.18-.557-.151-.362-.2-.554-.059-.384-.1-.578-.134-.37-.17-.564-.008-.392-.04-.587-.118-.375-.145-.571-.064-.385-.086-.581-.005-.391-.024-.587,0-.39-.013-.587-.045-.386-.056-.583-.022-.388-.031-.585-.061-.387-.067-.584.084-.39.081-.588-.065-.388-.065-.585-.025-.394-.022-.587.058-.392.063-.585-.054-.395-.045-.588.1-.388.115-.581.013-.392.028-.584.037-.39.054-.583-.029-.4-.007-.589.1-.384.124-.575.03-.393.061-.583.106-.38.141-.57.05-.39.09-.579.054-.39.1-.578.1-.38.151-.566.1-.381.155-.565.2-.347.264-.53.064-.393.133-.574.111-.381.187-.558.264-.312.348-.486.086-.4.178-.566.189-.347.289-.512.3-.275.409-.435.161-.366.278-.52.228-.322.355-.47.306-.252.442-.392.277-.275.422-.406.277-.277.43-.4.326-.217.487-.329.308-.244.477-.346.34-.2.514-.287.334-.21.515-.29.369-.135.554-.206.384-.088.573-.148.371-.121.563-.171.377-.1.572-.14.383-.069.581-.1.381-.09.579-.113a.62.62,0,0,1,.5.131.664.664,0,0,1,.128.488c0,.29,0,.29,0,.579s.11.29.11.58-.107.289-.107.579-.014.289-.014.578.045.289.045.578-.058.289-.058.578.094.288.094.577-.083.289-.083.578a.975.975,0,0,1-.16.55,1.528,1.528,0,0,1-.419.413,3.23,3.23,0,0,0-.384.443,3.576,3.576,0,0,0-.364.445,4.631,4.631,0,0,0-.311.487c-.083.164-.119.358-.192.544s-.1.361-.16.551-.2.336-.247.529,0,.386-.043.581-.08.368-.112.563-.152.36-.18.556-.063.375-.085.571.081.389.064.585-.147.37-.161.565,0,.382-.007.578.068.384.06.58-.081.379-.086.574-.022.381-.025.577.031.382.029.578.049.382.049.577-.058.389-.056.579-.018.39-.014.58.018.388.023.578,0,.389.01.579.019.389.029.577.008.389.021.577.1.383.115.571-.056.4-.035.584.1.381.128.567.09.381.121.565.083.38.12.563,0,.4.041.582.12.375.175.552.116.377.184.55.12.381.2.546a4.68,4.68,0,0,0,.329.483,3.541,3.541,0,0,0,.409.411,2.9,2.9,0,0,0,.418.387,1.671,1.671,0,0,1,.375.49,1.115,1.115,0,0,1,.241.565c0,.287-.037.287-.037.574s.043.287.043.574-.1.287-.1.574,0,.287,0,.573.033.287.033.573.011.286.011.573-.021.286-.021.572-.038.286-.038.573c0,.181.023.383-.1.5a.394.394,0,0,1-.284.091A1.945,1.945,0,0,1-5486.554,256.486Zm-28.548,0c-.2-.023-.393-.044-.584-.075a1.708,1.708,0,0,0-.283-.015,1.505,1.505,0,0,1-.311-.02c-.195-.041-.37-.15-.558-.2s-.379-.1-.565-.161-.39-.08-.572-.149-.378-.121-.557-.2-.333-.215-.506-.306-.36-.162-.527-.263-.319-.229-.48-.341-.307-.242-.461-.364-.344-.2-.49-.333-.215-.337-.353-.478-.293-.258-.422-.407-.265-.286-.384-.443-.222-.319-.333-.482-.176-.346-.28-.515-.227-.316-.321-.489-.207-.331-.292-.509-.114-.373-.193-.555-.164-.351-.234-.536-.148-.358-.212-.546-.094-.377-.151-.566-.129-.366-.18-.557-.151-.362-.2-.554-.059-.384-.1-.578-.134-.37-.17-.564-.007-.392-.039-.587-.119-.375-.146-.571-.063-.385-.086-.581-.005-.391-.024-.587,0-.39-.013-.587-.044-.386-.057-.583-.021-.388-.03-.585-.062-.387-.066-.584.084-.39.081-.588-.065-.388-.065-.585-.024-.394-.021-.587.058-.392.063-.585-.054-.395-.045-.588.1-.388.115-.581.013-.392.028-.584.037-.39.055-.583-.029-.4-.008-.589.1-.384.124-.575.03-.393.061-.583.106-.38.141-.57.05-.39.089-.579.055-.39.1-.578.1-.38.151-.566.1-.381.156-.565.2-.347.264-.53.063-.393.133-.574.11-.381.186-.558.264-.312.348-.486.087-.4.178-.566.189-.347.29-.512.3-.275.409-.435.161-.366.279-.52.227-.322.354-.47.306-.252.442-.392.278-.275.422-.406.277-.277.43-.4.327-.217.488-.329.308-.244.476-.346.34-.2.515-.287.334-.209.515-.29.37-.135.555-.206.383-.088.573-.148.37-.121.563-.171.377-.1.572-.14.383-.069.581-.1.382-.09.579-.113a.621.621,0,0,1,.5.131.664.664,0,0,1,.129.488c0,.29,0,.29,0,.579s.11.29.11.58-.108.289-.108.579-.014.289-.014.578.045.289.045.578-.059.289-.059.578.094.288.094.577-.083.289-.083.578a.971.971,0,0,1-.16.55,1.53,1.53,0,0,1-.419.413,3.225,3.225,0,0,0-.383.443,3.491,3.491,0,0,0-.364.445,4.481,4.481,0,0,0-.312.487c-.083.164-.119.358-.193.544s-.1.361-.159.551-.2.336-.246.529,0,.386-.044.581-.079.368-.112.563-.152.36-.179.556-.063.375-.086.571.082.389.065.585-.147.37-.162.565,0,.382-.006.578.067.384.06.58-.08.379-.086.574-.021.381-.024.577.031.382.029.578.049.382.049.577-.058.389-.057.579-.017.39-.013.58.017.388.023.578,0,.389.01.579.019.389.028.577.008.389.021.577.1.383.114.571-.055.4-.035.584.1.381.128.567.09.381.121.565.083.38.12.563,0,.4.041.582.12.375.175.552.116.377.183.55.121.381.2.546a4.456,4.456,0,0,0,.329.483,3.469,3.469,0,0,0,.41.411,2.822,2.822,0,0,0,.418.387,1.7,1.7,0,0,1,.375.49,1.118,1.118,0,0,1,.24.565c0,.287-.036.287-.036.574s.043.287.043.574-.1.287-.1.574,0,.287,0,.573.033.287.033.573.012.286.012.573-.021.286-.021.572-.039.286-.039.573c0,.181.024.383-.1.5a.392.392,0,0,1-.284.091A1.928,1.928,0,0,1-5515.1,256.486Zm31.8-.132a.66.66,0,0,1-.114-.488c0-.288-.058-.288-.058-.577s-.036-.288-.036-.576-.016-.288-.016-.576.09-.288.09-.575-.02-.288-.02-.575.009-.287.009-.575.036-.287.036-.574-.043-.288-.043-.575a1.162,1.162,0,0,1,.111-.609,1.8,1.8,0,0,1,.434-.458,2.935,2.935,0,0,0,.466-.34,4.117,4.117,0,0,0,.294-.5,4.6,4.6,0,0,0,.314-.48c.082-.165.118-.355.189-.541s.229-.319.288-.51.1-.365.15-.558.056-.376.1-.57.061-.373.093-.567.08-.371.107-.566.086-.372.107-.567-.073-.388-.056-.583.135-.37.149-.565.019-.381.029-.576-.055-.383-.046-.578.081-.379.086-.574.008-.381.012-.577-.042-.382-.04-.577-.025-.381-.025-.576.053-.386.051-.575-.034-.386-.038-.574.016-.385.011-.573,0-.386,0-.574-.081-.382-.091-.57.077-.391.063-.577-.065-.383-.081-.569-.056-.383-.077-.569-.032-.386-.057-.571-.013-.391-.042-.574-.1-.377-.14-.558-.109-.373-.153-.553-.047-.392-.1-.568-.136-.368-.2-.54-.162-.358-.244-.522a5.129,5.129,0,0,0-.259-.518,3.788,3.788,0,0,0-.369-.45,3,3,0,0,0-.461-.351,1.673,1.673,0,0,1-.4-.466,1.142,1.142,0,0,1-.23-.572c0-.291.06-.291.06-.581s-.061-.291-.061-.582-.013-.291-.013-.581.037-.29.037-.581.038-.29.038-.58-.017-.29-.017-.58,0-.29,0-.579-.046-.29-.046-.58c0-.18.155-.314.274-.429a.554.554,0,0,1,.443-.209c.2.024.4.026.589.058s.382.119.572.159.4.023.589.072.357.187.542.246.377.114.558.184.363.15.541.23.387.106.56.2.321.233.488.334.347.189.507.3.292.264.445.386.317.231.461.363.308.246.445.387.263.29.392.439.256.3.376.453.161.362.272.525.274.286.377.454.23.317.325.491.079.4.166.573.256.31.335.491.155.358.227.542.033.4.1.587.2.343.257.532.13.367.183.558.039.39.085.582.086.377.127.57.1.374.139.568.04.386.071.581.089.379.116.574.048.385.07.581.079.382.1.578.014.389.028.586-.021.39-.009.587.03.387.039.584.021.387.026.584,0,.388.006.585.037.388.037.585.039.393.037.586-.084.391-.09.584-.017.391-.025.584.091.4.079.591-.132.384-.147.577-.046.388-.064.58.006.394-.017.586-.1.381-.131.572.038.4.008.592-.146.373-.181.562-.064.385-.1.574-.1.378-.144.565-.021.4-.07.584-.117.375-.173.559-.141.366-.2.549-.087.386-.157.565-.116.379-.192.555-.246.32-.33.494-.1.39-.19.56-.2.341-.3.507-.289.282-.4.442-.235.31-.354.464-.148.384-.274.531-.346.216-.482.356-.256.3-.4.426-.238.325-.391.447-.352.189-.512.3-.331.209-.5.311-.32.23-.494.322-.329.224-.509.305-.384.1-.569.174-.374.114-.563.175-.371.124-.563.175-.381.085-.576.126-.382.078-.579.11-.388.044-.585.068a1.259,1.259,0,0,1-.147.01A.488.488,0,0,1-5483.3,256.353Zm-28.549,0a.664.664,0,0,1-.113-.488c0-.288-.058-.288-.058-.577s-.036-.288-.036-.576-.016-.288-.016-.576.089-.288.089-.575-.02-.288-.02-.575.009-.287.009-.575.036-.287.036-.574-.043-.288-.043-.575a1.158,1.158,0,0,1,.112-.609,1.8,1.8,0,0,1,.434-.458,2.961,2.961,0,0,0,.467-.34,4.279,4.279,0,0,0,.293-.5,4.768,4.768,0,0,0,.314-.48c.082-.165.117-.355.189-.541s.229-.319.287-.51.1-.365.151-.558.056-.376.1-.57.061-.373.093-.567.08-.371.106-.566.087-.372.108-.567-.073-.388-.056-.583.135-.37.149-.565.019-.381.03-.576-.056-.383-.047-.578.081-.378.087-.574.008-.381.011-.577-.041-.382-.04-.577-.025-.381-.025-.576.054-.386.052-.575-.034-.386-.038-.574.016-.385.011-.573,0-.387,0-.574-.081-.382-.091-.57.077-.391.064-.577-.066-.383-.082-.569-.056-.383-.077-.568-.032-.386-.057-.571-.012-.391-.042-.574-.1-.377-.14-.558-.109-.373-.154-.553-.047-.392-.1-.568-.136-.368-.2-.54-.162-.358-.244-.522a5.234,5.234,0,0,0-.259-.518,3.791,3.791,0,0,0-.37-.45,2.988,2.988,0,0,0-.46-.351,1.685,1.685,0,0,1-.4-.466,1.141,1.141,0,0,1-.229-.572c0-.291.06-.291.06-.581s-.06-.291-.06-.582-.014-.291-.014-.581.038-.29.038-.581.037-.29.037-.58-.017-.29-.017-.58,0-.29,0-.579-.046-.29-.046-.58c0-.18.155-.314.274-.429a.555.555,0,0,1,.444-.209c.2.024.4.026.589.058s.381.119.572.159.4.023.589.072.357.187.542.246.377.114.559.184.364.15.541.23.387.106.56.2.321.233.488.334.346.189.507.3.292.264.445.386.316.231.462.363.307.246.444.387.264.29.392.439.256.3.376.453.161.362.271.525.274.286.378.454.23.317.324.491.08.4.166.573.256.31.335.491.154.358.226.542.033.4.1.587.2.343.256.532.131.367.183.558.039.39.085.582.087.377.128.57.1.374.139.568.04.386.071.581.09.379.116.574.047.385.07.581.079.382.1.578.013.389.028.586-.02.39-.009.587.03.387.039.584.021.387.026.584,0,.388.006.585.036.388.036.585.039.393.037.586-.084.391-.09.584-.017.391-.026.584.092.4.08.591-.132.384-.148.577-.045.388-.063.58,0,.394-.018.586-.1.381-.13.572.038.4.007.592-.146.373-.181.562-.064.385-.1.574-.1.378-.144.565-.02.4-.07.584-.117.375-.173.559-.14.366-.2.549-.088.386-.157.565-.116.379-.192.555-.246.321-.33.494-.1.39-.191.56-.2.341-.3.507-.288.282-.4.442-.235.31-.354.464-.147.384-.275.531-.346.216-.481.356-.256.3-.4.426-.239.325-.392.447-.351.189-.512.3-.331.209-.5.311-.319.23-.494.322-.328.224-.509.305-.384.1-.569.174-.375.114-.563.175-.371.124-.563.175-.381.085-.576.126-.383.078-.579.11-.388.044-.585.068a1.254,1.254,0,0,1-.148.01A.488.488,0,0,1-5511.854,256.353Zm46.9-.532c-.289,0-.289-.022-.576-.022s-.289.01-.577.01-.289-.01-.576-.01l-.576,0c-.288,0-.288-.015-.575-.015s-.288.068-.576.068-.288-.091-.576-.091-.288.058-.576.058a.586.586,0,0,1-.456-.186.616.616,0,0,1-.118-.5c.073-.28.16-.258.233-.538s.053-.285.126-.565.081-.277.154-.557.108-.271.18-.55.031-.29.1-.57,0-.3.078-.576.08-.277.152-.556.14-.262.213-.541.008-.3.081-.575.108-.27.182-.549.031-.29.1-.57.174-.253.247-.532.069-.28.142-.559.042-.287.115-.566.062-.282.134-.561.093-.273.166-.552.11-.269.183-.548-.037-.307.036-.586.173-.253.246-.532.067-.28.14-.558,0-.3.073-.575.137-.262.21-.54.07-.28.144-.558.026-.291.1-.57.046-.286.12-.564.126-.265.2-.545.044-.286.117-.565.1-.273.169-.552.089-.275.161-.553.011-.3.084-.574.169-.254.242-.533.038-.288.111-.566.054-.283.126-.562.085-.276.158-.555.115-.268.188-.547.038-.288.11-.566.045-.286.119-.564.126-.265.2-.543.059-.283.131-.561.06-.282.133-.561.1-.271.176-.55.053-.284.126-.562.021-.292.093-.57.1-.271.174-.55.017-.293.089-.571.131-.264.2-.542.015-.294.087-.573.06-.282.133-.561.109-.27.182-.548.109-.269.182-.548.057-.282.129-.561.072-.279.145-.557.027-.29.1-.568c.051-.195.241-.314.393-.431a.881.881,0,0,1,.52-.237c.291,0,.292-.023.582-.017s.29.017.581.017.29-.026.58-.026.291.051.58.051.29-.066.58-.066.29.085.579.085.29-.012.579-.012.291,0,.58,0,.29-.068.58-.068.29.05.579.05a.56.56,0,0,1,.442.19.533.533,0,0,1,.056.467c-.074.28-.051.286-.124.566s-.044.287-.119.567-.08.278-.153.557-.068.281-.141.56-.158.258-.232.537,0,.3-.078.576-.037.288-.11.567-.184.251-.257.53.022.3-.051.583-.069.28-.142.559-.18.252-.253.531,0,.3-.071.578-.053.284-.126.563-.133.264-.207.542-.073.279-.147.558-.048.285-.122.564-.1.271-.174.55-.044.287-.117.565-.076.278-.149.557-.039.287-.111.566-.095.273-.168.551-.121.267-.194.545-.064.281-.138.56-.068.28-.141.559-.08.277-.152.556-.042.287-.115.566-.035.289-.108.568-.148.26-.221.538-.078.277-.151.556.034.307-.04.585-.177.252-.25.531-.087.275-.16.554-.03.29-.1.569-.129.264-.2.543.019.3-.055.581-.153.258-.227.537-.064.281-.137.559-.088.275-.162.553,0,.3-.072.577-.083.276-.157.555-.1.273-.168.552-.029.29-.1.569-.042.286-.115.565-.165.255-.238.534.011.3-.062.579-.081.277-.154.555-.164.255-.238.534-.088.275-.161.554.044.309-.028.588-.186.25-.258.528-.045.286-.119.564.011.3-.062.578-.137.262-.21.54a.85.85,0,0,1-.322.462.889.889,0,0,1-.532.217c-.289,0-.289.051-.578.051S-5464.667,255.821-5464.956,255.821Zm-89.894-.042c-.29,0-.29.085-.581.085s-.291-.007-.581-.007-.29-.094-.581-.094-.289-.015-.579-.015-.29.121-.58.121-.289-.115-.579-.115-.29.029-.579.029-.29.086-.58.086-.29-.065-.58-.065a.5.5,0,0,1-.4-.209.514.514,0,0,1-.126-.446c.074-.28.024-.293.1-.573s.13-.265.2-.546.095-.274.168-.554.063-.282.136-.561.083-.277.158-.556.071-.28.144-.559.088-.275.161-.554.007-.3.08-.576.163-.257.236-.536.017-.294.09-.573.039-.288.112-.567.058-.283.13-.562.16-.257.234-.536.054-.284.126-.563.082-.277.154-.556.108-.27.181-.549.031-.289.1-.568,0-.3.078-.576.081-.277.154-.556.141-.262.213-.54.009-.3.082-.574.108-.269.181-.548.032-.29.1-.569.174-.253.248-.532.069-.28.143-.559.041-.287.114-.566.063-.282.136-.56.093-.274.167-.552.109-.27.183-.549-.037-.307.037-.586.173-.253.247-.532.067-.28.141-.559,0-.3.074-.576.138-.262.211-.541.071-.28.144-.558.028-.291.1-.569.046-.286.12-.564.126-.265.2-.544.044-.286.117-.565.1-.273.169-.552.09-.275.163-.554.01-.295.084-.574.169-.253.242-.532.038-.288.111-.566.054-.283.127-.562.085-.276.159-.554.115-.268.188-.547.039-.288.112-.567.045-.286.119-.564.126-.265.2-.543.059-.282.132-.56.06-.282.133-.56.1-.271.177-.549a.8.8,0,0,1,.287-.463.883.883,0,0,1,.524-.232c.289,0,.289.029.578.029s.289-.058.577-.058.288.06.577.06.289-.06.577-.06.288-.014.576-.014.288.037.576.037.288.037.575.037.288-.017.576-.017h.576c.287,0,.287-.046.576-.046a.922.922,0,0,1,.519.269.868.868,0,0,1,.362.439c.075.284.018.3.087.583s.152.265.227.549.024.3.1.58.033.294.107.578.119.272.193.556.053.289.127.572.126.269.2.552.089.28.164.563.065.285.14.568.1.277.17.561.009.3.084.583.039.292.112.575.188.253.263.537-.011.3.063.587.1.276.174.56.06.286.134.569.044.29.12.573.087.279.162.562.122.27.2.553.121.271.195.553.063.285.137.567.021.3.1.579.077.282.151.565a2.651,2.651,0,0,1,.083.663,2.6,2.6,0,0,1-.1.66c-.073.283-.115.272-.189.554s-.032.293-.105.575-.072.282-.146.564-.035.292-.108.574-.086.279-.159.56-.059.286-.132.567-.118.269-.191.551-.095.276-.168.558-.062.284-.135.566-.115.27-.189.552.014.3-.06.585-.116.27-.189.552-.02.3-.094.576-.068.283-.142.564-.172.256-.245.538.01.3-.063.584-.078.28-.152.56-.119.27-.192.551.013.3-.06.585-.162.258-.236.539-.03.292-.1.572-.054.286-.127.567a.214.214,0,0,1-.4,0c-.073-.283-.1-.276-.172-.558s-.025-.3-.1-.578-.138-.265-.211-.547.009-.3-.065-.585-.085-.279-.159-.561-.069-.283-.143-.564-.139-.264-.213-.545-.024-.294-.1-.576-.1-.275-.172-.557-.031-.292-.1-.574-.1-.276-.17-.557-.1-.274-.176-.556-.067-.284-.14-.565-.079-.28-.153-.561.011-.3-.062-.585-.142-.263-.215-.545-.11-.272-.184-.553.038-.31-.036-.591-.17-.257-.243-.538-.078-.28-.151-.561.033-.308-.041-.588-.149-.262-.222-.543a.315.315,0,0,0-.337-.237.353.353,0,0,0-.377.227c-.073.283-.074.283-.148.565s-.05.289-.123.572-.1.275-.175.558-.044.29-.119.572-.076.282-.15.564-.038.291-.112.573-.095.276-.169.557-.121.27-.195.552-.065.284-.139.566-.068.283-.142.565-.08.281-.154.563-.042.29-.116.572-.034.292-.108.574-.148.263-.221.544-.079.281-.152.562.033.309-.041.591-.177.255-.251.536-.087.278-.16.56-.03.293-.1.575-.13.267-.2.548.018.3-.056.586-.153.261-.227.542-.064.284-.138.566-.089.278-.163.559,0,.3-.073.582-.084.279-.157.561-.1.276-.17.558a.9.9,0,0,1-.282.5.978.978,0,0,1-.562.223C-5554.559,255.872-5554.559,255.779-5554.85,255.779Zm14.652.014c-.289,0-.289-.037-.578-.037s-.29.017-.58.017h-.579c-.29,0-.29.046-.58.046-.175,0-.291-.158-.388-.282a.5.5,0,0,1-.146-.435c.073-.28.051-.286.13-.565s.09-.275.164-.555.048-.286.122-.566.123-.267.2-.546.009-.3.082-.576.156-.258.229-.537.063-.282.135-.56.077-.278.151-.557.006-.3.08-.576.122-.267.2-.546.049-.286.122-.565.115-.268.188-.548.051-.285.124-.564.044-.286.117-.565.081-.277.154-.557.067-.28.14-.559.157-.257.23-.535,0-.3.078-.576.037-.288.11-.567.184-.25.257-.528-.023-.3.05-.581.069-.28.142-.558.18-.252.253-.531,0-.3.07-.577.053-.284.125-.563.133-.264.207-.542.074-.279.147-.558.048-.285.122-.564.1-.272.173-.551.044-.287.118-.566.076-.278.149-.557.038-.288.112-.566.095-.273.168-.552.121-.267.193-.546.065-.281.138-.56.068-.28.141-.559.079-.277.153-.556.042-.287.115-.565.033-.289.106-.567.148-.26.221-.538.079-.278.151-.557-.033-.306.04-.585.177-.251.25-.53.087-.275.16-.554.03-.29.1-.568.129-.264.2-.543-.019-.3.055-.581.154-.259.227-.537.064-.281.137-.56.088-.275.161-.553,0-.3.072-.576.084-.276.157-.554.1-.272.168-.551a.9.9,0,0,1,.283-.5.979.979,0,0,1,.562-.223c.289,0,.289.093.577.093s.289-.085.578-.085.288.007.577.007.288.094.577.094.288.015.576.015.288-.121.576-.121.288.115.575.115.288-.029.576-.029.288-.086.576-.086.288.066.575.066a.5.5,0,0,1,.4.208.518.518,0,0,1,.126.446c-.072.28-.023.293-.1.573s-.13.265-.2.546-.095.274-.167.554-.063.282-.136.562-.083.277-.156.556-.071.28-.145.559-.087.275-.16.554-.007.3-.08.576-.162.257-.235.536-.017.293-.09.573-.038.288-.111.567-.057.283-.131.562-.159.257-.232.536-.054.284-.126.563-.082.277-.155.556-.107.27-.18.549-.03.289-.1.568-.005.3-.078.575-.081.277-.153.556-.14.261-.213.54-.008.3-.081.574-.108.269-.181.548-.03.29-.1.568-.175.253-.247.532-.069.28-.142.559-.041.287-.114.566-.062.282-.135.561-.093.273-.166.552-.11.269-.182.548.037.307-.036.586-.173.253-.247.532-.067.28-.139.559,0,.3-.074.576-.138.262-.21.541-.071.28-.144.558-.027.291-.1.569-.046.286-.119.564-.126.265-.2.544-.044.286-.117.565-.1.273-.168.552-.089.275-.162.554-.011.295-.083.573-.169.254-.242.532-.038.288-.111.566-.054.283-.126.562-.085.276-.158.554-.115.268-.188.547-.038.288-.111.567-.045.286-.118.564-.126.265-.2.543-.058.282-.131.56-.06.282-.133.56-.1.271-.176.549a.8.8,0,0,1-.285.463.884.884,0,0,1-.525.232c-.291,0-.291-.029-.581-.029s-.29.058-.581.058-.291-.06-.58-.06-.291.06-.581.06-.29.013-.58.013S-5539.909,255.793-5540.2,255.793Zm110.922-.075c-.288,0-.288.006-.577.006s-.288.074-.576.074-.289-.066-.577-.066-.288,0-.576,0-.288.047-.576.047-.287.027-.575.027-.288-.054-.576-.054-.288.03-.576.03-.288-.024-.576-.024a.864.864,0,0,1-.531-.2.909.909,0,0,1-.372-.448c-.074-.284.022-.309-.052-.593s-.11-.275-.185-.559-.092-.279-.167-.562-.062-.287-.137-.57-.032-.295-.107-.578-.108-.274-.184-.557-.1-.276-.175-.558-.02-.3-.1-.58-.088-.28-.162-.563-.087-.28-.161-.563-.044-.291-.119-.574-.093-.278-.167-.561-.127-.27-.2-.553-.046-.29-.12-.573-.131-.269-.205-.552-.016-.3-.091-.58-.132-.268-.207-.551-.087-.279-.161-.562-.039-.292-.113-.575-.038-.292-.112-.574-.09-.278-.164-.56l-.148-.565c-.074-.283-.119-.271-.193-.554a2.677,2.677,0,0,1,.006-.676,2.632,2.632,0,0,1,.024-.668c.074-.282.055-.288.134-.568s.134-.266.208-.549.074-.282.149-.563.049-.288.123-.57.1-.274.174-.556.044-.289.117-.571.077-.28.151-.561.038-.291.112-.572.095-.276.168-.558.122-.269.195-.551.065-.284.139-.565.068-.283.142-.564.08-.28.153-.561.042-.289.115-.57.034-.292.108-.573.148-.262.222-.543.078-.28.151-.561-.034-.309.04-.59.178-.255.251-.536.087-.277.161-.558.029-.292.1-.573.129-.266.2-.547c.047-.177.258-.2.3-.023.073.28-.007.3.065.58s.082.277.156.557.057.283.13.562.147.26.22.539.062.282.135.561.049.285.123.563.118.267.19.545.1.27.178.549-.019.3.054.581.155.257.229.536.065.281.138.56-.019.3.054.58.059.283.131.561.19.248.263.527-.039.307.034.586.1.271.174.549.157.257.229.535.009.295.081.573.062.282.134.56.109.269.181.547.122.265.2.543.015.292.088.57.051.284.124.562.083.276.155.554.063.281.136.559.074.278.147.557.058.282.131.56.138.261.21.54-.016.3.057.579.129.264.2.543.107.269.18.548.088.274.161.552-.015.3.059.579.092.273.164.552.064.281.137.559.038.287.111.565.115.267.188.545.14.261.213.539.065.28.137.558.006.3.078.574.138.262.21.54.037.287.11.565.115.267.187.545-.028.3.044.582.077.277.149.555.1.27.177.548.083.275.156.554.053.284.125.562a.447.447,0,0,1-.12.414c-.1.124-.2.294-.375.294C-5428.987,255.821-5428.987,255.718-5429.276,255.718Zm-18.128-.016c-.288,0-.288.078-.576.078s-.289.021-.576.021-.288-.062-.577-.062h-.575c-.288,0-.288.025-.575.025s-.288-.028-.576-.028-.288.03-.576.03-.288,0-.576,0a.932.932,0,0,1-.565-.155.922.922,0,0,1-.307-.5c-.075-.284-.027-.3-.1-.58s-.083-.282-.158-.566-.079-.282-.153-.566-.068-.285-.143-.568-.105-.275-.18-.559-.113-.273-.187-.556,0-.3-.074-.584-.069-.285-.144-.568-.181-.256-.255-.539.029-.31-.044-.593-.062-.287-.135-.57-.118-.272-.192-.555-.018-.3-.093-.581-.165-.259-.239-.542.006-.3-.069-.587-.083-.28-.156-.563-.06-.287-.134-.569-.148-.264-.223-.547-.063-.286-.138-.568-.051-.288-.125-.571-.119-.27-.192-.553-.106-.274-.18-.557.017-.307-.057-.589a2.7,2.7,0,0,1-.171-.654,2.744,2.744,0,0,1,.094-.674c.074-.283.166-.259.239-.541s.088-.279.163-.561-.044-.312.029-.594.186-.253.259-.535.046-.289.119-.571-.011-.3.063-.584.138-.265.21-.546.086-.279.159-.56.038-.291.111-.573.024-.294.1-.576.13-.267.2-.549.095-.276.168-.557.063-.284.137-.565.083-.278.157-.56.072-.282.146-.563.087-.277.161-.558.008-.3.081-.579.163-.258.236-.539.017-.3.091-.577.039-.29.112-.571.058-.285.131-.565.16-.259.233-.539a.152.152,0,0,1,.3-.005c.074.283.065.285.14.567s.039.291.113.574.115.271.189.553.141.265.215.547.066.284.14.566.006.3.08.58.138.265.211.546.039.291.112.573.116.271.189.553-.027.308.045.589.078.281.151.562.105.273.179.555.084.279.158.561.053.286.127.568.036.291.109.573.184.253.257.534-.026.307.047.588.08.28.153.561.146.263.22.544.008.3.082.578.075.28.148.561.12.269.193.55a.307.307,0,0,0,.335.23.332.332,0,0,0,.362-.223c.074-.283.045-.29.119-.573s.1-.277.171-.56.089-.278.164-.561.011-.3.085-.581.17-.258.244-.54.039-.291.112-.573.055-.286.128-.568.086-.279.16-.561.116-.271.189-.554.04-.291.113-.573.046-.289.12-.571.127-.268.2-.55.06-.286.133-.568.062-.285.134-.566.1-.274.178-.556.055-.286.128-.568.021-.295.094-.576.1-.275.175-.556.018-.3.091-.578.132-.266.205-.548.015-.3.088-.578.061-.285.134-.566.11-.273.183-.554.11-.272.184-.554.057-.286.131-.567l.146-.564c.074-.282.029-.293.1-.575.051-.195.24-.314.393-.431a.878.878,0,0,1,.52-.237c.291,0,.29.057.581.063s.292-.079.582-.079.29.051.58.051.29.043.58.043.29-.045.579-.045.29.022.58.022.29-.053.579-.053.29-.015.579-.015.291.008.581.008.289-.022.579-.022a.557.557,0,0,1,.406.263.456.456,0,0,1,.054.429c-.074.28.04.309-.033.589s-.157.258-.231.538-.048.286-.121.566-.087.276-.161.555-.1.272-.176.552-.06.283-.133.562-.024.291-.1.57-.027.291-.1.57-.084.276-.157.556-.126.266-.2.545-.071.28-.144.559-.075.278-.149.557-.085.276-.158.556-.114.268-.188.547-.031.29-.1.569-.072.28-.146.558-.034.289-.107.567-.085.276-.159.555-.057.283-.131.562-.117.267-.19.546-.094.273-.168.551-.061.282-.133.56-.116.268-.189.547.014.3-.06.58-.115.268-.188.547-.021.293-.093.572-.068.28-.141.559-.171.253-.244.532.01.3-.063.579-.078.278-.151.557-.12.267-.192.546.014.3-.06.58-.162.256-.234.535-.031.29-.1.569-.054.284-.127.563-.09.274-.163.553-.048.285-.121.564-.123.266-.2.544-.009.3-.082.574-.156.258-.229.537-.062.282-.135.56-.077.277-.15.556-.007.3-.08.574-.122.266-.195.544-.049.285-.121.563-.116.268-.188.547-.051.285-.124.563-.044.287-.117.565-.081.277-.153.556-.067.28-.141.559-.157.257-.23.535,0,.3-.078.575-.037.288-.11.566c-.051.195-.255.3-.408.416a.9.9,0,0,1-.509.271c-.289,0-.289,0-.578,0S-5447.115,255.7-5447.4,255.7Zm-115.629-3.433c-.073-.28-.074-.279-.147-.559s-.059-.283-.131-.563-.139-.262-.212-.541.016-.3-.057-.581-.129-.265-.2-.543-.108-.27-.181-.549-.088-.274-.162-.552.015-.3-.059-.58-.092-.274-.165-.553-.065-.281-.138-.559-.039-.288-.111-.566-.115-.268-.187-.546-.141-.261-.214-.54-.065-.28-.138-.559-.006-.3-.079-.575-.137-.262-.21-.54-.037-.287-.109-.565-.115-.268-.188-.546.028-.3-.044-.583-.076-.277-.148-.555-.1-.27-.177-.548-.083-.275-.157-.553-.052-.284-.125-.562-.036-.288-.108-.566-.183-.25-.256-.529.028-.3-.045-.583-.078-.277-.15-.555-.145-.26-.218-.538-.008-.295-.081-.573-.075-.278-.148-.556-.119-.267-.191-.545-.1-.271-.172-.55-.02-.292-.092-.57-.1-.271-.175-.549-.05-.284-.123-.563-.057-.282-.13-.561-.134-.262-.207-.54.024-.3-.049-.581-.107-.269-.18-.547-.092-.274-.165-.552-.061-.282-.133-.56-.031-.289-.1-.567-.107-.269-.18-.547-.1-.271-.173-.549-.019-.292-.092-.57-.087-.275-.159-.553-.085-.275-.159-.553-.042-.286-.115-.565a.442.442,0,0,1,.069-.421.518.518,0,0,1,.395-.245c.289,0,.289.029.578.029s.289-.057.578-.057.288.059.576.059.288-.059.577-.059.289-.014.577-.014.288.037.575.037.288.037.576.037.288-.017.576-.017h.576c.288,0,.288-.046.575-.046a.924.924,0,0,1,.52.269.87.87,0,0,1,.362.439c.075.284.094.28.163.565s.014.3.089.583.073.284.147.567.1.277.173.56.047.291.122.574.1.275.178.559.07.283.145.566.109.274.184.557.053.289.126.572.027.3.1.578.083.281.157.564.079.282.154.565.067.285.142.568.106.275.18.558.114.273.188.556,0,.3.073.585.07.284.144.566.181.255.254.538-.029.31.045.592.06.286.134.568.118.271.192.554.018.3.092.579.166.259.24.542a2.627,2.627,0,0,1,0,.67,2.527,2.527,0,0,1-.075.651c-.074.282-.088.279-.162.561s0,.3-.073.584-.084.279-.158.561-.1.276-.17.558-.028.294-.1.575-.042.29-.116.571-.165.258-.238.539.009.3-.064.584-.081.28-.154.561-.166.258-.239.539-.089.278-.162.559.044.311-.029.593-.186.253-.259.534-.046.289-.119.57.011.3-.062.584-.138.265-.211.546-.084.278-.159.559-.038.29-.111.572-.024.294-.1.575-.13.266-.2.547-.095.275-.168.556-.064.284-.137.564a.166.166,0,0,1-.161.132A.17.17,0,0,1-5563.033,252.27Zm159.132-17.111c-.286,0-.286-.037-.572-.037s-.285.017-.571.017h-.571c-.286,0-.286.046-.571.046a.747.747,0,0,1-.468-.28.75.75,0,0,1-.284-.445c-.021-.206-.038-.406-.074-.6s-.063-.4-.119-.593a5.139,5.139,0,0,0-.21-.567,4.66,4.66,0,0,0-.26-.547,4.319,4.319,0,0,0-.342-.5,4.141,4.141,0,0,0-.4-.459,4.364,4.364,0,0,0-.512-.33,4.559,4.559,0,0,0-.472-.393,5.566,5.566,0,0,0-.582-.2c-.185-.07-.386-.1-.588-.152a1.075,1.075,0,0,1-.52-.306.857.857,0,0,1-.125-.567c0-.285-.02-.285-.02-.569s.009-.285.009-.569.036-.284.036-.568-.043-.284-.043-.568-.07-.284-.07-.568.007-.284.007-.567.07-.283.07-.566-.067-.284-.067-.567a.717.717,0,0,1,.236-.48.687.687,0,0,1,.49-.227c.2.012.388.13.582.147s.393.034.587.057.4.017.587.046.393.051.584.087.383.1.573.138.374.127.561.177.412,0,.6.057.342.22.524.287.369.135.547.211.392.092.566.178.319.237.489.332.338.2.5.3.353.18.509.3.33.218.479.344.259.3.4.434.3.256.43.4.24.309.362.462.223.318.335.479.271.289.373.458.109.383.2.558.208.328.29.508.174.347.246.531.127.367.19.554.077.38.132.57.137.363.184.555.115.371.154.565.019.389.05.584.074.38.1.575.059.382.078.579a.515.515,0,0,1-.185.431.567.567,0,0,1-.428.2c-.287,0-.287.054-.574.054s-.287-.029-.573-.029-.287.057-.572.057-.286-.059-.572-.059-.287.06-.572.06-.286.014-.571.014S-5403.616,235.158-5403.9,235.158Z" transform="translate(5570 -221.7)" fill="#0077c0"/>
</svg>
