<svg id="コンポーネント_21_1" data-name="コンポーネント 21 – 1" xmlns="http://www.w3.org/2000/svg" width="427" height="152.521" viewBox="0 0 427 152.521">
  <g id="グループ_412" data-name="グループ 412" transform="translate(-746 -1684)">
    <ellipse id="楕円形_21" data-name="楕円形 21" cx="68.5" cy="68" rx="68.5" ry="68" transform="translate(746 1684)" fill="#0cb04b"/>
    <path id="パス_849" data-name="パス 849" d="M-3.4-7.28h-7.86v-6.06h6.7V-15.7H-20.48v2.36h6.74v6.06h-7.78v2.4h7.78V1.74h2.48V-4.88H-3.4Zm-15.86-4.78A19.664,19.664,0,0,1-17.8-7.9l2.32-.72a18.244,18.244,0,0,0-1.6-4.08ZM-7.58-7.94a35.8,35.8,0,0,0,2.2-4.18l-2.54-.64A23.7,23.7,0,0,1-9.66-8.54ZM17.36-5.98c-2.6.94-5.36,1.9-7.12,2.44l.94,2.24c1.9-.76,4.34-1.74,6.58-2.68Zm-3.58-7.78a23.483,23.483,0,0,0,.92-2.68l-2.42-.54a18.017,18.017,0,0,1-2.52,5.66v-1.16H7.88V-16.7H5.58v4.22H3.44v2.24H5.58v5.5c-.96.36-1.86.68-2.58.92L3.84-1.4c1.9-.8,4.34-1.84,6.58-2.84L9.9-6.44c-.66.28-1.34.54-2.02.82v-4.62H8.9l-.22.22A14.619,14.619,0,0,1,10.72-8.5c.2-.22.38-.46.58-.72v1.66h5.84V-9.68h-5.5c.38-.56.74-1.16,1.1-1.82h6.34C18.86-4.48,18.58-1.58,18-.96a.908.908,0,0,1-.82.36c-.52,0-1.58,0-2.74-.1a5.765,5.765,0,0,1,.8,2.42,17.908,17.908,0,0,0,3.02-.06A2.487,2.487,0,0,0,20.14.54c.8-1.06,1.08-4.26,1.34-13.16,0-.32.02-1.14.02-1.14ZM-26.66,20.86c-.34-.42-1.78-1.9-2.42-2.5v-.64h1.98V16.64h11.32V15.16h-4.54v-.68h3.68V13.1h-3.68v-.68h4.14V10.98h-4.14v-.9H-22.7v.9h-3.9v1.44h3.9v.68h-3.54v1.38h3.54v.68h-4.52v.34h-1.86V12.8a18.2,18.2,0,0,0,2.36-.72l-1.58-1.82a26.237,26.237,0,0,1-6.02,1.48,8.33,8.33,0,0,1,.66,1.82c.72-.08,1.48-.18,2.26-.3V15.5h-2.66v2.22h2.5a19.849,19.849,0,0,1-3.02,5.52,11.806,11.806,0,0,1,1.1,2.26,17.854,17.854,0,0,0,2.08-3.72v6.94h2.32v-7.8a20.345,20.345,0,0,1,1.06,1.8Zm2.8,2.34H-19v.84h-4.86Zm0-2.22H-19v.86h-4.86Zm0-2.2H-19v.84h-4.86Zm7.12,6.74v-8.2h-9.24v8.2h1.74a15.553,15.553,0,0,1-3.94,1.82c.44.42,1.1,1.06,1.46,1.48a17.733,17.733,0,0,0,4.8-2.42l-1.34-.88h3.64l-1.24.9a34.64,34.64,0,0,1,3.3,2.34l2.08-1.12c-.8-.56-2.18-1.4-3.4-2.12ZM8.8,12.88a17.441,17.441,0,0,0-2.52-2.74L4.54,11.3a16.4,16.4,0,0,1,2.4,2.86ZM.9,25.26H-2.76v-.78H.64V19.56H-2.74v-.78H.92V17.12H-2.74v-.88h4.4a39.519,39.519,0,0,0,1.06,7.7A13.7,13.7,0,0,1,.9,25.7Zm-7.36-2.68h1.8v.74h-1.8Zm0-1.86h1.8v.74h-1.8Zm3.52.74v-.74H-1.1v.74Zm0,1.86v-.74H-1.1v.74Zm9.3-6.22a19.949,19.949,0,0,1-1.82,4.26,47.711,47.711,0,0,1-.56-5.12h5.1V14.28H3.9c-.04-1.36-.06-2.76-.02-4.2H1.48c0,1.42.02,2.82.08,4.2h-4.2V13.22H.56v-1.8h-3.2V10.08H-4.92v1.34H-8.14v1.8h3.22v1.06h-4.1v1.96h4.14v.88h-3.6v1.66h3.6v.78H-8.12v4.92h3.28v.78H-8.76v1.72h3.92v1.78h2.08V26.98H-.9a7.413,7.413,0,0,1,1.58,1.8,17.736,17.736,0,0,0,2.9-2.42c.74,1.5,1.72,2.38,3,2.38,1.76,0,2.48-.86,2.8-4.34A5.552,5.552,0,0,1,7.5,23.14c-.1,2.32-.3,3.28-.7,3.28-.6,0-1.12-.76-1.56-2.06a23.346,23.346,0,0,0,3.24-6.6ZM21.2,19.9l-.36-1.48c-1.84.72-3.76,1.46-5.02,1.86l1.12,1.92c1.08-.48,2.4-1.1,3.66-1.72l.24,1.38c1.92-.14,4.36-.32,6.78-.54a7.743,7.743,0,0,1,.42,1l1.8-.8a8.262,8.262,0,0,0-.68-1.44,22.065,22.065,0,0,1,3.18,2.18l1.72-1.42a25.415,25.415,0,0,0-4.18-2.56l-1.22.98c-.32-.48-.68-.96-1-1.38l-1.68.7c.24.34.5.7.72,1.08l-2.06.1a48.626,48.626,0,0,0,3.72-3.9L26.5,15c-.5.72-1.14,1.52-1.82,2.34-.3-.24-.64-.48-1-.74.58-.68,1.24-1.5,1.86-2.3l-.44-.16h8.28V12.02H26.16V10.08H23.72v1.94H16.68v2.12h6.54c-.28.5-.62,1.06-.94,1.54l-.48-.28-.92,1.1A19.942,19.942,0,0,0,18,14.6l-1.58,1.3a15.759,15.759,0,0,1,3,2.2l1.46-1.24a27.51,27.51,0,0,1,2.52,1.88c-.38.38-.76.76-1.14,1.12Zm9.24-2.02a29.512,29.512,0,0,0,3.08-2.46L31.4,14.4a18.17,18.17,0,0,1-2.7,2.54ZM26.16,21.7H23.72v1.28H16.04v2.2h7.68v3.56h2.44V25.18H34v-2.2H26.16ZM-15.9,40.46l-1.58-1.48a10.315,10.315,0,0,1-2.04.18H-30.3a15.855,15.855,0,0,1-2.44-.2v2.78c.94-.08,1.6-.14,2.44-.14h10.42a11.894,11.894,0,0,1-3.68,3.72l2.08,1.66a20.37,20.37,0,0,0,4.8-5.48A10.07,10.07,0,0,1-15.9,40.46Zm-8.16,2.7h-2.9a11.087,11.087,0,0,1,.14,1.8c0,3.28-.48,5.4-3.02,7.16a7.9,7.9,0,0,1-2.1,1.1l2.34,1.9C-24.16,52.2-24.06,48.12-24.06,43.16ZM.1,42.12l-2.38.78A33.312,33.312,0,0,1-.66,47.34l2.4-.84C1.46,45.58.48,42.98.1,42.12Zm7.38,1.46-2.8-.9a13.679,13.679,0,0,1-2.56,6.86,13.457,13.457,0,0,1-6.64,4.18l2.1,2.14a15.619,15.619,0,0,0,6.7-4.96A16.127,16.127,0,0,0,7,45.04C7.12,44.64,7.24,44.22,7.48,43.58Zm-12.02-.4-2.4.86a40.4,40.4,0,0,1,1.82,4.62l2.44-.92C-3.08,46.62-4.04,44.2-4.54,43.18Zm35.62-3.84a1.15,1.15,0,1,1,1.16,1.14A1.161,1.161,0,0,1,31.08,39.34Zm-1.24,0a2.215,2.215,0,0,0,.04.38,8.63,8.63,0,0,1-1.14.08H19.48a22.268,22.268,0,0,1-2.38-.16v2.82c.5-.04,1.46-.08,2.38-.08h9.3a12.568,12.568,0,0,1-2.34,5.64,13.111,13.111,0,0,1-7.84,4.7l2.18,2.4a16.063,16.063,0,0,0,8.04-5.54,20.189,20.189,0,0,0,3-7.28c.06-.18.1-.38.16-.6a1.14,1.14,0,0,0,.26.02,2.39,2.39,0,1,0-2.4-2.38Z" transform="translate(815 1733.5)" fill="#fff"/>
  </g>
  <g id="グループ_413" data-name="グループ 413" transform="translate(-746 -1684)">
    <ellipse id="楕円形_42" data-name="楕円形 42" cx="68.5" cy="68" rx="68.5" ry="68" transform="translate(1036 1684)" fill="#0cb04b"/>
    <path id="パス_850" data-name="パス 850" d="M-41.1-4.8V-7.84h3.46V-4.8Zm12.76,0h-6.84V-7.84h5.28v-2.22h-5.28v-2.38h5.74v-2.3h-11.3a12.769,12.769,0,0,0,.66-1.64L-42.5-17a15.423,15.423,0,0,1-4.2,6.66A18.407,18.407,0,0,1-44.64-8.8a17.974,17.974,0,0,0,2.72-3.64h4.28v2.38h-5.84V-4.8h-3.16v2.28h9V1.76h2.46V-2.52h6.84ZM-4.58-6.56V-8.9h-6.66v-2.62h7.58V-13.9h-7.58v-3.04h-2.54v3.04H-21.2v2.38h7.42V-8.9H-20.3v2.34h5.36A19.94,19.94,0,0,1-21.96-1.2,11.678,11.678,0,0,1-20.2.9a21.58,21.58,0,0,0,6.42-5.56v6.4h2.54V-4.82A21.475,21.475,0,0,0-4.8.78,11.359,11.359,0,0,1-3-1.34,19.065,19.065,0,0,1-9.94-6.56ZM8.9-4.8V-7.84h3.46V-4.8Zm12.76,0H14.82V-7.84H20.1v-2.22H14.82v-2.38h5.74v-2.3H9.26a12.768,12.768,0,0,0,.66-1.64L7.5-17a15.423,15.423,0,0,1-4.2,6.66A18.407,18.407,0,0,1,5.36-8.8a17.974,17.974,0,0,0,2.72-3.64h4.28v2.38H6.52V-4.8H3.36v2.28h9V1.76h2.46V-2.52h6.84ZM36-10.36l.24,2.28c2.28-.16,5.42-.38,8.4-.62a10.734,10.734,0,0,1,.5,1.38l2.06-1.1a22.047,22.047,0,0,0-3.04-5.42l-1.88.96c.44.64.88,1.36,1.3,2.1-1.24.06-2.46.14-3.62.2.74-1.74,1.5-3.92,2.14-5.9l-2.64-.46a46.443,46.443,0,0,1-1.82,6.5Zm-2.24-.42a23.172,23.172,0,0,1-1.2,5.4c-.54-.38-1.08-.74-1.6-1.06.34-1.36.7-2.84,1.04-4.34Zm.94-2.24-.4.06H32.48c.28-1.3.54-2.58.76-3.76L31-16.94c-.2,1.24-.46,2.6-.74,3.98H28.34v2.18H29.8c-.5,2.32-1.04,4.54-1.52,6.18L30.2-3.56l.2-.7c.4.28.82.6,1.22.92A8.237,8.237,0,0,1,28.36-.08a9.886,9.886,0,0,1,1.44,1.9,10.926,10.926,0,0,0,3.62-3.66A14.605,14.605,0,0,1,35.18.04l1.42-1.9a14.25,14.25,0,0,0-2.14-2.08,29.608,29.608,0,0,0,1.66-8.86Zm9.02,8.56v3.28h-4.2V-4.46Zm-6.44,6.2h2.24V.96h4.2v.7h2.36V-6.6h-8.8Zm-78.6,15.38a25.477,25.477,0,0,1-.62,3.04,20.1,20.1,0,0,0-1.78-1.38c.22-.52.42-1.08.6-1.66Zm.98-2.18-.38.06h-1.82c.14-.58.28-1.2.38-1.8h3.36V11.04h-7.72V13.2h2.08a17.65,17.65,0,0,1-2.76,7.22,19.727,19.727,0,0,1,1.78,1.54,9.366,9.366,0,0,0,.78-1.24,16.1,16.1,0,0,1,1.9,1.74,10.98,10.98,0,0,1-3.5,4.64,7.966,7.966,0,0,1,1.64,1.64c2.94-2.3,4.92-6.86,5.62-13.42Zm9.8,5.38a11.024,11.024,0,0,1-1.94,2.2c-.16-.6-.3-1.24-.44-1.94Zm.44-.04,1.66-.18-.16-1.86-4.64.46c-.04-.32-.08-.68-.14-1.02l4.1-.38-.18-1.82-4.12.36c-.02-.34-.06-.68-.08-1.02l4.58-.4-.16-1.88-1.14.1,1.08-1.14a10.024,10.024,0,0,0-2.62-1.68l-1.3,1.32a12.464,12.464,0,0,1,2.26,1.54l-2.8.24c-.04-.98-.06-1.96-.04-2.94h-2.36c0,1.04.04,2.08.08,3.14l-2.92.24.16,1.92,2.88-.26c.02.36.04.7.08,1.04l-2.56.22.18,1.86,2.58-.24c.04.34.08.7.14,1.04l-3.42.34.2,1.92,3.52-.38a25.25,25.25,0,0,0,.8,3.22,18.209,18.209,0,0,1-5.68,2.46,9.006,9.006,0,0,1,1.28,1.98,21.918,21.918,0,0,0,5.18-2.46c.8,1.62,1.84,2.62,3.12,2.62,1.6,0,2.22-.7,2.6-3.24a5.463,5.463,0,0,1-1.66-1.3c-.1,1.7-.3,2.26-.68,2.26-.52,0-1.04-.64-1.5-1.72a15.172,15.172,0,0,0,3.1-3.36Zm20.06-5.02c-.22.54-.46,1.12-.7,1.6h-3.74l.34-.06a10.744,10.744,0,0,0-.68-1.54Zm6.46,8.92V22.22h-7.78v-.88h6V19.62h-6v-.9h6.94V16.86H-8.34c.3-.48.62-1.02.94-1.6h3.76V13.32h-2.6c.46-.7,1-1.6,1.56-2.52l-2.5-.6a16.111,16.111,0,0,1-1.26,2.9l.72.22H-9.5V10.06h-2.24v3.26h-1.48V10.06h-2.22v3.26h-1.82l.98-.36a15.134,15.134,0,0,0-1.52-2.82l-2.04.7a17.927,17.927,0,0,1,1.24,2.48h-2.68v1.94h4.18l-.24.04a8.987,8.987,0,0,1,.68,1.56h-3.8v1.86h6.76v.9h-5.76v1.72h5.76v.88h-7.64v1.96h5.74a21.012,21.012,0,0,1-6.32,2.34A11.094,11.094,0,0,1-20.4,28.5a18.972,18.972,0,0,0,6.7-3.24v3.48h2.34v-3.6a17.072,17.072,0,0,0,6.72,3.38,11.188,11.188,0,0,1,1.6-2.16,17.868,17.868,0,0,1-6.34-2.18ZM17.98,10.64l-1.6.66a25.465,25.465,0,0,1,1.58,2.78l1.6-.7C19.18,12.64,18.48,11.38,17.98,10.64Zm2.36-.9-1.58.66a23.337,23.337,0,0,1,1.6,2.74l1.6-.68A31.281,31.281,0,0,0,20.34,9.74ZM7.86,24.72c0,2.36.66,3.46,5.2,3.46a47.077,47.077,0,0,0,6.22-.44l.08-2.7a34.545,34.545,0,0,1-6.32.66c-2.18,0-2.54-.44-2.54-1.68v-5.3c2.82-.56,5.52-1.1,6.14-1.22a17.23,17.23,0,0,1-3.18,4.04l2.2,1.3a28.121,28.121,0,0,0,4.14-5.82c.18-.36.46-.8.64-1.08l-1.92-1.5a5.855,5.855,0,0,1-1.42.48c-.9.2-3.7.78-6.6,1.32V13.9a16.509,16.509,0,0,1,.18-2.3H7.7a16.835,16.835,0,0,1,.16,2.3v2.84c-1.98.36-3.74.66-4.7.78l.5,2.62c.84-.2,2.42-.52,4.2-.88Zm22.16-11.9c.04.56.04,1.38.04,1.94v9.78c0,.96-.06,2.7-.06,2.8h2.76c0-.06,0-.52-.02-1.08h9.64c0,.58-.02,1.04-.02,1.08h2.76c0-.08-.04-2-.04-2.78v-9.8c0-.6,0-1.34.04-1.94-.72.04-1.48.04-1.98.04h-11C31.6,12.86,30.84,12.84,30.02,12.82Zm2.72,2.58H42.4v8.3H32.74Z" transform="translate(1105 1749)" fill="#fff"/>
  </g>
  <g id="グループ_411" data-name="グループ 411" transform="translate(-734.523 -1669)">
    <path id="パス_135" data-name="パス 135" d="M9480.842,1465.19l26.283,24.674,26.281-24.674" transform="translate(-8558.842 238.81)" fill="none" stroke="#0077c0" stroke-width="5"/>
    <path id="パス_136" data-name="パス 136" d="M9480.842,1465.19l26.283,24.674,26.281-24.674" transform="translate(-8558.842 283.519)" fill="none" stroke="#0077c0" stroke-width="5"/>
    <path id="パス_137" data-name="パス 137" d="M9480.842,1465.19l26.283,24.674,26.281-24.674" transform="translate(-8558.842 328.227)" fill="none" stroke="#0077c0" stroke-width="5"/>
  </g>
</svg>
