<svg id="コンポーネント_17_1" data-name="コンポーネント 17 – 1" xmlns="http://www.w3.org/2000/svg" width="211.432" height="64.936" viewBox="0 0 211.432 64.936">
  <path id="パス_811" data-name="パス 811" d="M-82.232-9.082h-4.18v-3.306h4.18Zm6.308-3.306v-.19A19.9,19.9,0,0,0-71.9-10.07a13.664,13.664,0,0,1,2.812-3.42,17.9,17.9,0,0,1-4.446-2.584,27.908,27.908,0,0,0,3.8-2.584l-2.926-2.2a30.109,30.109,0,0,1-3.382,2.508c-.456-.494-.874-1.026-1.292-1.558a26.945,26.945,0,0,0,3.914-2.85l-2.85-2.052a34.3,34.3,0,0,1-2.812,2.28,29.151,29.151,0,0,1-1.254-2.736l-3.686,1.026a29.447,29.447,0,0,0,4.56,8.17h-9.424a24.853,24.853,0,0,0,3.838-7.068l-2.508-1.216-.684.152h-7.676v3.344h5.738a17.467,17.467,0,0,1-1.52,2.2A29.648,29.648,0,0,0-94.772-20.6l-2.318,2.508A28.247,28.247,0,0,1-94.2-16.074a19.314,19.314,0,0,1-4.1,2.736c.076-1.14.076-2.2.076-3.192v-9.12h27.778v-3.762H-83.866v-2.736h-4.712v2.736h-13.87v12.844c0,5.32-.228,12.312-3.192,17.138a14.725,14.725,0,0,1,3.458,2.66c2.7-4.218,3.61-10.488,3.876-15.846A15.853,15.853,0,0,1-96.33-9.8a25.149,25.149,0,0,0,3.838-2.584h1.9v3.306h-6.156v3.838h5.776c-.722,2.128-2.584,4.066-7.334,5.434A13.06,13.06,0,0,1-95.76,3.5c6.46-1.938,8.55-5.168,9.158-8.74h4.37v3.382c0,3.838.8,5.054,4.408,5.054h3.458c2.774,0,3.838-1.292,4.218-5.624A11.636,11.636,0,0,1-73.8-3.99c-.114,2.926-.3,3.458-1.026,3.458h-2.242c-.8,0-.912-.114-.912-1.33V-5.244h6.422V-9.082h-6.422v-3.306Zm36.936-13.87-1.026.8c.684.342,1.406.722,2.128,1.1-3.5.076-6.992.152-10.222.19.494-.646,1.026-1.368,1.52-2.09Zm-19.8,5.852c6.65-.19,16.454-.532,25.764-.912.836.57,1.6,1.14,2.2,1.634l2.926-2.47a64.961,64.961,0,0,0-6.536-4.1h7.752v-3.534h-14.63v-2.394h-4.6v2.394H-60.42v3.534h8.778c-.418.722-.874,1.482-1.33,2.166-2.242.038-4.294.076-6.042.076ZM-51-14.668h5.054v1.786H-51Zm14.478,0v1.786h-5.13v-1.786ZM-26.79-4.522V-8.056H-41.458v-1.52h9.272v-5.092h5.4v-3.306h-5.4v-2.014h-4.332v2.014h-5.13v-2.318h-4.294v2.318H-51v-2.014h-4.18v2.014h-5.4v3.306h5.4v5.092h9.158v1.52H-60.572v3.534h10.6A39.634,39.634,0,0,1-61.446-.38,22,22,0,0,1-58.71,3.154,36.421,36.421,0,0,0-46.018-3.268V3.268h4.56V-3.268A39.415,39.415,0,0,0-28.614,3.078,17.1,17.1,0,0,1-25.8-.532a45.371,45.371,0,0,1-11.59-3.99ZM-3.458-15.428l-3.5.988v-6.118H-3.8v-4.294H-6.954v-7.3H-11.1v7.3h-1.786c.228-1.52.418-3,.57-4.522l-3.762-.646c-.342,4.484-.988,9.234-2.166,12.236a33.061,33.061,0,0,1,3.192,2.09,34.536,34.536,0,0,0,1.406-4.864H-11.1V-13.3c-2.584.722-4.9,1.33-6.8,1.748l1.1,4.294c1.748-.456,3.648-1.064,5.7-1.672V3.344h4.142V-10.184c1.406-.418,2.736-.874,4.1-1.254ZM3.306-26.3c.532-1.672,1.026-3.382,1.406-5.13l-4.1-.76C-.532-26.6-2.622-21.166-5.624-17.86A25.785,25.785,0,0,1-2.2-15.314a28.3,28.3,0,0,0,3.914-6.8H3.648c-1.672,5.51-4.636,11.134-8.4,14.1A15.971,15.971,0,0,1-1.292-5.472c3.838-3.648,7.03-10.45,8.7-16.644H9.2C7.3-13.224,3.5-4.6-2.584-.228A16.859,16.859,0,0,1,1.1,2.394C7.22-2.66,11.134-12.54,13-22.116h.19C12.578-8.474,11.894-3.306,10.944-2.09a1.587,1.587,0,0,1-1.406.722A30.824,30.824,0,0,1,6.156-1.52,12.632,12.632,0,0,1,7.41,2.888,21.728,21.728,0,0,0,11.7,2.774,4.163,4.163,0,0,0,14.668.8C16.112-1.1,16.8-7.3,17.518-24.244c.038-.532.076-2.052.076-2.052Zm29.146,2.66a35.369,35.369,0,0,0-2.584-7.106L26.182-29.45a37.6,37.6,0,0,1,2.356,7.3ZM31.958-8.968v-2.47h7.79v2.47Zm7.79-8.626v2.356h-7.79v-2.356Zm4.37-4.218h-6.08V-32.186H33.554v10.374H27.626V2.85h4.332V-5.168h7.79v3.116c0,.494-.19.646-.684.684-.532,0-2.166,0-3.648-.076a16.7,16.7,0,0,1,1.216,4.218c2.66,0,4.446-.076,5.738-.76,1.368-.722,1.748-1.9,1.748-3.99Zm-1.292-.57a81.563,81.563,0,0,0,3.116-7.676l-4.484-.988a46.669,46.669,0,0,1-2.394,7.714Zm8.588-5.206h-4.37v21.2h4.37Zm3.99-3.876V-2.28c0,.722-.3.95-1.026.988-.8,0-3.23,0-5.7-.114a17.343,17.343,0,0,1,1.558,4.674c3.458.038,6-.114,7.562-.874s2.09-1.976,2.09-4.636V-31.464ZM80.18-28.348A27.546,27.546,0,0,0,73.872-32l-2.546,3.344A24.232,24.232,0,0,1,77.482-24.7ZM78.318-18.316a23.864,23.864,0,0,0-6.27-3.458l-2.47,3.344a24.867,24.867,0,0,1,6.08,3.762Zm-3.61,5.966A107.128,107.128,0,0,1,69.768.266l4.1,2.242c1.558-3.8,3.192-8.322,4.484-12.5Zm15.58.532v4.066H87.666v-4.066Zm3,7.372v-10.64H84.7V-2.394h2.964V-4.446Zm-.3-16.074H84.892v3.306h8.094Zm7.638.342A42.966,42.966,0,0,1,98.534-13c-.342-2.85-.608-6.118-.8-9.652h6.878v-3.99h-1.558l1.862-1.824a20.073,20.073,0,0,0-4.864-3.648l-2.432,2.28a24.545,24.545,0,0,1,4.218,3.192H97.546q-.114-2.508-.114-5.13H93.29c.038,1.748.076,3.458.152,5.13H79.686v10.6c0,5.13-.266,12.122-3.154,17.024a14.683,14.683,0,0,1,3.382,2.28c3.192-5.32,3.724-13.6,3.724-19.3v-6.612h9.994A113.485,113.485,0,0,0,95.3-6.8,23.47,23.47,0,0,1,88.046.152,23.81,23.81,0,0,1,91.01,3.04a28.347,28.347,0,0,0,5.548-5.13c1.178,3.382,2.774,5.244,4.864,5.282,1.558,0,3.42-1.482,4.37-8.4A12.089,12.089,0,0,1,102.6-7.524c-.19,3.5-.57,5.434-1.1,5.4-.684-.038-1.33-1.6-1.938-4.294a46.761,46.761,0,0,0,4.94-13.034Z" transform="translate(105.64 32.186)" fill="#0077c0"/>
  <path id="パス_72" data-name="パス 72" d="M0,0H68" transform="translate(71.64 64.186)" fill="none" stroke="#1b66a2" stroke-width="1.5"/>
</svg>
