<?xml version="1.0" encoding="UTF-8"?>
<svg id="_レイヤー_1" data-name="レイヤー 1" xmlns="http://www.w3.org/2000/svg" version="1.1" viewBox="0 0 42 31">
  <defs>
    <style>
      .cls-1 {
        fill: #fff;
        stroke-width: 0px;
      }
    </style>
  </defs>
  <path class="cls-1" d="M40.1,30.7H1.9c-1,0-1.9-.8-1.9-1.9V1.9C0,.8.8,0,1.9,0h38.2c1,0,1.9.8,1.9,1.9v26.9c0,1-.8,1.9-1.9,1.9ZM2,28.7h38V2H2v26.7Z"/>
  <path class="cls-1" d="M21,22.2h0c-.7,0-1.3-.3-1.8-.8L5.3,6.5c-.4-.4-.4-1,0-1.4.4-.4,1-.4,1.4,0l14,14.9c.1.1.2.1.3.1h0c0,0,.2,0,.3-.1l14-14.9c.4-.4,1-.4,1.4,0,.4.4.4,1,0,1.4l-14,14.9c-.5.5-1.1.8-1.8.8Z"/>
</svg>