<svg fill="none" height="17" viewBox="0 0 16 17" width="16" xmlns="http://www.w3.org/2000/svg"><g fill="#0077c0"><path d="m12.5714 8.24353c-.378 0-.6857.30765-.6857.68571v4.57146c0 .6301-.5127 1.1428-1.1428 1.1428h-8.22861c-.63018 0-1.14286-.5127-1.14286-1.1428v-8.2286c0-.63017.51268-1.14286 1.14286-1.14286h4.57143c.37805 0 .68571-.30766.68571-.68571 0-.37806-.30766-.68572-.68571-.68572h-4.57143c-1.38629 0-2.51429 1.128-2.51429 2.51429v8.2286c0 1.3863 1.128 2.5143 2.51429 2.5143h8.22861c1.3862 0 2.5142-1.128 2.5142-2.5143v-4.57146c0-.37806-.3076-.68571-.6857-.68571z"/><path d="m15.9913.592872-.0041-.023772c-.0036-.019199-.0082-.036114-.0119-.0496-.0013-.005714-.0029-.011428-.0045-.016685-.0039-.012572-.0083-.025143-.0128-.037486l-.0019-.005257c-.0025-.007314-.0052-.0144-.0084-.0224-.0034-.008229-.0073-.016457-.0112-.024686l-.0034-.007543c-.0046-.010057-.0094-.019885-.0151-.0304-.0032-.005714-.0064-.011428-.0096-.016685-.0073-.012572-.0153-.026286-.0263-.042743-.0018-.002743-.0039-.005486-.006-.008229-.0235-.033828-.0496-.064914-.077-.092571-.0276-.027657-.059-.053715-.0923-.077029-.0032-.002286-.0064-.004571-.0101-.007086-.0158-.010514-.0302-.018971-.0407-.024914-.0057-.003428-.0112-.0066284-.0183-.0105141-.0096-.0050286-.0192-.0098286-.029-.0141715l-.0071-.0034285c-.0082-.0038857-.0167-.008-.0258-.0116572-.0071-.0029714-.0144-.0054857-.0217-.0082285l-.0037-.0013715c-.0128-.0048-.0258-.0093714-.0391-.0134857-.0052-.0016-.0105-.0029714-.016-.0043428-.0598-.0164572-.1209-.0249143-.1812-.0249143h-4.5714c-.3781 0-.6858.3076571-.6858.6857141 0 .378054.3077.685714.6858.685714h2.9158l-7.97184 7.97303c-.26743.26743-.26743.70237 0 .96987.1296.1296.30171.2009.4848.2009.18308 0 .3552-.0713.4848-.2009l7.97234-7.97239v2.91589c0 .37806.3077.68572.6857.68572.3781 0 .6857-.30766.6857-.68572v-4.571428c0-.035429-.0029-.071314-.0087-.1072z"/></g></svg>