<svg width="16" height="104" viewBox="0 0 16 104" fill="none" xmlns="http://www.w3.org/2000/svg">
<path d="M6.976 0.294621C6.928 0.582621 6.864 1.27062 6.832 1.68662C6.816 2.03862 6.8 2.42262 6.784 2.82262C7.84 2.69462 8.896 2.48662 9.728 2.24662L9.776 4.23062C8.864 4.43862 7.76 4.59862 6.72 4.72662C6.704 5.20662 6.704 5.70262 6.704 6.16662C6.704 6.35862 6.704 6.55062 6.704 6.75862C7.792 6.48662 8.896 6.34262 9.776 6.34262C12.24 6.34262 14.176 7.62262 14.176 9.83062C14.176 11.7186 13.184 13.1426 10.64 13.7826C9.904 13.9426 9.2 13.9906 8.544 14.0386L7.808 11.9746C8.528 11.9746 9.216 11.9586 9.776 11.8626C11.072 11.6226 12.096 10.9826 12.096 9.81462C12.096 8.72662 11.136 8.08662 9.744 8.08662C8.752 8.08662 7.712 8.24662 6.736 8.53462C6.768 9.79862 6.8 11.0466 6.8 11.5906C6.8 13.5746 6.096 14.1026 5.04 14.1026C3.488 14.1026 1.296 12.7586 1.296 11.0626C1.296 9.67062 2.896 8.21462 4.864 7.36662C4.848 6.98262 4.848 6.59862 4.848 6.23062C4.848 5.78262 4.848 5.33462 4.848 4.88662C4.544 4.90262 4.256 4.91862 4 4.91862C2.928 4.91862 2.304 4.90262 1.76 4.83862L1.728 2.90262C2.672 3.01462 3.36 3.03062 3.936 3.03062C4.224 3.03062 4.544 3.01462 4.864 2.99862C4.88 2.43862 4.88 1.97462 4.88 1.70262C4.88 1.36662 4.816 0.582621 4.768 0.294621H6.976ZM11.536 2.02262C12.768 2.61462 14.624 3.67062 15.472 4.27862L14.512 5.91062C13.744 5.25462 11.648 4.05462 10.656 3.57462L11.536 2.02262ZM3.264 10.9826C3.264 11.4786 4.016 11.9106 4.432 11.9106C4.72 11.9106 4.944 11.7826 4.944 11.2386C4.944 10.8386 4.928 10.1026 4.896 9.23862C3.92 9.76662 3.264 10.4226 3.264 10.9826ZM5.648 19.7986H3.2V20.6626H5.648V19.7986ZM3.2 22.8546H5.648V21.9426H3.2V22.8546ZM7.424 24.2946H3.2V32.6786H1.312V18.3426H7.424V24.2946ZM9.264 26.9666H6.624V28.8546H9.264V26.9666ZM11.04 30.4226H6.624V31.3186H4.848V25.3986H11.04V30.4226ZM10.336 22.8706H12.864V21.9426H10.336V22.8706ZM12.864 19.7826H10.336V20.6626H12.864V19.7826ZM14.784 18.3426V30.4066C14.784 31.4626 14.576 32.0066 13.904 32.3106C13.248 32.6306 12.24 32.6786 10.768 32.6786C10.704 32.1346 10.4 31.2386 10.128 30.7266C11.056 30.7906 12.144 30.7746 12.448 30.7586C12.752 30.7586 12.864 30.6626 12.864 30.3746V24.3106H8.528V18.3426H14.784ZM4.16 37.8466C4.048 38.4226 3.968 39.3506 3.968 39.7986C3.952 40.8386 3.968 42.0386 4.064 43.1906C4.288 45.4946 4.768 47.0786 5.776 47.0786C6.528 47.0786 7.168 45.2066 7.472 43.9266L9.072 45.8786C8.016 48.6626 7.008 49.6386 5.728 49.6386C3.968 49.6386 2.448 48.0546 2 43.7666C1.84 42.2946 1.824 40.4226 1.824 39.4466C1.824 38.9986 1.792 38.3106 1.696 37.8146L4.16 37.8466ZM12.16 38.2146C13.68 40.0546 14.896 44.0546 15.072 46.5026L12.976 47.3186C12.72 44.7426 11.872 40.8546 10.128 38.8706L12.16 38.2146ZM11.184 63.8146H4.864V66.4226H11.184V63.8146ZM2.992 68.6946V62.1346H13.136V68.6946H11.184V68.1026H4.864V68.6946H2.992ZM4.768 58.8706H11.232C9.904 57.8306 8.72 56.6786 7.952 55.6226C7.2 56.6946 6.08 57.8306 4.768 58.8706ZM6.88 53.7506H8.848C10.56 56.1986 13.152 58.2306 15.696 59.2546C15.232 59.7506 14.8 60.3746 14.464 60.9666C13.648 60.5506 12.816 60.0226 12.016 59.4466V60.5506H4.048V59.4306C3.264 60.0066 2.416 60.5346 1.568 60.9986C1.312 60.5346 0.784 59.8466 0.368 59.4466C3.12 58.1186 5.68 55.7026 6.88 53.7506ZM4.352 73.7506C4.352 73.2866 4.368 72.8066 4.288 72.3106L6.624 72.3906C6.528 72.8386 6.4 73.6546 6.272 74.6626L6.864 75.4146C6.64 75.7026 6.32 76.2306 6.048 76.6466C6.032 76.7906 6.032 76.9506 6.016 77.0946C7.632 75.8946 9.28 75.4466 10.72 75.4466C13.184 75.4466 15.12 77.1906 15.136 79.7666C15.136 82.9986 13.104 84.9346 9.136 85.7186L8.176 83.7826C10.992 83.3666 13.008 82.2146 12.992 79.7186C12.992 78.4706 11.984 77.3186 10.384 77.3186C8.688 77.3186 7.2 78.1346 5.856 79.3666C5.84 79.8306 5.824 80.2946 5.824 80.7106C5.824 82.0226 5.824 83.3666 5.92 84.8706C5.936 85.1586 5.984 85.7346 6.032 86.1026H3.824C3.856 85.7506 3.872 85.1746 3.872 84.9186C3.904 83.6706 3.92 82.7426 3.936 81.3986C3.264 82.4066 2.48 83.5746 1.92 84.3266L0.656 82.5826C1.568 81.4626 3.168 79.3506 4.08 78.0066C4.112 77.6386 4.144 77.2546 4.16 76.8706C3.376 76.9666 2.144 77.1266 1.248 77.2546L1.04 75.2066C1.504 75.2226 1.872 75.2226 2.432 75.1906C2.896 75.1586 3.6 75.0786 4.288 74.9826C4.32 74.3746 4.352 73.9266 4.352 73.7506ZM12.24 90.7266C12.208 90.9826 12.16 91.6866 12.144 92.1186C12.128 92.7426 12.128 93.3186 12.112 93.8466C12.544 93.8146 12.944 93.7826 13.312 93.7666C13.76 93.7346 14.384 93.7026 14.848 93.6546V95.6226C14.576 95.6066 13.728 95.6226 13.312 95.6386C12.96 95.6546 12.544 95.6706 12.08 95.7026C12.032 96.9186 11.968 98.2306 11.84 98.9026C11.664 99.7506 11.264 99.9586 10.448 99.9586C9.872 99.9586 8.592 99.7986 8.032 99.7186L8.08 97.9426C8.576 98.0546 9.232 98.1506 9.552 98.1506C9.872 98.1506 10.016 98.0866 10.048 97.7826C10.112 97.3506 10.16 96.6146 10.176 95.8466C8.752 95.9586 7.184 96.1026 5.824 96.2466C5.808 97.7186 5.792 99.1906 5.824 99.8786C5.856 101.447 6 101.799 8.4 101.799C9.968 101.799 11.984 101.607 13.184 101.399L13.104 103.575C12.032 103.703 10.064 103.831 8.544 103.831C4.4 103.831 3.904 102.967 3.824 100.199C3.808 99.5106 3.808 97.9586 3.808 96.4706C3.376 96.5186 3.008 96.5506 2.736 96.5826C2.224 96.6466 1.232 96.8066 0.816 96.8706L0.592 94.8226C1.056 94.8226 1.792 94.7906 2.608 94.7106C2.896 94.6786 3.312 94.6466 3.824 94.5986C3.824 93.8466 3.824 93.2546 3.824 92.9826C3.824 92.3266 3.776 91.7826 3.696 91.2066H5.952C5.872 91.7506 5.856 92.1986 5.856 92.8706C5.856 93.2386 5.84 93.7826 5.84 94.4066C7.2 94.2786 8.752 94.1346 10.208 94.0066V92.1986C10.208 91.7986 10.144 91.0466 10.096 90.7266H12.24Z" fill="white"/>
</svg>
