<svg width="12" height="65" viewBox="0 0 12 65" fill="none" xmlns="http://www.w3.org/2000/svg">
<path d="M11 64.656L0.695999 64.656L0.695999 61.52C0.695999 59.224 1.48 57.586 3.818 57.586C6.072 57.586 7.094 59.224 7.094 61.464L7.094 63.018L11 63.018L11 64.656ZM5.792 63.018L5.792 61.618C5.792 59.98 5.162 59.196 3.818 59.196C2.446 59.196 2.012 60.036 2.012 61.688L2.012 63.018L5.792 63.018ZM11 57.7559L0.695999 54.3539L0.695999 52.4639L11 49.0619L11 50.7839L5.414 52.4359C4.294 52.7859 3.132 53.0939 1.984 53.4159L1.984 53.4719C3.146 53.7799 4.294 54.0879 5.414 54.4379L11 56.1039L11 57.7559ZM8.074 55.8379L6.8 55.8379L6.8 51.0219L8.074 51.0219L8.074 55.8379ZM11.196 43.7076C11.196 46.4516 9.264 48.4816 5.876 48.4816C2.516 48.4816 0.513999 46.3956 0.513999 43.6656C0.513999 42.2096 1.158 41.2296 1.802 40.5996L2.852 41.4816C2.334 41.9996 1.928 42.6296 1.928 43.6096C1.928 45.5416 3.412 46.8016 5.82 46.8016C8.27 46.8016 9.768 45.6676 9.768 43.5396C9.768 42.9096 9.586 42.2796 9.264 41.9296L6.856 41.9296L6.856 43.9596L5.512 43.9596L5.512 40.4456L9.978 40.4456C10.678 41.1316 11.196 42.3076 11.196 43.7076ZM11 38.1052L0.695998 38.1052L0.695998 32.0012L2.068 32.0012L2.068 36.4672L4.924 36.4672L4.924 32.7012L6.31 32.7012L6.31 36.4672L9.628 36.4672L9.628 31.8472L11 31.8472L11 38.1052ZM11 24.4662L2.068 24.4662L2.068 27.4902L0.695997 27.4902L0.695997 19.8042L2.068 19.8042L2.068 22.8282L11 22.8282L11 24.4662ZM11.196 14.5247C11.196 17.1847 9.138 19.0187 5.806 19.0187C2.488 19.0187 0.513998 17.1847 0.513998 14.5247C0.513997 11.8787 2.488 10.0447 5.806 10.0447C9.138 10.0447 11.196 11.8787 11.196 14.5247ZM9.768 14.5247C9.768 12.8167 8.214 11.7107 5.806 11.7107C3.398 11.7107 1.928 12.8167 1.928 14.5247C1.928 16.2467 3.398 17.3387 5.806 17.3387C8.214 17.3387 9.768 16.2467 9.768 14.5247ZM11 7.90405L0.695997 7.90405L0.695996 4.76805C0.695996 2.47205 1.48 0.834047 3.818 0.834047C6.072 0.834046 7.094 2.47205 7.094 4.71205L7.094 6.26605L11 6.26605L11 7.90405ZM5.792 6.26605L5.792 4.86605C5.792 3.22805 5.162 2.44405 3.818 2.44405C2.446 2.44405 2.012 3.28405 2.012 4.93605L2.012 6.26605L5.792 6.26605Z" fill="#00A73C"/>
</svg>
