<svg width="140" height="64" viewBox="0 0 140 64" fill="none" xmlns="http://www.w3.org/2000/svg">
<path d="M74.978 5.37288H82.2647L79.0947 8.12241C78.8036 8.37512 78.7721 8.81649 79.0248 9.10763C79.1634 9.26718 79.3579 9.3487 79.5535 9.3487C79.7154 9.3487 79.8785 9.2928 80.0112 9.1775L84.5961 5.20169C84.7487 5.06893 84.8372 4.87677 84.8372 4.67414C84.8372 4.47151 84.7498 4.27935 84.5961 4.14659L80.0089 0.170774C79.7166 -0.0819359 79.2764 -0.0504927 79.0237 0.240648C78.771 0.531789 78.8024 0.973158 79.0935 1.22587L82.2635 3.97424H74.9768C74.5913 3.97424 74.2781 4.2875 74.2781 4.67298C74.2781 5.05845 74.5913 5.37171 74.9768 5.37171L74.978 5.37288Z" fill="#00A73C"/>
<path d="M58.1815 8.12125L55.0115 5.37171H62.2982C62.6837 5.37171 62.997 5.05845 62.997 4.67298C62.997 4.2875 62.6837 3.97424 62.2982 3.97424H55.0115L58.1815 1.22587C58.4726 0.973158 58.5041 0.531789 58.2514 0.240648C57.9986 -0.0504927 57.5573 -0.0819359 57.2661 0.170774L52.6813 4.14659C52.5287 4.27935 52.4402 4.47151 52.4402 4.67414C52.4402 4.87677 52.5275 5.06893 52.6813 5.20169L57.2661 9.1775C57.3989 9.29163 57.5619 9.3487 57.7238 9.3487C57.9195 9.3487 58.1139 9.26718 58.2525 9.10763C58.5052 8.81649 58.4738 8.37512 58.1826 8.12241L58.1815 8.12125Z" fill="#00A73C"/>
<path d="M87.5004 25.9566L87.5598 18.8411C87.5667 18.0504 87.2081 17.312 86.5524 16.7624C85.9352 16.2453 85.1212 15.9565 84.2605 15.9495C84.2501 15.9495 84.2396 15.9495 84.2291 15.9495C83.5059 15.9495 82.8363 16.1486 82.2889 16.4875C82.19 15.8552 81.8522 15.2752 81.313 14.8245C80.697 14.3098 79.8818 14.0221 79.0177 14.0152C78.284 14.0128 77.6062 14.2085 77.0542 14.5497C76.9564 13.9185 76.6187 13.3385 76.0783 12.8867C75.4611 12.3696 74.6459 12.082 73.783 12.075C73.0889 12.0703 72.4216 12.2474 71.8614 12.5816L71.9628 4.24797C71.9697 3.45723 71.6122 2.72006 70.9577 2.17039C70.3417 1.65332 69.5265 1.36451 68.6624 1.35752C67.8484 1.3517 67.2102 1.59393 66.6989 2.10168C65.7615 3.03217 65.3271 4.84772 65.3329 7.80454L65.199 18.1296L64.4001 18.1342C62.05 18.147 60.0248 19.824 59.5846 22.1205C59.1071 24.615 59.0815 30.524 62.404 35.0332C64.5142 37.8957 67.5374 39.5657 71.3898 39.9954C71.4166 39.9989 71.4422 40.0001 71.4678 40.0001C71.8184 40.0001 72.1211 39.7357 72.1607 39.3782C72.2038 38.995 71.9278 38.6492 71.5435 38.6061C68.0941 38.2218 65.397 36.7404 63.5278 34.204C60.7108 30.3831 60.4464 25.0424 60.9553 22.3837C61.2709 20.7405 62.722 19.541 64.4059 19.5317L65.1792 19.527L65.0988 25.7691C65.0942 26.1546 65.4028 26.4713 65.7882 26.4771C65.7917 26.4771 65.7941 26.4771 65.7976 26.4771C66.1795 26.4771 66.4905 26.1697 66.4963 25.7877L66.7292 7.8127C66.7246 5.31471 67.0448 3.72625 67.6818 3.09389C67.9217 2.85632 68.2175 2.75034 68.6484 2.755C69.1888 2.75966 69.6884 2.93201 70.0575 3.24062C70.3871 3.51662 70.5664 3.86949 70.563 4.23283L70.4337 14.8839C70.4337 14.8909 70.4337 14.8991 70.4337 14.9072C70.4314 15.2927 70.74 15.6071 71.1254 15.6106C71.1278 15.6106 71.1301 15.6106 71.1324 15.6106C71.5144 15.6106 71.8265 15.3032 71.8312 14.92V14.9049C71.8382 14.5462 72.0233 14.2027 72.3541 13.9348C72.7279 13.632 73.2263 13.4667 73.769 13.4725C74.3094 13.4771 74.8101 13.6495 75.1793 13.9581C75.5089 14.2341 75.6882 14.5858 75.6847 14.948L75.6684 16.8392C75.6684 16.8392 75.6684 16.8427 75.6684 16.845C75.6649 17.2305 75.9747 17.5461 76.3613 17.5496H76.3671C76.7503 17.5496 77.0624 17.241 77.0659 16.8567V16.8544C77.074 16.0648 77.9638 15.4045 79.0049 15.4126C79.5464 15.4173 80.0472 15.5885 80.4152 15.8971C80.7436 16.1719 80.9229 16.5236 80.9206 16.8893L80.9043 18.7806C80.9043 18.7806 80.9043 18.784 80.9043 18.7864C80.9008 19.1718 81.2106 19.4874 81.5972 19.4909H81.603C81.9862 19.4909 82.2983 19.1823 82.3018 18.798V18.7945C82.3111 17.9933 83.1717 17.347 84.2279 17.347C84.2349 17.347 84.2419 17.347 84.2489 17.347C84.7869 17.3516 85.2865 17.524 85.6557 17.8338C85.9864 18.1109 86.1669 18.4638 86.1634 18.8295L86.104 25.9391L86.0528 28.9961C86.0528 29.031 86.054 29.066 86.0586 29.0997C86.0679 29.1696 86.9321 36.1558 82.1748 38.4267C81.8266 38.5933 81.6787 39.0102 81.8452 39.3584C81.9652 39.6099 82.2156 39.7567 82.4764 39.7567C82.5778 39.7567 82.6802 39.7345 82.7769 39.6879C85.1479 38.556 86.7061 36.3177 87.2826 33.2141C87.6716 31.1191 87.491 29.3129 87.4503 28.9705L87.5004 25.9566Z" fill="#00A73C"/>
<path d="M4.564 54.86V54.118C4.368 54.104 4.102 54.09 3.878 54.09H3.668C4.032 55.084 4.368 55.616 5.068 56.358C4.76 56.708 4.494 57.114 4.298 57.52C3.934 56.932 3.85 56.75 3.514 56.022C3.556 56.624 3.584 57.268 3.584 58.01V61.496C3.584 62.224 3.612 62.77 3.668 63.218H2.044C2.1 62.77 2.128 62.21 2.128 61.496V58.794C2.128 58.724 2.156 58.066 2.212 56.834C1.736 58.304 1.456 58.962 1.05 59.55C0.798 58.976 0.546 58.542 0.238 58.178C1.008 57.156 1.624 55.728 2.002 54.09H1.596C1.162 54.09 0.896 54.104 0.658 54.16V52.69C0.91 52.732 1.148 52.746 1.596 52.746H2.114V51.668C2.114 50.926 2.1 50.604 2.044 50.212H3.654C3.598 50.576 3.584 50.996 3.584 51.654V52.746H3.85C4.2 52.746 4.396 52.732 4.676 52.69V53.516C4.97 53.558 5.474 53.572 5.922 53.572H6.594V52.634H6.244C5.684 52.634 5.278 52.648 4.928 52.69V51.332C5.306 51.374 5.74 51.402 6.23 51.402H6.594V51.192C6.594 50.758 6.58 50.548 6.524 50.268H8.05C8.008 50.562 7.994 50.758 7.994 51.192V51.402H9.786V51.206C9.786 50.786 9.772 50.59 9.73 50.268H11.256C11.2 50.534 11.186 50.744 11.186 51.206V51.402H11.774C12.292 51.402 12.74 51.374 13.132 51.332V52.676C12.824 52.648 12.376 52.634 11.788 52.634H11.186V53.572H11.998C12.628 53.572 13.09 53.544 13.44 53.502V54.874C13.09 54.832 12.614 54.804 12.054 54.804H9.492V55.518H11.662C12.166 55.518 12.46 55.504 12.768 55.476C12.74 55.77 12.726 56.092 12.726 56.54V59.494C12.726 60.04 12.74 60.39 12.768 60.684C12.446 60.656 12.124 60.642 11.69 60.642H10.458C10.878 60.964 11.032 61.062 11.48 61.272C12.138 61.58 12.656 61.748 13.51 61.916C13.09 62.574 13.062 62.63 12.782 63.274C10.99 62.644 10.668 62.462 9.436 61.426L10.206 60.642H7.392L8.204 61.482C7.672 62 7.392 62.21 6.79 62.518C6.188 62.84 5.782 62.994 4.872 63.232C4.662 62.77 4.466 62.448 4.074 61.972C5.124 61.79 5.782 61.566 6.468 61.16C6.72 61.006 6.832 60.922 7.14 60.642H6.16C5.74 60.642 5.404 60.656 5.082 60.684C5.11 60.334 5.124 60.138 5.124 59.648V56.526C5.124 56.148 5.11 55.826 5.082 55.476C5.39 55.504 5.712 55.518 6.188 55.518H8.162V54.804H5.95C5.39 54.804 4.914 54.818 4.564 54.86ZM9.786 53.572V52.634H7.994V53.572H9.786ZM8.162 56.694H6.524V57.52H8.162V56.694ZM8.162 58.598H6.524V59.452H8.162V58.598ZM9.492 59.452H11.326V58.598H9.492V59.452ZM9.492 57.52H11.326V56.694H9.492V57.52ZM27.062 61.006L25.718 62.462C24.556 61.034 22.946 59.466 21.42 58.304C19.838 60.068 18.228 61.3 16.086 62.35C15.694 61.622 15.526 61.398 14.952 60.796C16.03 60.376 16.702 59.998 17.752 59.256C19.866 57.772 21.546 55.742 22.456 53.558L22.61 53.194C22.386 53.208 22.386 53.208 17.976 53.278C17.304 53.292 16.926 53.32 16.45 53.39L16.394 51.598C16.786 51.668 17.052 51.682 17.626 51.682C17.682 51.682 17.794 51.682 17.962 51.682L22.89 51.612C23.674 51.598 23.786 51.584 24.136 51.458L25.06 52.41C24.878 52.62 24.766 52.816 24.612 53.166C23.968 54.664 23.282 55.882 22.428 57.03C23.31 57.618 24.066 58.206 25.018 59.06C25.368 59.368 25.368 59.368 27.062 61.006ZM39.354 52.158L40.25 53.04C40.11 53.25 40.054 53.376 39.9 53.88C39.256 56.008 38.262 57.898 37.03 59.284C35.742 60.754 34.202 61.846 32.046 62.84C31.654 62.14 31.472 61.902 30.856 61.37C32.256 60.796 33.04 60.376 33.922 59.718C35.924 58.234 37.24 56.316 38.01 53.81L33.796 53.88C32.942 55.238 31.85 56.442 30.52 57.464C30.1 56.89 29.89 56.708 29.162 56.26C30.758 55.168 31.766 54.048 32.788 52.2C33.222 51.402 33.446 50.856 33.502 50.352L35.42 50.73C35.336 50.856 35.336 50.856 35.182 51.164C35.14 51.234 35.14 51.234 35 51.556C34.958 51.64 34.958 51.64 34.818 51.92C34.734 52.116 34.734 52.116 34.594 52.368C34.776 52.354 35 52.34 35.266 52.34L38.332 52.298C38.878 52.298 39.032 52.27 39.354 52.158ZM52.374 61.188H45.654V62.168H43.848C43.89 61.832 43.904 61.496 43.904 60.964V52.942C43.904 52.41 43.89 52.144 43.848 51.766C44.184 51.794 44.478 51.808 45.038 51.808H52.99C53.592 51.808 53.844 51.794 54.166 51.766C54.138 52.13 54.124 52.41 54.124 52.928V60.936C54.124 61.454 54.138 61.832 54.18 62.154H52.374V61.188ZM52.374 59.592V53.39H45.654V59.592H52.374ZM56.994 57.604V55.658C57.61 55.742 57.876 55.756 59.262 55.756H66.724C68.11 55.756 68.376 55.742 68.992 55.658V57.604C68.432 57.534 68.278 57.534 66.71 57.534H59.276C57.708 57.534 57.554 57.534 56.994 57.604ZM72.8382 51.052L74.7422 51.15C74.6862 51.542 74.6862 51.542 74.6022 54.286C74.5042 57.016 74.1962 58.598 73.4682 60.04C72.9922 61.006 72.4602 61.72 71.5362 62.63C70.9902 61.93 70.7802 61.72 70.1222 61.272C70.8082 60.712 71.1442 60.334 71.5642 59.662C72.5722 58.052 72.8942 56.246 72.8942 52.326C72.8942 51.556 72.8942 51.43 72.8382 51.052ZM76.5482 50.954L78.4522 50.982C78.3822 51.388 78.3682 51.626 78.3542 52.312L78.2842 60.278C79.2642 59.816 79.8242 59.396 80.4262 58.682C81.0702 57.926 81.4762 57.156 81.7982 56.12C82.2882 56.75 82.4702 56.932 83.1142 57.436C82.5402 58.822 81.8122 59.872 80.8882 60.698C80.0902 61.384 79.3622 61.804 77.9062 62.378C77.5982 62.49 77.4862 62.546 77.3042 62.63L76.4082 61.678C76.5062 61.272 76.5202 60.964 76.5342 60.194L76.6042 52.298V51.878C76.6042 51.528 76.5902 51.22 76.5482 50.954ZM84.7102 54.062L84.6122 52.228C84.9202 52.242 85.0742 52.242 85.1442 52.242C85.3962 52.242 85.3962 52.242 87.4542 52.102C88.4762 52.046 90.8702 51.92 94.6082 51.738C95.7562 51.682 95.8262 51.682 96.0502 51.626L96.1482 53.404C95.9942 53.39 95.9942 53.39 95.8542 53.39C95.0142 53.39 93.9782 53.67 93.0822 54.146C91.3042 55.07 90.2542 56.47 90.2542 57.884C90.2542 58.976 90.9402 59.816 92.1162 60.166C92.8022 60.376 93.6982 60.53 94.2022 60.53C94.2162 60.53 94.3422 60.53 94.4822 60.516L94.2302 62.42C94.0482 62.378 94.0202 62.378 93.7542 62.336C92.2142 62.14 91.3322 61.888 90.4782 61.412C89.1902 60.684 88.4762 59.494 88.4762 58.038C88.4762 56.848 88.9522 55.672 89.8062 54.748C90.3382 54.174 90.8422 53.796 91.7522 53.334C90.6182 53.502 89.7502 53.586 87.0342 53.782C85.7882 53.88 85.1442 53.964 84.7102 54.062ZM93.2782 55.406L94.2582 54.916C94.8742 55.574 95.2522 56.106 95.7282 56.974L94.7482 57.492C94.2862 56.638 93.8942 56.078 93.2782 55.406ZM97.3942 56.064L96.4282 56.61C96.0082 55.84 95.5462 55.182 95.0002 54.58L95.9382 54.09C96.5682 54.734 96.9602 55.266 97.3942 56.064ZM99.5222 53.936L99.4522 52.452C99.8582 52.494 100.18 52.508 100.796 52.508C101.86 52.508 102.616 52.466 103.68 52.354C103.638 52.242 103.638 52.242 103.526 51.99C103.176 51.178 102.98 50.744 102.966 50.716L104.716 50.478C104.772 50.828 104.912 51.248 105.29 52.172C106.48 52.018 108.104 51.654 109.07 51.332L109.21 52.816C109.07 52.844 109.07 52.844 108.734 52.914C107.796 53.138 106.242 53.446 105.808 53.502C106.032 54.02 106.116 54.202 106.354 54.65C107.558 54.398 108.202 54.258 108.286 54.244C109.084 54.048 109.252 53.992 109.616 53.838L109.756 55.364C109.49 55.406 109.196 55.462 108.874 55.546C108.3 55.686 107.838 55.784 107.502 55.854C107.152 55.924 107.152 55.924 106.984 55.966C107.712 57.17 107.936 57.464 108.86 58.528L107.628 59.41C106.62 58.99 105.78 58.836 104.408 58.836C103.344 58.836 102.532 58.976 102.056 59.228C101.664 59.452 101.454 59.746 101.454 60.082C101.454 60.418 101.692 60.74 102.056 60.894C102.504 61.09 103.246 61.202 104.058 61.202C105.514 61.202 107.488 60.782 108.37 60.292L108.622 62.014C108.356 62.056 108.356 62.056 107.712 62.224C106.522 62.546 105.36 62.7 104.128 62.7C102.518 62.7 101.496 62.49 100.712 62.014C100.04 61.594 99.6342 60.88 99.6342 60.096C99.6342 59.34 100.054 58.64 100.81 58.15C101.538 57.688 102.658 57.45 104.072 57.45C104.926 57.45 105.738 57.548 106.494 57.744C106.27 57.534 106.004 57.142 105.416 56.176C103.932 56.4 103.036 56.456 99.9982 56.554C99.7602 56.568 99.6622 56.568 99.4242 56.596L99.3682 55.07C99.7742 55.126 99.8582 55.126 100.81 55.126C102.28 55.126 103.442 55.042 104.772 54.86C104.688 54.692 104.632 54.608 104.52 54.342C104.38 54.048 104.338 53.964 104.226 53.712C103.106 53.838 102.098 53.894 100.474 53.908C99.8862 53.908 99.8162 53.922 99.5222 53.936ZM124.162 60.516L123.21 62.154C122.594 61.468 121.628 60.754 120.62 60.236C120.312 60.068 120.2 60.026 119.864 59.886C119.864 59.956 119.864 60.012 119.864 60.04C119.864 60.922 119.612 61.524 119.08 61.93C118.548 62.336 117.792 62.532 116.77 62.532C114.726 62.532 113.55 61.734 113.55 60.348C113.55 58.822 114.936 57.926 117.288 57.926C117.624 57.926 117.862 57.94 118.226 57.982C118.226 57.814 118.226 57.814 118.212 57.646C118.212 57.576 118.212 57.478 118.212 57.338C118.198 57.142 118.198 57.142 118.184 56.582C117.512 56.596 117.078 56.61 116.784 56.61C115.93 56.61 115.412 56.596 114.25 56.512C114.068 56.498 113.928 56.498 113.718 56.498L113.746 54.986C114.348 55.126 115.678 55.224 117.008 55.224C117.288 55.224 117.764 55.21 118.156 55.196C118.156 55.07 118.156 54.594 118.142 53.796C117.694 53.81 117.47 53.81 117.26 53.81C116.574 53.81 114.768 53.74 113.83 53.67C113.676 53.656 113.564 53.656 113.522 53.656C113.466 53.656 113.396 53.656 113.298 53.656L113.312 52.102C114.026 52.284 115.468 52.396 117.078 52.396C117.302 52.396 117.778 52.382 118.128 52.368C118.114 50.968 118.114 50.954 118.058 50.604H119.836C119.766 50.982 119.752 51.164 119.738 52.312C121.642 52.2 122.86 52.046 123.77 51.78L123.84 53.334C123.532 53.348 123.532 53.348 122.734 53.46C121.502 53.628 120.956 53.67 119.724 53.74C119.738 54.09 119.738 54.258 119.752 55.126C120.452 55.084 120.452 55.084 121.74 54.944C122.622 54.832 122.846 54.804 123.476 54.636L123.518 56.176C123.28 56.19 122.93 56.232 122.608 56.274C122.398 56.302 121.768 56.372 120.718 56.47C120.522 56.484 120.312 56.498 119.766 56.526C119.808 57.884 119.808 57.884 119.822 58.22C121.054 58.584 122.146 59.13 123.658 60.194C123.896 60.348 123.966 60.404 124.162 60.516ZM118.254 59.438C117.792 59.34 117.512 59.312 117.092 59.312C115.958 59.312 115.272 59.676 115.272 60.278C115.272 60.796 115.874 61.118 116.868 61.118C117.456 61.118 117.89 60.95 118.086 60.67C118.198 60.488 118.254 60.194 118.254 59.774C118.254 59.718 118.254 59.438 118.254 59.438ZM134.606 54.552L134.592 55.756C134.592 55.812 134.606 55.924 134.606 56.092C134.914 56.736 135.054 57.31 135.054 58.066C135.054 59.592 134.326 60.908 132.968 61.846C132.38 62.252 131.736 62.546 130.434 62.994C130.042 62.126 129.902 61.916 129.44 61.412C130.588 61.188 131.162 60.992 131.82 60.6C132.772 60.054 133.332 59.34 133.444 58.556C133.038 59.2 132.31 59.55 131.386 59.55C130.742 59.55 130.238 59.396 129.762 59.046C129.104 58.57 128.796 57.954 128.796 57.156C128.796 55.672 129.958 54.608 131.582 54.608C132.184 54.608 132.716 54.762 133.038 55.028C133.024 54.958 133.024 54.958 133.024 54.86C133.01 54.832 133.01 54.048 133.01 53.67C131.008 53.726 129.692 53.768 129.076 53.81C126.962 53.964 126.962 53.964 126.584 54.02L126.528 52.354C126.836 52.382 126.962 52.382 127.214 52.382C127.564 52.382 127.788 52.382 129.594 52.312C130.504 52.284 130.644 52.284 131.792 52.256C132.254 52.242 132.254 52.242 132.982 52.214C132.968 50.884 132.968 50.884 132.898 50.52L134.662 50.506C134.606 50.94 134.606 50.968 134.592 52.172C137.028 52.158 138.12 52.13 138.638 52.074L138.652 53.684C138.134 53.642 137.462 53.614 136.3 53.614C135.964 53.614 135.712 53.614 134.606 53.642V54.552ZM132.996 56.862C132.996 56.274 132.506 55.896 131.736 55.896C131.022 55.896 130.434 56.4 130.434 57.016C130.434 57.66 130.924 58.122 131.624 58.122C132.422 58.122 132.996 57.59 132.996 56.862Z" fill="#00A73C"/>
</svg>
