<svg id="コンポーネント_21_1" data-name="コンポーネント 21 – 1" xmlns="http://www.w3.org/2000/svg" width="420" height="72" viewBox="0 0 420 72">
  <path id="長方形_269_-_アウトライン" data-name="長方形 269 - アウトライン" d="M5,2A3,3,0,0,0,2,5V67a3,3,0,0,0,3,3H415a3,3,0,0,0,3-3V5a3,3,0,0,0-3-3H5M5,0H415a5,5,0,0,1,5,5V67a5,5,0,0,1-5,5H5a5,5,0,0,1-5-5V5A5,5,0,0,1,5,0Z" fill="#0077c0"/>
  <path id="パス_809" data-name="パス 809" d="M-132.244-16.548a26.126,26.126,0,0,1-1.232,2.66h-5.908l.812-.168a11.78,11.78,0,0,0-1.2-2.492Zm8.428,12.264V-6.468h-11.032V-8.176h8.6v-1.96h-8.6v-1.68h9.912v-2.072h-5.936c.476-.784,1.036-1.708,1.568-2.66h5.4v-2.184h-4.032a43.81,43.81,0,0,0,2.324-3.808l-2.688-.672a24.4,24.4,0,0,1-1.96,4.144l1.064.336h-3.024V-23.52h-2.464v4.788h-2.772V-23.52h-2.436v4.788h-3.08l1.428-.532a19.462,19.462,0,0,0-2.24-4l-2.268.756A20.993,20.993,0,0,1-144-18.732h-4.144v2.184h6.356l-.672.112a13.872,13.872,0,0,1,1.176,2.548h-5.74v2.072h9.632v1.68h-8.26v1.96h8.26v1.708H-148.26v2.184h8.652a27.166,27.166,0,0,1-9.436,3.892,11.685,11.685,0,0,1,1.708,2.212,27.812,27.812,0,0,0,9.94-5.04V2.212h2.548V-3.416a24.977,24.977,0,0,0,10.024,5.264,11.693,11.693,0,0,1,1.736-2.324,25.714,25.714,0,0,1-9.492-3.808Zm23.6-3.668c.14-.868.252-1.736.336-2.66h-2.576c-.084.924-.2,1.792-.336,2.66h-4.48v2.184h3.92c-.868,2.548-2.576,4.648-6.216,5.964a7.715,7.715,0,0,1,1.54,2.016,11.194,11.194,0,0,0,7.336-7.98h4.06c-.364,3.276-.756,4.7-1.232,5.124a1.073,1.073,0,0,1-.9.308c-.476,0-1.512-.028-2.6-.14a6.789,6.789,0,0,1,.7,2.408,28.246,28.246,0,0,0,3.108,0,2.972,2.972,0,0,0,1.876-.84c.784-.84,1.288-3,1.764-8.008.056-.364.084-1.036.084-1.036Zm2.1-10.5a10.136,10.136,0,0,1-2.352,3.08,12.727,12.727,0,0,1-2.828-3.08Zm4.788,0v-2.184h-8.82A23.687,23.687,0,0,0-101-22.848l-2.436-.672a16.7,16.7,0,0,1-5.32,6.748,15.392,15.392,0,0,1,2.156,1.484,18.083,18.083,0,0,0,1.68-1.624,16.512,16.512,0,0,0,2.492,2.94,18.548,18.548,0,0,1-4.284,1.764c.084-.392.168-.756.252-1.12l-1.568-.56-.392.14h-1.736l1.2-1.316a19.4,19.4,0,0,0-2.24-1.484,19.66,19.66,0,0,0,4.368-4.676l-1.68-1.036-.42.084h-9.212v2.212h7.364a15.942,15.942,0,0,1-2.408,2.352c-.84-.42-1.736-.812-2.52-1.12l-1.624,1.68a34.69,34.69,0,0,1,5.992,3.3h-7.14v2.268h3.892a18.517,18.517,0,0,1-4.284,6.72,12.5,12.5,0,0,1,1.316,2.492,19.8,19.8,0,0,0,3.78-6.076V-.756c0,.336-.112.392-.448.42s-1.456.028-2.576-.028a9.232,9.232,0,0,1,.756,2.464,9.681,9.681,0,0,0,3.7-.42c.84-.448,1.036-1.148,1.036-2.408V-11.48h2.156a30.783,30.783,0,0,1-1.232,4.2l1.792.9a38.121,38.121,0,0,0,1.54-4.508,7.458,7.458,0,0,1,.728,1.148,23.22,23.22,0,0,0,5.908-2.632,19.9,19.9,0,0,0,6.076,2.688,9.635,9.635,0,0,1,1.624-2.184,19.714,19.714,0,0,1-5.656-2.1,13.52,13.52,0,0,0,3.108-4.48Zm29.6.532a36.957,36.957,0,0,0-3.3-4.76l-1.96,1.092a33.793,33.793,0,0,1,3.136,4.956Zm.644,4.984v-2.548h-7.7c.028-.42.028-.812.028-1.2v-6.72h-2.576v6.72c0,.392,0,.784-.028,1.2h-6.132v2.548H-73.5A19.2,19.2,0,0,1-80.332.42V-23.52H-82.88v8.652a31.779,31.779,0,0,0-3.388-5.04l-2.016,1.2a32.075,32.075,0,0,1,3.3,5.292l2.1-1.344v4.06c-2.1,1.9-4.284,3.78-5.74,4.9l1.428,2.184c1.316-1.12,2.828-2.52,4.312-3.892v9.66h2.548V.56a12.415,12.415,0,0,1,2.044,1.624,20.481,20.481,0,0,0,6.72-10.892c1.512,4.732,3.836,8.54,7.28,10.864a9.458,9.458,0,0,1,1.9-2.184c-4.144-2.38-6.692-7.2-8.036-12.908Zm13.16-7.728a19.321,19.321,0,0,0-5.152-2.688L-56.5-21.42a19.465,19.465,0,0,1,5.068,2.884Zm-1.428,7.5A22.655,22.655,0,0,0-56.9-15.736l-1.372,1.988a22.278,22.278,0,0,1,5.488,2.8Zm-.2,4.2A87.8,87.8,0,0,1-57.176.252l2.184,1.624c1.764-2.688,3.724-6.16,5.348-9.24Zm5.488-10.892h9.38v6.72h-9.38ZM-37.268-.364c-.588,0-.7-.14-.7-1.036v-9.3h3.948V-22.26H-48.58V-10.7h2.688c-.224,5.488-.84,8.9-5.8,10.836a6.68,6.68,0,0,1,1.54,2.1c5.6-2.352,6.524-6.552,6.832-12.936h2.744v9.324c0,2.52.532,3.3,2.856,3.3h2.492c1.988,0,2.632-1.148,2.884-5.376a7.509,7.509,0,0,1-2.324-1.008c-.084,3.472-.2,4.088-.812,4.088Zm33.8-9.464c0-5.852-4.256-10.556-10.976-10.556-7.028,0-12.516,5.376-12.516,11.648,0,4.676,2.548,7.756,5.32,7.756s5.1-3.164,6.776-8.876a55.755,55.755,0,0,0,1.68-7.868A7.445,7.445,0,0,1-6.412-9.912c0,4.508-3.192,7.14-6.776,7.952a17.305,17.305,0,0,1-2.492.392l1.652,2.632C-7.224.084-3.472-3.948-3.472-9.828Zm-20.664.812a9.36,9.36,0,0,1,7.98-8.652,44.577,44.577,0,0,1-1.54,7.224c-1.288,4.312-2.6,6.132-3.864,6.132C-22.764-4.312-24.136-5.8-24.136-9.016Zm34.524-12.74H7.112a17.682,17.682,0,0,1,.168,2.548V-3.892C7.28-1.54,8.6-.392,10.864,0a29.973,29.973,0,0,0,4.564.308A81.37,81.37,0,0,0,25.256-.28V-3.5a46.762,46.762,0,0,1-9.66.924,24.662,24.662,0,0,1-3.5-.2c-1.316-.252-1.9-.616-1.9-1.932v-5.74a104.536,104.536,0,0,0,11.48-3.612c.868-.336,1.988-.84,2.912-1.2l-1.2-2.828a19.557,19.557,0,0,1-2.744,1.4,77.6,77.6,0,0,1-10.444,3.36v-5.88A18.79,18.79,0,0,1,10.388-21.756Zm47.348,2.828L55.972-20.58a14.408,14.408,0,0,1-2.324.2H38a25.092,25.092,0,0,1-3.3-.252v3.108c1.2-.084,2.184-.168,3.3-.168H53.34a17.142,17.142,0,0,1-5.712,5.8l2.324,1.876a27.728,27.728,0,0,0,6.86-7.728C57.036-18.088,57.484-18.62,57.736-18.928ZM46.424-15.2H43.232a12.44,12.44,0,0,1,.168,2.24c0,4.648-.644,8.176-4.648,10.752A10.63,10.63,0,0,1,36.064-.84l2.576,2.1C46-2.52,46.424-7.9,46.424-15.2Zm37.24-6.244H80.332a21.65,21.65,0,0,1,.168,2.576v4.816c0,4.9-.364,7.084-2.324,9.324a13.06,13.06,0,0,1-6.72,3.64L73.78,1.344a15.292,15.292,0,0,0,6.692-4.088c2.072-2.352,3.08-4.732,3.08-11.144v-4.984C83.552-19.88,83.608-20.72,83.664-21.448Zm-12.992.224h-3.22a18.085,18.085,0,0,1,.112,2.072v9.38c0,.812-.084,1.792-.112,2.268h3.22c-.056-.56-.112-1.54-.112-2.268v-9.38C70.56-19.936,70.616-20.636,70.672-21.224Zm27.692.364L96.32-18.676a60.732,60.732,0,0,1,7,5.936l2.212-2.268A58.756,58.756,0,0,0,98.364-20.86ZM95.48-2.128,97.356.756A30.872,30.872,0,0,0,108.08-3.416a28.629,28.629,0,0,0,9.828-10.136L116.2-16.6a26.659,26.659,0,0,1-9.716,10.556A29.094,29.094,0,0,1,95.48-2.128Zm48.188-20.5-1.792.756A33.421,33.421,0,0,1,144.088-18l1.848-.784A40.573,40.573,0,0,0,143.668-22.624Zm3.164-1.2-1.792.756a28.1,28.1,0,0,1,2.3,3.864l1.82-.812A33.1,33.1,0,0,0,146.832-23.828Zm-10.276,2.716-3.248-1.064a13.118,13.118,0,0,1-1.036,2.52,23.949,23.949,0,0,1-8.792,9.268l2.464,1.82a29.009,29.009,0,0,0,7.084-6.832h8.764a21.026,21.026,0,0,1-4.256,8.26A22.41,22.41,0,0,1,126.308-.168l2.6,2.352a25.455,25.455,0,0,0,11.2-7.756,27.712,27.712,0,0,0,4.928-9.52,9.583,9.583,0,0,1,.784-1.708l-2.3-1.4a7.476,7.476,0,0,1-2.1.28H134.68c.168-.252.28-.476.42-.728C135.408-19.208,136-20.272,136.556-21.112Z" transform="translate(210 47.5)" fill="#0077c0"/>
</svg>
