<svg id="コンポーネント_23_1" data-name="コンポーネント 23 – 1" xmlns="http://www.w3.org/2000/svg" width="420" height="72" viewBox="0 0 420 72">
  <g id="長方形_279" data-name="長方形 279" fill="#fff" stroke="#0077c0" stroke-width="2">
    <rect width="420" height="72" rx="5" stroke="none"/>
    <rect x="1" y="1" width="418" height="70" rx="4" fill="none"/>
  </g>
  <path id="パス_810" data-name="パス 810" d="M-65.184-2.576a29.312,29.312,0,0,1-.224,3.584h3.444a32.807,32.807,0,0,1-.224-3.584v-8.652A73.316,73.316,0,0,1-51.6-6.86l1.26-3.052a94.911,94.911,0,0,0-11.844-4.48V-18.76c0-.98.112-2.212.2-3.136h-3.444a20.27,20.27,0,0,1,.252,3.136Zm27.468-18.536v2.884c.784-.056,1.792-.084,2.688-.084h10.864c.952,0,2.072.028,2.772.084v-2.884a26.75,26.75,0,0,1-2.744.14H-35.028A25.615,25.615,0,0,1-37.716-21.112Zm18.536,7.7-1.988-1.232a5.555,5.555,0,0,1-1.792.252H-37.3c-.812,0-1.876-.084-2.968-.2v2.912c1.064-.084,2.3-.112,2.968-.112h14.252a13.2,13.2,0,0,1-3.108,5.6,18.838,18.838,0,0,1-9.8,5.04l2.184,2.52A20.69,20.69,0,0,0-23.744-4.592a19.812,19.812,0,0,0,4.116-7.84A4.918,4.918,0,0,1-19.18-13.412Zm7.448,2.968,1.372,2.772A57.287,57.287,0,0,0-.028-12.012v9.744A32.446,32.446,0,0,1-.2,1.036H3.276a21.056,21.056,0,0,1-.2-3.3v-11.62a47.233,47.233,0,0,0,7.532-6.132L8.26-22.26A34.563,34.563,0,0,1,.476-15.6,46.237,46.237,0,0,1-11.732-10.444Zm54.488-8.484L40.992-20.58a14.408,14.408,0,0,1-2.324.2H23.016a25.092,25.092,0,0,1-3.3-.252v3.108c1.2-.084,2.184-.168,3.3-.168H38.36a17.142,17.142,0,0,1-5.712,5.8l2.324,1.876a27.728,27.728,0,0,0,6.86-7.728C42.056-18.088,42.5-18.62,42.756-18.928ZM31.444-15.2H28.252a12.44,12.44,0,0,1,.168,2.24c0,4.648-.644,8.176-4.648,10.752A10.63,10.63,0,0,1,21.084-.84l2.576,2.1C31.024-2.52,31.444-7.9,31.444-15.2ZM60.76-.616,62.608.924a8.7,8.7,0,0,1,1.064-.7A29.461,29.461,0,0,0,73.22-7.5L71.512-9.912A19.7,19.7,0,0,1,63.9-3.472V-18.956a16.864,16.864,0,0,1,.14-2.24H60.788a20.522,20.522,0,0,1,.168,2.24V-2.38A8.076,8.076,0,0,1,60.76-.616ZM47.852-.868,50.54.924a15.731,15.731,0,0,0,4.984-7.84c.756-2.8.868-8.764.868-11.956a20.958,20.958,0,0,1,.14-2.24H53.284a8.726,8.726,0,0,1,.224,2.268c0,3.22,0,8.68-.812,11.172A12.961,12.961,0,0,1,47.852-.868Z" transform="translate(210 48)" fill="#0077c0"/>
</svg>
