<svg id="コンポーネント_18_1" data-name="コンポーネント 18 – 1" xmlns="http://www.w3.org/2000/svg" width="167.466" height="65.05" viewBox="0 0 167.466 65.05">
  <path id="パス_812" data-name="パス 812" d="M-65.36-30.932H-82.574v3.686H-65.36Zm6.954,23.6v5.282H-72.542V-7.334ZM-77.1,3.306h4.56V1.862h14.136v1.33h4.788V-11.324H-77.1ZM-54.72-24.7a15.958,15.958,0,0,1-2.166,3.876A20.253,20.253,0,0,1-59.47-24.7Zm-16.036,5.966h-6.118c.038-.646.038-1.292.038-1.9v-1.178h6.08Zm22.5-5.966v-3.762H-58.6c.38-.988.684-1.976.988-2.964l-4.066-.874a23.885,23.885,0,0,1-4.864,9.766v-2.812h-14.44v4.636c0,3.116-.266,7.3-2.774,10.45A15.374,15.374,0,0,1-80.37-7.6a16.037,16.037,0,0,0,3.116-7.6h10.716v-6.08a25.239,25.239,0,0,1,2.47,2.318,18.463,18.463,0,0,0,2.052-2.622,28.1,28.1,0,0,0,2.28,3.534A21.373,21.373,0,0,1-66.424-14.9,18.682,18.682,0,0,1-63.8-11.324a25.6,25.6,0,0,0,6.84-3.686,23.112,23.112,0,0,0,6.954,4.522A16.216,16.216,0,0,1-47.2-14.06a22.247,22.247,0,0,1-6.764-3.8A21.6,21.6,0,0,0-50.2-24.7Zm28.576,13.908h-4.674v-4.294h4.674Zm8.17-4.294V-16.3a26.48,26.48,0,0,0,4.674,2.85,16.247,16.247,0,0,1,3.116-3.876,23.209,23.209,0,0,1-5.928-3.5,50.8,50.8,0,0,0,5.054-4.1L-7.9-27.284a31.9,31.9,0,0,1-4.294,4.1c-.57-.646-1.14-1.292-1.672-1.976,1.558-1.14,3.306-2.622,4.864-4.028l-3.42-2.432a35.884,35.884,0,0,1-3.382,3.534,26.4,26.4,0,0,1-1.9-4.066l-4.066,1.14A34.765,34.765,0,0,0-14.858-19.38H-28.614a26.43,26.43,0,0,0,6.156-10.108l-3-1.406-.8.152h-9.918v3.876h7.752a21.256,21.256,0,0,1-2.394,3.42c-1.064-.912-2.508-2.014-3.648-2.812l-2.85,2.356a40.558,40.558,0,0,1,3.762,3.23,23.511,23.511,0,0,1-6.308,3.914,19.65,19.65,0,0,1,2.736,3.42,31.06,31.06,0,0,0,5.054-3v1.254h3.192v4.294h-8.132V-6.65h7.524c-.95,2.546-3.23,4.9-8.474,6.5a17.224,17.224,0,0,1,2.888,3.61C-28.044,1.1-25.536-2.66-24.7-6.65h5.016v4.142c0,4.218,1.026,5.548,5.13,5.548h4.142c3.344,0,4.522-1.52,4.978-6.536A11.252,11.252,0,0,1-9.5-5.282C-9.652-1.71-9.842-.95-10.83-.95h-2.926c-1.064,0-1.216-.228-1.216-1.6v-4.1h8.094v-4.142h-8.094v-4.294ZM28.614-13.87a20.305,20.305,0,0,1-6.688,6.992,20.366,20.366,0,0,1-6.384-6.992Zm3.344-4.6-.8.152H24.054v-4.408H37.962v-4.484H24.054v-4.94H19.38v4.94H5.548v4.484H19.38v4.408H7.448v4.446h7.03l-3.344,1.14a29.368,29.368,0,0,0,6.384,8.208A50.083,50.083,0,0,1,4.028-1.064,17.216,17.216,0,0,1,6.5,3.306,50.684,50.684,0,0,0,21.66-1.52a40.507,40.507,0,0,0,15.124,4.9,23.213,23.213,0,0,1,2.888-4.408,44.047,44.047,0,0,1-13.49-3.42,26.866,26.866,0,0,0,8.93-12.236Zm27.436,3.5-3.192.836v-6.688h3.42V-25H56.2v-7.144H52.06V-25H48.07v4.18h3.99v7.79c-1.672.418-3.192.8-4.484,1.064l.684,4.446,3.8-1.14v7.182c0,.494-.19.646-.646.646A29.967,29.967,0,0,1,48.3-.874a16.809,16.809,0,0,1,1.14,4.18c2.47.038,4.1-.114,5.244-.836S56.2.608,56.2-1.482v-8.36c1.254-.342,2.508-.722,3.762-1.1ZM75.772-8.094a12.223,12.223,0,0,1-2.812,3.8,13.9,13.9,0,0,1-3.8-3.8Zm2.584-3.382-.722.114H68.628c.114-.494.19-.988.3-1.482H82.8v-3.648H69.388c.076-.608.114-1.178.152-1.786H81.7v-3.534H78.09c.988-1.482,2.09-3.23,3.116-4.9l-4.18-1.216c1.71-.228,3.268-.456,4.712-.722l-2.546-3.382c-4.674,1.026-12.464,1.6-19.114,1.824a11.583,11.583,0,0,1,.95,3.344,150.106,150.106,0,0,0,16-1.064,41.133,41.133,0,0,1-2.964,6.118h-4.75l3.534-.8a38.166,38.166,0,0,0-1.026-4.6l-3.534.608a37.477,37.477,0,0,1,.836,4.788h-4.37L66.88-22.5c-.342-1.14-1.14-2.964-1.71-4.37l-3.42.95a39.941,39.941,0,0,1,1.368,4.1H60.762v3.534h4.484c-.076.57-.114,1.178-.152,1.786H60.04v3.648H64.6C63.726-7.98,61.788-3.116,56.772-.038A12.569,12.569,0,0,1,59.7,3.23a19.4,19.4,0,0,0,7.03-8.36,15.864,15.864,0,0,0,2.888,3.078A23.3,23.3,0,0,1,63.422.038a15.07,15.07,0,0,1,2.432,3.344A26.432,26.432,0,0,0,73.036.418a28.981,28.981,0,0,0,8.018,2.926,14.937,14.937,0,0,1,2.66-3.686,29.265,29.265,0,0,1-7.3-2.052,18.83,18.83,0,0,0,4.37-8.094Z" transform="translate(83.752 32.3)" fill="#0077c0"/>
  <path id="パス_72" data-name="パス 72" d="M0,0H68" transform="translate(49.752 64.3)" fill="none" stroke="#1b66a2" stroke-width="1.5"/>
</svg>
