<svg id="コンポーネント_27_1" data-name="コンポーネント 27 – 1" xmlns="http://www.w3.org/2000/svg" width="690" height="62" viewBox="0 0 690 62">
  <rect id="長方形_295" data-name="長方形 295" width="210" height="62" rx="5" fill="#fff"/>
  <path id="長方形_295_-_アウトライン" data-name="長方形 295 - アウトライン" d="M5,2A3,3,0,0,0,2,5V57a3,3,0,0,0,3,3H205a3,3,0,0,0,3-3V5a3,3,0,0,0-3-3H5M5,0H205a5,5,0,0,1,5,5V57a5,5,0,0,1-5,5H5a5,5,0,0,1-5-5V5A5,5,0,0,1,5,0Z"/>
  <path id="パス_842" data-name="パス 842" d="M-66.118-5.33A18.116,18.116,0,0,1-71.734-.494,12.7,12.7,0,0,1-69.888,1.17a24.606,24.606,0,0,0,6.032-5.72Zm.234-8.658A28.988,28.988,0,0,0-59.9-19.5a29.94,29.94,0,0,0,6.24,5.512Zm16.64,7.358V-8.918H-58.6V-11.8h5.382v-1.9a37.331,37.331,0,0,0,3.978,2.314,12.849,12.849,0,0,1,1.56-2.184,28.342,28.342,0,0,1-11.128-8.19H-61.23a27.489,27.489,0,0,1-10.634,8.476,10.23,10.23,0,0,1,1.508,1.976,39.6,39.6,0,0,0,3.77-2.21V-11.8h5.434v2.886H-70.1V-6.63h8.944v5.9c0,.364-.156.468-.572.494-.416,0-1.872.026-3.328-.026a8.414,8.414,0,0,1,.962,2.314,11.9,11.9,0,0,0,4.238-.416C-58.916,1.248-58.6.6-58.6-.7V-6.63ZM-56.16-4.212A36.494,36.494,0,0,1-50.414,1.17l2.106-1.456a40.877,40.877,0,0,0-5.876-5.2ZM-29.978-16.3v-5.46h-2.548v5.46h-8.19v2.47h8.06A16.688,16.688,0,0,1-41.5.234a10.222,10.222,0,0,1,1.872,1.95c7.384-4.368,9.152-10.66,9.542-16.016h8.138c-.442,8.5-.988,12.064-1.872,12.9a1.459,1.459,0,0,1-1.2.39c-.65,0-2.236,0-3.952-.156a6.092,6.092,0,0,1,.858,2.5,30.967,30.967,0,0,0,4.134,0A3.163,3.163,0,0,0-21.58.6c1.144-1.326,1.638-5.174,2.21-15.7.026-.338.052-1.2.052-1.2ZM10.816-9.126c0-5.434-3.952-9.8-10.192-9.8C-5.9-18.928-11-13.936-11-8.112c0,4.342,2.366,7.2,4.94,7.2S-1.326-3.848.234-9.152a51.772,51.772,0,0,0,1.56-7.306A6.913,6.913,0,0,1,8.086-9.2c0,4.186-2.964,6.63-6.292,7.384A16.069,16.069,0,0,1-.52-1.456L1.014.988C7.332.078,10.816-3.666,10.816-9.126Zm-19.188.754a8.691,8.691,0,0,1,7.41-8.034A41.394,41.394,0,0,1-2.392-9.7C-3.588-5.694-4.81-4-5.98-4-7.1-4-8.372-5.382-8.372-8.372ZM28.7-12.22v1.248H22.542V-12.22ZM22.49-8.164c.026-.442.052-.884.052-1.3H28.7v1.3ZM29.146-3.3V-.754H23.868V-3.3Zm1.716-3.12v-7.54H20.436v4c0,2.938-.26,7.02-2.652,9.984a8.656,8.656,0,0,1,1.638,1.456,13,13,0,0,0,2.366-4.94V2h2.08V1.066h5.278v.78h2.132V-5.07H22.152c.078-.442.13-.91.182-1.352ZM23.556-16.848a28.322,28.322,0,0,0,2.314-2.6,37.745,37.745,0,0,1,2.886,2.6Zm.858-4.68a19.615,19.615,0,0,1-6.656,6.474,6.605,6.605,0,0,1,1.482,1.69A23.234,23.234,0,0,0,22.88-16.2v1.04h6.162v-1.43c.6.624,1.118,1.17,1.534,1.638l1.586-1.82A57.093,57.093,0,0,0,26.6-21.528Zm10.608,2.834H32.76V-4.342h2.262Zm3.432-2.6V-.988c0,.442-.208.6-.624.624-.52,0-2.028.026-3.666-.052a12.052,12.052,0,0,1,.78,2.444,12.638,12.638,0,0,0,4.628-.442c.91-.416,1.222-1.118,1.222-2.548V-21.294ZM67.522-8.736V-1.9h-6.63v-8.4H69v-9.1H66.456v6.76H60.892v-9h-2.47v9h-5.3V-19.37H50.7V-10.3h7.722v8.4H52.156V-8.736H49.712V2.054h2.444V.468H67.522V2h2.5V-8.736Z" transform="translate(105 41)"/>
  <rect id="長方形_296" data-name="長方形 296" width="210" height="62" rx="5" transform="translate(480)" fill="#fff"/>
  <path id="長方形_296_-_アウトライン" data-name="長方形 296 - アウトライン" d="M5,2A3,3,0,0,0,2,5V57a3,3,0,0,0,3,3H205a3,3,0,0,0,3-3V5a3,3,0,0,0-3-3H5M5,0H205a5,5,0,0,1,5,5V57a5,5,0,0,1-5,5H5a5,5,0,0,1-5-5V5A5,5,0,0,1,5,0Z" transform="translate(480)"/>
  <path id="パス_843" data-name="パス 843" d="M-55.77.338a6.186,6.186,0,0,0,6.448-6.37c0-4-2.626-5.8-5.824-5.8a5.457,5.457,0,0,0-2.626.65l.442-4.914h7.1v-2.522h-9.7l-.572,9.1,1.456.936a5.035,5.035,0,0,1,3.068-1.092,3.429,3.429,0,0,1,3.64,3.744,3.623,3.623,0,0,1-3.8,3.822A6.123,6.123,0,0,1-60.606-4.16l-1.43,1.95A8.468,8.468,0,0,0-55.77.338ZM-41.5,0h3.016V-7.722h3.094L-31.044,0h3.406l-4.68-8.112a5.327,5.327,0,0,0,4-5.486c0-4.134-2.964-5.564-6.916-5.564H-41.5Zm3.016-10.14v-6.578h2.886c2.782,0,4.29.806,4.29,3.12s-1.508,3.458-4.29,3.458ZM.754-9.126c0-5.434-3.952-9.8-10.192-9.8-6.526,0-11.622,4.992-11.622,10.816,0,4.342,2.366,7.2,4.94,7.2s4.732-2.938,6.292-8.242a51.772,51.772,0,0,0,1.56-7.306A6.913,6.913,0,0,1-1.976-9.2c0,4.186-2.964,6.63-6.292,7.384a16.069,16.069,0,0,1-2.314.364L-9.048.988C-2.73.078.754-3.666.754-9.126Zm-19.188.754a8.691,8.691,0,0,1,7.41-8.034A41.394,41.394,0,0,1-12.454-9.7C-13.65-5.694-14.872-4-16.042-4-17.16-4-18.434-5.382-18.434-8.372ZM29.588-20.956H16.874v1.846h10.4v1.482h-9.75v1.69h9.75v1.482H16.666v1.872H29.588Zm-14.612,1.95a16.916,16.916,0,0,0-4.446-2.652L9.178-19.864a18.656,18.656,0,0,1,4.368,2.834ZM13.65-12.272a18.105,18.105,0,0,0-4.472-2.47l-1.352,1.82a17.6,17.6,0,0,1,4.42,2.678Zm-.936,4.264A78.739,78.739,0,0,1,8.528.286l2.132,1.43c1.326-2.444,2.782-5.538,3.926-8.268ZM25.922-5.876a10.6,10.6,0,0,1-2.86,2.834,9.541,9.541,0,0,1-2.678-2.834Zm3.12-3.484V-7.2l-1.43-.624-.442.1H17.29V-9.36Zm0,2.548h2.314v-4.472H15.08v4.55h2.054v.858h2.73l-1.638.494A13.135,13.135,0,0,0,21.034-1.9,23.729,23.729,0,0,1,14.4.026a6.749,6.749,0,0,1,1.144,2,24.983,24.983,0,0,0,7.462-2.5A21.36,21.36,0,0,0,30.5,2.054a7.734,7.734,0,0,1,1.43-2.106,22.875,22.875,0,0,1-6.812-1.794A12.643,12.643,0,0,0,29.042-6.89ZM44.122-17a19.327,19.327,0,0,0-4.108-4.16l-1.846,1.352a18.565,18.565,0,0,1,4,4.342Zm-.7,5.278H37.986V-9.49h3.12v6.266A35.851,35.851,0,0,1,37.7-.572L38.9,1.82C40.17.7,41.314-.338,42.406-1.4c1.586,2,3.822,2.86,7.046,2.99,3.016.1,8.528.052,11.518-.078a10.529,10.529,0,0,1,.78-2.366c-3.3.234-9.334.312-12.272.182-2.886-.13-4.94-.936-6.058-2.73Zm17.992-3.536v-1.846H54.288v-1.846a61.214,61.214,0,0,0,6.11-.884l-1.534-1.586a89.722,89.722,0,0,1-13.078,1.248,7.342,7.342,0,0,1,.546,1.664c1.794-.052,3.718-.13,5.642-.26v1.664h-7.02v1.846h5.72A18.038,18.038,0,0,1,44.1-11.44a8.23,8.23,0,0,1,1.456,1.716c.442-.182.91-.39,1.378-.624v1.612h2.834c-.416,2.5-1.482,4.264-4.888,5.278A6.513,6.513,0,0,1,46.15-1.69C50.18-3.016,51.506-5.382,52-8.736h2.548c-.208.988-.416,1.95-.624,2.7l2.028.286c.078-.286.156-.572.234-.91H58.37c-.182,1.638-.416,2.392-.7,2.652-.182.182-.416.208-.858.208-.416,0-1.534-.026-2.7-.13a5.293,5.293,0,0,1,.572,1.82,25.444,25.444,0,0,0,3.12.026,2.161,2.161,0,0,0,1.69-.624c.6-.572.936-1.924,1.17-4.862l.078-.858h-4.16c.156-.728.286-1.456.416-2.158h-9.62a18.421,18.421,0,0,0,4.6-3.458V-11.1h2.314v-3.042a17.339,17.339,0,0,0,6.188,4.16,9.426,9.426,0,0,1,1.43-1.794,15.686,15.686,0,0,1-6.37-3.484Z" transform="translate(585 41)"/>
</svg>
