<svg xmlns="http://www.w3.org/2000/svg" width="407" height="118.95" viewBox="0 0 407 118.95">
  <path id="パス_850" data-name="パス 850" d="M-205.8-18.45h19.05v1.8c-.6.55-1.2,1.05-1.8,1.55-5.9.4-11.85.7-17.25,1Zm19.05-14.65v3.9H-205.8v-3.9Zm0,11.25H-205.8V-25.8h19.05Zm8.55-4.65a52.128,52.128,0,0,1-3.75,5V-37.15H-195.1c.8-1.3,1.6-2.75,2.35-4.2l-5.65-.75a37.927,37.927,0,0,1-1.8,4.95h-10.25v23.3l-7.6.4.7,4.6c6.1-.4,14.1-1,22.4-1.7A83.608,83.608,0,0,1-218.6-.7a34.486,34.486,0,0,1,3.15,4.25c10.6-3.15,20.5-7.75,28.7-14.1v8.4c0,.95-.35,1.25-1.35,1.3-1.05,0-4.7.05-8.25-.1a18.884,18.884,0,0,1,1.65,4.9c4.9,0,8.15-.05,10.15-.8,2-.85,2.6-2.35,2.6-5.25V-14.6a56.471,56.471,0,0,0,8.25-9.65Zm46.35,3.15v19.6h4.55v-19.6h8.9V-27.7h-22.45v-6.4c6.9-.9,14.55-2.25,20.15-4.2l-3.95-3.5c-4,1.5-10.7,2.9-16.95,3.85l-3.75-.75v11.4c0,6-.6,13.6-5.9,19.3a11.71,11.71,0,0,1,3.4,3.25c4.95-5.3,6.45-12.55,6.9-18.6ZM-151-33.15c-1.7-2.4-5.45-5.5-8.55-7.65L-163-38a37.564,37.564,0,0,1,8.35,7.9Zm-1.35,10.6H-163.3v4.3h6.4V-6.5a75.373,75.373,0,0,1-7.25,5.15l2.4,4.8c2.6-2.15,5-4.15,7.35-6.2,3.15,3.85,7.45,5.5,13.8,5.75,5.7.25,15.75.15,21.4-.1a21.18,21.18,0,0,1,1.55-4.75c-6.25.4-17.35.55-22.9.35-5.5-.2-9.6-1.8-11.8-5.25Zm64.45-17.4-5.5-.55a40.806,40.806,0,0,1-1.45,8.55c-1.75.15-3.5.2-5.15.2-2,0-4.4-.1-6.35-.3l.35,4.65c2,.1,4.1.15,6,.15,1.2,0,2.4-.05,3.65-.1A75.088,75.088,0,0,1-106.85-9.1l4.8,2.45A89.458,89.458,0,0,0-91.2-27.9a67.115,67.115,0,0,0,8.95-1.8l-.15-4.6a47.807,47.807,0,0,1-7.35,1.7C-89-35.4-88.3-38.2-87.9-39.95ZM-90.6-5.3c0-2.05,2.25-3.55,5.55-3.55a17.408,17.408,0,0,1,4.65.65c.05.65.05,1.25.05,1.7,0,2.7-1.25,4.8-5.05,4.8C-88.8-1.7-90.6-3.15-90.6-5.3Zm14.45-19.15h-4.9c.1,3.3.35,8,.5,11.95a28.666,28.666,0,0,0-4.25-.35c-6.2,0-10.45,3.3-10.45,8,0,5.2,4.7,7.7,10.5,7.7,6.6,0,9.15-3.45,9.15-7.7v-1.4a39.021,39.021,0,0,1,7.5,5.6l2.65-4.25A32.582,32.582,0,0,0-75.8-11.2c-.15-2.85-.3-5.75-.35-7.4C-76.2-20.6-76.25-22.35-76.15-24.45Zm9.4,1.9,2.85-4.15a88.509,88.509,0,0,0-12-6.7l-2.55,3.85A63.579,63.579,0,0,1-66.75-22.55Zm18.1.05a3.27,3.27,0,0,0,3.4-3.55,3.227,3.227,0,0,0-3.4-3.3,1.7,1.7,0,0,0-.5.05c0-3.15,1.5-5.2,4.5-7l-1.45-2.6c-4.4,2.35-6.65,5.85-6.65,10.6C-52.75-24.6-51.3-22.5-48.65-22.5Zm10.95,0a3.308,3.308,0,0,0,3.45-3.55,3.241,3.241,0,0,0-3.45-3.3,1.384,1.384,0,0,0-.45.05c0-3.15,1.5-5.2,4.5-7l-1.5-2.6c-4.35,2.35-6.6,5.85-6.6,10.6C-41.75-24.6-40.3-22.5-37.7-22.5Zm23.1-12.6v5.15c4,.35,8.3.55,13.4.55,4.7,0,10.45-.3,13.9-.6v-5.2c-3.7.4-9.05.7-13.9.7A127.714,127.714,0,0,1-14.6-35.1Zm2.95,20.6L-16.8-15a30.628,30.628,0,0,0-1,7.05C-17.8-1.4-12,2.2-1.25,2.2A74.3,74.3,0,0,0,15.9.45l-.05-5.5C11.8-3.85,5.4-3.1-1.4-3.1c-7.7,0-11.2-2.45-11.2-6A19.2,19.2,0,0,1-11.65-14.5Zm25.7-26L10.8-39.15a50.928,50.928,0,0,1,4,6.95l3.3-1.45A72.457,72.457,0,0,0,14.05-40.5Zm5.7-2.1-3.2,1.35a52.3,52.3,0,0,1,4.1,6.9L23.9-35.8A77.586,77.586,0,0,0,19.75-42.6Zm21.2,5.4.2,5.15c1.25-.2,2.85-.35,3.9-.4,2.25-.1,7.6-.35,9.6-.4-1.35,2.75-3.05,6.65-4.7,10.3-9.9.35-16.8,6.1-16.8,13.65,0,4.6,3,7.4,7,7.4,2.95,0,5.05-1.1,6.95-3.85,1.85-2.85,4.15-8.3,6-12.65a35.114,35.114,0,0,1,13.25,4.35C64.7-8.6,61.15-3.5,53.4-.2l4.2,3.45c7-3.55,10.85-8.15,12.95-14.3q2.625,1.875,4.8,3.75l2.3-5.4c-1.55-1.1-3.45-2.35-5.7-3.65a84.12,84.12,0,0,0,1-9.5l-5.2-.55a32.35,32.35,0,0,1,.05,4.95q-.075,1.35-.3,2.85A43.915,43.915,0,0,0,55-22.3c2-4.5,4.05-9.2,5.4-11.4a10.147,10.147,0,0,1,1.5-1.85l-3.15-2.5a11.393,11.393,0,0,1-2.9.6c-2.2.15-8.25.45-10.95.45A37.948,37.948,0,0,1,40.95-37.2ZM37.7-9.6c0-3.75,3.75-7.75,10.3-8.45-1.6,3.65-3.25,7.6-4.85,9.75a3.356,3.356,0,0,1-2.8,1.7A2.678,2.678,0,0,1,37.7-9.6ZM90.15-22.85c4.35-2.4,6.6-5.9,6.6-10.65,0-3.65-1.45-5.75-4.1-5.75A3.258,3.258,0,0,0,89.3-35.7a3.175,3.175,0,0,0,3.35,3.25,2.051,2.051,0,0,0,.55-.05c0,3.2-1.55,5.2-4.55,7.05Zm11,0c4.35-2.4,6.6-5.9,6.6-10.65,0-3.65-1.45-5.75-4.1-5.75a3.3,3.3,0,0,0-3.4,3.55,3.216,3.216,0,0,0,3.4,3.25,2.051,2.051,0,0,0,.55-.05c0,3.2-1.55,5.2-4.55,7.05ZM139.5-39.8l-5.2-.4a24.9,24.9,0,0,1-1.15,5.95c-1,.05-2,.05-2.95.05a64.628,64.628,0,0,1-8.6-.55v4.7c2.8.2,6.25.3,8.35.3h1.45c-2.05,4.25-5.45,9.1-11.3,14.6l4.3,3.2a54.38,54.38,0,0,1,4.55-5.35,12.744,12.744,0,0,1,8.3-3.6,4.024,4.024,0,0,1,4.1,2.5c-5.8,2.95-11.8,6.85-11.8,13,0,6.2,5.8,7.95,13.25,7.95a127.324,127.324,0,0,0,13.9-.9l.15-5.05a85.142,85.142,0,0,1-13.9,1.3c-5.05,0-8.3-.7-8.3-4.1,0-2.95,2.7-5.25,7-7.6-.05,2.45-.1,5.3-.2,7.05h4.75c-.05-2.4-.1-6.4-.15-9.25,3.5-1.6,6.75-2.9,9.3-3.9,1.5-.6,3.65-1.4,5.1-1.85l-2.05-4.6c-1.6.8-3.05,1.45-4.75,2.2-2.35,1.1-4.9,2.15-8,3.6-.95-2.8-3.55-4.25-6.7-4.25a14.684,14.684,0,0,0-6.4,1.5,40.122,40.122,0,0,0,3.85-6.6,154.489,154.489,0,0,0,16.45-1.3v-4.65a115.272,115.272,0,0,1-14.7,1.45C138.8-36.55,139.2-38.4,139.5-39.8ZM184.15,3.05l4.25-3.6A92.259,92.259,0,0,0,177.35-11.6L173.25-8A91.262,91.262,0,0,1,184.15,3.05ZM-170.45,54.7V50.1H-190.1V42.5h16.15V37.9H-190.1V30.05H-195V37.9h-15.75v4.6H-195v7.6h-19.35v4.6h16.9A48.336,48.336,0,0,1-215.8,69.45a31.564,31.564,0,0,1,3.4,3.95A54.431,54.431,0,0,0-195,58.65V75.9h4.9V58.45c4.75,6.2,11.15,11.85,17.45,15a26.134,26.134,0,0,1,3.4-4A48.556,48.556,0,0,1-187.7,54.7Zm55.05,1.65v-4.5h-19.65V40.25h17.65V35.8h-17.65V30.05h-4.9V35.8H-157.2v4.45h17.25v11.6h-19.6v4.5h16.7a48.4,48.4,0,0,1-17.9,13.75,22.352,22.352,0,0,1,3.3,3.9,53.274,53.274,0,0,0,17.5-14.8V75.95h4.9V59.1A53.764,53.764,0,0,0-117.5,74.15a22.8,22.8,0,0,1,3.25-3.95A48.293,48.293,0,0,1-132,56.35ZM-153.45,42.4a36.4,36.4,0,0,1,4.2,9.3l4.4-1.75a35.623,35.623,0,0,0-4.5-9.1ZM-126,51.75a89.407,89.407,0,0,0,5.55-9.6l-4.85-1.45a62,62,0,0,1-4.7,9.7Zm20.9,6,4.7,4.85c.85-1.15,2-2.75,3.05-4.25,2.4-2.95,6.25-8.25,8.45-11,1.6-1.95,2.55-2.3,4.5-.15,2.35,2.65,6.1,7.45,9.3,11.1,3.3,3.85,7.75,8.8,11.45,12.3l4.05-4.65c-4.6-4.1-9.3-9.05-12.4-12.45-3.1-3.3-7-8.35-10.15-11.5-3.45-3.45-6.35-3.05-9.5.6-3.05,3.6-7.05,9.05-9.6,11.6A30.769,30.769,0,0,1-105.1,57.75Zm98.4-3.3C-6.7,44-14.3,35.6-26.3,35.6c-12.55,0-22.35,9.6-22.35,20.8,0,8.35,4.55,13.85,9.5,13.85s9.1-5.65,12.1-15.85a99.562,99.562,0,0,0,3-14.05c7.7.95,12.1,6.7,12.1,13.95,0,8.05-5.7,12.75-12.1,14.2a30.9,30.9,0,0,1-4.45.7l2.95,4.7C-13.4,72.15-6.7,64.95-6.7,54.45ZM-43.6,55.9c0-6.2,5.25-14,14.25-15.45a79.6,79.6,0,0,1-2.75,12.9c-2.3,7.7-4.65,10.95-6.9,10.95C-41.15,64.3-43.6,61.65-43.6,55.9ZM4.85,49.95v5.1h45.5v-5.1ZM80.25,60c0,.6-.2.75-.95.75-.7.05-3.4.05-6-.05a15.821,15.821,0,0,1,1.45,4.25c3.7,0,6.25-.05,7.95-.7,1.75-.7,2.2-1.85,2.2-4.1V49.65h19.8v-4.4H85V39.6H99.9V35.35H85v-5.3H80.25v15.2h-8.1V33.7h-4.7V45.25H60.4v4.4H80.25ZM70.1,50.8a33.108,33.108,0,0,1-9.55,10,33,33,0,0,1,4.2,2.95A45.07,45.07,0,0,0,74.9,52.3Zm22,7c-3.9,9.3-12.9,12.8-27.7,14.05a12.2,12.2,0,0,1,2.2,4.5c16.05-1.95,25.8-6.2,30.25-17.15Zm-1-4.75c3.65,3.15,7.8,7.65,9.65,10.75l4-2.7c-1.9-3.05-6.3-7.45-9.85-10.4Zm44-15.35.05,5.1a127.433,127.433,0,0,0,20.95,0V37.7A92.14,92.14,0,0,1,135.1,37.7Zm2.85,20.8-4.5-.4a25.325,25.325,0,0,0-.85,6.15c0,4.85,3.9,7.8,12.4,7.8a68.6,68.6,0,0,0,12.65-1l-.1-5.35a53.692,53.692,0,0,1-12.45,1.35c-6.05,0-7.8-1.85-7.8-4.1A17.37,17.37,0,0,1,137.95,58.5ZM126.4,34.1l-5.55-.5a36.345,36.345,0,0,1-.45,4.15c-.55,4-2.15,12.5-2.15,19.95a63.537,63.537,0,0,0,1.85,16.15l4.55-.3c-.05-.6-.1-1.35-.1-1.85a9.774,9.774,0,0,1,.25-2.3c.5-2.5,2.25-7.85,3.55-11.65l-2.5-2c-.8,1.85-1.8,4.3-2.65,6.35a49.337,49.337,0,0,1-.3-5.35c0-5.35,1.6-14.75,2.45-18.85A35.86,35.86,0,0,1,126.4,34.1Zm50.8,25.6a7.825,7.825,0,1,0,0,15.65,7.825,7.825,0,0,0,0-15.65Zm0,12.65a4.8,4.8,0,1,1,4.8-4.8A4.8,4.8,0,0,1,177.2,72.35Z" transform="translate(218.6 42.6)" fill="#0077c0"/>
</svg>
