<svg id="コンポーネント_26_1" data-name="コンポーネント 26 – 1" xmlns="http://www.w3.org/2000/svg" xmlns:xlink="http://www.w3.org/1999/xlink" width="605" height="93.158" viewBox="0 0 605 93.158">
  <defs>
    <clipPath id="clip-path">
      <rect id="長方形_346" data-name="長方形 346" width="605" height="80" transform="translate(658 3717)" fill="#fff"/>
    </clipPath>
    <clipPath id="clip-path-2">
      <rect id="長方形_147" data-name="長方形 147" width="24.318" height="31.266" transform="translate(0 0)" fill="#0077c0"/>
    </clipPath>
  </defs>
  <g id="グループ_910" data-name="グループ 910" transform="translate(-658 -3717)">
    <g id="グループ_909" data-name="グループ 909">
      <g id="マスクグループ_116" data-name="マスクグループ 116" clip-path="url(#clip-path)">
        <rect id="長方形_345" data-name="長方形 345" width="500" height="140" rx="36" transform="translate(710 3717)" fill="#fff"/>
        <path id="長方形_345_-_アウトライン" data-name="長方形 345 - アウトライン" d="M36,8A28.032,28.032,0,0,0,8,36v68a28.032,28.032,0,0,0,28,28H464a28.032,28.032,0,0,0,28-28V36A28.032,28.032,0,0,0,464,8H36m0-8H464a36,36,0,0,1,36,36v68a36,36,0,0,1-36,36H36A36,36,0,0,1,0,104V36A36,36,0,0,1,36,0Z" transform="translate(710 3717)" fill="#0077c0"/>
      </g>
      <rect id="長方形_349" data-name="長方形 349" width="12" height="23" transform="translate(1200 3774)" fill="#fff"/>
      <g id="グループ_907" data-name="グループ 907" transform="translate(1221.928 3618.537) rotate(90)">
        <g id="マスクグループ_10" data-name="マスクグループ 10" transform="translate(155.463 0)" clip-path="url(#clip-path-2)">
          <path id="パス_99" data-name="パス 99" d="M19.3,21.317,11.231,6.962,3,20.65l-6-3.608,14.437-24L25.4,17.888Z" transform="translate(15.826 4.65) rotate(90)" fill="#0177c0"/>
        </g>
      </g>
    </g>
  </g>
  <path id="パス_847" data-name="パス 847" d="M-8.934-17.352V0h-2.844V-11.208q0-.672.072-1.452L-16.95-2.808a1.212,1.212,0,0,1-1.14.708h-.456a1.212,1.212,0,0,1-1.14-.708l-5.3-9.888q.036.4.06.78t.024.708V0H-27.75V-17.352h2.436q.216,0,.372.012a1.006,1.006,0,0,1,.282.06.613.613,0,0,1,.228.156,1.333,1.333,0,0,1,.2.288l5.2,9.636q.2.384.378.792t.342.84q.168-.444.348-.858t.384-.8l5.124-9.612a1.211,1.211,0,0,1,.2-.288.667.667,0,0,1,.234-.156,1.006,1.006,0,0,1,.282-.06q.156-.012.372-.012Zm7.5,5.04V0H-4.41V-12.312Zm.408-3.588a1.689,1.689,0,0,1-.156.72,1.979,1.979,0,0,1-.414.588,1.979,1.979,0,0,1-.606.4,1.859,1.859,0,0,1-.744.15,1.788,1.788,0,0,1-.726-.15,1.923,1.923,0,0,1-.594-.4,1.944,1.944,0,0,1-.4-.588,1.746,1.746,0,0,1-.15-.72,1.859,1.859,0,0,1,.15-.744,1.9,1.9,0,0,1,.4-.6,1.923,1.923,0,0,1,.594-.4,1.788,1.788,0,0,1,.726-.15,1.859,1.859,0,0,1,.744.15,1.979,1.979,0,0,1,.606.4,1.936,1.936,0,0,1,.414.6A1.8,1.8,0,0,1-1.026-15.9Zm6.588,5.1a8.018,8.018,0,0,1,.786-.69,4.966,4.966,0,0,1,.876-.54,4.909,4.909,0,0,1,.99-.348A4.96,4.96,0,0,1,9.366-12.5a4.414,4.414,0,0,1,1.788.342,3.533,3.533,0,0,1,1.3.96,4.22,4.22,0,0,1,.792,1.476,6.273,6.273,0,0,1,.27,1.89V0H10.554V-7.836a2.651,2.651,0,0,0-.516-1.746A1.932,1.932,0,0,0,8.466-10.2a3.086,3.086,0,0,0-1.44.348A5.161,5.161,0,0,0,5.754-8.9V0H2.79V-12.312H4.6a.728.728,0,0,1,.756.54ZM25.254-9.168a2.917,2.917,0,0,0-1.1-.864,3.238,3.238,0,0,0-1.278-.252,2.832,2.832,0,0,0-1.212.252,2.441,2.441,0,0,0-.924.762,3.664,3.664,0,0,0-.588,1.3,7.44,7.44,0,0,0-.2,1.854,8.23,8.23,0,0,0,.174,1.83,3.6,3.6,0,0,0,.5,1.224,1.9,1.9,0,0,0,.792.684,2.522,2.522,0,0,0,1.044.21,3.032,3.032,0,0,0,1.572-.384,4.669,4.669,0,0,0,1.224-1.092Zm2.964-8.664V0H26.406a.7.7,0,0,1-.744-.54L25.41-1.728A6.214,6.214,0,0,1,23.7-.348,4.618,4.618,0,0,1,21.45.18,4.074,4.074,0,0,1,19.6-.24a4.117,4.117,0,0,1-1.446-1.218,5.838,5.838,0,0,1-.936-1.974,9.969,9.969,0,0,1-.33-2.688,8.393,8.393,0,0,1,.372-2.544A6.19,6.19,0,0,1,18.33-10.7,4.984,4.984,0,0,1,20-12.054a4.816,4.816,0,0,1,2.184-.486,4.342,4.342,0,0,1,1.764.324,4.52,4.52,0,0,1,1.308.876v-6.492Z" transform="translate(302 54)" fill="#0077c0"/>
  <path id="パス_844" data-name="パス 844" d="M-59.644-20.9H-71.266v2.028h11.622Zm5.2,15.392v4.368H-65.078V-5.512Zm-13.078,7.54h2.444V.988h10.634V1.95h2.522V-7.644h-15.6Zm15.574-19.084a10.755,10.755,0,0,1-1.976,3.406,14.726,14.726,0,0,1-2.21-3.406Zm-10.816,4.394h-5.174c.026-.468.026-.91.026-1.326v-1.378h5.148Zm14.69-4.394v-2.028h-7.488a23.543,23.543,0,0,0,.754-2.288l-2.158-.494a16.96,16.96,0,0,1-3.51,6.968v-2.444h-9.646v3.3c0,2.158-.234,5.044-1.9,7.2A9.729,9.729,0,0,1-70.2-5.382a11.307,11.307,0,0,0,2.08-5.356h7.644v-3.64a11.785,11.785,0,0,1,1.4,1.3A13.868,13.868,0,0,0-57.46-15.21a18.634,18.634,0,0,0,2,3.042A15.514,15.514,0,0,1-60.424-9.75a10.522,10.522,0,0,1,1.43,1.924,17.879,17.879,0,0,0,5.018-2.73,16.179,16.179,0,0,0,5.018,3.3,11.082,11.082,0,0,1,1.534-1.924,15.16,15.16,0,0,1-4.94-2.886,13.992,13.992,0,0,0,2.834-4.992Zm20.02,9.932h-3.952v-3.432h3.952Zm5.2-3.432v-.936A16.471,16.471,0,0,0-19.37-9.36a9.293,9.293,0,0,1,1.664-2.08,16.277,16.277,0,0,1-4.5-2.73,38.319,38.319,0,0,0,3.8-3.12L-20.2-18.538a28.114,28.114,0,0,1-3.354,3.094c-.494-.546-.988-1.118-1.43-1.716A41.112,41.112,0,0,0-21.424-20.2l-1.82-1.274a25.481,25.481,0,0,1-2.782,2.782,19.737,19.737,0,0,1-1.508-3.068l-2.132.624a23.365,23.365,0,0,0,5.278,8.294H-35.282A17.918,17.918,0,0,0-30.446-20.1l-1.586-.754-.442.078h-7.1v2.106h5.928a16.467,16.467,0,0,1-2.08,2.964,22.821,22.821,0,0,0-2.86-2.262l-1.508,1.274a27.316,27.316,0,0,1,2.86,2.5,17.847,17.847,0,0,1-4.836,3.068,8.15,8.15,0,0,1,1.456,1.82,20.56,20.56,0,0,0,3.692-2.184v.936H-34.4v3.432h-5.8v2.236h5.512c-.546,1.95-2.08,3.822-6.084,5.148a8.2,8.2,0,0,1,1.534,1.9c4.914-1.69,6.552-4.29,7.046-7.046h4.134v3.562c0,2.47.6,3.172,3.042,3.172h3.172c2.028,0,2.7-.962,2.912-4.316a6.641,6.641,0,0,1-2.158-.936c-.1,2.574-.234,3.094-.988,3.094H-24.6c-.832,0-.962-.13-.962-1.014V-4.888h5.876V-7.124h-5.876v-3.432ZM0-12.9A3.018,3.018,0,0,0-3.016-9.88,3.018,3.018,0,0,0,0-6.864,3.018,3.018,0,0,0,3.016-9.88,3.018,3.018,0,0,0,0-12.9Zm35.178,3.12a15.386,15.386,0,0,1-5.226,5.512,15.176,15.176,0,0,1-4.94-5.512Zm1.794-2.5-.416.1H31.07V-15.73h9.7v-2.392h-9.7v-3.692h-2.5v3.692h-9.62v2.392h9.62v3.562H20.15v2.392h4.342L22.7-9.152A18.82,18.82,0,0,0,27.612-2.99a34.9,34.9,0,0,1-9.7,2.7,8.809,8.809,0,0,1,1.352,2.314A34.994,34.994,0,0,0,29.822-1.43a28.25,28.25,0,0,0,10.53,3.536,11.341,11.341,0,0,1,1.534-2.34,29.019,29.019,0,0,1-9.672-2.7,18.184,18.184,0,0,0,6.448-8.32Zm32.136-9.386a91.168,91.168,0,0,1-13,1.248,7.9,7.9,0,0,1,.546,1.846,84.775,84.775,0,0,0,13.806-1.3Zm-4.654,6.214c-.13-.806-.442-2.21-.728-3.276l-1.924.338c.26,1.092.546,2.548.65,3.406ZM56-7.852l-.338-2.21c-.806.26-1.664.494-2.47.728v-5.174h2.6v-2.236H53.2v-5.044h-2.21v5.044H47.97v2.236h3.016v5.85c-1.222.338-2.366.65-3.276.884l.39,2.392,2.886-.91V-.624c0,.364-.13.442-.468.442-.286.026-1.248.026-2.288,0a7.718,7.718,0,0,1,.65,2.236,7.3,7.3,0,0,0,3.38-.468c.7-.364.936-1.014.936-2.21V-6.968Zm11.128,1.9A9.162,9.162,0,0,1,64.714-2.73,11.051,11.051,0,0,1,61.62-5.954Zm1.4-1.872-.416.052H61.386c.078-.494.182-.936.26-1.43h9.828v-2H61.932c.078-.572.13-1.118.182-1.69h8.58V-14.82H67.86c.754-1.066,1.56-2.366,2.288-3.562l-2.288-.7a24.516,24.516,0,0,1-2.184,4.264H58.838l1.482-.52A21.815,21.815,0,0,0,59.1-18.382l-1.846.494a24.172,24.172,0,0,1,1.066,3.068H56.524V-12.9h3.25c-.052.546-.1,1.092-.156,1.69h-3.64v2h3.354c-.6,3.588-1.976,7.28-5.564,9.49A6.185,6.185,0,0,1,55.354,2a13.062,13.062,0,0,0,4.966-6.24A15.51,15.51,0,0,0,62.894-1.43,18.22,18.22,0,0,1,58.11.286a8.379,8.379,0,0,1,1.326,1.82A18.309,18.309,0,0,0,64.74-.13a18.434,18.434,0,0,0,5.772,2.236A9.687,9.687,0,0,1,71.994.078,18.244,18.244,0,0,1,66.56-1.638a12.713,12.713,0,0,0,3.3-5.642Z" transform="translate(302 91)"/>
</svg>
