<svg id="コンポーネント_30_1" data-name="コンポーネント 30 – 1" xmlns="http://www.w3.org/2000/svg" width="338.428" height="64.936" viewBox="0 0 338.428 64.936">
  <path id="パス_826" data-name="パス 826" d="M-140.866-18.734h-7.6v-2.318h7.6Zm0,5.434h-7.6v-2.318h7.6Zm0,5.548h-7.6v-2.394h7.6Zm-11.666-16.682V-4.408h15.96V-24.434h-6.84c.3-.76.646-1.6.95-2.432h6.84V-30.7h-18.012v3.838h6.346c-.152.8-.3,1.634-.532,2.432Zm-5.092-7.106a26.185,26.185,0,0,1-1.71,4.636l2.888.95c.76-1.178,1.634-2.85,2.546-4.6Zm-7.22,4.484a16.413,16.413,0,0,0-1.938-4.332l-3.04,1.14a14.514,14.514,0,0,1,1.786,4.446Zm.76,12.236h3.914V-18.7c1.558,1.216,3.306,2.584,4.256,3.5l2.356-3.154c-1.026-.684-4.978-3.04-6.536-3.838h6.042v-3.534h-6.118v-6h-3.914v6h-6.042v3.534h4.788a18.493,18.493,0,0,1-5.586,5.054,17.37,17.37,0,0,1,2.584,2.926,20.049,20.049,0,0,0,4.256-4.18ZM-153.9-2.128a55.006,55.006,0,0,0-6.46-4.712c.038-.228.076-.494.114-.722h6.46v-3.876h-6.346v-2.584H-164.2v2.584h-5.928v3.876h5.7c-.494,2.508-2.09,5.13-6.688,6.992a13.513,13.513,0,0,1,2.394,3.344c3.724-1.6,5.852-3.648,7.068-5.89a50.967,50.967,0,0,1,4.94,4.028l.418-.456a25.208,25.208,0,0,1,2.85,2.85,27.136,27.136,0,0,0,7.828-5.32L-149.3-4.37A22.149,22.149,0,0,1-156.18.342Zm9.728.228a43.8,43.8,0,0,1,6.08,5.168l3.42-2.432A49.948,49.948,0,0,0-140.98-4.1Zm44.042-16.72a41.8,41.8,0,0,0-4.1-8.816L-108-25.878a45.112,45.112,0,0,1,3.762,9.044Zm-19.038-13.452a40.387,40.387,0,0,1-8.626,14.25,28.625,28.625,0,0,1,2.394,4.674,34.918,34.918,0,0,0,2.584-3.04V3.23h4.294V-22.876a60.565,60.565,0,0,0,3.648-7.828Zm14.782,20.178c-1.634.608-3.306,1.216-4.94,1.824l-.19-19.95-4.408.038L-113.7-8.55c-1.406.494-2.736.95-3.838,1.292l1.824,4.446c3.572-1.444,8.056-3.306,12.16-5.13ZM-90.9.114a77.6,77.6,0,0,0-6.156-7.98c2.812-5.548,3.838-12.882,4.18-22.61l-4.6-.114c-.38,17.176-2.888,26.068-15.922,30.248A21.053,21.053,0,0,1-110.5,3.572,25.146,25.146,0,0,0-99.56-3.914a68.273,68.273,0,0,1,5.054,7.258Zm41.572-13.49c0-8.284-5.928-14.82-15.352-14.82-9.842,0-17.442,7.486-17.442,16.264,0,6.422,3.5,11.058,7.714,11.058,4.142,0,7.41-4.712,9.69-12.388a76.849,76.849,0,0,0,2.28-10.3c5.13.874,7.98,4.788,7.98,10.032,0,5.548-3.8,9.044-8.664,10.184a29.227,29.227,0,0,1-3.534.608l2.85,4.522C-54.226.3-49.324-5.358-49.324-13.376Zm-27.93.95c0-4.18,3.382-9.728,9.652-11.02a57.039,57.039,0,0,1-2.014,9.2c-1.558,5.13-3.04,7.524-4.636,7.524C-75.734-6.726-77.254-8.588-77.254-12.426ZM-25.46-31.008H-37.544v3.42H-25.46Zm-4.18,24.4v4.37h-4.332v-4.37Zm3.952-3.572h-12.2V2.774h3.914V1.292h8.284Zm-12.084-1.862h12.2v-3.382h-12.2Zm0-5.13h12.2v-3.458h-12.2ZM-39.6-22.344h15.542v-3.572H-39.6ZM-15.808-1.292c-1.786,0-2.09-.266-2.09-1.862v-10.6h7.41v1.862h4.522V-30.286H-22.572v4.294h12.084v7.942H-22.5v14.9c0,4.864,1.482,6.118,6.194,6.118h6.27c4.294,0,5.51-1.824,6.08-8.132a13.547,13.547,0,0,1-4.18-1.748c-.266,4.75-.532,5.624-2.242,5.624Zm46.664-4.18h-6.84V-7.258h6.84Zm-6.84-6.878h6.84v1.634h-6.84ZM13.452-19.912v-1.824h5.966v1.824Zm16.72-1.824v1.824H24.016v-1.824Zm9.234,11.02H35.454V-15.39H24.016v-1.672H34.808v-7.524H24.016v-1.558H38.532v-3.572H24.016v-2.47h-4.6v2.47H5.244v3.572H19.418v1.558H9.12v7.524h10.3v1.672H8.17v3.04H19.418v1.634H4.37v3.458H19.418v1.786H7.866V-2.2H19.418v1.178c0,.684-.228.912-.95.95-.608,0-2.85,0-4.674-.076A13.931,13.931,0,0,1,15.276,3.42c3.23,0,5.282-.076,6.726-.646,1.482-.646,2.014-1.558,2.014-3.8V-2.2h6.84V-.646h4.6V-7.258h3.952Zm25.612-19.76L60-30.894a21.127,21.127,0,0,1-.76,4.37H57.418a49.445,49.445,0,0,1-6.688-.456v4.446c2.09.152,4.864.228,6.422.228h.494a37.293,37.293,0,0,1-8.4,10.488l4.066,3.04a43.752,43.752,0,0,1,3.534-4.18,9.256,9.256,0,0,1,5.928-2.622,2.924,2.924,0,0,1,2.66,1.292C61.1-12.046,56.544-9.006,56.544-4.142c0,4.9,4.408,6.346,10.374,6.346a95.059,95.059,0,0,0,10.754-.646l.152-4.9A62.164,62.164,0,0,1,67.032-2.28c-3.724,0-5.51-.57-5.51-2.66,0-1.9,1.52-3.382,4.37-5.016-.038,1.672-.076,3.5-.19,4.636h4.56c-.038-1.748-.114-4.56-.152-6.688,2.318-1.064,4.484-1.9,6.194-2.584,1.292-.494,3.306-1.254,4.522-1.6l-1.9-4.408c-1.406.722-2.736,1.33-4.218,1.976-1.558.684-3.154,1.33-5.13,2.242A5.146,5.146,0,0,0,64.524-19.3a12.876,12.876,0,0,0-4.294.76A26.532,26.532,0,0,0,62.4-22.42a113.2,113.2,0,0,0,12.388-.95l.038-4.408a96.2,96.2,0,0,1-10.754,1.1A36.355,36.355,0,0,0,65.018-30.476Zm33.364,1.71.19,4.9c.988-.152,2.318-.266,3.078-.3,1.748-.114,5.016-.228,6.536-.3-.874,1.786-1.976,4.37-3.04,6.878-7.638.342-13,4.826-13,10.716C92.15-3.04,94.658-.722,98-.722a6.623,6.623,0,0,0,5.928-3.344,74.691,74.691,0,0,0,4.294-9.12,26.347,26.347,0,0,1,9.006,3.078c-1.254,3.458-3.914,7.068-9.652,9.538l4.028,3.306c5.092-2.66,7.98-6,9.652-10.3a39.62,39.62,0,0,1,3.268,2.66l2.2-5.282c-1.1-.76-2.47-1.634-4.066-2.546a61.715,61.715,0,0,0,.722-7.03l-4.978-.57a25.028,25.028,0,0,1,0,4.142c-.038.418-.076.836-.114,1.292a34.192,34.192,0,0,0-8.246-2.432,80.965,80.965,0,0,1,3.8-8.17,9.161,9.161,0,0,1,1.292-1.6L112.1-29.45a8.164,8.164,0,0,1-2.584.532c-1.786.152-5.814.342-7.98.342C100.7-28.576,99.408-28.652,98.382-28.766ZM96.6-7.6c0-2.394,2.394-4.978,6.65-5.624a42.557,42.557,0,0,1-3.078,6.194c-.684.95-1.216,1.33-1.976,1.33C97.318-5.7,96.6-6.346,96.6-7.6ZM148.77-4.484c0-.95.912-1.824,2.356-1.824,2.052,0,3.458,1.6,3.686,4.066a19.838,19.838,0,0,1-2.2.114C150.328-2.128,148.77-3.078,148.77-4.484Zm-6.46-24.472.152,4.94c.874-.114,2.09-.228,3.116-.3,2.014-.114,7.258-.342,9.2-.38-1.862,1.634-5.814,4.826-7.942,6.574-2.242,1.862-6.84,5.738-9.538,7.9l3.458,3.572c4.066-4.636,7.866-7.714,13.68-7.714,4.484,0,7.9,2.318,7.9,5.738a5.507,5.507,0,0,1-3.154,5.168c-.532-3.61-3.382-6.5-8.094-6.5-4.028,0-6.8,2.85-6.8,5.928,0,3.8,3.99,6.232,9.272,6.232,9.2,0,13.756-4.75,13.756-10.754,0-5.548-4.9-9.576-11.362-9.576a14.844,14.844,0,0,0-3.61.418c2.394-1.9,6.384-5.244,8.436-6.688.874-.646,1.786-1.178,2.66-1.748l-2.47-3.382a16.6,16.6,0,0,1-2.888.418c-2.166.19-10.3.342-12.312.342A26.37,26.37,0,0,1,142.31-28.956Z" transform="translate(171.114 32.186)" fill="#0077c0"/>
  <path id="パス_72" data-name="パス 72" d="M0,0H68" transform="translate(137.114 64.186)" fill="none" stroke="#1b66a2" stroke-width="1.5"/>
</svg>
