<svg id="コンポーネント_20_1" data-name="コンポーネント 20 – 1" xmlns="http://www.w3.org/2000/svg" xmlns:xlink="http://www.w3.org/1999/xlink" width="679.5" height="418.012" viewBox="0 0 679.5 418.012">
  <defs>
    <clipPath id="clip-path">
      <path id="パス_764" data-name="パス 764" d="M10040.965,6318.811s-40.908,42.168-3.164,71.76-106.187,1.727-106.187,1.727l-9.6-32.1,21.58-66.368h66l31.363,11.58Z" transform="translate(-9922.018 -6293.83)" fill="#fff"/>
    </clipPath>
    <clipPath id="clip-path-2">
      <path id="パス_780" data-name="パス 780" d="M10030.807,6319.072s-19.377,24.179,18.367,53.77-117.561,19.455-117.561,19.455l-9.6-32.1,21.58-66.368h66l-10.887,17.47Z" transform="translate(-9922.018 -6293.83)" fill="#fff"/>
    </clipPath>
    <clipPath id="clip-path-3">
      <rect id="長方形_147" data-name="長方形 147" width="24.318" height="31.266" transform="translate(0 0)" fill="#0077c0"/>
    </clipPath>
  </defs>
  <g id="グループ_1452" data-name="グループ 1452" transform="translate(-34.776 -3822.688)">
    <g id="グループ_960" data-name="グループ 960" transform="translate(246.776 3855.151)">
      <circle id="楕円形_59" data-name="楕円形 59" cx="123.394" cy="123.394" r="123.394" transform="translate(0 6.952)" fill="#fff"/>
      <path id="楕円形_59_-_アウトライン" data-name="楕円形 59 - アウトライン" d="M123.394,2A122.3,122.3,0,0,0,98.927,4.466a120.718,120.718,0,0,0-43.4,18.265A121.754,121.754,0,0,0,11.539,76.143,120.769,120.769,0,0,0,4.466,98.927a122.6,122.6,0,0,0,0,48.934,120.718,120.718,0,0,0,18.265,43.4,121.755,121.755,0,0,0,53.412,43.984,120.77,120.77,0,0,0,22.784,7.073,122.6,122.6,0,0,0,48.934,0,120.716,120.716,0,0,0,43.4-18.265,121.755,121.755,0,0,0,43.984-53.412,120.77,120.77,0,0,0,7.073-22.784,122.6,122.6,0,0,0,0-48.934,120.717,120.717,0,0,0-18.265-43.4,121.754,121.754,0,0,0-53.412-43.984,120.769,120.769,0,0,0-22.784-7.073A122.3,122.3,0,0,0,123.394,2m0-2A123.394,123.394,0,1,1,0,123.394,123.394,123.394,0,0,1,123.394,0Z" transform="translate(0 6.952)"/>
      <path id="パス_850" data-name="パス 850" d="M-24.829-16.414a5.758,5.758,0,0,0-1.252,1.472q-.374.681-.593.681a3.927,3.927,0,0,1-.725-.22,53.367,53.367,0,0,1-8.218-4.373,26.385,26.385,0,0,1-6.5-6.724,25.856,25.856,0,0,1-8.086,8.262l4.768.044h6.658l5.142-.088a.311.311,0,0,1,.352.352v1.714q0,.308-.352.308-.066,0-.505-.022-1.472-.044-3.274-.066v5.01h4.351l6.35-.088q.4,0,.4.308V-8.13q0,.352-.4.352l-6.35-.088h-4.351v5.933q0,1.934.857,2.175a11.182,11.182,0,0,0,3.01.308,7.579,7.579,0,0,0,3.823-.681,2.5,2.5,0,0,0,.835-1.714,30.14,30.14,0,0,0,.2-3.186,6.854,6.854,0,0,0,1.67.945,1.832,1.832,0,0,1,.659.33.527.527,0,0,1,.132.417q0,.11-.022.374A14.632,14.632,0,0,1-26.873.22a3.044,3.044,0,0,1-1.187,1.538q-1.582,1.077-5.625,1.077-3.757,0-5.054-.681a3.371,3.371,0,0,1-1.208-3.01V-7.866h-5.867a12.72,12.72,0,0,1-3.8,7.6,17.431,17.431,0,0,1-7.493,3.516,2.108,2.108,0,0,1-.615.132q-.308,0-.725-.681A5.616,5.616,0,0,0-59.7,1.384q5.823-1.143,8.35-3.406a10.278,10.278,0,0,0,3.032-5.845h-2.351l-6.35.088a.311.311,0,0,1-.352-.352V-9.844q0-.308.352-.308l6.35.088h2.659q.176-1.934.176-5.01-1.143.022-2.065.066l-.681.022q-.352,0-.352-.308v-1.582a44.685,44.685,0,0,1-4.944,2.659l-.725.264q-.22,0-.593-.637a3.888,3.888,0,0,0-1.121-1.252,40.079,40.079,0,0,0,6.987-3.582,27.04,27.04,0,0,0-4.241-3.713q-.22-.11-.22-.242,0-.154.352-.439l.813-.7q.286-.286.4-.286a.532.532,0,0,1,.286.132,35.612,35.612,0,0,1,4.592,3.845,18.946,18.946,0,0,0,4.636-5.1h-4.46L-53-25.84q-.417,0-.417-.352v-1.582q0-.352.417-.352l3.823.088h3.955l3.823-.088a.5.5,0,0,1,.505.308,9.578,9.578,0,0,0,1.121,1.758,14.066,14.066,0,0,0,1.208,1.538A29.826,29.826,0,0,0-34.827-27.6,5.814,5.814,0,0,0-33.6-29.18,13.659,13.659,0,0,1-31.9-27.861q.417.4.417.637,0,.286-.461.439a4.7,4.7,0,0,0-1.516.9,44.857,44.857,0,0,1-3.647,2.834,21.172,21.172,0,0,0,2.7,2.175,27.106,27.106,0,0,0,3.823-2.988,7.726,7.726,0,0,0,1.3-1.56,15.122,15.122,0,0,1,1.714,1.384.91.91,0,0,1,.33.593q0,.242-.549.439a7.152,7.152,0,0,0-1.384.813q-1.56,1.252-3.34,2.483A41.483,41.483,0,0,0-24.829-16.414Zm-15.117,6.35v-5.01h-5.317a43.163,43.163,0,0,1-.264,5.01Zm13.953-21.116a.311.311,0,0,1-.352.352l-6.218-.088h-26.5v7.383a95.011,95.011,0,0,1-.9,15.425A28.642,28.642,0,0,1-63.743,2.065q-.33.593-.505.593t-.571-.549A5.308,5.308,0,0,0-66.27.769a21.772,21.772,0,0,0,3.823-9.58,101.036,101.036,0,0,0,.769-14.722l-.088-9.448q0-.308.352-.308l6.262.088h9.536v-.593a16.316,16.316,0,0,0-.264-3.6q1.692.088,2.791.2.593.066.593.352,0,.022-.242.681A7.12,7.12,0,0,0-43-33.794v.593h10.437l6.218-.088q.352,0,.352.308ZM20.479.286A5.213,5.213,0,0,0,19.314,2q-.308.659-.659.659a2.817,2.817,0,0,1-.637-.132A51.413,51.413,0,0,1,7.844-1.208,27.806,27.806,0,0,1,.813-6.372q0,3.186.176,6.877.11,2.615.11,2.7,0,.308-.374.308H-1.252q-.352,0-.352-.308,0-.264.066-1.67.176-4.263.2-7.646Q-7.1-.088-17.578,2.7a3.058,3.058,0,0,1-.681.132q-.374,0-.593-.571A4.459,4.459,0,0,0-20.017.505,55.671,55.671,0,0,0-9.976-2.659a25.252,25.252,0,0,0,6.79-4.351H-13.359l-5.845.088q-.308,0-.308-.352V-8.9q0-.352.308-.352l5.845.088H-1.472v-3.032H-6.021l-6,.088a.311.311,0,0,1-.352-.352l.088-3.472v-2.131h-1.384l-5.845.088q-.33,0-.33-.352v-1.582q0-.352.33-.352l5.845.088h1.384v-.22a15.763,15.763,0,0,0-.264-3.1,23.282,23.282,0,0,1,2.681.22q.593.088.593.374a2.975,2.975,0,0,1-.264.835,5,5,0,0,0-.22,1.67v.22h8.284a17.862,17.862,0,0,0-.33-3.757q1.362.066,2.747.22.549.088.549.352a2.909,2.909,0,0,1-.264.857,7.27,7.27,0,0,0-.242,2.329H9.866v-.637A11.961,11.961,0,0,0,9.6-23.577a16.544,16.544,0,0,1,2.681.22q.593.088.593.417a1.287,1.287,0,0,1-.22.571,3.369,3.369,0,0,0-.264,1.538v.659h1.384l5.8-.088q.374,0,.374.352v1.582q0,.352-.374.352l-5.8-.088H12.393v2.043l.088,3.56a.311.311,0,0,1-.352.352l-6.042-.088H.989v3.032h12.7l5.845-.088q.374,0,.374.352v1.626q0,.352-.374.352l-5.845-.088H2.747a28.987,28.987,0,0,0,8.5,4.768A83.906,83.906,0,0,0,20.479.286ZM9.866-14.216v-3.845H.989v3.845Zm-11.338,0v-3.845H-9.756v3.845ZM19.138-31.9q0,.352-.374.352l-6.021-.088H-2.109a35.194,35.194,0,0,1-3.779,4.46q10.327-.439,15.117-.813A28.881,28.881,0,0,0,6.79-29.619q-.2-.11-.2-.22,0-.154.352-.4l.769-.549a.8.8,0,0,1,.439-.2.708.708,0,0,1,.308.11,44.706,44.706,0,0,1,7.976,6.086.366.366,0,0,1,.132.242q0,.154-.264.4l-.9.747q-.439.4-.593.4a.421.421,0,0,1-.264-.154q-1.6-1.67-3.054-3.032-11.206.967-23.4,1.406a9.352,9.352,0,0,0-3.252.417.981.981,0,0,1-.571.264q-.33,0-.549-.681a17.216,17.216,0,0,1-.505-2.263q2.307.066,3.23.066.615,0,1.187-.022.967,0,3.208-.088a29.038,29.038,0,0,0,4-4.548H-12.59l-6.042.088a.311.311,0,0,1-.352-.352v-1.538a.311.311,0,0,1,.352-.352l6.042.088H-1.6v-.747a12.437,12.437,0,0,0-.33-3.076,27.793,27.793,0,0,1,2.922.286q.549.11.549.352a2.328,2.328,0,0,1-.22.813,4.384,4.384,0,0,0-.22,1.626v.747H12.744l6.021-.088q.374,0,.374.352Zm44.758,4q-.088,2.065-.088,3.054a143.9,143.9,0,0,1-1.45,20.808,10.727,10.727,0,0,1-1.978,5.317,4.752,4.752,0,0,1-3.757,1.516q-1.626,0-4.021-.22a1.4,1.4,0,0,1-.791-.22,2.7,2.7,0,0,1-.242-.813,8.164,8.164,0,0,0-.659-2.043,31.061,31.061,0,0,0,5.3.549,2.858,2.858,0,0,0,2.615-1.56A10.543,10.543,0,0,0,59.81-4.9a148.211,148.211,0,0,0,1.45-21.028H58.909A54.508,54.508,0,0,1,52.427-9.316,37.709,37.709,0,0,1,42.8.813a1.686,1.686,0,0,1-.681.352q-.22,0-.615-.527A5.212,5.212,0,0,0,39.968-.725,36.84,36.84,0,0,0,50.977-12.019a46.069,46.069,0,0,0,5.317-13.909H51.943a37.563,37.563,0,0,1-4.526,10.173,30.97,30.97,0,0,1-5.779,6.262A1.575,1.575,0,0,1,41-9.1q-.2,0-.637-.483a4.4,4.4,0,0,0-1.516-1.23A26.767,26.767,0,0,0,49.329-25.928H45.176A36.468,36.468,0,0,1,41.44-20.72q-.461.549-.615.549-.2,0-.637-.439A4.123,4.123,0,0,0,38.76-21.6a30.289,30.289,0,0,0,7.053-11.887,16.818,16.818,0,0,0,.813-3.779q1.143.2,2.615.593.483.132.483.439a1.215,1.215,0,0,1-.352.725,8.951,8.951,0,0,0-.9,2.131,44.735,44.735,0,0,1-2.065,5.12H58.228l5.229-.088A.388.388,0,0,1,63.9-27.905ZM40.5-25.291a.311.311,0,0,1-.352.352l-4.329-.088H35.6V-15.8q2.461-1.23,4.812-2.659-.022.417-.022.747a8.859,8.859,0,0,0,.066,1.055,4.538,4.538,0,0,1,.066.549q0,.374-.769.813-2.7,1.428-4.153,2.153v8.2l.088,7.954q0,.33-.352.33H33.245q-.352,0-.352-.33l.088-7.91v-6.987q-.439.2-1.318.615-1.758.813-2.681,1.208a5.027,5.027,0,0,0-1.538.9.972.972,0,0,1-.637.352.536.536,0,0,1-.483-.352A19.418,19.418,0,0,1,25.2-11.755a28.329,28.329,0,0,0,4-1.252q2.527-.989,3.779-1.538V-25.027H29.07a39.518,39.518,0,0,1-1.318,5.8q-.176.681-.352.681a2.293,2.293,0,0,1-.725-.264,10.077,10.077,0,0,0-1.6-.461,38.62,38.62,0,0,0,2.241-11.646q.044-.483.044-.989,0-.637-.088-1.538,1.516.176,2.417.374.549.11.549.4a1.511,1.511,0,0,1-.176.593,3.433,3.433,0,0,0-.264,1.208L29.421-27.4h3.56v-3.647a45.233,45.233,0,0,0-.308-6.174q1.868.088,2.878.242.483.066.483.4a7.852,7.852,0,0,1-.176.813,22.326,22.326,0,0,0-.264,4.636V-27.4h.22l4.329-.088q.352,0,.352.308Z" transform="translate(124.352 156.277)"/>
      <rect id="長方形_355" data-name="長方形 355" width="194.65" height="79.945" transform="translate(26.069 0)" fill="#fff"/>
    </g>
    <g id="マスクグループ_133" data-name="マスクグループ 133" transform="translate(273.598 3822.688)" clip-path="url(#clip-path)">
      <g id="グループ_1118" data-name="グループ 1118" transform="translate(9.239 6.832)">
        <g id="グループ_1116" data-name="グループ 1116" transform="translate(0)">
          <path id="パス_757" data-name="パス 757" d="M424.905,251.5a69.593,69.593,0,0,1-15.663-1.826,46.771,46.771,0,0,1-10.823-3.939,28.8,28.8,0,0,1-9.313-7.478c-5.232-6.588-6.618-15.381-4.118-26.135,2.851-12.273,8.307-22.1,16.216-29.2a45.328,45.328,0,0,1,18.279-10l.315,1.158c-9.864,2.684-27.351,11.231-33.641,38.307-2.412,10.38-1.1,18.831,3.889,25.117,9.425,11.867,29.064,12.789,34.859,12.789,1.15,0,28.273-.164,37.732-14.406,4.243-6.389,4.25-14.725.02-24.776-5.112-12.149-10.792-21.536-16.883-27.9-4.449-4.648-9.161-7.719-14.005-9.128l.335-1.152c5.049,1.469,9.94,4.648,14.537,9.451,6.193,6.47,11.954,15.979,17.123,28.263,4.4,10.446,4.353,19.161-.126,25.906a26.067,26.067,0,0,1-9.4,8.236,49.666,49.666,0,0,1-11.849,4.462A79.013,79.013,0,0,1,424.905,251.5Z" transform="translate(-384.379 -160.095)"/>
          <path id="楕円形_95" data-name="楕円形 95" d="M6.684-.6a8.225,8.225,0,0,1,5.1,1.676,5.351,5.351,0,0,1,2.186,4.206,5.351,5.351,0,0,1-2.186,4.206,8.225,8.225,0,0,1-5.1,1.676,8.225,8.225,0,0,1-5.1-1.676A5.351,5.351,0,0,1-.6,5.282,5.351,5.351,0,0,1,1.586,1.076,8.225,8.225,0,0,1,6.684-.6Zm0,10.564c3.355,0,6.084-2.1,6.084-4.682S10.039.6,6.684.6.6,2.7.6,5.282,3.329,9.964,6.684,9.964Z" transform="translate(34.728 6.054)"/>
          <path id="パス_758" data-name="パス 758" d="M410.94,179.952a21.492,21.492,0,0,1-12.066-3.963c-3-2.182-4.871-4.959-4.888-7.249a3.514,3.514,0,0,1,1.383-2.9,6.963,6.963,0,0,1,4.06-1.2,15.929,15.929,0,0,1,6.989,1.234A14.777,14.777,0,0,1,411,169a15.152,15.152,0,0,1,3.248,4.7l-1.117.438.559-.219-.558.22a14.234,14.234,0,0,0-3.013-4.319,13.769,13.769,0,0,0-10.639-3.977c-1.609.061-4.307.518-4.289,2.894.014,1.887,1.739,4.355,4.394,6.287a20.282,20.282,0,0,0,11.388,3.733Z" transform="translate(-378.053 -165.225)"/>
          <path id="パス_759" data-name="パス 759" d="M416.621,179.416l-.169-1.188c5.589-.8,8.994-2.588,10.867-3.951,2.162-1.573,3.4-3.394,3.3-4.871a2.038,2.038,0,0,0-.956-1.61,5.6,5.6,0,0,0-3.022-.749,14.873,14.873,0,0,0-9.4,3.145A15.54,15.54,0,0,0,414,173.466l-1-.666a16.4,16.4,0,0,1,3.482-3.535,16.965,16.965,0,0,1,4.269-2.388,15.931,15.931,0,0,1,5.91-1.029,6.665,6.665,0,0,1,3.679.957,3.225,3.225,0,0,1,1.478,2.526,5.048,5.048,0,0,1-.908,2.987,11.186,11.186,0,0,1-2.886,2.93C426.042,176.691,422.454,178.585,416.621,179.416Z" transform="translate(-366.33 -164.468)"/>
        </g>
        <g id="グループ_1117" data-name="グループ 1117" transform="translate(68.611 7.94)">
          <path id="パス_760" data-name="パス 760" d="M438.579,235.917a29.21,29.21,0,0,1-3.614-.26l.144-1.191a25.074,25.074,0,0,0,4.154.242c.2,0,.388-.008.586-.008a58.936,58.936,0,0,0,13.047-1.676c7.486-1.865,12.713-4.967,15.537-9.22,3.2-4.818,3.2-11.114,0-18.714-3.882-9.226-8.194-16.352-12.816-21.18a24.377,24.377,0,0,0-10.59-6.9l.335-1.152a25.549,25.549,0,0,1,11.122,7.227c4.724,4.934,9.116,12.183,13.056,21.544,3.363,7.994,3.327,14.67-.109,19.844a19.973,19.973,0,0,1-7.2,6.312,37.926,37.926,0,0,1-9.048,3.408,60.261,60.261,0,0,1-13.338,1.712c-.185,0-.367,0-.56.008C439.072,235.912,438.842,235.917,438.579,235.917Z" transform="translate(-421.595 -166.222)"/>
          <path id="パス_761" data-name="パス 761" d="M427.493,184.691l-.835-.862a30.192,30.192,0,0,1,13.961-7.984l.315,1.158A29.069,29.069,0,0,0,427.493,184.691Z" transform="translate(-426.529 -166.224)"/>
          <path id="楕円形_96" data-name="楕円形 96" d="M5.085-.6A6.4,6.4,0,0,1,9.053.706,4.211,4.211,0,0,1,10.77,4.018,4.211,4.211,0,0,1,9.053,7.331,6.4,6.4,0,0,1,5.085,8.637,6.4,6.4,0,0,1,1.117,7.331,4.211,4.211,0,0,1-.6,4.018,4.211,4.211,0,0,1,1.117.706,6.4,6.4,0,0,1,5.085-.6Zm0,8.037C7.558,7.437,9.57,5.9,9.57,4.018S7.558.6,5.085.6.6,2.133.6,4.018,2.612,7.437,5.085,7.437Z" transform="translate(13.842 4.606)"/>
          <path id="パス_762" data-name="パス 762" d="M439.177,181.474a16.492,16.492,0,0,1-9.261-3.042c-2.317-1.686-3.765-3.843-3.778-5.63a2.812,2.812,0,0,1,1.107-2.32,5.432,5.432,0,0,1,3.171-.945,12.265,12.265,0,0,1,5.38.95,11.384,11.384,0,0,1,3.527,2.409,11.684,11.684,0,0,1,2.5,3.622l-1.117.438.559-.219-.558.22a10.7,10.7,0,0,0-2.268-3.245,10.339,10.339,0,0,0-7.979-2.976,4.366,4.366,0,0,0-2.479.693,1.631,1.631,0,0,0-.645,1.364c.01,1.392,1.3,3.224,3.284,4.668a15.282,15.282,0,0,0,8.582,2.813Z" transform="translate(-426.738 -170.127)"/>
          <path id="パス_763" data-name="パス 763" d="M443.522,181.066l-.169-1.188a18.1,18.1,0,0,0,8.2-2.98c1.581-1.15,2.521-2.522,2.454-3.58-.065-1.029-1.117-1.635-2.885-1.662a11.169,11.169,0,0,0-7.052,2.357,11.7,11.7,0,0,0-2.446,2.462l-1-.666a13.04,13.04,0,0,1,10.513-5.353,5.209,5.209,0,0,1,2.878.754,2.593,2.593,0,0,1,1.187,2.032c.1,1.509-.978,3.2-2.945,4.627A19.285,19.285,0,0,1,443.522,181.066Z" transform="translate(-417.82 -169.552)"/>
        </g>
        <rect id="長方形_375" data-name="長方形 375" width="33.695" height="16.623" transform="translate(24.565 34.392)"/>
        <path id="長方形_375_-_アウトライン" data-name="長方形 375 - アウトライン" d="M0-.6H33.695a.6.6,0,0,1,.6.6V16.623a.6.6,0,0,1-.6.6H0a.6.6,0,0,1-.6-.6V0A.6.6,0,0,1,0-.6ZM33.095.6H.6V16.023H33.095Z" transform="translate(24.565 34.392)"/>
        <path id="線_191" data-name="線 191" d="M.436,6.747l-.873-.824L5.542-.412l.873.824Z" transform="translate(31.711 15.723)"/>
        <path id="線_192" data-name="線 192" d="M2.578,4.754-.492.343.492-.343,3.563,4.069Z" transform="translate(44.1 16.171)"/>
        <path id="線_193" data-name="線 193" d="M4.438,7.179-.487.351l.973-.7L5.412,6.477Z" transform="translate(90.128 20.582)"/>
        <path id="線_194" data-name="線 194" d="M.557,4.315-.557,3.869,1.085-.223,2.2.223Z" transform="translate(84.108 20.582)"/>
      </g>
    </g>
    <g id="マスクグループ_135" data-name="マスクグループ 135" transform="translate(370.155 3822.688)" clip-path="url(#clip-path-2)">
      <g id="グループ_1124" data-name="グループ 1124" transform="translate(9.239 6.832)">
        <g id="グループ_1122" data-name="グループ 1122" transform="translate(0)">
          <path id="パス_773" data-name="パス 773" d="M424.905,251.5a69.593,69.593,0,0,1-15.663-1.826,46.771,46.771,0,0,1-10.823-3.939,28.8,28.8,0,0,1-9.313-7.478c-5.232-6.588-6.618-15.381-4.118-26.135,2.851-12.273,8.307-22.1,16.216-29.2a45.328,45.328,0,0,1,18.279-10l.315,1.158c-9.864,2.684-27.351,11.231-33.641,38.307-2.412,10.38-1.1,18.831,3.889,25.117,9.425,11.867,29.064,12.789,34.859,12.789,1.15,0,28.273-.164,37.732-14.406,4.243-6.389,4.25-14.725.02-24.776-5.112-12.149-10.792-21.536-16.883-27.9-4.449-4.648-9.161-7.719-14.005-9.128l.335-1.152c5.049,1.469,9.94,4.648,14.537,9.451,6.193,6.47,11.954,15.979,17.123,28.263,4.4,10.446,4.353,19.161-.126,25.906a26.067,26.067,0,0,1-9.4,8.236,49.666,49.666,0,0,1-11.849,4.462A79.013,79.013,0,0,1,424.905,251.5Z" transform="translate(-384.379 -160.095)"/>
          <path id="楕円形_99" data-name="楕円形 99" d="M6.684-.6a8.225,8.225,0,0,1,5.1,1.676,5.351,5.351,0,0,1,2.186,4.206,5.351,5.351,0,0,1-2.186,4.206,8.225,8.225,0,0,1-5.1,1.676,8.225,8.225,0,0,1-5.1-1.676A5.351,5.351,0,0,1-.6,5.282,5.351,5.351,0,0,1,1.586,1.076,8.225,8.225,0,0,1,6.684-.6Zm0,10.564c3.355,0,6.084-2.1,6.084-4.682S10.039.6,6.684.6.6,2.7.6,5.282,3.329,9.964,6.684,9.964Z" transform="translate(34.728 6.054)"/>
          <path id="パス_774" data-name="パス 774" d="M410.94,179.952a21.492,21.492,0,0,1-12.066-3.963c-3-2.182-4.871-4.959-4.888-7.249a3.514,3.514,0,0,1,1.383-2.9,6.963,6.963,0,0,1,4.06-1.2,15.929,15.929,0,0,1,6.989,1.234A14.777,14.777,0,0,1,411,169a15.152,15.152,0,0,1,3.248,4.7l-1.117.438.559-.219-.558.22a14.234,14.234,0,0,0-3.013-4.319,13.769,13.769,0,0,0-10.639-3.977c-1.609.061-4.307.518-4.289,2.894.014,1.887,1.739,4.355,4.394,6.287a20.282,20.282,0,0,0,11.388,3.733Z" transform="translate(-378.053 -165.225)"/>
          <path id="パス_775" data-name="パス 775" d="M416.621,179.416l-.169-1.188c5.589-.8,8.994-2.588,10.867-3.951,2.162-1.573,3.4-3.394,3.3-4.871a2.038,2.038,0,0,0-.956-1.61,5.6,5.6,0,0,0-3.022-.749,14.873,14.873,0,0,0-9.4,3.145A15.54,15.54,0,0,0,414,173.466l-1-.666a16.4,16.4,0,0,1,3.482-3.535,16.965,16.965,0,0,1,4.269-2.388,15.931,15.931,0,0,1,5.91-1.029,6.665,6.665,0,0,1,3.679.957,3.225,3.225,0,0,1,1.478,2.526,5.048,5.048,0,0,1-.908,2.987,11.186,11.186,0,0,1-2.886,2.93C426.042,176.691,422.454,178.585,416.621,179.416Z" transform="translate(-366.33 -164.468)"/>
        </g>
        <rect id="長方形_377" data-name="長方形 377" width="33.695" height="16.623" transform="translate(24.565 34.392)"/>
        <path id="長方形_377_-_アウトライン" data-name="長方形 377 - アウトライン" d="M0-.6H33.695a.6.6,0,0,1,.6.6V16.623a.6.6,0,0,1-.6.6H0a.6.6,0,0,1-.6-.6V0A.6.6,0,0,1,0-.6ZM33.095.6H.6V16.023H33.095Z" transform="translate(24.565 34.392)"/>
        <path id="線_199" data-name="線 199" d="M.436,6.747l-.873-.824L5.542-.412l.873.824Z" transform="translate(31.711 15.723)"/>
        <path id="線_200" data-name="線 200" d="M2.578,4.754-.492.343.492-.343,3.563,4.069Z" transform="translate(44.1 16.171)"/>
      </g>
    </g>
  </g>
  <g id="グループ_670" data-name="グループ 670" transform="translate(355.633 195.067) rotate(90)">
    <g id="マスクグループ_10" data-name="マスクグループ 10" transform="translate(155.463 0)" clip-path="url(#clip-path-3)">
      <path id="パス_99" data-name="パス 99" d="M19.3,21.317,11.231,6.962,3,20.65l-6-3.608,14.437-24L25.4,17.888Z" transform="translate(15.826 4.65) rotate(90)"/>
    </g>
    <rect id="長方形_146" data-name="長方形 146" width="38.463" height="6.948" transform="translate(117 12.159)"/>
  </g>
  <g id="グループ_1530" data-name="グループ 1530" transform="translate(-40.5 -3570.346)">
    <path id="線_40" data-name="線 40" d="M245,2H232V-2h13ZM219,2H206V-2h13ZM193,2H180V-2h13ZM167,2H154V-2h13ZM141,2H128V-2h13ZM115,2H102V-2h13ZM89,2H76V-2H89ZM63,2H50V-2H63ZM37,2H24V-2H37ZM11,2H0V-2H11Z" transform="translate(40.5 3978.659)"/>
    <path id="線_261" data-name="線 261" d="M245,2H232V-2h13ZM219,2H206V-2h13ZM193,2H180V-2h13ZM167,2H154V-2h13ZM141,2H128V-2h13ZM115,2H102V-2h13ZM89,2H76V-2H89ZM63,2H50V-2H63ZM37,2H24V-2H37ZM11,2H0V-2H11Z" transform="translate(475 3978.659)"/>
  </g>
  <path id="パス_851" data-name="パス 851" d="M-48.954-10.172q-.023.4-.047,1.254-.023.82-.047,1.289a45.318,45.318,0,0,1-.574,6.047A3.558,3.558,0,0,1-50.606.48a3.019,3.019,0,0,1-2.1.668q-1.242,0-1.91-.07-.375-.023-.445-.105A1.087,1.087,0,0,1-55.2.527,2.744,2.744,0,0,0-55.68-.6a17.566,17.566,0,0,0,2.742.234,1.7,1.7,0,0,0,1.324-.48,2.648,2.648,0,0,0,.527-1.324A46.114,46.114,0,0,0-50.559-9h-5.355A11.67,11.67,0,0,1-63.134,1.441a1.5,1.5,0,0,1-.34.117q-.129,0-.363-.363A2.605,2.605,0,0,0-64.6.41q6.633-2.6,7.172-9.41H-58.5l-3.223.047a.166.166,0,0,1-.187-.187v-1.066a.166.166,0,0,1,.188-.187l3.223.047h6.07l3.27-.047Q-48.954-10.395-48.954-10.172Zm-7.734-8.262q0,.117-.187.27a1.386,1.386,0,0,0-.434.527A23.855,23.855,0,0,1-60.8-12.3a25.2,25.2,0,0,1-4.066,3.621.966.966,0,0,1-.363.211q-.129,0-.328-.316a2.747,2.747,0,0,0-.844-.785,19.357,19.357,0,0,0,4.816-4.16,18.036,18.036,0,0,0,2.672-4.219,5.79,5.79,0,0,0,.387-1.418A8.474,8.474,0,0,1-57-18.8Q-56.688-18.656-56.688-18.434Zm12.7,8.543a3.446,3.446,0,0,0-.844.961q-.223.34-.281.34a.99.99,0,0,1-.34-.187,25.249,25.249,0,0,1-8.215-9.867.356.356,0,0,1-.035-.129q0-.059.258-.187l.715-.387a.737.737,0,0,1,.258-.094q.07,0,.129.164a20.693,20.693,0,0,0,3.715,5.637A20.049,20.049,0,0,0-43.985-9.891Zm16.35,1.523q-.07,1.43-.07,2.227a33.75,33.75,0,0,1-.41,4.746q-.445,2.52-2.543,2.52a13.227,13.227,0,0,1-1.465-.07.8.8,0,0,1-.422-.105.961.961,0,0,1-.129-.422,2.429,2.429,0,0,0-.387-1.055,13.188,13.188,0,0,0,2.273.234,1.043,1.043,0,0,0,.984-.6,4.681,4.681,0,0,0,.363-1.324,32.47,32.47,0,0,0,.316-5.051h-4.1A15.489,15.489,0,0,1-34.643-2.66a15.3,15.3,0,0,1-2.4,3.387q-.211.234-.316.234t-.3-.293a3.464,3.464,0,0,0-.8-.691,11.716,11.716,0,0,0,3.316-4.945,24,24,0,0,0,.891-6.621L-37-11.543a.166.166,0,0,1-.187-.187l.047-2.074v-2.543l-.047-2.062A.166.166,0,0,1-37-18.6l2.766.047h3.527l2.754-.047q.2,0,.2.188l-.047,2.063V-13.8l.047,2.074q0,.188-.2.188l-2.754-.047H-32.85q-.07,1.629-.211,3.047H-29.8l1.922-.047Q-27.635-8.59-27.635-8.367ZM-29.17-12.8v-4.512h-6.6V-12.8Zm11.332-6.281a2.427,2.427,0,0,1-.176.457,9.818,9.818,0,0,0-.117,2.086V-4.758l.047,3.621a2.177,2.177,0,0,1-.7,1.9,2.555,2.555,0,0,1-1.1.375,19.572,19.572,0,0,1-2.18.082.764.764,0,0,1-.434-.07,3.364,3.364,0,0,1-.152-.434,3.244,3.244,0,0,0-.5-1.078,21.232,21.232,0,0,0,2.332.117,1.471,1.471,0,0,0,1.008-.246,1.247,1.247,0,0,0,.246-.9V-16.512a17.032,17.032,0,0,0-.2-2.93,15.233,15.233,0,0,1,1.617.141Q-17.838-19.254-17.838-19.078Zm-5.074,1.734q0,.023-.117.375a17.4,17.4,0,0,0-.094,2.5v6.5l.047,3.105q0,.188-.223.188h-1.078a.166.166,0,0,1-.187-.187l.047-3.105v-6.48a20.3,20.3,0,0,0-.176-3.234q.656.023,1.512.117Q-22.913-17.531-22.912-17.344ZM9.527.8A.166.166,0,0,1,9.34.984H8.3A.166.166,0,0,1,8.109.8V-.48H.387V.914A.166.166,0,0,1,.2,1.1H-.844A.166.166,0,0,1-1.031.914l.047-8.449v-4.512l-.047-5.766A.166.166,0,0,1-.844-18l2.93.047H6.375L9.34-18a.166.166,0,0,1,.188.188L9.48-12.691V-7.7ZM8.109-1.781V-8.59H4.816v6.809Zm0-8.086v-6.785H4.816v6.785ZM3.469-1.781V-8.59H.387v6.809Zm0-8.086v-6.785H.387v6.785ZM-1.465-7.723a.449.449,0,0,1,.035.141q0,.094-.258.188l-.551.223a.9.9,0,0,1-.27.07q-.094,0-.141-.176l-.434-1.359q-.738.094-2.18.234v6.434l.047,3.5q0,.164-.187.164h-1.09q-.188,0-.187-.164l.047-3.5V-8.285q-1.723.152-2.5.2a2.535,2.535,0,0,0-.914.188,1.7,1.7,0,0,1-.258.117q-.187,0-.27-.34-.117-.574-.211-1.289.645.059,1.125.059.246,0,.434-.012h.234q.9-1.125,1.828-2.52a36.152,36.152,0,0,0-3.5-3.668q-.105-.082-.105-.152a.7.7,0,0,1,.152-.281l.387-.527q.141-.176.211-.176a.32.32,0,0,1,.152.082l.926.914a24.071,24.071,0,0,0,1.734-2.93,8.743,8.743,0,0,0,.527-1.371,8.781,8.781,0,0,1,1.3.574q.258.152.258.293,0,.117-.211.281a2.06,2.06,0,0,0-.41.5q-1.055,1.8-2.285,3.551.727.762,1.605,1.8.949-1.488,1.828-3a7.62,7.62,0,0,0,.727-1.629,10.6,10.6,0,0,1,1.3.645q.234.141.234.293a.385.385,0,0,1-.211.3,4.266,4.266,0,0,0-.867,1.1q-2.32,3.691-4,5.859,2.555-.141,3.926-.281-.34-.82-.8-1.687a.288.288,0,0,1-.047-.129q0-.07.281-.2l.434-.2a.724.724,0,0,1,.211-.059q.07,0,.152.129A22.456,22.456,0,0,1-1.465-7.723ZM-7.922-6a.525.525,0,0,1-.117.293,1.8,1.8,0,0,0-.246.855A21.991,21.991,0,0,1-9.293-.41q-.094.34-.234.34a1.162,1.162,0,0,1-.387-.187,2.521,2.521,0,0,0-.8-.34,16.745,16.745,0,0,0,1.16-4.512,8.322,8.322,0,0,0,.082-1.066q0-.164-.012-.328.8.129,1.2.234Q-7.922-6.152-7.922-6Zm6.047,3.961q0,.035,0,.094,0,.141-.223.223l-.574.164a1.468,1.468,0,0,1-.3.059q-.105,0-.129-.141A19.718,19.718,0,0,0-4.148-6.047a.386.386,0,0,1-.023-.117q0-.129.281-.2l.5-.141A.767.767,0,0,1-3.2-6.551q.082,0,.141.164A20.9,20.9,0,0,1-1.875-2.039Zm35.721-8.133q-.023.4-.047,1.254-.023.82-.047,1.289a45.318,45.318,0,0,1-.574,6.047A3.558,3.558,0,0,1,32.194.48a3.019,3.019,0,0,1-2.1.668q-1.242,0-1.91-.07-.375-.023-.445-.105A1.087,1.087,0,0,1,27.6.527,2.744,2.744,0,0,0,27.12-.6a17.566,17.566,0,0,0,2.742.234,1.7,1.7,0,0,0,1.324-.48,2.648,2.648,0,0,0,.527-1.324A46.114,46.114,0,0,0,32.241-9H26.885A11.67,11.67,0,0,1,19.666,1.441a1.5,1.5,0,0,1-.34.117q-.129,0-.363-.363A2.605,2.605,0,0,0,18.2.41q6.633-2.6,7.172-9.41H24.3l-3.223.047a.166.166,0,0,1-.187-.187v-1.066a.166.166,0,0,1,.188-.187l3.223.047h6.07l3.27-.047Q33.846-10.395,33.846-10.172Zm-7.734-8.262q0,.117-.187.27a1.386,1.386,0,0,0-.434.527A23.855,23.855,0,0,1,22-12.3a25.2,25.2,0,0,1-4.066,3.621.966.966,0,0,1-.363.211q-.129,0-.328-.316a2.747,2.747,0,0,0-.844-.785,19.357,19.357,0,0,0,4.816-4.16,18.036,18.036,0,0,0,2.672-4.219,5.79,5.79,0,0,0,.387-1.418A8.474,8.474,0,0,1,25.8-18.8Q26.112-18.656,26.112-18.434Zm12.7,8.543a3.446,3.446,0,0,0-.844.961q-.223.34-.281.34a.99.99,0,0,1-.34-.187,25.249,25.249,0,0,1-8.215-9.867.356.356,0,0,1-.035-.129q0-.059.258-.187l.715-.387a.737.737,0,0,1,.258-.094q.07,0,.129.164a20.693,20.693,0,0,0,3.715,5.637A20.049,20.049,0,0,0,38.815-9.891ZM65.536-3.34A9.4,9.4,0,0,1,65.02-.891,2.408,2.408,0,0,1,64.165.234a6.989,6.989,0,0,1-3.937.8A14.886,14.886,0,0,1,56.278.715,2.354,2.354,0,0,1,54.86-1.8V-16.676a17.416,17.416,0,0,0-.152-2.7,14.151,14.151,0,0,1,1.594.152q.316.035.316.211a1.153,1.153,0,0,1-.129.434,6.307,6.307,0,0,0-.141,1.816v6.984a29.406,29.406,0,0,0,5.684-4.559A5.8,5.8,0,0,0,62.97-15.6a8.237,8.237,0,0,1,1.242.961.5.5,0,0,1,.223.352q0,.211-.363.34a5.285,5.285,0,0,0-1.242,1.008,40.585,40.585,0,0,1-6.48,4.828v5.754a2.9,2.9,0,0,0,.211,1.313,1.168,1.168,0,0,0,.727.492,15.71,15.71,0,0,0,3,.164A4.726,4.726,0,0,0,63.2-1.031q.75-.645.914-3.551a4.069,4.069,0,0,0,1.066.621q.387.152.387.34A2.157,2.157,0,0,1,65.536-3.34ZM52.587-18.715q0,.164-.223.3a2.533,2.533,0,0,0-.551.914,33.779,33.779,0,0,1-1.746,3.41V-2.262l.047,3.727q0,.187-.2.188H48.766q-.211,0-.211-.187L48.6-2.262v-6.07q0-.586.023-1.852.047-1.582.047-1.793a28.2,28.2,0,0,1-3.2,3.773q-.234.234-.328.234-.152,0-.293-.316a2.958,2.958,0,0,0-.621-.9,24.029,24.029,0,0,0,6.2-8.789,6.069,6.069,0,0,0,.422-1.582,8.363,8.363,0,0,1,1.465.551Q52.587-18.879,52.587-18.715Z" transform="translate(340 416.313)"/>
</svg>
