<svg id="コンポーネント_21_1" data-name="コンポーネント 21 – 1" xmlns="http://www.w3.org/2000/svg" xmlns:xlink="http://www.w3.org/1999/xlink" width="684" height="253.698" viewBox="0 0 684 253.698">
  <defs>
    <clipPath id="clip-path">
      <path id="パス_772" data-name="パス 772" d="M9972.441,6304.419s-17.342,17.876-1.342,30.42-45.014.732-45.014.732l-4.068-13.607,9.148-28.135h27.98l13.295,4.909Z" transform="translate(-9922.018 -6293.83)" fill="#fff"/>
    </clipPath>
    <clipPath id="clip-path-2">
      <path id="パス_418" data-name="パス 418" d="M10102.275,6278.65l-26.462,10.669,61.071,1.072-3-12.848Z" transform="translate(-10075.813 -6277.544)" fill="none"/>
    </clipPath>
    <clipPath id="clip-path-3">
      <rect id="長方形_147" data-name="長方形 147" width="24.318" height="31.266" transform="translate(0 0)" fill="#0077c0"/>
    </clipPath>
    <clipPath id="clip-path-5">
      <rect id="長方形_147-3" data-name="長方形 147" width="24.318" height="31.266" transform="translate(0 0)"/>
    </clipPath>
  </defs>
  <path id="パス_624" data-name="パス 624" d="M-4203.843,2518.671l-1.876,4.692h13.74l-2.929-4.692Z" transform="translate(4236 -2503.302)" fill="#fff"/>
  <g id="パス_856" data-name="パス 856" transform="translate(178 92.698)" fill="#fff">
    <path d="M 142 160 L 8 160 C 4.14018726348877 160 1 156.8598175048828 1 153 L 1 8 C 1 4.14018726348877 4.14018726348877 1 8 1 L 142 1 C 145.8598175048828 1 149 4.14018726348877 149 8 L 149 153 C 149 156.8598175048828 145.8598175048828 160 142 160 Z" stroke="none"/>
    <path d="M 8 2 C 4.69158935546875 2 2 4.69158935546875 2 8 L 2 153 C 2 156.3084106445313 4.69158935546875 159 8 159 L 142 159 C 145.3084106445313 159 148 156.3084106445313 148 153 L 148 8 C 148 4.69158935546875 145.3084106445313 2 142 2 L 8 2 M 8 0 L 142 0 C 146.4182586669922 0 150 3.581710815429688 150 8 L 150 153 C 150 157.4182586669922 146.4182586669922 161 142 161 L 8 161 C 3.581710815429688 161 0 157.4182586669922 0 153 L 0 8 C 0 3.581710815429688 3.581710815429688 0 8 0 Z" stroke="none" fill="#0077c0"/>
  </g>
  <g id="パス_857" data-name="パス 857" transform="translate(357 92.698)" fill="#fff">
    <path d="M 141 160 L 8 160 C 4.14018726348877 160 1 156.8598175048828 1 153 L 1 8 C 1 4.14018726348877 4.14018726348877 1 8 1 L 141 1 C 144.8598175048828 1 148 4.14018726348877 148 8 L 148 153 C 148 156.8598175048828 144.8598175048828 160 141 160 Z" stroke="none"/>
    <path d="M 8 2 C 4.69158935546875 2 2 4.69158935546875 2 8 L 2 153 C 2 156.3084106445313 4.69158935546875 159 8 159 L 141 159 C 144.3084106445313 159 147 156.3084106445313 147 153 L 147 8 C 147 4.69158935546875 144.3084106445313 2 141 2 L 8 2 M 8 0 L 141 0 C 145.4182586669922 0 149 3.581710815429688 149 8 L 149 153 C 149 157.4182586669922 145.4182586669922 161 141 161 L 8 161 C 3.581710815429688 161 0 157.4182586669922 0 153 L 0 8 C 0 3.581710815429688 3.581710815429688 0 8 0 Z" stroke="none" fill="#0077c0"/>
  </g>
  <g id="パス_858" data-name="パス 858" transform="translate(534 92.698)" fill="#fff">
    <path d="M 142 160 L 8 160 C 4.14018726348877 160 1 156.8598175048828 1 153 L 1 8 C 1 4.14018726348877 4.14018726348877 1 8 1 L 142 1 C 145.8598175048828 1 149 4.14018726348877 149 8 L 149 153 C 149 156.8598175048828 145.8598175048828 160 142 160 Z" stroke="none"/>
    <path d="M 8 2 C 4.69158935546875 2 2 4.69158935546875 2 8 L 2 153 C 2 156.3084106445313 4.69158935546875 159 8 159 L 142 159 C 145.3084106445313 159 148 156.3084106445313 148 153 L 148 8 C 148 4.69158935546875 145.3084106445313 2 142 2 L 8 2 M 8 0 L 142 0 C 146.4182586669922 0 150 3.581710815429688 150 8 L 150 153 C 150 157.4182586669922 146.4182586669922 161 142 161 L 8 161 C 3.581710815429688 161 0 157.4182586669922 0 153 L 0 8 C 0 3.581710815429688 3.581710815429688 0 8 0 Z" stroke="none" fill="#000"/>
  </g>
  <path id="パス_853" data-name="パス 853" d="M-17.578-1.945A7.181,7.181,0,0,1-18.41.563a1.5,1.5,0,0,1-1.277.738q-2.109,0-3.434-5.426a46.086,46.086,0,0,1-.937-5.355l-4.055.246v7.957A28.181,28.181,0,0,0-23.789-3a4.431,4.431,0,0,0-.082.891,1.114,1.114,0,0,1-.059.469,1.019,1.019,0,0,1-.387.223A43.708,43.708,0,0,1-29.672.621a4.466,4.466,0,0,0-.984.41.525.525,0,0,1-.293.117q-.141,0-.234-.211a9.672,9.672,0,0,1-.457-1.395A16.64,16.64,0,0,0-29.6-.844h.07V-14.707a21.787,21.787,0,0,0-.164-3.27,7.227,7.227,0,0,1,1.582.457,26.465,26.465,0,0,0,6.668-1.395,4.5,4.5,0,0,0,1.23-.645,8.856,8.856,0,0,1,1.055.961.384.384,0,0,1,.117.281q0,.188-.316.223-.094.012-.9.258-1.5.48-2.977.8.141,3.551.434,6.188l1.242-.07q2.086-.117,3.246-.234a.221.221,0,0,1,.07-.012q.117,0,.117.2l.023,1.008q0,.223-.164.223-1.008,0-3.27.117l-1.125.07A38.846,38.846,0,0,0-21.9-5.109,18.224,18.224,0,0,0-20.7-1.43q.539,1.1.961,1.1.457,0,.715-1.008a20.666,20.666,0,0,0,.363-2.121,3.605,3.605,0,0,0,.844.773q.293.188.293.387A1.946,1.946,0,0,1-17.578-1.945ZM-24.2-10.781q-.328-3.059-.457-5.977-1.746.316-3.457.516v5.684Zm-6.246,3a.969.969,0,0,1,.012.129q0,.094-.234.188l-.574.246a1.2,1.2,0,0,1-.27.07q-.094,0-.141-.176-.141-.551-.4-1.289l-2.238.211v6.41l.047,3.5q0,.164-.187.164h-1.09q-.187,0-.187-.164l.047-3.5V-8.285q-.738.07-2.332.176a2.417,2.417,0,0,0-.9.188.825.825,0,0,1-.27.094q-.141,0-.211-.316-.176-.762-.246-1.312.762.07,1.488.07h.27q.855-1.113,1.816-2.52a37.243,37.243,0,0,0-3.469-3.668.221.221,0,0,1-.105-.164.578.578,0,0,1,.141-.27l.363-.5q.141-.2.223-.2.059,0,.164.105l.961.914a28.27,28.27,0,0,0,1.535-2.719,7.054,7.054,0,0,0,.645-1.629q.762.293,1.324.574.246.141.246.316,0,.105-.187.258a1.637,1.637,0,0,0-.41.5q-1.055,1.8-2.285,3.551.891.938,1.605,1.781.527-.785,1.559-2.543a8.7,8.7,0,0,0,.938-2.039,6.671,6.671,0,0,1,1.289.668q.246.141.246.293t-.246.3a5.249,5.249,0,0,0-.809,1.055q-2.32,3.656-4.031,5.883,2.555-.152,3.891-.281-.293-.68-.8-1.641a.312.312,0,0,1-.059-.141q0-.094.281-.211l.422-.2a.839.839,0,0,1,.246-.082q.07,0,.141.129A24.243,24.243,0,0,1-30.445-7.781Zm-6.527,1.688a.72.72,0,0,1-.094.281,2.847,2.847,0,0,0-.152.7A21.824,21.824,0,0,1-38.227-.387q-.105.363-.258.363a.7.7,0,0,1-.34-.187A2.131,2.131,0,0,0-39.586-.6a18.642,18.642,0,0,0,1.1-4.758q.035-.375.035-.668,0-.2-.012-.48a9.721,9.721,0,0,1,1.172.188Q-36.973-6.246-36.973-6.094Zm5.906,3.387v.07q0,.152-.316.258l-.5.176a1.008,1.008,0,0,1-.281.07q-.105,0-.129-.187a17.534,17.534,0,0,0-.773-3.75.386.386,0,0,1-.023-.117q0-.094.316-.2l.48-.141a.871.871,0,0,1,.211-.047q.094,0,.152.164A22.306,22.306,0,0,1-31.066-2.707ZM-10.793-15.27v-3.879h1.652v3.785q2.59-.164,4.441-.375v1.559q-2.1.211-4.441.352v4.641a14.9,14.9,0,0,1,4.535-.82A4.968,4.968,0,0,1-.187-8,5.61,5.61,0,0,1,.727-4.758q0,3.27-2.227,4.441a10.4,10.4,0,0,1-4.641.8V-1.055a6.778,6.778,0,0,0,3.715-.762A3.511,3.511,0,0,0-1.1-4.945,3.617,3.617,0,0,0-2.133-7.559a2.955,2.955,0,0,0-2.2-.961,13.117,13.117,0,0,0-4.8.914v6.188A2.463,2.463,0,0,1-9.609.293a1.808,1.808,0,0,1-1.348.445A3.872,3.872,0,0,1-13,.094,4.16,4.16,0,0,1-15.3-3.387q0-2.977,4.512-5.227v-5.145q-1.395.082-4.172.129v-1.535Q-12.715-15.164-10.793-15.27Zm0,8.4a8.774,8.774,0,0,0-2.238,1.746A2.59,2.59,0,0,0-13.7-3.434a1.847,1.847,0,0,0,.574,1.3,3.236,3.236,0,0,0,1.184.785,1.549,1.549,0,0,0,.668.176q.48,0,.48-.8ZM-4.1-16.535l1.031-1.254a22,22,0,0,1,4.828,3.82L.586-12.645A18.856,18.856,0,0,0-4.1-16.535ZM10.02-14.379q-.047,2.648-.094,4.23a3.4,3.4,0,0,1,.422,1.3A13.506,13.506,0,0,1,10.43-7.1,4,4,0,0,1,9.059-3.715,3.742,3.742,0,0,0,8.7-2.156a1.133,1.133,0,0,0,.809,1.1,8.678,8.678,0,0,0,3.082.387q3.4,0,4.535-.926a2.81,2.81,0,0,0,.844-2.3A14.632,14.632,0,0,0,17.1-8.285l1.758.152a11.9,11.9,0,0,1,.809,4.605A3.725,3.725,0,0,1,17.777.094a11.671,11.671,0,0,1-5.145.844A9.1,9.1,0,0,1,8.2.152a2.321,2.321,0,0,1-1.16-2.145,4.179,4.179,0,0,1,.258-1.3Q4.066-3.328,4.066-6.984a4.816,4.816,0,0,1,1.066-3.422,3.057,3.057,0,0,1,2.344-.926,1.773,1.773,0,0,1,.891.176q.047-2.355.047-3.152-1.957.105-4.16.105v-1.512q2.438.035,4.184-.059.035-1.875.07-3.422H10.16q-.047,1.184-.094,3.352,2.227-.129,4.629-.375v1.488Q12.7-14.5,10.02-14.379ZM7.406-9.914q-1.828,0-1.828,2.883,0,2.2,1.7,2.2a1.338,1.338,0,0,0,1.277-.68,3.6,3.6,0,0,0,.316-1.711Q8.871-9.914,7.406-9.914Zm8.086-7.266,1.172-1.055a23.892,23.892,0,0,1,4.582,4.559L20-12.434A21.587,21.587,0,0,0,15.492-17.18Zm8.59,4.488-.48-1.664a58.507,58.507,0,0,1,9.645-1.7,5.416,5.416,0,0,1,4.711,2.191,8.79,8.79,0,0,1,1.359,5.2,7.977,7.977,0,0,1-1.055,4.1,6.71,6.71,0,0,1-2.391,2.4A19.234,19.234,0,0,1,28.383-.094l-.609-1.582a16.7,16.7,0,0,0,6.7-1.758A5.772,5.772,0,0,0,37.5-8.73q0-5.789-4.418-5.789Q30.9-14.52,24.082-12.691Z" transform="translate(253 219.698)" fill="#0077c0"/>
  <g id="グループ_1448" data-name="グループ 1448" transform="translate(-1032 -2939.284)">
    <g id="グループ_1113" data-name="グループ 1113" transform="translate(1271.098 3066.982)">
      <path id="パス_738" data-name="パス 738" d="M974.022,201.408s-23.078-9.041-27.441-17.21,1.745-13.245,4.759-15.624,6.027-4.124,10.151-3.807c3.331-.952,6.662-1.11,8.248,1.745l1.586,2.855,5.393,1.745h16.655l2.379.318,1.745.815-1.586,1.4s2.062,1.111,1.586,2.539,1.269,2.034,1.269,2.034a3.049,3.049,0,0,0-2.221,2.919c0,2.343-.793,12.336-4.282,15.985S985.759,204.422,974.022,201.408Z" transform="translate(-945.06 -164.147)" fill="#fff" stroke="#0077c0" stroke-miterlimit="10" stroke-width="1"/>
      <path id="パス_739" data-name="パス 739" d="M969.3,175.922c.2,0,5.941-4.851,8.681-5l.2.364,5.393,1.745s-5.829,3.172-7.574,4.917C973.146,177.27,969.3,175.922,969.3,175.922Z" transform="translate(-951.918 -166.063)" fill="#fff"/>
      <path id="パス_740" data-name="パス 740" d="M959.358,195.862s-.894-9.166,4.974-15.828a21.812,21.812,0,0,1,2.6-2.571" transform="translate(-949.091 -167.914)" fill="#fff" stroke="#0077c0" stroke-miterlimit="10" stroke-width="1"/>
      <path id="パス_741" data-name="パス 741" d="M988.689,202.794a11.714,11.714,0,0,1,1.705-13.194c5.591-6.315,10.945-2.389,13.562,1.774" transform="translate(-957.031 -170.411)" fill="none" stroke="#0077c0" stroke-linecap="round" stroke-miterlimit="10" stroke-width="1"/>
      <path id="パス_742" data-name="パス 742" d="M996.065,199.3v2.855s.714,2.141,4.283,1.428,3.212-7.97,1.309-8.209" transform="translate(-959.49 -172.98)" fill="none" stroke="#0077c0" stroke-linecap="round" stroke-miterlimit="10" stroke-width="1"/>
      <path id="パス_743" data-name="パス 743" d="M985.329,212.552a5.352,5.352,0,0,1-2.823-4.387" transform="translate(-955.654 -176.6)" fill="none" stroke="#0077c0" stroke-linecap="round" stroke-miterlimit="10" stroke-width="1"/>
      <path id="パス_744" data-name="パス 744" d="M973.691,206.738s-1.071-2.462-.714-3.617" transform="translate(-952.937 -175.173)" fill="none" stroke="#0077c0" stroke-linecap="round" stroke-miterlimit="10" stroke-width="1"/>
      <path id="パス_745" data-name="パス 745" d="M972.24,176.83l-.682-1.6-1.31.425h-2.26l2.393,1.836Z" transform="translate(-951.546 -167.281)" fill="#fff"/>
      <path id="パス_746" data-name="パス 746" d="M967.968,197.628s-1.5-10.8,6.273-18.176a49.223,49.223,0,0,1,8.8-6.424c-2.855,1.666-6.412,4.357-6.412,4.357s-2.708,1.1-4.612,0-4.6-3.008-4.6-3.008h3.3s1.735-2.347,6.732-3.457l.2.364,2.78.9,2.123.687" transform="translate(-951.386 -166.063)" fill="none" stroke="#0077c0" stroke-linejoin="round" stroke-width="1"/>
      <path id="パス_747" data-name="パス 747" d="M985.6,188.555s-.833-2.985,5.472-5.958" transform="translate(-956.518 -169.367)" fill="none" stroke="#0077c0" stroke-linecap="round" stroke-linejoin="round" stroke-width="1"/>
      <path id="パス_748" data-name="パス 748" d="M983.291,182.355s.833-2.838,5.116-3.977" transform="translate(-955.876 -168.173)" fill="none" stroke="#0077c0" stroke-linecap="round" stroke-linejoin="round" stroke-width="1"/>
      <path id="パス_749" data-name="パス 749" d="M996.047,177.463s-.714,1.183,3.5,1.54c3.061.26,10.244,4.679,11.043,10.489" transform="translate(-959.472 -167.914)" fill="none" stroke="#0077c0" stroke-linecap="round" stroke-linejoin="round" stroke-width="1"/>
      <path id="パス_750" data-name="パス 750" d="M962.221,176.709a2.8,2.8,0,0,1,1.309-2.261c1.428-1.138,1.19-1.971,1.19-1.971" transform="translate(-949.914 -166.503)" fill="none" stroke="#0077c0" stroke-linecap="round" stroke-linejoin="round" stroke-width="1"/>
      <path id="パス_751" data-name="パス 751" d="M957.743,171.241s2.868-2.617,4.467-2.974a4.475,4.475,0,0,1,2.472,0" transform="translate(-948.648 -165.267)" fill="none" stroke="#0077c0" stroke-linecap="round" stroke-linejoin="round" stroke-width="1"/>
      <path id="パス_752" data-name="パス 752" d="M967.973,165.011a10.942,10.942,0,0,1,4.323,2.855" transform="translate(-951.542 -164.391)" fill="none" stroke="#0077c0" stroke-linecap="round" stroke-linejoin="round" stroke-width="1"/>
      <path id="パス_753" data-name="パス 753" d="M950.277,190.8s.357,2.445,1.428,3.278" transform="translate(-946.536 -171.687)" fill="none" stroke="#0077c0" stroke-linecap="round" stroke-linejoin="round" stroke-width="1"/>
      <line id="線_189" data-name="線 189" y2="3.017" transform="translate(44.13 8.369)" fill="none" stroke="#0077c0" stroke-linecap="round" stroke-linejoin="round" stroke-width="1"/>
      <line id="線_190" data-name="線 190" y2="5.099" transform="translate(47.461 8.369)" fill="none" stroke="#0077c0" stroke-linecap="round" stroke-linejoin="round" stroke-width="1"/>
      <path id="パス_754" data-name="パス 754" d="M1013.727,176.8a10.03,10.03,0,0,0,.714,4.156" transform="translate(-964.482 -167.727)" fill="none" stroke="#0077c0" stroke-linecap="round" stroke-linejoin="round" stroke-width="1"/>
      <path id="パス_755" data-name="パス 755" d="M973.685,166.2a2.335,2.335,0,0,1-.787-2.043" transform="translate(-952.932 -164.149)" fill="none" stroke="#0077c0" stroke-linecap="round" stroke-linejoin="round" stroke-width="1"/>
      <path id="パス_756" data-name="パス 756" d="M975.826,166.256s.535.3.773,1.963" transform="translate(-953.764 -164.743)" fill="none" stroke="#0077c0" stroke-linecap="round" stroke-linejoin="round" stroke-width="1"/>
    </g>
    <g id="グループ_1112" data-name="グループ 1112" transform="translate(1246 3068.416)">
      <path id="パス_738-2" data-name="パス 738" d="M974.022,201.408s-23.078-9.041-27.441-17.21,1.745-13.245,4.759-15.624,6.027-4.124,10.151-3.807c3.331-.952,6.662-1.11,8.248,1.745l1.586,2.855,5.393,1.745h16.655l2.379.318,1.745.815-1.586,1.4s2.062,1.111,1.586,2.539,1.269,2.034,1.269,2.034a3.049,3.049,0,0,0-2.221,2.919c0,2.343-.793,12.336-4.282,15.985S985.759,204.422,974.022,201.408Z" transform="translate(-945.06 -164.147)" fill="#fff" stroke="#0077c0" stroke-miterlimit="10" stroke-width="1"/>
      <path id="パス_739-2" data-name="パス 739" d="M969.3,175.922c.2,0,5.941-4.851,8.681-5l.2.364,5.393,1.745s-5.829,3.172-7.574,4.917C973.146,177.27,969.3,175.922,969.3,175.922Z" transform="translate(-951.918 -166.063)" fill="#fff"/>
      <path id="パス_740-2" data-name="パス 740" d="M959.358,195.862s-.894-9.166,4.974-15.828a21.812,21.812,0,0,1,2.6-2.571" transform="translate(-949.091 -167.914)" fill="#fff" stroke="#0077c0" stroke-miterlimit="10" stroke-width="1"/>
      <path id="パス_741-2" data-name="パス 741" d="M988.689,202.794a11.714,11.714,0,0,1,1.705-13.194c5.591-6.315,10.945-2.389,13.562,1.774" transform="translate(-957.031 -170.411)" fill="none" stroke="#0077c0" stroke-linecap="round" stroke-miterlimit="10" stroke-width="1"/>
      <path id="パス_742-2" data-name="パス 742" d="M996.065,199.3v2.855s.714,2.141,4.283,1.428,3.212-7.97,1.309-8.209" transform="translate(-959.49 -172.98)" fill="none" stroke="#0077c0" stroke-linecap="round" stroke-miterlimit="10" stroke-width="1"/>
      <path id="パス_743-2" data-name="パス 743" d="M985.329,212.552a5.352,5.352,0,0,1-2.823-4.387" transform="translate(-955.654 -176.6)" fill="none" stroke="#0077c0" stroke-linecap="round" stroke-miterlimit="10" stroke-width="1"/>
      <path id="パス_744-2" data-name="パス 744" d="M973.691,206.738s-1.071-2.462-.714-3.617" transform="translate(-952.937 -175.173)" fill="none" stroke="#0077c0" stroke-linecap="round" stroke-miterlimit="10" stroke-width="1"/>
      <path id="パス_745-2" data-name="パス 745" d="M972.24,176.83l-.682-1.6-1.31.425h-2.26l2.393,1.836Z" transform="translate(-951.546 -167.281)" fill="#fff"/>
      <path id="パス_746-2" data-name="パス 746" d="M967.968,197.628s-1.5-10.8,6.273-18.176a49.223,49.223,0,0,1,8.8-6.424c-2.855,1.666-6.412,4.357-6.412,4.357s-2.708,1.1-4.612,0-4.6-3.008-4.6-3.008h3.3s1.735-2.347,6.732-3.457l.2.364,2.78.9,2.123.687" transform="translate(-951.386 -166.063)" fill="none" stroke="#0077c0" stroke-linejoin="round" stroke-width="1"/>
      <path id="パス_747-2" data-name="パス 747" d="M985.6,188.555s-.833-2.985,5.472-5.958" transform="translate(-956.518 -169.367)" fill="none" stroke="#0077c0" stroke-linecap="round" stroke-linejoin="round" stroke-width="1"/>
      <path id="パス_748-2" data-name="パス 748" d="M983.291,182.355s.833-2.838,5.116-3.977" transform="translate(-955.876 -168.173)" fill="none" stroke="#0077c0" stroke-linecap="round" stroke-linejoin="round" stroke-width="1"/>
      <path id="パス_749-2" data-name="パス 749" d="M996.047,177.463s-.714,1.183,3.5,1.54c3.061.26,10.244,4.679,11.043,10.489" transform="translate(-959.472 -167.914)" fill="none" stroke="#0077c0" stroke-linecap="round" stroke-linejoin="round" stroke-width="1"/>
      <path id="パス_750-2" data-name="パス 750" d="M962.221,176.709a2.8,2.8,0,0,1,1.309-2.261c1.428-1.138,1.19-1.971,1.19-1.971" transform="translate(-949.914 -166.503)" fill="none" stroke="#0077c0" stroke-linecap="round" stroke-linejoin="round" stroke-width="1"/>
      <path id="パス_751-2" data-name="パス 751" d="M957.743,171.241s2.868-2.617,4.467-2.974a4.475,4.475,0,0,1,2.472,0" transform="translate(-948.648 -165.267)" fill="none" stroke="#0077c0" stroke-linecap="round" stroke-linejoin="round" stroke-width="1"/>
      <path id="パス_752-2" data-name="パス 752" d="M967.973,165.011a10.942,10.942,0,0,1,4.323,2.855" transform="translate(-951.542 -164.391)" fill="none" stroke="#0077c0" stroke-linecap="round" stroke-linejoin="round" stroke-width="1"/>
      <path id="パス_753-2" data-name="パス 753" d="M950.277,190.8s.357,2.445,1.428,3.278" transform="translate(-946.536 -171.687)" fill="none" stroke="#0077c0" stroke-linecap="round" stroke-linejoin="round" stroke-width="1"/>
      <line id="線_189-2" data-name="線 189" y2="3.017" transform="translate(44.13 8.369)" fill="none" stroke="#0077c0" stroke-linecap="round" stroke-linejoin="round" stroke-width="1"/>
      <line id="線_190-2" data-name="線 190" y2="5.099" transform="translate(47.461 8.369)" fill="none" stroke="#0077c0" stroke-linecap="round" stroke-linejoin="round" stroke-width="1"/>
      <path id="パス_754-2" data-name="パス 754" d="M1013.727,176.8a10.03,10.03,0,0,0,.714,4.156" transform="translate(-964.482 -167.727)" fill="none" stroke="#0077c0" stroke-linecap="round" stroke-linejoin="round" stroke-width="1"/>
      <path id="パス_755-2" data-name="パス 755" d="M973.685,166.2a2.335,2.335,0,0,1-.787-2.043" transform="translate(-952.932 -164.149)" fill="none" stroke="#0077c0" stroke-linecap="round" stroke-linejoin="round" stroke-width="1"/>
      <path id="パス_756-2" data-name="パス 756" d="M975.826,166.256s.535.3.773,1.963" transform="translate(-953.764 -164.743)" fill="none" stroke="#0077c0" stroke-linecap="round" stroke-linejoin="round" stroke-width="1"/>
    </g>
  </g>
  <g id="グループ_1451" data-name="グループ 1451" transform="translate(-541.511 -176.346)">
    <path id="パス_781" data-name="パス 781" d="M960.883,314.136s-9.575-6.036-10.72-7.7-2.706-6.869-2.706-6.869a52.952,52.952,0,0,1,7.285,0c-1.145-3.851-1.769-6.14-2.914-6.765,6.66-1.561,10.3-.74,19.254,2.752,1.353.786.52,3.076.52,3.076l-4.787,10.1S964.213,312.887,960.883,314.136Z" transform="translate(-2.589)" fill="none" stroke="#0077c0" stroke-linecap="round" stroke-linejoin="round" stroke-width="1"/>
    <path id="パス_782" data-name="パス 782" d="M980.945,310.119l3.872,1.626s5.1-5,9.367-4.892a38.288,38.288,0,0,0-7.6,6.037l3.851,2.185s4.371-4.891,8.742-4.891l.625.208s-6.557,4.059-7.077,4.683-.729,1.145-.208,1.353a35.763,35.763,0,0,1,3.018,2.082s3.435-3.642,7.7-3.746c-2.081,1.457-6.244,4.891-6.244,4.891l3.851,2.6a9.264,9.264,0,0,1,6.349-2.6c-3.226,2.081-5.2,3.642-5.2,3.642l3.226,2.81-.937,1.561-3.746-2.5a61.773,61.773,0,0,0-2.186,6.869,9.536,9.536,0,0,1,1.145-7.909l-3.331-2.81s-1.353.05-3.33,8.039c-.729-5.229.186-6.582,1.238-9.288l-3.215-2.6a36.289,36.289,0,0,0-3.018,10.2c-.937-5.2-.417-7.7,1.248-11.344l-3.33-2.082s-2.29,2.6-3.643,10.824c-.312-6.557.205-9.783,1.918-11.969-1.918-.728-3.9-1.252-3.9-1.252Z" transform="translate(-14.763 -5.518)" fill="none" stroke="#0077c0" stroke-linecap="round" stroke-linejoin="round" stroke-width="1"/>
    <path id="パス_783" data-name="パス 783" d="M1018.563,338.53l.937-1.561s9.47-2.186,14.466,0a47.508,47.508,0,0,1-10.511,4.683s0,5.516-1.249,8.534C1018.563,345.4,1018.209,344.83,1018.563,338.53Z" transform="translate(-29.047 -16.38)" fill="none" stroke="#0077c0" stroke-linecap="round" stroke-linejoin="round" stroke-width="1"/>
    <path id="パス_784" data-name="パス 784" d="M945.388,344.995l3.538-1.145a16.455,16.455,0,0,0,2.706,2.6l3.538-1.353a9.7,9.7,0,0,0,2.394,2.5l3.122-1.041s.833,2.081,1.561,2.394,3.643-1.041,3.643-1.041a13.009,13.009,0,0,1,1.561,6.349c-.262,3.077-6.036,4.579-6.036,4.579l-16.027-2.082-1.249-6.765Z" transform="translate(-1.352 -19.306)" fill="#fff" stroke="#0077c0" stroke-linecap="round" stroke-linejoin="round" stroke-width="1"/>
    <path id="パス_785" data-name="パス 785" d="M944.036,345.675l.832,5.1,3.331-.833,1.457,3.435s3.018.312,4.475-1.249c.624,2.082.937,3.331.937,3.331l5-1.665,1.457,2.81,4.579-1.665s.833,5.2-4.579,8.95-9.158,4.267-14.571,2.082S937.167,354.313,944.036,345.675Z" transform="translate(0 -19.986)" fill="#fff" stroke="#0077c0" stroke-linecap="round" stroke-linejoin="round" stroke-width="1"/>
    <path id="パス_786" data-name="パス 786" d="M982.105,373.814c-.006.019,5.663-.511,9.254-3.009s6.817-7.545,6.817-7.545h2.29l1.509,4.111v1.166A64.2,64.2,0,0,0,992.348,372c-3.747,1.873-7.865,8.951-7.865,8.951l-1.836-2.446-1.306-3.383Z" transform="translate(-15.216 -26.54)" fill="#fff" stroke="#0077c0" stroke-linecap="round" stroke-linejoin="round" stroke-width="1"/>
    <path id="パス_787" data-name="パス 787" d="M1004.692,357.867s2.6.78,2.186,3.278a3.733,3.733,0,0,1,2.186,2.81,4.18,4.18,0,0,1,.676,4.267c1.613,0,2.446.885,2.238,2.134a4.063,4.063,0,0,0,2.134-4.943c-.832-2.758-2.654-3.122-2.654-3.122s1.457-2.862-.156-4.059S1004.692,357.867,1004.692,357.867Z" transform="translate(-23.918 -24.425)" fill="#fff" stroke="#0077c0" stroke-linecap="round" stroke-linejoin="round" stroke-width="1"/>
    <path id="パス_788" data-name="パス 788" d="M1015.475,364.335a9.561,9.561,0,0,1,6.3-1.145l.365.728.676.728s-4.376-.586-6.377.176Z" transform="translate(-27.936 -26.47)" fill="#fff" stroke="#0077c0" stroke-linecap="round" stroke-linejoin="round" stroke-width="1"/>
    <path id="パス_789" data-name="パス 789" d="M977.561,376.864l3.226,1.144s-1.353,3.226,1.353,3.955c-.52,2.082.567,3.434,2.886,4.162-1.533.729-2.469,1.874-4.447.625a2.467,2.467,0,0,1-.807-3.331s-2.523-1.249-2.627-2.186A32.607,32.607,0,0,1,977.561,376.864Z" transform="translate(-13.647 -31.609)" fill="#fff" stroke="#0077c0" stroke-linecap="round" stroke-linejoin="round" stroke-width="1"/>
    <circle id="楕円形_100" data-name="楕円形 100" cx="1.388" cy="1.388" r="1.388" transform="translate(958.988 296.999)" fill="#0077c0" stroke="#0077c0" stroke-width="1"/>
  </g>
  <path id="パス_854" data-name="パス 854" d="M-8.988.094a.166.166,0,0,1-.187.188L-12.34.234H-26.332l-3.176.047A.166.166,0,0,1-29.7.094V-1.02a.166.166,0,0,1,.188-.187l3.176.047h6.211V-6.551h-2.953l-3.363.047a.166.166,0,0,1-.187-.187v-1.09a.166.166,0,0,1,.188-.187l3.363.047h2.953v-4.957h-5.66a18.62,18.62,0,0,1-2.473,3.855q-.187.211-.27.211a.943.943,0,0,1-.363-.234,2.665,2.665,0,0,0-.855-.5,20.068,20.068,0,0,0,4.008-7.312,4.328,4.328,0,0,0,.258-1.371,9.136,9.136,0,0,1,1.465.41q.293.094.293.258a.519.519,0,0,1-.187.34,1.914,1.914,0,0,0-.387.762q-.855,2.2-.867,2.238h5.039v-1.992a21.007,21.007,0,0,0-.187-3.293q.832.035,1.676.129.293.035.293.211a.637.637,0,0,1-.047.2,1.6,1.6,0,0,0-.07.234,11.828,11.828,0,0,0-.152,2.473v2.039h4.441l3.363-.047a.166.166,0,0,1,.188.188v1.066a.166.166,0,0,1-.187.188l-3.363-.047h-4.441v4.957h3.34l3.352-.047q.2,0,.2.188v1.09q0,.188-.2.188l-3.352-.047h-3.34V-1.16h6.27l3.164-.047a.166.166,0,0,1,.188.188ZM4.5-19.758l1.23-.469A31.328,31.328,0,0,1,7.5-16.172l-1.289.527A24.536,24.536,0,0,0,4.5-19.758ZM-4.734-7.3l1.559.48A5.405,5.405,0,0,0-4.09-3.691q0,2.73,4.922,2.73A54.512,54.512,0,0,0,6.926-1.3L6.949.5Q4.137.691.809.691A8.989,8.989,0,0,1-4.113-.375,3.782,3.782,0,0,1-5.742-3.738,6.6,6.6,0,0,1-4.734-7.3ZM7.078-20.566,8.273-21a19.418,19.418,0,0,1,1.7,3.938l-1.242.5A23.122,23.122,0,0,0,7.078-20.566Zm-11.5,3.117q1.488.07,4.289.07,1.23,0,4.254-.141l.891,2.156a38.887,38.887,0,0,0-4.852,3.2L-.914-13.371q.516-.363,4.125-2.613A31.958,31.958,0,0,1-.656-15.8q-1.465,0-3.762-.094ZM25.395-7.078a12.424,12.424,0,0,0-5.742-1.781,39.943,39.943,0,0,1-2.543,6.176Q15.762-.234,13.992-.234q-2.5,0-2.5-3.68a5.918,5.918,0,0,1,2.156-4.734,7.246,7.246,0,0,1,4.664-1.676,64.518,64.518,0,0,0,1.605-6.352q-3.551.246-6.457.375l-.023-1.512q3.012-.047,7.324-.4l1.2.949q-1.066,4.16-1.9,6.961a14.66,14.66,0,0,1,5.66,1.57,46.6,46.6,0,0,0,.48-5.836l1.711.363a50.2,50.2,0,0,1-.645,6.352,31.407,31.407,0,0,1,3.141,2.4L29.355-3.891a28.475,28.475,0,0,0-2.473-2.2,12.041,12.041,0,0,1-2.25,4.57A10.377,10.377,0,0,1,21,1.172L19.945-.07a8.616,8.616,0,0,0,3.691-2.883A11.818,11.818,0,0,0,25.395-7.078ZM17.859-8.789a4.9,4.9,0,0,0-3.469,1.582,4.564,4.564,0,0,0-1.312,3.27q0,1.922.961,1.922.773,0,1.512-1.277A28.752,28.752,0,0,0,17.859-8.789Z" transform="translate(432 219.698)" fill="#0077c0"/>
  <g id="グループ_1450" data-name="グループ 1450" transform="translate(-427.805 -3054.023)">
    <g id="グループ_1115" data-name="グループ 1115" transform="translate(1034.091 3180.617)" opacity="0.501">
      <g id="グループ_700" data-name="グループ 700" transform="translate(0)">
        <path id="パス_396" data-name="パス 396" d="M399.327,173.5c-3.875,1.055-11.7,4.62-14.442,16.427-3.706,15.945,14.058,16.381,16.674,16.381s23-.9,16.238-16.963c-4.877-11.591-9.925-14.873-13.258-15.842" transform="translate(-384.379 -167.819)" fill="none" stroke="#000" stroke-linejoin="round" stroke-width="1.2" stroke-dasharray="3"/>
        <ellipse id="楕円形_65" data-name="楕円形 65" cx="2.834" cy="2.239" rx="2.834" ry="2.239" transform="translate(14.722 2.567)" fill="none" stroke="#000" stroke-linejoin="round" stroke-width="1.2" stroke-dasharray="3"/>
        <path id="パス_397" data-name="パス 397" d="M402.682,168.908a6.216,6.216,0,0,0-6.033-3.678c-4.526.172-1.021,5.847,4.876,5.983" transform="translate(-387.577 -165.225)" fill="none" stroke="#000" stroke-linejoin="round" stroke-width="1.2" stroke-dasharray="3"/>
        <path id="パス_398" data-name="パス 398" d="M413.5,169.28a6.935,6.935,0,0,1,5.575-2.834c3.651.054,2.1,4.335-4.289,5.246" transform="translate(-393.504 -165.608)" fill="none" stroke="#000" stroke-linejoin="round" stroke-width="1.2" stroke-dasharray="3"/>
      </g>
      <g id="グループ_701" data-name="グループ 701" transform="translate(29.086 3.366)">
        <path id="パス_399" data-name="パス 399" d="M435.037,201.284a11.571,11.571,0,0,0,2.04.1c1.99,0,17.494-.689,12.353-12.905-3.711-8.818-7.551-11.314-10.086-12.051" transform="translate(-429.339 -172.101)" fill="none" stroke="#000" stroke-linejoin="round" stroke-width="1.2" stroke-dasharray="3"/>
        <path id="パス_400" data-name="パス 400" d="M432.884,176.424a12.585,12.585,0,0,0-5.808,3.322" transform="translate(-426.844 -172.1)" fill="none" stroke="#000" stroke-linejoin="round" stroke-width="1.2" stroke-dasharray="3"/>
        <ellipse id="楕円形_66" data-name="楕円形 66" cx="2.156" cy="1.703" rx="2.156" ry="1.703" transform="translate(5.868 1.952)" fill="none" stroke="#000" stroke-linejoin="round" stroke-width="1.2" stroke-dasharray="3"/>
        <path id="パス_401" data-name="パス 401" d="M432.9,172.929a4.729,4.729,0,0,0-4.59-2.8c-3.443.13-.776,4.449,3.71,4.552" transform="translate(-426.738 -170.127)" fill="none" stroke="#000" stroke-linejoin="round" stroke-width="1.2" stroke-dasharray="3"/>
        <path id="パス_402" data-name="パス 402" d="M441.128,173.212a5.275,5.275,0,0,1,4.241-2.156c2.777.042,1.6,3.3-3.262,3.991" transform="translate(-431.247 -170.418)" fill="none" stroke="#000" stroke-linejoin="round" stroke-width="1.2" stroke-dasharray="3"/>
      </g>
      <rect id="長方形_313" data-name="長方形 313" width="14.284" height="7.047" transform="translate(10.414 14.579)" fill="none" stroke="#000" stroke-linejoin="round" stroke-width="1.2" stroke-dasharray="3"/>
      <line id="線_47" data-name="線 47" x1="2.534" y2="2.685" transform="translate(13.443 6.665)" fill="#97ba3b" stroke="#000" stroke-linejoin="round" stroke-width="1.2"/>
      <line id="線_48" data-name="線 48" x2="1.302" y2="1.87" transform="translate(18.695 6.855)" fill="#97ba3b" stroke="#000" stroke-linejoin="round" stroke-width="1.2"/>
      <line id="線_49" data-name="線 49" x2="2.088" y2="2.895" transform="translate(38.207 8.725)" fill="#97ba3b" stroke="#000" stroke-linejoin="round" stroke-width="1.2"/>
      <line id="線_50" data-name="線 50" x1="0.696" y2="1.735" transform="translate(35.655 8.725)" fill="#97ba3b" stroke="#000" stroke-linejoin="round" stroke-width="1.2"/>
    </g>
    <g id="マスクグループ_134" data-name="マスクグループ 134" transform="translate(986.018 3177.721)" clip-path="url(#clip-path)">
      <g id="グループ_1121" data-name="グループ 1121" transform="translate(3.917 2.896)">
        <g id="グループ_1119" data-name="グループ 1119" transform="translate(0)">
          <path id="パス_765" data-name="パス 765" d="M399.327,173.5c-3.875,1.055-11.7,4.62-14.442,16.427-3.706,15.945,14.058,16.381,16.674,16.381s23-.9,16.238-16.963c-4.877-11.591-9.925-14.873-13.258-15.842" transform="translate(-384.379 -167.819)" fill="none" stroke="#000" stroke-linejoin="round" stroke-width="1.2"/>
          <ellipse id="楕円形_97" data-name="楕円形 97" cx="2.834" cy="2.239" rx="2.834" ry="2.239" transform="translate(14.722 2.567)" fill="none" stroke="#000" stroke-linejoin="round" stroke-width="1.2"/>
          <path id="パス_766" data-name="パス 766" d="M402.682,168.908a6.216,6.216,0,0,0-6.033-3.678c-4.526.172-1.021,5.847,4.876,5.983" transform="translate(-387.577 -165.225)" fill="none" stroke="#000" stroke-linejoin="round" stroke-width="1.2"/>
          <path id="パス_767" data-name="パス 767" d="M413.5,169.28a6.935,6.935,0,0,1,5.575-2.834c3.651.054,2.1,4.335-4.289,5.246" transform="translate(-393.504 -165.608)" fill="none" stroke="#000" stroke-linejoin="round" stroke-width="1.2"/>
        </g>
        <g id="グループ_1120" data-name="グループ 1120" transform="translate(29.086 3.366)">
          <path id="パス_768" data-name="パス 768" d="M435.037,201.284a11.571,11.571,0,0,0,2.04.1c1.99,0,17.494-.689,12.353-12.905-3.711-8.818-7.551-11.314-10.086-12.051" transform="translate(-429.339 -172.101)" fill="none" stroke="#000" stroke-linejoin="round" stroke-width="1.2"/>
          <path id="パス_769" data-name="パス 769" d="M432.884,176.424a12.585,12.585,0,0,0-5.808,3.322" transform="translate(-426.844 -172.1)" fill="none" stroke="#000" stroke-linejoin="round" stroke-width="1.2"/>
          <ellipse id="楕円形_98" data-name="楕円形 98" cx="2.156" cy="1.703" rx="2.156" ry="1.703" transform="translate(5.868 1.952)" fill="none" stroke="#000" stroke-linejoin="round" stroke-width="1.2"/>
          <path id="パス_770" data-name="パス 770" d="M432.9,172.929a4.729,4.729,0,0,0-4.59-2.8c-3.443.13-.776,4.449,3.71,4.552" transform="translate(-426.738 -170.127)" fill="none" stroke="#000" stroke-linejoin="round" stroke-width="1.2"/>
          <path id="パス_771" data-name="パス 771" d="M441.128,173.212a5.275,5.275,0,0,1,4.241-2.156c2.777.042,1.6,3.3-3.262,3.991" transform="translate(-431.247 -170.418)" fill="none" stroke="#000" stroke-linejoin="round" stroke-width="1.2"/>
        </g>
        <rect id="長方形_376" data-name="長方形 376" width="14.284" height="7.047" transform="translate(10.414 14.579)" stroke="#000" stroke-linejoin="round" stroke-width="1.2"/>
        <line id="線_195" data-name="線 195" x1="2.534" y2="2.685" transform="translate(13.443 6.665)" fill="#97ba3b" stroke="#000" stroke-linejoin="round" stroke-width="1.2"/>
        <line id="線_196" data-name="線 196" x2="1.302" y2="1.87" transform="translate(18.695 6.855)" fill="#97ba3b" stroke="#000" stroke-linejoin="round" stroke-width="1.2"/>
        <line id="線_197" data-name="線 197" x2="2.088" y2="2.895" transform="translate(38.207 8.725)" fill="#97ba3b" stroke="#000" stroke-linejoin="round" stroke-width="1.2"/>
        <line id="線_198" data-name="線 198" x1="0.696" y2="1.735" transform="translate(35.655 8.725)" fill="#97ba3b" stroke="#000" stroke-linejoin="round" stroke-width="1.2"/>
      </g>
    </g>
  </g>
  <path id="パス_855" data-name="パス 855" d="M-13.242-8.754a3.071,3.071,0,0,0-.668.785q-.2.363-.316.363a2.094,2.094,0,0,1-.387-.117A28.463,28.463,0,0,1-19-10.055a14.072,14.072,0,0,1-3.469-3.586,13.79,13.79,0,0,1-4.312,4.406l2.543.023h3.551l2.742-.047a.166.166,0,0,1,.188.188v.914q0,.164-.187.164-.035,0-.27-.012-.785-.023-1.746-.035v2.672h2.32l3.387-.047q.211,0,.211.164v.914q0,.188-.211.188L-17.637-4.2h-2.32v3.164q0,1.031.457,1.16a5.964,5.964,0,0,0,1.605.164A4.042,4.042,0,0,0-15.855-.07a1.334,1.334,0,0,0,.445-.914,16.075,16.075,0,0,0,.105-1.7,3.655,3.655,0,0,0,.891.5A.977.977,0,0,1-14.062-2a.281.281,0,0,1,.07.223q0,.059-.012.2a7.8,7.8,0,0,1-.328,1.7,1.623,1.623,0,0,1-.633.82,5.648,5.648,0,0,1-3,.574,6.617,6.617,0,0,1-2.7-.363A1.8,1.8,0,0,1-21.3-.457V-4.2h-3.129A6.784,6.784,0,0,1-26.461-.141a9.3,9.3,0,0,1-4,1.875,1.124,1.124,0,0,1-.328.07q-.164,0-.387-.363a3,3,0,0,0-.668-.7,9.457,9.457,0,0,0,4.453-1.816A5.482,5.482,0,0,0-25.77-4.2h-1.254l-3.387.047a.166.166,0,0,1-.187-.187V-5.25q0-.164.188-.164l3.387.047h1.418q.094-1.031.094-2.672-.609.012-1.1.035l-.363.012q-.187,0-.187-.164V-9A23.832,23.832,0,0,1-29.8-7.582l-.387.141q-.117,0-.316-.34a2.074,2.074,0,0,0-.6-.668,21.376,21.376,0,0,0,3.727-1.91,14.421,14.421,0,0,0-2.262-1.98q-.117-.059-.117-.129t.188-.234l.434-.375q.152-.152.211-.152a.284.284,0,0,1,.152.07,18.993,18.993,0,0,1,2.449,2.051,10.1,10.1,0,0,0,2.473-2.719h-2.379l-2.039.047q-.223,0-.223-.187v-.844q0-.187.223-.187l2.039.047h2.109L-22.078-15a.266.266,0,0,1,.27.164,5.108,5.108,0,0,0,.6.938,7.5,7.5,0,0,0,.645.82,15.907,15.907,0,0,0,1.992-1.641,3.1,3.1,0,0,0,.656-.844,7.285,7.285,0,0,1,.9.7q.223.211.223.34,0,.152-.246.234a2.508,2.508,0,0,0-.809.48,23.924,23.924,0,0,1-1.945,1.512,11.291,11.291,0,0,0,1.441,1.16,14.457,14.457,0,0,0,2.039-1.594,4.121,4.121,0,0,0,.691-.832,8.065,8.065,0,0,1,.914.738.485.485,0,0,1,.176.316q0,.129-.293.234a3.814,3.814,0,0,0-.738.434q-.832.668-1.781,1.324A22.124,22.124,0,0,0-13.242-8.754ZM-21.3-5.367V-8.039h-2.836a23.02,23.02,0,0,1-.141,2.672Zm7.441-11.262a.166.166,0,0,1-.187.188l-3.316-.047H-31.5v3.938a50.673,50.673,0,0,1-.48,8.227A15.276,15.276,0,0,1-34,1.1q-.176.316-.27.316t-.3-.293A2.831,2.831,0,0,0-35.344.41,11.612,11.612,0,0,0-33.3-4.7a53.886,53.886,0,0,0,.41-7.852l-.047-5.039q0-.164.188-.164l3.34.047h5.086v-.316a8.7,8.7,0,0,0-.141-1.922q.9.047,1.488.105.316.035.316.188,0,.012-.129.363a3.8,3.8,0,0,0-.141,1.266v.316h5.566l3.316-.047q.188,0,.188.164ZM10.922.152a2.78,2.78,0,0,0-.621.914q-.164.352-.352.352a1.5,1.5,0,0,1-.34-.07A27.421,27.421,0,0,1,4.184-.645,14.83,14.83,0,0,1,.434-3.4Q.434-1.7.527.27.586,1.664.586,1.711q0,.164-.2.164H-.668q-.188,0-.187-.164,0-.141.035-.891.094-2.273.105-4.078a18.127,18.127,0,0,1-8.66,4.7,1.631,1.631,0,0,1-.363.07q-.2,0-.316-.3A2.378,2.378,0,0,0-10.676.27,29.691,29.691,0,0,0-5.32-1.418,13.468,13.468,0,0,0-1.7-3.738H-7.125l-3.117.047q-.164,0-.164-.187v-.867q0-.187.164-.187l3.117.047h6.34V-6.5H-3.211l-3.2.047A.166.166,0,0,1-6.6-6.645L-6.551-8.5V-9.633h-.738l-3.117.047q-.176,0-.176-.187v-.844q0-.187.176-.187l3.117.047h.738v-.117a8.407,8.407,0,0,0-.141-1.652,12.417,12.417,0,0,1,1.43.117q.316.047.316.2a1.587,1.587,0,0,1-.141.445,2.664,2.664,0,0,0-.117.891v.117H-.785a9.527,9.527,0,0,0-.176-2q.727.035,1.465.117Q.8-12.6.8-12.457A1.551,1.551,0,0,1,.656-12a3.877,3.877,0,0,0-.129,1.242H5.262v-.34a6.379,6.379,0,0,0-.141-1.477,8.824,8.824,0,0,1,1.43.117q.316.047.316.223a.686.686,0,0,1-.117.3,1.8,1.8,0,0,0-.141.82v.352h.738l3.094-.047q.2,0,.2.188v.844q0,.188-.2.188L7.348-9.633H6.609v1.09l.047,1.9a.166.166,0,0,1-.187.188L3.246-6.5H.527v1.617H7.3l3.117-.047q.2,0,.2.188v.867q0,.188-.2.188L7.3-3.738H1.465A15.46,15.46,0,0,0,6-1.2,44.75,44.75,0,0,0,10.922.152ZM5.262-7.582V-9.633H.527v2.051Zm-6.047,0V-9.633H-5.2v2.051Zm10.992-9.434q0,.188-.2.188L6.8-16.875H-1.125A18.77,18.77,0,0,1-3.141-14.5q5.508-.234,8.063-.434a15.4,15.4,0,0,0-1.3-.867q-.105-.059-.105-.117,0-.082.188-.211l.41-.293a.427.427,0,0,1,.234-.105.377.377,0,0,1,.164.059,23.843,23.843,0,0,1,4.254,3.246.2.2,0,0,1,.07.129q0,.082-.141.211l-.48.4q-.234.211-.316.211a.224.224,0,0,1-.141-.082q-.855-.891-1.629-1.617-5.977.516-12.48.75A4.988,4.988,0,0,0-8.086-13a.523.523,0,0,1-.3.141q-.176,0-.293-.363a9.182,9.182,0,0,1-.27-1.207q1.23.035,1.723.035.328,0,.633-.012.516,0,1.711-.047a15.487,15.487,0,0,0,2.133-2.426H-6.715l-3.223.047a.166.166,0,0,1-.187-.187v-.82a.166.166,0,0,1,.188-.187l3.223.047H-.855v-.4a6.633,6.633,0,0,0-.176-1.641,14.823,14.823,0,0,1,1.559.152q.293.059.293.188a1.242,1.242,0,0,1-.117.434,2.338,2.338,0,0,0-.117.867v.4H6.8l3.211-.047q.2,0,.2.188Zm23.871,2.133q-.047,1.1-.047,1.629a76.747,76.747,0,0,1-.773,11.1A5.721,5.721,0,0,1,32.2.68a2.535,2.535,0,0,1-2,.809q-.867,0-2.145-.117a.744.744,0,0,1-.422-.117A1.439,1.439,0,0,1,27.5.82a4.354,4.354,0,0,0-.352-1.09,16.566,16.566,0,0,0,2.824.293,1.524,1.524,0,0,0,1.395-.832,5.623,5.623,0,0,0,.527-1.8,79.046,79.046,0,0,0,.773-11.215H31.418a29.071,29.071,0,0,1-3.457,8.859,20.111,20.111,0,0,1-5.133,5.4.9.9,0,0,1-.363.188q-.117,0-.328-.281a2.78,2.78,0,0,0-.82-.727A19.648,19.648,0,0,0,27.188-6.41a24.57,24.57,0,0,0,2.836-7.418H27.7A20.033,20.033,0,0,1,25.289-8.4a16.517,16.517,0,0,1-3.082,3.34.84.84,0,0,1-.34.211q-.105,0-.34-.258a2.346,2.346,0,0,0-.809-.656,14.276,14.276,0,0,0,5.59-8.062H24.094A19.449,19.449,0,0,1,22.1-11.051q-.246.293-.328.293-.105,0-.34-.234a2.2,2.2,0,0,0-.762-.527,16.154,16.154,0,0,0,3.762-6.34,8.97,8.97,0,0,0,.434-2.016q.609.105,1.395.316.258.07.258.234a.648.648,0,0,1-.187.387,4.774,4.774,0,0,0-.48,1.137,23.859,23.859,0,0,1-1.1,2.73h6.3l2.789-.047A.207.207,0,0,1,34.078-14.883ZM21.6-13.488a.166.166,0,0,1-.187.188L19.1-13.348h-.117v4.922q1.313-.656,2.566-1.418-.012.223-.012.4a4.725,4.725,0,0,0,.035.563,2.42,2.42,0,0,1,.035.293q0,.2-.41.434-1.441.762-2.215,1.148v4.371l.047,4.242q0,.176-.187.176H17.73q-.187,0-.187-.176l.047-4.219V-6.34q-.234.105-.7.328-.937.434-1.43.645a2.681,2.681,0,0,0-.82.48.519.519,0,0,1-.34.188.286.286,0,0,1-.258-.187,10.356,10.356,0,0,1-.6-1.383,15.109,15.109,0,0,0,2.133-.668q1.348-.527,2.016-.82v-5.59H15.5a21.076,21.076,0,0,1-.7,3.094q-.094.363-.187.363a1.223,1.223,0,0,1-.387-.141,5.374,5.374,0,0,0-.855-.246,20.6,20.6,0,0,0,1.2-6.211q.023-.258.023-.527,0-.34-.047-.82.809.094,1.289.2.293.059.293.211a.806.806,0,0,1-.094.316,1.831,1.831,0,0,0-.141.645l-.2,1.852h1.9v-1.945a24.124,24.124,0,0,0-.164-3.293q1,.047,1.535.129.258.035.258.211a4.188,4.188,0,0,1-.094.434,11.907,11.907,0,0,0-.141,2.473v1.992H19.1l2.309-.047q.188,0,.188.164Z" transform="translate(611 219.698)"/>
  <g id="グループ_1534" data-name="グループ 1534" transform="translate(-40 -4059.961)">
    <g id="長方形_444" data-name="長方形 444" transform="translate(40 4152.659)" fill="#fff" stroke="#0077c0" stroke-width="2">
      <rect width="150" height="161" rx="8" stroke="none"/>
      <rect x="1" y="1" width="148" height="159" rx="7" fill="none"/>
    </g>
    <path id="パス_852" data-name="パス 852" d="M-15.187-4.852l-.152,1.723a11.942,11.942,0,0,1-.645,3.3,2.174,2.174,0,0,1-2.262,1.172,19.262,19.262,0,0,1-2.039-.094,1,1,0,0,1-.422-.105,1.041,1.041,0,0,1-.152-.4,2.826,2.826,0,0,0-.387-.984A18.776,18.776,0,0,0-18.527,0q1.02,0,1.266-.668a10.383,10.383,0,0,0,.48-3.129h-7.312q-1.219,4.254-8.93,5.355-.223.023-.281.023-.211,0-.41-.41a2,2,0,0,0-.609-.809q7.676-.809,8.7-4.16h-4.3l-3.363.047a.166.166,0,0,1-.187-.187v-.937a.166.166,0,0,1,.188-.187l3.363.047h11.156l3.363-.047Q-15.188-5.062-15.187-4.852Zm1.629-11.156q0,.188-.2.188l-3.141-.047h-14.25l-3.152.047a.166.166,0,0,1-.187-.187v-.961q0-.164.188-.164l3.152.047h3.457a13.329,13.329,0,0,0-1.43-2.2.514.514,0,0,1-.07-.141q0-.059.223-.152l.691-.293a.878.878,0,0,1,.223-.07q.059,0,.141.105a14,14,0,0,1,1.395,2.086.411.411,0,0,1,.047.117q0,.07-.234.188l-.75.363h5.2a13.284,13.284,0,0,0,1.008-1.828,5.276,5.276,0,0,0,.34-1.055q.984.211,1.395.34.258.082.258.258a.42.42,0,0,1-.187.316,1.476,1.476,0,0,0-.41.48q-.656,1.066-.961,1.488H-16.9l3.141-.047q.2,0,.2.164Zm-10.969,1.746-.047,2.426v1.242l.023,2.625a1.531,1.531,0,0,1-.527,1.336,4.732,4.732,0,0,1-2.168.363.649.649,0,0,1-.41-.082A.865.865,0,0,1-27.8-6.7a2.534,2.534,0,0,0-.352-.914,10.51,10.51,0,0,0,1.488.105q.738,0,.738-.867v-4.9h-5.109v4.605l.047,2.238q0,.211-.187.211h-1.066q-.187,0-.187-.211l.047-2.215V-12l-.047-2.262a.166.166,0,0,1,.188-.187l2.449.047h2.625l2.414-.047Q-24.527-14.449-24.527-14.262Zm9.164-.187a1.552,1.552,0,0,1-.141.457,7.566,7.566,0,0,0-.117,1.781v1.992l.023,2.109a1.669,1.669,0,0,1-.621,1.488,6.555,6.555,0,0,1-2.812.387.869.869,0,0,1-.457-.07,1.575,1.575,0,0,1-.164-.41,2.931,2.931,0,0,0-.434-.914,17.991,17.991,0,0,0,1.922.117,1.289,1.289,0,0,0,.926-.246,1.029,1.029,0,0,0,.2-.715v-3.891a14.068,14.068,0,0,0-.141-2.426,11.557,11.557,0,0,1,1.535.152Q-15.363-14.6-15.363-14.449Zm-4.746.527a.7.7,0,0,1-.117.34,4.123,4.123,0,0,0-.129,1.418v1.172l.047,1.852a.166.166,0,0,1-.187.188h-1.055q-.2,0-.2-.187l.059-1.852v-1.2a10.1,10.1,0,0,0-.152-2.074q.727.035,1.465.129Q-20.109-14.1-20.109-13.922ZM-26.953-8.93l-.316.48q-.105.188-.187.188a.338.338,0,0,1-.164-.07,12.44,12.44,0,0,0-2.59-1.125q-.152-.059-.152-.117a.579.579,0,0,1,.117-.246l.34-.422q.105-.152.176-.152a.641.641,0,0,1,.141.023,12.9,12.9,0,0,1,2.613,1.078q.129.07.129.141A.483.483,0,0,1-26.953-8.93Zm.164-2.32-.328.5q-.129.188-.2.188a.526.526,0,0,1-.211-.094A12.054,12.054,0,0,0-30-11.707q-.176-.059-.176-.129a.582.582,0,0,1,.129-.234l.281-.434q.117-.164.2-.164a.386.386,0,0,1,.117.023A14.431,14.431,0,0,1-26.8-11.613q.117.082.117.141A.563.563,0,0,1-26.789-11.25Zm37,10.559A4.346,4.346,0,0,0,9.867.316.906.906,0,0,1,9.7.762a.737.737,0,0,1-.41.082Q7.758.891,7.031.891.047.879-2.566-.434A5.652,5.652,0,0,1-4.559-2.074,10.99,10.99,0,0,1-5.566-3.738,12.477,12.477,0,0,1-9.094,1.09a1.1,1.1,0,0,1-.34.234q-.082,0-.328-.293a2.321,2.321,0,0,0-.82-.645A11.462,11.462,0,0,0-5.953-7.969a7.879,7.879,0,0,0,.082-1.02q0-.152-.012-.316.621.082,1.395.258.363.094.363.27a1.032,1.032,0,0,1-.164.375,1.28,1.28,0,0,0-.246.6,21.74,21.74,0,0,1-.527,2.449A7.943,7.943,0,0,0-3.34-2.625a6.4,6.4,0,0,0,2.7,1.406V-11.391h-2.59l-3.293.047q-.211,0-.211-.187v-1.02q0-.187.211-.187l3.293.047H3.434l3.293-.047a.166.166,0,0,1,.188.188v1.02a.166.166,0,0,1-.187.188l-3.293-.047H.8v4.02H4.371l2.355-.047a.166.166,0,0,1,.188.188v1.02a.166.166,0,0,1-.187.188L4.371-6.07H.8v5.18a36.51,36.51,0,0,0,5.426.316Q7.84-.574,10.207-.691ZM9.773-12.5a.176.176,0,0,1-.2.2h-1.1q-.188,0-.187-.2v-3.3H-8.086v3.3a.176.176,0,0,1-.2.2h-1.1q-.187,0-.187-.2l.047-2.461v-.75l-.047-1.277q0-.164.188-.164l3.316.047h5.18v-.34A12.158,12.158,0,0,0-1.055-19.9,15.155,15.155,0,0,1,.5-19.77q.293.035.293.188a1.4,1.4,0,0,1-.152.434,7.839,7.839,0,0,0-.094,1.7v.34h5.7l3.328-.047q.2,0,.2.164l-.047,1.113v.914ZM35.109.188a3.281,3.281,0,0,0-.645.961q-.164.387-.316.387a1.328,1.328,0,0,1-.363-.117,21.9,21.9,0,0,1-6.07-3.8A19.785,19.785,0,0,1,21.141,1.57a1.291,1.291,0,0,1-.352.094q-.141,0-.352-.352a3.118,3.118,0,0,0-.715-.844,18.716,18.716,0,0,0,6.984-3.855,17.062,17.062,0,0,1-3.574-6.34L21.738-9.7a.166.166,0,0,1-.187-.187v-.961a.166.166,0,0,1,.188-.187l3.047.047h1.828v-3.691H24.621l-3.27.047q-.211,0-.211-.187v-1.02q0-.187.211-.187l3.27.047h1.992v-1.3a10.7,10.7,0,0,0-.223-2.613,12.429,12.429,0,0,1,1.641.176q.293.035.293.211a1.034,1.034,0,0,1-.152.457,6.041,6.041,0,0,0-.141,1.77v1.3h2.977l3.281-.047q.2,0,.2.188v1.02q0,.188-.2.188l-3.281-.047H28.031v3.691h3.094a1.167,1.167,0,0,0,.48-.07.54.54,0,0,1,.211-.07,1.185,1.185,0,0,1,.656.387q.457.48.457.645a.347.347,0,0,1-.2.3,1.7,1.7,0,0,0-.4.668A19.463,19.463,0,0,1,28.7-3.387,20.135,20.135,0,0,0,35.109.188Zm-4.1-9.937h-6.48a13.559,13.559,0,0,0,3.164,5.4A16.788,16.788,0,0,0,31.008-9.75ZM21.387-8.062a3.054,3.054,0,0,0-.715.844q-.2.258-.246.258t-.187-.246a21.763,21.763,0,0,1-2.086-4.629q.012,4.629.117,9.691Q18.3-.891,18.34.691q.023.773.023.844A.145.145,0,0,1,18.2,1.7H17.016q-.187,0-.187-.164,0-.023.047-2.027.152-5.941.188-11.074a29.642,29.642,0,0,1-3,7.7q-.152.27-.234.27-.129,0-.2-.246a2.167,2.167,0,0,0-.621-.937,29.142,29.142,0,0,0,3.715-8.66h-.715l-2.18.047q-.2,0-.2-.187v-.937q0-.211.2-.211l2.18.047h.914v-2.332a14.21,14.21,0,0,0-.2-2.859,11.5,11.5,0,0,1,1.547.152q.293.035.293.211a1.1,1.1,0,0,1-.152.434,9.141,9.141,0,0,0-.117,2.039v2.355h.387l2.156-.047q.188,0,.188.211v.938a.166.166,0,0,1-.187.188l-2.156-.047h-.34A16.382,16.382,0,0,0,21.387-8.062Z" transform="translate(113 4279.659)" fill="#0077c0"/>
    <g id="グループ_948" data-name="グループ 948" transform="translate(-1291.042 -2291.422)">
      <path id="パス_411" data-name="パス 411" d="M10053.692,6275.866l63.254-9.833v3.792l-62.991,14.542-2.856-1.467Z" transform="translate(-8691.998 229.541)" fill="none" stroke="#0077c0" stroke-width="1.2"/>
      <path id="パス_412" data-name="パス 412" d="M10053.125,6273.577l5.084,6.947" transform="translate(-8691.373 231.869)" fill="none" stroke="#0077c0" stroke-width="1.2"/>
      <path id="パス_413" data-name="パス 413" d="M2.593,9.834,65.848,0V3.793L2.856,18.334,0,16.867Z" transform="matrix(0.995, -0.105, 0.105, 0.995, 1370.292, 6506.717)" fill="none" stroke="#0077c0" stroke-width="1.2"/>
      <path id="パス_414" data-name="パス 414" d="M0,0,5.085,6.947" transform="matrix(0.995, -0.105, 0.105, 0.995, 1373.959, 6516.259)" fill="none" stroke="#0077c0" stroke-width="1.2"/>
      <path id="パス_417" data-name="パス 417" d="M2.593,9.834,65.848,0V3.793L2.856,18.334,0,16.867Z" transform="translate(1366.168 6482.085) rotate(3)" fill="none" stroke="#0077c0" stroke-width="1.2"/>
      <g id="マスクグループ_84" data-name="マスクグループ 84" transform="translate(1393.912 6510.637)" clip-path="url(#clip-path-2)">
        <path id="パス_415" data-name="パス 415" d="M2.593,8.5l63.254,9.834V14.54L2.856,0,0,1.467Z" transform="matrix(-0.985, 0.174, -0.174, -0.985, 57.035, 10.3)" fill="none" stroke="#0077c0" stroke-width="1.2"/>
        <path id="パス_416" data-name="パス 416" d="M0,6.946,5.084,0" transform="matrix(-0.985, 0.174, -0.174, -0.985, 54.161, 9.268)" fill="none" stroke="#0077c0" stroke-width="1.2"/>
      </g>
      <path id="パス_419" data-name="パス 419" d="M10064.763,6251.16c-6.882,15.394,3.484,13.34,3.484,13.34s7.383-1.089,3.206-8.969c.129.234.064.118,0,0-4.4-7.838-5.132-7.447-5.132-7.447Z" transform="translate(-8688.512 224)" fill="none" stroke="#0077c0" stroke-linejoin="round" stroke-width="1.2"/>
      <path id="パス_420" data-name="パス 420" d="M10065.468,6248.777l1.356,15.334" transform="translate(-8687.565 224.217)" fill="none" stroke="#0077c0" stroke-width="1.2"/>
      <path id="パス_421" data-name="パス 421" d="M10062.611,6256.33l4.5,1.466" transform="translate(-8688.448 226.546)" fill="none" stroke="#0077c0" stroke-width="1"/>
      <path id="パス_422" data-name="パス 422" d="M10066.047,6255.922l3.5-3.286" transform="translate(-8687.387 225.406)" fill="none" stroke="#0077c0" stroke-width="1"/>
    </g>
  </g>
  <g id="グループ_672" data-name="グループ 672" transform="translate(272.266 -116.547) rotate(90)">
    <g id="マスクグループ_10" data-name="マスクグループ 10" transform="translate(155.463 0)" clip-path="url(#clip-path-3)">
      <path id="パス_99" data-name="パス 99" d="M0,18.846,11.335,0,22.347,19.6" transform="translate(15.826 4.65) rotate(90)" fill="none" stroke="#0177c0" stroke-width="7"/>
    </g>
    <rect id="長方形_146" data-name="長方形 146" width="38.915" height="6.948" transform="translate(116.547 12.159)" fill="#0077c0"/>
  </g>
  <g id="グループ_1532" data-name="グループ 1532" transform="translate(447.633 -116.547) rotate(90)">
    <g id="マスクグループ_10-2" data-name="マスクグループ 10" transform="translate(155.463 0)" clip-path="url(#clip-path-3)">
      <path id="パス_99-2" data-name="パス 99" d="M0,18.846,11.335,0,22.347,19.6" transform="translate(15.826 4.65) rotate(90)" fill="none" stroke="#0177c0" stroke-width="7"/>
    </g>
    <rect id="長方形_146-2" data-name="長方形 146" width="38.915" height="6.948" transform="translate(116.547 12.159)" fill="#0077c0"/>
  </g>
  <g id="グループ_1533" data-name="グループ 1533" transform="translate(624.266 -116.547) rotate(90)">
    <g id="マスクグループ_10-3" data-name="マスクグループ 10" transform="translate(155.463 0)" clip-path="url(#clip-path-5)">
      <path id="パス_99-3" data-name="パス 99" d="M0,18.846,11.335,0,22.347,19.6" transform="translate(15.826 4.65) rotate(90)" fill="none" stroke="#000" stroke-width="7"/>
    </g>
    <rect id="長方形_146-3" data-name="長方形 146" width="38.915" height="6.948" transform="translate(116.547 12.159)"/>
  </g>
  <g id="グループ_1531" data-name="グループ 1531" transform="translate(96.266 -116.547) rotate(90)">
    <g id="マスクグループ_10-4" data-name="マスクグループ 10" transform="translate(155.463 0)" clip-path="url(#clip-path-3)">
      <path id="パス_99-4" data-name="パス 99" d="M0,18.846,11.335,0,22.347,19.6" transform="translate(15.826 4.65) rotate(90)" fill="none" stroke="#0177c0" stroke-width="7"/>
    </g>
    <rect id="長方形_146-4" data-name="長方形 146" width="38.915" height="6.948" transform="translate(116.547 12.159)" fill="#0077c0"/>
  </g>
</svg>
