<svg id="コンポーネント_22_1" data-name="コンポーネント 22 – 1" xmlns="http://www.w3.org/2000/svg" xmlns:xlink="http://www.w3.org/1999/xlink" width="507" height="286.5" viewBox="0 0 507 286.5">
  <defs>
    <clipPath id="clip-path">
      <rect id="長方形_147" data-name="長方形 147" width="24.318" height="31.266" transform="translate(0 0)" fill="#0cb04b"/>
    </clipPath>
  </defs>
  <g id="パス_860" data-name="パス 860" transform="translate(507 116.5) rotate(90)" fill="#fff">
    <path d="M 152 506 L 18 506 C 13.45912456512451 506 9.190062522888184 504.231689453125 5.979187488555908 501.0208129882813 C 2.768312454223633 497.8099365234375 1 493.5408630371094 1 489 L 1 18 C 1 13.45912456512451 2.768312454223633 9.190062522888184 5.979187488555908 5.979187488555908 C 9.190062522888184 2.768312454223633 13.45912456512451 1 18 1 L 152 1 C 156.5408782958984 1 160.8099365234375 2.768312454223633 164.0208129882813 5.979187488555908 C 167.231689453125 9.190062522888184 169 13.45912456512451 169 18 L 169 489 C 169 493.5408630371094 167.231689453125 497.8099365234375 164.0208129882813 501.0208129882813 C 160.8099365234375 504.231689453125 156.5408782958984 506 152 506 Z" stroke="none"/>
    <path d="M 18 2 C 13.72627258300781 2 9.708267211914063 3.664276123046875 6.686264038085938 6.686279296875 C 3.664260864257813 9.708251953125 2 13.72625732421875 2 18 L 2 489 C 2 493.2737426757813 3.664260864257813 497.291748046875 6.686264038085938 500.313720703125 C 9.708267211914063 503.3357238769531 13.72627258300781 505 18 505 L 152 505 C 156.2737274169922 505 160.2917327880859 503.3357238769531 163.3137359619141 500.313720703125 C 166.3357391357422 497.291748046875 168 493.2737426757813 168 489 L 168 18 C 168 13.72625732421875 166.3357391357422 9.708251953125 163.3137359619141 6.686279296875 C 160.2917327880859 3.664276123046875 156.2737274169922 2 152 2 L 18 2 M 18 0 L 152 0 C 161.9411315917969 0 170 8.058868408203125 170 18 L 170 489 C 170 498.9411315917969 161.9411315917969 507 152 507 L 18 507 C 8.058868408203125 507 0 498.9411315917969 0 489 L 0 18 C 0 8.058868408203125 8.058868408203125 0 18 0 Z" stroke="none" fill="#0cb04b"/>
  </g>
  <g id="グループ_963" data-name="グループ 963" transform="translate(3018.633 -1115.219) rotate(90)">
    <g id="グループ_677" data-name="グループ 677" transform="translate(1034.219 2923.367)">
      <g id="マスクグループ_10" data-name="マスクグループ 10" transform="translate(155.463 0)" clip-path="url(#clip-path)">
        <path id="パス_99" data-name="パス 99" d="M0,18.846,11.335,0,22.347,19.6" transform="translate(15.826 4.65) rotate(90)" fill="none" stroke="#0cb04b" stroke-width="7"/>
      </g>
      <rect id="長方形_146" data-name="長方形 146" width="73.463" height="6.948" transform="translate(82 12.159)" fill="#0cb04b"/>
    </g>
    <path id="パス_623" data-name="パス 623" d="M0,0H41.463l-6,6.948H0Z" transform="translate(1115.219 2935.526)" fill="#0077c0"/>
  </g>
  <g id="グループ_1453" data-name="グループ 1453" transform="translate(3196.633 -1115.219) rotate(90)">
    <g id="グループ_677-2" data-name="グループ 677" transform="translate(1034.219 2923.367)">
      <g id="マスクグループ_10-2" data-name="マスクグループ 10" transform="translate(155.463 0)" clip-path="url(#clip-path)">
        <path id="パス_99-2" data-name="パス 99" d="M0,18.846,11.335,0,22.347,19.6" transform="translate(15.826 4.65) rotate(90)" fill="none" stroke="#0cb04b" stroke-width="7"/>
      </g>
      <rect id="長方形_146-2" data-name="長方形 146" width="73.463" height="6.948" transform="translate(82 12.159)" fill="#0cb04b"/>
    </g>
    <path id="パス_623-2" data-name="パス 623" d="M0,0H41.463l-6,6.948H0Z" transform="translate(1115.219 2935.526)" fill="#0077c0"/>
  </g>
  <g id="グループ_1454" data-name="グループ 1454" transform="translate(3372.633 -1115.219) rotate(90)">
    <g id="グループ_677-3" data-name="グループ 677" transform="translate(1034.219 2923.367)">
      <g id="マスクグループ_10-3" data-name="マスクグループ 10" transform="translate(155.463 0)" clip-path="url(#clip-path)">
        <path id="パス_99-3" data-name="パス 99" d="M0,18.846,11.335,0,22.347,19.6" transform="translate(15.826 4.65) rotate(90)" fill="none" stroke="#0cb04b" stroke-width="7"/>
      </g>
      <rect id="長方形_146-3" data-name="長方形 146" width="73.463" height="6.948" transform="translate(82 12.159)" fill="#0cb04b"/>
    </g>
    <path id="パス_623-3" data-name="パス 623" d="M0,0H41.463l-6,6.948H0Z" transform="translate(1115.219 2935.526)" fill="#0077c0"/>
  </g>
  <g id="グループ_1535" data-name="グループ 1535" transform="translate(-41 -4334.268)">
    <path id="パス_859" data-name="パス 859" d="M-54.18-24.609V-8.922h-2.469V-24.609Zm-.906,24Q-49.3-1.844-47.148-4.75-45.1-7.516-45.1-13.125V-24.8h2.469v12q0,6.922-3.094,10.188-2.562,2.7-8.2,3.922Zm35.984-18.5h5.141v2.156H-19.1v2.391q0,7.875-3.359,11.547Q-25.148-.062-31.18,1.406l-1.3-1.828Q-26.32-1.734-23.9-4.906q2.391-3.141,2.391-9.359v-2.687h-8.031v8.469h-2.406v-8.469h-4.891v-2.156h4.891v-6.328h2.406v6.328h8.031V-25.5H-19.1ZM-.461-15.719A74.129,74.129,0,0,1-9.445-9.7l-1.312-1.844A58.945,58.945,0,0,0-.773-18.422,44.9,44.9,0,0,0,6.3-25.891l2.109,1.313a50.509,50.509,0,0,1-6.406,6.813V1.281H-.461Zm20.5-4.531a30,30,0,0,1-5.891,9.2L12.32-12.453a27.992,27.992,0,0,0,6.906-13.312l2.531.391q-.328,1.234-.922,3H31.93Q30.43-11.344,25.82-5.562A23.939,23.939,0,0,1,15.711,1.531L14.3-.187a22.161,22.161,0,0,0,10.25-7.578q3.328-4.687,4.5-12.484ZM50.055-2.656q5.2-3.531,8.313-11l1.641,2.141A29.118,29.118,0,0,1,48.992,1.031L47.617.313V-24.578h2.438Zm-6.812-21.7q0,9.094-.312,13.125a24.554,24.554,0,0,1-.906,5.375,14.977,14.977,0,0,1-4.672,6.891L35.492-.422a11.864,11.864,0,0,0,4.359-6.359,30.422,30.422,0,0,0,.8-6.578q.156-3.547.156-11Z" transform="translate(350 4547.768)" fill="#0cb04b"/>
    <g id="リサイクル矢印2" transform="translate(159 4487.14)">
      <path id="パス_627" data-name="パス 627" d="M14.146,213.345l9.412-16.569,7.709,4.453L20.783,183.054,0,183.1l7.407,4.375S2.99,194.9,2.014,196.606c-1.57,2.74-2.376,6.75-.632,9.539.266.438,5.28,9.369,9.324,16.385.084-3.113,1.672-6.011,3.448-9.185h-.008Z" transform="translate(0 -147.391)" fill="none" stroke="#0cb04b" stroke-width="1"/>
      <path id="パス_628" data-name="パス 628" d="M69.885,367.481c.225.387.452.772.665,1.152,1.031,1.783,3.512,4.126,13.159,3.956,2.106-.039,10.5.019,13,.039l.121-18.867-24.557-.17C69.5,358.536,67.143,362.727,69.885,367.481Z" transform="translate(-56.46 -287.618)" fill="none" stroke="#0cb04b" stroke-width="1"/>
      <path id="パス_629" data-name="パス 629" d="M108.433,3.8h-1.328c-2.053,0-5.333.976-10,9.418-1.019,1.84-5.264,9.077-6.529,11.232L106.844,34l12.437-21.184C116.377,7.936,113.925,3.8,108.433,3.8Z" transform="translate(-74.474 0)" fill="none" stroke="#0cb04b" stroke-width="1"/>
      <path id="パス_630" data-name="パス 630" d="M250.9,32.3l10.351-18.018-7.488,4.23s-4.234-7.546-5.215-9.238c-1.586-2.732-4.66-5.43-7.945-5.321-.5.014-10.753-.109-18.853-.117,2.65,1.633,4.37,4.453,6.222,7.58l.008-.016,9.65,16.448L229.921,32.3Z" transform="translate(-182.34 -0.027)" fill="none" stroke="#0cb04b" stroke-width="1"/>
      <path id="パス_631" data-name="パス 631" d="M297.421,313.584l-19.064.137v-8.9l-10.493,18.174,10.427,17.973.088-8.6s8.645.108,10.607.1c3.16-.013,7.028-1.316,8.579-4.224.24-.444,5.471-9.263,9.523-16.262-2.73,1.478-6.043,1.555-9.67,1.6Z" transform="translate(-220.255 -247.513)" fill="none" stroke="#0cb04b" stroke-width="1"/>
      <path id="パス_632" data-name="パス 632" d="M384.178,184.671c-1.079-1.809-5.223-9.1-6.459-11.277l-16.4,9.322,12.126,21.362c5.671-.073,10.475-.131,13.221-4.877l.671-1.163C388.358,196.262,389.152,192.937,384.178,184.671Z" transform="translate(-297.099 -139.448)" fill="none" stroke="#0cb04b" stroke-width="1"/>
    </g>
  </g>
</svg>
