<svg id="コンポーネント_13_1" data-name="コンポーネント 13 – 1" xmlns="http://www.w3.org/2000/svg" width="270.659" height="134.195" viewBox="0 0 270.659 134.195">
  <path id="パス_392" data-name="パス 392" d="M109.626,206.413H95.695a.6.6,0,0,1-.6-.6V178.276a6.508,6.508,0,0,1,6.5-6.5h12.476a.6.6,0,0,1,.6.6V197.74a.6.6,0,0,1-.425.574,6.075,6.075,0,0,0-3.055,2.145,5.966,5.966,0,0,0-1.205,3.614,6.031,6.031,0,0,0,.218,1.583.6.6,0,0,1-.579.758Zm-13.331-1.2h12.587a7.024,7.024,0,0,1-.095-1.14,7.157,7.157,0,0,1,1.446-4.335,7.3,7.3,0,0,1,3.239-2.427V172.975H101.6a5.307,5.307,0,0,0-5.3,5.3Z" transform="translate(89.493 -164.209)" fill="#0077c0"/>
  <path id="楕円形_62" data-name="楕円形 62" d="M4.461-.6A5.061,5.061,0,1,1-.6,4.461,5.067,5.067,0,0,1,4.461-.6Zm0,8.923A3.861,3.861,0,1,0,.6,4.461,3.866,3.866,0,0,0,4.461,8.323Z" transform="translate(201.039 35.401)" fill="#0077c0"/>
  <g id="グループ_710" data-name="グループ 710" transform="translate(207.177 0.6)" opacity="0.504">
    <path id="パス_391" data-name="パス 391" d="M175.522,162.025h3v1.2h-3Zm5.866,1.473c.588.773,1.2,1.58,1.809,2.4l-.961.718c-.61-.817-1.216-1.621-1.8-2.391Zm-4.917.129.912,2.858-1.143.365-.912-2.858Zm8.514,4.687c.6.825,1.2,1.643,1.766,2.433l-.975.7c-.565-.787-1.156-1.6-1.759-2.424Zm-6.689,1.029.912,2.858-1.143.365-.912-2.858Zm10.194,3.858c.6.856,1.174,1.69,1.707,2.478l-.994.673c-.53-.783-1.1-1.612-1.7-2.463Zm-8.369,1.858.912,2.858-1.143.365-.912-2.858Zm11.741,3.132c.591.914,1.13,1.776,1.6,2.561l-1.029.617c-.464-.774-1-1.624-1.579-2.527Zm-9.916,2.584.912,2.858-1.143.365-.912-2.858Zm13.006,2.626a13.125,13.125,0,0,1,1.183,2.914l-1.171.263a12.237,12.237,0,0,0-1.08-2.627Zm-11.181,3.09.912,2.858-1.143.365-.912-2.858Zm11.254,2.949h1.2v3h-1.2Zm-9.43,2.767.912,2.858-1.143.365-.912-2.858Zm9.43,3.233h1.2v3h-1.2Zm-7.6,2.482.912,2.858-1.143.365-.912-2.858Zm7.6,3.518h1.2v2.189a.6.6,0,0,1-.6.6h-.811v-1.2h.211Zm-6.211,1.589h3v1.2h-3Z" transform="translate(-135.573 -162.625)" fill="#0077c0"/>
    <path id="パス_393" data-name="パス 393" d="M173.021,204.228h-3v-1.2h3Zm-18.552,0h-2.885v-1.2h2.885v.481l.552-.141q.013.051.027.1a.6.6,0,0,1-.579.758Zm-18.322,0h-3v-1.2h3Zm-6,0H128.74a.6.6,0,0,1-.579-.758,6.08,6.08,0,0,0,.216-1.431l1.2.032a7.058,7.058,0,0,1-.092.957h.661Zm37.722-.664-1.167-.281a5.967,5.967,0,0,0,.17-1.395,6.062,6.062,0,0,0-.142-1.309l1.172-.259a7.264,7.264,0,0,1,.171,1.568A7.168,7.168,0,0,1,167.868,203.563Zm4.239-.885-.866-2.872,1.149-.347.866,2.872Zm-35.363-.575c0-.071,0-.144,0-.215a7.167,7.167,0,0,1,.636-2.968l1.094.494a5.974,5.974,0,0,0-.53,2.474q0,.089,0,.178Zm13.838-.214h-.6a5.962,5.962,0,0,0-.606-2.635l1.079-.526a7.152,7.152,0,0,1,.727,3.161Zm4.37-1.224-1.175-.242a7.237,7.237,0,0,1,1.356-2.948l.949.734A6.03,6.03,0,0,0,154.954,200.665Zm-27.116-1.274a6.064,6.064,0,0,0-1.651-2.143l.763-.926a7.271,7.271,0,0,1,1.979,2.57Zm37.725-1.251a6.075,6.075,0,0,0-2.116-1.686l.518-1.082a7.283,7.283,0,0,1,2.537,2.021Zm-25.453-.879-.768-.922a7.243,7.243,0,0,1,2.9-1.464l.286,1.165A6.036,6.036,0,0,0,140.11,197.26Zm7.567-.112A6.032,6.032,0,0,0,145.229,196l.251-1.173a7.239,7.239,0,0,1,2.938,1.378Zm22.7-.215-.866-2.872,1.149-.347.866,2.872Zm-12.2-.442-.534-1.075a7.15,7.15,0,0,1,3.156-.75l.009,1.2A5.959,5.959,0,0,0,158.175,196.492Zm-33.539-1.137h-1.2v-3h1.2Zm44.006-4.166-.866-2.872,1.149-.347.866,2.872Zm-44.006-1.834h-1.2v-3h1.2Zm42.273-3.91-.866-2.872,1.149-.347.866,2.872Zm-42.273-2.09h-1.2v-3h1.2Zm40.54-3.654-.866-2.872,1.149-.347.866,2.872Zm-40.54-2.346h-1.2v-3h1.2Zm38.807-3.4-.866-2.872,1.149-.347.866,2.872Zm-38.807-2.6h-1.2v-3h1.2Zm37.074-3.143-.866-2.872,1.149-.347.866,2.872Zm-37.074-2.857h-1.2v-2.73a.6.6,0,0,1,.6-.6h.27v.6h.33Zm35.67-2.13h-3v-1.2h3Zm-6,0h-3v-1.2h3Zm-6,0h-3v-1.2h3Zm-6,0h-3v-1.2h3Zm-6,0h-3v-1.2h3Zm-6,0h-3v-1.2h3Z" transform="translate(-124.036 -162.625)" fill="#0077c0"/>
    <path id="楕円形_63" data-name="楕円形 63" d="M4.461-.6A5.076,5.076,0,0,1,7.614.5l-.748.938A3.82,3.82,0,0,0,4.461.6ZM3.3-.466,3.573.7A3.876,3.876,0,0,0,1.426,2.074L.483,1.332A5.08,5.08,0,0,1,3.3-.466ZM9.4,3.327a5.088,5.088,0,0,1,.128,1.134,5.016,5.016,0,0,1-.495,2.185L7.946,6.128a3.825,3.825,0,0,0,.377-1.667,3.886,3.886,0,0,0-.1-.866ZM.6,4.484a3.819,3.819,0,0,0,.854,2.4L.52,7.637A5.076,5.076,0,0,1-.6,4.491ZM6.148,7.936l.525,1.079a5.014,5.014,0,0,1-2.212.508A5.089,5.089,0,0,1,3.356,9.4L3.617,8.23a3.887,3.887,0,0,0,.844.092A3.824,3.824,0,0,0,6.148,7.936Z" transform="translate(15.57 34.801)" fill="#0077c0"/>
    <path id="楕円形_64" data-name="楕円形 64" d="M4.461-.6A5.076,5.076,0,0,1,7.614.5l-.748.938A3.82,3.82,0,0,0,4.461.6ZM3.3-.466,3.573.7A3.876,3.876,0,0,0,1.426,2.074L.483,1.332A5.08,5.08,0,0,1,3.3-.466ZM9.4,3.327a5.088,5.088,0,0,1,.128,1.134,5.016,5.016,0,0,1-.495,2.185L7.946,6.128a3.825,3.825,0,0,0,.377-1.667,3.886,3.886,0,0,0-.1-.866ZM.6,4.484a3.819,3.819,0,0,0,.854,2.4L.52,7.637A5.076,5.076,0,0,1-.6,4.491ZM6.148,7.936l.525,1.079a5.014,5.014,0,0,1-2.212.508A5.089,5.089,0,0,1,3.356,9.4L3.617,8.23a3.887,3.887,0,0,0,.844.092A3.824,3.824,0,0,0,6.148,7.936Z" transform="translate(32.388 34.801)" fill="#0077c0"/>
    <path id="パス_394" data-name="パス 394" d="M163.4,186.133l-.292-.938,1.146-.357.292.938Zm-1.184-3.8-.892-2.864,1.146-.357.892,2.864Zm-1.783-5.729-.892-2.864,1.146-.357.892,2.864Zm-1.783-5.729-.46-1.479h-.568v-1.2h1.009a.6.6,0,0,1,.573.422l.592,1.9Zm-4.028-1.479h-3v-1.2h3Zm-6,0h-3v-1.2h3Zm-6,0h-3v-1.2h3Zm-6,0h-3v-1.2h3Zm-6,0h-3v-1.2h3Z" transform="translate(-124.84 -164.008)" fill="#0077c0"/>
  </g>
  <path id="パス_395" data-name="パス 395" d="M95.695,178.276v13.861h10.1V172.375h-4.2A5.9,5.9,0,0,0,95.695,178.276Z" transform="translate(89.493 -164.209)" fill="#0077c0"/>
  <path id="パス_395_-_アウトライン" data-name="パス 395 - アウトライン" d="M101.6,171.775h4.2a.6.6,0,0,1,.6.6v19.762a.6.6,0,0,1-.6.6h-10.1a.6.6,0,0,1-.6-.6V178.276A6.508,6.508,0,0,1,101.6,171.775Zm3.6,1.2h-3.6a5.307,5.307,0,0,0-5.3,5.3v13.261h8.9Z" transform="translate(89.493 -164.209)" fill="#0077c0"/>
  <g id="グループ_705" data-name="グループ 705" transform="translate(-1378.27 -5713.825)">
    <path id="パス_807" data-name="パス 807" d="M49.35-16.87V-4.76H20.23V-16.87ZM11.69,6.02h8.54V3.22H49.35V5.95h8.96V-24.78H11.69ZM42.14-47.39c2.17,1.89,4.48,3.99,6.72,6.23-8.05.35-16.17.7-23.73.98,3.36-5.11,6.86-10.99,9.8-16.52l-9.59-3.08A120.116,120.116,0,0,1,15.05-39.83c-3.92.07-7.56.21-10.78.28l.49,8.4c13.02-.49,32.55-1.26,51.03-2.24a45.177,45.177,0,0,1,4.48,6.37l7.21-5.53c-3.57-6.02-11.9-14.07-18.83-19.74Z" transform="translate(1374 5842)" fill="#0077c0"/>
  </g>
  <g id="グループ_706" data-name="グループ 706" transform="translate(-959.927 -5810.933)">
    <path id="パス_808" data-name="パス 808" d="M12.508-16.815c6.254,0,10.679-5.133,10.679-13.924,0-8.732-4.425-13.747-10.679-13.747S1.888-39.471,1.888-30.739C1.888-21.948,6.254-16.815,12.508-16.815Zm0-4.9c-2.537,0-4.484-2.6-4.484-9.027s1.947-8.85,4.484-8.85,4.543,2.419,4.543,8.85S15.045-21.712,12.508-21.712ZM13.983.826h5.133L42.834-44.486H37.7Zm30.267,0c6.195,0,10.679-5.192,10.679-13.924,0-8.791-4.484-13.806-10.679-13.806S33.63-21.889,33.63-13.1C33.63-4.366,38.055.826,44.25.826Zm0-4.956c-2.537,0-4.484-2.537-4.484-8.968s1.947-8.909,4.484-8.909,4.543,2.478,4.543,8.909S46.787-4.13,44.25-4.13Z" transform="translate(1175.657 5941.107)" fill="#0077c0"/>
  </g>
  <g id="グループ_708" data-name="グループ 708" transform="translate(94.932 0.6)">
    <path id="パス_391-2" data-name="パス 391" d="M175.522,162.025h4.441a.6.6,0,0,1,.474.232c.039.051,3.969,5.126,7.848,10.65,2.282,3.251,4.1,6.021,5.409,8.233,1.7,2.883,2.531,4.811,2.531,5.894v16.592a.6.6,0,0,1-.6.6h-7.013a.6.6,0,0,1-.572-.418l-13.091-41a.6.6,0,0,1,.572-.782Zm4.146,1.2h-3.325l12.707,39.8h5.974V187.035c0-.911-1-3.868-7.72-13.435C183.913,168.768,180.48,164.28,179.668,163.225Z" transform="translate(-113.582 -162.625)" fill="#0077c0"/>
    <path id="パス_392-2" data-name="パス 392" d="M109.626,206.413H95.695a.6.6,0,0,1-.6-.6V178.276a6.508,6.508,0,0,1,6.5-6.5h12.476a.6.6,0,0,1,.6.6V197.74a.6.6,0,0,1-.425.574,6.075,6.075,0,0,0-3.055,2.145,5.966,5.966,0,0,0-1.205,3.614,6.031,6.031,0,0,0,.218,1.583.6.6,0,0,1-.579.758Zm-13.331-1.2h12.587a7.024,7.024,0,0,1-.095-1.14,7.157,7.157,0,0,1,1.446-4.335,7.3,7.3,0,0,1,3.239-2.427V172.975H101.6a5.307,5.307,0,0,0-5.3,5.3Z" transform="translate(-95.695 -164.81)" fill="#0077c0"/>
    <path id="パス_393-2" data-name="パス 393" d="M173.021,204.228h-5.788a.6.6,0,0,1-.579-.758,6.021,6.021,0,1,0-11.606,0,.6.6,0,0,1-.579.758h-4.124a.6.6,0,0,1-.579-.758,6.021,6.021,0,1,0-11.606,0,.6.6,0,0,1-.579.758h-8.84a.6.6,0,0,1-.579-.758,5.989,5.989,0,0,0-4.277-7.4.6.6,0,0,1-.448-.58V162.625a.6.6,0,0,1,.6-.6h36.615a.6.6,0,0,1,.574.427l12.37,41a.6.6,0,0,1-.574.773Zm-5.044-1.2h4.236l-12.008-39.8H124.636v31.817a7.219,7.219,0,0,1,4.943,6.846,7.025,7.025,0,0,1-.095,1.14h7.351a7.024,7.024,0,0,1-.095-1.14,7.221,7.221,0,1,1,14.442,0,7.024,7.024,0,0,1-.095,1.14h2.635a7.024,7.024,0,0,1-.095-1.14,7.221,7.221,0,1,1,14.442,0A7.024,7.024,0,0,1,167.977,203.028Z" transform="translate(-102.045 -162.625)" fill="#0077c0"/>
    <path id="楕円形_62-2" data-name="楕円形 62" d="M4.461-.6A5.061,5.061,0,1,1-.6,4.461,5.067,5.067,0,0,1,4.461-.6Zm0,8.923A3.861,3.861,0,1,0,.6,4.461,3.866,3.866,0,0,0,4.461,8.323Z" transform="translate(15.851 34.801)" fill="#0077c0"/>
    <path id="楕円形_63-2" data-name="楕円形 63" d="M4.461-.6A5.061,5.061,0,1,1-.6,4.461,5.067,5.067,0,0,1,4.461-.6Zm0,8.923A3.861,3.861,0,1,0,.6,4.461,3.866,3.866,0,0,0,4.461,8.323Z" transform="translate(37.56 34.801)" fill="#0077c0"/>
    <path id="楕円形_64-2" data-name="楕円形 64" d="M4.461-.6A5.061,5.061,0,1,1-.6,4.461,5.067,5.067,0,0,1,4.461-.6Zm0,8.923A3.861,3.861,0,1,0,.6,4.461,3.866,3.866,0,0,0,4.461,8.323Z" transform="translate(54.379 34.801)" fill="#0077c0"/>
    <path id="パス_394-2" data-name="パス 394" d="M163.4,186.133l-5.211-16.739H127.623v-1.2h31.009a.6.6,0,0,1,.573.422l5.342,17.161Z" transform="translate(-102.849 -164.007)" fill="#0077c0"/>
    <path id="パス_395-2" data-name="パス 395" d="M95.695,178.276v13.861h10.1V172.375h-4.2A5.9,5.9,0,0,0,95.695,178.276Z" transform="translate(-95.695 -164.81)" fill="#0077c0"/>
    <path id="パス_395_-_アウトライン-2" data-name="パス 395 - アウトライン" d="M101.6,171.775h4.2a.6.6,0,0,1,.6.6v19.762a.6.6,0,0,1-.6.6h-10.1a.6.6,0,0,1-.6-.6V178.276A6.508,6.508,0,0,1,101.6,171.775Zm3.6,1.2h-3.6a5.307,5.307,0,0,0-5.3,5.3v13.261h8.9Z" transform="translate(-95.695 -164.81)" fill="#0077c0"/>
  </g>
  <g id="グループ_709" data-name="グループ 709" transform="translate(4.678 0.6)">
    <path id="パス_391-3" data-name="パス 391" d="M175.522,162.025h4.441a.6.6,0,0,1,.474.232c.039.051,3.969,5.126,7.848,10.65,2.282,3.251,4.1,6.021,5.409,8.233,1.7,2.883,2.531,4.811,2.531,5.894v16.592a.6.6,0,0,1-.6.6h-7.013a.6.6,0,0,1-.572-.418l-13.091-41a.6.6,0,0,1,.572-.782Zm4.146,1.2h-3.325l12.707,39.8h5.974V187.035c0-.911-1-3.868-7.72-13.435C183.913,168.768,180.48,164.28,179.668,163.225Z" transform="translate(-113.583 -162.625)" fill="#0077c0"/>
    <path id="パス_392-3" data-name="パス 392" d="M109.626,206.413H95.695a.6.6,0,0,1-.6-.6V178.276a6.508,6.508,0,0,1,6.5-6.5h12.476a.6.6,0,0,1,.6.6V197.74a.6.6,0,0,1-.425.574,6.075,6.075,0,0,0-3.055,2.145,5.966,5.966,0,0,0-1.205,3.614,6.031,6.031,0,0,0,.218,1.583.6.6,0,0,1-.579.758Zm-13.331-1.2h12.587a7.024,7.024,0,0,1-.095-1.14,7.157,7.157,0,0,1,1.446-4.335,7.3,7.3,0,0,1,3.239-2.427V172.975H101.6a5.307,5.307,0,0,0-5.3,5.3Z" transform="translate(-95.695 -164.81)" fill="#0077c0"/>
    <path id="パス_393-3" data-name="パス 393" d="M173.021,204.228h-5.788a.6.6,0,0,1-.579-.758,6.021,6.021,0,1,0-11.606,0,.6.6,0,0,1-.579.758h-4.124a.6.6,0,0,1-.579-.758,6.021,6.021,0,1,0-11.606,0,.6.6,0,0,1-.579.758h-8.84a.6.6,0,0,1-.579-.758,5.989,5.989,0,0,0-4.277-7.4.6.6,0,0,1-.448-.58V162.625a.6.6,0,0,1,.6-.6h36.615a.6.6,0,0,1,.574.427l12.37,41a.6.6,0,0,1-.574.773Zm-5.044-1.2h4.236l-12.008-39.8H124.636v31.817a7.219,7.219,0,0,1,4.943,6.846,7.025,7.025,0,0,1-.095,1.14h7.351a7.024,7.024,0,0,1-.095-1.14,7.221,7.221,0,1,1,14.442,0,7.024,7.024,0,0,1-.095,1.14h2.635a7.024,7.024,0,0,1-.095-1.14,7.221,7.221,0,1,1,14.442,0A7.024,7.024,0,0,1,167.977,203.028Z" transform="translate(-102.046 -162.625)" fill="#0077c0"/>
    <path id="楕円形_62-3" data-name="楕円形 62" d="M4.461-.6A5.061,5.061,0,1,1-.6,4.461,5.067,5.067,0,0,1,4.461-.6Zm0,8.923A3.861,3.861,0,1,0,.6,4.461,3.866,3.866,0,0,0,4.461,8.323Z" transform="translate(15.851 34.801)" fill="#0077c0"/>
    <path id="楕円形_63-3" data-name="楕円形 63" d="M4.461-.6A5.061,5.061,0,1,1-.6,4.461,5.067,5.067,0,0,1,4.461-.6Zm0,8.923A3.861,3.861,0,1,0,.6,4.461,3.866,3.866,0,0,0,4.461,8.323Z" transform="translate(37.56 34.801)" fill="#0077c0"/>
    <path id="楕円形_64-3" data-name="楕円形 64" d="M4.461-.6A5.061,5.061,0,1,1-.6,4.461,5.067,5.067,0,0,1,4.461-.6Zm0,8.923A3.861,3.861,0,1,0,.6,4.461,3.866,3.866,0,0,0,4.461,8.323Z" transform="translate(54.378 34.801)" fill="#0077c0"/>
    <path id="パス_394-3" data-name="パス 394" d="M163.4,186.133l-5.211-16.739H127.623v-1.2h31.009a.6.6,0,0,1,.573.422l5.342,17.161Z" transform="translate(-102.85 -164.007)" fill="#0077c0"/>
    <path id="パス_395-3" data-name="パス 395" d="M95.695,178.276v13.861h10.1V172.375h-4.2A5.9,5.9,0,0,0,95.695,178.276Z" transform="translate(-95.695 -164.81)" fill="#0077c0"/>
    <path id="パス_395_-_アウトライン-3" data-name="パス 395 - アウトライン" d="M101.6,171.775h4.2a.6.6,0,0,1,.6.6v19.762a.6.6,0,0,1-.6.6h-10.1a.6.6,0,0,1-.6-.6V178.276A6.508,6.508,0,0,1,101.6,171.775Zm3.6,1.2h-3.6a5.307,5.307,0,0,0-5.3,5.3v13.261h8.9Z" transform="translate(-95.695 -164.81)" fill="#0077c0"/>
  </g>
</svg>
