<svg id="コンポーネント_19_1" data-name="コンポーネント 19 – 1" xmlns="http://www.w3.org/2000/svg" width="509.277" height="49.873" viewBox="0 0 509.277 49.873">
  <path id="パス_852" data-name="パス 852" d="M-223.448-42.453h-7.526c.212,1.378.371,3.074.53,5.353q.079,1.749.159,3.816h-17.543a50.734,50.734,0,0,1-5.883-.371v7.049c1.855-.106,4.134-.212,6.042-.212H-233.2c-4.24,6.042-12.985,13.515-23.32,18.391l4.876,5.512c8.374-4.452,16.96-11.819,21.624-17.914.106,5.459.106,10.759.106,14.31,0,1.537-.53,2.226-1.855,2.226a45.017,45.017,0,0,1-7.049-.636l.583,6.89c3.021.212,5.989.318,9.222.318,4.028,0,5.989-1.961,5.936-5.353-.106-7.155-.318-16.006-.477-23.744h6.837c1.431,0,3.445.106,5.141.159v-7.049a40.972,40.972,0,0,1-5.512.424h-6.625c0-1.378-.053-2.65-.053-3.816A45.335,45.335,0,0,1-223.448-42.453Zm64.66,3.6a3.076,3.076,0,0,1,3.074-3.074,3.065,3.065,0,0,1,3.021,3.074,3.054,3.054,0,0,1-3.021,3.021A3.065,3.065,0,0,1-158.788-38.849Zm-3.286,0a5.871,5.871,0,0,0,.106,1.007,22.869,22.869,0,0,1-3.021.212h-24.539a59.012,59.012,0,0,1-6.307-.424v7.473c1.325-.106,3.869-.212,6.307-.212h24.645a33.306,33.306,0,0,1-6.2,14.946c-4.293,5.406-10.282,10.017-20.776,12.455l5.777,6.36c9.434-3.074,16.536-8.321,21.306-14.681,4.452-5.883,6.731-14.1,7.95-19.292.159-.477.265-1.007.424-1.59a3.022,3.022,0,0,0,.689.053,6.357,6.357,0,0,0,6.307-6.307,6.368,6.368,0,0,0-6.307-6.36A6.379,6.379,0,0,0-162.074-38.849Zm35.351-3.127-3.869,5.83c3.5,1.961,9.01,5.565,11.978,7.632l3.975-5.883C-117.4-36.305-123.225-40.068-126.723-41.976Zm-9.858,37.63,3.975,7a64.491,64.491,0,0,0,17.7-6.572A63.994,63.994,0,0,0-93.81-22.949l-4.081-7.208c-4.24,7.579-11.607,14.84-20.617,19.875A57.428,57.428,0,0,1-136.581-4.346Zm1.7-25.546-3.869,5.883c3.551,1.855,9.063,5.459,12.084,7.526l3.869-5.936C-125.5-24.327-131.334-27.984-134.885-29.892Zm61.374-.053v6.413c1.272-.106,4.611-.212,6.572-.212h17.49v6.413H-66.356c-2.014,0-4.4-.053-5.777-.159v6.254c1.219-.053,3.763-.106,5.777-.106h16.907v7.049H-69.483a45.477,45.477,0,0,1-4.611-.212V2.014c.9-.053,3.074-.159,4.558-.159h20.087c0,.8,0,1.643-.053,2.12h6.678c0-.954-.053-2.756-.053-3.6V-26.235c0-1.113,0-2.862.053-3.551-.848.053-2.809.106-4.081.106H-66.939C-68.9-29.68-72.133-29.786-73.511-29.945ZM-13.727-40.28l-4.982,5.3A110.2,110.2,0,0,1-5.459-23.532l5.406-5.512A107.043,107.043,0,0,0-13.727-40.28Zm-6.625,35.3,4.452,7A57.4,57.4,0,0,0,3.763-5.459a56.358,56.358,0,0,0,19.61-19.61l-4.134-7.473C15.9-25.387,9.01-17.278-.053-11.925A54.626,54.626,0,0,1-20.352-4.982Zm91.8-18.444v-1.749h3.922c2.809,0,4.664.053,5.83.159v-7.049a31.406,31.406,0,0,1-5.83.371H71.444v-5.565a33.391,33.391,0,0,1,.371-4.929H64.236a34.976,34.976,0,0,1,.318,4.929v5.565H51.993v-5.247a32.391,32.391,0,0,1,.318-4.77H44.785c.159,1.59.318,3.233.318,4.77v5.247H40.6a34.426,34.426,0,0,1-5.724-.477v7.208c1.166-.106,3.074-.212,5.724-.212H45.1v7.208a42.863,42.863,0,0,1-.318,5.565H52.2c-.053-1.06-.212-3.233-.212-5.565v-7.208H64.554v2.014c0,13.038-4.5,17.6-14.734,21.147l5.671,5.353C68.264-2.279,71.444-10.282,71.444-23.426ZM131.175-39.75a2.9,2.9,0,0,1,2.915-2.862,2.85,2.85,0,0,1,2.862,2.862,2.85,2.85,0,0,1-2.862,2.862A2.9,2.9,0,0,1,131.175-39.75Zm-3.233,0A6.152,6.152,0,0,0,134.09-33.6a6.107,6.107,0,0,0,6.1-6.148,6.107,6.107,0,0,0-6.1-6.148A6.152,6.152,0,0,0,127.942-39.75Zm-7.314-2.067h-7.844a27.456,27.456,0,0,1,.477,4.611v4.24H99.8a40.353,40.353,0,0,1-5.141-.424v7.049c1.484-.159,3.551-.212,5.141-.212h13.462v.053c0,2.491,0,19.292-.053,21.253-.053,1.378-.583,1.908-1.961,1.908a36.657,36.657,0,0,1-5.883-.636L106,2.6a76.527,76.527,0,0,0,8.639.477c3.763,0,5.512-1.908,5.512-4.982V-26.553h12.4c1.431,0,3.5.053,5.194.159v-6.943a42.894,42.894,0,0,1-5.247.371H120.151v-4.24A42.963,42.963,0,0,1,120.628-41.817Zm-12.455,22.79-5.989-2.809A55.23,55.23,0,0,1,92.22-8.162L97.944-4.24A83.185,83.185,0,0,0,108.173-19.027Zm22.79-2.968-5.777,3.127a100.627,100.627,0,0,1,8.586,14.2l6.254-3.392A123.2,123.2,0,0,0,130.963-21.995Zm22.313-2.544v8.321c1.961-.159,5.512-.265,8.533-.265H190.27c2.226,0,4.929.212,6.2.265v-8.321c-1.378.106-3.71.318-6.2.318H161.809C159.053-24.221,155.184-24.38,153.276-24.539ZM223.342-5.088a58.214,58.214,0,0,1-.53,7.42h8.268c-.212-2.173-.477-5.883-.477-7.42v-15a153.084,153.084,0,0,1,19.133,7.9l3.021-7.314A173.1,173.1,0,0,0,230.6-27.719v-7.844a57.622,57.622,0,0,1,.477-6.36h-8.268a36.791,36.791,0,0,1,.53,6.36Z" transform="translate(256.52 45.898)" fill="#0077c0"/>
</svg>
