<?xml version="1.0" encoding="UTF-8"?><svg id="_レイヤー_2" xmlns="http://www.w3.org/2000/svg" width="234.89" height="79.79" viewBox="0 0 234.89 79.79"><defs><style>.cls-1,.cls-2{fill:none;}.cls-2{stroke:#000;}</style></defs><g id="_コンポーネント_17_1"><g id="_グループ_576"><g><path id="_パス_835" d="M17.1,68.79v-1.5h6.1v1.5h-6.1Zm6-4.2v1.5h-6.1v-1.5h6.1Zm0-2.5v1.5h-6.1v-1.5h6.1Zm-3-1.1c.2-.4,.4-.9,.6-1.5l-1.3-.2c-.1,.5-.2,1.1-.4,1.6h-3v9.4h1.1v-.6h6.1v.6h1.2v-9.4h-4.3v.1Zm15.4-.3c-.7-.5-1.5-.9-2.3-1.2l-.6,.8c.8,.3,1.6,.8,2.2,1.3l.7-.9Zm-.7,3.1c-.7-.5-1.5-.8-2.3-1.1l-.6,.9c.8,.3,1.6,.7,2.3,1.2l.6-1Zm-1.5,6.5c.7-1.1,1.5-2.5,2.1-3.8l-.8-.7c-.7,1.3-1.4,2.6-2.2,3.8l.9,.7Zm7.5-3.7v2.3h-3.7v-2.3h3.7Zm-4.7,3.8h1.1v-.5h3.7v.5h1.1v-4.8h-5.9v4.8h0Zm3.5-8.7c.4,.5,.8,1,1.2,1.6-1.2,.1-2.3,.1-3.4,.2,.6-1.1,1.1-2.5,1.6-3.7l-1.3-.3c-.4,1.4-.9,2.8-1.5,4.1h-1.2l.1,1.1c1.6-.1,4-.3,6.3-.4,.2,.4,.4,.7,.5,1l1-.6c-.7-1.2-1.5-2.4-2.4-3.4l-.9,.4Zm12.1-2.2c-.5,1.7-1.4,3.3-2.5,4.6,.2,.4,.5,.7,.6,1.1,.3-.4,.6-.7,.9-1.2v6.4h1.1v-8.2c.4-.8,.7-1.6,1-2.4l-1.1-.3Zm8.6,3.3v-1.1h-3.5v-2.2h-1.1v2.2h-3.2v1.1h2.6c-.6,1.9-1.7,3.6-3.2,5,.3,.2,.6,.5,.8,.9,1.3-1.4,2.3-3.1,3-4.9v3.6h-1.8v1h1.8v2.1h1.1v-2.1h1.8v-1h-1.8v-3.7c.6,1.8,1.6,3.5,2.9,4.9,.2-.3,.5-.6,.9-.9-1.4-1.4-2.5-3-3.1-4.9h2.8Zm13.2,2.1v2h-2.6v-2h2.6Zm1.1,3v-4h-4.7v4.8h1v-.8h3.7Zm2.5-6.5h-5.2c.3-.6,.6-1.2,.9-1.8l-1.4-.2c-.2,.7-.4,1.4-.7,2.1h-3.3v9h1.1v-7.9h7.5v6.5c0,.2-.1,.3-.3,.3h-1.8c.2,.4,.3,.7,.4,1.1,.8,0,1.5,0,2.3-.2,.4-.2,.6-.5,.6-1.2v-7.7h-.1Zm15.8-1.4h-1.4c.1,.2,.1,.5,.1,.8s0,1,.1,1.8h-1.4c-.6,0-1.3,0-1.9-.1v1.2c.6,0,1.3,.1,1.9,.1h1.5v.4c0,2.2-.1,3.4-1.2,4.5-.4,.4-.8,.6-1.3,.8l1.1,.9c2.5-1.5,2.6-3.4,2.6-6.2v-.5c.7,0,1.4-.1,1.9-.2v-1.2c-.6,.1-1.3,.2-1.9,.3v-1.7c-.2-.4-.2-.6-.1-.9Zm-6.1,.2l-1.4-.1c0,.3,0,.6-.1,.9-.3,1.6-.4,3.2-.4,4.8,0,1.3,.3,2.6,.7,3.8l1-.1v-.4c0-.2,0-.4,.1-.6,.1-.6,.5-1.8,.8-2.8l-.6-.4c-.2,.5-.5,1.2-.6,1.6-.3-2-.1-4,.4-5.9,0-.1,0-.5,.1-.8Z"/><g id="_長方形_4"><rect class="cls-1" y="50.09" width="110" height="29.7"/><rect class="cls-2" x=".5" y="50.59" width="109" height="28.7"/></g></g><g><g id="_パス_86"><path class="cls-1" d="M124.89,50.09h110v29.7H124.89s0-29.7,0-29.7Z"/><path d="M125.89,51.09v27.7h108v-27.7H125.89m-1-1h110v29.7H124.89s0-29.7,0-29.7Z"/></g><g><path d="M154.36,67.08h-1.25v2.1h-1.13v-.52h-2.55v.62c0,.61-.16,.86-.56,1.02-.41,.14-1.03,.16-2.04,.16-.06-.25-.23-.66-.38-.9,.66,.02,1.38,.02,1.57,.01,.22-.01,.29-.07,.29-.28v-.64h-3.74v-.84h3.74v-.74h-4.8v-.88h4.8v-.68h-3.63v-.79h3.63v-.71h-3.32v-2.21h3.32v-.61h-4.55v-.9h4.55v-.88h1.13v.88h4.68v.9h-4.68v.61h3.49v2.21h-3.49v.71h3.68v1.47h1.25v.88Zm-6.06-3.8v-.72h-2.25v.72h2.25Zm1.13-.72v.72h2.36v-.72h-2.36Zm0,3.65h2.55v-.68h-2.55v.68Zm2.55,.88h-2.55v.74h2.55v-.74Z"/><path d="M166.01,67.66c1.06,.74,2.6,1.36,4.07,1.63-.25,.24-.58,.7-.74,1-1.56-.42-3.17-1.22-4.29-2.25v2.41h-1.09v-2.33c-1.14,.96-2.76,1.74-4.26,2.16-.17-.29-.48-.71-.73-.95,1.43-.3,2.99-.92,4.04-1.67h-3.71v-.94h4.65v-.73h-3.54v-.84h3.54v-.72h-4.13v-.89h2.46c-.11-.34-.31-.77-.5-1.09l.29-.05h-2.72v-.94h1.77c-.18-.47-.54-1.13-.88-1.62l.97-.32c.37,.52,.79,1.25,.96,1.71l-.61,.23h1.32v-2.05h1.04v2.05h1.19v-2.05h1.06v2.05h1.3l-.46-.14c.29-.48,.66-1.24,.84-1.78l1.15,.29c-.32,.59-.68,1.19-1,1.63h1.73v.94h-2.31c-.23,.41-.47,.8-.67,1.14h2.54v.89h-4.25v.72h3.68v.84h-3.68v.73h4.73v.94h-3.75Zm-3.08-5.25c.22,.35,.43,.78,.52,1.07l-.35,.07h2.53c.18-.32,.37-.76,.53-1.14h-3.23Z"/><path d="M181.03,64.15c-.54,.41-1.1,.77-1.68,1.13h4.65v5.12h-1.15v-.32h-4.52v.37h-1.1v-4.03c-.67,.31-1.36,.6-2.04,.86-.13-.25-.48-.7-.68-.92,1.66-.55,3.25-1.3,4.69-2.21h-4.39v-1h3.97v-1.34h-2.93v-.97h2.93v-1.4h1.1v1.4h2.79v.53c.48-.49,.92-1.01,1.31-1.55l.96,.5c-.76,1.03-1.65,1.97-2.65,2.83h3.14v1h-4.4Zm1.82,2.05h-4.52v1h4.52v-1Zm0,2.93v-1.06h-4.52v1.06h4.52Zm-2.19-5.97c.56-.42,1.08-.88,1.57-1.34h-2.35v1.34h.78Z"/><path d="M200.6,69.06c0,.65-.16,1-.6,1.19-.47,.17-1.21,.19-2.29,.19-.05-.31-.22-.83-.38-1.14,.79,.04,1.62,.04,1.85,.02,.24-.01,.31-.07,.31-.28v-6.5h-7.48v7.88h-1.1v-8.97h3.27c.26-.65,.55-1.44,.7-2.05l1.42,.23c-.26,.61-.58,1.27-.88,1.82h5.19v7.6Zm-6.19-1.13v.84h-1.02v-4.83h4.65v3.99h-3.63Zm0-3.01v2.01h2.6v-2.01h-2.6Z"/><path d="M208.5,60.28c-.08,.25-.18,.62-.24,.86-.34,1.54-.74,4.08-.36,5.82,.17-.44,.4-1.09,.6-1.62l.62,.4c-.31,.91-.66,2.11-.79,2.75-.04,.17-.07,.41-.06,.54,0,.12,.02,.3,.02,.44l-1.03,.12c-.25-.73-.65-2.33-.65-3.8,0-1.94,.28-3.77,.42-4.75,.05-.3,.06-.65,.07-.89l1.39,.13Zm7.78,3.21c-.52,.07-1.15,.13-1.85,.18v.44c0,2.76-.1,4.61-2.54,6.1l-1.1-.86c.41-.18,.95-.5,1.26-.84,1.12-1.03,1.24-2.24,1.24-4.41v-.37c-.48,.01-.96,.02-1.43,.02-.55,0-1.33-.04-1.88-.07v-1.2c.55,.08,1.22,.12,1.86,.12,.46,0,.95-.01,1.43-.02-.01-.72-.04-1.43-.06-1.74-.02-.25-.07-.55-.12-.74h1.38c-.04,.23-.04,.48-.05,.74-.01,.26,0,.96,.01,1.67,.68-.06,1.33-.14,1.86-.25v1.24Z"/></g></g></g><g><path d="M21.24,1.34C18.95,.1,16.46,0,13.44,0H.32V35.38H5.62v-14.66h6.91c3.92,0,6.47-.1,8.68-1.44,3-1.83,4.59-4.91,4.59-8.92,0-4.2-1.62-7.4-4.55-9.02Zm-.79,9.02c0,4.14-1.87,5.6-7.15,5.6H5.62V4.8H13.64c4.9,0,6.81,1.56,6.81,5.56Z"/><path d="M149.28,26.17c-.56,3.77-2.88,5.76-6.7,5.76-4.29,0-6.65-3.32-6.65-9.34s2.47-9.29,6.94-9.29c3.77,0,5.98,1.83,6.22,5.15l.02,.26h4.76v-.29c-.27-5.86-4.47-9.5-10.99-9.5-7.34,0-11.9,5.29-11.9,13.81s4.37,13.61,11.42,13.61,11.07-3.78,11.51-10.11l.02-.3h-4.6l-.03,.23Z"/><path d="M93.86,12.35c-2-2.3-4.61-3.42-7.96-3.42-6.91,0-11.37,5.42-11.37,13.81s4.46,13.62,11.37,13.62c3.15,0,5.82-1.18,7.96-3.51v2.75h4.67V.21h-4.67V12.35Zm.15,10.14c0,6.14-2.57,9.53-7.23,9.53s-7.28-3.36-7.28-8.99c0-6.27,2.57-9.72,7.23-9.72s7.28,3.09,7.28,9.19Z"/><path d="M58.6,9.09c-7.86,0-12.36,5-12.36,13.71s4.52,13.71,12.41,13.71,12.39-5.13,12.39-13.71-4.53-13.71-12.44-13.71Zm7.48,13.71c0,6.05-2.64,9.38-7.43,9.38s-7.53-3.33-7.53-9.38,2.6-9.38,7.53-9.38,7.43,3.33,7.43,9.38Z"/><path d="M42.25,9.35c-3.09,0-5.31,1.34-6.75,4.09v-3.54h-4.66v25.86h4.8v-14.37c0-4.57,2.32-6.99,6.7-6.99,.34,0,.66,0,.98,.04l.31,.04v-5.06l-.24-.03c-.4-.05-.75-.05-1.15-.05Z"/><path d="M165.98,2.83h-4.8v7.07h-3.78v3.92h3.78V30.54c0,4.05,1.54,5.55,5.69,5.55,.89,0,2.04-.13,3.44-.39l.23-.04v-4.16l-.3,.03c-1.11,.1-1.8,.14-2.25,.14-1.61,0-2-.51-2-2.58V13.82h4.55v-3.92h-4.55V2.83Z"/><path d="M121.59,23.82c0,5.47-2.42,8.24-7.19,8.24-3.63,0-4.86-1.6-4.86-6.36V9.89h-4.84V26.58c0,2.69,.08,4.59,1.15,6.24,1.43,2.3,4.2,3.57,7.82,3.57s6.28-1.27,8.1-3.77v3.14h4.61V9.89h-4.8v13.92Z"/></g></g></svg>