<svg id="コンポーネント_14_1" data-name="コンポーネント 14 – 1" xmlns="http://www.w3.org/2000/svg" width="249.584" height="66.33" viewBox="0 0 249.584 66.33">
  <path id="パス_809" data-name="パス 809" d="M-119.32-4.864c0-1.634,1.786-2.66,4.75-2.66a20.67,20.67,0,0,1,3.116.266c.038.532.038.988.038,1.33,0,2.546-.874,3.61-3.306,3.61C-117.382-2.318-119.32-3-119.32-4.864Zm12.73-25.612h-5.738a27.5,27.5,0,0,1,.418,4.446c.038,1.634.038,3.876.038,6.194,0,2.014.152,5.244.266,8.208a21.6,21.6,0,0,0-2.242-.114c-6.992,0-10.374,3.154-10.374,7.106,0,5.168,4.446,6.954,9.88,6.954,6.384,0,8.094-3.192,8.094-6.574,0-.38,0-.836-.038-1.33A29.642,29.642,0,0,1-97.888.38l2.926-4.522a29.837,29.837,0,0,0-11.552-6.5c-.19-2.812-.342-5.852-.418-8.132,3.078-.076,7.562-.266,10.754-.532l-.152-4.522c-3.154.38-7.6.532-10.64.57,0-.988,0-1.9.038-2.774A36.574,36.574,0,0,1-106.59-30.476ZM-56.658-27.4-61.1-31.312a26.411,26.411,0,0,1-2.926,3.23c-2.546,2.47-7.752,6.688-10.754,9.12-3.8,3.192-4.1,5.206-.3,8.436C-71.63-7.562-66.044-2.812-63.726-.418c1.14,1.14,2.242,2.356,3.306,3.534L-55.974-.95c-3.876-3.762-11.1-9.462-13.946-11.856-2.052-1.786-2.09-2.2-.076-3.952,2.546-2.166,7.562-6.042,10.032-8.018C-59.09-25.5-57.836-26.486-56.658-27.4ZM-22-30.59l-4.94-.114c.038.646-.038,1.558-.076,2.28q-.114.969-.228,2.052h-1.52a53.7,53.7,0,0,1-6.992-.532l.114,4.408c1.786.076,4.75.228,6.726.228H-27.7q-.228,2.337-.342,4.788c-5.32,2.508-9.348,7.6-9.348,12.5,0,3.838,2.356,5.51,5.13,5.51a13.563,13.563,0,0,0,5.89-1.52c.152.532.342,1.064.494,1.558l4.37-1.33c-.3-.912-.608-1.862-.874-2.812A29.18,29.18,0,0,0-14.4-15.124,5.651,5.651,0,0,1-10.45-9.8c0,3.724-2.964,7.448-10.3,8.246l2.508,3.99c9.348-1.406,12.5-6.612,12.5-12.008,0-4.408-2.926-7.866-7.334-9.31.228-.722.532-1.52.684-1.938l-4.636-1.1a20.877,20.877,0,0,1-.342,2.28h-.684a25.921,25.921,0,0,0-5.662.684c.038-1.14.152-2.318.266-3.458a104.584,104.584,0,0,0,13.49-1.33l-.038-4.408a66.7,66.7,0,0,1-12.92,1.672c.114-.76.266-1.444.38-2.09C-22.382-29.146-22.23-29.83-22-30.59ZM-32.908-5.966c0-2.166,1.9-5.054,4.75-6.992a52.951,52.951,0,0,0,.8,7.6A8.1,8.1,0,0,1-31.16-4.1C-32.376-4.1-32.908-4.75-32.908-5.966Zm9.044-8.854v-.114a18.944,18.944,0,0,1,5.244-.836,23.4,23.4,0,0,1-4.788,7.258A39.972,39.972,0,0,1-23.864-14.82ZM17.67-4.484c0-.95.912-1.824,2.356-1.824,2.052,0,3.458,1.6,3.686,4.066a19.838,19.838,0,0,1-2.2.114C19.228-2.128,17.67-3.078,17.67-4.484ZM11.21-28.956l.152,4.94c.874-.114,2.09-.228,3.116-.3,2.014-.114,7.258-.342,9.2-.38-1.862,1.634-5.814,4.826-7.942,6.574-2.242,1.862-6.84,5.738-9.538,7.9L9.652-6.65c4.066-4.636,7.866-7.714,13.68-7.714,4.484,0,7.9,2.318,7.9,5.738a5.507,5.507,0,0,1-3.154,5.168c-.532-3.61-3.382-6.5-8.094-6.5-4.028,0-6.8,2.85-6.8,5.928,0,3.8,3.99,6.232,9.272,6.232,9.2,0,13.756-4.75,13.756-10.754,0-5.548-4.9-9.576-11.362-9.576a14.844,14.844,0,0,0-3.61.418c2.394-1.9,6.384-5.244,8.436-6.688.874-.646,1.786-1.178,2.66-1.748l-2.47-3.382a16.6,16.6,0,0,1-2.888.418c-2.166.19-10.3.342-12.312.342A26.37,26.37,0,0,1,11.21-28.956ZM57.456-7.486H73.948v1.672H57.456Zm0-4.18H73.948v1.634H57.456Zm0-4.218H73.948v1.634H57.456ZM78.546-3.078v-15.5H66.158a10.1,10.1,0,0,0,3.724-4.674H73.72v3.99h4.028v-3.99h4.788v-3.268H70.642c.038-.38.038-.76.038-1.1v-.19A59.32,59.32,0,0,0,81.054-29.45l-2.736-2.7a58.65,58.65,0,0,1-8.512,1.558l-3.04-.722v3.458a6.879,6.879,0,0,1-1.33,4.408v-3.078H54.986c.038-.38.038-.8.038-1.14v-.19a48.671,48.671,0,0,0,9.652-1.634L61.9-32.148a46.413,46.413,0,0,1-7.9,1.52L51.11-31.35v3.458a10.313,10.313,0,0,1-3.23,8.132,13.027,13.027,0,0,1,2.964,2.812,12.7,12.7,0,0,0,3.648-6.308h3.344V-19.3h4.028v-3.952h3.42a9.36,9.36,0,0,1-2.2,1.9A10.8,10.8,0,0,1,65.7-18.582H53.086v15.5H58.71A44.621,44.621,0,0,1,48.26.114,45.833,45.833,0,0,1,51.6,3.42,47.087,47.087,0,0,0,63.46-1.558L60-3.078H71.1L67.678-1.1a74.927,74.927,0,0,1,9.88,4.484L82.8,1.368C80.218.114,75.848-1.71,71.972-3.078Zm25.118-24.206v2.052H97.85v-2.052ZM97.85-20.026v-2.166h5.814v2.166Zm10.032,3.42V-30.742H93.366V3.306H97.85V-16.606Zm4.37,6.346v4.484h-6.27V-10.26Zm4.218,8.208V-13.984H101.764V.076h4.218V-2.052ZM114.8-19.988v-2.2h6v2.2Zm6-7.334v2.09h-6v-2.09Zm4.56-3.42H110.5v14.174h10.3v14.4c0,.684-.266.912-.988.912-.722.038-3.306.076-5.51-.076a16.181,16.181,0,0,1,1.52,4.636c3.5,0,5.89-.114,7.448-.874,1.6-.722,2.09-2.014,2.09-4.522Z" transform="translate(124.222 32.148)" fill="#0077c0"/>
  <path id="パス_72" data-name="パス 72" d="M68.182.75H0V-.75H68.182Z" transform="translate(96.063 65.58)" fill="#1b66a2"/>
</svg>
