<svg id="コンポーネント_17_1" data-name="コンポーネント 17 – 1" xmlns="http://www.w3.org/2000/svg" width="345.136" height="177.123" viewBox="0 0 345.136 177.123">
  <line id="線_245" data-name="線 245" x2="103.308" transform="translate(117.28 176.123)" fill="none" stroke="#28669f" stroke-width="2"/>
  <path id="パス_850" data-name="パス 850" d="M-166.632-40.651v6.837c1.643-.106,3.869-.212,5.724-.212h21.253c1.855,0,3.922.106,5.724.212v-6.837a41.522,41.522,0,0,1-5.724.371h-21.306A40.762,40.762,0,0,1-166.632-40.651Zm-6.148,13.568v6.943c1.484-.106,3.5-.212,5.088-.212h14.575c-.212,4.452-1.113,8.427-3.286,11.713A22.016,22.016,0,0,1-166-1.06l6.2,4.5A25.431,25.431,0,0,0-149.142-6.731a33.624,33.624,0,0,0,3.392-13.621h12.773c1.484,0,3.5.053,4.823.159v-6.89a40.082,40.082,0,0,1-4.823.318h-34.715C-169.335-26.765-171.19-26.924-172.78-27.083ZM-85.966-41.34-93.7-43.884a25.5,25.5,0,0,1-2.385,5.565,46.667,46.667,0,0,1-16.536,17.066l5.936,4.4A60.411,60.411,0,0,0-93.333-29.68H-78.44a37.676,37.676,0,0,1-7.526,14.469C-90.577-9.964-96.46-5.353-107.325-2.12l6.254,5.618c9.964-3.922,16.377-8.8,21.412-14.946a55.3,55.3,0,0,0,9.222-17.7,21.22,21.22,0,0,1,1.749-3.816l-5.406-3.339a17,17,0,0,1-4.611.636H-89.358c.053-.106.106-.159.159-.265C-88.563-37.1-87.185-39.485-85.966-41.34Zm71.6,2.544-8.268-2.12c-1.431,7.579-4.929,16.748-10.017,22.9A45.762,45.762,0,0,1-52.788-4.24l6.042,6.2c8.162-3.286,15.582-9.752,20.087-15.37,4.293-5.353,7.738-13.356,9.964-19.451A62.019,62.019,0,0,1-14.363-38.8ZM9.063-37.577c.106,1.484.106,3.657.106,5.141V-6.519C9.169-3.975,9.01.636,9.01.9h7.314c0-.159,0-1.378-.053-2.862H41.817c0,1.537-.053,2.756-.053,2.862h7.314c0-.212-.106-5.3-.106-7.367v-25.97c0-1.59,0-3.551.106-5.141-1.908.106-3.922.106-5.247.106H14.681C13.25-37.471,11.236-37.524,9.063-37.577Zm7.208,6.837h25.6V-8.745h-25.6ZM102.025-40.7l-4.452,1.855a47.874,47.874,0,0,1,4.664,8.321l4.611-1.961A90.128,90.128,0,0,0,102.025-40.7Zm7.261-2.544-4.505,1.855a50.928,50.928,0,0,1,4.982,8.056l4.505-2.014A68.156,68.156,0,0,0,109.286-43.248ZM78.97-41.711l-3.816,5.83c3.5,1.961,9.01,5.512,11.978,7.579l3.922-5.83C88.3-36.093,82.468-39.8,78.97-41.711ZM69.165-4.081,73.14,2.862a66.655,66.655,0,0,0,17.7-6.519c8.639-5.035,16.165-11.713,21.041-19.08L107.8-29.945C103.615-22.366,96.195-15.1,87.185-10.07A56.837,56.837,0,0,1,69.165-4.081Zm1.643-25.546L66.992-23.8c3.551,1.908,9.063,5.459,12.084,7.579l3.869-5.936C80.242-24.062,74.412-27.719,70.808-29.627Zm58.353,5.088v8.321c1.961-.159,5.512-.265,8.533-.265h28.461c2.226,0,4.929.212,6.2.265v-8.321c-1.378.106-3.71.318-6.2.318H137.694C134.938-24.221,131.069-24.38,129.161-24.539ZM-105.947,45.893a3.076,3.076,0,0,1,3.074-3.074A3.076,3.076,0,0,1-99.8,45.893a3.065,3.065,0,0,1-3.074,3.021A3.065,3.065,0,0,1-105.947,45.893Zm-3.286,0a6.368,6.368,0,0,0,6.36,6.307,6.368,6.368,0,0,0,6.36-6.307,6.379,6.379,0,0,0-6.36-6.36A6.379,6.379,0,0,0-109.233,45.893Zm-28.991,21.624a63.856,63.856,0,0,1-8.268,14.734l7.42,3.127a72.87,72.87,0,0,0,7.844-15.158,123.4,123.4,0,0,0,4.505-15.953c.212-1.166.795-3.763,1.272-5.3l-7.738-1.59A76.367,76.367,0,0,1-138.224,67.517Zm26.182-1.113a163.763,163.763,0,0,1,5.512,18.709l7.844-2.544c-1.484-5.247-4.293-13.727-6.148-18.5-2.014-5.141-5.671-13.3-7.844-17.384l-7.049,2.279A148.47,148.47,0,0,1-112.042,66.4Zm29.468-6.943v8.321c1.961-.159,5.512-.265,8.533-.265H-45.58c2.226,0,4.929.212,6.2.265V59.461c-1.378.106-3.71.318-6.2.318H-74.041C-76.8,59.779-80.666,59.62-82.574,59.461ZM-9.858,78.912a58.212,58.212,0,0,1-.53,7.42H-2.12c-.212-2.173-.477-5.883-.477-7.42v-15a153.084,153.084,0,0,1,19.133,7.9L19.557,64.5A173.1,173.1,0,0,0-2.6,56.281V48.437a57.623,57.623,0,0,1,.477-6.36h-8.268a36.791,36.791,0,0,1,.53,6.36ZM58.724,48.278v5.83H44.944c-2.12,0-4.293-.212-5.883-.371v7.314c1.643-.106,3.763-.265,6.1-.265H58.671c-.424,8.957-3.975,16.589-14.363,21.306l6.572,4.876c11.448-6.837,14.787-15.529,15.105-26.182H77.91c2.12,0,4.717.159,5.83.212V53.79c-1.113.106-3.339.318-5.777.318H66.038V48.331a40.881,40.881,0,0,1,.424-6.254H58.035A26.481,26.481,0,0,1,58.724,48.278Zm41.552,11.183v8.321c1.961-.159,5.512-.265,8.533-.265H137.27c2.226,0,4.929.212,6.2.265V59.461c-1.378.106-3.71.318-6.2.318H108.809C106.053,59.779,102.184,59.62,100.276,59.461Z" transform="translate(172.78 43.885)" fill="#0077c0"/>
</svg>
