<svg id="コンポーネント_15_1" data-name="コンポーネント 15 – 1" xmlns="http://www.w3.org/2000/svg" width="465.576" height="66.064" viewBox="0 0 465.576 66.064">
  <path id="パス_810" data-name="パス 810" d="M-228.532-29.146v4.9c1.178-.076,2.774-.152,4.1-.152h15.238c1.33,0,2.812.076,4.1.152v-4.9a29.771,29.771,0,0,1-4.1.266h-15.276A29.226,29.226,0,0,1-228.532-29.146Zm-4.408,9.728v4.978c1.064-.076,2.508-.152,3.648-.152h10.45a16.33,16.33,0,0,1-2.356,8.4A15.785,15.785,0,0,1-228.076-.76l4.446,3.23a18.233,18.233,0,0,0,7.638-7.3,24.107,24.107,0,0,0,2.432-9.766h9.158c1.064,0,2.508.038,3.458.114v-4.94a28.738,28.738,0,0,1-3.458.228h-24.89C-230.47-19.19-231.8-19.3-232.94-19.418ZM-170.7-29.64l-5.548-1.824a18.282,18.282,0,0,1-1.71,3.99A33.46,33.46,0,0,1-189.81-15.238l4.256,3.154a43.314,43.314,0,0,0,9.576-9.2H-165.3a27.013,27.013,0,0,1-5.4,10.374C-174-7.144-178.22-3.838-186.01-1.52l4.484,4.028C-174.382-.3-169.784-3.8-166.174-8.208A39.649,39.649,0,0,0-159.562-20.9a15.214,15.214,0,0,1,1.254-2.736l-3.876-2.394a12.185,12.185,0,0,1-3.306.456h-7.638c.038-.076.076-.114.114-.19C-172.558-26.6-171.57-28.31-170.7-29.64Zm51.338,1.824-5.928-1.52c-1.026,5.434-3.534,12.008-7.182,16.416a32.81,32.81,0,0,1-14.44,9.88l4.332,4.446a38,38,0,0,0,14.4-11.02c3.078-3.838,5.548-9.576,7.144-13.946A44.463,44.463,0,0,1-119.358-27.816Zm16.8.874c.076,1.064.076,2.622.076,3.686V-4.674c0,1.824-.114,5.13-.114,5.32h5.244c0-.114,0-.988-.038-2.052h18.316c0,1.1-.038,1.976-.038,2.052h5.244c0-.152-.076-3.8-.076-5.282v-18.62c0-1.14,0-2.546.076-3.686-1.368.076-2.812.076-3.762.076h-20.9C-99.56-26.866-101-26.9-102.562-26.942Zm5.168,4.9H-79.04V-6.27H-97.394Zm61.484-7.144-3.192,1.33a34.324,34.324,0,0,1,3.344,5.966l3.306-1.406A64.619,64.619,0,0,0-35.91-29.184Zm5.206-1.824-3.23,1.33A36.514,36.514,0,0,1-30.362-23.9l3.23-1.444A48.866,48.866,0,0,0-30.7-31.008Zm-21.736,1.1-2.736,4.18c2.508,1.406,6.46,3.952,8.588,5.434l2.812-4.18C-45.752-25.878-49.932-28.538-52.44-29.906Zm-7.03,26.98,2.85,4.978A47.79,47.79,0,0,0-43.928-2.622,45.838,45.838,0,0,0-28.842-16.3l-2.926-5.168A38.468,38.468,0,0,1-46.55-7.22,40.751,40.751,0,0,1-59.47-2.926Zm1.178-18.316-2.736,4.18c2.546,1.368,6.5,3.914,8.664,5.434l2.774-4.256C-51.528-17.252-55.708-19.874-58.292-21.242Zm41.838,3.648v5.966c1.406-.114,3.952-.19,6.118-.19H10.07c1.6,0,3.534.152,4.446.19v-5.966c-.988.076-2.66.228-4.446.228H-10.336C-12.312-17.366-15.086-17.48-16.454-17.594Zm70.262-9.728a2.206,2.206,0,0,1,2.2-2.2,2.206,2.206,0,0,1,2.2,2.2,2.2,2.2,0,0,1-2.2,2.166A2.2,2.2,0,0,1,53.808-27.322Zm-2.356,0a4.566,4.566,0,0,0,4.56,4.522,4.566,4.566,0,0,0,4.56-4.522,4.573,4.573,0,0,0-4.56-4.56A4.573,4.573,0,0,0,51.452-27.322Zm-20.786,15.5A45.783,45.783,0,0,1,24.738-1.254L30.058.988A52.246,52.246,0,0,0,35.682-9.88a88.473,88.473,0,0,0,3.23-11.438c.152-.836.57-2.7.912-3.8l-5.548-1.14A54.754,54.754,0,0,1,30.666-11.818Zm18.772-.8A117.414,117.414,0,0,1,53.39.8l5.624-1.824c-1.064-3.762-3.078-9.842-4.408-13.262-1.444-3.686-4.066-9.538-5.624-12.464l-5.054,1.634A106.45,106.45,0,0,1,49.438-12.616Zm21.128-4.978v5.966c1.406-.114,3.952-.19,6.118-.19H97.09c1.6,0,3.534.152,4.446.19v-5.966c-.988.076-2.66.228-4.446.228H76.684C74.708-17.366,71.934-17.48,70.566-17.594ZM122.7-3.648a41.738,41.738,0,0,1-.38,5.32h5.928c-.152-1.558-.342-4.218-.342-5.32V-14.4A109.758,109.758,0,0,1,141.626-8.74l2.166-5.244a124.11,124.11,0,0,0-15.884-5.89V-25.5a41.317,41.317,0,0,1,.342-4.56h-5.928a26.379,26.379,0,0,1,.38,4.56Zm49.172-21.964v4.18h-9.88c-1.52,0-3.078-.152-4.218-.266v5.244c1.178-.076,2.7-.19,4.37-.19h9.69c-.3,6.422-2.85,11.894-10.3,15.276l4.712,3.5c8.208-4.9,10.6-11.134,10.83-18.772h8.55c1.52,0,3.382.114,4.18.152V-21.66c-.8.076-2.394.228-4.142.228h-8.55v-4.142a29.31,29.31,0,0,1,.3-4.484H171.38A18.986,18.986,0,0,1,171.874-25.612Zm29.792,8.018v5.966c1.406-.114,3.952-.19,6.118-.19H228.19c1.6,0,3.534.152,4.446.19v-5.966c-.988.076-2.66.228-4.446.228H207.784C205.808-17.366,203.034-17.48,201.666-17.594Z" transform="translate(232.94 31.882)" fill="#0077c0"/>
  <path id="パス_72" data-name="パス 72" d="M68.182.75H0V-.75H68.182Z" transform="translate(208.826 65.314)" fill="#28669f"/>
</svg>
