<svg xmlns="http://www.w3.org/2000/svg" width="332.15" height="96.754" viewBox="0 0 332.15 96.754">
  <path id="パス_850" data-name="パス 850" d="M-137.816-38.448a3.018,3.018,0,0,1-.829.991,1.845,1.845,0,0,1-1.089.309,2.807,2.807,0,0,1-1.479-.5q-.8-.5-1.9-1.121a15.659,15.659,0,0,0-2.584-1.121,10.859,10.859,0,0,0-3.494-.5,10.429,10.429,0,0,0-3.185.439,6.689,6.689,0,0,0-2.291,1.219,4.87,4.87,0,0,0-1.381,1.869,6.134,6.134,0,0,0-.455,2.389,4.154,4.154,0,0,0,.926,2.762,7.734,7.734,0,0,0,2.454,1.885,22.772,22.772,0,0,0,3.478,1.4q1.95.618,4,1.316a37.652,37.652,0,0,1,4,1.625,13.8,13.8,0,0,1,3.477,2.34,10.605,10.605,0,0,1,2.454,3.461,12.02,12.02,0,0,1,.926,4.972,16.2,16.2,0,0,1-1.089,5.964,13.759,13.759,0,0,1-3.185,4.843,15,15,0,0,1-5.119,3.25A18.845,18.845,0,0,1-151.109.52a22.321,22.321,0,0,1-4.42-.439,23.267,23.267,0,0,1-4.176-1.251,22.372,22.372,0,0,1-3.754-1.95,18.1,18.1,0,0,1-3.12-2.535l2.568-4.192a2.74,2.74,0,0,1,.845-.764,2.13,2.13,0,0,1,1.1-.309,3.1,3.1,0,0,1,1.755.666q.943.666,2.242,1.479A17.651,17.651,0,0,0-155.025-7.3a11.685,11.685,0,0,0,4.176.666A8.572,8.572,0,0,0-145.064-8.4a6.36,6.36,0,0,0,2.048-5.086,4.723,4.723,0,0,0-.926-3.022,7.478,7.478,0,0,0-2.454-1.966,18.321,18.321,0,0,0-3.478-1.349q-1.95-.553-3.965-1.2a34.191,34.191,0,0,1-3.965-1.56,12.845,12.845,0,0,1-3.478-2.372,10.8,10.8,0,0,1-2.454-3.656,13.934,13.934,0,0,1-.926-5.411,12.809,12.809,0,0,1,1.024-5.005,12.923,12.923,0,0,1,2.974-4.323,14.569,14.569,0,0,1,4.81-3.022,17.664,17.664,0,0,1,6.565-1.137,21.922,21.922,0,0,1,7.67,1.3,17.315,17.315,0,0,1,5.98,3.64Zm32.4-1.593v13.033h16.445v6.728h-16.445V-6.988h20.865V0h-29.64V-47h29.64v6.955Zm55.8,15.405a13.531,13.531,0,0,0,4.306-.618,8.325,8.325,0,0,0,3.023-1.706,6.853,6.853,0,0,0,1.771-2.584,8.934,8.934,0,0,0,.585-3.282,6.674,6.674,0,0,0-2.356-5.493q-2.356-1.917-7.2-1.917h-5.59v15.6ZM-27.121,0h-7.9a3.464,3.464,0,0,1-3.25-1.755L-48.149-16.8a3.467,3.467,0,0,0-1.219-1.2,4.27,4.27,0,0,0-1.966-.357h-3.738V0h-8.742V-47h14.333A29.8,29.8,0,0,1-41.275-46a15.7,15.7,0,0,1,5.622,2.779,10.87,10.87,0,0,1,3.234,4.274,14.054,14.054,0,0,1,1.04,5.476,14.191,14.191,0,0,1-.7,4.485,12.98,12.98,0,0,1-2.015,3.835,13.58,13.58,0,0,1-3.25,3.022,16.3,16.3,0,0,1-4.4,2.048,8.544,8.544,0,0,1,1.56,1.154,8.2,8.2,0,0,1,1.3,1.576ZM29.786-47,10.806,0h-7.9l-18.98-47h7.02a2.944,2.944,0,0,1,1.852.553,3.381,3.381,0,0,1,1.073,1.43L4.956-16.347q.553,1.4,1.056,3.071t.959,3.494q.39-1.82.845-3.494a29.209,29.209,0,0,1,1.008-3.071L19.841-45.013a3.077,3.077,0,0,1,1.024-1.365A2.877,2.877,0,0,1,22.734-47ZM56.436,0H47.661V-47h8.775Zm55.77-11.083a1.743,1.743,0,0,1,1.268.553l3.445,3.737a18.921,18.921,0,0,1-7.036,5.427A24.247,24.247,0,0,1,99.856.52a23.692,23.692,0,0,1-9.409-1.788A20.738,20.738,0,0,1,83.314-6.24a21.769,21.769,0,0,1-4.534-7.605A28.546,28.546,0,0,1,77.2-23.5a26.869,26.869,0,0,1,1.69-9.7,22.3,22.3,0,0,1,4.761-7.589,21.548,21.548,0,0,1,7.329-4.956,24.308,24.308,0,0,1,9.425-1.771,23.15,23.15,0,0,1,9.116,1.69,21.718,21.718,0,0,1,6.776,4.42l-2.925,4.063a2.654,2.654,0,0,1-.666.683,1.888,1.888,0,0,1-1.121.292,2.143,2.143,0,0,1-1.007-.276q-.52-.276-1.138-.682t-1.43-.894a11.77,11.77,0,0,0-1.885-.894,15.385,15.385,0,0,0-2.486-.683,17.177,17.177,0,0,0-3.266-.276,14.5,14.5,0,0,0-5.769,1.121,12.536,12.536,0,0,0-4.5,3.25,14.983,14.983,0,0,0-2.925,5.2,21.791,21.791,0,0,0-1.04,7,20.586,20.586,0,0,0,1.121,7.052,15.506,15.506,0,0,0,3.039,5.2,12.976,12.976,0,0,0,4.518,3.234,13.964,13.964,0,0,0,5.59,1.121,24.35,24.35,0,0,0,3.234-.2,13.728,13.728,0,0,0,2.665-.618,11.831,11.831,0,0,0,2.308-1.089,14.418,14.418,0,0,0,2.161-1.641,3.081,3.081,0,0,1,.683-.471A1.651,1.651,0,0,1,112.206-11.083Zm32.5-28.958v13.033h16.445v6.728H144.706V-6.988h20.865V0h-29.64V-47h29.64v6.955Z" transform="translate(166.579 47.515)" fill="#0077c0"/>
  <path id="線_1" data-name="線 1" d="M103.308,1H0V-1H103.308Z" transform="translate(111.079 95.754)" fill="#28669f"/>
</svg>
