<svg id="コンポーネント_19_1" data-name="コンポーネント 19 – 1" xmlns="http://www.w3.org/2000/svg" width="297.16" height="64.974" viewBox="0 0 297.16 64.974">
  <path id="パス_813" data-name="パス 813" d="M-114.95-18.924a46.277,46.277,0,0,0-6.118-6.118,73.981,73.981,0,0,0,5.4-5.852l-4.712-1.292a66.277,66.277,0,0,1-6.194,7.22,45.741,45.741,0,0,1,7.182,7.828ZM-120.612-6.65a75.718,75.718,0,0,0,5.206-8.018l-4.94-1.216a38.97,38.97,0,0,1-4.37,8.018Zm-5.282-12.806a41.429,41.429,0,0,0-5.472-5.852,68.324,68.324,0,0,0,4.94-5.7l-4.712-1.178a61.987,61.987,0,0,1-5.586,6.916,42.515,42.515,0,0,1,6.384,7.486Zm-10.678.57a40.9,40.9,0,0,0-5.206-6.194,66.544,66.544,0,0,0,4.674-5.966l-4.636-1.14A60.8,60.8,0,0,1-147.022-25a42.256,42.256,0,0,1,6.042,7.79Zm-5.776,2.774a15.436,15.436,0,0,1-5.32,7.41l3.762,2.584c2.66-2.09,4.332-5.32,5.51-8.4Zm8.322-1.482c-.532,8.816-1.254,14.212-14.706,16.8a14.556,14.556,0,0,1,2.508,4.142c8.816-1.938,13-5.168,15.086-9.69,2.508,5.586,6.916,8.626,15.428,9.8A16.139,16.139,0,0,1-113.126-.8C-123.842-1.786-127.68-6-129.238-14.554c.076-.988.152-1.976.228-3.04ZM-79.876-4.18v2.888H-94.658V-4.18ZM-99.028,3.306h4.37V2.242h14.782V3.268h4.6V-7.714h-23.75Zm.076-26.182V-25h23.028v2.128h-9.348v-1.976h-4.522v1.976Zm13.68,9.994v-1.672H-73.8V-17.9H-85.272v-1.558h9.69v-1.71h4.294v-7.79H-85.2v-3.23h-4.636v3.23H-103.36v7.79h4.37v1.71h9.2V-17.9h-10.792v3.344h10.792v1.672h-14.44v3.648h33.82v-3.648Zm46.74,3.8h-4.18v-3.306h4.18Zm6.308-3.306v-.19A19.9,19.9,0,0,0-28.2-10.07a13.664,13.664,0,0,1,2.812-3.42,17.9,17.9,0,0,1-4.446-2.584,27.908,27.908,0,0,0,3.8-2.584l-2.926-2.2a30.11,30.11,0,0,1-3.382,2.508c-.456-.494-.874-1.026-1.292-1.558a26.945,26.945,0,0,0,3.914-2.85l-2.85-2.052a34.3,34.3,0,0,1-2.812,2.28,29.151,29.151,0,0,1-1.254-2.736l-3.686,1.026a29.446,29.446,0,0,0,4.56,8.17h-9.424a24.853,24.853,0,0,0,3.838-7.068l-2.508-1.216-.684.152h-7.676v3.344h5.738a17.467,17.467,0,0,1-1.52,2.2A29.647,29.647,0,0,0-51.072-20.6l-2.318,2.508A28.247,28.247,0,0,1-50.5-16.074a19.314,19.314,0,0,1-4.1,2.736c.076-1.14.076-2.2.076-3.192v-9.12h27.778v-3.762H-40.166v-2.736h-4.712v2.736h-13.87v12.844c0,5.32-.228,12.312-3.192,17.138a14.725,14.725,0,0,1,3.458,2.66c2.7-4.218,3.61-10.488,3.876-15.846A15.853,15.853,0,0,1-52.63-9.8a25.149,25.149,0,0,0,3.838-2.584h1.9v3.306h-6.156v3.838h5.776c-.722,2.128-2.584,4.066-7.334,5.434A13.06,13.06,0,0,1-52.06,3.5c6.46-1.938,8.55-5.168,9.158-8.74h4.37v3.382c0,3.838.8,5.054,4.408,5.054h3.458c2.774,0,3.838-1.292,4.218-5.624A11.636,11.636,0,0,1-30.1-3.99c-.114,2.926-.3,3.458-1.026,3.458h-2.242c-.8,0-.912-.114-.912-1.33V-5.244h6.422V-9.082h-6.422v-3.306ZM4.712-26.258l-1.026.8c.684.342,1.406.722,2.128,1.1-3.5.076-6.992.152-10.222.19.494-.646,1.026-1.368,1.52-2.09Zm-19.8,5.852c6.65-.19,16.454-.532,25.764-.912.836.57,1.6,1.14,2.2,1.634l2.926-2.47a64.961,64.961,0,0,0-6.536-4.1h7.752v-3.534H2.394v-2.394H-2.2v2.394H-16.72v3.534h8.778c-.418.722-.874,1.482-1.33,2.166-2.242.038-4.294.076-6.042.076Zm7.79,5.738h5.054v1.786H-7.3Zm14.478,0v1.786H2.052v-1.786ZM16.91-4.522V-8.056H2.242v-1.52h9.272v-5.092h5.4v-3.306h-5.4v-2.014H7.182v2.014H2.052v-2.318H-2.242v2.318H-7.3v-2.014h-4.18v2.014h-5.4v3.306h5.4v5.092h9.158v1.52H-16.872v3.534h10.6A39.634,39.634,0,0,1-17.746-.38,22,22,0,0,1-15.01,3.154,36.421,36.421,0,0,0-2.318-3.268V3.268h4.56V-3.268A39.415,39.415,0,0,0,15.086,3.078,17.1,17.1,0,0,1,17.9-.532a45.371,45.371,0,0,1-11.59-3.99ZM40.242-15.428l-3.5.988v-6.118H39.9v-4.294H36.746v-7.3H32.6v7.3H30.818c.228-1.52.418-3,.57-4.522l-3.762-.646c-.342,4.484-.988,9.234-2.166,12.236a33.061,33.061,0,0,1,3.192,2.09,34.536,34.536,0,0,0,1.406-4.864H32.6V-13.3c-2.584.722-4.9,1.33-6.8,1.748l1.1,4.294c1.748-.456,3.648-1.064,5.7-1.672V3.344h4.142V-10.184c1.406-.418,2.736-.874,4.1-1.254ZM47.006-26.3c.532-1.672,1.026-3.382,1.406-5.13l-4.1-.76c-1.14,5.586-3.23,11.02-6.232,14.326a25.785,25.785,0,0,1,3.42,2.546,28.3,28.3,0,0,0,3.914-6.8h1.938c-1.672,5.51-4.636,11.134-8.4,14.1a15.971,15.971,0,0,1,3.458,2.546c3.838-3.648,7.03-10.45,8.7-16.644H52.9C51-13.224,47.2-4.6,41.116-.228A16.859,16.859,0,0,1,44.8,2.394C50.92-2.66,54.834-12.54,56.7-22.116h.19C56.278-8.474,55.594-3.306,54.644-2.09a1.587,1.587,0,0,1-1.406.722,30.824,30.824,0,0,1-3.382-.152A12.632,12.632,0,0,1,51.11,2.888,21.728,21.728,0,0,0,55.4,2.774,4.163,4.163,0,0,0,58.368.8C59.812-1.1,60.5-7.3,61.218-24.244c.038-.532.076-2.052.076-2.052ZM85.8-14.44v-1.9h3.838v1.9Zm0-6.65h3.838v1.824H85.8Zm12.2,0v1.824H94.05V-21.09Zm0,6.65H94.05v-1.9H98ZM89.642-2.432H94.05V-5.966h10.412V-9.652H94.05v-1.672h8.284v-12.92H94.05V-25.8h9.956V-29.45H94.05v-2.7H89.642v2.7H80.18V-25.8h9.462v1.558H81.7v12.92h7.942v1.672H79.724v3.686h9.918ZM79.534-25.194a33.022,33.022,0,0,0-5.966-6.042L70.11-28.652a29.612,29.612,0,0,1,5.7,6.308Zm-1.026,7.752h-8.55V-13.3h4.256v8.284A45.539,45.539,0,0,1,69.5-1.52L71.63,2.964c1.938-1.634,3.5-3.078,5.016-4.56,2.28,2.926,5.32,4.028,9.842,4.218,4.636.19,12.692.114,17.4-.114A20.6,20.6,0,0,1,105.3-1.9c-5.244.418-14.212.532-18.772.342C82.65-1.71,79.99-2.774,78.508-5.32Zm57.608-6.346h-4.332V-25.27h4.332Zm0,4.18h-4.332v-1.558h4.332Zm0,4.256h-4.332v-1.672h4.332ZM125.1-16.416l-3.382.95v-5.4h3.458V-22.04c.532.608,1.064,1.216,1.368,1.634.456-.38.912-.836,1.368-1.292v9.5h20.14v-3.154h-7.9v-1.672h6.46v-2.584h-6.46v-1.558h6.46v-2.622h-6.46V-25.27h7.562v-3.116H140.98c.494-.874,1.026-1.824,1.558-2.774l-4.37-.988a34.141,34.141,0,0,1-1.444,3.762h-4.256a27.066,27.066,0,0,0,1.178-2.888l-3.876-.95a19.087,19.087,0,0,1-4.6,7.524V-25h-3.458v-7.144h-4.1V-25h-3.99v4.142h3.99v6.536c-1.71.456-3.306.836-4.6,1.14L114-8.854c1.14-.3,2.356-.646,3.61-1.026v8.4c0,.494-.19.646-.646.646a30.7,30.7,0,0,1-3.154-.038,16.809,16.809,0,0,1,1.14,4.18c2.508.038,4.1-.114,5.282-.836,1.14-.722,1.482-1.862,1.482-3.952v-9.652c1.33-.38,2.66-.8,3.952-1.216ZM141.74-7.638c.228-1.026.456-2.052.646-3.04H125.78v3.572H130.3c-.684,3.686-2.736,5.928-6.65,7.258A17.4,17.4,0,0,1,126.5,3.42c4.788-2.014,7.3-5.168,8.284-10.526h2.964c-.3,1.292-.646,2.546-.95,3.572l3.838.57c.114-.456.266-.95.38-1.482h3.04c-.266,2.28-.608,3.42-1.064,3.838a1.921,1.921,0,0,1-1.33.342c-.76,0-2.47-.038-4.218-.228A8.355,8.355,0,0,1,138.7,3.23a37.615,37.615,0,0,0,4.75-.038,4.237,4.237,0,0,0,2.926-1.178c.988-.988,1.52-3.268,1.9-8.056a13.369,13.369,0,0,0,.152-1.6Z" transform="translate(148.732 32.224)" fill="#0077c0"/>
  <path id="パス_72" data-name="パス 72" d="M0,0H68" transform="translate(114.732 64.224)" fill="none" stroke="#1b66a2" stroke-width="1.5"/>
</svg>
