<svg id="コンポーネント_24_1" data-name="コンポーネント 24 – 1" xmlns="http://www.w3.org/2000/svg" width="758.556" height="534.255" viewBox="0 0 758.556 534.255">
  <path id="パス_822" data-name="パス 822" d="M-64.974-7.072l-2.808.7V-18.824h-2.262v13c-.676.182-1.3.312-1.846.442l.546,2.444c1.846-.494,4.134-1.118,6.37-1.742V2.028h2.34V-21.684h-2.34ZM-50.18-20.02l-.442.078H-61.594v2.392h10.27A31.131,31.131,0,0,1-54.886-7.54a34.331,34.331,0,0,1-3.3-9.854l-2.288.416A38.814,38.814,0,0,0-56.42-5.226,17.7,17.7,0,0,1-62.4-.078,8.6,8.6,0,0,1-60.71,2a20.78,20.78,0,0,0,5.772-4.94,18,18,0,0,0,5.694,4.966,9.507,9.507,0,0,1,1.716-2.08A15.842,15.842,0,0,1-53.378-5.1a35.193,35.193,0,0,0,4.81-14.456Zm14.066,9.23h5.564v1.508h-5.564Zm5.564-4.732h-5.564v-1.43h5.564Zm0,3.12h-5.564v-1.482h5.564Zm12.194,8.32v-1.95h-10.4V-7.41h9.7V-9.282h-9.178V-10.79h7.2V-12.4h-7.2v-1.482h7.15v-1.638h-7.15v-1.43h8.294v-1.924h-8.164c.494-.78.988-1.69,1.456-2.6l-2.678-.338A22.86,22.86,0,0,1-30.6-18.876h-4.42c.572-.832,1.066-1.69,1.534-2.5l-2.522-.494a21.618,21.618,0,0,1-6.11,7.358A8.513,8.513,0,0,1-40.4-12.87a23.365,23.365,0,0,0,2.028-1.872V-7.41h7.228v1.378h-10.3v1.95h8.424a29,29,0,0,1-9.126,3.9,14.078,14.078,0,0,1,1.56,1.976,29.3,29.3,0,0,0,9.438-4.836v5.07h2.392V-3.094a30.015,30.015,0,0,0,9.464,4.758A9.815,9.815,0,0,1-17.81-.312a29.126,29.126,0,0,1-8.97-3.77ZM-7.878-19.266v2.678c.7-.052,1.664-.1,2.548-.1H3.432c.832,0,1.768.052,2.6.1v-2.678a21.8,21.8,0,0,1-2.6.156H-5.356A19.606,19.606,0,0,1-7.878-19.266Zm-3.068,6.578v2.7c.728-.052,1.586-.078,2.366-.078h7.514a12.018,12.018,0,0,1-1.56,6.136A10.827,10.827,0,0,1-7.436-.052l2.392,1.768A12.714,12.714,0,0,0,.13-3.146a15.959,15.959,0,0,0,1.612-6.916H8.45c.676,0,1.56.026,2.184.052v-2.678a16.587,16.587,0,0,1-2.184.13H-8.58A22.783,22.783,0,0,1-10.946-12.688ZM7.462-21.242l-1.664.7a31.034,31.034,0,0,1,2.054,3.588l1.716-.728A37.678,37.678,0,0,0,7.462-21.242ZM10.4-22.36l-1.664.7a26.094,26.094,0,0,1,2.132,3.588l1.69-.754A33.133,33.133,0,0,0,10.4-22.36ZM19.422-11.6v3.224c.884-.078,2.444-.13,3.874-.13H37.44c1.144,0,2.34.1,2.912.13V-11.6c-.65.052-1.664.156-2.912.156H23.3C21.892-11.44,20.28-11.544,19.422-11.6ZM61.1-20.488l-2.964-.936a12.178,12.178,0,0,1-.988,2.34,23.843,23.843,0,0,1-8.32,8.866L51.038-8.5A29.445,29.445,0,0,0,57.9-15.314h8.216a21.311,21.311,0,0,1-3.25,6.552c-1.742-1.2-3.562-2.366-5.122-3.276l-1.794,1.846c1.508.962,3.38,2.236,5.174,3.536A22.105,22.105,0,0,1,51.3-.676L53.664,1.4A24.766,24.766,0,0,0,63.31-5.018c1.066.858,2.054,1.664,2.782,2.34l1.924-2.288c-.806-.65-1.82-1.43-2.912-2.21a29.771,29.771,0,0,0,3.978-7.852,13.081,13.081,0,0,1,.7-1.612l-2.106-1.3a6.053,6.053,0,0,1-1.95.286H59.462c.1-.182.182-.338.286-.52C60.034-18.694,60.58-19.708,61.1-20.488Zm-82.264,45.7H-15.6v1.508h-5.564Zm5.564-4.732h-5.564v-1.43H-15.6Zm0,3.12h-5.564V22.116H-15.6Zm12.194,8.32v-1.95h-10.4V28.59h9.7V26.718h-9.178V25.21h7.2V23.6h-7.2V22.116h7.15V20.478h-7.15v-1.43h8.294V17.124h-8.164c.494-.78.988-1.69,1.456-2.6l-2.678-.338a22.86,22.86,0,0,1-1.274,2.938h-4.42c.572-.832,1.066-1.69,1.534-2.5l-2.522-.494a21.618,21.618,0,0,1-6.11,7.358,8.513,8.513,0,0,1,1.716,1.638,23.365,23.365,0,0,0,2.028-1.872V28.59H-16.2v1.378h-10.3v1.95h8.424a29,29,0,0,1-9.126,3.9,14.078,14.078,0,0,1,1.56,1.976A29.3,29.3,0,0,0-16.2,32.958v5.07h2.392V32.906a30.015,30.015,0,0,0,9.464,4.758A9.815,9.815,0,0,1-2.86,35.688a29.126,29.126,0,0,1-8.97-3.77ZM12.714,28.2c-.468-.572-2.444-2.626-3.3-3.38V23.546h2.782V22.428H26.806V20.842h-6.24V19.7h5.018V18.19H20.566V17.072h5.642v-1.56H20.566V14.186H18.148v1.326h-5.3v1.56h5.3V18.19H13.364V19.7h4.784v1.144h-6.11v.442H9.412V17.332a26.134,26.134,0,0,0,3.2-.962l-1.664-1.846a36.218,36.218,0,0,1-7.852,1.9,7.453,7.453,0,0,1,.7,1.872c1.04-.13,2.158-.286,3.276-.494v3.484H3.328v2.262H6.89A26.643,26.643,0,0,1,2.652,31.32a13.124,13.124,0,0,1,1.2,2.236A27.2,27.2,0,0,0,7.072,27.68V38h2.34V27.29a28.289,28.289,0,0,1,1.9,2.808Zm10.452-1.69H15.912v-1.4h7.254Zm0,2.912H15.912v-1.43h7.254Zm0,2.912H15.912V30.9h7.254Zm2.262-8.788h-11.7V33.894h2.756a17.808,17.808,0,0,1-5.642,2.7,12.374,12.374,0,0,1,1.534,1.56,21.621,21.621,0,0,0,6.188-3.12L16.77,33.894h8.658ZM20.566,35.064c1.586.988,3.406,2.236,4.42,3.016l2.106-1.17c-1.2-.806-3.2-2.028-4.914-3.016Z" transform="translate(71.89 313.045)"/>
  <path id="パス_823" data-name="パス 823" d="M-47.476-6.708l-3.328.936v-5.174h2.938v-2.236H-50.8v-5.07h3.2v-2.236h-8.918v2.236h3.38v5.07h-3.12v2.236h3.12v5.824c-1.456.39-2.808.754-3.9.988l.6,2.314c2.6-.754,6.058-1.742,9.308-2.73Zm3.25-3.952h7.7v2.184h-7.7Zm0-4.056h7.7v2.184h-7.7Zm0-4.03h7.7v2.158h-7.7ZM-36.894-.208c-.546,0-.65-.078-.65-.78v-5.46h3.406v-14.3h-12.35v14.3h2.132c-.39,3.25-1.378,5.46-6.032,6.682A6.688,6.688,0,0,1-49.036,2.21c5.278-1.612,6.578-4.5,7.046-8.658h2.132V-.962c0,2.158.494,2.834,2.574,2.834h2.262c1.69,0,2.262-.858,2.47-4.186a6.225,6.225,0,0,1-2.028-.91c-.078,2.626-.182,3.016-.728,3.016ZM-3.926-16.64a34.317,34.317,0,0,0-3.068-4.42l-1.82,1.014a31.379,31.379,0,0,1,2.912,4.6Zm.6,4.628v-2.366h-7.15c.026-.39.026-.754.026-1.118v-6.24h-2.392v6.24c0,.364,0,.728-.026,1.118h-5.694v2.366H-13A17.826,17.826,0,0,1-19.344.39V-21.84H-21.71v8.034a29.509,29.509,0,0,0-3.146-4.68l-1.872,1.118a29.784,29.784,0,0,1,3.068,4.914l1.95-1.248v3.77c-1.95,1.768-3.978,3.51-5.33,4.55l1.326,2.028c1.222-1.04,2.626-2.34,4-3.614V2h2.366V.52a11.529,11.529,0,0,1,1.9,1.508,19.018,19.018,0,0,0,6.24-10.114C-9.8-3.692-7.644-.156-4.446,2A8.782,8.782,0,0,1-2.678-.026c-3.848-2.21-6.214-6.682-7.462-11.986Zm20.54-8.476a39.941,39.941,0,0,0,5.772,8.268H7.332a29.219,29.219,0,0,0,5.512-8.4l-2.574-.754a22.065,22.065,0,0,1-7.7,9.7A18.134,18.134,0,0,1,4.628-9.75a22.157,22.157,0,0,0,2.366-2.106v2h4.862c-.546,4.108-1.924,7.9-7.9,9.88A7.632,7.632,0,0,1,5.486,2.184c6.682-2.444,8.346-6.994,9-12.038h6.006c-.26,6.032-.6,8.476-1.2,9.1a1.394,1.394,0,0,1-1.118.364c-.6,0-2.08-.026-3.666-.182a5.546,5.546,0,0,1,.806,2.444,29.31,29.31,0,0,0,4.03,0A2.8,2.8,0,0,0,21.476.806c.884-1.014,1.248-4.03,1.586-11.908.026-.234.026-.78.026-1.014a23.748,23.748,0,0,0,2.184,2.132A13.3,13.3,0,0,1,27.3-12.142a28.788,28.788,0,0,1-7.748-9.282ZM42.9-7.7c-.494-.728-2.652-3.406-3.536-4.394v-2h3.354V-16.38H39.364v-5.434H37.05v5.434h-3.8v2.288h3.484A27.228,27.228,0,0,1,32.63-4.81a12.724,12.724,0,0,1,1.2,2.21A25.408,25.408,0,0,0,37.05-9.334V2.028h2.314V-9.23A37.73,37.73,0,0,1,41.47-5.8Zm13.962-5.382H46.748v-4.108a47.944,47.944,0,0,0,9.074-2.47l-2.054-1.872a38.431,38.431,0,0,1-7.41,2.236l-2-.572v7.384c0,3.874-.26,9.048-3.172,12.87A5.711,5.711,0,0,1,43.03,1.976c2.834-3.666,3.562-8.814,3.692-12.766H50.83V2.028h2.392V-10.79h3.64Zm-105.2,28.122h-7.228v1.9h7.228Zm.754,3.432h-9.23V20.4h9.23Zm-.676,3.536h-7.41v1.872h7.41Zm-7.41,5.356h7.41v-1.9h-7.41Zm5.382,3.562v3.744h-3.38V30.93Zm2.054-1.95h-7.462v8.736h2.028V36.624h5.434Zm4-7.722h2.886V23.52h-2.886Zm0-4.082h2.886v2.21h-2.886Zm7.956,2.21h-2.964v-2.21h2.964Zm0,4.134h-2.964V21.258h2.964Zm2.964,5.98V27.342H-39.13V25.47h5.1V15.2h-12.35V25.47h4.914v1.872h-5.8V29.5h4.758A15.7,15.7,0,0,1-48.2,35.116a9.9,9.9,0,0,1,1.612,1.846,17.8,17.8,0,0,0,5.122-5.434v6.5h2.34V31.294a21.647,21.647,0,0,0,4.862,5.512,9.112,9.112,0,0,1,1.638-1.82A18.386,18.386,0,0,1-38.012,29.5Zm26.7-7.332h-5.512V20.556H-6.6Zm0,3.224h-5.512V23.78H-6.6Zm0,3.276h-5.512V27.03H-6.6Zm-7.7-9.828V30.384h9.958V18.84H-8.97c.234-.52.468-1.118.7-1.69h4.862V15.356h-11.8V17.15H-10.5c-.156.572-.312,1.144-.494,1.69Zm5.72,12.688a21.411,21.411,0,0,1,3.874,3.484l1.742-1.092a20.517,20.517,0,0,0-3.926-3.3Zm-3.588-.806A12.146,12.146,0,0,1-16.3,33.686a12.114,12.114,0,0,1,1.586,1.456,16.046,16.046,0,0,0,4.55-3.8Zm-6.5-12.168H-23.14V16.916h4.472Zm0,3.25H-23.14V20.14h4.472Zm2.236-6.578h-8.84v8.268h8.84ZM-19.6,31.32h4.082V29.5H-19.6V27.056h4.55V25.21h-11.6v1.846h4.966V33.5a6.792,6.792,0,0,1-1.664-2.314c.1-.962.156-1.924.182-2.912h-1.976c-.078,3.146-.442,6.422-1.95,8.242a6.664,6.664,0,0,1,1.456,1.638,9.968,9.968,0,0,0,1.924-4.42c2.21,3.2,5.746,3.77,11.024,3.77H-3.64a6.622,6.622,0,0,1,.806-2.028c-1.768.052-8.424.052-9.854.052a20.609,20.609,0,0,1-6.916-.806Zm31.122-6.006-2.7.754V21.492h2.7V19.256h-2.7V14.212H6.5v5.044H3.12v2.236H6.5v5.2c-1.4.364-2.7.7-3.744.962l.6,2.34c.988-.286,2.028-.6,3.146-.91v6.292c0,.39-.156.494-.494.494-.312.026-1.4.026-2.5-.026a8.506,8.506,0,0,1,.7,2.184,8.587,8.587,0,0,0,3.614-.416c.728-.364.988-.988.988-2.21v-7.02C9.8,28.1,10.79,27.81,11.8,27.5Zm8.84,8.528V29.084h3.614v4.758Zm-5.772-4.758H18.07v4.758H14.586ZM18.07,22.35v4.5H14.586v-4.5Zm5.9,0v4.5H20.358v-4.5Zm-3.614-2.314v-5.8H18.07v5.8H12.3V38h2.288V36.156h9.386V37.82H26.39V20.036Zm32.214,7.228V34.1h-6.63V25.7h8.112V16.6H51.506v6.76H45.942v-9h-2.47v9h-5.3V16.63H35.75V25.7h7.722v8.4H37.206V27.264H34.762v10.79h2.444V36.468H52.572V38h2.5V27.264Z" transform="translate(385.89 130.045)"/>
  <path id="パス_824" data-name="パス 824" d="M-44.46-.572l1.716,1.43a8.082,8.082,0,0,1,.988-.65A27.357,27.357,0,0,0-32.89-6.968L-34.476-9.2a18.291,18.291,0,0,1-7.072,5.98V-17.6a15.66,15.66,0,0,1,.13-2.08h-3.016a19.056,19.056,0,0,1,.156,2.08V-2.21A7.5,7.5,0,0,1-44.46-.572ZM-56.446-.806l2.5,1.664a14.607,14.607,0,0,0,4.628-7.28c.7-2.6.806-8.138.806-11.1a19.461,19.461,0,0,1,.13-2.08H-51.4a8.1,8.1,0,0,1,.208,2.106c0,2.99,0,8.06-.754,10.374A12.035,12.035,0,0,1-56.446-.806ZM-25.428-11.6v3.224c.884-.078,2.444-.13,3.874-.13H-7.41c1.144,0,2.34.1,2.912.13V-11.6c-.65.052-1.664.156-2.912.156H-21.554C-22.958-11.44-24.57-11.544-25.428-11.6Zm35.88,9.2A27.218,27.218,0,0,1,10.244.936h3.2a30.463,30.463,0,0,1-.208-3.328v-8.034A68.079,68.079,0,0,1,23.062-6.37L24.232-9.2a88.132,88.132,0,0,0-11-4.16V-17.42c0-.91.1-2.054.182-2.912h-3.2a18.822,18.822,0,0,1,.234,2.912ZM55.666-9.126c0-5.434-3.952-9.8-10.192-9.8-6.526,0-11.622,4.992-11.622,10.816,0,4.342,2.366,7.2,4.94,7.2s4.732-2.938,6.292-8.242a51.772,51.772,0,0,0,1.56-7.306A6.913,6.913,0,0,1,52.936-9.2c0,4.186-2.964,6.63-6.292,7.384a16.069,16.069,0,0,1-2.314.364L45.864.988C52.182.078,55.666-3.666,55.666-9.126Zm-19.188.754a8.691,8.691,0,0,1,7.41-8.034A41.394,41.394,0,0,1,42.458-9.7C41.262-5.694,40.04-4,38.87-4,37.752-4,36.478-5.382,36.478-8.372ZM-35.776,25.574h11.752V27.81H-35.776Zm0-4.212h11.752v2.21H-35.776Zm0-4.16h11.752v2.184H-35.776Zm11.024,18.33c-1.04,0-1.222-.1-1.222-.884V29.942h4.394v-14.9H-38.116v14.9h3.354c-.494,3.094-1.768,4.992-7.1,6.032a7.488,7.488,0,0,1,1.378,2.132c6.084-1.378,7.7-4.03,8.294-8.164h3.744v4.706c0,2.444.676,3.172,3.406,3.172h3.848c2.34,0,3.016-.962,3.3-4.862a6.809,6.809,0,0,1-2.262-.988c-.1,3.146-.26,3.562-1.274,3.562ZM6.214,23.988H-2.834V22.246H6.214Zm0,3.458H-2.834V25.652H6.214Zm0,3.432H-2.834V29.084H6.214Zm-11.336-10.4V32.646H8.606V20.478H.988c.1-.546.234-1.17.338-1.82H11.414V16.422H1.664c.1-.728.208-1.482.286-2.21l-2.808-.13c-.026.7-.052,1.508-.13,2.34H-11.31v2.236H-1.222c-.078.65-.156,1.248-.26,1.82Zm16.77,14.066H-7.67V21.232h-2.366V38.08H-7.67v-1.3H11.648ZM26.1,15.59l-3.328-.026a15.045,15.045,0,0,1,.286,3.016c0,2.5-.26,9.2-.26,12.9,0,4.316,2.652,6.006,6.6,6.006a13.2,13.2,0,0,0,11.05-5.824L38.61,29.4c-1.872,2.782-4.6,5.356-9.152,5.356-2.262,0-3.952-.936-3.952-3.692,0-3.588.182-9.594.312-12.48A23.714,23.714,0,0,1,26.1,15.59Z" transform="translate(702.89 313.045)"/>
  <path id="パス_825" data-name="パス 825" d="M-63.232-17.186A25.04,25.04,0,0,1-64.4-13.78l1.794.39h-5.72l1.508-.39a12.027,12.027,0,0,0-1.04-3.406ZM-60.346-3.38c-.6-.494-2.99-2.444-3.926-3.094v-.442h4.6V-8.97h-4.6v-2.366h4.836V-13.39h-3.042c.442-.884.936-2.158,1.43-3.38l-1.82-.416h3.146v-2h-4.55v-2.47h-2.34v2.47h-4.55v2h3.2l-1.768.442a12.461,12.461,0,0,1,.91,3.354H-71.5v2.054h4.888V-8.97h-4.81v2.054h4.342a17.765,17.765,0,0,1-4.966,5.46A9.964,9.964,0,0,1-70.486.286a19.559,19.559,0,0,0,3.874-4.368V2h2.34V-4.16c.962.91,2,1.95,2.522,2.574Zm12.48-9.828H-56.29V-17.42a39.624,39.624,0,0,0,8.164-2.366l-1.95-1.742a34.341,34.341,0,0,1-6.916,2.236L-58.6-19.76v9c0,3.588-.312,8.034-3.458,11.232a5.827,5.827,0,0,1,1.716,1.664c3.588-3.614,4.056-9.022,4.056-12.87v-.234h3.354V1.9h2.34v-12.87h2.73ZM-29.51-.572l1.716,1.43a8.082,8.082,0,0,1,.988-.65A27.357,27.357,0,0,0-17.94-6.968L-19.526-9.2A18.291,18.291,0,0,1-26.6-3.224V-17.6a15.659,15.659,0,0,1,.13-2.08h-3.016a19.056,19.056,0,0,1,.156,2.08V-2.21A7.5,7.5,0,0,1-29.51-.572ZM-41.5-.806-39,.858a14.607,14.607,0,0,0,4.628-7.28c.7-2.6.806-8.138.806-11.1a19.461,19.461,0,0,1,.13-2.08h-3.016a8.1,8.1,0,0,1,.208,2.106c0,2.99,0,8.06-.754,10.374A12.035,12.035,0,0,1-41.5-.806ZM-10.478-11.6v3.224C-9.594-8.45-8.034-8.5-6.6-8.5H7.54c1.144,0,2.34.1,2.912.13V-11.6c-.65.052-1.664.156-2.912.156H-6.6C-8.008-11.44-9.62-11.544-10.478-11.6Zm35.88,9.2A27.218,27.218,0,0,1,25.194.936h3.2a30.463,30.463,0,0,1-.208-3.328v-8.034A68.079,68.079,0,0,1,38.012-6.37L39.182-9.2a88.132,88.132,0,0,0-11-4.16V-17.42c0-.91.1-2.054.182-2.912h-3.2A18.822,18.822,0,0,1,25.4-17.42ZM70.616-9.126c0-5.434-3.952-9.8-10.192-9.8C53.9-18.928,48.8-13.936,48.8-8.112c0,4.342,2.366,7.2,4.94,7.2s4.732-2.938,6.292-8.242a51.772,51.772,0,0,0,1.56-7.306A6.913,6.913,0,0,1,67.886-9.2c0,4.186-2.964,6.63-6.292,7.384a16.069,16.069,0,0,1-2.314.364L60.814.988C67.132.078,70.616-3.666,70.616-9.126Zm-19.188.754a8.691,8.691,0,0,1,7.41-8.034A41.394,41.394,0,0,1,57.408-9.7C56.212-5.694,54.99-4,53.82-4,52.7-4,51.428-5.382,51.428-8.372Zm-69.082,25.21H-5.98v1.638h2.236V15.044H-19.786v3.432h2.132Zm1.248,11.05V26.432h3.354v1.456Zm0-4.316h3.354v1.4h-3.354Zm9.178,0v1.4h-3.458v-1.4Zm0,4.316h-3.458V26.432h3.458Zm-5.824,6.786h2.366V32.542h7.332v-1.82h-7.332V29.448H-5.07V22.012h-5.616v-1.3h6.24V18.97h-6.24V17.358h-2.366V18.97h-6.136v1.742h6.136v1.3h-5.434v7.436h5.434v1.274h-7.1v1.82h7.1ZM-20.566,19a19.327,19.327,0,0,0-4.108-4.16l-1.846,1.352a18.565,18.565,0,0,1,4,4.342Zm-.7,5.278H-26.7V26.51h3.12v6.266a35.851,35.851,0,0,1-3.406,2.652l1.2,2.392c1.274-1.118,2.418-2.158,3.51-3.224,1.586,2,3.822,2.86,7.046,2.99,3.016.1,8.528.052,11.518-.078a10.529,10.529,0,0,1,.78-2.366c-3.3.234-9.334.312-12.272.182-2.886-.13-4.94-.936-6.058-2.73Zm37.622,3.77V24.2h6.292v3.848Zm-8.164,0c.078-.962.1-1.924.1-2.808V24.2h5.642v3.848Zm5.746-9.776v3.666H8.294V18.268Zm8.71,3.666H16.354V18.268h6.292Zm2.418-5.98H5.9V25.21c0,3.666-.26,8.268-3.094,11.414a8,8,0,0,1,1.9,1.586,14.914,14.914,0,0,0,3.25-7.878h5.98v7.436h2.418V30.332h6.292v4.654c0,.494-.182.65-.65.65-.494,0-2.21.026-3.874-.052a9.99,9.99,0,0,1,.806,2.34,14.233,14.233,0,0,0,4.862-.416c.936-.364,1.274-1.092,1.274-2.5Z" transform="translate(385.89 496.045)"/>
  <g id="グループ_410" data-name="グループ 410" transform="translate(27.077 175.13)">
    <path id="線_24" data-name="線 24" d="M33.472,25.168-.354.485.354-.485,34.179,24.2Z" transform="translate(12.342 22.398)"/>
    <path id="線_25" data-name="線 25" d="M7.223,34.737-.585.132.585-.132l7.808,34.6Z" transform="translate(45.673 46.303)"/>
    <path id="線_26" data-name="線 26" d="M.366,25.159l-.733-.95,32-24.684.733.95Z" transform="translate(46.168 22.398)"/>
    <path id="線_27" data-name="線 27" d="M2.144,42.093-.6.039.6-.039,3.341,42.015Z" transform="translate(43.425 5.028)"/>
    <path id="線_28" data-name="線 28" d="M40.927,16.1-.212.561.212-.561,41.351,14.98Z" transform="translate(46.168 47.082)"/>
    <path id="線_29" data-name="線 29" d="M.438,28.75l-.876-.82L26.074-.41l.876.82Z" transform="translate(19.656 47.082)"/>
    <circle id="楕円形_23" data-name="楕円形 23" cx="8.5" cy="8.5" r="8.5" transform="translate(69.813 13.914)" fill="#0cb04b"/>
    <path id="楕円形_23_-_アウトライン" data-name="楕円形 23 - アウトライン" d="M8.5,1.2a7.3,7.3,0,1,0,7.3,7.3A7.308,7.308,0,0,0,8.5,1.2M8.5,0A8.5,8.5,0,1,1,0,8.5,8.5,8.5,0,0,1,8.5,0Z" transform="translate(69.813 13.914)"/>
    <ellipse id="楕円形_24" data-name="楕円形 24" cx="8.5" cy="9" rx="8.5" ry="9" transform="translate(44.813 71.914)" fill="#0cb04b"/>
    <path id="楕円形_24_-_アウトライン" data-name="楕円形 24 - アウトライン" d="M8.5,1.2A7.571,7.571,0,0,0,1.2,9a7.571,7.571,0,0,0,7.3,7.8A7.571,7.571,0,0,0,15.8,9,7.571,7.571,0,0,0,8.5,1.2M8.5,0A8.761,8.761,0,0,1,17,9a8.761,8.761,0,0,1-8.5,9A8.761,8.761,0,0,1,0,9,8.761,8.761,0,0,1,8.5,0Z" transform="translate(44.813 71.914)"/>
    <circle id="楕円形_25" data-name="楕円形 25" cx="6" cy="6" r="6" transform="translate(13.813 69.914)" fill="#0cb04b"/>
    <path id="楕円形_25_-_アウトライン" data-name="楕円形 25 - アウトライン" d="M6,1.2A4.8,4.8,0,1,0,10.8,6,4.805,4.805,0,0,0,6,1.2M6,0A6,6,0,1,1,0,6,6,6,0,0,1,6,0Z" transform="translate(13.813 69.914)"/>
    <circle id="楕円形_26" data-name="楕円形 26" cx="6" cy="6" r="6" transform="translate(37.813 -0.086)" fill="#0cb04b"/>
    <path id="楕円形_26_-_アウトライン" data-name="楕円形 26 - アウトライン" d="M6,1.2A4.8,4.8,0,1,0,10.8,6,4.805,4.805,0,0,0,6,1.2M6,0A6,6,0,1,1,0,6,6,6,0,0,1,6,0Z" transform="translate(37.813 -0.086)"/>
    <circle id="楕円形_27" data-name="楕円形 27" cx="6" cy="6" r="6" transform="translate(79.813 55.914)" fill="#0cb04b"/>
    <path id="楕円形_27_-_アウトライン" data-name="楕円形 27 - アウトライン" d="M6,1.2A4.8,4.8,0,1,0,10.8,6,4.805,4.805,0,0,0,6,1.2M6,0A6,6,0,1,1,0,6,6,6,0,0,1,6,0Z" transform="translate(79.813 55.914)"/>
    <circle id="楕円形_28" data-name="楕円形 28" cx="8.5" cy="8.5" r="8.5" transform="translate(3.813 13.914)" fill="#0cb04b"/>
    <path id="楕円形_28_-_アウトライン" data-name="楕円形 28 - アウトライン" d="M8.5,1.2a7.3,7.3,0,1,0,7.3,7.3A7.308,7.308,0,0,0,8.5,1.2M8.5,0A8.5,8.5,0,1,1,0,8.5,8.5,8.5,0,0,1,8.5,0Z" transform="translate(3.813 13.914)"/>
    <path id="線_30" data-name="線 30" d="M.107,7.9-.107,6.723,40.118-.59,40.333.59Z" transform="translate(5.942 47.082)"/>
    <circle id="楕円形_29" data-name="楕円形 29" cx="6" cy="6" r="6" transform="translate(-0.187 48.914)" fill="#0cb04b"/>
    <path id="楕円形_29_-_アウトライン" data-name="楕円形 29 - アウトライン" d="M6,1.2A4.8,4.8,0,1,0,10.8,6,4.805,4.805,0,0,0,6,1.2M6,0A6,6,0,1,1,0,6,6,6,0,0,1,6,0Z" transform="translate(-0.187 48.914)"/>
    <circle id="楕円形_30" data-name="楕円形 30" cx="15.5" cy="15.5" r="15.5" transform="translate(29.813 29.914)" fill="#fff"/>
    <path id="楕円形_30_-_アウトライン" data-name="楕円形 30 - アウトライン" d="M15.5,1.2A14.3,14.3,0,0,0,5.388,25.612,14.3,14.3,0,0,0,25.612,5.388,14.206,14.206,0,0,0,15.5,1.2m0-1.2A15.5,15.5,0,1,1,0,15.5,15.5,15.5,0,0,1,15.5,0Z" transform="translate(29.813 29.914)"/>
  </g>
  <g id="グループ_663" data-name="グループ 663" transform="translate(-573.9 -1211.75)">
    <path id="線_39" data-name="線 39" d="M.415,19.183l-.831-.866L19.125-.433l.831.866Z" transform="translate(920.75 1273.295)"/>
    <circle id="楕円形_52" data-name="楕円形 52" cx="8" cy="8" r="8" transform="translate(940 1248.795)" fill="#0166a6"/>
    <path id="楕円形_52_-_アウトライン" data-name="楕円形 52 - アウトライン" d="M8,1.2A6.8,6.8,0,1,0,14.8,8,6.808,6.808,0,0,0,8,1.2M8,0A8,8,0,1,1,0,8,8,8,0,0,1,8,0Z" transform="translate(940 1248.795)"/>
    <circle id="楕円形_53" data-name="楕円形 53" cx="11" cy="11" r="11" transform="translate(969 1229.795)" fill="#b68a57"/>
    <path id="楕円形_53_-_アウトライン" data-name="楕円形 53 - アウトライン" d="M11,1.2A9.8,9.8,0,1,0,20.8,11,9.811,9.811,0,0,0,11,1.2M11,0A11,11,0,1,1,0,11,11,11,0,0,1,11,0Z" transform="translate(969 1229.795)"/>
    <ellipse id="楕円形_54" data-name="楕円形 54" cx="8.5" cy="8" rx="8.5" ry="8" transform="translate(963 1258.795)" fill="#0cb04b"/>
    <path id="楕円形_54_-_アウトライン" data-name="楕円形 54 - アウトライン" d="M8.5,1.2A7.071,7.071,0,0,0,1.2,8a7.071,7.071,0,0,0,7.3,6.8A7.071,7.071,0,0,0,15.8,8,7.071,7.071,0,0,0,8.5,1.2M8.5,0A8.261,8.261,0,0,1,17,8a8.261,8.261,0,0,1-8.5,8A8.261,8.261,0,0,1,0,8,8.261,8.261,0,0,1,8.5,0Z" transform="translate(963 1258.795)"/>
    <circle id="楕円形_55" data-name="楕円形 55" cx="7.5" cy="7.5" r="7.5" transform="translate(945 1222.795)" fill="#0cb04b"/>
    <path id="楕円形_55_-_アウトライン" data-name="楕円形 55 - アウトライン" d="M7.5,1.2a6.3,6.3,0,1,0,6.3,6.3A6.307,6.307,0,0,0,7.5,1.2M7.5,0A7.5,7.5,0,1,1,0,7.5,7.5,7.5,0,0,1,7.5,0Z" transform="translate(945 1222.795)"/>
    <path id="楕円形_56" data-name="楕円形 56" d="M35.44,1.2A34.25,34.25,0,0,0,22.113,66.99,34.25,34.25,0,0,0,48.768,3.89,34.025,34.025,0,0,0,35.44,1.2m0-1.2A35.44,35.44,0,1,1,0,35.44,35.44,35.44,0,0,1,35.44,0Z" transform="translate(927.949 1211.75)"/>
  </g>
  <g id="グループ_662" data-name="グループ 662" transform="translate(-571.11 -1198.955)">
    <path id="パス_373" data-name="パス 373" d="M10940.6,1193.947h-1.2v-17.282h42.162l-.027-15.1,1.2,0,.031,16.3H10940.6Z" transform="translate(-9668 227)" fill="#e0e0e0"/>
    <path id="パス_374" data-name="パス 374" d="M10982.764,1193.947h-1.2v-16.083H10939.4v-.6l-.012-15.688h1.2l.012,15.089h42.164Z" transform="translate(-9710 227)"/>
    <path id="パス_375" data-name="パス 375" d="M10902.8,1169.318l-4.577-4.577-4.577,4.577-.848-.849,5.425-5.425.424.424,5,5Z" transform="translate(-9668.223 224.107)"/>
    <path id="パス_376" data-name="パス 376" d="M10902.8,1169.318l-4.577-4.577-4.577,4.577-.848-.849,5.425-5.425.424.424,5,5Z" transform="translate(-9584.06 224.107)" fill="#e0e0e0"/>
    <rect id="長方形_289" data-name="長方形 289" width="4" height="29" transform="translate(1270 1439)"/>
    <circle id="楕円形_58" data-name="楕円形 58" cx="10.5" cy="10.5" r="10.5" transform="translate(1261.5 1419.998)" fill="#0077c0"/>
    <path id="楕円形_58_-_アウトライン" data-name="楕円形 58 - アウトライン" d="M10.5,2A8.5,8.5,0,1,0,19,10.5,8.51,8.51,0,0,0,10.5,2m0-2A10.5,10.5,0,1,1,0,10.5,10.5,10.5,0,0,1,10.5,0Z" transform="translate(1261.5 1419.998)"/>
  </g>
  <g id="グループ_664" data-name="グループ 664" transform="translate(-627.773 -1223.387)">
    <path id="パス_375-2" data-name="パス 375" d="M10906.484,1171.16l-6.419-6.419-6.419,6.419-.848-.848,7.267-7.268.424.424,6.843,6.843Z" transform="translate(-9856.226 418.326)"/>
    <path id="パス_377" data-name="パス 377" d="M10682.74,1449.6h-1.2v-21.08h-39.5V1396.64h69.2v-38.422h1.2v39.621h-69.2v29.479h39.5Z" transform="translate(-9667.999 224)"/>
    <circle id="楕円形_58-2" data-name="楕円形 58" cx="10.733" cy="10.733" r="10.733" transform="translate(987.777 1609.931)" fill="#0077c0"/>
    <path id="楕円形_58_-_アウトライン-2" data-name="楕円形 58 - アウトライン" d="M10.733,1.2a9.533,9.533,0,1,0,9.533,9.533A9.543,9.543,0,0,0,10.733,1.2m0-1.2A10.733,10.733,0,1,1,0,10.733,10.733,10.733,0,0,1,10.733,0Z" transform="translate(987.777 1609.931)"/>
  </g>
</svg>
