<svg id="コンポーネント_18_1" data-name="コンポーネント 18 – 1" xmlns="http://www.w3.org/2000/svg" xmlns:xlink="http://www.w3.org/1999/xlink" width="269.042" height="132.545" viewBox="0 0 269.042 132.545">
  <defs>
    <clipPath id="clip-path">
      <path id="パス_418" data-name="パス 418" d="M10118.073,6278.9l32.314,13.03-74.573,1.308,3.667-15.688Z" transform="translate(-10075.814 -6277.544)" fill="#fff"/>
    </clipPath>
    <clipPath id="clip-path-2">
      <path id="パス_418-2" data-name="パス 418" d="M10108.129,6278.9l-32.314,13.03,74.574,1.308-3.668-15.688Z" transform="translate(-10075.814 -6277.544)" fill="#fff"/>
    </clipPath>
  </defs>
  <path id="パス_853" data-name="パス 853" d="M29.536,1.456A37.637,37.637,0,0,0,41.808-.728l-2.5-11.128a17.016,17.016,0,0,1-5.72,1.248c-5.2,0-7.9-3.12-7.9-9.776V-46.176H40.04V-58.24H25.688v-15.7H13l-1.768,15.7-9.048.728v11.336H10.4v25.792C10.4-7.384,15.7,1.456,29.536,1.456Z" transform="translate(-2.184 131.089)" fill="#0077c0"/>
  <g id="グループ_1106" data-name="グループ 1106" transform="translate(78.547 0)">
    <g id="グループ_1082" data-name="グループ 1082" transform="translate(99.576 96.167)">
      <g id="マスクグループ_84" data-name="マスクグループ 84" transform="translate(0)" clip-path="url(#clip-path)">
        <path id="パス_415" data-name="パス 415" d="M3.166,12.008,80.4,0V4.631L3.488,22.386,0,20.595Z" transform="matrix(0.985, 0.174, -0.174, 0.985, 8.816, -9.469)" fill="#fff" stroke="#0077c0" stroke-width="1"/>
        <path id="パス_416" data-name="パス 416" d="M0,0,6.207,8.481" transform="matrix(0.985, 0.174, -0.174, 0.985, 9.911, 2.965)" fill="#fff" stroke="#0077c0" stroke-width="1"/>
      </g>
    </g>
    <path id="パス_411" data-name="パス 411" d="M10054.268,6278.042l77.239-12.008v4.631l-76.92,17.756-3.486-1.792Z" transform="translate(-10051.101 -6195.717)" fill="#fff" stroke="#0077c0" stroke-width="1"/>
    <path id="パス_412" data-name="パス 412" d="M10053.125,6273.577l6.209,8.483" transform="translate(-10049.888 -6191.205)" fill="#fff" stroke="#0077c0" stroke-width="1"/>
    <path id="パス_413" data-name="パス 413" d="M3.166,12.009,80.406,0V4.631L3.488,22.387,0,20.6Z" transform="matrix(0.995, -0.105, 0.105, 0.995, 13.666, 83.924)" fill="#fff" stroke="#0077c0" stroke-width="1"/>
    <path id="パス_414" data-name="パス 414" d="M0,0,6.209,8.482" transform="matrix(0.995, -0.105, 0.105, 0.995, 18.145, 95.576)" fill="#fff" stroke="#0077c0" stroke-width="1"/>
    <path id="パス_417" data-name="パス 417" d="M3.166,12.009,80.406,0V4.631L3.488,22.387,0,20.6Z" transform="translate(8.629 53.846) rotate(3)" fill="#fff" stroke="#0077c0" stroke-width="1"/>
    <g id="マスクグループ_84-2" data-name="マスクグループ 84" transform="translate(42.507 88.71)" clip-path="url(#clip-path-2)">
      <path id="パス_415-2" data-name="パス 415" d="M3.166,10.378,80.4,22.386V17.755L3.488,0,0,1.791Z" transform="matrix(-0.985, 0.174, -0.174, -0.985, 69.645, 12.578)" fill="#fff" stroke="#0077c0" stroke-width="1"/>
      <path id="パス_416-2" data-name="パス 416" d="M0,8.481,6.208,0" transform="matrix(-0.985, 0.174, -0.174, -0.985, 66.136, 11.318)" fill="#fff" stroke="#0077c0" stroke-width="1"/>
    </g>
    <g id="グループ_1095" data-name="グループ 1095" transform="translate(13.866 46.133) rotate(-30)">
      <path id="パス_419" data-name="パス 419" d="M2.88,3.762c-8.4,18.8,4.255,16.287,4.255,16.287s9.015-1.328,3.915-10.95c.158.285.08.143,0,0C5.673-.472,4.784,0,4.784,0Z" transform="translate(0 0)" fill="#fff" stroke="#0077c0" stroke-linejoin="round" stroke-width="1.2"/>
      <path id="パス_420" data-name="パス 420" d="M0,0,1.593,18.063" transform="translate(4.896 1.117)" fill="#fff" stroke="#0077c0" stroke-width="1.2"/>
      <path id="パス_421" data-name="パス 421" d="M0,0,5.492,1.791" transform="translate(0.332 13.183)" fill="#fff" stroke="#0077c0" stroke-width="1"/>
      <path id="パス_422" data-name="パス 422" d="M0,4.013,4.281,0" transform="translate(5.822 7.279)" fill="#fff" stroke="#0077c0" stroke-width="1"/>
    </g>
    <g id="グループ_1096" data-name="グループ 1096" transform="matrix(0.545, 0.839, -0.839, 0.545, 172.211, 45.458)">
      <path id="パス_419-2" data-name="パス 419" d="M2.88,3.76c-8.4,18.8,4.255,16.289,4.255,16.289S16.151,18.721,11.051,9.1c.158.286.08.144,0,0C5.673-.472,4.784,0,4.784,0Z" transform="translate(0 0)" fill="#fff" stroke="#0077c0" stroke-linejoin="round" stroke-width="1.2"/>
      <path id="パス_420-2" data-name="パス 420" d="M0,0,1.592,18.063" transform="translate(4.896 1.116)" fill="#fff" stroke="#0077c0" stroke-width="1.2"/>
      <path id="パス_421-2" data-name="パス 421" d="M0,0,5.492,1.791" transform="translate(0.332 13.183)" fill="#fff" stroke="#0077c0" stroke-width="1"/>
      <path id="パス_422-2" data-name="パス 422" d="M0,4.013,4.281,0" transform="translate(5.822 7.279)" fill="#fff" stroke="#0077c0" stroke-width="1"/>
    </g>
    <path id="パス_411-2" data-name="パス 411" d="M10128.339,6278.042l-77.239-12.008v4.631l76.919,17.756,3.487-1.792Z" transform="translate(-9941.633 -6185.883)" fill="#fff" stroke="#0077c0" stroke-width="1"/>
    <path id="パス_412-2" data-name="パス 412" d="M10059.336,6273.577l-6.21,8.483" transform="translate(-9872.699 -6181.371)" fill="#fff" stroke="#0077c0" stroke-width="1"/>
    <g id="グループ_1083" data-name="グループ 1083" transform="translate(84.888 78.023)">
      <path id="パス_413-2" data-name="パス 413" d="M3.166,10.379,80.405,22.387V17.756L3.488,0,0,1.792Z" transform="matrix(-0.995, -0.105, 0.105, -0.995, 79.965, 30.669)" fill="#fff" stroke="#0077c0" stroke-width="1"/>
      <path id="パス_414-2" data-name="パス 414" d="M0,8.482,6.209,0" transform="matrix(-0.995, -0.105, 0.105, -0.995, 76.94, 28.492)" fill="#fff" stroke="#0077c0" stroke-width="1"/>
    </g>
    <path id="パス_417-2" data-name="パス 417" d="M3.166,10.379,80.405,22.387V17.756L3.488,0,0,1.792Z" transform="translate(182.415 86.037) rotate(177)" fill="#fff" stroke="#0077c0" stroke-width="1"/>
    <g id="グループ_1075" data-name="グループ 1075" transform="translate(108.122 64.845) rotate(133)">
      <path id="パス_411-3" data-name="パス 411" d="M77.239,12.008,0,0V4.63L76.918,22.387,80.406,20.6Z" transform="translate(0 0)" fill="#fff" stroke="#0077c0" stroke-width="1"/>
      <path id="パス_412-3" data-name="パス 412" d="M6.209,0,0,8.482" transform="translate(70.959 12.056)" fill="#fff" stroke="#0077c0" stroke-width="1"/>
    </g>
    <g id="グループ_1074" data-name="グループ 1074" transform="translate(99.43 58.385) rotate(133)">
      <path id="パス_413-3" data-name="パス 413" d="M3.166,10.379,80.405,22.388V17.756L3.488,0,0,1.792Z" transform="matrix(-0.995, -0.105, 0.105, -0.995, 79.965, 30.67)" fill="#fff" stroke="#0077c0" stroke-width="1"/>
      <path id="パス_414-3" data-name="パス 414" d="M0,8.482,6.209,0" transform="matrix(-0.995, -0.105, 0.105, -0.995, 76.939, 28.492)" fill="#fff" stroke="#0077c0" stroke-width="1"/>
    </g>
    <g id="グループ_1076" data-name="グループ 1076" transform="translate(92.76 70.309) rotate(-11)">
      <path id="パス_411-4" data-name="パス 411" d="M77.24,12.008,0,0V4.632L76.919,22.388,80.407,20.6Z" transform="translate(0 0)" fill="#fff" stroke="#0077c0" stroke-width="1"/>
      <path id="パス_412-4" data-name="パス 412" d="M6.209,0,0,8.484" transform="translate(70.96 12.055)" fill="#fff" stroke="#0077c0" stroke-width="1"/>
    </g>
    <g id="グループ_1084" data-name="グループ 1084" transform="translate(97.217 87.092) rotate(-180)">
      <path id="パス_411-5" data-name="パス 411" d="M77.24,12.008,0,0V4.632L76.919,22.388,80.407,20.6Z" transform="translate(0 0)" fill="#fff" stroke="#0077c0" stroke-width="1"/>
      <path id="パス_412-5" data-name="パス 412" d="M6.209,0,0,8.484" transform="translate(70.96 12.055)" fill="#fff" stroke="#0077c0" stroke-width="1"/>
    </g>
    <g id="グループ_1077" data-name="グループ 1077" transform="translate(55.037 78.586) rotate(-11)">
      <path id="パス_413-4" data-name="パス 413" d="M3.166,10.379,80.405,22.387V17.756L3.488,0,0,1.792Z" transform="matrix(-0.995, -0.105, 0.105, -0.995, 79.965, 30.669)" fill="#fff" stroke="#0077c0" stroke-width="1"/>
      <path id="パス_414-4" data-name="パス 414" d="M0,8.482,6.209,0" transform="matrix(-0.995, -0.105, 0.105, -0.995, 76.94, 28.492)" fill="#fff" stroke="#0077c0" stroke-width="1"/>
    </g>
    <g id="グループ_1078" data-name="グループ 1078" transform="translate(79.121 58.046) rotate(5)">
      <path id="パス_411-6" data-name="パス 411" d="M77.24,12.008,0,0V4.632L76.919,22.388,80.407,20.6Z" fill="#fff" stroke="#0077c0" stroke-width="1"/>
      <path id="パス_412-6" data-name="パス 412" d="M6.209,0,0,8.484" transform="translate(70.96 12.055)" fill="#fff" stroke="#0077c0" stroke-width="1"/>
    </g>
    <g id="グループ_1079" data-name="グループ 1079" transform="translate(33.847 67.931) rotate(-11)">
      <path id="パス_413-5" data-name="パス 413" d="M3.166,10.379,80.405,22.387V17.756L3.488,0,0,1.792Z" transform="matrix(-0.995, -0.105, 0.105, -0.995, 79.965, 30.669)" fill="#fff" stroke="#0077c0" stroke-width="1"/>
      <path id="パス_414-5" data-name="パス 414" d="M0,8.482,6.209,0" transform="matrix(-0.995, -0.105, 0.105, -0.995, 76.94, 28.492)" fill="#fff" stroke="#0077c0" stroke-width="1"/>
    </g>
    <g id="グループ_1080" data-name="グループ 1080" transform="matrix(-0.891, 0.454, -0.454, -0.891, 97.217, 59.944)">
      <path id="パス_411-7" data-name="パス 411" d="M77.239,12.008,0,0V4.63L76.918,22.387,80.406,20.6Z" transform="translate(0 0)" fill="#fff" stroke="#0077c0" stroke-width="1"/>
      <path id="パス_412-7" data-name="パス 412" d="M6.209,0,0,8.482" transform="translate(70.958 12.055)" fill="#fff" stroke="#0077c0" stroke-width="1"/>
    </g>
    <g id="グループ_1081" data-name="グループ 1081" transform="matrix(-0.891, 0.454, -0.454, -0.891, 117.082, 57.862)">
      <path id="パス_413-6" data-name="パス 413" d="M3.166,10.379,80.405,22.388V17.756L3.488,0,0,1.792Z" transform="matrix(-0.995, -0.105, 0.105, -0.995, 79.965, 30.669)" fill="#fff" stroke="#0077c0" stroke-width="1"/>
      <path id="パス_414-6" data-name="パス 414" d="M0,8.482,6.209,0" transform="matrix(-0.995, -0.105, 0.105, -0.995, 76.94, 28.492)" fill="#fff" stroke="#0077c0" stroke-width="1"/>
    </g>
    <g id="グループ_1087" data-name="グループ 1087" transform="matrix(0.996, -0.087, 0.087, 0.996, 92.759, 57.778)">
      <path id="パス_704" data-name="パス 704" d="M62.753,9.756,0,0V3.763L62.493,18.19l2.834-1.457Z" transform="translate(0 0)" fill="#fff" stroke="#0077c0" stroke-width="1"/>
      <path id="パス_705" data-name="パス 705" d="M5.046,0,0,6.891" transform="translate(57.651 9.795)" fill="#fff" stroke="#0077c0" stroke-width="1"/>
    </g>
    <g id="グループ_1085" data-name="グループ 1085" transform="translate(69.993 45.833)">
      <path id="パス_413-7" data-name="パス 413" d="M2.572,8.432l62.753,9.757V14.426L2.833,0,0,1.456Z" transform="matrix(-0.995, -0.105, 0.105, -0.995, 64.968, 24.918)" fill="#fff" stroke="#0077c0" stroke-width="1"/>
      <path id="パス_414-7" data-name="パス 414" d="M0,6.892,5.044,0" transform="matrix(-0.995, -0.105, 0.105, -0.995, 62.51, 23.149)" fill="#fff" stroke="#0077c0" stroke-width="1"/>
    </g>
    <path id="パス_706" data-name="パス 706" d="M62.753,9.756,0,0V3.763L62.493,18.19l2.834-1.457Z" transform="translate(102.779 56.056) rotate(167)" fill="#fff" stroke="#0077c0" stroke-width="1"/>
    <path id="パス_707" data-name="パス 707" d="M5.045,0,0,6.891" transform="translate(44.403 59.48) rotate(167)" fill="#fff" stroke="#0077c0" stroke-width="1"/>
    <g id="グループ_1086" data-name="グループ 1086" transform="translate(115.164 60.856) rotate(167)">
      <path id="パス_413-8" data-name="パス 413" d="M2.572,8.432l62.753,9.757V14.426L2.833,0,0,1.456Z" transform="matrix(-0.995, -0.105, 0.105, -0.995, 64.968, 24.918)" fill="#fff" stroke="#0077c0" stroke-width="1"/>
      <path id="パス_414-8" data-name="パス 414" d="M0,6.892,5.044,0" transform="matrix(-0.995, -0.105, 0.105, -0.995, 62.51, 23.149)" fill="#fff" stroke="#0077c0" stroke-width="1"/>
    </g>
    <g id="グループ_1088" data-name="グループ 1088" transform="translate(83.177 56.951) rotate(-16)">
      <path id="パス_704-2" data-name="パス 704" d="M62.753,9.756,0,0V3.763L62.493,18.19l2.834-1.457Z" transform="translate(0 0)" fill="#fff" stroke="#0077c0" stroke-width="1"/>
      <path id="パス_705-2" data-name="パス 705" d="M5.045,0,0,6.891" transform="translate(57.651 9.795)" fill="#fff" stroke="#0077c0" stroke-width="1"/>
    </g>
    <g id="グループ_1089" data-name="グループ 1089" transform="matrix(-0.819, 0.574, -0.574, -0.819, 105.994, 47.66)">
      <path id="パス_413-9" data-name="パス 413" d="M2.471,8.1l60.291,9.374V13.86L2.722,0,0,1.4Z" transform="matrix(-0.995, -0.105, 0.105, -0.995, 62.419, 23.94)" fill="#fff" stroke="#0077c0" stroke-width="1"/>
      <path id="パス_414-9" data-name="パス 414" d="M0,6.621,4.846,0" transform="matrix(-0.995, -0.105, 0.105, -0.995, 60.058, 22.241)" fill="#fff" stroke="#0077c0" stroke-width="1"/>
    </g>
    <g id="グループ_1090" data-name="グループ 1090" transform="matrix(-0.966, 0.259, -0.259, -0.966, 104.052, 48.493)">
      <path id="パス_411-8" data-name="パス 411" d="M60.292,9.374,0,0V3.615L60.042,17.476l2.722-1.4Z" transform="translate(0 0)" fill="#fff" stroke="#0077c0" stroke-width="1"/>
      <path id="パス_412-8" data-name="パス 412" d="M4.847,0,0,6.622" transform="translate(55.39 9.41)" fill="#fff" stroke="#0077c0" stroke-width="1"/>
    </g>
    <g id="グループ_1091" data-name="グループ 1091" transform="matrix(-0.966, 0.259, -0.259, -0.966, 119.607, 49.284)">
      <path id="パス_413-10" data-name="パス 413" d="M3.166,10.379,80.405,22.387V17.756L3.488,0,0,1.792Z" transform="matrix(-0.995, -0.105, 0.105, -0.995, 79.965, 30.669)" fill="#fff" stroke="#0077c0" stroke-width="1"/>
      <path id="パス_414-10" data-name="パス 414" d="M0,8.482,6.209,0" transform="matrix(-0.995, -0.105, 0.105, -0.995, 76.94, 28.492)" fill="#fff" stroke="#0077c0" stroke-width="1"/>
    </g>
    <g id="グループ_1092" data-name="グループ 1092" transform="matrix(0.978, 0.208, -0.208, 0.978, 76.048, 27.726)">
      <path id="パス_413-11" data-name="パス 413" d="M2.572,8.432l62.753,9.757V14.426L2.833,0,0,1.456Z" transform="matrix(-0.995, -0.105, 0.105, -0.995, 64.968, 24.918)" fill="#fff" stroke="#0077c0" stroke-width="1"/>
      <path id="パス_414-11" data-name="パス 414" d="M0,6.892,5.044,0" transform="matrix(-0.995, -0.105, 0.105, -0.995, 62.51, 23.149)" fill="#fff" stroke="#0077c0" stroke-width="1"/>
    </g>
    <g id="グループ_1093" data-name="グループ 1093" transform="matrix(-1, 0.017, -0.017, -1, 107.497, 52.64)">
      <path id="パス_413-12" data-name="パス 413" d="M2.572,8.432l62.753,9.757V14.426L2.833,0,0,1.456Z" transform="matrix(-0.995, -0.105, 0.105, -0.995, 64.968, 24.918)" fill="#fff" stroke="#0077c0" stroke-width="1"/>
      <path id="パス_414-12" data-name="パス 414" d="M0,6.892,5.044,0" transform="matrix(-0.995, -0.105, 0.105, -0.995, 62.51, 23.149)" fill="#fff" stroke="#0077c0" stroke-width="1"/>
    </g>
    <g id="グループ_1094" data-name="グループ 1094" transform="translate(86.633 41.342) rotate(-4)">
      <path id="パス_704-3" data-name="パス 704" d="M62.753,9.756,0,0V3.763L62.493,18.19l2.834-1.457Z" transform="translate(0 0)" fill="#fff" stroke="#0077c0" stroke-width="1"/>
      <path id="パス_705-3" data-name="パス 705" d="M5.046,0,0,6.891" transform="translate(57.652 9.795)" fill="#fff" stroke="#0077c0" stroke-width="1"/>
    </g>
    <g id="グループ_1104" data-name="グループ 1104" transform="matrix(-0.996, 0.087, -0.087, -0.996, 151.916, 53.467)">
      <path id="パス_710" data-name="パス 710" d="M50.731,7.887,0,0V3.042L50.52,14.7l2.291-1.177Z" transform="translate(57.083 29.423) rotate(167)" fill="#fff" stroke="#0077c0" stroke-width="1"/>
      <g id="グループ_1099" data-name="グループ 1099" transform="matrix(-0.819, 0.574, -0.574, -0.819, 59.68, 22.637)">
        <path id="パス_413-13" data-name="パス 413" d="M2,6.549l48.74,7.578V11.2L2.2,0,0,1.131Z" transform="matrix(-0.995, -0.105, 0.105, -0.995, 50.46, 19.353)" fill="#fff" stroke="#0077c0" stroke-width="1"/>
        <path id="パス_414-13" data-name="パス 414" d="M0,5.353,3.918,0" transform="matrix(-0.995, -0.105, 0.105, -0.995, 48.551, 17.98)" fill="#fff" stroke="#0077c0" stroke-width="1"/>
      </g>
      <g id="グループ_1100" data-name="グループ 1100" transform="matrix(-0.966, 0.259, -0.259, -0.966, 58.111, 23.309)">
        <path id="パス_411-9" data-name="パス 411" d="M48.741,7.578,0,0V2.923L48.538,14.128,50.739,13Z" transform="translate(0 0)" fill="#fff" stroke="#0077c0" stroke-width="1"/>
        <path id="パス_412-9" data-name="パス 412" d="M3.918,0,0,5.353" transform="translate(44.778 7.607)" fill="#fff" stroke="#0077c0" stroke-width="1"/>
      </g>
      <g id="グループ_1101" data-name="グループ 1101" transform="matrix(-0.966, 0.259, -0.259, -0.966, 70.686, 23.949)">
        <path id="パス_413-14" data-name="パス 413" d="M2.56,8.39,65,18.1V14.354L2.819,0,0,1.448Z" transform="matrix(-0.995, -0.105, 0.105, -0.995, 64.644, 24.794)" fill="#fff" stroke="#0077c0" stroke-width="1"/>
        <path id="パス_414-14" data-name="パス 414" d="M0,6.857,5.019,0" transform="matrix(-0.995, -0.105, 0.105, -0.995, 62.199, 23.034)" fill="#fff" stroke="#0077c0" stroke-width="1"/>
      </g>
      <g id="グループ_1097" data-name="グループ 1097" transform="matrix(0.978, 0.208, -0.208, 0.978, 35.472, 6.521)">
        <path id="パス_413-15" data-name="パス 413" d="M2.08,6.817,52.81,14.7V11.662L2.291,0,0,1.177Z" transform="matrix(-0.995, -0.105, 0.105, -0.995, 52.521, 20.144)" fill="#fff" stroke="#0077c0" stroke-width="1"/>
        <path id="パス_414-15" data-name="パス 414" d="M0,5.571,4.078,0" transform="matrix(-0.995, -0.105, 0.105, -0.995, 50.534, 18.714)" fill="#fff" stroke="#0077c0" stroke-width="1"/>
      </g>
      <path id="パス_709" data-name="パス 709" d="M50.731,7.887,0,0V3.042L50.52,14.7l2.291-1.177Z" transform="matrix(-1, 0.017, -0.017, -1, 59.68, 20.116)" fill="#fff" stroke="#0077c0" stroke-width="1"/>
      <g id="グループ_1098" data-name="グループ 1098" transform="matrix(-1, 0.017, -0.017, -1, 68.666, 25.993)">
        <path id="パス_413-16" data-name="パス 413" d="M2.08,6.817,52.81,14.7V11.662L2.291,0,0,1.177Z" transform="matrix(-0.995, -0.105, 0.105, -0.995, 52.521, 20.144)" fill="#fff" stroke="#0077c0" stroke-width="1"/>
        <path id="パス_414-16" data-name="パス 414" d="M0,5.571,4.078,0" transform="matrix(-0.995, -0.105, 0.105, -0.995, 50.534, 18.714)" fill="#fff" stroke="#0077c0" stroke-width="1"/>
      </g>
      <g id="グループ_1103" data-name="グループ 1103" transform="translate(44.03 17.527) rotate(-4)">
        <path id="パス_704-4" data-name="パス 704" d="M50.731,7.887,0,0V3.042L50.52,14.7l2.291-1.177Z" transform="translate(0 0)" fill="#fff" stroke="#0077c0" stroke-width="1"/>
        <path id="パス_705-4" data-name="パス 705" d="M4.079,0,0,5.571" transform="translate(46.605 7.918)" fill="#fff" stroke="#0077c0" stroke-width="1"/>
      </g>
    </g>
    <g id="グループ_1099-2" data-name="グループ 1099" transform="translate(108.541 25.885) rotate(154)">
      <path id="パス_413-17" data-name="パス 413" d="M2,6.549l48.74,7.578V11.2L2.2,0,0,1.131Z" transform="matrix(-0.995, -0.105, 0.105, -0.995, 50.46, 19.353)" fill="#fff" stroke="#0077c0" stroke-width="1"/>
      <path id="パス_414-17" data-name="パス 414" d="M0,5.353,3.918,0" transform="matrix(-0.995, -0.105, 0.105, -0.995, 48.551, 17.98)" fill="#fff" stroke="#0077c0" stroke-width="1"/>
    </g>
    <g id="グループ_1100-2" data-name="グループ 1100" transform="matrix(-0.995, 0.105, -0.105, -0.995, 102.781, 26.309)">
      <path id="パス_411-10" data-name="パス 411" d="M48.741,7.578,0,0V2.923l48.538,11.2L50.739,13Z" transform="translate(0 0)" fill="#fff" stroke="#0077c0" stroke-width="1"/>
      <path id="パス_412-10" data-name="パス 412" d="M3.918,0,0,5.353" transform="translate(44.778 7.607)" fill="#fff" stroke="#0077c0" stroke-width="1"/>
    </g>
    <g id="グループ_1101-2" data-name="グループ 1101" transform="matrix(-0.995, 0.105, -0.105, -0.995, 130.353, 24.658)">
      <path id="パス_413-18" data-name="パス 413" d="M2.56,8.39,65,18.1V14.354L2.819,0,0,1.448Z" transform="matrix(-0.995, -0.105, 0.105, -0.995, 64.644, 24.794)" fill="#fff" stroke="#0077c0" stroke-width="1"/>
      <path id="パス_414-18" data-name="パス 414" d="M0,6.857,5.019,0" transform="matrix(-0.995, -0.105, 0.105, -0.995, 62.199, 23.034)" fill="#fff" stroke="#0077c0" stroke-width="1"/>
    </g>
    <g id="グループ_1098-2" data-name="グループ 1098" transform="translate(130.7 30.536) rotate(-172)">
      <path id="パス_413-19" data-name="パス 413" d="M2.08,6.817,52.81,14.7V11.662L2.291,0,0,1.177Z" transform="matrix(-0.995, -0.105, 0.105, -0.995, 52.521, 20.144)" fill="#fff" stroke="#0077c0" stroke-width="1"/>
      <path id="パス_414-19" data-name="パス 414" d="M0,5.571,4.078,0" transform="matrix(-0.995, -0.105, 0.105, -0.995, 50.534, 18.714)" fill="#fff" stroke="#0077c0" stroke-width="1"/>
    </g>
    <g id="グループ_1103-2" data-name="グループ 1103" transform="matrix(0.996, 0.087, -0.087, 0.996, 93.883, 18.391)">
      <path id="パス_704-5" data-name="パス 704" d="M50.731,7.887,0,0V3.042L50.52,14.7l2.291-1.177Z" transform="translate(0 0)" fill="#fff" stroke="#0077c0" stroke-width="1"/>
      <path id="パス_705-5" data-name="パス 705" d="M4.079,0,0,5.571" transform="translate(46.605 7.918)" fill="#fff" stroke="#0077c0" stroke-width="1"/>
    </g>
    <g id="グループ_1105" data-name="グループ 1105" transform="matrix(0.545, 0.839, -0.839, 0.545, 124.626, 1.668)">
      <path id="パス_419-3" data-name="パス 419" d="M2.88,3.76c-8.4,18.8,4.255,16.289,4.255,16.289S16.151,18.721,11.051,9.1c.158.286.08.144,0,0C5.673-.472,4.784,0,4.784,0Z" transform="translate(0 0)" fill="#fff" stroke="#0077c0" stroke-linejoin="round" stroke-width="1.2"/>
      <path id="パス_420-3" data-name="パス 420" d="M0,0,1.592,18.063" transform="translate(4.896 1.116)" fill="#fff" stroke="#0077c0" stroke-width="1.2"/>
      <path id="パス_421-3" data-name="パス 421" d="M0,0,5.492,1.791" transform="translate(0.332 13.183)" fill="#fff" stroke="#0077c0" stroke-width="1"/>
      <path id="パス_422-3" data-name="パス 422" d="M0,4.013,4.281,0" transform="translate(5.822 7.279)" fill="#fff" stroke="#0077c0" stroke-width="1"/>
    </g>
  </g>
</svg>
