<?xml version="1.0" encoding="UTF-8"?><svg id="_レイヤー_2" xmlns="http://www.w3.org/2000/svg" width="243.94mm" height="195.8mm" xmlns:xlink="http://www.w3.org/1999/xlink" viewBox="0 0 691.48 555.03"><defs><style>.cls-1{fill:none;}.cls-2{fill:url(#linear-gradient);}.cls-3{clip-path:url(#clippath);}.cls-4{fill:#004ea2;}.cls-5{fill:#00a73c;}.cls-6{fill:#e9f3fb;}.cls-7{fill:#b65820;}.cls-8{fill:#1f9ad2;}.cls-9{fill:#0a68af;}.cls-10{fill:#169e3d;}.cls-11{fill:#3e3a39;}.cls-12{clip-path:url(#clippath-1);}.cls-13{clip-path:url(#clippath-4);}.cls-14{clip-path:url(#clippath-3);}.cls-15{clip-path:url(#clippath-2);}.cls-16{fill:url(#linear-gradient-3);}.cls-17{fill:url(#linear-gradient-2);}</style><linearGradient id="linear-gradient" x1="212.9" y1="278.09" x2="237.95" y2="346.9" gradientUnits="userSpaceOnUse"><stop offset=".1" stop-color="#5eadd9"/><stop offset=".22" stop-color="#509dce"/><stop offset=".9" stop-color="#084a95"/></linearGradient><linearGradient id="linear-gradient-2" x1="233.76" y1="297.05" x2="268.6" y2="297.05" gradientUnits="userSpaceOnUse"><stop offset=".05" stop-color="#5eadd9"/><stop offset=".27" stop-color="#55a9d8"/><stop offset=".64" stop-color="#3ca0d6"/><stop offset="1" stop-color="#1e95d4"/></linearGradient><linearGradient id="linear-gradient-3" x1="246.9" y1="338.6" x2="273.47" y2="306.93" gradientUnits="userSpaceOnUse"><stop offset=".1" stop-color="#5eadd9"/><stop offset=".24" stop-color="#56a4d2"/><stop offset=".46" stop-color="#418bc2"/><stop offset=".74" stop-color="#1e64a7"/><stop offset=".9" stop-color="#084a95"/></linearGradient><clipPath id="clippath"><rect class="cls-1" x="316.53" y="481.08" width="15.46" height="19.4" transform="translate(648.53 981.56) rotate(180)"/></clipPath><clipPath id="clippath-1"><rect class="cls-1" x="123.1" y="481.08" width="15.46" height="19.4" transform="translate(261.67 981.56) rotate(180)"/></clipPath><clipPath id="clippath-2"><rect class="cls-1" x="142.53" y="415.13" width="15.46" height="19.4" transform="translate(-43.89 831.48) rotate(-135)"/></clipPath><clipPath id="clippath-3"><rect class="cls-1" x="107.79" y="251.91" width="15.46" height="19.4" transform="translate(-151.15 158.31) rotate(-45)"/></clipPath><clipPath id="clippath-4"><rect class="cls-1" x="447.85" y="256.8" width="19.4" height="15.46" transform="translate(-53.04 401.02) rotate(-45)"/></clipPath></defs><g id="_レイヤー_1-2"><ellipse class="cls-6" cx="386.12" cy="277.52" rx="220.73" ry="348.56" transform="translate(-71.59 406.38) rotate(-51.43)"/><path class="cls-4" d="M203.64,352.04h-3.18c-3.2,0-4.97,2.13-4.97,4.24,0,2.43,1.7,4.43,4.9,4.43h3.32c3.19,0,4.89-2,4.89-4.43,0-2.11-1.77-4.24-4.96-4.24Zm-.65,6.76h-1.87c-1.96,0-3.13-.99-3.13-2.52,0-1.32,1.12-2.24,3.19-2.24h1.75c2.07,0,3.19,.92,3.19,2.24,0,1.52-1.17,2.52-3.13,2.52Z"/><path class="cls-4" d="M219,348.24v4.03h-3.62c-3.05,0-4.75,2-4.75,4.01,0,2.32,1.63,4.23,4.68,4.23h6.16v-12.28h-2.47Zm-2.89,10.36c-1.88,0-3.02-.85-3.02-2.31,0-1.26,1.1-2.01,3.08-2.01h2.84v4.32h-2.89Z"/><path class="cls-4" d="M234.68,352.27h0s-5.52,0-5.52,0c-3.05,0-4.75,2-4.75,4.01,0,2.32,1.63,4.23,4.68,4.23h6.65v-8.24h-1.07Zm-4.79,6.32c-1.88,0-3.02-.85-3.02-2.31,0-1.26,1.1-2.01,3.08-2.01h3.33v4.32h-3.39Z"/><path class="cls-4" d="M271.59,360.61c3.02,0,5.02-1.45,5.02-3.55v-4.72h-2.35v4.29c0,1.47-1.15,2.12-2.67,2.12s-2.67-.65-2.67-2.12v-4.29h-2.34v4.72c0,2.1,2,3.55,5.01,3.55Z"/><polygon class="cls-4" points="248.08 360.51 251.45 360.51 245.99 356.53 250.68 352.35 247.57 352.35 241.98 357.42 241.98 352.34 239.57 352.34 239.57 360.51 241.51 360.51 244.45 357.9 248.08 360.51"/><polygon class="cls-4" points="261.88 352.35 258.75 356.03 255.06 352.35 252.14 352.35 257.36 357.66 254.93 360.51 257.87 360.51 264.78 352.35 261.88 352.35"/><path class="cls-2" d="M243.8,330.93c-6.39-12.74-9.84-28.94-10.03-40.14-11.56-5.38-23.83-12.34-29.72-9.43-4.31,2.49-3.86,7.88-.63,14.91,8.2,17.86,34.1,39.51,39.87,43.14,3.41,2.15,5.93,2.85,7.8,2.71-2.75-3.15-5.18-6.98-7.29-11.19Z"/><path class="cls-17" d="M268.6,302.85c-.7-2.26-2.63-3.64-5.97-5.84-7.55-4.97-20.85-10.37-28.52-12.77-.27,1.88-.38,4.1-.34,6.55,11.28,5.25,23.07,11.91,31.24,19.08,1.61-2.42,2.87-4.79,3.59-7.01Z"/><path class="cls-8" d="M204.05,281.35c5.88-2.91,18.16,4.05,29.72,9.43-.04-2.45,.07-4.66,.34-6.55-6.99-2.21-13.73-3.74-19.05-4.23-5.49-.51-8.46-.13-11.01,1.34Z"/><path class="cls-16" d="M260.13,332.99c4.96-9.2,8.61-23.31,8.78-27.29,.05-1.11-.05-2.04-.3-2.85-.73,2.22-1.98,4.59-3.59,7.01-5.13,7.68-13.92,15.84-21.2,21.07,2.11,4.21,4.54,8.04,7.29,11.19,4.03-.31,7.69-6.62,9.04-9.12Z"/><path class="cls-9" d="M292.8,515.99h-87.48v-60.24l28.08,18.17v-19.06l29.32,20.24v-20.26l30.08,21.23v39.92Zm-85.48-2h83.48v-36.89l-26.08-18.41v20.21l-29.32-20.24v18.93l-28.08-18.17v54.56Z"/><polygon class="cls-9" points="227.97 471.63 225.97 471.63 225.97 436.45 215.99 436.45 215.99 462.96 213.99 462.96 213.99 434.45 227.97 434.45 227.97 471.63"/><rect class="cls-9" x="214.99" y="442.39" width="12.39" height="2"/><rect class="cls-9" x="214.99" y="449.15" width="12.39" height="2"/><g><rect class="cls-9" x="220.77" y="488.97" width="9.5" height="9.5"/><path class="cls-9" d="M231.27,499.47h-11.5v-11.5h11.5v11.5Zm-9.5-2h7.5v-7.5h-7.5v7.5Z"/></g><g><rect class="cls-9" x="244.31" y="488.97" width="9.5" height="9.5"/><path class="cls-9" d="M254.81,499.47h-11.5v-11.5h11.5v11.5Zm-9.5-2h7.5v-7.5h-7.5v7.5Z"/></g><g><rect class="cls-9" x="267.85" y="488.97" width="9.5" height="9.5"/><path class="cls-9" d="M278.35,499.47h-11.5v-11.5h11.5v11.5Zm-9.5-2h7.5v-7.5h-7.5v7.5Z"/></g><g><path class="cls-9" d="M226.3,526.86v8.99h-2.25v-.9h-4.07v5.62h-2.27v-5.62h-4.05v.99h-2.16v-9.08h6.21v-3.11h2.27v3.11h6.32Zm-8.59,5.98v-3.87h-4.05v3.87h4.05Zm6.34,0v-3.87h-4.07v3.87h4.07Z"/><path class="cls-9" d="M234.07,530.93v9.63h-2.12v-16.13h6.9v6.5h-4.77Zm0-4.95v.95h2.77v-.95h-2.77Zm2.77,3.42v-1.03h-2.77v1.03h2.77Zm10.3,8.62c0,1.15-.23,1.78-.96,2.12-.7,.36-1.75,.41-3.29,.41-.05-.45-.25-1.12-.47-1.67h-4.46v.92h-1.95v-7.8h6.93v6.39c.7,.02,1.37,.02,1.6,0,.32,0,.43-.11,.43-.4v-7.04h-4.9v-6.54h7.06v13.59Zm-9.18-4.43v1.08h2.97v-1.08h-2.97Zm2.97,3.73v-1.12h-2.97v1.12h2.97Zm1.19-11.34v.95h2.86v-.95h-2.86Zm2.86,3.46v-1.06h-2.86v1.06h2.86Z"/><path class="cls-9" d="M259.38,526.8c-.22,3.64-.79,6.46-1.73,8.7,1.85,2.18,4.3,2.7,7.02,2.72,.74,0,3.08,0,3.96-.04-.32,.5-.67,1.49-.79,2.07h-3.28c-3.08,0-5.82-.59-7.9-2.9-.88,1.41-2,2.49-3.37,3.33-.29-.56-.85-1.35-1.28-1.75,1.37-.74,2.49-1.91,3.31-3.46-.47-.85-.88-1.8-1.24-2.92-.31,.72-.67,1.37-1.04,1.94-.31-.4-1.13-1.22-1.6-1.6,1.44-2.09,2.18-5.54,2.52-9.11l2.12,.25c-.11,.88-.23,1.75-.38,2.61h2.02l.38-.05,1.28,.2Zm-4.03,1.66c-.09,.43-.2,.85-.31,1.26,.32,1.42,.74,2.61,1.22,3.6,.47-1.4,.79-3.04,.99-4.86h-1.91Zm7.17-.14c0,2.52-.27,6.19-1.87,8.61-.36-.34-1.24-.9-1.71-1.08,1.5-2.21,1.62-5.35,1.62-7.54v-3.33h5.35v9.54c0,.63,.04,.7,.23,.7h.38c.2,0,.25-.34,.29-1.69,.4,.29,1.08,.58,1.57,.7-.14,1.84-.59,2.47-1.67,2.47h-.97c-1.39,0-1.69-.54-1.69-2.18v-7.74h-1.51v1.55Z"/><path class="cls-9" d="M278.53,536.96c-1.98,.7-4.14,1.39-5.87,1.94l-.49-2.18c.63-.16,1.37-.36,2.2-.59v-4.23h-1.82v-1.96h1.82v-3.17h-1.98v-2h5.94v2h-1.93v3.17h1.62v1.96h-1.62v3.6c.59-.18,1.19-.36,1.76-.56l.36,2.02Zm10.7,1.1v1.95h-11.58v-1.95h4.97v-1.71h-3.73v-1.93h3.73v-1.55h-3.6v-8.37h9.4v8.37h-3.62v1.55h3.82v1.93h-3.82v1.71h4.43Zm-8.28-10.24h1.86v-1.5h-1.86v1.5Zm0,3.24h1.86v-1.55h-1.86v1.55Zm5.44-4.74h-1.78v1.5h1.78v-1.5Zm0,3.19h-1.78v1.55h1.78v-1.55Z"/></g><path class="cls-9" d="M87.48,515.99H0v-60.24l28.08,18.17v-19.06l29.32,20.24v-20.26l30.08,21.23v39.92Zm-85.48-2H85.48v-36.89l-26.08-18.41v20.21l-29.32-20.24v18.93l-28.08-18.17v54.56Z"/><polygon class="cls-9" points="22.65 471.63 20.65 471.63 20.65 436.45 10.67 436.45 10.67 462.96 8.67 462.96 8.67 434.45 22.65 434.45 22.65 471.63"/><rect class="cls-9" x="9.67" y="442.39" width="12.39" height="2"/><rect class="cls-9" x="9.67" y="449.15" width="12.39" height="2"/><g><rect class="cls-9" x="15.45" y="488.97" width="9.5" height="9.5"/><path class="cls-9" d="M25.95,499.47H14.45v-11.5h11.5v11.5Zm-9.5-2h7.5v-7.5h-7.5v7.5Z"/></g><g><rect class="cls-9" x="38.99" y="488.97" width="9.5" height="9.5"/><path class="cls-9" d="M49.49,499.47h-11.5v-11.5h11.5v11.5Zm-9.5-2h7.5v-7.5h-7.5v7.5Z"/></g><g><rect class="cls-9" x="62.53" y="488.97" width="9.5" height="9.5"/><path class="cls-9" d="M73.03,499.47h-11.5v-11.5h11.5v11.5Zm-9.5-2h7.5v-7.5h-7.5v7.5Z"/></g><g><path class="cls-9" d="M21.04,533.3c-.49,1.69-1.26,3.1-2.27,4.23,.9,.59,1.98,1.04,3.17,1.33-.41,.4-.97,1.17-1.26,1.67-1.28-.38-2.4-.94-3.35-1.67-.92,.7-1.94,1.26-3.06,1.67-.2-.41-.59-1.01-.95-1.44v1.46h-2.05v-1.46c-2.07,.2-4.12,.38-5.71,.52l-.16-1.84c.47-.04,1.01-.05,1.57-.11v-5.47h-1.4v-1.69H21.56v1.69H13.31v6.59c.92-.31,1.8-.74,2.56-1.3-.65-.77-1.21-1.67-1.64-2.67l1.19-.32h-1.66v-1.64h5.6l.36-.07,1.31,.5Zm-1.55-3.46H7.66v-5.53h11.83v5.53Zm-10.57,2.36v.72h2.34v-.72h-2.34Zm0,2.97h2.34v-.76h-2.34v.76Zm0,2.36c.76-.05,1.55-.11,2.34-.18v-.7h-2.34v.88Zm8.43-11.85h-7.63v.74h7.63v-.74Zm0,2.03h-7.63v.76h7.63v-.76Zm-1.31,6.79c.31,.65,.72,1.24,1.21,1.76,.49-.52,.9-1.12,1.22-1.76h-2.43Z"/><path class="cls-9" d="M28.22,534.58c-.18,1.69-.56,3.49-1.08,4.65-.38-.23-1.17-.61-1.64-.77,.52-1.06,.81-2.67,.95-4.18l1.76,.31Zm13.58-8.46c-.68,1.73-1.69,3.22-2.9,4.5,1.19,.92,2.56,1.66,4,2.12-.45,.43-1.06,1.22-1.35,1.75-1.5-.59-2.86-1.46-4.09-2.54-1.26,1.04-2.65,1.85-4.05,2.45-.13-.27-.36-.63-.63-.97l-1.31,.59c-.05-.27-.13-.56-.22-.88l-.92,.07v7.36h-1.85v-7.24l-2.61,.16-.18-1.85,1.3-.05c.27-.34,.56-.74,.85-1.15-.52-.77-1.39-1.73-2.12-2.45l1.03-1.46c.13,.11,.27,.23,.41,.36,.5-.99,1.01-2.18,1.31-3.13l1.85,.68c-.65,1.22-1.37,2.63-2.02,3.62,.22,.25,.43,.49,.61,.72,.61-1.01,1.19-2.03,1.6-2.92l1.75,.81c-.99,1.57-2.23,3.38-3.37,4.84l1.73-.07c-.2-.45-.41-.9-.63-1.3l1.42-.59c.5,.9,1.01,1.98,1.31,2.9,1.19-.49,2.32-1.13,3.33-1.91-.5-.56-.95-1.17-1.37-1.8-.49,.54-1.01,1.06-1.6,1.55-.32-.45-1.01-1.12-1.48-1.39,1.96-1.49,3.24-3.47,3.91-5.17l2.09,.34c-.2,.45-.41,.92-.67,1.37h3.21l.32-.07,1.33,.74Zm-9.92,8.01c.45,1.03,.92,2.34,1.12,3.24l-1.58,.58c-.16-.9-.63-2.29-1.04-3.35l1.51-.47Zm2.66,2.21c2.32,.63,5.11,1.8,6.77,2.7l-1.24,1.67c-1.57-.99-4.43-2.2-6.77-2.86l1.24-1.51Zm1.91-3.04c1.3,.5,2.84,1.31,3.73,1.96l-1.24,1.49c-.85-.68-2.41-1.6-3.69-2.11l1.21-1.35Zm-.58-6.01c.43,.7,.95,1.39,1.57,2.03,.61-.63,1.13-1.31,1.57-2.03h-3.13Z"/><path class="cls-9" d="M54.06,526.8c-.22,3.64-.79,6.46-1.73,8.7,1.85,2.18,4.3,2.7,7.02,2.72,.74,0,3.08,0,3.96-.04-.32,.5-.67,1.49-.79,2.07h-3.28c-3.08,0-5.82-.59-7.9-2.9-.88,1.41-2,2.49-3.37,3.33-.29-.56-.85-1.35-1.28-1.75,1.37-.74,2.49-1.91,3.31-3.46-.47-.85-.88-1.8-1.24-2.92-.31,.72-.67,1.37-1.04,1.94-.31-.4-1.13-1.22-1.6-1.6,1.44-2.09,2.18-5.54,2.52-9.11l2.12,.25c-.11,.88-.23,1.75-.38,2.61h2.02l.38-.05,1.28,.2Zm-4.03,1.66c-.09,.43-.2,.85-.31,1.26,.32,1.42,.74,2.61,1.22,3.6,.47-1.4,.79-3.04,.99-4.86h-1.91Zm7.17-.14c0,2.52-.27,6.19-1.87,8.61-.36-.34-1.24-.9-1.71-1.08,1.5-2.21,1.62-5.35,1.62-7.54v-3.33h5.35v9.54c0,.63,.04,.7,.23,.7h.38c.2,0,.25-.34,.29-1.69,.4,.29,1.08,.58,1.57,.7-.14,1.84-.59,2.47-1.67,2.47h-.97c-1.39,0-1.69-.54-1.69-2.18v-7.74h-1.51v1.55Z"/><path class="cls-9" d="M73.22,536.96c-1.98,.7-4.14,1.39-5.87,1.94l-.49-2.18c.63-.16,1.37-.36,2.2-.59v-4.23h-1.82v-1.96h1.82v-3.17h-1.98v-2h5.94v2h-1.93v3.17h1.62v1.96h-1.62v3.6c.59-.18,1.19-.36,1.76-.56l.36,2.02Zm10.7,1.1v1.95h-11.58v-1.95h4.97v-1.71h-3.73v-1.93h3.73v-1.55h-3.6v-8.37h9.4v8.37h-3.62v1.55h3.82v1.93h-3.82v1.71h4.43Zm-8.28-10.24h1.86v-1.5h-1.86v1.5Zm0,3.24h1.86v-1.55h-1.86v1.55Zm5.44-4.74h-1.78v1.5h1.78v-1.5Zm0,3.19h-1.78v1.55h1.78v-1.55Z"/></g><path class="cls-9" d="M87.48,347.6H0v-60.24l28.08,18.17v-19.06l29.32,20.23v-20.26l30.08,21.23v39.92Zm-85.48-2H85.48v-36.89l-26.08-18.41v20.21l-29.32-20.23v18.93l-28.08-18.17v54.56Z"/><polygon class="cls-9" points="22.65 303.24 20.65 303.24 20.65 268.06 10.67 268.06 10.67 294.57 8.67 294.57 8.67 266.06 22.65 266.06 22.65 303.24"/><rect class="cls-9" x="9.67" y="274" width="12.39" height="2"/><rect class="cls-9" x="9.67" y="280.77" width="12.39" height="2"/><g><rect class="cls-9" x="15.45" y="320.58" width="9.5" height="9.5"/><path class="cls-9" d="M25.95,331.08H14.45v-11.5h11.5v11.5Zm-9.5-2h7.5v-7.5h-7.5v7.5Z"/></g><g><rect class="cls-9" x="38.99" y="320.58" width="9.5" height="9.5"/><path class="cls-9" d="M49.49,331.08h-11.5v-11.5h11.5v11.5Zm-9.5-2h7.5v-7.5h-7.5v7.5Z"/></g><g><rect class="cls-9" x="62.53" y="320.58" width="9.5" height="9.5"/><path class="cls-9" d="M73.03,331.08h-11.5v-11.5h11.5v11.5Zm-9.5-2h7.5v-7.5h-7.5v7.5Z"/></g><g><path class="cls-9" d="M3.11,356.79c-.04,.4-.05,.79-.05,1.37v6.09c0,.45,.02,1.15,.05,1.57H.44c.02-.34,.09-1.04,.09-1.58v-6.07c0-.34-.02-.97-.07-1.37H3.11Zm8.3-.16c-.04,.5-.07,1.08-.07,1.8v3.57c0,3.87-.76,5.53-2.09,7-1.19,1.31-3.06,2.2-4.38,2.61l-1.89-1.98c1.8-.41,3.31-1.1,4.41-2.27,1.22-1.35,1.46-2.7,1.46-5.51v-3.42c0-.72-.04-1.3-.11-1.8h2.66Z"/><path class="cls-9" d="M30.76,359.84c.95,0,1.49-.04,1.98-.13v2.39c-.4-.04-1.03-.05-1.98-.05h-1.33v.59c0,4.47-1.08,7.18-5.42,9.09l-1.93-1.82c3.47-1.21,5-2.77,5-7.18v-.68h-4.27v2.45c0,.79,.05,1.53,.07,1.89h-2.52c.05-.36,.11-1.08,.11-1.89v-2.45h-1.53c-.9,0-1.55,.04-1.95,.07v-2.45c.32,.05,1.04,.16,1.95,.16h1.53v-1.78c0-.68-.07-1.28-.11-1.62h2.56c-.05,.34-.11,.92-.11,1.64v1.76h4.27v-1.89c0-.72-.05-1.31-.11-1.67h2.56c-.04,.36-.11,.95-.11,1.67v1.89h1.33Z"/><path class="cls-9" d="M46.56,369.04c0,.79,.04,1.91,.16,2.36h-2.84c.07-.43,.13-1.57,.13-2.36v-5.91c-1.85,.94-4.11,1.87-6.19,2.45l-1.3-2.2c3.15-.68,6.18-2.02,8.19-3.26,1.82-1.13,3.69-2.74,4.7-4.07l1.93,1.75c-1.37,1.37-2.99,2.72-4.77,3.87v7.36Z"/><path class="cls-9" d="M70.32,359.4c-.2,.34-.45,.85-.59,1.3-.49,1.6-1.51,4-3.13,6.01-1.71,2.09-3.89,3.73-7.27,5.08l-2.12-1.91c3.69-1.1,5.69-2.66,7.26-4.45,1.22-1.4,2.27-3.56,2.56-4.92h-5.06c-1.21,1.57-2.77,3.15-4.54,4.36l-2.02-1.5c3.15-1.93,4.72-4.25,5.62-5.8,.27-.45,.65-1.28,.81-1.89l2.63,.86c-.43,.63-.88,1.44-1.1,1.84l-.05,.09h3.62c.56,0,1.15-.09,1.57-.22l1.84,1.13Z"/><path class="cls-9" d="M73.86,369.94c1.58-1.12,2.56-2.77,3.06-4.3,.5-1.55,.52-4.95,.52-7.13,0-.72-.05-1.21-.16-1.64h2.65c-.02,.07-.13,.88-.13,1.62,0,2.12-.05,5.92-.54,7.74-.54,2.04-1.66,3.8-3.21,5.17l-2.2-1.46Zm8.34,.27c.07-.34,.14-.85,.14-1.33v-10.5c0-.81-.13-1.5-.14-1.55h2.68c-.02,.05-.13,.76-.13,1.57v9.42c1.46-.63,3.24-2.05,4.45-3.8l1.39,1.98c-1.49,1.94-4.09,3.89-6.1,4.92-.38,.2-.56,.36-.79,.54l-1.49-1.24Z"/></g><path class="cls-7" d="M228.92,119.01h-61.53l30.54-27.81,30.99,27.81Zm-56.37-2h51.14l-25.76-23.11-25.38,23.11Z"/><path class="cls-7" d="M220.54,144.51h-44.8v-27.56h44.8v27.56Zm-42.8-2h40.8v-23.56h-40.8v23.56Z"/><g><rect class="cls-7" x="193.25" y="125.56" width="9.79" height="17.78"/><path class="cls-7" d="M204.04,144.34h-11.79v-19.78h11.79v19.78Zm-9.79-2h7.79v-15.78h-7.79v15.78Z"/></g><path class="cls-7" d="M309.27,144.13h-68.06v-37h68.06v37Zm-66.06-2h64.06v-33h-64.06v33Z"/><path class="cls-7" d="M287.69,144.13h-24.89v-20.84h24.89v20.84Zm-22.89-2h20.89v-16.84h-20.89v16.84Z"/><path class="cls-7" d="M312.72,109.05h-74.96v-21.94h74.96v21.94Zm-72.96-2h70.96v-17.94h-70.96v17.94Z"/><rect class="cls-7" x="261.86" y="85.29" width="26.75" height="25.57"/><rect class="cls-7" x="273.91" y="124.13" width="2" height="19.31"/><rect class="cls-7" x="239.41" y="96.49" width="71.46" height="2"/><g><path class="cls-7" d="M218.76,164.45c-.58,.18-1.15,.36-1.73,.52v4.56c0,.99-.16,1.53-.7,1.87-.56,.34-1.31,.41-2.5,.4-.05-.52-.29-1.4-.52-1.98,.63,.04,1.26,.04,1.48,.02,.22,0,.31-.07,.31-.31v-3.98c-.59,.18-1.19,.34-1.71,.49l-.47-2.05c.61-.13,1.37-.32,2.18-.52v-3.11h-1.89v-1.96h1.89v-3.38h1.95v3.38h1.64v1.96h-1.64v2.59l1.46-.41,.27,1.93Zm2.81-9.47h1.91v7.58c0,3.62-.38,6.99-3.51,9.24-.36-.43-1.1-1.1-1.53-1.42,1.24-.86,2-1.89,2.45-3.04-.72,.31-1.44,.58-2.11,.83l-.81-1.85c.9-.23,2.14-.61,3.46-1.03,.07-.56,.11-1.13,.13-1.71h-2.48v-1.87h2.5v-1.85h-2.67v-1.93h2.67v-2.94Zm8.3,12.5h-3.12v4.3h-2.02v-16.8h2.02v2.94h2.81v1.93h-2.81v1.85h2.63v1.87h-2.63v1.98h3.12v1.93Z"/><path class="cls-7" d="M249.33,164.16v7.62h-2.23v-1.03h-9.97v1.04h-2.18v-7.63h2.18v4.48h3.76v-5.44h-5.22v-6.54h2.12v4.45h3.1v-5.96h2.2v5.96h3.28v-4.45h2.25v6.54h-5.53v5.44h4.01v-4.48h2.23Z"/><path class="cls-7" d="M268.32,169.49c.59,0,.7-.47,.79-3.06,.47,.38,1.39,.76,1.98,.9-.22,3.22-.76,4.16-2.59,4.16h-2.16c-2.03,0-2.56-.68-2.56-2.79v-5.51h-2.7c-.32,3.75-1.15,6.82-5.46,8.57-.25-.54-.85-1.33-1.33-1.75,3.75-1.4,4.25-3.84,4.47-6.82h-4.07v-2.09h16.06v2.09h-4.75v5.51c0,.68,.11,.79,.7,.79h1.62Zm.77-11.18h-12.78v-2.07h12.78v2.07Z"/></g><path class="cls-9" d="M449.28,344.37h-10.14v-20.9c0-5.24,17.05-27.38,18.99-29.88l.3-.39h7.18l-16.33,51.17Zm-8.14-2h6.68l15.06-47.17h-3.47c-7.19,9.31-18.27,24.89-18.27,28.27v18.9Z"/><path class="cls-9" d="M539.52,344.38h-19.01l.34-1.26c.16-.6,.25-1.21,.25-1.83,0-3.07-1.97-5.74-4.91-6.64l-.71-.22v-32.15h15.96c4.45,0,8.08,3.62,8.08,8.08v34.02Zm-16.49-2h14.49v-32.02c0-3.35-2.73-6.08-6.08-6.08h-13.96v28.71c3.39,1.35,5.62,4.6,5.62,8.3h0c0,.37-.02,.73-.07,1.09Z"/><path class="cls-9" d="M507.83,344.37h-13.24l.35-1.27c1.02-3.69-1.15-7.52-4.84-8.53-3.69-1.02-7.52,1.15-8.54,4.84-.33,1.21-.33,2.48,0,3.69l.35,1.27h-7.57l.35-1.27c1.02-3.69-1.15-7.52-4.84-8.53-1.79-.49-3.66-.26-5.27,.65-1.61,.91-2.77,2.4-3.26,4.19-.33,1.21-.33,2.48,0,3.69l.35,1.27h-9.6l15.43-51.17h45.65v41.18l-.75,.19c-3.68,.95-5.91,4.72-4.96,8.41l.39,1.38Zm-10.7-2h8.16c-.52-4.12,1.92-8.1,5.86-9.5v-37.67h-42.16l-14.23,47.17h4.38c-.15-1.17-.06-2.35,.25-3.49,.64-2.3,2.13-4.22,4.21-5.4,2.08-1.18,4.49-1.48,6.79-.84,4.33,1.2,7.04,5.4,6.49,9.73h2.51c-.15-1.17-.06-2.35,.25-3.49,.64-2.3,2.13-4.22,4.21-5.4,2.08-1.18,4.49-1.48,6.79-.84,2.3,.64,4.22,2.13,5.4,4.21,.96,1.7,1.34,3.62,1.1,5.52Z"/><path class="cls-9" d="M514.16,347.63c-3.5,0-6.35-2.85-6.35-6.35s2.85-6.35,6.35-6.35,6.35,2.85,6.35,6.35-2.85,6.35-6.35,6.35Zm0-10.7c-2.4,0-4.35,1.95-4.35,4.35s1.95,4.35,4.35,4.35,4.35-1.95,4.35-4.35-1.95-4.35-4.35-4.35Z"/><path class="cls-9" d="M488.13,347.63c-3.5,0-6.35-2.85-6.35-6.35s2.85-6.35,6.35-6.35,6.35,2.85,6.35,6.35-2.85,6.35-6.35,6.35Zm0-10.7c-2.4,0-4.35,1.95-4.35,4.35s1.95,4.35,4.35,4.35,4.35-1.95,4.35-4.35-1.95-4.35-4.35-4.35Z"/><path class="cls-9" d="M467.96,347.63c-3.5,0-6.35-2.85-6.35-6.35s2.85-6.35,6.35-6.35,6.35,2.85,6.35,6.35-2.85,6.35-6.35,6.35Zm0-10.7c-2.4,0-4.35,1.95-4.35,4.35s1.95,4.35,4.35,4.35,4.35-1.95,4.35-4.35-1.95-4.35-4.35-4.35Z"/><polygon class="cls-9" points="466.17 320.82 464.26 320.22 470.89 298.94 508.81 298.94 508.81 300.94 472.36 300.94 466.17 320.82"/><g><path id="_パス_395-2" class="cls-9" d="M538.51,310.35v16.62s-12.11,0-12.11,0v-23.7s5.05,0,5.05,0c3.9,0,7.06,3.17,7.07,7.08Z"/><path class="cls-9" d="M539.51,327.97h-14.12v-25.7h6.05c4.45,0,8.06,3.63,8.07,8.07v17.62Zm-12.12-2h10.12v-15.62c0-3.34-2.72-6.07-6.07-6.08h-4.05v21.7Z"/></g><g><path class="cls-9" d="M464.35,357.3c-.49,4.21-1.57,7.58-3.17,10.19,1.03,1.35,2.29,2.45,3.83,3.19-.5,.41-1.21,1.28-1.53,1.87-1.48-.81-2.7-1.85-3.71-3.13-1.1,1.26-2.36,2.3-3.8,3.11-.32-.54-.92-1.4-1.42-1.82v1.84h-2.09v-4.5c-1.44,.42-2.9,.79-4.12,1.12l-.49-2.2c.38-.07,.79-.16,1.24-.25v-8.88h2v8.41l1.37-.32v-10.07h2.09v14.8c1.48-.74,2.79-1.85,3.89-3.26-1.22-2.2-2.07-4.84-2.68-7.83l2.05-.38c.43,2.23,1.08,4.32,2,6.1,.95-1.78,1.67-3.87,2.09-6.23h-6.72v-2.11h7.35l.36-.07,1.46,.41Z"/><path class="cls-9" d="M479.76,368.47c1.62,.94,3.78,1.75,5.76,2.18-.45,.42-1.04,1.21-1.33,1.71-2.11-.58-4.39-1.66-6.18-2.95v3.15h-2.11v-3.08c-1.78,1.3-4.11,2.39-6.21,2.97-.32-.52-.92-1.31-1.37-1.76,2.05-.43,4.29-1.26,5.96-2.21h-5.37v-1.71h6.99v-.7h-4.95v-4.86c-.32,.31-.67,.59-1.03,.88-.34-.49-1.04-1.13-1.51-1.44,2-1.44,3.46-3.33,4.27-4.9l2.21,.41c-.29,.52-.61,1.03-.97,1.55h2.56c.32-.65,.61-1.37,.79-1.94l2.41,.29c-.31,.58-.65,1.15-.97,1.66h5.38v1.66h-5.65v.74h4.77v1.4h-4.77v.76h4.79v1.4h-4.79v.77h6.18v1.62h-6.61v.7h7.08v1.71h-5.33Zm-3.37-9.11h-3.4v.74h3.4v-.74Zm0,2.14h-3.4v.76h3.4v-.76Zm-3.4,2.94h3.4v-.77h-3.4v.77Z"/><path class="cls-9" d="M493.11,361.86c1.26,0,2.3,1.04,2.3,2.3s-1.04,2.3-2.3,2.3-2.3-1.04-2.3-2.3,1.04-2.3,2.3-2.3Z"/><path class="cls-9" d="M505.01,368.48c.7,1.21,1.96,1.71,3.8,1.78,2.16,.09,6.41,.04,8.89-.16-.25,.5-.56,1.5-.67,2.09-2.23,.11-6.05,.14-8.25,.05-2.14-.09-3.58-.61-4.66-2-.72,.7-1.46,1.39-2.38,2.16l-1.01-2.12c.7-.45,1.51-1.04,2.23-1.66v-3.92h-2.02v-1.96h4.05v5.74Zm-1.28-8.07c-.5-.88-1.69-2.12-2.7-2.99l1.64-1.22c1.01,.81,2.25,2,2.83,2.86l-1.76,1.35Zm6.64,8.26h-4.66v-1.55h4.66v-.67h-3.66v-5.28h3.66v-.63h-4v-1.48h4v-.94h2.09v.94h4.12v1.48h-4.12v.63h3.82v5.28h-3.82v.67h4.9v1.55h-4.9v1.19h-2.09v-1.19Zm-2.63-9.9h-1.87v-2.47h11.31v2.47h-1.98v-.95h-7.45v.95Zm.79,4.45h1.84v-.7h-1.84v.7Zm1.84,1.94v-.7h-1.84v.7h1.84Zm2.09-2.65v.7h1.91v-.7h-1.91Zm1.91,1.94h-1.91v.7h1.91v-.7Z"/><path class="cls-9" d="M537.67,364.11c-.32,2.07-.92,3.78-1.73,5.15,.7,.77,1.55,1.4,2.54,1.82-.41,.36-.95,1.04-1.22,1.51-.94-.45-1.73-1.06-2.41-1.82-.67,.74-1.42,1.33-2.27,1.8-.2-.41-.61-1.04-.99-1.4-.05,.52-.22,.85-.58,1.08-.47,.29-1.12,.32-2.11,.32-.04-.45-.25-1.21-.45-1.64,.58,.02,1.17,.02,1.37,0,.2,0,.25-.05,.25-.27v-5.55l-2.03,.23c-.05,2.38-.38,5.31-1.55,7.27-.25-.29-.92-.79-1.26-.96,.99-1.73,1.22-4.1,1.28-6.16l-.88,.09-.07-.54-.61,.23v5.17c0,.88-.16,1.37-.65,1.69-.5,.31-1.17,.38-2.18,.38-.05-.5-.29-1.3-.5-1.82,.52,.02,1.04,.02,1.22,.02,.2,0,.25-.07,.25-.29v-4.41c-.43,.16-.86,.32-1.26,.47l-.52-1.91c.5-.16,1.12-.36,1.78-.61v-2.85h-1.51v-1.93h1.51v-3.44h1.85v3.44h1.01v1.93h-1.01v2.18l.83-.32,.16,.81,.59-.05v-5.64h1.48c.18-.77,.36-1.67,.45-2.36l1.98,.4c-.27,.65-.54,1.35-.77,1.96h1.95v5.19l.56-.05,.04,1.62-.59,.07v5.74c0,.13,0,.23-.02,.34,.83-.4,1.55-1.01,2.18-1.76-.58-.97-1.03-2.07-1.37-3.29l1.57-.38c.22,.74,.49,1.44,.85,2.07,.32-.63,.59-1.33,.79-2.09h-3.28v-1.73h3.91l.32-.05,1.12,.32Zm-7.6-.68v-3.66h-2.02v3.85l2.02-.2Zm-.99-3.26c.36,.74,.74,1.67,.9,2.25l-1.03,.63c-.13-.61-.5-1.62-.85-2.34l.97-.54Zm.41,9.74h-.99v-4.12h.99v4.12Zm4.61-10.93c0,1.4-.2,3.29-1.17,4.52-.27-.29-.9-.81-1.26-.99,.81-1.08,.86-2.45,.86-3.57v-2.5h3.96v4.68c0,.32,0,.52,.02,.58,.04,.07,.07,.09,.14,.09h.16c.07,0,.13-.02,.14-.07,.05-.05,.09-.16,.13-.4,.04-.25,.04-.81,.05-1.51,.27,.27,.77,.5,1.17,.65-.02,.68-.09,1.53-.18,1.82-.09,.31-.27,.52-.49,.65-.18,.14-.49,.18-.74,.18h-.67c-.34,0-.74-.11-.97-.34-.23-.27-.32-.59-.32-1.67v-3.02h-.85v.92Z"/></g><g><rect class="cls-9" x="169.7" y="325.21" width="2.5" height="1"/><path class="cls-9" d="M167.65,326.21h-5.12v-1h5.12v1Zm-7.17,0h-5.12v-1h5.12v1Zm-7.17,0h-5.12v-1h5.12v1Zm-7.17,0h-5.12v-1h5.12v1Zm-7.17,0h-5.12v-1h5.12v1Zm-7.17,0h-5.12v-1h5.12v1Zm-7.17,0h-5.12v-1h5.12v1Zm-7.17,0h-5.12v-1h5.12v1Zm-7.17,0h-5.12v-1h5.12v1Zm-7.17,0h-5.12v-1h5.12v1Z"/><rect class="cls-9" x="93.5" y="325.21" width="2.5" height="1"/></g><g><rect class="cls-9" x="423.68" y="325.21" width="2.5" height="1"/><path class="cls-9" d="M421.69,326.21h-4.99v-1h4.99v1Zm-6.98,0h-4.99v-1h4.99v1Zm-6.98,0h-4.99v-1h4.99v1Zm-6.98,0h-4.99v-1h4.99v1Zm-6.98,0h-4.99v-1h4.99v1Zm-6.98,0h-4.99v-1h4.99v1Zm-6.98,0h-4.99v-1h4.99v1Zm-6.98,0h-4.99v-1h4.99v1Zm-6.98,0h-4.99v-1h4.99v1Zm-6.98,0h-4.99v-1h4.99v1Zm-6.98,0h-4.99v-1h4.99v1Zm-6.98,0h-4.99v-1h4.99v1Zm-6.98,0h-4.99v-1h4.99v1Zm-6.98,0h-4.99v-1h4.99v1Zm-6.98,0h-4.99v-1h4.99v1Zm-6.98,0h-4.99v-1h4.99v1Z"/><rect class="cls-9" x="307.48" y="325.21" width="2.5" height="1"/></g><g><rect class="cls-7" x="243.37" y="178.72" width="1" height="2.5"/><path class="cls-7" d="M244.37,260.82h-1v-5.17h1v5.17Zm0-7.24h-1v-5.17h1v5.17Zm0-7.24h-1v-5.17h1v5.17Zm0-7.24h-1v-5.17h1v5.17Zm0-7.24h-1v-5.17h1v5.17Zm0-7.24h-1v-5.17h1v5.17Zm0-7.24h-1v-5.17h1v5.17Zm0-7.24h-1v-5.17h1v5.17Zm0-7.24h-1v-5.17h1v5.17Zm0-7.24h-1v-5.17h1v5.17Zm0-7.24h-1v-5.17h1v5.17Z"/><rect class="cls-7" x="243.37" y="262.89" width="1" height="2.5"/></g><g><rect class="cls-9" x="187.57" y="377.78" width="2.5" height="1" transform="translate(-192.05 194.73) rotate(-37.74)"/><path class="cls-9" d="M86.43,458.19l-.61-.79,4.04-3.12,.61,.79-4.04,3.12Zm5.65-4.38l-.61-.79,4.04-3.12,.61,.79-4.04,3.12Zm5.65-4.38l-.61-.79,4.04-3.12,.61,.79-4.04,3.12Zm5.65-4.38l-.61-.79,4.04-3.12,.61,.79-4.04,3.12Zm5.65-4.38l-.61-.79,4.04-3.12,.61,.79-4.04,3.12Zm5.65-4.38l-.61-.79,4.04-3.12,.61,.79-4.04,3.12Zm5.65-4.38l-.61-.79,4.04-3.12,.61,.79-4.04,3.12Zm5.65-4.38l-.61-.79,4.04-3.12,.61,.79-4.04,3.12Zm5.65-4.37l-.61-.79,4.04-3.12,.61,.79-4.04,3.12Zm5.65-4.38l-.61-.79,4.04-3.12,.61,.79-4.04,3.12Zm5.65-4.38l-.61-.79,4.04-3.12,.61,.79-4.04,3.12Zm5.65-4.38l-.61-.79,4.04-3.12,.61,.79-4.04,3.12Zm5.65-4.38l-.61-.79,4.04-3.12,.61,.79-4.04,3.12Zm5.65-4.38l-.61-.79,4.04-3.12,.61,.79-4.04,3.12Zm5.65-4.38l-.61-.79,4.04-3.12,.61,.79-4.04,3.12Zm5.65-4.38l-.61-.79,4.04-3.12,.61,.79-4.04,3.12Zm5.65-4.38l-.61-.79,4.04-3.12,.61,.79-4.04,3.12Zm5.65-4.38l-.61-.79,4.04-3.12,.61,.79-4.04,3.12Z"/><rect class="cls-9" x="82.27" y="459.31" width="2.5" height="1" transform="translate(-263.98 147.33) rotate(-37.74)"/></g><g><rect class="cls-10" x="298.13" y="377.03" width="1" height="2.5" transform="translate(-183.31 382.16) rotate(-52.17)"/><path class="cls-10" d="M391.61,451.1l-3.88-3.01,.61-.79,3.88,3.01-.61,.79Zm-5.43-4.22l-3.88-3.01,.61-.79,3.88,3.01-.61,.79Zm-5.43-4.21l-3.88-3.01,.61-.79,3.88,3.01-.61,.79Zm-5.43-4.21l-3.88-3.01,.61-.79,3.88,3.01-.61,.79Zm-5.43-4.21l-3.88-3.01,.61-.79,3.88,3.01-.61,.79Zm-5.43-4.21l-3.88-3.01,.61-.79,3.88,3.01-.61,.79Zm-5.43-4.21l-3.88-3.01,.61-.79,3.88,3.01-.61,.79Zm-5.43-4.21l-3.88-3.01,.61-.79,3.88,3.01-.61,.79Zm-5.43-4.21l-3.88-3.01,.61-.79,3.88,3.01-.61,.79Zm-5.43-4.21l-3.88-3.01,.61-.79,3.88,3.01-.61,.79Zm-5.43-4.21l-3.88-3.01,.61-.79,3.88,3.01-.61,.79Zm-5.43-4.22l-3.88-3.01,.61-.79,3.88,3.01-.61,.79Zm-5.43-4.21l-3.88-3.01,.61-.79,3.88,3.01-.61,.79Zm-5.43-4.21l-3.88-3.01,.61-.79,3.88,3.01-.61,.79Zm-5.43-4.21l-3.88-3.01,.61-.79,3.88,3.01-.61,.79Zm-5.43-4.21l-3.88-3.01,.61-.79,3.88,3.01-.61,.79Zm-5.43-4.21l-3.88-3.01,.61-.79,3.88,3.01-.61,.79Z"/><rect class="cls-10" x="393.95" y="451.43" width="1" height="2.5" transform="translate(-205.01 486.61) rotate(-52.17)"/></g><path class="cls-9" d="M244.45,447.77h-1v-5h1v5Zm0-7h-1v-5h1v5Zm0-7h-1v-5h1v5Zm0-7h-1v-5h1v5Zm0-7h-1v-5h1v5Zm0-7h-1v-5h1v5Zm0-7h-1v-5h1v5Zm0-7h-1v-5h1v5Zm0-7h-1v-5h1v5Zm0-7h-1v-5h1v5Z"/><path class="cls-5" d="M389.52,510.49h-9.69v-19.83c0-4.97,16.14-25.94,17.98-28.31l.3-.39h6.9l-15.49,48.52Zm-7.69-2h6.23l14.22-44.52h-3.18c-6.8,8.81-17.26,23.52-17.26,26.7v17.83Z"/><path class="cls-5" d="M474.92,510.49h-18.12l.35-1.26c.15-.56,.23-1.14,.23-1.72,0-2.88-1.85-5.38-4.61-6.23l-.71-.22v-30.52h15.16c4.24,0,7.7,3.45,7.7,7.7v32.25Zm-15.6-2h13.6v-30.25c0-3.14-2.55-5.7-5.7-5.7h-13.16v27.07c3.21,1.29,5.32,4.38,5.32,7.89,0,.33-.02,.66-.06,.98Z"/><path class="cls-5" d="M444.94,510.49h-12.65l.35-1.27c.96-3.46-1.08-7.06-4.54-8.01-3.46-.95-7.05,1.08-8.01,4.54-.31,1.13-.31,2.33,0,3.47l.35,1.27h-7.31l.35-1.27c.46-1.68,.25-3.43-.61-4.95-.86-1.51-2.25-2.6-3.93-3.06-3.46-.96-7.05,1.08-8.01,4.54-.31,1.13-.31,2.33,0,3.47l.35,1.27h-9.23l14.64-48.52h43.29v39.06l-.75,.19c-1.67,.43-3.08,1.49-3.96,2.98-.88,1.49-1.12,3.23-.69,4.91l.38,1.38Zm-10.13-2h7.6c-.22-1.83,.16-3.68,1.12-5.3,1.02-1.72,2.57-3.01,4.43-3.67v-35.55h-39.8l-13.43,44.52h4.01c-.13-1.09-.05-2.2,.25-3.27,1.25-4.52,5.95-7.19,10.47-5.94,2.19,.61,4.02,2.03,5.14,4.01,.91,1.6,1.27,3.41,1.05,5.2h2.25c-.13-1.09-.05-2.2,.25-3.27,1.25-4.52,5.95-7.19,10.47-5.94,4.1,1.13,6.68,5.1,6.19,9.21Z"/><path class="cls-5" d="M450.87,513.58c-3.34,0-6.06-2.72-6.06-6.06s2.72-6.06,6.06-6.06,6.06,2.72,6.06,6.06-2.72,6.06-6.06,6.06Zm0-10.12c-2.24,0-4.06,1.82-4.06,4.06s1.82,4.06,4.06,4.06,4.06-1.82,4.06-4.06-1.82-4.06-4.06-4.06Z"/><path class="cls-5" d="M426.24,513.58c-3.34,0-6.06-2.72-6.06-6.06s2.72-6.06,6.06-6.06,6.06,2.72,6.06,6.06-2.72,6.06-6.06,6.06Zm0-10.12c-2.24,0-4.06,1.82-4.06,4.06s1.82,4.06,4.06,4.06,4.06-1.82,4.06-4.06-1.82-4.06-4.06-4.06Z"/><path class="cls-5" d="M407.16,513.58c-3.34,0-6.06-2.72-6.06-6.06s2.72-6.06,6.06-6.06,6.06,2.72,6.06,6.06-2.72,6.06-6.06,6.06Zm0-10.12c-2.24,0-4.06,1.82-4.06,4.06s1.82,4.06,4.06,4.06,4.06-1.82,4.06-4.06-1.82-4.06-4.06-4.06Z"/><polygon class="cls-5" points="405.52 488.17 403.61 487.57 409.89 467.4 445.81 467.4 445.81 469.4 411.36 469.4 405.52 488.17"/><g><path id="_パス_395-2-2" class="cls-5" d="M473.92,478.25v15.73s-11.46,0-11.46,0v-22.42s4.78,0,4.78,0c3.69,0,6.69,3,6.69,6.69Z"/><path class="cls-5" d="M474.92,494.97h-13.46v-24.42h5.78c4.24,0,7.69,3.46,7.69,7.7v16.73Zm-11.46-2h9.46v-14.73c0-3.14-2.55-5.69-5.69-5.7h-3.78v20.42Z"/></g><polygon class="cls-5" points="509.34 499.77 507.34 499.77 507.34 445.54 518.78 445.54 518.78 433.3 550.05 433.3 550.05 445.01 562.56 445.01 562.56 498.71 560.56 498.71 560.56 447.01 548.05 447.01 548.05 435.3 520.78 435.3 520.78 447.54 509.34 447.54 509.34 499.77"/><path class="cls-5" d="M581.19,513.74h-91.41v-10.52h91.41v10.52Zm-89.41-2h87.41v-6.52h-87.41v6.52Z"/><polygon class="cls-5" points="496.57 500.84 494.57 500.84 494.57 464.17 502.48 464.17 502.48 466.17 496.57 466.17 496.57 500.84"/><polygon class="cls-5" points="575.33 500.84 573.33 500.84 573.33 466.17 567.41 466.17 567.41 464.17 575.33 464.17 575.33 500.84"/><rect class="cls-5" x="533.5" y="425.79" width="2" height="7.98"/><g><rect class="cls-5" x="514.53" y="456.9" width="8.67" height="8.67"/><path class="cls-5" d="M524.2,466.56h-10.67v-10.67h10.67v10.67Zm-8.67-2h6.67v-6.67h-6.67v6.67Z"/></g><g><rect class="cls-5" x="529.93" y="456.9" width="8.67" height="8.67"/><path class="cls-5" d="M539.6,466.56h-10.67v-10.67h10.67v10.67Zm-8.67-2h6.67v-6.67h-6.67v6.67Z"/></g><g><rect class="cls-5" x="545.34" y="456.9" width="8.67" height="8.67"/><path class="cls-5" d="M555,466.56h-10.67v-10.67h10.67v10.67Zm-8.67-2h6.67v-6.67h-6.67v6.67Z"/></g><path class="cls-5" d="M524.2,481.03h-10.67v-10.67h10.67v10.67Zm-8.67-2h6.67v-6.67h-6.67v6.67Z"/><path class="cls-5" d="M539.6,481.03h-10.67v-10.67h10.67v10.67Zm-8.67-2h6.67v-6.67h-6.67v6.67Z"/><path class="cls-5" d="M555,481.03h-10.67v-10.67h10.67v10.67Zm-8.67-2h6.67v-6.67h-6.67v6.67Z"/><g><path class="cls-5" d="M466.27,526.06v14.46h-2.29v-.88h-8.55v.9h-2.18v-14.48h4.61c.2-.77,.4-1.64,.49-2.36l2.59,.29c-.27,.72-.56,1.42-.85,2.07h6.18Zm-10.84,2.05v1.85h8.55v-1.85h-8.55Zm0,3.83v1.85h8.55v-1.85h-8.55Zm8.55,5.71v-1.87h-8.55v1.87h8.55Z"/><path class="cls-5" d="M475.21,532.17c-.7-.61-2.21-1.42-3.4-1.89l1.17-1.64c1.15,.4,2.72,1.12,3.49,1.71l-1.26,1.82Zm-2.81,6.73c.95-1.35,2.29-3.58,3.37-5.67l1.58,1.42c-.92,1.87-2.03,3.92-3.1,5.67l-1.85-1.42Zm3.83-11.52c-.68-.63-2.18-1.48-3.35-1.96l1.17-1.64c1.19,.43,2.68,1.21,3.46,1.82l-1.28,1.78Zm.43,2.32c.52-.02,1.12-.04,1.75-.07,.83-1.76,1.66-4.11,2.12-5.91l2.47,.52c-.68,1.76-1.51,3.69-2.3,5.28,1.33-.07,2.75-.16,4.18-.25-.49-.7-1.01-1.4-1.51-2.02l1.87-.95c1.42,1.62,2.9,3.78,3.57,5.26l-1.98,1.12c-.18-.43-.43-.96-.72-1.48-3.31,.25-6.73,.49-9.18,.67l-.25-2.16Zm1.48,3.35h9.02v7.44h-2.18v-.67h-4.77v.74h-2.07v-7.51Zm2.07,1.98v2.83h4.77v-2.83h-4.77Z"/><path class="cls-5" d="M497.91,524.43c-.4,1.15-.88,2.32-1.44,3.48v12.62h-2.03v-9.15c-.36,.49-.74,.97-1.1,1.4-.2-.52-.79-1.69-1.19-2.23,1.51-1.64,2.92-4.2,3.73-6.73l2.03,.61Zm7.29,4.56c.99,2.77,2.65,5.58,4.39,7.22-.49,.38-1.22,1.1-1.6,1.66-.5-.56-.97-1.21-1.44-1.91v1.58h-2.41v2.9h-2.09v-2.9h-2.36v-1.66c-.5,.76-1.03,1.46-1.6,2.03-.36-.5-1.04-1.26-1.53-1.62,1.82-1.62,3.49-4.47,4.48-7.31h-3.55v-2.03h4.56v-3.12h2.09v3.12h4.97v2.03h-3.91Zm-3.15,6.64v-4.57c-.59,1.66-1.35,3.24-2.2,4.57h2.2Zm4.3,0c-.85-1.39-1.6-3.01-2.21-4.7v4.7h2.21Z"/></g><rect class="cls-11" x="331.96" y="488.63" width="22.09" height="3"/><g class="cls-3"><path class="cls-11" d="M334.27,499.23l-14.71-9.23,14.71-9.24,14.71,9.24-14.71,9.23Zm-9.07-9.23l9.07,5.69,9.07-5.69-9.07-5.69-9.07,5.69Z"/></g><rect class="cls-11" x="138.53" y="488.63" width="22.09" height="3"/><g class="cls-12"><path class="cls-11" d="M140.84,499.23l-14.71-9.23,14.71-9.24,14.71,9.24-14.71,9.23Zm-9.07-9.23l9.07,5.69,9.07-5.69-9.07-5.69-9.07,5.69Z"/></g><rect class="cls-11" x="162.47" y="426.58" width="3" height="22.09" transform="translate(-261.42 244.12) rotate(-45)"/><g class="cls-15"><path class="cls-11" d="M168.28,441.76l-16.93-3.87-3.87-16.93,16.93,3.87,3.87,16.93Zm-14.43-6.38l10.44,2.39-2.39-10.44-10.44-2.39,2.39,10.44Z"/></g><rect class="cls-11" x="91.68" y="273.82" width="22.09" height="3" transform="translate(-164.6 153.28) rotate(-45)"/><g class="cls-14"><path class="cls-11" d="M98.6,279.64l3.87-16.93,16.93-3.87-3.87,16.93-16.93,3.87Zm6.38-14.43l-2.39,10.44,10.44-2.39,2.39-10.44-10.44,2.39Z"/></g><rect class="cls-11" x="403.51" y="146.94" width="3" height="131.92" transform="translate(-31.92 348.74) rotate(-45)"/><g class="cls-13"><path class="cls-11" d="M460.33,268.41l-16.94-3.87-3.87-16.94,16.93,3.87,3.87,16.93Zm-14.43-6.38l10.44,2.39-2.39-10.44-10.44-2.39,2.39,10.44Z"/></g><path class="cls-7" d="M387.06,143.31h-56.28V47.14h56.28v96.17Zm-54.28-2h52.28V49.14h-52.28v92.17Z"/><path class="cls-7" d="M368.41,143.31h-18.99v-20.72h18.99v20.72Zm-16.99-2h14.99v-16.72h-14.99v16.72Z"/><rect class="cls-7" x="357.92" y="123.59" width="2" height="18.72"/><rect class="cls-7" x="339.1" y="56.01" width="39.64" height="2"/><rect class="cls-7" x="339.1" y="64.51" width="39.64" height="2"/><rect class="cls-7" x="339.1" y="73" width="39.64" height="2"/><rect class="cls-7" x="339.1" y="81.49" width="39.64" height="2"/><rect class="cls-7" x="339.1" y="89.99" width="39.64" height="2"/><rect class="cls-7" x="339.1" y="98.48" width="39.64" height="2"/><rect class="cls-7" x="339.1" y="106.98" width="39.64" height="2"/><rect class="cls-7" x="339.1" y="115.47" width="39.64" height="2"/><rect class="cls-7" x="345.54" y="37.56" width="26.75" height="10.57"/><g><rect class="cls-7" x="295.67" y="253.68" width="2" height="10.5" transform="translate(-88.91 179.01) rotate(-29.4)"/><rect class="cls-7" x="266.69" y="257.94" width="10.5" height="2" transform="translate(-87.18 368.63) rotate(-60.58)"/><rect class="cls-7" x="270.85" y="259.48" width="26.92" height="2"/><rect class="cls-7" x="283.31" y="228.67" width="2" height="12.23"/><rect class="cls-7" x="281.86" y="253.36" width="4.89" height="2"/><rect class="cls-7" x="272.07" y="248.47" width="3.67" height="2"/><rect class="cls-7" x="292.87" y="248.47" width="3.67" height="2"/><rect class="cls-7" x="268.4" y="239.9" width="31.81" height="2"/><path class="cls-7" d="M297.77,255.36h-8.12l-1.22-4.89h-8.23l-1.22,4.89h-8.12c-1.9,0-3.45-1.55-3.45-3.45v-28.14c0-3.25,2.64-5.89,5.89-5.89h22.02c3.25,0,5.89,2.64,5.89,5.89v28.14c0,1.9-1.55,3.45-3.45,3.45Zm-6.56-2h6.56c.8,0,1.45-.65,1.45-1.45v-28.14c0-2.15-1.75-3.89-3.89-3.89h-22.02c-2.15,0-3.89,1.75-3.89,3.89v28.14c0,.8,.65,1.45,1.45,1.45h6.56l1.22-4.89h11.35l1.22,4.89Z"/><rect class="cls-7" x="278.19" y="222.77" width="12.24" height="2"/><rect class="cls-7" x="268.4" y="227.67" width="31.81" height="2"/></g><g><path class="cls-7" d="M371.24,252.84h-17.09v-31.41h17.09v31.41Zm-15.09-2h13.09v-27.41h-13.09v27.41Z"/><path class="cls-7" d="M328.8,252.84h-11.98v-37.63h11.98v37.63Zm-9.98-2h7.98v-33.63h-7.98v33.63Z"/><path class="cls-7" d="M351.02,210.31h-19.11v-5.95h19.11v5.95Zm-17.11-2h15.11v-1.95h-15.11v1.95Z"/><path class="cls-7" d="M346.75,206.36h-10.55v-5.95h10.55v5.95Zm-8.55-2h6.55v-1.95h-6.55v1.95Z"/><path class="cls-7" d="M356.13,252.84h-29.33v-44.53h29.33v44.53Zm-27.33-2h25.33v-40.53h-25.33v40.53Z"/><path class="cls-7" d="M346.75,252.84h-10.55v-11.43h10.55v11.43Zm-8.55-2h6.55v-7.43h-6.55v7.43Z"/><rect class="cls-7" x="340.47" y="242.42" width="2" height="9.43"/><rect class="cls-7" x="331.49" y="212.17" width="19.96" height="2"/><rect class="cls-7" x="331.49" y="216.45" width="19.96" height="2"/><rect class="cls-7" x="331.49" y="220.73" width="19.96" height="2"/><rect class="cls-7" x="331.49" y="225" width="19.96" height="2"/><rect class="cls-7" x="331.49" y="229.28" width="19.96" height="2"/><rect class="cls-7" x="331.49" y="233.56" width="19.96" height="2"/><rect class="cls-7" x="331.49" y="237.83" width="19.96" height="2"/><rect class="cls-7" x="331.49" y="242.11" width="2.93" height="2"/><rect class="cls-7" x="348.52" y="242.11" width="2.93" height="2"/><rect class="cls-7" x="321.51" y="219.3" width="2.85" height="2"/><rect class="cls-7" x="321.51" y="225" width="2.85" height="2"/><rect class="cls-7" x="321.51" y="230.71" width="2.85" height="2"/><rect class="cls-7" x="321.51" y="236.41" width="2.85" height="2"/><rect class="cls-7" x="321.51" y="242.11" width="2.85" height="2"/><rect class="cls-7" x="357.99" y="225" width="2.85" height="2"/><rect class="cls-7" x="363.7" y="225" width="2.85" height="2"/><rect class="cls-7" x="357.99" y="230.71" width="2.85" height="2"/><rect class="cls-7" x="363.7" y="230.71" width="2.85" height="2"/><rect class="cls-7" x="357.99" y="236.41" width="2.85" height="2"/><rect class="cls-7" x="363.7" y="236.41" width="2.85" height="2"/><rect class="cls-7" x="357.99" y="242.11" width="2.85" height="2"/><rect class="cls-7" x="363.7" y="242.11" width="2.85" height="2"/></g><g><path class="cls-7" d="M352.24,280.02c-1.3,0-2.46-.59-3.24-1.51-.78,.92-1.94,1.51-3.24,1.51s-2.46-.59-3.24-1.51c-.78,.92-1.94,1.51-3.24,1.51s-2.46-.59-3.24-1.51c-.78,.92-1.94,1.51-3.24,1.51s-2.46-.59-3.24-1.51c-.78,.92-1.94,1.51-3.24,1.51s-2.46-.59-3.24-1.51c-.78,.92-1.94,1.51-3.24,1.51s-2.46-.59-3.24-1.51c-.78,.92-1.94,1.51-3.24,1.51-2.34,0-4.24-1.9-4.24-4.24v-3.37l4.3-9.01h38.81l4.3,9.01v3.37c0,2.34-1.9,4.24-4.24,4.24Zm-4.24-4.24h2c0,1.24,1.01,2.24,2.24,2.24s2.24-1.01,2.24-2.24v-2.92l-3.56-7.46h-36.28l-3.56,7.46v2.92c0,1.24,1.01,2.24,2.24,2.24s2.24-1.01,2.24-2.24h2c0,1.24,1.01,2.24,2.24,2.24s2.24-1.01,2.24-2.24h2c0,1.24,1.01,2.24,2.24,2.24s2.24-1.01,2.24-2.24h2c0,1.24,1.01,2.24,2.24,2.24s2.24-1.01,2.24-2.24h2c0,1.24,1.01,2.24,2.24,2.24s2.24-1.01,2.24-2.24h2c0,1.24,1.01,2.24,2.24,2.24s2.24-1.01,2.24-2.24Z"/><rect class="cls-7" x="310.07" y="271.63" width="45.41" height="2"/><polygon class="cls-7" points="317.56 275.77 315.56 275.77 315.56 272.46 318.4 264.07 320.29 264.71 317.56 272.79 317.56 275.77"/><polygon class="cls-7" points="324.05 275.77 322.05 275.77 322.07 272.43 323.74 264.19 325.7 264.59 324.05 272.73 324.05 275.77"/><polygon class="cls-7" points="330.54 275.77 328.54 275.77 328.54 272.63 329.1 264.33 331.09 264.46 330.54 272.69 330.54 275.77"/><polygon class="cls-7" points="337.02 275.77 335.02 275.77 335.02 272.63 334.47 264.46 336.47 264.33 337.02 272.56 337.02 275.77"/><polygon class="cls-7" points="343.51 275.77 341.51 275.77 341.51 272.73 339.86 264.59 341.82 264.19 343.51 272.63 343.51 275.77"/><polygon class="cls-7" points="350 275.77 348 275.77 348 272.79 345.27 264.71 347.16 264.07 350 272.46 350 275.77"/><polygon class="cls-7" points="355.13 301.66 310.43 301.66 310.43 278.53 312.43 278.53 312.43 299.66 353.13 299.66 353.13 278.53 355.13 278.53 355.13 301.66"/><path class="cls-7" d="M330.54,301.66h-14.25v-16.81h14.25v16.81Zm-12.25-2h10.25v-12.81h-10.25v12.81Z"/><path class="cls-7" d="M343.16,295.07h-10.46v-10.22h10.46v10.22Zm-8.46-2h6.46v-6.22h-6.46v6.22Z"/><path class="cls-7" d="M351.62,295.07h-10.46v-10.22h10.46v10.22Zm-8.46-2h6.46v-6.22h-6.46v6.22Z"/></g></g></svg>