<svg id="コンポーネント_23_1" data-name="コンポーネント 23 – 1" xmlns="http://www.w3.org/2000/svg" width="448.21" height="77.967" viewBox="0 0 448.21 77.967">
  <path id="パス_819" data-name="パス 819" d="M0,0H61.543" transform="translate(191.68 76.967)" fill="none" stroke="#28669f" stroke-width="2"/>
  <path id="パス_818" data-name="パス 818" d="M-222.414-26.448c.076.988.076,2.318.076,3.306V-4.484c0,1.52-.076,4.56-.114,4.9h4.142c-.038-.19-.038-1.1-.038-2.128h19.684C-198.7-.646-198.7.228-198.74.418h4.142c0-.3-.076-3.572-.076-4.9V-23.142c0-1.064,0-2.242.076-3.268-1.254.038-2.622.038-3.5.038h-20.634C-219.678-26.372-220.894-26.372-222.414-26.448Zm4.028,3.876h19.722V-5.51h-19.722ZM-157.7-31.54l-2.546,1.064a40.283,40.283,0,0,1,3,5.13l2.584-1.1C-155.42-27.854-156.788-30.21-157.7-31.54Zm4.94-1.14-2.546,1.064a42.11,42.11,0,0,1,3.078,5.092l2.546-1.1A52.721,52.721,0,0,0-152.76-32.68Zm-27.588,7.41v4.18c.988-.038,2.926-.114,4.408-.114h17.746V-4.256h-18.2c-1.634,0-3.306-.114-4.408-.19V-.152c1.1-.076,3-.19,4.522-.19h18.05c0,.836-.038,1.558-.038,2.052h4.332c-.076-.8-.19-2.66-.19-3.99V-21.964c0-.988.076-2.318.114-3.154-.722.038-2.014.076-3.04.076H-175.94C-177.232-25.042-179.018-25.156-180.348-25.27Zm53.5-.8.038,3.876a96.849,96.849,0,0,0,15.922,0v-3.876A70.026,70.026,0,0,1-126.844-26.068Zm2.166,15.808-3.42-.3a19.247,19.247,0,0,0-.646,4.674c0,3.686,2.964,5.928,9.424,5.928a52.137,52.137,0,0,0,9.614-.76l-.076-4.066a40.806,40.806,0,0,1-9.462,1.026c-4.6,0-5.928-1.406-5.928-3.116A13.2,13.2,0,0,1-124.678-10.26ZM-133.456-28.8l-4.218-.38a27.619,27.619,0,0,1-.342,3.154c-.418,3.04-1.634,9.5-1.634,15.162a48.289,48.289,0,0,0,1.406,12.274l3.458-.228c-.038-.456-.076-1.026-.076-1.406a7.427,7.427,0,0,1,.19-1.748c.38-1.9,1.71-5.966,2.7-8.854l-1.9-1.52c-.608,1.406-1.368,3.268-2.014,4.826a37.494,37.494,0,0,1-.228-4.066,91.13,91.13,0,0,1,1.862-14.326A27.252,27.252,0,0,1-133.456-28.8Zm46.664-1.33v3.344h6.764c.152,1.482.3,2.964.532,4.37l-1.292-.19c-1.406,7.524-4.484,13.3-9.88,16.644a23.291,23.291,0,0,1,2.774,2.66c4.484-3.192,7.562-7.866,9.5-14.022,1.71,6.156,4.636,11.058,9.652,14.022A15.465,15.465,0,0,1-65.968-6c-7.676-3.914-10.336-12.92-11.1-24.13Zm-4.1,4.94a29.84,29.84,0,0,0-6.5-5.814l-2.622,2.128a28.549,28.549,0,0,1,6.346,6Zm-1.026,8.056h-8.322v3.268h4.864v8.93a57.284,57.284,0,0,1-5.51,3.914l1.824,3.648C-97.09.988-95.266-.532-93.48-2.09c2.394,2.926,5.662,4.18,10.488,4.37,4.332.19,11.97.114,16.264-.076a16.1,16.1,0,0,1,1.178-3.61c-4.75.3-13.186.418-17.4.266-4.18-.152-7.3-1.368-8.968-3.99ZM-34.5-29.6l-4.142-.38a15.662,15.662,0,0,1-.266,3.23c-.114.76-.266,1.52-.456,2.318a20.068,20.068,0,0,0-9.31,2.546c-.3-.95-.57-1.862-.8-2.7-.266-1.1-.57-2.356-.8-3.458l-3.952,1.216a23.82,23.82,0,0,1,1.406,3.686c.342,1.064.684,2.2,1.064,3.306A16.22,16.22,0,0,0-57.494-7.98c0,4.674,2.622,7.182,5.624,7.182,2.812,0,5.054-1.6,7.486-4.446.494.646,1.026,1.254,1.6,1.9l3-2.432a20.385,20.385,0,0,1-2.2-2.508,48.021,48.021,0,0,0,5.358-12.578,8.816,8.816,0,0,1,7.182,9.044c0,5.358-3.914,9.576-12.046,10.3l2.28,3.42c8.018-1.178,13.6-5.776,13.6-13.566a12.194,12.194,0,0,0-10.146-12.5c.19-.684.342-1.368.494-2.052C-35.074-27.056-34.77-28.614-34.5-29.6ZM-54-8.246a12.505,12.505,0,0,1,3.5-8.132A42.875,42.875,0,0,0-46.93-8.93a6.61,6.61,0,0,1,.418.684c-1.558,2.052-3.306,3.61-4.978,3.61C-53.048-4.636-54-6.042-54-8.246Zm9.348-3.838a42.99,42.99,0,0,1-2.926-6.574,16.427,16.427,0,0,1,7.3-2.394,46.749,46.749,0,0,1-4.028,9.538ZM3.04-9.158-.494-9.5A22.332,22.332,0,0,0-1.14-4.75C-1.14-.988,2.2,1.026,8.4,1.026A58.674,58.674,0,0,0,15.922.494l.114-3.838a42.941,42.941,0,0,1-7.6.76c-4.864,0-5.89-1.558-5.89-3.268A13.95,13.95,0,0,1,3.04-9.158ZM-1.292-30.1l-4.56-.342A15.545,15.545,0,0,1-6-27.018c-.076.722-.266,1.71-.456,2.85-1.33.114-2.622.152-3.8.152a35.809,35.809,0,0,1-4.636-.3l.076,3.724c1.368.114,2.774.152,4.522.152.95,0,1.976-.038,3.078-.076-.3,1.254-.608,2.508-.912,3.686C-9.576-11.514-12.35-3.686-14.592.19L-10.45,1.6a114.792,114.792,0,0,0,6-17.48c.418-1.6.836-3.344,1.216-4.978a68.087,68.087,0,0,0,7.638-1.292v-3.762a66.678,66.678,0,0,1-6.878,1.33c.19-.836.342-1.6.456-2.242C-1.862-27.588-1.52-29.146-1.292-30.1Zm3,11.552v3.534a63.952,63.952,0,0,1,7.182-.418,48.021,48.021,0,0,1,6.46.494l.114-3.648a64.407,64.407,0,0,0-6.65-.3C6.384-18.886,3.762-18.734,1.71-18.544Zm52.782-9.234-4.408-1.558a26.75,26.75,0,0,1-.836,3.116,42.037,42.037,0,0,1-4.75,9.8c-3.04-2.318-7.258-5.244-10.45-7.258l-2.508,3.04a107.9,107.9,0,0,1,10.488,7.486A41.3,41.3,0,0,1,27.246-1.52l3.344,3A47.441,47.441,0,0,0,45.144-10.564a84.776,84.776,0,0,1,8.74,8.588l3.04-3.344a93.07,93.07,0,0,0-9.272-8.588A54.488,54.488,0,0,0,53.124-24.7,28.03,28.03,0,0,1,54.492-27.778Zm29.222,5.586-3.572,1.178a69.5,69.5,0,0,1,3.04,8.36l3.572-1.292C86.26-15.618,84.4-20.6,83.714-22.192Zm13.87,2.432L93.4-21.09a26.375,26.375,0,0,1-5.054,13A25.9,25.9,0,0,1,75.886-.076l3.154,3.23a29.447,29.447,0,0,0,12.5-9.2,30.461,30.461,0,0,0,5.32-11.476C97.014-18.126,97.242-18.81,97.584-19.76ZM74.86-20.216l-3.572,1.292a77.609,77.609,0,0,1,3.458,8.664l3.61-1.33C77.634-13.68,75.734-18.468,74.86-20.216ZM117.99-4.978c0,4.066,1.292,6.042,9.082,6.042a88.219,88.219,0,0,0,11.856-.8l.152-4.1A60.218,60.218,0,0,1,127.148-2.66c-4.37,0-5.206-.836-5.206-3.344V-16.758c6.156-1.254,12.312-2.47,13.186-2.66a35.571,35.571,0,0,1-6.46,8.474l3.306,1.938A54.592,54.592,0,0,0,139.8-20.064c.3-.57.76-1.292,1.064-1.748l-2.85-2.242a8.614,8.614,0,0,1-2.318.8c-1.634.38-7.714,1.6-13.756,2.774v-5.282a26.225,26.225,0,0,1,.3-3.876h-4.522a25.866,25.866,0,0,1,.266,3.876v6c-3.914.722-7.372,1.33-9.12,1.558l.722,3.99c1.558-.342,4.75-1.026,8.4-1.748Zm34.276-11.97v4.712c1.292-.114,3.572-.19,5.662-.19H178.6c1.672,0,3.42.152,4.256.19v-4.712c-.95.076-2.432.228-4.256.228H157.928C155.876-16.72,153.52-16.872,152.266-16.948Zm64.79-11.78-2.584,1.1a33.851,33.851,0,0,1,3.42,5.966l2.66-1.14A55.359,55.359,0,0,0,217.056-28.728Zm5.092-1.824-2.622,1.1A36.93,36.93,0,0,1,223.1-23.6l2.66-1.178A55.659,55.659,0,0,0,222.148-30.552Zm-21.432,1.178-2.166,3.306c2.318,1.33,6.384,3.99,8.322,5.4l2.28-3.268C207.328-25.232,203.072-28.044,200.716-29.374ZM194.408-2.28l2.242,3.914A45.538,45.538,0,0,0,209.266-3.04a45.742,45.742,0,0,0,14.858-13.642l-2.318-4.028a38.8,38.8,0,0,1-14.554,14.1A41.73,41.73,0,0,1,194.408-2.28Zm.494-18.468-2.128,3.268a94.343,94.343,0,0,1,8.436,5.32l2.2-3.382C201.628-16.8,197.3-19.456,194.9-20.748Z" transform="translate(222.452 32.68)" fill="#0077c0"/>
</svg>
