<svg id="コンポーネント_22_1" data-name="コンポーネント 22 – 1" xmlns="http://www.w3.org/2000/svg" width="249.888" height="77.094" viewBox="0 0 249.888 77.094">
  <line id="線_148" data-name="線 148" x2="61.543" transform="translate(94.59 76.094)" fill="none" stroke="#28669f" stroke-width="2"/>
  <path id="パス_817" data-name="パス 817" d="M-125.362-14.174l1.862,3.762a77.747,77.747,0,0,0,14.022-5.89V-3.078a44.034,44.034,0,0,1-.228,4.484h4.712a28.577,28.577,0,0,1-.266-4.484v-15.77A64.1,64.1,0,0,0-95.038-27.17l-3.192-3.04a46.907,46.907,0,0,1-10.564,9.044A62.75,62.75,0,0,1-125.362-14.174ZM-75.7-28.31l-2.774,2.964a82.421,82.421,0,0,1,9.5,8.056l3-3.078A79.74,79.74,0,0,0-75.7-28.31ZM-79.61-2.888l2.546,3.914A41.9,41.9,0,0,0-62.51-4.636,38.853,38.853,0,0,0-49.172-18.392l-2.318-4.142A36.18,36.18,0,0,1-64.676-8.208,39.484,39.484,0,0,1-79.61-2.888Zm59.66-27.056-4.332-1.368a17.8,17.8,0,0,1-1.444,3.42,34.847,34.847,0,0,1-12.16,12.958l3.23,2.508a43.036,43.036,0,0,0,10.032-9.956h12.008a31.146,31.146,0,0,1-4.75,9.576c-2.546-1.748-5.206-3.458-7.486-4.788l-2.622,2.7c2.2,1.406,4.94,3.268,7.562,5.168A32.308,32.308,0,0,1-34.276-.988l3.458,3.04a36.2,36.2,0,0,0,14.1-9.386c1.558,1.254,3,2.432,4.066,3.42l2.812-3.344c-1.178-.95-2.66-2.09-4.256-3.23A43.511,43.511,0,0,0-8.284-21.964,19.121,19.121,0,0,1-7.258-24.32l-3.078-1.9a8.847,8.847,0,0,1-2.85.418h-9.158c.152-.266.266-.494.418-.76C-21.508-27.322-20.71-28.8-19.95-29.944ZM30.7-30.21l-2.47,1.026a45.7,45.7,0,0,1,3.04,5.244L33.744-25A54.721,54.721,0,0,0,30.7-30.21ZM35-31.806,32.566-30.78a35.4,35.4,0,0,1,3.078,5.206l2.47-1.064A46.659,46.659,0,0,0,35-31.806Zm-21.09,3H9.462a22.68,22.68,0,0,1,.266,3.5V-4.522C9.728-1.33,11.476.19,14.554.76a41.407,41.407,0,0,0,6.232.38A111.286,111.286,0,0,0,34.124.38V-3.99a63.462,63.462,0,0,1-13.11,1.254A32.769,32.769,0,0,1,16.264-3c-1.786-.38-2.584-.836-2.584-2.66v-7.752A146.888,146.888,0,0,0,28.918-18.2c1.216-.456,2.736-1.14,3.99-1.634l-1.672-3.838a20.987,20.987,0,0,1-3.686,1.862,104.347,104.347,0,0,1-13.87,4.446v-7.942A34.481,34.481,0,0,1,13.908-28.8ZM74.9-18.088,72.01-19.494a7.7,7.7,0,0,1-2.28.3H58.938a32.877,32.877,0,0,1-3.344-.19v3.952c1.026-.038,2.242-.114,3.382-.114H70.262c-.114,2.128-1.1,8.664-1.634,11.894H55.48a30.874,30.874,0,0,1-3.42-.19V.076C53.352.038,54.226,0,55.48,0H75.962c.912,0,2.508.038,3.23.076V-3.8c-.874.076-2.432.152-3.306.152H72.694c.532-3.534,1.6-10.64,1.9-13.072C74.67-17.1,74.784-17.67,74.9-18.088Zm19.038,1.14v4.712c1.292-.114,3.572-.19,5.662-.19H120.27c1.672,0,3.42.152,4.256.19v-4.712c-.95.076-2.432.228-4.256.228H99.6C97.546-16.72,95.19-16.872,93.936-16.948Z" transform="translate(125.362 31.806)" fill="#0077c0"/>
</svg>
