<svg id="コンポーネント_21_1" data-name="コンポーネント 21 – 1" xmlns="http://www.w3.org/2000/svg" width="550.62" height="133.724" viewBox="0 0 550.62 133.724">
  <line id="線_35" data-name="線 35" x2="61.543" transform="translate(233.86 132.724)" fill="none" stroke="#28669f" stroke-width="2"/>
  <path id="パス_816" data-name="パス 816" d="M-264.632-32.224V-7.79h3.534V-28.956h8.7v-3.268Zm52.668,15.048v-1.292h3.61c1.824,0,3.154.038,3.762.114v-4.028a25.252,25.252,0,0,1-3.8.228h-3.572v-4.408a24.776,24.776,0,0,1,.228-3.306h-4.294a26.236,26.236,0,0,1,.19,3.306v4.408h-10.032v-4.37a20.479,20.479,0,0,1,.228-3.04h-4.294a20.852,20.852,0,0,1,.228,3.04v4.37h-3.724a23.623,23.623,0,0,1-3.952-.3v4.142c.608-.076,2.166-.152,3.952-.152h3.724v5.7c0,1.6-.152,3.154-.19,3.686h4.218a33.791,33.791,0,0,1-.19-3.686v-5.7h10.032v1.52c0,10.07-3.344,13.338-10.45,15.96l3.23,3.04C-214.168-1.938-211.964-7.372-211.964-17.176Zm25.27.228v4.712c1.292-.114,3.572-.19,5.662-.19h20.672c1.672,0,3.42.152,4.256.19v-4.712c-.95.076-2.432.228-4.256.228h-20.672C-183.084-16.72-185.44-16.872-186.694-16.948ZM-126.54-26.98c.114.532.38,1.9.76,3.8-3.458.532-6.612.988-8.018,1.14-1.178.114-2.242.19-3.306.266l.8,4.18c1.216-.3,2.128-.494,3.268-.684,1.33-.228,4.484-.76,7.98-1.33.418,2.2.874,4.636,1.33,6.992-4.1.646-7.98,1.254-9.842,1.52-1.064.152-2.66.342-3.61.38l.874,4.066c.836-.228,1.976-.456,3.534-.722,1.786-.342,5.624-.988,9.766-1.672.646,3.534,1.216,6.384,1.368,7.334.228,1.14.342,2.356.532,3.724l4.37-.8c-.38-1.14-.722-2.47-.988-3.572-.228-1.026-.76-3.876-1.444-7.3,3.534-.57,6.878-1.1,8.854-1.406,1.444-.228,2.812-.494,3.686-.57l-.8-3.99c-.874.266-2.128.532-3.572.836-1.824.342-5.206.912-8.892,1.52-.456-2.356-.912-4.788-1.33-6.954,3.42-.532,6.612-1.026,8.284-1.292,1.064-.152,2.356-.342,3.04-.418l-.722-3.99c-.76.228-1.938.494-3.116.722-1.482.3-4.712.836-8.17,1.406-.38-1.976-.646-3.42-.722-3.876-.19-.836-.3-2.014-.418-2.736l-4.256.684A21.646,21.646,0,0,1-126.54-26.98Zm63.308,8.892-2.888-1.406a7.7,7.7,0,0,1-2.28.3H-79.192a32.877,32.877,0,0,1-3.344-.19v3.952c1.026-.038,2.242-.114,3.382-.114h11.286c-.114,2.128-1.1,8.664-1.634,11.894H-82.65a30.874,30.874,0,0,1-3.42-.19V.076C-84.778.038-83.9,0-82.65,0h20.482c.912,0,2.508.038,3.23.076V-3.8c-.874.076-2.432.152-3.306.152h-3.192c.532-3.534,1.6-10.64,1.9-13.072C-63.46-17.1-63.346-17.67-63.232-18.088Zm29.716-10.564v3.914c1.064-.076,2.432-.114,3.648-.114h14.744c1.292,0,2.812.038,3.762.114v-3.914a36.3,36.3,0,0,1-3.724.19H-29.868A34.762,34.762,0,0,1-33.516-28.652ZM-8.36-18.2l-2.7-1.672a7.539,7.539,0,0,1-2.432.342H-32.946c-1.1,0-2.546-.114-4.028-.266v3.952C-35.53-15.96-33.858-16-32.946-16H-13.6a17.911,17.911,0,0,1-4.218,7.6,25.566,25.566,0,0,1-13.3,6.84l2.964,3.42a28.079,28.079,0,0,0,13.6-8.094,26.887,26.887,0,0,0,5.586-10.64A6.674,6.674,0,0,1-8.36-18.2Zm19.266,1.254v4.712c1.292-.114,3.572-.19,5.662-.19H37.24c1.672,0,3.42.152,4.256.19v-4.712c-.95.076-2.432.228-4.256.228H16.568C14.516-16.72,12.16-16.872,10.906-16.948ZM67.412-29.6l-2.166,3.268C67.6-25,71.668-22.306,73.606-20.9l2.242-3.268C74.062-25.46,69.768-28.272,67.412-29.6ZM61.142-2.508l2.242,3.914A44.524,44.524,0,0,0,76-3.306a45.237,45.237,0,0,0,14.858-13.6L88.54-20.938A39.085,39.085,0,0,1,73.986-6.84,41.73,41.73,0,0,1,61.142-2.508Zm.494-18.468L59.47-17.708a95.1,95.1,0,0,1,8.474,5.32l2.2-3.382C68.362-17.024,64.03-19.722,61.636-20.976Zm51.566-7.6v3.914c1.064-.076,2.47-.114,3.724-.114H132.24c1.178,0,2.584.038,3.8.114v-3.914a32.494,32.494,0,0,1-3.8.266H116.888A29.008,29.008,0,0,1,113.2-28.576Zm-4.484,9.652v3.914c1.026-.076,2.318-.114,3.458-.114h10.982c-.152,3.42-.646,6.46-2.28,9.006a16.3,16.3,0,0,1-7.03,5.662l3.5,2.546a18.266,18.266,0,0,0,7.562-7.068,23.637,23.637,0,0,0,2.356-10.146h9.766c.988,0,2.318.038,3.192.114v-3.914c-.95.114-2.394.19-3.192.19H112.176A33.3,33.3,0,0,1,108.718-18.924ZM156.75-10.26l1.824,3.572a77.621,77.621,0,0,0,11.438-4.788V-.532c0,1.216-.076,3-.152,3.648h4.408a24.223,24.223,0,0,1-.19-3.648V-13.87a53.121,53.121,0,0,0,8.55-6.992l-2.964-2.888a40.839,40.839,0,0,1-9.234,7.9A52.451,52.451,0,0,1,156.75-10.26Zm58.482,13.6V-21.09H211.7V.076H203V3.344Zm70.756-16.682c0-7.942-5.776-14.326-14.9-14.326-9.538,0-16.986,7.3-16.986,15.808,0,6.346,3.458,10.526,7.22,10.526s6.916-4.294,9.2-12.046a75.67,75.67,0,0,0,2.28-10.678c5.852.722,9.2,5.092,9.2,10.6,0,6.118-4.332,9.69-9.2,10.792a23.486,23.486,0,0,1-3.382.532l2.242,3.572C280.9.114,285.988-5.358,285.988-13.338Zm-28.044,1.1c0-4.712,3.99-10.64,10.83-11.742a60.5,60.5,0,0,1-2.09,9.8c-1.748,5.852-3.534,8.322-5.244,8.322C259.806-5.852,257.944-7.866,257.944-12.236ZM-179.74,47.7a33.231,33.231,0,0,1-9.8,7.828,29.512,29.512,0,0,1,2.85,2.47,42.948,42.948,0,0,0,10.678-8.854Zm9.842,1.71a114.942,114.942,0,0,1,10.184,8.55l3.42-2.052a120.508,120.508,0,0,0-10.488-8.322Zm-7.9-15.238h9.8v8.208h-9.8Zm13.49,8.208V34.176h7.3v-3.42h-7.3V23.422H-168v7.334h-9.8V23.422h-3.648v7.334h-7.03v3.42h7.03v8.208h-8.474v3.458h34.162V42.384Zm39.064-5.244v1.824h-9.006V37.14Zm-9.082,5.928c.038-.646.076-1.292.076-1.9h9.006v1.9Zm9.728,7.106V53.9h-7.714V50.174Zm2.508-4.56V34.594h-15.238v5.852c0,4.294-.38,10.26-3.876,14.592a12.651,12.651,0,0,1,2.394,2.128,19,19,0,0,0,3.458-7.22v7.98h3.04V56.558h7.714V57.7h3.116V47.59h-13.338c.114-.646.19-1.33.266-1.976Zm-10.678-15.238a41.393,41.393,0,0,0,3.382-3.8,55.168,55.168,0,0,1,4.218,3.8Zm1.254-6.84A28.668,28.668,0,0,1-141.246,33a9.654,9.654,0,0,1,2.166,2.47,33.957,33.957,0,0,0,5.32-4.142v1.52h9.006v-2.09c.874.912,1.634,1.71,2.242,2.394l2.318-2.66a83.443,83.443,0,0,0-8.132-6.954Zm15.5,4.142h-3.306V48.654h3.306Zm5.016-3.8V53.556c0,.646-.3.874-.912.912-.76,0-2.964.038-5.358-.076a17.615,17.615,0,0,1,1.14,3.572c3.344.038,5.472-.076,6.764-.646,1.33-.608,1.786-1.634,1.786-3.724V23.878Zm39.292.418h-4.332a23.082,23.082,0,0,1,.228,3.42v2.242h-7.068c-1.292,0-3.42-.076-4.712-.228v3.952c1.178-.076,3.42-.152,4.788-.152h14.9a28.515,28.515,0,0,1-7.144,6.384,46.574,46.574,0,0,1-15.466,6.422L-88.2,49.87a61.55,61.55,0,0,0,12.312-4.978v7.486a39.56,39.56,0,0,1-.266,4.484h4.332c-.076-1.178-.19-3.078-.19-4.484V42.422a51.112,51.112,0,0,0,8.36-7.714c.684-.76,1.672-1.824,2.47-2.66l-2.508-2.394a11.232,11.232,0,0,1-2.7.3h-5.548V27.716A30.332,30.332,0,0,1-71.706,24.3Zm11.78,26.03,2.508-3.306a90.85,90.85,0,0,0-9.158-5.472l-2.47,2.85A65.414,65.414,0,0,1-59.926,50.326Zm34.96-17.518-3.572,1.178a69.5,69.5,0,0,1,3.04,8.36l3.572-1.292C-22.42,39.382-24.282,34.4-24.966,32.808ZM-11.1,35.24l-4.18-1.33a26.375,26.375,0,0,1-5.054,13,25.9,25.9,0,0,1-12.464,8.018l3.154,3.23a29.447,29.447,0,0,0,12.5-9.2,30.461,30.461,0,0,0,5.32-11.476C-11.666,36.874-11.438,36.19-11.1,35.24Zm-22.724-.456-3.572,1.292a77.608,77.608,0,0,1,3.458,8.664l3.61-1.33C-31.046,41.32-32.946,36.532-33.82,34.784ZM18.126,51.5a39.78,39.78,0,0,1-.3,4.864H22.5a44.524,44.524,0,0,1-.3-4.864V39.762A99.5,99.5,0,0,1,36.556,45.69l1.71-4.142a128.807,128.807,0,0,0-16.074-6.08V29.54c0-1.33.152-3,.266-4.256H17.784a27.509,27.509,0,0,1,.342,4.256ZM88.844,29.616l-2.926-1.862a13.859,13.859,0,0,1-2.926.228H64.068c-1.672,0-3.23-.038-4.294-.114.076.912.152,1.9.152,2.812v8.094c0,.836-.076,1.71-.152,2.736h4.37a26.673,26.673,0,0,1-.114-2.736V31.706H83.79c-.38,4.332-1.482,8.892-3.534,12.16-3.078,4.788-8.7,8.056-14.06,9.424L69.5,56.672A27.346,27.346,0,0,0,83.9,45.88c2.812-4.446,3.648-9.88,4.332-14.174A11.687,11.687,0,0,1,88.844,29.616Zm19.342,8.436v4.712c1.292-.114,3.572-.19,5.662-.19H134.52c1.672,0,3.42.152,4.256.19V38.052c-.95.076-2.432.228-4.256.228H113.848C111.8,38.28,109.44,38.128,108.186,38.052Zm66.728-12.616-4.408-1.444a16.846,16.846,0,0,1-1.406,3.42A32.249,32.249,0,0,1,157.168,39.99l3.344,2.508a39.683,39.683,0,0,0,9.652-9.31H182.02a28.535,28.535,0,0,1-5.776,11.21c-3.382,3.952-7.9,7.3-15.238,9.5l3.534,3.154c7.106-2.736,11.7-6.194,15.2-10.526a37.609,37.609,0,0,0,6.688-12.92,13.007,13.007,0,0,1,1.064-2.318l-3.116-1.9a8.924,8.924,0,0,1-2.85.38h-9.12c.19-.3.38-.646.532-.95C173.356,28.058,174.154,26.576,174.914,25.436Z" transform="translate(264.632 32.224)" fill="#0077c0"/>
</svg>
