<?xml version="1.0" encoding="UTF-8"?><svg id="_レイヤー_2" xmlns="http://www.w3.org/2000/svg" width="32.96mm" height="25.48mm" viewBox="0 0 93.43 72.22"><defs><style>.cls-1{fill:#0077c0;}</style></defs><g id="_レイヤー_1-2"><g><path class="cls-1" d="M47.33,49.78c0,15.81-11.02,22.44-23.67,22.44S0,65.59,0,49.78V22.44C0,5.92,11.02,0,23.67,0s23.67,5.92,23.67,22.34v27.44ZM23.67,12.04c-6.43,0-9.49,4.08-9.49,11.63v24.89c0,7.55,3.06,11.63,9.49,11.63s9.38-4.08,9.38-11.63V23.67c0-7.55-3.06-11.63-9.38-11.63Z"/><path class="cls-1" d="M93.43,71.3h-14.28V15.81l-10.1,6.63V8.67L80.58,.92h12.85V71.3Z"/></g></g></svg>