<?xml version="1.0" encoding="UTF-8"?><svg id="_レイヤー_2" xmlns="http://www.w3.org/2000/svg" width="37.5mm" height="25.48mm" viewBox="0 0 106.29 72.22"><defs><style>.cls-1{fill:#1171b4;}</style></defs><g id="_レイヤー_1-2"><g><path class="cls-1" d="M47.33,49.78c0,15.81-11.02,22.44-23.67,22.44S0,65.59,0,49.78V22.44C0,5.92,11.02,0,23.67,0s23.67,5.92,23.67,22.34v27.44ZM23.67,12.04c-6.43,0-9.49,4.08-9.49,11.63v24.89c0,7.55,3.06,11.63,9.49,11.63s9.38-4.08,9.38-11.63V23.67c0-7.55-3.06-11.63-9.38-11.63Z"/><path class="cls-1" d="M76.09,28.97h5.2c5.81,0,9.79-3.06,9.79-8.98,0-4.69-3.57-8.16-8.77-8.16s-8.16,3.16-8.77,7.55h-12.65C61.4,7.85,70.89,0,83.03,0c12.85,0,22.24,8.87,22.24,19.38,0,7.96-4.9,12.85-9.59,15.4,6.02,2.96,10.61,8.47,10.61,16.83,0,11.42-7.96,20.61-22.44,20.61s-23.36-8.36-23.87-19.79h12.55c.71,4.49,4.08,7.75,10.41,7.75,5.71,0,9.18-4.08,9.18-9.28,0-6.22-3.57-9.89-10.81-9.89h-5.2v-12.04Z"/></g></g></svg>