<svg xmlns="http://www.w3.org/2000/svg" width="520.465" height="149.519" viewBox="0 0 520.465 149.519">
  <g id="コンポーネント_19_1" data-name="コンポーネント 19 – 1" transform="translate(0 0.5)">
    <path id="パス_853" data-name="パス 853" d="M-247.72-44.88H-263.4v4.95h15.675Zm1.6,7.37h-19.91v5.17h19.91Zm-6.82,27.94v6.325h-5.39V-9.57Zm5.445-5.17h-16.225V4.015h5.39V1.87H-247.5Zm-16.06-2.695h16.17v-4.9h-16.17Zm0-7.425h16.17v-5.005h-16.17Zm28.875,18.59V-18.7h4.29v-5.61h-14.96v5.61h4.62V-5.225c-2.09.33-4.015.66-5.665.88l1.32,6c4.73-.99,10.725-2.255,16.39-3.52l-.44-5.39Zm19.415-23.98v-5.94h-8.14q-.083-3.63,0-7.425a37.675,37.675,0,0,1,4.4,6.93l4.73-2.64a38.773,38.773,0,0,0-4.73-6.71l-4.4,2.255v-2.75h-6.27c0,3.63.055,7.04.11,10.34H-245.3v5.94h15.9c.66,21.89,2.695,34.87,9.515,35.035,2.035.055,4.785-1.87,6.215-10.835a20.589,20.589,0,0,1-4.565-3.9c-.22,4.125-.66,6.655-1.375,6.655-2.09-.165-3.355-11.22-3.74-26.95Zm28.325-13.365-8.855-.11a35.08,35.08,0,0,1,.715,7.425c0,4.73-.55,19.2-.55,26.565,0,9.4,5.83,13.365,14.85,13.365a28.471,28.471,0,0,0,23.87-12.65l-5.005-6.05c-3.96,5.995-9.735,11.22-18.81,11.22-4.29,0-7.59-1.815-7.59-7.37,0-6.82.44-19.14.66-25.08C-187.55-38.5-187.275-41.305-186.945-43.615Zm42.35,5.775.715,7.535c6.38-1.375,17.6-2.585,22.77-3.135a22.149,22.149,0,0,0-8.14,16.995c0,11.88,10.89,18.095,22.385,18.865l2.585-7.535c-9.295-.495-17.765-3.795-17.765-12.815,0-6.545,4.95-13.695,11.6-15.455,2.915-.66,7.645-.66,10.615-.715l-.055-7.04c-3.85.11-9.9.5-15.565.935-10.065.88-19.14,1.705-23.7,2.09C-140.25-38-142.4-37.9-144.6-37.84Zm68.365-3.8.275,7.1c1.43-.22,3.355-.385,4.455-.44,2.53-.165,7.26-.33,9.46-.44-1.265,2.585-2.86,6.325-4.4,9.955-11.055.5-18.81,6.985-18.81,15.51,0,5.555,3.63,8.91,8.47,8.91,3.74,0,6.38-1.54,8.58-4.84,1.925-3.025,4.235-8.525,6.215-13.2A38.134,38.134,0,0,1-48.95-14.63C-50.765-9.625-54.615-4.4-62.92-.825l5.83,4.785c7.37-3.85,11.55-8.69,13.97-14.9a57.345,57.345,0,0,1,4.73,3.85l3.19-7.645c-1.6-1.1-3.575-2.365-5.885-3.685A89.321,89.321,0,0,0-40.04-28.6l-7.2-.825a36.226,36.226,0,0,1,0,6c-.055.605-.11,1.21-.165,1.87a49.489,49.489,0,0,0-11.935-3.52,117.187,117.187,0,0,1,5.5-11.825,13.259,13.259,0,0,1,1.87-2.31l-4.4-3.41a11.816,11.816,0,0,1-3.74.77c-2.585.22-8.415.5-11.55.5C-72.875-41.36-74.745-41.47-76.23-41.635ZM-78.815-11c0-3.465,3.465-7.2,9.625-8.14a61.6,61.6,0,0,1-4.455,8.965C-74.635-8.8-75.4-8.25-76.5-8.25-77.77-8.25-78.815-9.185-78.815-11ZM-11.88-6.215c0-1.87,2.145-3.41,6.05-3.41a30.546,30.546,0,0,1,4.51.385c.055.99.055,1.76.055,2.365,0,3.19-1.925,4.015-4.84,4.015C-9.9-2.86-11.88-4.125-11.88-6.215ZM5.335-44.5H-2.09a22.11,22.11,0,0,1,.33,3.8v2.585H-3.905a102.683,102.683,0,0,1-13.585-1.21l.165,6.27a126.434,126.434,0,0,0,13.475.99h2.035c-.055,1.87-.055,3.85-.055,5.665H-4.51a97.187,97.187,0,0,1-13.255-1.045l.055,6.49c3.63.44,9.9.715,13.09.715h2.86c.055,1.65.11,3.41.22,5.115-1.1-.11-2.255-.165-3.41-.165-8.47,0-13.585,3.9-13.585,9.46,0,5.83,4.62,9.185,13.42,9.185C2.145,3.355,5.72-.275,5.72-4.95c0-.605,0-1.265-.055-2.035A42.157,42.157,0,0,1,16.775.66l3.96-6.16a43.06,43.06,0,0,0-15.4-8.3c-.165-2.2-.275-4.455-.385-6.545,5.28-.165,9.57-.55,14.52-1.1l.055-6.49c-4.455.6-9.13,1.045-14.685,1.32v-5.665c5.335-.275,10.34-.77,13.97-1.21l.055-6.325A115.271,115.271,0,0,1,4.95-38.335c0-.88,0-1.7.055-2.255A37.146,37.146,0,0,1,5.335-44.5Zm68.09,1.32h-7.37a46.27,46.27,0,0,1,.385,5.06V-31.9c-5,.44-10.34.935-15.015,1.375,0-2.145.055-4.015.055-5.28a36.433,36.433,0,0,1,.33-5.72H44.055a42.483,42.483,0,0,1,.44,6.105v5.555c-1.76.165-3.19.275-4.18.385-2.805.275-5.335.385-6.93.385l.77,7.04c1.43-.22,4.84-.77,6.6-.99.935-.11,2.2-.22,3.685-.385,0,5.115,0,10.45.055,12.815C44.77-1.1,46.475,1.87,60.72,1.87A155.591,155.591,0,0,0,76.4.99l.275-7.48A110.808,110.808,0,0,1,60.225-5.115c-8.25,0-8.745-1.21-8.855-6.6-.11-2.365-.055-7.425,0-12.485,4.675-.495,10.065-.99,14.96-1.375a60.6,60.6,0,0,1-.44,6.655c-.11,1.045-.605,1.265-1.705,1.265a29.14,29.14,0,0,1-5.06-.715l-.165,6.1a83.243,83.243,0,0,0,8.305.825c2.805,0,4.18-.715,4.785-3.63a96.491,96.491,0,0,0,.825-11c1.595-.11,3.025-.165,4.235-.22,1.43-.055,4.345-.11,5.28-.055V-33.11c-1.595.165-3.74.275-5.28.385-1.265.055-2.64.165-4.125.275.055-1.815.055-3.8.11-5.94C73.15-39.875,73.315-42.295,73.425-43.175Zm50.16,2.31L115.775-44c-.935,2.31-1.98,4.125-2.7,5.61C110.165-33.165,98.89-10.725,94.82.275l7.755,2.64a115.66,115.66,0,0,1,4.18-12.265c1.98-4.455,5.06-8.305,8.8-8.305a3.018,3.018,0,0,1,3.245,3.08c.165,2.255.11,6.765.33,9.68.22,4.015,3.08,7.645,9.185,7.645,8.415,0,13.53-6.27,16.39-15.675l-5.94-4.84c-1.6,6.82-4.51,12.98-9.3,12.98-1.815,0-3.355-.825-3.575-2.97-.275-2.31-.11-6.71-.22-9.185-.22-4.565-2.695-7.15-6.82-7.15a12.791,12.791,0,0,0-6.325,1.65c2.75-4.84,6.6-11.88,9.295-15.84C122.43-39.16,123.035-40.095,123.585-40.865ZM177.76-43.45l-8.2-.825a60.96,60.96,0,0,1-1.155,11.66c-2.8.22-5.39.385-7.1.44a52.514,52.514,0,0,1-5.885,0l.66,7.48c1.65-.275,4.565-.66,6.1-.935,1.045-.11,2.75-.33,4.73-.55-1.98,7.535-5.775,18.645-11.11,25.85l7.15,2.86c5.06-8.085,9.13-21.12,11.22-29.48,1.54-.11,2.915-.22,3.795-.22,3.465,0,5.335.6,5.335,5.005,0,5.445-.715,12.1-2.2,15.235a4.077,4.077,0,0,1-4.125,2.365,32.224,32.224,0,0,1-6.765-1.155l1.21,7.26a35.58,35.58,0,0,0,6.6.77c4.125,0,7.205-1.21,9.02-5.06,2.365-4.785,3.135-13.695,3.135-20.185,0-7.92-4.125-10.5-9.955-10.5-1.155,0-2.805.11-4.62.22.385-1.98.77-4.015,1.155-5.665C177.045-40.26,177.43-42.02,177.76-43.45Zm18.92,5.17-6.545,2.805c3.9,4.84,7.81,14.8,9.24,20.9l6.985-3.245C204.71-23.045,200.09-33.55,196.68-38.28Zm39.49,24.145h7.095c-.825-7.645,11.165-8.58,11.165-16.665,0-7.315-5.83-11-13.805-11a18.3,18.3,0,0,0-14.19,6.71l4.51,4.18c2.695-2.86,5.39-4.345,8.8-4.345,4.29,0,6.93,1.87,6.93,5.17C246.675-24.75,235.015-22.77,236.17-14.135ZM239.745.495a4.65,4.65,0,0,0,4.84-4.84,4.664,4.664,0,0,0-4.84-4.895,4.694,4.694,0,0,0-4.84,4.895A4.65,4.65,0,0,0,239.745.495Z" transform="translate(266.035 144.232)" fill="#fff"/>
    <path id="合体_2" data-name="合体 2" d="M296.147,62.647c-.379-.023-.738-.25-1.106-.283s-.748-.065-1.116-.109-.753-.033-1.118-.089-.746-.1-1.11-.167-.729-.185-1.089-.266-.71-.244-1.066-.34-.784,0-1.135-.109-.65-.422-1-.551-.7-.258-1.041-.4-.745-.178-1.076-.342-.607-.454-.929-.638-.644-.376-.955-.578-.672-.345-.97-.567-.628-.419-.911-.66-.492-.573-.76-.833-.568-.491-.818-.769-.456-.593-.688-.888-.425-.61-.638-.92-.516-.556-.71-.879-.208-.736-.383-1.07-.4-.631-.551-.975-.331-.667-.469-1.019-.241-.7-.361-1.063S276,48.4,275.9,48.035s-.262-.7-.35-1.066-.218-.712-.293-1.084-.034-.747-.095-1.122-.14-.728-.188-1.1-.112-.733-.149-1.111a.994.994,0,0,1,.351-.827,1.077,1.077,0,0,1,.815-.378c.545,0,.545-.1,1.09-.1s.545.055,1.09.055.544-.11,1.089-.11.544.114,1.088.114.544-.115,1.088-.115.543-.025,1.087-.025.543.071,1.085.071.544.071,1.087.071.543-.032,1.087-.032h1.086c.544,0,.544-.088,1.087-.088.366,0,.64.3.889.537a1.435,1.435,0,0,1,.54.855c.04.4.073.779.142,1.149.073.39.121.776.225,1.137a10.162,10.162,0,0,0,.4,1.088,9.052,9.052,0,0,0,.494,1.048,8.279,8.279,0,0,0,.651.962,7.927,7.927,0,0,0,.76.88,8.208,8.208,0,0,0,.975.634,8.62,8.62,0,0,0,.9.754,10.472,10.472,0,0,0,1.106.378c.351.134.735.188,1.117.292a2.048,2.048,0,0,1,.989.586,1.667,1.667,0,0,1,.238,1.089c0,.546.038.546.038,1.092s-.016.546-.016,1.093-.068.545-.068,1.091.083.545.083,1.091.132.546.132,1.09-.014.544-.014,1.089-.132.543-.132,1.087.127.545.127,1.089a1.38,1.38,0,0,1-.45.921,1.342,1.342,0,0,1-.884.437Zm6.225-.384a1.393,1.393,0,0,1-.4-.942c0-.53.193-.53.193-1.061S302,59.73,302,59.2s.009-.53.009-1.059.09-.53.09-1.059-.17-.53-.17-1.059.174-.529.174-1.058-.084-.528-.084-1.057-.038-.529-.038-1.058a1.5,1.5,0,0,1,.429-.99,1.674,1.674,0,0,1,.946-.535c.373-.049.746-.012,1.09-.081.37-.074.689-.282,1.025-.379.364-.106.757-.069,1.08-.2a8.16,8.16,0,0,0,.976-.494,6.59,6.59,0,0,0,.91-.607,5.137,5.137,0,0,0,.674-.856,4.615,4.615,0,0,0,.655-.86,4.586,4.586,0,0,0,.3-1.041,5.18,5.18,0,0,0,.19-1.073,5.817,5.817,0,0,0-.128-1,4.926,4.926,0,0,0-.32-.951,4.364,4.364,0,0,0-.449-.888,4.044,4.044,0,0,0-.663-.741c-.25-.224-.438-.556-.738-.714s-.707-.193-1.066-.344c-.325-.137-.693-.2-1.057-.336-.334-.122-.613-.449-.979-.571-.34-.113-.751-.047-1.118-.161-.343-.108-.7-.209-1.065-.319-.346-.1-.642-.41-1.007-.518-.348-.1-.746-.064-1.11-.172-.349-.1-.716-.17-1.08-.278-.349-.1-.671-.322-1.034-.432s-.7-.215-1.066-.327-.718-.172-1.078-.285-.685-.274-1.043-.391-.718-.175-1.076-.294-.7-.242-1.052-.366-.72-.179-1.074-.306-.68-.292-1.033-.424-.658-.347-1.009-.482-.694-.253-1.043-.392-.68-.264-1.008-.406-.661-.307-.985-.46-.682-.263-1-.429-.681-.277-.992-.456-.552-.5-.853-.688-.6-.4-.895-.608-.717-.259-1-.479c-.292-.237-.445-.637-.721-.886s-.525-.527-.786-.793-.576-.482-.82-.764-.393-.64-.618-.937-.586-.5-.791-.81-.265-.712-.448-1.038-.367-.644-.526-.982-.277-.686-.411-1.035-.392-.651-.5-1.01-.182-.725-.264-1.092-.1-.737-.158-1.109-.181-.73-.208-1.106-.1-.746-.1-1.124.187-.731.2-1.091-.123-.745-.09-1.1.09-.732.14-1.089.29-.693.36-1.048.18-.7.271-1.052-.027-.771.086-1.114.446-.615.581-.952.232-.69.391-1.016.185-.73.367-1.045.485-.561.69-.862.438-.579.665-.865.409-.607.657-.876.436-.6.7-.85.614-.408.9-.641.594-.417.893-.632.584-.428.9-.624.629-.358.953-.535.638-.342.972-.5.668-.278,1.01-.421.625-.393.974-.52.74-.076,1.094-.188.66-.317,1.017-.415.685-.251,1.046-.337.7-.19,1.066-.262a2.327,2.327,0,0,1,.565-.018,2.592,2.592,0,0,0,.543-.013c.355-.059.709-.151,1.075-.2s.72-.079,1.088-.119.726-.007,1.1-.039a1.155,1.155,0,0,1,.921.224,1.3,1.3,0,0,1,.534.887c0,.531-.015.531-.015,1.061s-.132.53-.132,1.061.127.53.127,1.06-.07.53-.07,1.059.084.53.084,1.059-.2.529-.2,1.058.008.528.008,1.056.063.529.063,1.058a1.4,1.4,0,0,1-.352.958,1.479,1.479,0,0,1-.918.44c-.391.054-.776.05-1.118.128a8.169,8.169,0,0,0-1.011.515,7.961,7.961,0,0,0-1.1.279,4.98,4.98,0,0,0-.914.67,4.171,4.171,0,0,0-.606.947,4.535,4.535,0,0,0-.58.959,6.178,6.178,0,0,0-.234,1.1,9.436,9.436,0,0,0,.024,1.121,4.945,4.945,0,0,0,.185,1.154,4.629,4.629,0,0,0,.317,1.133,4.761,4.761,0,0,0,.728.929,5.272,5.272,0,0,0,.859.809,6.469,6.469,0,0,0,1.016.614c.312.143.69.167,1.042.3.322.124.6.422.954.541.33.111.7.155,1.053.264.334.1.69.17,1.049.275.336.1.677.219,1.034.32.338.1.663.273,1.02.372.339.095.705.127,1.061.226.34.1.7.142,1.058.243s.659.3,1.013.4.694.175,1.048.281.692.184,1.043.293.665.27,1.014.382.693.185,1.04.3.713.13,1.06.25.659.289,1,.413.714.14,1.058.268.632.36.974.492.712.153,1.052.289.69.251,1.019.393.641.362.964.516.624.383.94.548.658.316.969.494.628.37.93.561.662.325.954.53.485.569.768.789c.011.009.041-.005.072-.019s.061-.028.072-.019c.289.234.5.552.766.8s.629.414.88.678.45.589.682.87.479.562.691.86.323.665.512.978.5.562.667.889.232.7.373,1.043.192.705.309,1.056.3.67.394,1.028.127.718.2,1.083.223.705.267,1.073.1.728.126,1.1.015.734.015,1.106.032.762.012,1.134-.177.746-.218,1.116-.164.736-.228,1.1.079.789-.008,1.151-.348.689-.46,1.045-.189.731-.325,1.08-.312.685-.473,1.023-.385.644-.571.97-.358.657-.568.969-.352.672-.584.969-.406.647-.66.927-.533.538-.806.8-.62.437-.91.682-.577.479-.882.705-.61.434-.929.642-.643.381-.973.572-.689.292-1.029.466-.633.4-.981.561-.685.3-1.04.441-.674.341-1.035.467-.719.217-1.085.328-.712.24-1.082.338-.747.1-1.119.185-.738.119-1.113.192-.73.16-1.106.222-.75.033-1.127.084-.722.264-1.1.3a4.891,4.891,0,0,1-.592.015c-.18,0-.361,0-.541.01-.06.005-.121.008-.181.008A1.07,1.07,0,0,1,302.372,62.263Zm-143.678.094c-.377-.044-.745-.085-1.111-.144a3.259,3.259,0,0,0-.538-.028,2.881,2.881,0,0,1-.591-.038c-.37-.078-.7-.287-1.061-.381s-.722-.2-1.076-.309-.741-.154-1.087-.287-.72-.231-1.058-.385-.634-.414-.963-.588-.685-.311-1-.505-.608-.439-.913-.654-.585-.464-.876-.7-.655-.385-.932-.638-.41-.647-.671-.918-.558-.495-.8-.782-.5-.55-.731-.85-.421-.612-.633-.926-.336-.664-.53-.988-.433-.606-.612-.939-.392-.635-.556-.977-.218-.716-.366-1.066-.311-.674-.446-1.028-.282-.688-.4-1.048-.176-.723-.286-1.086-.245-.7-.343-1.069-.288-.7-.375-1.064-.112-.738-.19-1.109-.256-.71-.323-1.082-.016-.754-.075-1.127-.226-.721-.276-1.1-.121-.738-.164-1.114-.01-.75-.046-1.127,0-.749-.024-1.127-.086-.741-.108-1.12-.041-.745-.058-1.123-.117-.743-.127-1.121.16-.75.155-1.129-.125-.745-.125-1.123-.046-.756-.041-1.127.11-.753.121-1.124-.1-.758-.086-1.129.2-.745.219-1.116.025-.752.053-1.122.069-.749.1-1.118-.056-.763-.014-1.131.184-.737.234-1.1.058-.754.115-1.12.2-.73.269-1.094.1-.748.171-1.111.1-.749.188-1.109.192-.729.288-1.086.19-.731.3-1.084.382-.667.5-1.017.122-.755.253-1.1.21-.731.355-1.071.5-.6.661-.933.164-.76.339-1.086.359-.667.55-.984.571-.527.778-.834.305-.7.529-1,.433-.619.674-.9.583-.485.841-.753.528-.528.8-.78.527-.533.818-.767.621-.416.927-.631.585-.468.9-.664.646-.374.978-.55.637-.4.98-.558.7-.259,1.055-.394.729-.169,1.088-.284.7-.233,1.071-.33.717-.19,1.088-.268.73-.132,1.1-.193.726-.173,1.1-.217a1.173,1.173,0,0,1,.95.252,1.285,1.285,0,0,1,.244.937c0,.556-.009.556-.009,1.113s.21.556.21,1.112-.2.555-.2,1.111-.026.555-.026,1.11.085.555.085,1.11-.11.554-.11,1.109.179.554.179,1.107-.157.555-.157,1.11a1.872,1.872,0,0,1-.3,1.055,2.922,2.922,0,0,1-.8.792,6.134,6.134,0,0,0-.729.85,6.851,6.851,0,0,0-.693.853,8.844,8.844,0,0,0-.591.936c-.158.315-.227.687-.366,1.045-.129.33-.189.693-.3,1.058-.105.34-.376.645-.469,1.015-.086.346-.008.741-.084,1.114-.071.35-.15.706-.212,1.081-.059.354-.291.691-.341,1.067-.048.356-.122.721-.162,1.1-.04.357.155.747.122,1.123-.032.359-.28.709-.306,1.084s.007.733-.014,1.109.129.738.114,1.113-.153.727-.164,1.1-.042.731-.048,1.107.059.733.056,1.109.093.732.093,1.107-.11.746-.107,1.112-.034.748-.028,1.113.035.745.045,1.109,0,.748.019,1.111.036.746.055,1.108.014.747.039,1.108c.027.377.185.735.217,1.1.033.377-.1.762-.065,1.121.041.377.2.731.244,1.089.051.377.172.731.231,1.086.062.376.158.73.229,1.081.076.373-.01.77.076,1.116.093.371.228.72.333,1.06.113.367.22.723.349,1.055.14.36.228.731.386,1.048a8.91,8.91,0,0,0,.626.927,6.734,6.734,0,0,0,.778.79,5.514,5.514,0,0,0,.8.741,3.247,3.247,0,0,1,.714.941,2.157,2.157,0,0,1,.457,1.086c0,.551-.069.551-.069,1.1s.083.551.083,1.1-.2.551-.2,1.1.008.55.008,1.1.062.551.062,1.1.021.549.021,1.1-.039.548-.039,1.1-.072.55-.072,1.1c0,.347.045.734-.183.955a.741.741,0,0,1-.54.174A3.621,3.621,0,0,1,158.694,62.357Zm-54.292,0c-.376-.044-.745-.085-1.11-.144a3.265,3.265,0,0,0-.539-.028,2.881,2.881,0,0,1-.591-.038c-.37-.078-.7-.287-1.062-.381s-.722-.2-1.075-.309-.741-.154-1.087-.287-.721-.231-1.059-.385-.634-.414-.963-.587-.685-.311-1-.505-.608-.439-.914-.654-.584-.464-.876-.7-.655-.385-.932-.638-.41-.647-.671-.918-.557-.5-.8-.782-.5-.55-.731-.85-.422-.612-.633-.926-.336-.664-.531-.988-.433-.606-.612-.939-.392-.635-.556-.977-.218-.716-.367-1.066-.31-.674-.446-1.029-.282-.688-.4-1.048-.177-.723-.286-1.086-.245-.7-.344-1.069-.287-.7-.375-1.064-.112-.738-.19-1.109-.256-.71-.323-1.082-.017-.754-.075-1.127-.226-.721-.276-1.1-.121-.738-.164-1.114-.01-.75-.046-1.127,0-.749-.024-1.127-.086-.741-.108-1.12-.042-.745-.058-1.123-.117-.743-.127-1.121.16-.75.155-1.129-.125-.745-.125-1.123-.046-.756-.041-1.127.11-.753.121-1.124-.1-.758-.087-1.129.2-.745.22-1.116.024-.752.053-1.122.069-.749.1-1.118-.056-.763-.015-1.131.185-.737.234-1.1.057-.754.115-1.12.2-.73.269-1.094.1-.748.171-1.111.1-.749.188-1.109.192-.729.288-1.086.19-.731.3-1.084.382-.667.5-1.017.121-.755.253-1.1.209-.731.354-1.071.5-.6.662-.933.164-.76.338-1.086.359-.667.55-.984.571-.527.778-.834.305-.7.53-1,.433-.619.674-.9.583-.485.842-.753.528-.528.8-.78.527-.533.818-.767.622-.416.927-.631.586-.468.906-.664.646-.374.978-.55.636-.4.979-.557.7-.259,1.055-.394.729-.169,1.089-.284.7-.233,1.07-.33.718-.19,1.089-.268.73-.132,1.1-.193.726-.173,1.1-.217a1.174,1.174,0,0,1,.951.252,1.287,1.287,0,0,1,.244.937c0,.556-.009.556-.009,1.113s.209.556.209,1.112-.2.555-.2,1.111-.026.555-.026,1.11.085.555.085,1.11-.11.554-.11,1.109.179.554.179,1.107-.157.555-.157,1.11a1.872,1.872,0,0,1-.3,1.055,2.917,2.917,0,0,1-.8.792,6.1,6.1,0,0,0-.728.85,6.891,6.891,0,0,0-.693.853,8.914,8.914,0,0,0-.592.936c-.158.315-.226.687-.366,1.045-.129.33-.19.693-.3,1.058-.1.34-.376.645-.469,1.015-.087.346-.008.741-.084,1.114-.071.35-.15.706-.213,1.081-.058.353-.29.691-.342,1.066-.048.356-.121.721-.162,1.1-.039.357.155.747.122,1.123-.032.359-.279.709-.305,1.084s.006.733-.014,1.109.129.738.114,1.113-.153.727-.164,1.1-.042.731-.048,1.107.059.733.056,1.109.094.732.094,1.107-.11.746-.107,1.112-.033.748-.027,1.113.035.745.045,1.109,0,.747.019,1.111.035.746.055,1.108.015.747.04,1.108c.027.377.185.735.216,1.1.033.377-.1.762-.066,1.121.041.377.2.731.244,1.089.051.377.173.731.231,1.086.062.376.158.73.229,1.081.076.373-.01.77.076,1.116.092.371.228.72.333,1.06.114.367.22.723.348,1.055.14.36.229.731.387,1.048A8.906,8.906,0,0,0,103,48.9a6.732,6.732,0,0,0,.778.79,5.516,5.516,0,0,0,.8.741,3.254,3.254,0,0,1,.714.941,2.157,2.157,0,0,1,.457,1.086c0,.551-.07.551-.07,1.1s.083.551.083,1.1-.2.551-.2,1.1.008.55.008,1.1.062.551.062,1.1.021.549.021,1.1-.039.548-.039,1.1-.072.55-.072,1.1c0,.347.044.734-.183.955a.742.742,0,0,1-.54.174A3.628,3.628,0,0,1,104.4,62.357Zm60.472-.254a1.278,1.278,0,0,1-.216-.936c0-.553-.11-.553-.11-1.106s-.068-.553-.068-1.106-.031-.552-.031-1.1.17-.552.17-1.1-.038-.552-.038-1.1.016-.551.016-1.1.068-.551.068-1.1-.083-.552-.083-1.1a2.242,2.242,0,0,1,.212-1.168,3.443,3.443,0,0,1,.826-.879,5.627,5.627,0,0,0,.887-.652,7.812,7.812,0,0,0,.559-.952,8.978,8.978,0,0,0,.6-.922c.155-.316.223-.682.36-1.039.127-.33.434-.613.546-.979.1-.339.2-.7.287-1.071.086-.346.106-.721.181-1.094.071-.35.115-.716.177-1.089.058-.353.151-.712.2-1.087.048-.355.165-.714.205-1.089.04-.358-.139-.745-.106-1.119.032-.359.256-.71.283-1.085s.036-.73.057-1.105-.1-.736-.089-1.111.154-.726.164-1.1.015-.732.021-1.106-.079-.733-.076-1.107-.048-.731-.048-1.105.1-.741.1-1.1-.065-.74-.071-1.1.03-.74.02-1.1.008-.742-.006-1.1-.154-.734-.174-1.093.146-.75.121-1.108c-.026-.373-.124-.735-.155-1.092-.033-.374-.105-.736-.144-1.092-.041-.373-.062-.741-.11-1.1-.051-.373-.023-.751-.081-1.1-.061-.372-.195-.723-.265-1.072-.074-.37-.207-.716-.292-1.061-.091-.368-.088-.752-.192-1.09-.112-.364-.259-.707-.386-1.036-.137-.356-.308-.687-.464-1a9.882,9.882,0,0,0-.493-.994,7.3,7.3,0,0,0-.7-.863,5.719,5.719,0,0,0-.877-.675,3.207,3.207,0,0,1-.752-.895,2.209,2.209,0,0,1-.436-1.1c0-.558.114-.558.114-1.116s-.115-.558-.115-1.117-.025-.557-.025-1.114.071-.557.071-1.114.071-.557.071-1.114-.032-.556-.032-1.113,0-.556,0-1.111-.088-.557-.088-1.114c0-.346.294-.6.521-.823a1.049,1.049,0,0,1,.843-.4c.376.045.756.051,1.121.111s.725.228,1.086.3.764.044,1.121.139.679.359,1.032.473.715.219,1.061.353.69.288,1.028.441.737.2,1.065.378.611.447.928.642.659.363.964.577.555.506.846.741.6.444.879.7.584.473.845.743.5.556.746.842.487.568.715.869.306.7.518,1.007.521.548.716.871.44.609.62.942.151.758.315,1.1.487.6.637.943.295.687.431,1.041.063.768.186,1.127.376.659.487,1.022.249.7.348,1.071.074.749.162,1.118.165.724.243,1.094.195.719.263,1.091.076.741.135,1.115.17.726.221,1.1.09.739.133,1.115.15.734.186,1.11.024.747.053,1.124-.039.749-.017,1.127.058.742.074,1.12.039.744.05,1.122.005.745.01,1.123.07.745.07,1.123.074.755.069,1.126-.16.751-.17,1.122-.033.75-.049,1.121.174.764.152,1.134-.252.738-.28,1.107-.087.746-.122,1.114.011.756-.032,1.124-.2.732-.249,1.1.071.771.014,1.137-.277.716-.344,1.08-.123.74-.2,1.1-.187.726-.273,1.085-.038.765-.134,1.122-.221.719-.329,1.073-.267.7-.386,1.053-.167.74-.3,1.085-.22.726-.365,1.066-.467.615-.628.949-.188.749-.363,1.075-.378.655-.57.972-.547.542-.754.849-.449.595-.673.891-.282.736-.523,1.018-.658.415-.916.683-.486.567-.761.819-.453.624-.743.858-.668.362-.974.578-.629.4-.948.6-.607.442-.939.618-.625.429-.968.586-.73.2-1.081.334-.712.22-1.071.336-.705.238-1.071.335-.725.164-1.095.243-.728.15-1.1.212-.738.085-1.114.13a2.34,2.34,0,0,1-.279.018A.922.922,0,0,1,164.874,62.1Zm-54.292,0a1.276,1.276,0,0,1-.216-.936c0-.553-.111-.553-.111-1.106s-.068-.553-.068-1.106-.03-.552-.03-1.1.17-.552.17-1.1-.038-.552-.038-1.1.016-.551.016-1.1.068-.551.068-1.1-.083-.552-.083-1.1a2.238,2.238,0,0,1,.213-1.168,3.447,3.447,0,0,1,.825-.879,5.637,5.637,0,0,0,.888-.652,7.793,7.793,0,0,0,.558-.952,8.914,8.914,0,0,0,.6-.922c.155-.316.223-.682.36-1.039.127-.33.434-.613.546-.979.1-.339.2-.7.287-1.071.086-.346.106-.721.18-1.094.071-.35.116-.716.178-1.089.058-.353.151-.712.2-1.087.048-.355.164-.714.205-1.089.039-.358-.14-.745-.106-1.119.031-.359.256-.71.282-1.085s.037-.73.057-1.105-.1-.736-.089-1.111.154-.726.165-1.1.015-.732.021-1.106-.079-.733-.076-1.107-.048-.731-.048-1.105.1-.741.1-1.1-.065-.74-.071-1.1.03-.74.02-1.1.008-.742-.007-1.1-.154-.734-.173-1.093.146-.75.121-1.108c-.026-.373-.124-.735-.155-1.093-.033-.373-.106-.735-.145-1.091-.041-.373-.062-.741-.109-1.1-.05-.373-.022-.751-.08-1.1-.061-.372-.195-.723-.265-1.072-.074-.37-.207-.716-.293-1.061-.091-.368-.088-.752-.192-1.09-.111-.364-.259-.707-.386-1.036-.137-.356-.308-.687-.463-1a10.063,10.063,0,0,0-.494-.994,7.259,7.259,0,0,0-.7-.863,5.758,5.758,0,0,0-.876-.675,3.2,3.2,0,0,1-.752-.895,2.21,2.21,0,0,1-.437-1.1c0-.558.114-.558.114-1.116s-.115-.558-.115-1.117-.025-.557-.025-1.114.071-.557.071-1.114.071-.557.071-1.114-.032-.556-.032-1.113,0-.556,0-1.111-.088-.557-.088-1.114c0-.346.294-.6.521-.823a1.049,1.049,0,0,1,.843-.4c.376.045.756.051,1.121.111s.724.228,1.086.3.764.044,1.121.139.68.359,1.032.473.716.219,1.062.353.69.288,1.028.441.736.2,1.065.378.611.447.928.642.659.363.964.577.555.506.846.741.6.444.879.7.584.473.845.743.5.556.746.842.487.568.715.869.306.7.518,1.007.521.548.716.871.44.609.619.942.151.758.315,1.1.487.6.637.943.294.687.431,1.041.063.768.185,1.127.376.659.487,1.022.249.7.348,1.071.074.749.162,1.118.165.724.243,1.094.2.719.264,1.091.076.741.135,1.115.17.726.22,1.1.09.739.134,1.115.15.734.186,1.11.024.747.053,1.124-.039.749-.017,1.127.058.742.074,1.12.039.744.05,1.122.006.745.011,1.123.069.745.069,1.123.075.755.07,1.126-.16.751-.17,1.122-.033.75-.049,1.121.174.764.152,1.134-.252.738-.281,1.107-.087.746-.122,1.114.01.756-.032,1.124-.2.732-.248,1.1.071.771.013,1.137-.277.716-.344,1.08-.123.74-.2,1.1-.187.726-.273,1.085-.038.765-.134,1.122-.222.719-.329,1.073-.267.7-.386,1.053-.167.74-.3,1.085-.219.726-.365,1.066-.468.615-.628.949-.188.749-.363,1.075-.378.655-.569.972-.548.542-.755.849-.449.595-.672.891-.282.736-.523,1.018-.657.415-.916.683-.487.567-.761.819-.454.624-.744.858-.668.362-.973.578-.629.4-.948.6-.607.442-.939.618-.625.43-.968.586-.73.2-1.081.334-.712.22-1.071.336-.705.238-1.07.335-.726.164-1.1.243-.728.15-1.1.212-.738.085-1.114.13a2.349,2.349,0,0,1-.28.018A.919.919,0,0,1,110.582,62.1Zm89.187-1.021c-.548,0-.548-.042-1.1-.042s-.548.02-1.1.02-.548-.02-1.1-.02-.547,0-1.095,0-.547-.029-1.093-.029-.548.13-1.1.13-.548-.175-1.1-.175-.547.111-1.094.111a1.108,1.108,0,0,1-.866-.357,1.193,1.193,0,0,1-.224-.953c.139-.538.3-.495.443-1.032s.1-.547.242-1.085.154-.533.293-1.069.2-.52.343-1.056.059-.557.2-1.093.01-.57.148-1.105.152-.532.291-1.067.266-.5.405-1.039.015-.568.154-1.1.206-.519.345-1.054.058-.557.2-1.094.332-.485.47-1.021.132-.538.27-1.074.079-.551.217-1.086.118-.541.256-1.077.177-.525.315-1.061.208-.517.347-1.052-.071-.589.068-1.125.329-.486.468-1.022.127-.537.266-1.072,0-.57.139-1.1.261-.5.4-1.037.134-.536.273-1.072.051-.558.189-1.093.088-.549.227-1.084.239-.51.378-1.045.084-.55.222-1.085.183-.524.321-1.059.169-.527.307-1.063.021-.566.159-1.1.322-.488.46-1.023.071-.553.21-1.088.1-.544.241-1.079.161-.53.3-1.065.219-.515.358-1.05.073-.552.211-1.087.086-.548.225-1.083.24-.509.379-1.043.112-.542.25-1.077.115-.541.254-1.076.2-.521.334-1.056.1-.545.24-1.079.039-.561.177-1.1.192-.52.33-1.055.031-.563.169-1.1.249-.506.387-1.041.028-.564.166-1.1.114-.542.252-1.077.207-.518.345-1.052.208-.517.346-1.052.107-.542.245-1.077.137-.535.276-1.069.053-.556.192-1.091c.1-.374.457-.6.748-.827a1.664,1.664,0,0,1,.988-.456c.552,0,.553-.043,1.106-.033s.551.033,1.1.033.552-.049,1.1-.049.552.1,1.1.1.551-.126,1.1-.126.551.162,1.1.162.55-.023,1.1-.023.551.009,1.1.009.551-.131,1.1-.131.551.1,1.1.1a1.058,1.058,0,0,1,.84.364,1.034,1.034,0,0,1,.108.9c-.14.538-.1.549-.237,1.086s-.084.552-.224,1.09-.152.533-.292,1.07-.129.539-.268,1.076-.3.495-.44,1.031-.009.57-.148,1.106-.07.553-.209,1.088-.35.482-.49,1.017.044.584-.1,1.12-.132.538-.272,1.073-.341.484-.481,1.02.006.573-.134,1.109-.1.546-.24,1.081-.254.506-.393,1.041-.141.535-.281,1.071-.092.548-.231,1.083-.191.521-.33,1.056-.084.55-.223,1.085-.145.534-.284,1.07-.072.552-.211,1.086-.18.524-.319,1.058-.23.512-.369,1.046-.123.539-.262,1.075-.129.538-.268,1.073-.152.533-.29,1.068-.079.551-.218,1.086-.065.555-.2,1.09-.282.5-.421,1.033-.148.533-.287,1.068.064.589-.076,1.124-.338.484-.477,1.019-.165.528-.3,1.063-.056.556-.2,1.091-.246.508-.385,1.043.034.581-.106,1.116-.292.495-.43,1.03-.122.539-.261,1.074-.168.528-.307,1.062,0,.572-.137,1.107-.16.53-.3,1.065-.182.524-.322,1.06-.053.557-.193,1.092-.079.55-.218,1.085-.313.49-.452,1.024.02.576-.119,1.111-.152.531-.292,1.066-.313.49-.452,1.025-.167.528-.307,1.064.085.593-.053,1.128-.352.48-.491,1.014-.086.548-.225,1.083.022.576-.117,1.111-.26.5-.4,1.037a1.632,1.632,0,0,1-.613.886,1.68,1.68,0,0,1-1.012.417c-.549,0-.549.1-1.1.1S200.318,61.082,199.769,61.082ZM28.812,61c-.552,0-.552.164-1.105.164s-.552-.014-1.1-.014-.552-.18-1.1-.18-.551-.029-1.1-.029-.551.232-1.1.232-.55-.22-1.1-.22-.551.055-1.1.055-.551.165-1.1.165-.551-.125-1.1-.125a.946.946,0,0,1-.769-.4.991.991,0,0,1-.239-.856c.14-.538.046-.562.185-1.1s.248-.51.387-1.048.18-.526.319-1.063.121-.542.26-1.078.159-.532.3-1.068.136-.537.275-1.073.167-.528.306-1.063.014-.569.153-1.1.309-.492.448-1.028.033-.563.172-1.1.074-.553.213-1.089.11-.543.249-1.079.3-.493.443-1.029.1-.545.242-1.08.155-.532.294-1.068.205-.518.344-1.053.059-.556.2-1.09.01-.569.15-1.1.153-.531.292-1.067.267-.5.406-1.036.016-.567.155-1.1.206-.517.345-1.051.059-.556.2-1.092.332-.485.471-1.02.132-.538.271-1.073.079-.551.218-1.087.119-.541.258-1.076.177-.525.317-1.061.208-.517.348-1.053-.07-.59.069-1.125.33-.486.469-1.021.128-.538.267-1.073,0-.571.14-1.106.262-.5.4-1.039.135-.536.274-1.071.052-.558.191-1.093.088-.548.227-1.083.24-.509.379-1.044.084-.549.223-1.084.183-.524.322-1.059.17-.528.309-1.063.021-.566.16-1.1.322-.487.461-1.022.072-.552.211-1.086.1-.544.243-1.078.162-.529.3-1.064.219-.514.359-1.049.073-.552.212-1.088.087-.549.226-1.083.241-.508.38-1.043.112-.542.251-1.076.115-.54.254-1.075.2-.52.335-1.054a1.536,1.536,0,0,1,.546-.888,1.671,1.671,0,0,1,1-.445c.549,0,.549.056,1.1.056s.55-.111,1.1-.111.548.114,1.1.114.548-.114,1.1-.114.548-.025,1.1-.025.547.071,1.095.071.547.071,1.093.071.548-.032,1.1-.032h1.1c.547,0,.547-.088,1.094-.088a1.75,1.75,0,0,1,.989.516,1.663,1.663,0,0,1,.69.842c.142.545.034.571.165,1.119s.288.509.43,1.054.047.569.188,1.113.062.565.2,1.109.225.523.367,1.066.1.554.241,1.1.24.517.381,1.06.17.536.311,1.08.124.548.266,1.091.182.533.323,1.076.018.576.16,1.119.073.561.214,1.1.358.487.5,1.03-.02.585.122,1.127.19.531.331,1.074.114.55.256,1.093.085.557.226,1.1.167.536.308,1.079.233.519.375,1.062.229.519.37,1.061.119.548.261,1.089.041.568.181,1.111.147.541.287,1.084a4.811,4.811,0,0,1-.025,2.541c-.14.542-.219.522-.359,1.063s-.061.563-.2,1.1-.138.541-.277,1.083-.066.56-.206,1.1-.164.535-.3,1.076-.111.548-.251,1.089-.223.518-.363,1.057-.18.53-.32,1.071-.117.546-.256,1.087-.22.52-.36,1.06.025.583-.115,1.124-.219.519-.359,1.06-.039.566-.179,1.106-.129.542-.269,1.082-.326.492-.466,1.032.019.581-.121,1.12-.148.537-.288,1.076-.226.518-.366,1.057.025.582-.114,1.122-.308.5-.447,1.035-.058.56-.2,1.1-.1.548-.243,1.088a.406.406,0,0,1-.754-.008c-.14-.543-.188-.53-.328-1.072s-.046-.567-.186-1.109-.263-.51-.4-1.05.017-.582-.123-1.124-.162-.535-.3-1.077-.132-.543-.272-1.083-.266-.507-.406-1.047-.047-.565-.187-1.106-.186-.528-.326-1.069-.06-.561-.2-1.1-.183-.53-.323-1.071-.2-.526-.335-1.066-.127-.544-.266-1.084-.151-.537-.291-1.077.021-.583-.119-1.123-.27-.506-.41-1.046S41.88,36.54,41.741,36s.071-.594-.068-1.134-.323-.493-.462-1.033-.147-.537-.287-1.077.063-.591-.077-1.13-.284-.5-.424-1.041a.6.6,0,0,0-.64-.456.669.669,0,0,0-.716.436c-.141.543-.142.543-.283,1.085s-.094.555-.234,1.1-.193.528-.333,1.071-.084.556-.225,1.1-.146.54-.287,1.082-.073.558-.213,1.1-.181.53-.321,1.07-.231.519-.371,1.06-.124.546-.264,1.087-.13.544-.27,1.085-.152.538-.292,1.08-.08.556-.22,1.1-.066.561-.206,1.1-.282.5-.421,1.045-.149.539-.289,1.08.063.593-.077,1.134-.338.489-.478,1.03-.165.533-.305,1.074-.057.563-.2,1.1-.246.513-.386,1.053.034.584-.106,1.124-.292.5-.431,1.04-.124.546-.264,1.086-.169.533-.308,1.074,0,.578-.139,1.118-.16.535-.3,1.077-.183.53-.323,1.07a1.729,1.729,0,0,1-.537.965,1.853,1.853,0,0,1-1.068.428C29.364,61.18,29.364,61,28.812,61Zm27.864.027c-.55,0-.55-.071-1.1-.071s-.551.032-1.1.032h-1.1c-.551,0-.551.088-1.1.088-.333,0-.554-.3-.738-.541a.973.973,0,0,1-.278-.835c.14-.538.1-.55.249-1.085s.171-.528.311-1.066.091-.549.231-1.086.234-.512.373-1.048.017-.568.157-1.105.3-.495.436-1.031.117-.54.257-1.076.147-.534.287-1.07.012-.569.151-1.105.233-.512.372-1.048.093-.548.232-1.084.219-.515.358-1.051.1-.547.235-1.083.084-.55.223-1.085.152-.532.292-1.068.129-.538.267-1.073.3-.493.439-1.028.009-.57.148-1.105.07-.553.209-1.089.35-.48.489-1.014-.043-.582.1-1.116.132-.536.271-1.071.341-.483.48-1.019-.005-.573.134-1.108.1-.546.24-1.081.254-.506.393-1.041.141-.535.281-1.07.092-.548.231-1.083.191-.522.33-1.057.084-.55.223-1.086.145-.534.284-1.069.073-.552.212-1.087.18-.525.319-1.059.23-.512.369-1.047.123-.539.262-1.075.129-.537.268-1.072.151-.532.29-1.067.08-.55.218-1.085.064-.554.2-1.089.282-.5.421-1.034.148-.533.287-1.068-.064-.587.075-1.122.337-.483.476-1.018.165-.528.3-1.062.056-.557.2-1.091.245-.507.385-1.042-.035-.58.1-1.115.292-.5.431-1.031.122-.539.261-1.074.167-.527.307-1.062,0-.571.136-1.106.159-.529.3-1.063.182-.523.321-1.057a1.731,1.731,0,0,1,.537-.965,1.858,1.858,0,0,1,1.069-.427c.549,0,.549.179,1.1.179s.549-.164,1.1-.164.548.014,1.1.014.548.18,1.1.18.548.029,1.1.029.547-.231,1.1-.231.546.219,1.093.219.548-.055,1.1-.055.548-.166,1.1-.166.547.126,1.094.126a.949.949,0,0,1,.77.4.994.994,0,0,1,.24.857c-.139.538-.044.562-.184,1.1s-.247.51-.386,1.047-.179.526-.318,1.063-.12.541-.259,1.078-.158.531-.3,1.068-.135.537-.274,1.072-.166.528-.3,1.063-.013.568-.152,1.1-.308.492-.447,1.029-.032.563-.171,1.1-.073.553-.211,1.089-.109.544-.248,1.079-.3.493-.442,1.029-.1.545-.24,1.08-.154.532-.293,1.068-.2.518-.343,1.054-.058.556-.2,1.09-.01.568-.148,1.1-.153.532-.291,1.067-.266.5-.4,1.036-.015.566-.153,1.1-.206.517-.345,1.052-.058.556-.2,1.091-.332.485-.47,1.021-.132.537-.27,1.072-.079.551-.217,1.086-.118.541-.256,1.076-.177.525-.315,1.061-.208.517-.347,1.052.071.59-.068,1.125-.329.486-.467,1.022-.128.538-.266,1.073,0,.571-.14,1.106-.261.5-.4,1.039-.134.537-.273,1.072-.051.557-.19,1.092-.088.548-.226,1.083-.239.508-.378,1.043-.083.549-.221,1.084-.183.524-.321,1.06-.169.527-.308,1.062-.02.566-.158,1.1-.322.487-.46,1.022-.071.552-.21,1.086-.1.544-.241,1.078-.161.529-.3,1.064-.219.514-.358,1.049-.072.553-.211,1.088-.086.548-.225,1.083-.24.508-.378,1.043-.111.541-.249,1.076-.114.541-.253,1.075-.2.519-.334,1.054a1.535,1.535,0,0,1-.544.889,1.669,1.669,0,0,1-1,.445c-.552,0-.552-.055-1.105-.055s-.552.111-1.1.111-.552-.114-1.1-.114-.552.115-1.1.115-.552.025-1.1.025S57.227,61.027,56.676,61.027Zm210.949-.143c-.549,0-.549.011-1.1.011s-.548.142-1.1.142-.548-.127-1.1-.127-.548,0-1.1,0-.548.09-1.095.09-.547.053-1.094.053-.548-.1-1.1-.1-.548.057-1.095.057-.548-.045-1.095-.045a1.632,1.632,0,0,1-1.01-.377,1.735,1.735,0,0,1-.707-.86c-.142-.546.041-.593-.1-1.138s-.209-.528-.35-1.073-.177-.535-.318-1.08-.119-.55-.261-1.094-.061-.565-.2-1.109-.207-.526-.348-1.07-.193-.53-.335-1.072-.039-.57-.181-1.114-.168-.536-.31-1.08-.165-.538-.306-1.081-.084-.559-.226-1.1-.177-.534-.319-1.077-.241-.518-.382-1.061-.088-.557-.229-1.1-.249-.515-.389-1.059-.031-.571-.172-1.114-.252-.514-.393-1.056-.165-.537-.307-1.08-.073-.561-.214-1.1-.072-.56-.213-1.1-.172-.534-.313-1.076-.142-.542-.282-1.084-.226-.521-.368-1.064a5.2,5.2,0,0,1,.012-1.3,5.093,5.093,0,0,1,.045-1.282c.141-.542.1-.552.255-1.091s.254-.512.394-1.054.142-.54.282-1.081.093-.553.233-1.094.192-.528.332-1.068.084-.555.224-1.095.146-.538.285-1.078.073-.558.213-1.1.182-.53.321-1.07.23-.517.37-1.057.124-.545.264-1.086.13-.543.269-1.082.152-.538.292-1.078.08-.555.22-1.1.066-.56.205-1.1.282-.5.422-1.042.148-.537.288-1.076-.063-.592.076-1.132.338-.489.478-1.028.165-.533.3-1.071.057-.56.2-1.1.246-.511.386-1.05c.088-.34.49-.386.578-.045.139.536-.013.576.126,1.112s.155.533.294,1.069.11.543.249,1.079.28.5.419,1.035.119.541.257,1.076.1.546.234,1.081.224.512.362,1.046.2.519.337,1.055-.035.58.1,1.115.3.494.435,1.028.125.539.264,1.074-.035.58.1,1.114.11.542.249,1.076.362.477.5,1.011-.074.59.065,1.125.191.52.33,1.054.3.492.436,1.027.017.566.155,1.1.116.541.254,1.075.206.516.344,1.05.232.509.37,1.043.031.561.168,1.1.1.545.237,1.079.158.53.3,1.064.12.539.258,1.073.141.534.279,1.068.111.541.249,1.076.264.5.4,1.036-.03.579.108,1.113.245.507.383,1.042.2.517.343,1.051.167.527.306,1.061-.026.577.112,1.111.175.525.313,1.059.123.538.261,1.073.072.551.211,1.085.218.513.356,1.047.267.5.405,1.035.124.538.262,1.072.011.568.149,1.1.261.5.4,1.037.07.551.208,1.086.219.513.357,1.046-.055.584.083,1.117.145.532.284,1.065.2.518.336,1.052.159.529.3,1.063.1.544.238,1.079a.864.864,0,0,1-.23.794c-.184.238-.378.565-.712.565C268.174,61.081,268.174,60.884,267.625,60.884Zm-34.476-.031c-.548,0-.548.15-1.1.15s-.548.04-1.1.04-.548-.119-1.1-.119l-1.095,0c-.547,0-.547.048-1.094.048s-.547-.054-1.095-.054-.548.058-1.1.058-.547-.006-1.095-.006a1.753,1.753,0,0,1-1.073-.3,1.771,1.771,0,0,1-.584-.957c-.142-.545-.051-.569-.193-1.114s-.157-.541-.3-1.086-.152-.542-.293-1.086-.129-.547-.271-1.092-.2-.528-.342-1.073-.216-.524-.357-1.067,0-.58-.14-1.122-.132-.546-.273-1.09-.345-.491-.486-1.034.057-.6-.084-1.138-.116-.551-.257-1.094-.224-.522-.365-1.065-.034-.571-.176-1.115-.314-.5-.455-1.04.011-.583-.13-1.126-.157-.538-.3-1.081-.113-.55-.254-1.092-.282-.506-.423-1.049-.121-.548-.262-1.091-.1-.554-.239-1.1-.226-.52-.367-1.062-.2-.527-.342-1.068.033-.588-.109-1.131a5.235,5.235,0,0,1-.324-1.256,5.226,5.226,0,0,1,.178-1.293c.14-.542.315-.5.454-1.039s.168-.535.309-1.077-.084-.6.056-1.14.353-.486.493-1.027.087-.555.227-1.1-.02-.582.119-1.122.261-.508.4-1.048.162-.535.3-1.075.072-.558.211-1.1.046-.565.185-1.105.248-.512.388-1.053.18-.529.32-1.07.121-.545.26-1.086.158-.535.3-1.074.137-.541.277-1.081.167-.533.307-1.072.014-.572.154-1.112.309-.5.448-1.035.033-.568.173-1.108.073-.556.213-1.1.11-.546.249-1.085.3-.5.444-1.035a.289.289,0,0,1,.574-.01c.14.543.125.546.266,1.089s.074.559.214,1.1.221.52.36,1.062.269.507.409,1.049.126.545.266,1.086.012.573.152,1.114.264.507.4,1.048.072.558.213,1.1.221.52.36,1.061-.053.59.087,1.13.147.539.287,1.08.2.524.34,1.065.161.535.3,1.076.1.55.242,1.09.069.558.21,1.1.348.486.488,1.026-.051.589.089,1.129.15.537.29,1.077.277.5.417,1.045.017.571.156,1.11.143.538.283,1.077.227.517.367,1.056a.585.585,0,0,0,.638.441.631.631,0,0,0,.688-.429c.141-.543.086-.558.226-1.1s.184-.532.325-1.075.171-.534.311-1.076.023-.573.162-1.114.324-.495.464-1.036.074-.559.213-1.1.1-.549.244-1.09.163-.535.3-1.077.221-.52.361-1.062.074-.558.214-1.1.088-.555.228-1.1.242-.515.382-1.055.113-.549.254-1.09.116-.547.256-1.087.2-.526.337-1.068.1-.55.244-1.091.04-.566.18-1.106.193-.527.333-1.068.033-.568.173-1.109.25-.512.39-1.051.028-.568.168-1.108.115-.546.255-1.086.209-.523.348-1.064.209-.523.349-1.064.109-.548.249-1.089.139-.541.279-1.083.055-.562.195-1.1c.1-.374.457-.6.748-.827a1.659,1.659,0,0,1,.988-.456c.553,0,.551.111,1.1.122s.554-.151,1.107-.151.551.1,1.1.1.551.081,1.1.081.551-.086,1.1-.086.551.043,1.1.043.55-.1,1.1-.1.551-.029,1.1-.029.551.017,1.1.017.55-.042,1.1-.042a1.06,1.06,0,0,1,.771.5.882.882,0,0,1,.1.823c-.14.538.077.594-.063,1.132s-.3.5-.44,1.033-.091.55-.23,1.086-.167.53-.306,1.066-.2.522-.335,1.059-.113.543-.252,1.078-.047.559-.186,1.094-.051.559-.191,1.095-.16.53-.3,1.067-.24.51-.379,1.045-.134.538-.274,1.073-.144.534-.283,1.07-.161.53-.3,1.066-.218.515-.357,1.05-.059.557-.2,1.092-.137.536-.276,1.071-.064.554-.2,1.089-.162.529-.3,1.065-.11.543-.249,1.079-.223.512-.362,1.047-.18.524-.318,1.058-.116.54-.255,1.075-.22.515-.359,1.05.025.579-.114,1.114-.219.515-.358,1.05-.038.562-.178,1.1-.128.538-.268,1.073-.326.487-.464,1.022.019.576-.12,1.112-.148.533-.287,1.069-.226.512-.365,1.048.026.578-.113,1.113-.308.491-.447,1.026-.058.556-.2,1.092-.1.545-.242,1.08-.171.527-.31,1.062-.091.547-.23,1.082-.233.51-.373,1.045-.017.567-.156,1.1-.3.494-.435,1.03-.117.54-.257,1.076-.147.533-.287,1.068-.012.568-.151,1.1-.232.51-.371,1.045-.093.546-.231,1.081-.219.514-.358,1.049-.1.546-.236,1.081-.084.55-.223,1.086-.152.531-.291,1.066-.128.538-.267,1.073-.3.492-.439,1.026-.008.569-.147,1.1-.07.553-.208,1.087c-.1.374-.485.574-.776.8a1.7,1.7,0,0,1-.969.52c-.549,0-.549.008-1.1.008S233.7,60.853,233.149,60.853Zm-219.9-6.589c-.139-.537-.142-.536-.281-1.073s-.112-.543-.25-1.08-.264-.5-.4-1.039.031-.579-.108-1.115-.245-.508-.383-1.043-.2-.518-.343-1.053-.167-.526-.306-1.061.026-.578-.112-1.113-.175-.525-.313-1.061-.123-.538-.261-1.073-.073-.552-.211-1.087-.218-.514-.357-1.048-.267-.5-.406-1.036-.124-.538-.263-1.073-.011-.568-.149-1.1-.261-.5-.4-1.037-.071-.551-.21-1.085-.218-.514-.357-1.048.054-.584-.084-1.119-.145-.532-.284-1.066-.2-.518-.336-1.05-.159-.529-.3-1.063-.1-.544-.239-1.078-.068-.553-.206-1.087-.347-.48-.485-1.015.052-.584-.086-1.119-.149-.532-.287-1.066-.276-.5-.414-1.033-.016-.566-.154-1.1-.142-.533-.281-1.068-.226-.512-.364-1.046-.189-.52-.327-1.055-.038-.56-.176-1.094-.194-.52-.332-1.055-.095-.545-.233-1.08S3.443,16.3,3.3,15.767s-.256-.5-.394-1.037.045-.581-.094-1.115-.205-.517-.343-1.051S2.3,12.039,2.161,11.5s-.115-.54-.254-1.075-.058-.555-.2-1.089-.2-.517-.342-1.05-.19-.52-.329-1.054-.036-.56-.174-1.094S.7,5.617.564,5.083.4,4.555.263,4.021s-.081-.55-.22-1.084a.857.857,0,0,1,.132-.809.984.984,0,0,1,.751-.471c.549,0,.549.055,1.1.055s.549-.11,1.1-.11.548.114,1.1.114.548-.114,1.1-.114.548-.026,1.1-.026.548.071,1.095.071.547.071,1.094.071.548-.032,1.1-.032h1.095c.548,0,.548-.088,1.095-.088a1.747,1.747,0,0,1,.989.516,1.664,1.664,0,0,1,.69.842c.142.545.178.537.31,1.085s.027.573.169,1.119.14.545.281,1.089.188.533.33,1.076.089.558.231,1.1.2.529.338,1.072.135.544.276,1.087.208.526.35,1.07.1.554.241,1.1.051.566.192,1.11.157.54.3,1.083.151.54.292,1.083.129.547.271,1.09.2.527.342,1.07.216.524.357,1.068,0,.58.14,1.123.132.545.273,1.087.344.49.485,1.033-.056.595.085,1.138.115.549.256,1.091.223.52.364,1.062.034.57.175,1.112.314.5.455,1.041a5.11,5.11,0,0,1,.008,1.286,4.911,4.911,0,0,1-.142,1.25c-.141.542-.169.535-.309,1.077s0,.578-.139,1.12-.161.535-.3,1.077-.183.53-.324,1.071-.054.563-.195,1.1-.079.556-.219,1.1-.313.495-.453,1.034.018.581-.121,1.122-.153.537-.294,1.078-.314.495-.453,1.035-.168.533-.308,1.074.084.6-.055,1.138-.353.485-.492,1.025-.087.553-.226,1.093.02.582-.12,1.122-.261.508-.4,1.048-.162.533-.3,1.073-.071.557-.211,1.1-.045.564-.185,1.1-.247.511-.387,1.05-.18.528-.32,1.067-.12.544-.26,1.083a.316.316,0,0,1-.306.252A.323.323,0,0,1,13.249,54.264ZM315.881,21.418c-.544,0-.544-.071-1.087-.071s-.543.032-1.087.032h-1.086c-.544,0-.544.088-1.087.088-.366,0-.64-.3-.889-.537a1.438,1.438,0,0,1-.54-.855c-.04-.4-.073-.779-.142-1.149-.073-.39-.121-.776-.225-1.137a10.058,10.058,0,0,0-.4-1.088,9.1,9.1,0,0,0-.494-1.049,8.233,8.233,0,0,0-.651-.961,8.006,8.006,0,0,0-.76-.88,8.312,8.312,0,0,0-.975-.634,8.672,8.672,0,0,0-.9-.754,10.477,10.477,0,0,0-1.106-.378c-.35-.134-.735-.188-1.117-.292a2.045,2.045,0,0,1-.989-.586,1.667,1.667,0,0,1-.238-1.089c0-.546-.038-.546-.038-1.092s.016-.546.016-1.093.068-.545.068-1.091-.082-.545-.082-1.09-.133-.545-.133-1.09.014-.545.014-1.089.132-.543.132-1.087-.127-.545-.127-1.089a1.38,1.38,0,0,1,.45-.921A1.3,1.3,0,0,1,303.341,0c.379.023.738.25,1.106.283s.749.065,1.116.109.753.033,1.118.089.746.1,1.11.167.729.184,1.089.266.711.244,1.066.34.784,0,1.135.109.65.422,1,.551.7.258,1.041.4.745.177,1.076.342.607.454.93.638.644.376.955.578.671.345.969.567.628.419.911.66.492.573.759.833.568.491.818.769.456.593.688.888.425.61.638.92.516.556.71.879.208.736.383,1.07.4.63.551.974.331.667.469,1.019.241.7.361,1.063.148.73.252,1.094.261.7.35,1.066.218.713.293,1.084.034.747.095,1.121.139.728.188,1.1.112.733.149,1.111a.993.993,0,0,1-.351.827,1.078,1.078,0,0,1-.815.378c-.545,0-.545.1-1.09.1s-.545-.055-1.09-.055-.544.111-1.089.111-.544-.114-1.088-.114-.544.115-1.088.115-.543.025-1.087.025S316.424,21.418,315.881,21.418Z" transform="translate(71.553)" fill="#fff" stroke="rgba(0,0,0,0)" stroke-miterlimit="10" stroke-width="1"/>
    <path id="パス_854" data-name="パス 854" d="M-.77-44.11l-7.26-.6a30.578,30.578,0,0,1-1.1,6.325h-2.64a71.564,71.564,0,0,1-9.68-.66v6.435c3.025.22,7.04.33,9.3.33h.715c-2.475,4.95-6.38,9.845-12.155,15.18l5.885,4.4a63.325,63.325,0,0,1,5.115-6.05,13.4,13.4,0,0,1,8.58-3.8,4.232,4.232,0,0,1,3.85,1.87c-6.27,3.245-12.87,7.645-12.87,14.685,0,7.095,6.38,9.185,15.015,9.185a137.585,137.585,0,0,0,15.565-.935l.22-7.1A89.974,89.974,0,0,1,2.145-3.3c-5.39,0-7.975-.825-7.975-3.85,0-2.75,2.2-4.9,6.325-7.26C.44-11.99.385-9.35.22-7.7h6.6c-.055-2.53-.165-6.6-.22-9.68,3.355-1.54,6.49-2.75,8.965-3.74,1.87-.715,4.785-1.815,6.545-2.31l-2.75-6.38c-2.035,1.045-3.96,1.925-6.1,2.86C11-25.96,8.69-25.025,5.83-23.7,4.62-26.51,1.87-27.94-1.485-27.94A18.636,18.636,0,0,0-7.7-26.84a38.4,38.4,0,0,0,3.135-5.61,163.839,163.839,0,0,0,17.93-1.375l.055-6.38a139.242,139.242,0,0,1-15.565,1.6A52.619,52.619,0,0,0-.77-44.11Z" transform="translate(433.83 59.283)" fill="#fff"/>
  </g>
</svg>
