<svg id="コンポーネント_19_1" data-name="コンポーネント 19 – 1" xmlns="http://www.w3.org/2000/svg" width="451.416" height="53.44" viewBox="0 0 451.416 53.44">
  <path id="パス_835" data-name="パス 835" d="M10-9.92A2.322,2.322,0,0,0,7.68-7.6,2.322,2.322,0,0,0,10-5.28,2.322,2.322,0,0,0,12.32-7.6,2.322,2.322,0,0,0,10-9.92ZM27.62-5.44l-2.16.54v-9.58H23.72v10c-.52.14-1,.24-1.42.34l.42,1.88c1.42-.38,3.18-.86,4.9-1.34V1.56h1.8V-16.68h-1.8ZM39-15.4l-.34.06H30.22v1.84h7.9a23.947,23.947,0,0,1-2.74,7.7,26.408,26.408,0,0,1-2.54-7.58l-1.76.32A29.857,29.857,0,0,0,34.2-4.02,13.613,13.613,0,0,1,29.6-.06a6.618,6.618,0,0,1,1.3,1.6,15.984,15.984,0,0,0,4.44-3.8,13.848,13.848,0,0,0,4.38,3.82,7.313,7.313,0,0,1,1.32-1.6,12.186,12.186,0,0,1-4.5-3.88,27.072,27.072,0,0,0,3.7-11.12Zm9.42,7.1H52.7v1.16H48.42Zm4.28-3.64H48.42v-1.1H52.7Zm0,2.4H48.42v-1.14H52.7Zm9.38,6.4v-1.5h-8V-5.7h7.46V-7.14H54.48V-8.3h5.54V-9.54H54.48v-1.14h5.5v-1.26h-5.5v-1.1h6.38v-1.48H54.58c.38-.6.76-1.3,1.12-2l-2.06-.26a17.584,17.584,0,0,1-.98,2.26h-3.4c.44-.64.82-1.3,1.18-1.92l-1.94-.38a16.629,16.629,0,0,1-4.7,5.66A6.549,6.549,0,0,1,45.12-9.9a17.973,17.973,0,0,0,1.56-1.44V-5.7h5.56v1.06H44.32v1.5H50.8a22.311,22.311,0,0,1-7.02,3,10.829,10.829,0,0,1,1.2,1.52,22.535,22.535,0,0,0,7.26-3.72v3.9h1.84V-2.38a23.089,23.089,0,0,0,7.28,3.66A7.55,7.55,0,0,1,62.5-.24a22.4,22.4,0,0,1-6.9-2.9Zm13.4-11.02H71.64V-16.7H69.82v2.54h-4v1.68h9.66Zm.16,5.78a14.313,14.313,0,0,0-2.4-3.7l-1.46.72A16,16,0,0,1,74.1-7.54ZM68-11.9a10.221,10.221,0,0,1-2.64,3.88A17.1,17.1,0,0,1,66.8-6.9a13.9,13.9,0,0,0,2.94-4.56Zm3.78,3.32a17.882,17.882,0,0,1-.94,2.64c-.78-.66-1.56-1.28-2.3-1.82L67.46-6.48c.82.64,1.7,1.36,2.52,2.12A12.14,12.14,0,0,1,65.4.06a9.684,9.684,0,0,1,1.28,1.48A14.891,14.891,0,0,0,71.32-3.1,18.6,18.6,0,0,1,73.34-.8l1.2-1.52A20.287,20.287,0,0,0,72.26-4.7,21.929,21.929,0,0,0,73.6-8.2Zm7.5-3.72c.04-1.38.06-2.78.06-4.24H77.56c0,1.46,0,2.88-.04,4.24H75.28v1.78h2.18c-.2,4.6-.98,8.44-3.82,10.84A5.69,5.69,0,0,1,75,1.64c3.1-2.72,3.96-7.04,4.22-12.16h2.5c-.16,6.88-.36,9.42-.8,9.96a.717.717,0,0,1-.72.34c-.38,0-1.24-.02-2.22-.1a4.82,4.82,0,0,1,.52,1.74,14.632,14.632,0,0,0,2.54-.04A1.731,1.731,0,0,0,82.48.54c.64-.86.8-3.7.98-11.96.02-.24.02-.88.02-.88Zm13.02,7c1.92-.14,4.38-.32,6.86-.52a8.61,8.61,0,0,1,.52,1.08l1.42-.7a10.029,10.029,0,0,0-1.14-1.98,23.1,23.1,0,0,1,4,2.62l1.38-1.16a27.791,27.791,0,0,0-4.4-2.64l-1.14.92c-.34-.48-.72-.94-1.06-1.36l-1.34.58c.32.4.66.86.96,1.32L95.54-7c1.36-1.3,2.8-2.88,3.98-4.26l-1.48-.68a30.058,30.058,0,0,1-1.96,2.48c-.38-.3-.84-.64-1.3-.96.6-.7,1.32-1.58,1.94-2.4l-.42-.16h8.42v-1.7H97.3v-2.1H95.38v2.1H88.16v1.7h6.72c-.34.58-.78,1.26-1.2,1.84-.2-.12-.36-.22-.54-.32l-.9,1.04a27.908,27.908,0,0,1,2.82,2.1c-.48.5-.96.98-1.4,1.4l-1.26.06.34-.16-.34-1.4c-1.84.76-3.74,1.52-5,1.94l.9,1.52c1.1-.5,2.44-1.12,3.74-1.74Zm-4.24-6.02A19.275,19.275,0,0,1,91.12-9.1l1.3-1.12a16.467,16.467,0,0,0-3.14-2.1ZM101.42-9.3a23.449,23.449,0,0,0,3.2-2.44l-1.66-.82a19.878,19.878,0,0,1-2.9,2.52ZM97.3-5.38H95.38v1.44H87.54v1.72h7.84V1.6H97.3V-2.22h8V-3.94h-8Zm16.76-11.1a21.729,21.729,0,0,1-5.64,7.9,12.765,12.765,0,0,1,1.12,1.94,21.932,21.932,0,0,0,2.32-2.52V1.54h1.86V-11.78a28.723,28.723,0,0,0,2.16-4.1Zm6.7,16.04c-1.04,0-1.24-.2-1.24-1.34V-7.24a48.446,48.446,0,0,0,6.9-4.14L125.08-13a31.713,31.713,0,0,1-5.56,3.86V-16.3h-1.86V-1.8c0,2.42.66,3.1,2.92,3.1h3.78c2.18,0,2.72-1.18,2.96-4.5a5.476,5.476,0,0,1-1.74-.8c-.16,2.86-.3,3.56-1.34,3.56ZM10,25.08a2.32,2.32,0,1,0,2.32,2.32A2.322,2.322,0,0,0,10,25.08Zm25.66,2.4a11.835,11.835,0,0,1-4.02,4.24,11.674,11.674,0,0,1-3.8-4.24Zm1.38-1.92-.32.08H32.5V22.9h7.46V21.06H32.5V18.22H30.58v2.84h-7.4V22.9h7.4v2.74H24.1v1.84h3.34l-1.38.48a14.477,14.477,0,0,0,3.78,4.74,26.847,26.847,0,0,1-7.46,2.08,6.776,6.776,0,0,1,1.04,1.78,26.918,26.918,0,0,0,8.12-2.66,21.731,21.731,0,0,0,8.1,2.72,8.724,8.724,0,0,1,1.18-1.8,22.322,22.322,0,0,1-7.44-2.08,13.987,13.987,0,0,0,4.96-6.4Zm23.32-7.22a70.129,70.129,0,0,1-10,.96,6.076,6.076,0,0,1,.42,1.42,65.211,65.211,0,0,0,10.62-1Zm-3.58,4.78c-.1-.62-.34-1.7-.56-2.52l-1.48.26c.2.84.42,1.96.5,2.62Zm-6.5,5.84-.26-1.7c-.62.2-1.28.38-1.9.56V23.84h2V22.12h-2V18.24h-1.7v3.88H44.1v1.72h2.32v4.5c-.94.26-1.82.5-2.52.68l.3,1.84,2.22-.7v4.36c0,.28-.1.34-.36.34-.22.02-.96.02-1.76,0a5.937,5.937,0,0,1,.5,1.72,5.616,5.616,0,0,0,2.6-.36c.54-.28.72-.78.72-1.7V29.64Zm8.56,1.46a7.048,7.048,0,0,1-1.86,2.48,8.5,8.5,0,0,1-2.38-2.48Zm1.08-1.44-.32.04H54.42c.06-.38.14-.72.2-1.1h7.56V26.38H54.84c.06-.44.1-.86.14-1.3h6.6V23.6H59.4c.58-.82,1.2-1.82,1.76-2.74l-1.76-.54a18.858,18.858,0,0,1-1.68,3.28H52.46l1.14-.4a16.78,16.78,0,0,0-.94-2.34l-1.42.38a18.594,18.594,0,0,1,.82,2.36H50.68v1.48h2.5c-.04.42-.08.84-.12,1.3h-2.8v1.54h2.58c-.46,2.76-1.52,5.6-4.28,7.3a4.758,4.758,0,0,1,1.22,1.32,10.047,10.047,0,0,0,3.82-4.8,11.93,11.93,0,0,0,1.98,2.16,14.015,14.015,0,0,1-3.68,1.32,6.445,6.445,0,0,1,1.02,1.4A14.083,14.083,0,0,0,57,34.9a14.18,14.18,0,0,0,4.44,1.72,7.452,7.452,0,0,1,1.14-1.56,14.034,14.034,0,0,1-4.18-1.32,9.78,9.78,0,0,0,2.54-4.34Zm9.7-10.66a22.42,22.42,0,0,1-4.24,7.7,11.661,11.661,0,0,1,1.04,1.88c.5-.6.98-1.24,1.48-1.96v10.6h1.78V22.86a31.936,31.936,0,0,0,1.68-4.04Zm14.2,5.48V22.04H78.1V18.32H76.28v3.72H70.92V23.8H75.3a20.253,20.253,0,0,1-5.26,8.3,6.873,6.873,0,0,1,1.32,1.42,22.567,22.567,0,0,0,4.92-8.18v6.02H73.3v1.68h2.98v3.42H78.1V33.04h2.96V31.36H78.1V25.22a23.268,23.268,0,0,0,4.78,8.24,7.141,7.141,0,0,1,1.42-1.48,20.115,20.115,0,0,1-5.16-8.18Zm5,.7a10.29,10.29,0,0,0,.88-1.82h2.34V24.5Zm4.98-1.82h3.82V21H93.8V18.34H92.04V21H90.3c.18-.64.36-1.32.52-1.98l-1.74-.36a15.376,15.376,0,0,1-1.92,5.2,12.119,12.119,0,0,1,1.56.64H87.34v1.7h4.7v1.78H88.2v7h1.66V29.64h2.18v6.94H93.8V29.64h2.32V33.2c0,.2-.06.26-.26.26-.2.02-.8.02-1.52,0a4.689,4.689,0,0,1,.5,1.58,5,5,0,0,0,2.32-.28c.52-.28.64-.76.64-1.52V27.98h-4V26.2h4.6V24.5H93.8Zm7.54-2.7H99.62V31.04h1.72Zm1.8-1.48V34.22c0,.32-.1.42-.42.42-.34.02-1.42.02-2.54-.02a8.311,8.311,0,0,1,.6,1.9,8.471,8.471,0,0,0,3.26-.36c.66-.32.9-.84.9-1.96V18.5Zm23.18,9.48c0-4.18-3.04-7.54-7.84-7.54-5.02,0-8.94,3.84-8.94,8.32,0,3.34,1.82,5.54,3.8,5.54s3.64-2.26,4.84-6.34a39.824,39.824,0,0,0,1.2-5.62,5.318,5.318,0,0,1,4.84,5.58,5.752,5.752,0,0,1-4.84,5.68,12.36,12.36,0,0,1-1.78.28l1.18,1.88C123.64,35.06,126.32,32.18,126.32,27.98Zm-14.76.58a6.686,6.686,0,0,1,5.7-6.18,31.841,31.841,0,0,1-1.1,5.16c-.92,3.08-1.86,4.38-2.76,4.38C112.54,31.92,111.56,30.86,111.56,28.56Zm25.8.32c-.32-.54-1.8-2.8-2.36-3.54V24.16h2.14V22.44H135V18.22h-1.72v4.22h-2.6v1.72h2.44a21.336,21.336,0,0,1-2.86,7.14,9.414,9.414,0,0,1,.88,1.6,18.657,18.657,0,0,0,2.14-4.8v8.46H135v-9c.52.94,1.1,2.04,1.36,2.68Zm6.32,3.1V30.74h2.36v1.24Zm-3.9-1.24H142v1.24h-2.22ZM142,28.32v1.14h-2.22V28.32Zm4.04,0v1.14h-2.36V28.32ZM141.5,23.5h2.74v1.12H141.5Zm0-2.4h2.74v1.1H141.5Zm7.46,10.88h-1.18v-5h-4.1V26h5.08V24.62h-2.78V23.5h2.08V22.2h-2.08V21.1h2.38V19.76h-2.38V18.22h-1.74v1.54H141.5V18.22h-1.74v1.54h-2.18V21.1h2.18v1.1H138v1.3h1.76v1.12h-2.62V26H142v.98h-3.92v5H136.8v1.4h1.28v3.1h1.7v-3.1h6.26v1.3c0,.24-.08.32-.32.32-.26.02-1.12.02-1.96-.02a6.957,6.957,0,0,1,.5,1.5,8.891,8.891,0,0,0,2.76-.24c.58-.28.76-.7.76-1.54V33.38h1.18Zm6.78-10.8a10.568,10.568,0,0,1,.9,1.9l1.5-.46a10.264,10.264,0,0,0-.7-1.44h3.32a8.246,8.246,0,0,1-1.08.98,11.682,11.682,0,0,1,1.62.92,12.364,12.364,0,0,0,1.72-1.9h1.36a11.081,11.081,0,0,1,1.22,1.92l1.56-.5a7.292,7.292,0,0,0-.92-1.42h4.06v-1.5h-6.32a9.993,9.993,0,0,0,.56-1.14l-1.8-.44a9.525,9.525,0,0,1-1.82,2.92V19.68h-4.88a11.694,11.694,0,0,0,.56-1.12l-1.74-.46a10.574,10.574,0,0,1-2.9,3.98,10.683,10.683,0,0,1,1.52,1.04,13.484,13.484,0,0,0,1.64-1.94Zm14.4,10.68V30.38h-8.06v-1.4H160.8a4.306,4.306,0,0,0,1.64-3.58v-.76h3.64v2.52c0,1.16.12,1.5.44,1.8a1.726,1.726,0,0,0,1.18.4h.94a2.146,2.146,0,0,0,.98-.2,1.133,1.133,0,0,0,.6-.68,8.678,8.678,0,0,0,.24-1.9,3.415,3.415,0,0,1-1.26-.64c-.02.7-.04,1.24-.08,1.48a.618.618,0,0,1-.18.4.8.8,0,0,1-.34.06h-.42a.325.325,0,0,1-.28-.1c-.06-.06-.06-.28-.06-.62V23.38h-7.1v1.98a2.772,2.772,0,0,1-.98,2.28l-.04-1.12c-.9.14-1.8.28-2.68.42V24.82h2.66V23.5h-7.04v1.32h2.68V27.2c-1.16.16-2.22.3-3.1.42l.26,1.52c1.84-.32,4.3-.7,6.68-1.08a7.259,7.259,0,0,1-1.36.64,6.619,6.619,0,0,1,1.24,1.24,7.7,7.7,0,0,0,1.22-.6v1.04h-7.96v1.48h6.54a19.366,19.366,0,0,1-6.94,2.7,7.236,7.236,0,0,1,1.16,1.54,19.228,19.228,0,0,0,7.2-3.52v3.94h1.8V32.58a19,19,0,0,0,7.24,3.46,7.038,7.038,0,0,1,1.18-1.6,19.71,19.71,0,0,1-7.08-2.58Zm-7.72-5.58a12.1,12.1,0,0,1,2.48,2.1l1.14-1.08a12.478,12.478,0,0,0-2.56-1.98Z" transform="translate(280.916 16.82)" fill="#0077c0"/>
  <path id="合体_7" data-name="合体 7" d="M-5347.809,271c-.284-.018-.554-.188-.83-.212s-.562-.049-.837-.082-.565-.025-.838-.066-.561-.074-.833-.126-.546-.138-.817-.2-.533-.183-.8-.255-.588,0-.852-.082-.488-.317-.748-.413-.527-.194-.781-.3-.559-.133-.808-.256-.456-.341-.7-.478-.483-.282-.716-.434-.5-.258-.728-.425-.471-.314-.684-.5-.369-.43-.57-.625-.426-.368-.614-.577-.342-.445-.516-.666-.319-.458-.479-.69-.387-.417-.532-.659-.156-.552-.287-.8-.3-.474-.414-.732-.249-.5-.352-.765-.181-.528-.271-.8-.111-.547-.189-.821-.2-.523-.263-.8-.164-.535-.219-.814-.026-.56-.071-.842-.1-.546-.141-.828-.084-.55-.111-.833a.745.745,0,0,1,.263-.62.811.811,0,0,1,.612-.283c.409,0,.409-.077.818-.077s.409.041.818.041.408-.083.816-.083.409.086.817.086.408-.086.816-.086.408-.019.815-.019.407.053.814.053.408.054.816.054.407-.024.815-.024h.815c.408,0,.408-.066.815-.066.274,0,.48.225.667.4a1.076,1.076,0,0,1,.405.642c.03.3.055.585.106.862.055.293.091.583.169.853a7.416,7.416,0,0,0,.3.817,6.768,6.768,0,0,0,.37.787,6.254,6.254,0,0,0,.488.721,5.94,5.94,0,0,0,.57.66,6.133,6.133,0,0,0,.731.476,6.44,6.44,0,0,0,.674.566,7.85,7.85,0,0,0,.83.283c.263.1.552.141.838.219a1.541,1.541,0,0,1,.742.44,1.254,1.254,0,0,1,.178.817c0,.41.028.41.028.819s-.012.41-.012.82-.051.409-.051.818.062.409.062.818.1.409.1.818-.011.408-.011.817-.1.407-.1.816.1.409.1.817a1.037,1.037,0,0,1-.337.691,1.006,1.006,0,0,1-.663.328Zm4.67-.288a1.043,1.043,0,0,1-.3-.706c0-.4.145-.4.145-.8s-.123-.4-.123-.8.007-.4.007-.795.067-.4.067-.794-.128-.4-.128-.795.131-.4.131-.793-.063-.4-.063-.793-.028-.4-.028-.794a1.129,1.129,0,0,1,.322-.743,1.258,1.258,0,0,1,.709-.4c.28-.037.561-.009.818-.061.277-.056.517-.212.769-.285.273-.079.568-.052.81-.15a6.085,6.085,0,0,0,.732-.37,4.965,4.965,0,0,0,.683-.456,3.863,3.863,0,0,0,.506-.642,3.5,3.5,0,0,0,.491-.645,3.491,3.491,0,0,0,.224-.782,3.885,3.885,0,0,0,.143-.8,4.311,4.311,0,0,0-.1-.754,3.683,3.683,0,0,0-.24-.714,3.264,3.264,0,0,0-.337-.665,3.012,3.012,0,0,0-.5-.556c-.188-.168-.329-.417-.554-.536s-.53-.145-.8-.258c-.244-.1-.52-.152-.793-.252-.25-.091-.46-.337-.734-.428-.255-.085-.563-.036-.839-.121-.257-.081-.524-.157-.8-.239s-.481-.308-.756-.388-.559-.048-.832-.129-.538-.128-.811-.208-.5-.242-.776-.324l-.8-.245c-.262-.081-.538-.129-.809-.214s-.513-.206-.783-.293-.538-.131-.807-.221-.522-.182-.789-.275-.541-.134-.806-.23-.511-.219-.775-.317-.494-.26-.757-.362-.521-.19-.783-.294-.51-.2-.757-.3-.5-.23-.738-.346-.512-.2-.749-.321-.511-.208-.744-.342-.414-.372-.64-.516-.452-.3-.671-.456-.538-.194-.75-.359-.334-.478-.541-.665-.395-.4-.59-.594-.432-.362-.615-.573-.295-.48-.463-.7-.44-.374-.594-.607-.2-.534-.336-.779-.275-.483-.4-.737-.207-.515-.308-.777-.294-.488-.376-.757-.136-.544-.2-.819-.079-.553-.119-.832-.136-.548-.156-.83-.076-.56-.076-.844.14-.549.152-.819-.092-.558-.068-.827.068-.55.105-.818.218-.52.27-.786.135-.527.2-.789-.021-.578.064-.836.334-.462.436-.714.175-.517.293-.762.139-.548.275-.784.364-.421.518-.646.329-.435.5-.649.307-.455.493-.658.327-.449.528-.638.46-.306.674-.481.445-.313.67-.474.438-.321.673-.468.472-.269.715-.4.479-.257.729-.377.5-.208.757-.316.469-.294.73-.39.556-.057.821-.141.5-.238.764-.312.513-.188.784-.252.528-.143.8-.2a1.752,1.752,0,0,1,.424-.014,1.932,1.932,0,0,0,.408-.009c.266-.044.532-.113.807-.151s.54-.059.816-.09.544-.005.821-.029a.868.868,0,0,1,.691.168.972.972,0,0,1,.4.666c0,.4-.011.4-.011.8s-.1.4-.1.8.1.4.1.795-.052.4-.052.795.063.4.063.794-.15.4-.15.793.006.4.006.793.047.4.047.794a1.044,1.044,0,0,1-.265.718,1.108,1.108,0,0,1-.689.33c-.293.04-.583.037-.838.1a6.131,6.131,0,0,0-.759.386,5.975,5.975,0,0,0-.822.209,3.774,3.774,0,0,0-.686.5,3.145,3.145,0,0,0-.454.711,3.405,3.405,0,0,0-.435.719,4.6,4.6,0,0,0-.176.826,7.119,7.119,0,0,0,.018.841,3.7,3.7,0,0,0,.138.866,3.453,3.453,0,0,0,.238.85,3.561,3.561,0,0,0,.546.7,3.962,3.962,0,0,0,.644.607,4.837,4.837,0,0,0,.762.46c.234.107.518.126.782.226.242.093.45.317.716.406.247.083.522.116.791.2.25.077.518.128.787.206.252.073.508.164.776.24.253.071.5.2.765.279s.529.095.8.17.527.107.793.183.495.224.76.3.521.131.786.211.519.138.782.22.5.2.761.287.52.139.781.226.535.1.8.188.495.217.753.31.535.105.793.2.475.27.731.369.535.115.79.218.518.188.765.295.481.272.724.387.468.287.705.412.494.237.727.371.471.277.7.421.5.244.715.4.365.427.576.592c.009.007.031,0,.054-.015s.045-.021.054-.014c.217.176.374.414.575.6s.472.311.66.509.338.442.512.653.359.422.518.645.243.5.385.734.376.422.5.667.174.528.28.783.144.529.231.792.226.5.295.771.1.539.147.812.167.529.2.805.079.546.094.825.011.551.011.829.024.571.01.85-.133.56-.164.838-.123.552-.171.827.059.592-.006.863-.261.517-.345.785-.142.549-.244.81-.234.514-.355.768-.289.483-.428.728-.269.493-.427.727-.264.5-.438.727-.305.485-.5.7-.4.4-.6.6-.465.328-.683.511-.433.359-.661.53-.458.325-.7.481-.482.286-.73.429-.517.22-.772.35-.475.3-.736.421-.514.225-.78.331-.505.256-.776.35-.54.163-.813.246-.535.181-.812.254-.56.075-.839.139-.554.09-.835.144-.548.121-.831.167-.562.025-.845.063-.542.2-.826.229a3.781,3.781,0,0,1-.446.012c-.135,0-.27,0-.4.007-.046,0-.092.006-.138.006A.8.8,0,0,1-5343.138,270.714Zm-107.8.071c-.283-.034-.559-.064-.833-.109a2.433,2.433,0,0,0-.4-.021,2.118,2.118,0,0,1-.443-.028c-.277-.059-.528-.216-.8-.287s-.542-.147-.807-.232-.555-.115-.815-.215-.54-.174-.794-.289-.476-.311-.723-.441-.514-.233-.753-.379-.456-.33-.686-.491-.438-.348-.657-.524-.492-.289-.7-.479-.308-.485-.5-.688-.418-.371-.6-.587-.377-.412-.548-.638-.317-.46-.476-.695-.251-.5-.4-.741-.325-.455-.459-.7-.294-.477-.417-.733-.163-.538-.275-.8-.233-.506-.334-.772-.212-.516-.3-.786-.132-.543-.215-.815-.184-.527-.257-.8-.216-.521-.281-.8-.084-.553-.143-.832-.191-.533-.242-.812-.012-.565-.057-.846-.169-.541-.207-.822-.091-.554-.123-.836-.008-.563-.034-.846,0-.562-.018-.845-.064-.556-.081-.84-.031-.559-.043-.843-.088-.557-.1-.842.12-.562.116-.846-.093-.559-.093-.843-.035-.567-.031-.846.083-.565.09-.843-.077-.569-.065-.847.148-.559.165-.837.019-.564.04-.842.052-.562.078-.839-.042-.572-.011-.848.139-.553.176-.828.043-.566.086-.84.152-.548.2-.821.071-.561.128-.833.077-.562.141-.832.144-.548.215-.815.143-.548.223-.813.287-.5.376-.763.091-.567.189-.826.157-.548.267-.8.376-.45.5-.7.123-.57.254-.815.269-.5.412-.738.429-.4.584-.626.229-.528.4-.749.325-.464.506-.677.437-.364.631-.565.4-.4.6-.585.4-.4.614-.575.466-.312.7-.474.439-.351.679-.5.485-.281.734-.413.477-.3.735-.418.527-.195.792-.3.547-.127.817-.213.529-.175.8-.247.539-.143.816-.2.547-.1.829-.145.544-.129.827-.163a.88.88,0,0,1,.713.189.965.965,0,0,1,.183.7c0,.417-.007.417-.007.834s.157.417.157.835-.153.417-.153.833-.02.416-.02.833.064.417.064.833-.083.416-.083.832.134.415.134.831-.118.416-.118.832a1.406,1.406,0,0,1-.229.791,2.194,2.194,0,0,1-.6.594,4.637,4.637,0,0,0-.547.638,5.133,5.133,0,0,0-.519.641,6.619,6.619,0,0,0-.444.7c-.119.236-.17.515-.275.784-.1.247-.142.519-.228.794-.079.255-.282.483-.352.761-.065.259-.006.556-.062.836-.053.262-.113.53-.159.81-.044.265-.218.519-.256.8-.036.267-.091.541-.122.823s.116.561.091.842-.209.533-.229.814.005.551-.01.832.1.553.086.835-.115.546-.123.827-.032.549-.036.83.044.551.042.832.07.55.07.83-.083.56-.08.834-.025.561-.021.835.026.559.034.832,0,.561.014.833.027.56.042.831.011.56.029.831.139.551.163.822-.079.572-.049.842.146.549.183.817.129.549.173.814c.046.282.119.548.171.811.057.28-.007.578.058.838.069.279.171.54.25.8.084.276.165.543.261.791.1.27.172.549.29.787a6.684,6.684,0,0,0,.47.7,5.05,5.05,0,0,0,.583.592,4.127,4.127,0,0,0,.6.557,2.422,2.422,0,0,1,.536.706,1.618,1.618,0,0,1,.343.814c0,.414-.052.414-.052.827s.062.414.062.827-.149.413-.149.826.006.413.006.826.046.413.046.826.016.412.016.825-.029.411-.029.823-.054.412-.054.825c0,.26.033.551-.138.717a.559.559,0,0,1-.406.131A2.746,2.746,0,0,1-5450.936,270.785Zm-40.734,0c-.283-.034-.56-.064-.833-.109a2.433,2.433,0,0,0-.4-.021,2.121,2.121,0,0,1-.443-.028c-.278-.059-.528-.216-.8-.287s-.542-.147-.806-.232-.556-.115-.816-.215-.54-.174-.794-.289-.476-.31-.723-.44-.514-.233-.753-.379-.456-.33-.686-.491-.438-.348-.657-.524-.491-.289-.7-.479-.307-.485-.5-.688-.418-.371-.6-.587-.377-.412-.549-.638-.316-.46-.475-.695-.252-.5-.4-.741-.324-.455-.458-.7-.294-.477-.417-.733-.163-.538-.275-.8-.233-.506-.334-.772-.211-.516-.3-.786-.133-.543-.214-.815-.184-.527-.258-.8-.215-.521-.281-.8-.084-.553-.143-.832-.192-.533-.243-.812-.012-.565-.056-.846-.169-.541-.208-.822-.091-.554-.123-.836-.008-.563-.035-.846,0-.562-.018-.845-.064-.556-.081-.84-.031-.559-.043-.843-.087-.557-.1-.842.12-.562.116-.846-.093-.559-.093-.843-.035-.567-.031-.846.083-.565.09-.843-.077-.569-.065-.847.148-.559.165-.837.019-.564.04-.842.051-.562.078-.839-.042-.572-.011-.848.139-.553.176-.828.043-.566.086-.84.151-.548.2-.821.072-.561.128-.833.078-.562.141-.832.144-.548.216-.815.142-.548.223-.813.286-.5.375-.763.09-.567.19-.826.157-.548.266-.8.376-.45.5-.7.123-.57.254-.815.27-.5.413-.738.428-.4.583-.626.229-.528.4-.749.325-.464.506-.677.437-.364.631-.565.4-.4.6-.585.4-.4.614-.575.467-.312.7-.474.439-.351.679-.5.485-.281.734-.413.477-.3.735-.418.527-.195.792-.3.547-.127.817-.213.528-.175.8-.247.538-.143.816-.2.547-.1.828-.145.545-.129.827-.163a.88.88,0,0,1,.713.189.965.965,0,0,1,.184.7c0,.417-.007.417-.007.834s.157.417.157.835-.153.417-.153.833-.02.416-.02.833.064.417.064.833-.083.416-.083.832.134.415.134.831-.118.416-.118.832a1.406,1.406,0,0,1-.228.791,2.189,2.189,0,0,1-.6.594,4.6,4.6,0,0,0-.546.638,5.092,5.092,0,0,0-.52.641,6.544,6.544,0,0,0-.444.7c-.119.236-.17.515-.275.784-.1.247-.142.519-.228.794-.078.255-.282.483-.351.761-.065.259-.006.556-.063.836-.053.262-.113.53-.16.811-.044.265-.218.518-.256.8-.036.267-.091.541-.122.823s.116.561.092.842-.21.533-.229.814,0,.551-.01.832.1.553.085.835-.114.546-.123.827-.031.549-.036.83.044.551.042.832.07.55.07.83-.083.56-.08.834-.025.561-.02.835.025.559.034.832,0,.56.014.833.026.56.041.831.011.56.03.831.139.551.163.822-.078.572-.049.842.147.549.183.817.129.549.173.814c.046.282.119.548.172.811.057.28-.007.578.058.838.069.279.171.54.25.8.085.276.165.543.261.791.1.27.172.549.291.787a6.606,6.606,0,0,0,.469.7,5.019,5.019,0,0,0,.584.592,4.1,4.1,0,0,0,.6.557,2.439,2.439,0,0,1,.536.706,1.617,1.617,0,0,1,.343.814c0,.414-.052.414-.052.827s.062.414.062.827-.149.413-.149.826.005.413.005.826.047.413.047.826.016.412.016.825-.029.411-.029.823-.055.412-.055.825c0,.26.034.551-.137.717a.558.558,0,0,1-.405.131A2.746,2.746,0,0,1-5491.67,270.785Zm45.37-.191a.961.961,0,0,1-.162-.7c0-.415-.083-.415-.083-.83s-.051-.415-.051-.83-.023-.414-.023-.829.128-.414.128-.828-.028-.414-.028-.828.012-.414.012-.827.051-.413.051-.827-.062-.414-.062-.828a1.682,1.682,0,0,1,.159-.877,2.57,2.57,0,0,1,.619-.659,4.187,4.187,0,0,0,.665-.49,5.812,5.812,0,0,0,.42-.714,6.653,6.653,0,0,0,.448-.692c.117-.237.167-.511.27-.78.1-.248.326-.46.41-.734.078-.255.146-.526.215-.8.065-.259.08-.541.136-.821.053-.262.086-.537.132-.817.044-.265.114-.534.152-.815s.123-.535.153-.817-.1-.559-.08-.84.192-.533.212-.813.027-.548.042-.829-.079-.551-.067-.833.115-.545.123-.826.011-.549.016-.83-.059-.55-.056-.83-.036-.549-.036-.829.077-.556.074-.828-.049-.555-.054-.827.022-.555.016-.826.005-.556-.006-.827-.115-.551-.13-.82.109-.563.091-.831-.093-.551-.117-.82-.079-.552-.108-.819-.046-.556-.082-.822-.018-.563-.061-.827-.146-.543-.2-.8c-.056-.278-.155-.538-.219-.8-.069-.276-.066-.564-.145-.818-.083-.274-.194-.531-.289-.778-.1-.267-.231-.515-.348-.752a7.439,7.439,0,0,0-.37-.746,5.461,5.461,0,0,0-.526-.647,4.3,4.3,0,0,0-.658-.506,2.409,2.409,0,0,1-.564-.672,1.658,1.658,0,0,1-.328-.824c0-.419.086-.419.086-.837s-.086-.419-.086-.838-.019-.419-.019-.836.053-.418.053-.836.054-.418.054-.836-.024-.418-.024-.835,0-.417,0-.834-.066-.418-.066-.836c0-.259.221-.452.391-.617a.789.789,0,0,1,.633-.3c.282.034.567.038.84.083s.544.171.815.229.573.033.841.1.509.269.774.355.537.165.8.265.518.216.771.331.553.153.8.284.458.335.7.481.495.272.723.433.417.38.635.556.452.333.66.523.438.355.634.557.376.417.56.632.365.427.536.652.229.522.389.756.391.411.537.654.33.457.465.707.113.569.236.825.365.446.478.708.221.515.323.781.047.576.139.845.283.495.366.767.187.528.261.8.056.562.122.838.123.543.181.821.147.539.2.819.058.556.1.836.127.545.165.827.068.554.1.836.113.551.14.833.019.56.04.844-.03.562-.013.845.043.557.055.841.03.558.038.842,0,.559.008.843.052.559.052.843.056.566.052.845-.12.563-.128.842-.025.563-.037.841.131.573.114.851-.189.553-.21.83-.065.559-.092.836.008.568-.023.844-.149.549-.187.824.054.578.011.853-.208.537-.258.81-.092.555-.148.827-.141.545-.205.814-.029.574-.1.841-.166.54-.247.8-.2.528-.29.79-.125.555-.224.814-.166.545-.275.8-.35.461-.471.712-.141.562-.272.807-.284.492-.427.73-.411.406-.566.637-.336.446-.5.668-.212.552-.393.764-.494.312-.687.513-.365.425-.571.614-.34.468-.558.644-.5.272-.73.434-.471.3-.711.448-.456.331-.7.464-.47.322-.727.44-.547.148-.812.251-.534.165-.8.252-.529.179-.8.252-.544.123-.821.182-.546.112-.827.159-.553.064-.835.1a1.779,1.779,0,0,1-.21.014A.692.692,0,0,1-5446.3,270.595Zm-40.734,0a.961.961,0,0,1-.162-.7c0-.415-.083-.415-.083-.83s-.051-.415-.051-.83-.023-.414-.023-.829.127-.414.127-.828-.029-.414-.029-.828.012-.414.012-.827.051-.413.051-.827-.062-.414-.062-.828a1.682,1.682,0,0,1,.16-.877,2.587,2.587,0,0,1,.619-.659,4.221,4.221,0,0,0,.666-.489,5.981,5.981,0,0,0,.419-.715,6.821,6.821,0,0,0,.449-.692c.116-.237.167-.511.27-.78.095-.248.326-.46.409-.734.078-.255.147-.526.216-.8.064-.259.079-.541.135-.821.053-.262.087-.537.133-.817.043-.265.113-.534.151-.815s.124-.535.154-.817-.1-.559-.08-.84.192-.533.212-.813.028-.548.043-.829-.079-.551-.067-.833.115-.545.124-.826.011-.549.016-.83-.059-.55-.057-.83-.036-.549-.036-.829.077-.556.075-.828-.049-.555-.054-.827.022-.555.015-.826.006-.557,0-.827-.116-.551-.13-.82.109-.563.091-.831-.093-.551-.116-.82-.08-.551-.109-.819-.046-.556-.082-.822-.017-.563-.06-.827-.146-.543-.2-.8c-.056-.278-.156-.538-.22-.8-.068-.276-.066-.564-.144-.818-.083-.274-.194-.531-.289-.778-.1-.267-.231-.515-.348-.752a7.545,7.545,0,0,0-.37-.746,5.418,5.418,0,0,0-.527-.647,4.27,4.27,0,0,0-.657-.506,2.4,2.4,0,0,1-.564-.672,1.654,1.654,0,0,1-.328-.824c0-.419.085-.419.085-.837s-.085-.419-.085-.838-.02-.419-.02-.836.054-.418.054-.836.053-.418.053-.836-.023-.418-.023-.835,0-.417,0-.834-.066-.418-.066-.836c0-.259.22-.452.391-.617a.789.789,0,0,1,.633-.3c.282.034.567.038.841.083s.543.171.815.229.573.033.84.1.51.269.774.355.538.165.8.265.519.216.771.331.553.153.8.284.458.335.7.481.494.272.724.433.416.38.635.556.452.333.66.523.438.355.633.557.376.417.56.632.365.427.536.652.23.522.388.756.391.411.538.654.33.457.464.707.113.569.237.825.365.446.478.708.221.515.323.781.047.576.139.845.283.494.366.767.187.528.261.8.056.562.121.838.124.543.182.821.147.539.2.819.057.556.1.836.128.545.166.826.068.554.1.837.113.551.14.833.018.56.04.844-.029.562-.013.845.043.557.055.841.03.558.038.842,0,.559.009.843.052.559.052.843.056.566.052.845-.12.563-.127.842-.025.563-.037.841.13.573.114.851-.188.553-.21.83-.065.559-.091.836.007.568-.024.844-.148.549-.186.824.053.578.01.853-.208.537-.259.81-.091.555-.148.827-.141.545-.205.814-.028.574-.1.841-.167.54-.247.8-.2.528-.29.79-.125.555-.224.814-.165.545-.274.8-.351.462-.471.712-.141.562-.272.807-.284.492-.427.73-.411.406-.566.637-.337.446-.5.668-.211.552-.392.764-.494.312-.687.513-.365.425-.571.614-.34.468-.559.644-.5.272-.73.434-.472.3-.711.448-.456.331-.7.464-.469.322-.726.44-.548.148-.812.251-.535.165-.8.252-.529.179-.8.252-.544.123-.821.182-.546.112-.826.159-.554.064-.836.1a1.764,1.764,0,0,1-.21.014A.691.691,0,0,1-5487.034,270.595Zm66.915-.766c-.411,0-.411-.032-.822-.032s-.412.015-.823.015-.411-.015-.822-.015-.411,0-.822,0-.41-.021-.82-.021-.411.1-.821.1-.411-.131-.822-.131-.41.083-.821.083a.831.831,0,0,1-.65-.268.894.894,0,0,1-.168-.715c.1-.4.228-.371.333-.774s.077-.41.181-.814.116-.4.22-.8.154-.39.257-.792.045-.418.149-.821.007-.427.111-.829.114-.4.218-.8.2-.377.3-.779.012-.426.116-.828.154-.389.259-.791.043-.418.147-.82.249-.364.353-.766.1-.4.2-.806.059-.413.163-.815.089-.406.192-.809.132-.394.237-.8.156-.387.26-.789-.053-.442.051-.844.247-.365.351-.767.1-.4.2-.8,0-.428.1-.828.2-.377.3-.778.1-.4.205-.8.038-.419.142-.821.066-.411.17-.813.18-.382.284-.784.063-.412.166-.814.137-.393.241-.795.126-.4.23-.8.016-.425.119-.827.242-.366.346-.768.054-.414.157-.816.078-.408.181-.809.121-.4.226-.8.164-.386.268-.788.054-.414.158-.815.065-.412.168-.813.181-.382.284-.783.084-.407.188-.809.086-.406.19-.808.146-.391.25-.792.077-.408.181-.809.029-.421.132-.822.144-.391.248-.792.023-.422.127-.823.187-.38.29-.781.021-.423.125-.825.085-.406.189-.808.155-.388.259-.79.155-.388.259-.789.081-.406.184-.808.1-.4.207-.8.04-.417.144-.818c.073-.28.343-.452.561-.621a1.248,1.248,0,0,1,.741-.342c.415,0,.416-.033.83-.024s.414.025.828.025.414-.037.828-.037.414.073.827.073.414-.095.828-.095.414.122.827.122.413-.017.825-.017.415.006.828.006.414-.1.827-.1.413.072.826.072a.8.8,0,0,1,.631.273.776.776,0,0,1,.08.672c-.1.4-.073.412-.177.815s-.063.414-.168.817-.114.4-.219.8-.1.4-.2.807-.226.371-.33.774-.007.427-.111.829-.053.415-.157.816-.263.361-.367.763.032.438-.072.84-.1.4-.2.805-.256.363-.361.765,0,.43-.1.832-.075.409-.18.811-.19.38-.295.781-.105.4-.21.8-.069.411-.174.812-.144.391-.248.792-.063.413-.167.814-.108.4-.213.8-.054.414-.158.815-.135.393-.239.793-.172.384-.277.785-.092.4-.2.807-.1.4-.2.805-.113.4-.217.8-.06.413-.164.815-.049.417-.153.818-.211.374-.315.775-.112.4-.216.8.048.441-.057.843-.252.363-.357.765-.124.4-.228.8-.042.418-.146.819-.185.381-.289.782.026.436-.079.837-.219.372-.323.773-.092.4-.2.806-.125.4-.23.8,0,.429-.1.83-.12.4-.225.8-.137.393-.241.795-.041.418-.145.82-.06.412-.164.813-.235.367-.339.769.015.432-.089.833-.115.4-.219.8-.235.367-.339.769-.125.4-.23.8.063.445-.04.846-.265.36-.369.761-.064.411-.168.812.016.432-.088.833-.2.377-.3.778a1.224,1.224,0,0,1-.459.665,1.263,1.263,0,0,1-.759.313c-.412,0-.412.073-.824.073S-5419.707,269.828-5420.119,269.828Zm-128.264-.061c-.415,0-.415.123-.829.123s-.414-.01-.828-.01-.414-.135-.828-.135-.413-.022-.827-.022-.413.174-.827.174-.413-.165-.825-.165-.414.041-.827.041-.413.124-.827.124-.414-.094-.827-.094a.709.709,0,0,1-.576-.3.743.743,0,0,1-.18-.643c.1-.4.034-.422.139-.825s.186-.382.291-.786.135-.395.239-.8.091-.406.195-.808.119-.4.224-.8.1-.4.206-.805.125-.4.23-.8.01-.427.114-.829.232-.369.336-.772.024-.423.129-.825.055-.415.16-.817.083-.408.187-.81.228-.37.333-.772.077-.409.181-.81.117-.4.221-.8.154-.388.258-.79.045-.417.149-.818.008-.427.112-.829.115-.4.219-.8.2-.377.3-.777.012-.425.116-.826.154-.388.259-.789.044-.418.149-.819.249-.364.354-.766.1-.4.2-.8.059-.414.164-.816.089-.405.193-.807.133-.394.237-.8.156-.388.261-.79-.052-.442.052-.845.247-.365.352-.766.1-.4.2-.805,0-.428.105-.83.2-.377.3-.779.1-.4.206-.8.039-.419.143-.82.066-.411.17-.812.18-.382.285-.783.063-.412.167-.813.138-.393.241-.795.128-.4.232-.8.016-.424.12-.826.242-.365.346-.766.054-.414.159-.815.077-.408.182-.809.121-.4.226-.8.164-.386.269-.787.055-.415.159-.816.065-.412.17-.813.181-.381.285-.782.084-.406.188-.807.086-.406.19-.807.148-.39.252-.791a1.155,1.155,0,0,1,.409-.667,1.258,1.258,0,0,1,.749-.334c.412,0,.412.042.824.042s.413-.083.824-.083.411.086.822.086.412-.086.823-.086.411-.019.822-.019.411.054.822.054.41.053.82.053.411-.024.822-.024h.822c.41,0,.41-.066.821-.066a1.31,1.31,0,0,1,.741.387,1.246,1.246,0,0,1,.518.632c.106.409.025.429.124.84s.216.382.323.791.034.427.141.835.046.424.153.832.169.392.275.8.075.416.181.824.18.388.286.795.127.4.233.81.094.411.2.819.136.4.243.808.014.432.12.84.055.421.16.828.269.365.375.773-.015.439.091.846.143.4.249.806.086.412.192.82.063.418.17.825.125.4.231.809.175.389.281.8.171.39.277.8.09.411.2.817.03.426.136.833.11.406.216.814a3.855,3.855,0,0,1,.119.956,3.816,3.816,0,0,1-.138.951c-.105.407-.165.391-.27.8s-.045.422-.15.828-.1.406-.208.812-.049.421-.154.827-.123.4-.228.807-.083.411-.188.817-.168.388-.272.793-.135.4-.241.8-.087.409-.192.815-.165.389-.27.795.019.438-.086.843-.165.389-.27.795-.029.425-.134.83-.1.407-.2.812-.245.369-.35.774.014.436-.091.841-.111.4-.216.807-.17.388-.275.793.019.437-.086.842-.231.372-.336.776-.043.421-.148.824-.077.412-.182.816a.3.3,0,0,1-.565-.006c-.1-.407-.141-.4-.246-.8s-.035-.425-.14-.832-.2-.382-.3-.788.013-.437-.092-.843-.121-.4-.227-.808-.1-.407-.2-.812-.2-.381-.3-.786-.035-.424-.14-.829-.14-.4-.245-.8-.045-.421-.15-.827-.138-.4-.243-.8-.146-.395-.251-.8-.1-.408-.2-.813-.113-.4-.218-.809.016-.437-.089-.843-.2-.379-.307-.785-.157-.391-.262-.8.054-.446-.051-.852-.242-.369-.347-.775-.11-.4-.215-.808.047-.443-.058-.847-.213-.377-.317-.782a.45.45,0,0,0-.48-.342.5.5,0,0,0-.538.327c-.105.407-.106.407-.212.814s-.07.416-.176.824-.145.4-.25.8-.063.417-.169.824-.108.405-.214.812-.054.419-.16.825-.136.4-.241.8-.173.389-.278.8-.093.409-.2.815-.1.408-.2.814-.114.4-.219.81-.061.418-.165.823-.049.421-.155.827-.211.378-.316.784-.112.4-.217.81.047.445-.058.851-.253.367-.359.772-.125.4-.229.806-.043.422-.148.827-.185.385-.29.79.025.439-.08.844-.219.375-.324.781-.092.409-.2.815-.127.4-.231.806,0,.433-.1.839-.12.4-.225.808-.137.4-.242.8a1.3,1.3,0,0,1-.4.724,1.39,1.39,0,0,1-.8.321C-5547.969,269.9-5547.969,269.768-5548.383,269.768Zm20.906.02c-.413,0-.413-.054-.825-.054s-.414.024-.828.024h-.827c-.413,0-.413.066-.826.066-.25,0-.416-.227-.554-.405a.731.731,0,0,1-.208-.626c.1-.4.073-.412.187-.814s.128-.4.233-.8.068-.412.173-.815.176-.384.28-.787.013-.426.118-.829.222-.371.326-.773.089-.406.193-.807.111-.4.216-.8.009-.427.114-.829.174-.384.279-.786.07-.411.174-.813.165-.387.269-.789.072-.41.176-.812.063-.412.167-.814.114-.4.219-.8.1-.4.2-.806.225-.369.33-.771.006-.427.111-.829.053-.415.157-.817.263-.36.367-.761-.033-.437.072-.837.1-.4.2-.8.256-.363.36-.765,0-.429.1-.831.076-.409.18-.81.19-.38.295-.781.106-.4.21-.8.069-.411.173-.812.144-.391.248-.793.063-.413.167-.815.108-.4.213-.8.055-.414.159-.816.135-.394.239-.795.172-.384.277-.786.092-.4.2-.807.1-.4.2-.8.113-.4.218-.8.06-.413.164-.814.048-.416.152-.817.211-.374.315-.775.112-.4.216-.8-.048-.441.057-.843.253-.362.357-.763.124-.4.228-.8.042-.417.146-.818.184-.381.289-.782-.026-.435.079-.837.218-.372.323-.773.092-.4.2-.806.125-.4.23-.8,0-.428.1-.829.12-.4.224-.8.136-.392.24-.793a1.3,1.3,0,0,1,.4-.724,1.391,1.391,0,0,1,.8-.321c.412,0,.412.134.824.134s.412-.123.824-.123.411.01.823.01.411.135.822.135.412.022.822.022.411-.174.822-.174.41.165.82.165.411-.041.821-.041.411-.124.822-.124.411.094.821.094a.712.712,0,0,1,.577.3.749.749,0,0,1,.18.643c-.1.4-.034.422-.138.825s-.186.382-.29.786-.134.395-.239.8-.089.406-.193.809-.119.4-.223.8-.1.4-.206.8-.125.4-.229.8-.01.427-.113.829-.231.369-.336.772-.024.423-.128.825-.055.415-.158.817-.082.408-.187.809-.228.37-.332.772-.077.409-.18.81-.116.4-.22.8-.153.388-.257.79-.044.417-.147.818-.007.426-.111.828-.115.4-.219.8-.2.376-.3.777-.011.425-.115.826-.155.388-.259.789-.043.417-.147.819-.249.364-.353.766-.1.4-.2.8-.059.413-.163.815-.089.405-.192.808-.132.394-.237.8-.156.388-.26.79.053.442-.051.845-.247.365-.351.766-.1.4-.2.8,0,.428-.1.83-.2.378-.3.779-.1.4-.205.8-.038.419-.142.82-.066.411-.169.812-.18.382-.283.783-.063.412-.167.813-.137.393-.24.795-.127.4-.231.8-.015.424-.119.826-.242.366-.345.767-.054.414-.157.815-.077.408-.181.809-.121.4-.225.8-.164.386-.268.787-.055.415-.159.816-.065.412-.168.813-.181.381-.285.782-.083.406-.187.807-.085.406-.189.807-.146.39-.25.791a1.151,1.151,0,0,1-.408.667,1.254,1.254,0,0,1-.749.334c-.415,0-.415-.042-.829-.042s-.415.083-.829.083-.414-.086-.827-.086-.415.086-.828.086-.414.019-.828.019S-5527.064,269.787-5527.478,269.787Zm158.269-.108c-.412,0-.412.008-.824.008s-.412.107-.823.107-.412-.095-.823-.095-.411,0-.821,0-.412.068-.822.068-.41.039-.82.039-.411-.078-.822-.078-.411.043-.821.043-.411-.034-.822-.034a1.223,1.223,0,0,1-.757-.283,1.3,1.3,0,0,1-.531-.645c-.106-.409.031-.445-.075-.854s-.157-.4-.264-.805-.132-.4-.238-.81-.089-.413-.2-.821-.046-.424-.152-.832-.155-.395-.262-.8-.144-.4-.25-.8-.029-.428-.136-.836-.126-.4-.232-.81-.124-.4-.23-.81-.063-.419-.169-.827-.133-.4-.239-.808-.181-.388-.287-.8-.066-.418-.172-.825-.187-.387-.292-.795-.023-.429-.13-.836-.188-.386-.295-.793-.124-.4-.229-.809-.055-.421-.161-.828-.054-.42-.16-.827-.128-.4-.235-.807-.106-.406-.211-.813-.17-.391-.275-.8a3.913,3.913,0,0,1,.008-.973,3.837,3.837,0,0,1,.034-.962c.105-.406.078-.414.191-.819s.191-.384.3-.79.106-.405.212-.811.07-.415.175-.821.144-.4.249-.8.063-.416.168-.822.109-.4.214-.808.054-.419.16-.824.136-.4.241-.8.173-.388.277-.793.093-.409.2-.814.1-.407.2-.812.114-.4.218-.809.06-.417.165-.822.049-.42.154-.825.212-.377.317-.782.111-.4.216-.808-.048-.444.057-.849.254-.367.358-.771.124-.4.229-.8.042-.42.147-.825.185-.384.289-.788c.066-.255.368-.289.434-.034.1.4-.01.432.094.835s.117.4.221.8.082.408.187.809.21.374.314.776.088.405.193.808.071.41.175.811.168.385.272.785.149.389.253.791-.027.435.078.837.222.37.326.771.094.4.2.806-.027.435.077.836.083.407.187.808.271.358.375.758-.056.442.048.844.144.39.247.791.224.369.328.771.013.424.116.825.087.405.191.807.155.387.258.788.175.382.278.782.022.421.126.822.074.409.177.81.118.4.222.8.09.4.194.806.106.4.209.8.083.406.188.807.2.376.3.777-.022.434.081.834.184.381.288.782.153.388.257.789.125.395.229.8-.02.433.084.834.131.394.234.794.092.4.2.805.054.413.158.814.164.385.268.785.2.376.3.776.093.4.2.8.008.426.112.827.2.377.3.778.053.414.157.814.165.385.268.785-.041.438.063.838.109.4.213.8.148.389.252.79.119.4.224.8.075.408.178.809a.648.648,0,0,1-.171.6c-.138.178-.284.423-.535.423C-5368.8,269.827-5368.8,269.68-5369.208,269.68Zm-25.867-.023c-.411,0-.411.112-.822.112s-.411.03-.822.03-.411-.089-.823-.089h-.821c-.411,0-.411.036-.821.036s-.411-.04-.821-.04-.411.043-.822.043-.41,0-.821,0a1.318,1.318,0,0,1-.806-.223,1.327,1.327,0,0,1-.438-.718c-.107-.409-.039-.427-.145-.836s-.118-.406-.225-.815-.114-.406-.22-.815-.1-.41-.2-.819-.151-.4-.257-.8-.162-.393-.268-.8,0-.435-.1-.842-.1-.41-.206-.818-.258-.368-.364-.776.042-.447-.064-.854-.087-.413-.193-.821-.168-.391-.274-.8-.026-.429-.132-.837-.235-.373-.341-.78.009-.438-.1-.845-.118-.4-.224-.811-.085-.413-.19-.82-.212-.38-.317-.787-.091-.411-.2-.819-.073-.415-.179-.822-.169-.389-.275-.8-.151-.4-.256-.8.024-.441-.082-.849a3.909,3.909,0,0,1-.244-.942,3.964,3.964,0,0,1,.133-.97c.105-.407.236-.373.341-.78s.126-.4.232-.808-.063-.449.041-.855.265-.365.37-.771.065-.416.17-.822-.016-.437.089-.842.2-.382.3-.787.122-.4.227-.806.054-.419.159-.825.034-.423.139-.829.186-.385.291-.79.135-.4.24-.8.09-.409.195-.814.119-.4.224-.806.1-.406.208-.811.125-.4.23-.8.01-.429.115-.834.232-.372.336-.777.025-.426.13-.83.055-.418.16-.822.083-.41.187-.814.229-.373.333-.777a.217.217,0,0,1,.431-.007c.105.407.094.41.2.817s.056.42.161.827.165.39.27.8.2.381.307.787.095.409.2.815.009.43.114.836.2.381.3.786.055.419.16.825.166.39.27.8-.039.443.065.848.11.4.216.81.15.394.255.8.121.4.226.808.077.412.182.818.052.419.157.825.262.365.367.77-.038.442.066.846.113.4.218.809.208.378.313.784.013.428.118.833.107.4.212.809.17.387.275.792a.439.439,0,0,0,.479.331.473.473,0,0,0,.517-.322c.105-.407.064-.418.169-.825s.138-.4.244-.807.128-.4.233-.808.017-.43.122-.836.243-.371.348-.777.055-.419.16-.825.078-.412.183-.818.123-.4.228-.808.165-.391.27-.8.056-.419.161-.825.066-.416.171-.823.182-.386.287-.792.084-.411.189-.818.087-.41.192-.816.148-.395.253-.8.078-.412.183-.818.03-.424.135-.829.146-.4.25-.8.025-.427.13-.832.188-.384.292-.789.021-.427.126-.832.086-.41.191-.815.157-.393.261-.8.157-.392.262-.8.082-.411.187-.817.1-.406.209-.812.042-.422.146-.828c.073-.28.343-.452.561-.621a1.248,1.248,0,0,1,.742-.342c.415,0,.413.083.828.091s.416-.113.831-.113.414.074.828.074.414.061.827.061.414-.065.828-.065.413.032.827.032.413-.077.825-.077.414-.022.827-.022.414.012.827.012.413-.031.826-.031a.8.8,0,0,1,.579.379.66.66,0,0,1,.078.618c-.1.4.058.445-.047.849s-.225.372-.33.775-.068.412-.173.815-.125.4-.229.8-.146.392-.251.794-.084.407-.189.809-.035.42-.14.821-.039.419-.143.821-.12.4-.225.8-.181.383-.285.785-.1.4-.205.806-.108.4-.212.8-.121.4-.226.8-.163.386-.268.788-.044.418-.149.819-.1.4-.207.8-.049.416-.153.817-.122.4-.226.8-.083.407-.187.809-.167.385-.271.786-.135.393-.239.794-.087.405-.19.807-.165.386-.27.788.019.434-.085.835-.165.387-.27.788-.028.422-.133.824-.1.4-.2.806-.245.365-.349.766.015.433-.09.834-.111.4-.216.8-.17.385-.274.786.019.434-.085.835-.23.368-.335.77-.043.418-.147.819-.077.409-.182.81-.128.4-.233.8-.068.41-.172.812-.175.383-.28.784-.012.425-.117.827-.223.371-.327.773-.088.405-.193.807-.11.4-.215.8-.009.426-.114.827-.174.383-.278.784-.07.41-.173.811-.165.385-.269.787-.072.41-.177.811-.063.413-.167.814-.114.4-.218.8-.1.4-.2.8-.226.369-.33.77-.006.426-.111.827-.052.414-.156.815c-.073.28-.364.431-.582.6a1.273,1.273,0,0,1-.727.39c-.412,0-.412.006-.824.006S-5394.663,269.657-5395.075,269.657Zm-164.984-4.944c-.1-.4-.106-.4-.211-.8s-.083-.408-.187-.81-.2-.377-.3-.779.023-.435-.081-.837-.184-.381-.288-.783-.154-.388-.258-.79-.125-.395-.229-.8.02-.434-.084-.835-.131-.394-.235-.8-.092-.4-.2-.806-.055-.414-.158-.816-.164-.385-.268-.787-.2-.376-.3-.777-.093-.4-.2-.8-.008-.426-.112-.827-.2-.377-.3-.778-.053-.414-.157-.814-.164-.385-.268-.786.041-.439-.063-.84-.109-.4-.213-.8-.148-.388-.252-.789-.119-.4-.223-.8-.075-.408-.179-.809-.051-.415-.155-.815-.26-.36-.364-.761.039-.438-.065-.839-.111-.4-.215-.8-.207-.374-.311-.775-.012-.424-.115-.826-.107-.4-.211-.8-.169-.385-.273-.785-.142-.391-.245-.791-.028-.42-.132-.821-.146-.39-.25-.791-.071-.409-.174-.81-.081-.406-.185-.808-.192-.377-.3-.778.033-.436-.07-.837-.154-.388-.257-.788-.131-.394-.235-.795-.086-.405-.19-.806-.043-.417-.147-.817-.153-.387-.256-.788-.143-.39-.247-.791-.027-.42-.131-.82-.124-.4-.228-.8-.122-.4-.226-.8-.061-.412-.165-.813a.644.644,0,0,1,.1-.607.738.738,0,0,1,.563-.353c.412,0,.412.041.824.041s.412-.083.824-.083.411.085.822.085.411-.086.823-.086.412-.019.822-.019.411.054.821.054.411.053.821.053.411-.024.822-.024h.822c.411,0,.411-.066.821-.066a1.314,1.314,0,0,1,.742.387,1.25,1.25,0,0,1,.517.632c.107.409.134.4.232.814s.021.43.126.839.1.409.211.817.141.4.248.807.067.419.173.827.148.4.254.8.1.408.207.815.156.395.262.8.075.416.181.824.039.425.144.833.118.4.225.812.113.406.22.813.1.41.2.818.15.4.256.8.162.393.268.8,0,.435.1.843.1.408.205.816.258.367.363.775-.042.446.064.853.086.412.192.819.168.39.273.8.026.427.131.834.236.373.342.781a3.863,3.863,0,0,1,.006.965,3.662,3.662,0,0,1-.107.938c-.1.406-.126.4-.231.808s0,.434-.1.841-.12.4-.226.808-.137.4-.242.8-.041.423-.146.828-.06.417-.165.823-.235.371-.34.776.014.436-.091.842-.115.4-.22.809-.236.371-.34.777-.126.4-.231.806.063.448-.042.854-.264.364-.37.769-.065.416-.169.821.015.436-.089.842-.2.381-.3.786-.121.4-.227.8-.053.418-.158.823-.034.423-.139.828-.186.384-.29.788-.135.4-.24.8-.09.408-.195.813a.237.237,0,0,1-.23.19A.242.242,0,0,1-5560.06,264.713ZM-5333,240.07c-.408,0-.408-.054-.816-.054s-.407.024-.815.024h-.815c-.409,0-.409.066-.816.066-.275,0-.48-.225-.667-.4a1.081,1.081,0,0,1-.406-.642c-.03-.3-.054-.585-.106-.862-.054-.293-.09-.582-.168-.853a7.721,7.721,0,0,0-.3-.816,6.9,6.9,0,0,0-.371-.787,6.187,6.187,0,0,0-.488-.721,5.954,5.954,0,0,0-.571-.661,6.213,6.213,0,0,0-.731-.476,6.593,6.593,0,0,0-.673-.566,7.9,7.9,0,0,0-.83-.283c-.263-.1-.551-.141-.839-.219a1.536,1.536,0,0,1-.742-.44,1.249,1.249,0,0,1-.178-.816c0-.41-.028-.41-.028-.82s.012-.41.012-.82.051-.409.051-.818-.062-.409-.062-.818-.1-.409-.1-.818.011-.409.011-.817.1-.408.1-.816-.1-.409-.1-.817a1.035,1.035,0,0,1,.337-.691.977.977,0,0,1,.7-.327c.284.018.553.187.83.212s.562.049.837.082.564.025.838.067.561.074.833.126.547.138.817.2.533.183.8.255.588,0,.852.082.488.317.748.413.526.194.781.3.559.133.808.257.456.341.7.478.483.281.717.433.5.259.727.426.471.314.684.5.369.43.569.625.426.368.614.577.342.444.517.666.319.458.479.69.386.417.533.659.155.552.287.8.3.473.414.731.249.5.352.765.181.528.271.8.11.548.189.821.2.523.262.8.164.534.22.813.025.561.071.841.1.547.141.828.084.55.112.833a.743.743,0,0,1-.264.62.807.807,0,0,1-.611.283c-.409,0-.409.078-.818.078s-.409-.041-.817-.041-.409.083-.817.083-.408-.086-.816-.086-.408.086-.816.086-.408.019-.815.019S-5332.6,240.07-5333,240.07Z" transform="translate(5570 -218.509)" fill="#0077c0"/>
</svg>
