<svg id="コンポーネント_16_1" data-name="コンポーネント 16 – 1" xmlns="http://www.w3.org/2000/svg" width="287.933" height="139.256" viewBox="0 0 287.933 139.256">
  <path id="パス_819" data-name="パス 819" d="M20.35-12.012,16.478-22.594q-.286-.7-.594-1.672t-.616-2.09q-.286,1.122-.594,2.1t-.594,1.7L10.23-12.012ZM30.8,0H26.224A1.953,1.953,0,0,1,24.97-.385a2.4,2.4,0,0,1-.726-.957l-2.376-6.49H8.69L6.314-1.342a2.109,2.109,0,0,1-.682.924A1.9,1.9,0,0,1,4.378,0H-.242L12.276-31.812H18.3ZM53.218-17.8a2.709,2.709,0,0,1-.473.484,1.092,1.092,0,0,1-.671.176,1.494,1.494,0,0,1-.814-.253q-.4-.253-.946-.572a7.072,7.072,0,0,0-1.309-.572,6.015,6.015,0,0,0-1.881-.253,5.738,5.738,0,0,0-2.508.517,4.754,4.754,0,0,0-1.793,1.485,6.691,6.691,0,0,0-1.067,2.343A12.581,12.581,0,0,0,41.4-11.33a12.2,12.2,0,0,0,.385,3.212A6.868,6.868,0,0,0,42.9-5.753,4.781,4.781,0,0,0,44.66-4.3a5.334,5.334,0,0,0,2.332.5,5.782,5.782,0,0,0,2.1-.319,6.629,6.629,0,0,0,1.353-.7q.55-.385.957-.7a1.443,1.443,0,0,1,.913-.319,1.1,1.1,0,0,1,.99.506l1.562,1.98A9.824,9.824,0,0,1,52.91-1.6,10.584,10.584,0,0,1,50.721-.451a11.132,11.132,0,0,1-2.332.605A16.416,16.416,0,0,1,46,.33a10.011,10.011,0,0,1-3.938-.781A9.3,9.3,0,0,1,38.83-2.728a10.874,10.874,0,0,1-2.189-3.663,14.152,14.152,0,0,1-.8-4.939,14.356,14.356,0,0,1,.715-4.609,10.441,10.441,0,0,1,2.1-3.674,9.633,9.633,0,0,1,3.432-2.431,11.823,11.823,0,0,1,4.708-.88,11.2,11.2,0,0,1,4.433.814,10.832,10.832,0,0,1,3.421,2.332ZM85.426,0H79.992V-18.5H69.52V-6.27a2.431,2.431,0,0,0,.517,1.65,1.783,1.783,0,0,0,1.419.594,2.557,2.557,0,0,0,.847-.121A4.662,4.662,0,0,0,72.9-4.4q.253-.132.451-.253a.754.754,0,0,1,.4-.121.622.622,0,0,1,.4.121,1.835,1.835,0,0,1,.33.363L76.1-1.65a8.226,8.226,0,0,1-2.728,1.5,10.154,10.154,0,0,1-3.19.506,5.93,5.93,0,0,1-4.521-1.661A6.4,6.4,0,0,1,64.086-5.9V-18.5h-2.31a1.059,1.059,0,0,1-.748-.286,1.115,1.115,0,0,1-.308-.858V-21.8l3.63-.616,1.144-6.138a1.207,1.207,0,0,1,.418-.682,1.244,1.244,0,0,1,.792-.242H69.52v7.106H85.426Zm.946-29.238a3.17,3.17,0,0,1-.286,1.331,3.586,3.586,0,0,1-.759,1.089,3.593,3.593,0,0,1-1.122.737,3.488,3.488,0,0,1-1.375.275,3.2,3.2,0,0,1-1.32-.275,3.564,3.564,0,0,1-1.078-.737,3.526,3.526,0,0,1-.737-1.089,3.277,3.277,0,0,1-.275-1.331,3.331,3.331,0,0,1,.275-1.353,3.666,3.666,0,0,1,.737-1.1,3.468,3.468,0,0,1,1.078-.748,3.2,3.2,0,0,1,1.32-.275,3.488,3.488,0,0,1,1.375.275,3.5,3.5,0,0,1,1.122.748,3.73,3.73,0,0,1,.759,1.1A3.221,3.221,0,0,1,86.372-29.238Zm29.348,6.666L106.766,0h-4.928L92.884-22.572h4.488a1.737,1.737,0,0,1,1.023.286,1.346,1.346,0,0,1,.539.726L103.29-9.5q.352,1.056.616,2.068t.462,2.024q.22-1.012.484-2.024T105.49-9.5l4.444-12.056a1.486,1.486,0,0,1,.55-.726,1.572,1.572,0,0,1,.946-.286ZM134.376-9.636a29.969,29.969,0,0,0-3.96.407,10.556,10.556,0,0,0-2.574.759,3.384,3.384,0,0,0-1.386,1.078,2.342,2.342,0,0,0-.418,1.342A2.359,2.359,0,0,0,126.885-4a3.671,3.671,0,0,0,2.211.616,6.449,6.449,0,0,0,2.893-.6,8.591,8.591,0,0,0,2.387-1.837Zm-12.452-9.79A13.394,13.394,0,0,1,131.3-22.99a9.159,9.159,0,0,1,3.542.649,7.484,7.484,0,0,1,2.64,1.8,7.721,7.721,0,0,1,1.639,2.761,10.61,10.61,0,0,1,.561,3.52V0h-2.464a2.491,2.491,0,0,1-1.188-.231,1.6,1.6,0,0,1-.66-.935l-.484-1.628a19.646,19.646,0,0,1-1.672,1.353,9.842,9.842,0,0,1-1.694.979,9.1,9.1,0,0,1-1.881.605,10.838,10.838,0,0,1-2.211.209,8.667,8.667,0,0,1-2.64-.385,5.8,5.8,0,0,1-2.09-1.155A5.185,5.185,0,0,1,121.33-3.1a6.79,6.79,0,0,1-.484-2.662,5.3,5.3,0,0,1,.286-1.7,4.984,4.984,0,0,1,.935-1.617,7.784,7.784,0,0,1,1.683-1.452,10.937,10.937,0,0,1,2.541-1.188,21.954,21.954,0,0,1,3.509-.825,35.051,35.051,0,0,1,4.576-.385v-1.32a4.94,4.94,0,0,0-.968-3.355,3.542,3.542,0,0,0-2.794-1.089,6.634,6.634,0,0,0-2.189.308,9.008,9.008,0,0,0-1.529.693q-.66.385-1.2.693a2.374,2.374,0,0,1-1.2.308,1.567,1.567,0,0,1-.968-.3,2.482,2.482,0,0,1-.638-.693ZM171.644,0H166.21V-18.5H155.738V-6.27a2.431,2.431,0,0,0,.517,1.65,1.783,1.783,0,0,0,1.419.594,2.557,2.557,0,0,0,.847-.121,4.662,4.662,0,0,0,.594-.253q.253-.132.451-.253a.754.754,0,0,1,.4-.121.622.622,0,0,1,.4.121,1.835,1.835,0,0,1,.33.363l1.628,2.64a8.226,8.226,0,0,1-2.728,1.5,10.154,10.154,0,0,1-3.19.506,5.93,5.93,0,0,1-4.521-1.661A6.4,6.4,0,0,1,150.3-5.9V-18.5h-2.31a1.059,1.059,0,0,1-.748-.286,1.115,1.115,0,0,1-.308-.858V-21.8l3.63-.616,1.144-6.138a1.207,1.207,0,0,1,.418-.682,1.244,1.244,0,0,1,.792-.242h2.816v7.106h15.906Zm.946-29.238a3.17,3.17,0,0,1-.286,1.331,3.586,3.586,0,0,1-.759,1.089,3.593,3.593,0,0,1-1.122.737,3.488,3.488,0,0,1-1.375.275,3.2,3.2,0,0,1-1.32-.275,3.564,3.564,0,0,1-1.078-.737,3.526,3.526,0,0,1-.737-1.089,3.277,3.277,0,0,1-.275-1.331,3.331,3.331,0,0,1,.275-1.353,3.666,3.666,0,0,1,.737-1.1,3.468,3.468,0,0,1,1.078-.748,3.2,3.2,0,0,1,1.32-.275,3.488,3.488,0,0,1,1.375.275,3.5,3.5,0,0,1,1.122.748,3.73,3.73,0,0,1,.759,1.1A3.221,3.221,0,0,1,172.59-29.238Zm18.986,6.314a12.307,12.307,0,0,1,4.565.814,10,10,0,0,1,3.52,2.31,10.146,10.146,0,0,1,2.255,3.652,13.891,13.891,0,0,1,.792,4.818,13.96,13.96,0,0,1-.792,4.84,10.368,10.368,0,0,1-2.255,3.674,9.856,9.856,0,0,1-3.52,2.332,12.307,12.307,0,0,1-4.565.814,12.456,12.456,0,0,1-4.6-.814,9.836,9.836,0,0,1-3.531-2.332,10.5,10.5,0,0,1-2.266-3.674,13.787,13.787,0,0,1-.8-4.84,13.72,13.72,0,0,1,.8-4.818,10.271,10.271,0,0,1,2.266-3.652,9.98,9.98,0,0,1,3.531-2.31A12.456,12.456,0,0,1,191.576-22.924Zm0,19.074a4.779,4.779,0,0,0,4.169-1.892,9.487,9.487,0,0,0,1.353-5.544,9.6,9.6,0,0,0-1.353-5.566,4.758,4.758,0,0,0-4.169-1.914,4.853,4.853,0,0,0-4.235,1.925,9.485,9.485,0,0,0-1.375,5.555,9.378,9.378,0,0,0,1.375,5.533A4.875,4.875,0,0,0,191.576-3.85ZM216.348-19.8a14.7,14.7,0,0,1,1.441-1.265,9.1,9.1,0,0,1,1.606-.99,9,9,0,0,1,1.815-.638,9.093,9.093,0,0,1,2.112-.231,8.092,8.092,0,0,1,3.278.627,6.477,6.477,0,0,1,2.387,1.76,7.737,7.737,0,0,1,1.452,2.706,11.5,11.5,0,0,1,.5,3.465V0H225.5V-14.366a4.859,4.859,0,0,0-.946-3.2,3.541,3.541,0,0,0-2.882-1.133,5.658,5.658,0,0,0-2.64.638,9.461,9.461,0,0,0-2.332,1.738V0h-5.434V-22.572h3.322a1.335,1.335,0,0,1,1.386.99Z" transform="translate(32.691 83.01)"/>
  <path id="パス_820" data-name="パス 820" d="M9.516-20.956H2.288v1.9H9.516Zm.754,3.432H1.04V-15.6h9.23Zm-.676,3.536H2.184v1.872h7.41ZM2.184-8.632h7.41v-1.9H2.184ZM7.566-5.07v3.744H4.186V-5.07ZM9.62-7.02H2.158V1.716H4.186V.624H9.62Zm4-7.722H16.51v2.262H13.624Zm0-4.082H16.51v2.21H13.624Zm7.956,2.21H18.616v-2.21H21.58Zm0,4.134H18.616v-2.262H21.58ZM24.544-6.5V-8.658H18.72V-10.53h5.1V-20.8H11.466v10.27H16.38v1.872h-5.8V-6.5H15.34A15.7,15.7,0,0,1,9.646-.884,9.9,9.9,0,0,1,11.258.962,17.8,17.8,0,0,0,16.38-4.472v6.5h2.34V-4.706A21.647,21.647,0,0,0,23.582.806a9.112,9.112,0,0,1,1.638-1.82A18.386,18.386,0,0,1,19.838-6.5Zm25.922-7.332H44.954v-1.612h5.512Zm0,3.224H44.954V-12.22h5.512Zm0,3.276H44.954V-8.97h5.512Zm-7.7-9.828V-5.616h9.958V-17.16H48.1c.234-.52.468-1.118.7-1.69h4.862v-1.794H41.86v1.794h4.706c-.156.572-.312,1.144-.494,1.69ZM48.49-4.472A21.411,21.411,0,0,1,52.364-.988L54.106-2.08a20.517,20.517,0,0,0-3.926-3.3ZM44.9-5.278a12.146,12.146,0,0,1-4.134,2.964A12.114,12.114,0,0,1,42.354-.858a16.046,16.046,0,0,0,4.55-3.8ZM38.4-17.446H33.93v-1.638H38.4Zm0,3.25H33.93V-15.86H38.4Zm2.236-6.578H31.8v8.268h8.84ZM37.466-4.68h4.082V-6.5H37.466V-8.944h4.55V-10.79H30.42v1.846h4.966V-2.5A6.792,6.792,0,0,1,33.722-4.81c.1-.962.156-1.924.182-2.912H31.928C31.85-4.576,31.486-1.3,29.978.52a6.664,6.664,0,0,1,1.456,1.638,9.968,9.968,0,0,0,1.924-4.42c2.21,3.2,5.746,3.77,11.024,3.77H53.43A6.622,6.622,0,0,1,54.236-.52c-1.768.052-8.424.052-9.854.052a20.609,20.609,0,0,1-6.916-.806ZM66.69-6.552V-9.178h1.95v2.626ZM63.024-9.178H65v2.626H63c.026-.65.026-1.274.026-1.872ZM66.43-17.6a21.879,21.879,0,0,1-.962,2.34H62.816c.39-.728.754-1.534,1.092-2.34Zm.26,4.16h1.95v2.47H66.69Zm-3.666,0H65v2.47H63.024Zm17.29-5.07c-.13,2.652-.312,3.718-.6,4.03a.7.7,0,0,1-.7.234,18.538,18.538,0,0,1-2.106-.1,5.874,5.874,0,0,1,.546,2,16.732,16.732,0,0,0,2.626-.026,1.951,1.951,0,0,0,1.482-.728c.546-.624.78-2.366.962-6.578.026-.26.026-.832.026-.832H71.24v2h3.224a6.308,6.308,0,0,1-3.822,5.122v-1.872H67.548a33.38,33.38,0,0,0,1.56-3.432l-1.4-.884-.338.1h-2.73c.208-.624.39-1.248.572-1.872L63-21.84a18.8,18.8,0,0,1-3.926,8.112A16.3,16.3,0,0,1,60.84-12.3l.234-.286V-8.45c0,2.912-.182,6.734-1.924,9.464A9.524,9.524,0,0,1,60.866,2.08a15.337,15.337,0,0,0,2-6.786H68.64V-.468c0,.338-.13.442-.468.468-.312,0-1.4,0-2.652-.026A7.685,7.685,0,0,1,66.274,2a8.95,8.95,0,0,0,3.458-.364c.7-.364.91-1.04.91-2.08V-13.156a6.605,6.605,0,0,1,1.144,1.508c3.2-1.43,4.394-3.822,4.914-6.864ZM83.252-4.758H78.52V-7.566h4.238v-2.08H78.52v-2.5H76.232v2.5h-1.82q.273-.936.468-1.872l-2-.416a14.727,14.727,0,0,1-2.236,5.72,11.025,11.025,0,0,1,1.82.962,12.809,12.809,0,0,0,1.222-2.314h2.548v2.808H71.084v2.106h5.148V1.924H78.52V-2.652h4.732Zm12.532-14.2a19.058,19.058,0,0,0-4.68-2.678L89.778-19.89A20.021,20.021,0,0,1,94.38-17Zm-1.326,6.76a22.246,22.246,0,0,0-4.784-2.522L88.348-12.9a19.884,19.884,0,0,1,4.706,2.756Zm-.884,4.03A78.713,78.713,0,0,1,89.1.156l2.08,1.534c1.4-2.5,2.99-5.59,4.238-8.32ZM104-15.5h3.874v5.356h-3.952c.052-.936.078-1.846.078-2.782Zm8.294,7.618V-10.14H110.24v-7.618H104v-4.03h-2.392v4.03H96.85V-15.5h4.758v2.548c0,.936-.026,1.872-.1,2.808H95.5v2.262h5.668C100.438-4.732,98.644-1.846,94.25.39A10.364,10.364,0,0,1,96.2,2.106c4.446-2.34,6.4-5.486,7.2-8.892,1.456,4.134,3.822,7.228,7.436,8.892A8.981,8.981,0,0,1,112.528,0a12.2,12.2,0,0,1-7.046-7.878ZM128.752-20.7l-2.7-.208a12.948,12.948,0,0,1-.6,3.094c-.52.026-1.04.026-1.534.026a33.607,33.607,0,0,1-4.472-.286v2.444c1.456.1,3.25.156,4.342.156h.754a26.124,26.124,0,0,1-5.876,7.592L120.9-6.214A28.277,28.277,0,0,1,123.266-9a6.627,6.627,0,0,1,4.316-1.872,2.093,2.093,0,0,1,2.132,1.3c-3.016,1.534-6.136,3.562-6.136,6.76,0,3.224,3.016,4.134,6.89,4.134A66.209,66.209,0,0,0,137.7.858l.078-2.626a44.274,44.274,0,0,1-7.228.676c-2.626,0-4.316-.364-4.316-2.132,0-1.534,1.4-2.73,3.64-3.952-.026,1.274-.052,2.756-.1,3.666h2.47c-.026-1.248-.052-3.328-.078-4.81,1.82-.832,3.51-1.508,4.836-2.028.78-.312,1.9-.728,2.652-.962L138.58-13.7c-.832.416-1.586.754-2.47,1.144-1.222.572-2.548,1.118-4.16,1.872a3.423,3.423,0,0,0-3.484-2.21,7.636,7.636,0,0,0-3.328.78,20.864,20.864,0,0,0,2-3.432,80.334,80.334,0,0,0,8.554-.676v-2.418a59.942,59.942,0,0,1-7.644.754C128.388-19.006,128.6-19.968,128.752-20.7Zm35.88,8.944v-.884h2.47c1.248,0,2.158.026,2.574.078v-2.756a17.277,17.277,0,0,1-2.6.156h-2.444v-3.016a16.952,16.952,0,0,1,.156-2.262H161.85a17.951,17.951,0,0,1,.13,2.262v3.016h-6.864v-2.99a14.013,14.013,0,0,1,.156-2.08h-2.938a14.268,14.268,0,0,1,.156,2.08v2.99h-2.548a16.163,16.163,0,0,1-2.7-.208v2.834c.416-.052,1.482-.1,2.7-.1h2.548v3.9c0,1.092-.1,2.158-.13,2.522h2.886a23.118,23.118,0,0,1-.13-2.522v-3.9h6.864v1.04c0,6.89-2.288,9.126-7.15,10.92l2.21,2.08C163.124-1.326,164.632-5.044,164.632-11.752Zm29.952-7.592a1.543,1.543,0,0,1,1.534-1.56,1.565,1.565,0,0,1,1.56,1.56,1.565,1.565,0,0,1-1.56,1.56A1.543,1.543,0,0,1,194.584-19.344Zm-1.378,0a2.907,2.907,0,0,0,2.912,2.912,2.929,2.929,0,0,0,2.938-2.912,2.929,2.929,0,0,0-2.938-2.912A2.907,2.907,0,0,0,193.206-19.344Zm-4-.91h-3.068a11.077,11.077,0,0,1,.208,2.028v2.418h-6.968a21.588,21.588,0,0,1-2.314-.156v2.73c.7-.052,1.534-.078,2.34-.078h6.942V-2.158c-.026.7-.312.962-.988.962a17.749,17.749,0,0,1-2.964-.286l.234,2.574a38.949,38.949,0,0,0,3.926.182c1.716,0,2.444-.806,2.444-2.21V-13.312h6.552c.65,0,1.534,0,2.288.052v-2.7a17.3,17.3,0,0,1-2.314.156h-6.526V-18.2A13.969,13.969,0,0,1,189.2-20.254ZM183.3-9.438l-2.314-1.118a26.99,26.99,0,0,1-4.914,6.76l2.236,1.534A38.847,38.847,0,0,0,183.3-9.438Zm11-1.144L192.062-9.36a45.022,45.022,0,0,1,4.316,6.942L198.77-3.77A55.87,55.87,0,0,0,194.3-10.582ZM206.362-11.6v3.224c.884-.078,2.444-.13,3.874-.13H224.38c1.144,0,2.34.1,2.912.13V-11.6c-.65.052-1.664.156-2.912.156H210.236C208.832-11.44,207.22-11.544,206.362-11.6Zm35.1,9.2a27.22,27.22,0,0,1-.208,3.328h3.2a30.462,30.462,0,0,1-.208-3.328v-8.034a68.079,68.079,0,0,1,9.828,4.056l1.17-2.834a88.131,88.131,0,0,0-11-4.16V-17.42c0-.91.1-2.054.182-2.912h-3.2a18.823,18.823,0,0,1,.234,2.912Z" transform="translate(32.691 22.256)"/>
  <g id="グループ_416" data-name="グループ 416" transform="translate(-664.309 -2377.574)">
    <path id="パス_817" data-name="パス 817" d="M3.024-.72V-2.268H9.1V-.72ZM9.1-4.836V-3.3H3.024V-4.836ZM9.1-7.4v1.536H3.024V-7.4ZM6.072-8.472c.2-.432.4-.948.588-1.452L5.328-10.08a13.045,13.045,0,0,1-.4,1.608H1.908V.96H3.024V.312H9.1v.6h1.176V-8.472Zm15.372-.312a9.252,9.252,0,0,0-2.28-1.236l-.612.84a9.457,9.457,0,0,1,2.232,1.332ZM20.8-5.676A9.9,9.9,0,0,0,18.48-6.792l-.612.852A9.716,9.716,0,0,1,20.16-4.716ZM19.224.78c.708-1.128,1.488-2.544,2.112-3.792l-.84-.744a39.838,39.838,0,0,1-2.22,3.8Zm7.548-3.66V-.588h-3.66V-2.88ZM22.032.948h1.08v-.5h3.66V.912H27.9V-3.912H22.032Zm3.552-8.772c.408.468.828,1.02,1.212,1.56-1.176.06-2.34.12-3.408.168.552-1.092,1.14-2.484,1.608-3.7l-1.284-.3a25.079,25.079,0,0,1-1.524,4.056c-.42.024-.8.036-1.152.048l.132,1.128c1.644-.108,4-.252,6.276-.408.2.36.384.7.516.984l1.032-.588A17.419,17.419,0,0,0,26.556-8.3Zm12.108-2.184a13.452,13.452,0,0,1-2.544,4.62,7,7,0,0,1,.624,1.128c.3-.36.588-.744.888-1.176V.924h1.068V-7.284a19.163,19.163,0,0,0,1.008-2.424Zm8.52,3.288V-7.776H42.78v-2.232H41.688v2.232H38.472V-6.72H41.1a12.152,12.152,0,0,1-3.156,4.98,4.124,4.124,0,0,1,.792.852A13.54,13.54,0,0,0,41.688-5.8v3.612H39.9v1.008h1.788V.876H42.78V-1.176h1.776V-2.184H42.78V-5.868A13.961,13.961,0,0,0,45.648-.924a4.285,4.285,0,0,1,.852-.888A12.069,12.069,0,0,1,43.4-6.72ZM59.5-4.572v2.016h-2.6V-4.572ZM60.528-1.56v-4H55.872V-.72h1.02v-.84Zm2.556-6.48h-5.2c.3-.552.612-1.212.876-1.824l-1.416-.228a15.341,15.341,0,0,1-.7,2.052H53.376V.936h1.1V-6.948h7.488v6.5c0,.2-.072.264-.312.276S60.6-.156,59.808-.192a4.26,4.26,0,0,1,.384,1.14A7.81,7.81,0,0,0,62.484.756c.444-.192.6-.54.6-1.188ZM78.828-9.432H77.436a7.2,7.2,0,0,1,.12.756c.024.312.048,1.032.06,1.764-.492.012-.984.024-1.44.024a13.012,13.012,0,0,1-1.884-.132v1.212c.552.024,1.344.06,1.9.06.468,0,.96-.012,1.452-.024v.4c0,2.184-.132,3.42-1.248,4.464a3.916,3.916,0,0,1-1.272.84l1.1.864C78.7-.72,78.792-2.58,78.792-5.364v-.468c.7-.036,1.356-.108,1.872-.18l.012-1.224a17.849,17.849,0,0,1-1.9.252c-.012-.72-.024-1.428-.012-1.692A6.669,6.669,0,0,1,78.828-9.432Zm-6.036.18-1.4-.132a6.064,6.064,0,0,1-.06.9,32.885,32.885,0,0,0-.432,4.8,13.271,13.271,0,0,0,.66,3.84L72.6.036c-.012-.144-.036-.324-.036-.444a3.48,3.48,0,0,1,.06-.564c.144-.624.48-1.848.8-2.76l-.624-.4c-.2.528-.456,1.2-.612,1.644a15.86,15.86,0,0,1,.36-5.9C72.612-8.616,72.708-9,72.792-9.252Z" transform="translate(711 2506.524)"/>
    <g id="長方形_4" data-name="長方形 4" transform="translate(697 2487.093)" fill="none" stroke="#000" stroke-width="1">
      <rect width="110" height="29.736" stroke="none"/>
      <rect x="0.5" y="0.5" width="109" height="28.736" fill="none"/>
    </g>
    <path id="パス_818" data-name="パス 818" d="M3.612-3.264l-1.3.324V-8.688H1.272v6c-.312.084-.6.144-.852.2L.672-1.356c.852-.228,1.908-.516,2.94-.8v3.1h1.08V-10.008H3.612ZM10.44-9.24l-.2.036H5.172v1.1h4.74A14.368,14.368,0,0,1,8.268-3.48,15.845,15.845,0,0,1,6.744-8.028l-1.056.192A17.914,17.914,0,0,0,7.56-2.412,8.168,8.168,0,0,1,4.8-.036a3.971,3.971,0,0,1,.78.96,9.591,9.591,0,0,0,2.664-2.28A8.309,8.309,0,0,0,10.872.936a4.388,4.388,0,0,1,.792-.96,7.312,7.312,0,0,1-2.7-2.328,16.243,16.243,0,0,0,2.22-6.672Zm5.292,4.26H18.3v.7H15.732ZM18.3-7.164H15.732v-.66H18.3Zm0,1.44H15.732v-.684H18.3Zm5.628,3.84v-.9h-4.8V-3.42H23.6v-.864H19.368v-.7h3.324v-.744H19.368v-.684h3.3v-.756h-3.3v-.66H23.2v-.888H19.428c.228-.36.456-.78.672-1.2l-1.236-.156a10.551,10.551,0,0,1-.588,1.356h-2.04c.264-.384.492-.78.708-1.152l-1.164-.228a9.978,9.978,0,0,1-2.82,3.4,3.929,3.929,0,0,1,.792.756,10.784,10.784,0,0,0,.936-.864V-3.42h3.336v.636H13.272v.9H17.16a13.387,13.387,0,0,1-4.212,1.8,6.5,6.5,0,0,1,.72.912A13.521,13.521,0,0,0,18.024-1.4V.936h1.1V-1.428A13.853,13.853,0,0,0,23.5.768a4.53,4.53,0,0,1,.684-.912,13.443,13.443,0,0,1-4.14-1.74Zm10.344.216H31.716v-.744h2.556Zm-2.556-2.3h2.556v.684H31.716ZM28.332-6.216v-.72h2.256v.72Zm5.748-.72v.72H31.716v-.72Zm2.568,3.648H35.4V-4.764H31.716v-.708h3.492V-7.68H31.716v-.612H36.4v-.9h-4.68v-.876H30.588v.876H26.04v.9h4.548v.612H27.264v2.208h3.324v.708H26.952v.792h3.636v.684h-4.8v.876h4.8v.744H26.844v.84h3.744v.636c0,.2-.072.264-.288.276C30.108.1,29.388.1,28.728.072a3.447,3.447,0,0,1,.384.9,7.067,7.067,0,0,0,2.04-.156c.408-.156.564-.408.564-1.02V-.828h2.556v.516H35.4v-2.1h1.248Zm8.8-3.8a11.2,11.2,0,0,1-.528,1.14H42.384l.348-.072a5.048,5.048,0,0,0-.516-1.068Zm3.612,5.256v-.936H44.328V-3.5h3.684v-.84H44.328v-.72h4.248v-.888H46.032c.2-.336.444-.732.672-1.14H49.02v-.936H47.292a18.775,18.775,0,0,0,1-1.632l-1.152-.288a10.459,10.459,0,0,1-.84,1.776l.456.144h-1.3V-10.08H44.4v2.052H43.212V-10.08H42.168v2.052h-1.32l.612-.228a8.341,8.341,0,0,0-.96-1.716l-.972.324a9,9,0,0,1,.876,1.62H38.628v.936h2.724l-.288.048a5.945,5.945,0,0,1,.5,1.092h-2.46v.888h4.128v.72H39.7v.84h3.54v.732H38.58v.936h3.708A11.643,11.643,0,0,1,38.244-.168a5.008,5.008,0,0,1,.732.948,11.919,11.919,0,0,0,4.26-2.16V.948h1.092V-1.464a10.7,10.7,0,0,0,4.3,2.256,5.011,5.011,0,0,1,.744-1A11.02,11.02,0,0,1,45.3-1.836Zm7.1-4.512V-7.692h2.352A17.137,17.137,0,0,1,56.94-6.348ZM59.136-2.3H54.612v-1h4.524ZM54.612-.372V-1.428h4.524V-.372Zm7.1-4.98v-1H58.572A17.355,17.355,0,0,0,61.224-9.18l-.96-.5a13.143,13.143,0,0,1-1.308,1.548v-.528h-2.8v-1.4h-1.1v1.4H52.128v.972h2.928v1.344H51.084v1h4.392a21.536,21.536,0,0,1-4.692,2.208,6.118,6.118,0,0,1,.684.924c.684-.264,1.368-.552,2.04-.864V.948h1.1V.576h4.524V.9h1.152V-4.224H55.632c.576-.36,1.14-.72,1.68-1.128Zm8.58.78v2.016h-2.6V-4.572ZM71.328-1.56v-4H66.672V-.72h1.02v-.84Zm2.556-6.48h-5.2c.3-.552.612-1.212.876-1.824l-1.416-.228a15.342,15.342,0,0,1-.7,2.052H64.176V.936h1.1V-6.948h7.488v6.5c0,.2-.072.264-.312.276S71.4-.156,70.608-.192a4.26,4.26,0,0,1,.384,1.14A7.81,7.81,0,0,0,73.284.756c.444-.192.6-.54.6-1.188ZM84.828-9.432H83.436a7.2,7.2,0,0,1,.12.756c.024.312.048,1.032.06,1.764-.492.012-.984.024-1.44.024a13.012,13.012,0,0,1-1.884-.132v1.212c.552.024,1.344.06,1.9.06.468,0,.96-.012,1.452-.024v.4c0,2.184-.132,3.42-1.248,4.464a3.916,3.916,0,0,1-1.272.84l1.1.864C84.7-.72,84.792-2.58,84.792-5.364v-.468c.7-.036,1.356-.108,1.872-.18l.012-1.224a17.849,17.849,0,0,1-1.9.252c-.012-.72-.024-1.428-.012-1.692A6.669,6.669,0,0,1,84.828-9.432Zm-6.036.18-1.4-.132a6.064,6.064,0,0,1-.06.9,32.885,32.885,0,0,0-.432,4.8,13.271,13.271,0,0,0,.66,3.84L78.6.036c-.012-.144-.036-.324-.036-.444a3.48,3.48,0,0,1,.06-.564c.144-.624.48-1.848.8-2.76l-.624-.4c-.2.528-.456,1.2-.612,1.644a15.86,15.86,0,0,1,.36-5.9C78.612-8.616,78.708-9,78.792-9.252Z" transform="translate(833 2506.524)"/>
    <g id="パス_86" data-name="パス 86" transform="translate(822 2487.093)" fill="none">
      <path d="M0,0H110V29.736H0Z" stroke="none"/>
      <path d="M 1 0.9999980926513672 L 1 28.73648452758789 L 109 28.73648452758789 L 109 0.9999980926513672 L 1 0.9999980926513672 M 0 -1.9073486328125e-06 L 110 -1.9073486328125e-06 L 110 29.73648452758789 L 0 29.73648452758789 L 0 -1.9073486328125e-06 Z" stroke="none" fill="#000"/>
    </g>
  </g>
  <rect id="長方形_2" data-name="長方形 2" width="7" height="138" transform="translate(0 1.256)" fill="#0077c0"/>
</svg>
