<?xml version="1.0" encoding="UTF-8"?><svg id="_レイヤー_2" xmlns="http://www.w3.org/2000/svg" width="232.79" height="294.53" xmlns:xlink="http://www.w3.org/1999/xlink" viewBox="0 0 232.79 294.53"><defs><style>.cls-1{fill:none;}.cls-2{clip-path:url(#clippath);}.cls-3{fill:#f7f7f7;}.cls-4{fill:#6895a7;}.cls-5{fill:#f4f4f4;}.cls-6{fill:#e2e1e1;}.cls-7{fill:#fff;}.cls-8{fill:#edd0b3;}.cls-9{fill:#e6c9ad;}.cls-10{fill:#e4e4e4;}.cls-11{fill:#98c0d2;}.cls-12{fill:#d14f28;}.cls-13{fill:#ddac42;}.cls-14{fill:#dadada;}.cls-15{fill:#dfdfdf;}.cls-16{fill:#24140d;}.cls-17{fill:#1c2a4e;}.cls-18{fill:#a3a2a2;}.cls-19{fill:#383a3a;}.cls-20{fill:#3c3d3d;}.cls-21{fill:#84695d;}</style><clipPath id="clippath"><path class="cls-1" d="M179.41,0c-15.62,0-17.55,14.04-17.55,20.85,0,0,2.14,1.06,5.99,1.7,3.85,.64,11.56,1.49,11.56,1.49,0,0,7.7-.85,11.56-1.49,3.85-.64,5.99-1.7,5.99-1.7,0-6.81-1.93-20.85-17.55-20.85Z"/></clipPath></defs><g id="_レイヤー_1-2"><g><path class="cls-21" d="M57.13,56.28c-1.36-1.38-.74-7.71-.84-12.65l-15.08,1.67-15.08-1.67c-.1,4.94,.52,11.26-.84,12.65-1.27,1.29,13.8,3.22,15.81,3.48v.03s.05,0,.11-.01c.07,0,.11,.01,.11,.01v-.03c2.01-.25,17.08-2.19,15.81-3.48Z"/><path class="cls-9" d="M41.31,105.62c2.23-8.22,17.1-34.89,16.65-35.98-.47-1.13,1.45-.09-4.3-3.53-5.75-3.45-4.99-9.61-5.04-11.36h-14.82c-.05,1.75,.71,7.91-5.04,11.36-5.75,3.45-3.5,3.79-3.98,4.92-.46,1.09,14.09,26.38,16.32,34.6v.87c.02-.14,.07-.3,.1-.46,.04,.16,.08,.32,.1,.46v-.87Z"/><path class="cls-9" d="M55.2,200.09c.33,3.46,1.27,11.61,.55,21.81-1.95,27.54-4.56,60.05-4.56,60.05l-6.87,.18s-1.14-32.46-1.59-58.68c-.25-14.47-1.63-23.04-1.63-23.04l14.1-.32Z"/><path class="cls-9" d="M25.62,200.09c-.33,3.46-1.27,11.61-.55,21.81,1.95,27.54,4.56,60.05,4.56,60.05l6.87,.18s1.14-32.46,1.59-58.68c.25-14.47,1.63-23.04,1.63-23.04l-14.1-.32Z"/><path class="cls-16" d="M28.74,281.48c-2.55,3.37-5.43,5.23-8.1,6.17-3.56,1.25-5.34,1.5-5.07,3.79,.33,2.78,5.39,3.28,9.97,2.55,3.36-.54,6.32-2.13,7.12-1.89,.66,.49,.74,.82,2.3,.74,1.56-.08,3.29-.33,3.54-.91,.25-.58,.58-5.76,0-7.49-.58-1.73-1.22-2.96-1.22-2.96h-8.54Z"/><path class="cls-16" d="M52.26,281.48c2.55,3.37,5.43,5.23,8.1,6.17,3.56,1.25,5.27,1.07,5.07,3.79-.2,2.79-5.39,3.28-9.97,2.55-3.36-.54-6.32-2.13-7.12-1.89-.66,.49-.74,.82-2.3,.74-1.56-.08-3.29-.33-3.54-.91-.25-.58-.58-5.76,0-7.49,.58-1.73,1.22-2.96,1.22-2.96h8.54Z"/><path class="cls-17" d="M64.21,147.29H18.01c-1.79,3.55-2.64,14.67-1.35,46.92,1.1,27.42,4.23,43.72,4.23,42.68,0,0,6.06,2.19,19.4,2.19s20.06-2.19,20.06-2.19c0,0,4.16-20.69,5.47-41.42,2.05-32.52,.14-42.58-1.6-48.18Z"/><path class="cls-8" d="M49.89,55.12c-.23,.22-.46,.43-.7,.64-.74,.65-1.53,1.24-2.37,1.74-.72,.42-1.49,.77-2.29,1.03-.72,.23-1.47,.39-2.23,.46-.94,.1-1.91,.07-2.84-.08-.77-.12-1.52-.33-2.24-.61-.81-.32-1.58-.73-2.31-1.22-.86-.57-1.66-1.24-2.4-1.96-3.17-3.06-3.14-10.79-3.91-10.25-1.75,1.17-2.87-2.32-3.09-4.4-.22-2.08,.73-2.95,1.6-2.08s.89-.1,1.13-1.24c.08-.37,.18-.73,.28-1.09,.16-.55,.35-1.1,.56-1.63,.26-.67,.56-1.32,.89-1.96,.37-.72,.8-1.42,1.27-2.08,.51-.71,1.07-1.38,1.7-1.99,.66-.64,1.4-1.21,2.19-1.69,.85-.51,1.77-.91,2.73-1.18,1.12-.32,2.27-.45,3.43-.45,1.12,0,2.24,.16,3.32,.48,.95,.28,1.86,.68,2.71,1.2,.79,.48,1.51,1.05,2.17,1.7,.62,.61,1.19,1.28,1.69,1.99,.47,.66,.89,1.35,1.26,2.07,.33,.63,.62,1.29,.88,1.95,.21,.53,.39,1.07,.55,1.62,.1,.35,.2,.71,.28,1.07,.24,1.14,.25,2.11,1.13,1.24,.87-.87,1.82,0,1.6,2.08-.22,2.08-1.34,5.57-3.09,4.4-.77-.55-.74,7.19-3.91,10.25Z"/><path class="cls-21" d="M34.58,31.04c2.9,.33,3.95,1.15,9.04,3.82,4.28,2.25,9.71,4.06,10.48,4.68,.34,.27,.6-1.01,1.9-1.39,.39-.11,.92-7.43-2.1-12.46-3.49-5.81-13.32-8.2-20.21-4.32-.66,.37-.17,.59-1.87,1.04-3.54,.93-5.74,6.5-5.74,11.91s.69,3.08,1.48,4.64c.32,.64,.63-2.48,3.53-4.88l3.49-3.04Z"/></g><g><path class="cls-16" d="M164.38,279.36c-3.02,4-4.83,4.25-7.99,5.36-4.22,1.49-6.44,.78-6,6.43,.25,3.31,6.39,3.88,11.8,3.02,3.98-.63,7.48-2.53,8.43-2.24,.78,.58,.88,.97,2.73,.88,1.85-.1,3.9-.39,4.19-1.07,.29-.68,.68-6.82,0-8.87-.68-2.05-.88-3.51-.88-3.51h-12.28Z"/><path class="cls-16" d="M197.26,279.36c3.02,4,4.83,4.25,7.99,5.36,4.22,1.49,6.44,.78,6,6.43-.25,3.31-6.39,3.88-11.8,3.02-3.98-.63-7.48-2.53-8.43-2.24-.78,.58-.88,.97-2.73,.88-1.85-.1-3.9-.39-4.19-1.07-.29-.68-.68-6.82,0-8.87,.68-2.05,.88-3.51,.88-3.51h12.28Z"/><path class="cls-20" d="M200.49,129.28h-39.34c-4.81,6.88-8.02,24.18-5.08,59.37,3.15,37.71,3.7,58.51,6.07,91.5h16.1s.38-116.77,2.44-118.83h.29c2.06,2.06,2.44,118.83,2.44,118.83h16.1c2.37-32.99,2.92-53.79,6.07-91.5,2.94-35.19-.27-52.5-5.08-59.37Z"/><path class="cls-9" d="M180.09,99.71c2.72-9.11,20.86-38.68,20.3-39.89-.58-1.25,1.77-.09-5.24-3.92-7.01-3.82-6.08-10.65-6.14-12.6h-18.07c-.06,1.94,.87,8.77-6.14,12.6-7.01,3.82-4.27,4.2-4.85,5.45-.56,1.21,17.18,29.25,19.9,38.36v.96c.03-.15,.08-.33,.12-.51,.04,.17,.09,.35,.12,.51v-.96Z"/><path class="cls-9" d="M189.28,48.02c-.24,.24-.49,.47-.75,.69-.79,.69-1.64,1.33-2.55,1.86-.77,.45-1.6,.83-2.45,1.11-.78,.25-1.58,.41-2.39,.5-1.01,.1-2.04,.07-3.05-.09-.82-.13-1.63-.35-2.41-.65-.87-.34-1.7-.79-2.47-1.31-.92-.62-1.78-1.33-2.58-2.1-3.4-3.28-3.37-11.58-4.19-10.99-1.88,1.26-3.08-2.49-3.31-4.72-.23-2.23,.78-3.16,1.72-2.23,.94,.94,.95-.11,1.21-1.33,.08-.39,.19-.78,.3-1.17,.17-.59,.37-1.18,.6-1.75,.28-.72,.6-1.42,.95-2.1,.4-.77,.85-1.52,1.36-2.23,.54-.76,1.15-1.48,1.83-2.13,.71-.69,1.5-1.3,2.35-1.81,.92-.55,1.9-.98,2.93-1.27,1.2-.34,2.43-.49,3.68-.49,1.2,0,2.4,.17,3.56,.51,1.02,.3,2,.73,2.91,1.28,.84,.51,1.62,1.13,2.33,1.82,.67,.65,1.27,1.37,1.81,2.13,.5,.71,.95,1.45,1.35,2.22,.35,.68,.67,1.38,.94,2.09,.22,.57,.42,1.15,.59,1.74,.11,.38,.21,.76,.3,1.15,.26,1.22,.27,2.27,1.21,1.33,.94-.94,1.95,0,1.72,2.23-.23,2.23-1.44,5.98-3.31,4.72-.82-.59-.79,7.71-4.19,10.99Z"/><path class="cls-19" d="M171.2,21.47c-2.29-1.22-2.67,3.01-3.94,4.88-1.27,1.87-.35,5.32-1.13,4.63-.78-.69-1.57-.75-1.83-1.23-.15-.28-2.85-10.59,.47-16.05,1.06-1.52,2.5-1.93,2.85-2.27,.35-.35,1.09-3.41,7.79-4.98,5.2-1.22,14.29-.55,19.01,7.05,4.73,7.6,1.26,15.43,1.12,16.26-.14,.83-1.4,.49-1.89,1.3-.49,.81-.28-2.85-.99-3.89-.71-1.04-1.09-2.86-2.57-3.13-1.48-.28-12.31,.92-18.89-2.57Z"/><path class="cls-4" d="M164.65,55.81c.52-.29,2.28-2.57,3.26-3.42s2.57,.8,3.93,1.81c3.95,2.93,11.34,3.45,15.29,.9,3.45-2.22,4.16-2.62,4.64-3.1,.4-.4,1.42,1.18,1.88,1.75s2.28,2.64,2.28,2.64c0,0-3.26,6.14-3.71,6.57s-11.6,4.78-11.6,4.78l-9.25-1.78-5.02-3.43-1.69-6.71Z"/><path class="cls-11" d="M208.47,94.94c-1.06-6.12,.8-19.54,1.44-23.89,.43-2.91,2.82-8.54,2.73-8.59-2.59-1.7-14.92-5.84-16.97-6.62-2.04-.78-2.04-1.78-4.04,.35-5.91,6.3-16.44,5.76-21.74,1.15-2.2-1.92-2.15-3.45-4.2-2.67-2.04,.78-15.23,6.09-17.82,7.79-.08,.06,2.3,5.68,2.73,8.59,.65,4.36,2.5,17.78,1.44,23.89-.58,3.35-9.15,60.01-8.51,108.57,.04,3.15,12.97,7.16,29.25,7.16h14.94c16.27,0,28.07-4.02,28.15-7.16,1.06-38.99-6.84-105.22-7.42-108.57Z"/><path class="cls-4" d="M209.66,147.88c-.08-.21-.87-.7-4.01-3.79-3.14-3.09-5.76-5.43-6.59-5.12-.79,.29,0-.17-1.85,1.58-.24,.23-.49,.11,2.94,3.29,3.43,3.19,9.23,7.7,9.23,7.7-.39-2.63,.57-2.91,.29-3.67Z"/><g><path class="cls-16" d="M190.56,50.62c-.26-.1-.51-.08-.72,.09,.02,.02,.04,.05,.05,.07,.62,.81,.77,.9,1.27,1.44,.24,.26,.56,.53,.79,.85,6.91,4.51,5.64,15.24,4.88,21.22-.18,1.42-.32,2.54-.32,3.32,0,.42,.34,.76,.76,.76s.76-.34,.76-.76c0-.68,.14-1.81,.31-3.13,.88-6.92,2.52-19.81-7.78-23.86Z"/><circle class="cls-18" cx="196.84" cy="80.09" r="2.57"/><path class="cls-7" d="M198.63,80.09c0,.99-.8,1.79-1.79,1.79s-1.79-.8-1.79-1.79,.8-1.79,1.79-1.79,1.79,.8,1.79,1.79Z"/></g></g><path class="cls-15" d="M29.43,63.31c-1.96,.87-14.85,4.02-8.32,14.08,6.53,10.06,19.18,24.41,32.25,9.05,16.65-19.56,4.4-19.61,.59-22.95-3.72-3.26-12.81,10.68-12.81,10.68l-11.71-10.87Z"/><g><path class="cls-16" d="M42.64,76.64h-3.19c-.31,1.26-4.86,30.64-4.9,34.33-.03,3.21,4.42,12.83,6.53,13.74,2.11-.91,6.49-10.53,6.46-13.74-.04-3.69-4.59-33.07-4.9-34.33Z"/><path class="cls-16" d="M44.86,71.64c-.04-.46-.86-1.11-1.21-1.44-1.07-1.03-1.74-.69-2.28-.94h-.63c-.54,.25-1.21-.08-2.28,.94-.35,.34-1.18,.99-1.21,1.44-.16,1.9,.89,2.96,1.82,5.04,.07,.16,.23,.28,.39,.37,.16,.08,.35,.09,.54,.11l.86,.06v.03h.2s.2,0,.2,0v-.03l.86-.06c.18-.01,.38-.03,.54-.11,.17-.08,.32-.21,.39-.37,.93-2.08,1.98-3.14,1.82-5.04Z"/></g><path class="cls-5" d="M31.26,61.25c.56-.9,2.02,2.18,9.57,7.66,.98,.71-5.04,3.75-4.79,6.27,.25,2.53-8.27-6.99-7.84-10.37,.06-.5,1.62-1.27,3.05-3.56Z"/><path class="cls-5" d="M50.77,60.94c-.57-.94-2.05,2.28-9.69,8-.99,.74,5.1,3.92,4.85,6.56-.26,2.64,8.38-7.31,7.94-10.83-.07-.53-1.64-1.33-3.09-3.73Z"/><path class="cls-17" d="M41.29,94.9c-.31-1.7-.45-2.33-1.26-3.82-.63-1.16-3.13-5.51-3.9-6.59-2.16-3.01-7.3-11.06-8.98-14.49-1.23-2.53-.21-5.78-2.18-5.02-1.97,.75-12.29,5.01-14.79,6.65-.08,.05,2.22,4.68,2.63,7.49,.62,4.19,2.92,27.79,3.63,36.46,.58,7.13-2.9,38.48-3.16,40.83-.33,3.01,5.21,6.73,20.88,6.73h8.28c0-5.58-.82-66.33-1.16-68.23Z"/><path class="cls-17" d="M41.43,94.9c.31-1.7,.45-2.33,1.26-3.82,.63-1.16,3.13-5.51,3.9-6.59,2.16-3.01,6.17-11.46,7.85-14.88,1.23-2.53,1.23-5.33,3.2-4.58,1.97,.75,12.4,4.96,14.9,6.6,.08,.05-2.22,5.47-2.63,8.27-.62,4.19-2.04,28.21-2.63,34.86-.93,10.51,1.91,39.3,2.16,41.65,.33,3.01-5.21,6.73-20.88,6.73h-8.7c0-5.58,1.24-66.33,1.58-68.23Z"/><path class="cls-17" d="M61.31,73.28c-1.07-.93-1.15-2.86-2.66-6.02-1.01-2.12-1.96-2.7-3.37-3.54-1.59-.94-3.01-.88-3.01-.88,0,0,1.79,1.13,1.68,2.9-.11,1.87-.57,3.43-1.91,6.2-2.19,4.54-10.35,19.52-10.99,25.77-.64-6.26-8.58-21.03-11.17-25.34-2.98-4.95-1.94-6.37-1.64-7.21,.45-1.22,1.57-2.02,1.57-2.02,0,0-1.15,0-2.94,.8-1.37,.61-2.9,1.19-3.91,3.31-1.51,3.16-1.59,5.09-2.66,6.02-1.07,.93,8.31,1.65,8.31,1.65l-5.91,5.22s6.62,8.86,11.09,12.67c1.39,1.18,2.75,3.37,3.89,4.86,1.32,1.72,2.44,3.47,3.68,4.74,1.07-2.05,1.23-3.02,2.54-4.74,1.14-1.5,2.51-3.68,3.89-4.86,4.48-3.82,11.09-12.67,11.09-12.67l-5.91-5.22s9.38-.72,8.31-1.65Z"/><ellipse class="cls-13" cx="41.17" cy="106.32" rx="1.59" ry="1.52"/><ellipse class="cls-13" cx="41.17" cy="119.95" rx="1.59" ry="1.52"/><ellipse class="cls-13" cx="41.17" cy="132.23" rx="1.54" ry="1.47"/><path class="cls-13" d="M57.65,89.62c-1.09-.4-1.53-1.48-2.25-1.48s-1.16,1.08-2.25,1.48c-1.09,.4-1.87-.82-1.7,1.51,.24,3.32,3.24,5.16,3.95,5.16s3.71-1.84,3.95-5.16c.17-2.34-.61-1.12-1.7-1.51Z"/><path class="cls-9" d="M78.05,151.82c.66,4.73,.56,12.45,.17,13.43s-3.54,3.68-4.23,3.99c-.69,.3-3.26,1.35-3.39,.67-.13-.68,.59-1.65,2.48-2.73,1.9-1.08,1.77-2.73,1.65-5.02-.12-2.29-.71-3.83-1.44-2.69-.73,1.14-.83,3.15-.7,3.99,.13,.85-1.33,2.12-1.67-.59-.34-2.7-.29-4.71,.34-6.86,.64-2.15,2.26-4.42,2.26-4.42l4.52,.22Z"/><polygon class="cls-15" points="79.64 153.85 71.58 152.48 71.58 148.29 79.64 149.66 79.64 153.85"/><path class="cls-17" d="M72.01,71.73c4.05-1.94,10.13,33.56,10.91,41.89,.77,8.33-2.56,34.94-2.38,37.46s-7.8-.25-9.63-.27c-1.83-.02,1.26-33.63,.4-37.06s-4.72-15.05-4.76-18.91c-.05-3.87-2.14-19.47,5.47-23.11Z"/><path class="cls-9" d="M5.03,152.53c-.33,4.77,.32,12.45,.78,13.41s3.79,3.43,4.5,3.68c.71,.25,3.34,1.12,3.43,.43,.09-.69-.7-1.6-2.67-2.55-1.97-.94-1.96-2.6-2-4.89-.05-2.29,.44-3.87,1.25-2.79,.81,1.08,1.05,3.08,.98,3.93-.07,.85,1.48,2.02,1.63-.7,.15-2.72-.04-4.72-.82-6.82-.79-2.1-2.56-4.25-2.56-4.25l-4.49,.54Z"/><polygon class="cls-15" points="3.39 153.85 11.45 152.48 11.45 148.29 3.39 149.66 3.39 153.85"/><path class="cls-17" d="M11.02,71.73C6.98,69.79,.89,105.29,.12,113.62c-.77,8.33,2.56,34.94,2.38,37.46-.18,2.52,7.8-.25,9.63-.27,1.83-.02-1.26-33.63-.4-37.06s4.72-15.05,4.76-18.91c.05-3.87,2.14-19.47-5.47-23.11Z"/><g><path class="cls-16" d="M56.47,34.43c.27-.89-8.42-3.5-15.58-3.51h0s-.02,0-.03,0-.02,0-.03,0h0c-7.16,.01-15.85,2.63-15.58,3.51,1.79,5.8,14.67,6.37,15.58,6.4h0s.01,0,.03,0c.01,0,.03,0,.03,0h0c.91-.03,13.79-.6,15.58-6.4Z"/><path class="cls-17" d="M57.07,34.43c-7.76-1.24-16.15-1.09-16.24-1.09-.08,0-8.48-.15-16.24,1.09l.25,.62c.99,1.07,14.41,1.72,15.98,1.72h0s0,0,0,0c0,0,0,0,0,0h0c1.57,0,14.99-.65,15.98-1.72l.25-.62Z"/><path class="cls-13" d="M42.79,25.7c-.94-.41-1.33-1.53-1.95-1.53s-1,1.12-1.95,1.53c-.94,.41-1.62-.85-1.48,1.57,.21,3.43,2.8,5.33,3.42,5.33s3.22-1.9,3.42-5.33c.15-2.42-.53-1.16-1.48-1.57Z"/></g><path class="cls-14" d="M209.02,172.8c3.3,.93,3.92-2.29,4.87-4.99,.94-2.7,.18-5.04-1.34-4.02-1.52,1.02-2.61,6.37-3.51,6.39-.9,.01-2.31-.16-.57-6.19,1.67-5.83,3.09-5.89,5-9.1,.03-.11-.92-8.41,1.04-7.48,0,0,5.27,.86,9.44,3.16,.91,.78-1.84,3.32-2.36,6.5h-.03c-.29,4.7-1.23,13.39-2.65,15.04-1.42,1.65-6.03,3.83-7.17,3.73s-5.21-1.22-6-1.89c-.49-.42-.26-2.14,3.27-1.14Z"/><path class="cls-11" d="M212.17,149.26c-.16-3.7,2.02-24.49,2.03-36.49,0,0-6.07-12.35-7.18-15.84-.3-.59-5.02-10.97-3.75-14.37,1.66-4.43,5.05-20.73,8.62-20.42,2.61,.23,5.31,4.55,8.66,10.82,2.75,5.14,7.54,20.46,7.54,20.46,1.91,4.82,3.77,15.23,4.5,17.77,.46,1.6,.03,4.38-.48,8.71-.61,5.2-4.33,30.58-7.12,33.07l-5.89-1.22c-.77-.13-6.9-1.7-6.93-2.48Z"/><path class="cls-14" d="M150.04,175.31c-3.35,.72-3.77-2.52-4.55-5.27-.78-2.75,.13-5.04,1.58-3.93,1.45,1.11,2.21,6.52,3.11,6.59,.9,.07,2.31-.02,.95-6.15-1.31-5.92-2.72-6.07-4.44-9.39-.02-.11,1.44-8.34-.58-7.53,0,0-5.31,.53-9.62,2.57-.96,.73,1.64,3.42,1.95,6.63h.03c0,4.71,.4,13.44,1.72,15.17,1.32,1.73,5.79,4.19,6.93,4.17s5.28-.9,6.1-1.52c.52-.39,.39-2.12-3.19-1.34Z"/><path class="cls-11" d="M148.31,149.83c.11-3.7-2.22-24.47-2.37-36.46,0,0,5.92-12.42,6.99-15.93,.3-.59,4.89-11.03,3.58-14.41-1.71-4.41-5.3-20.67-8.86-20.32-2.61,.26-5.25,4.61-8.53,10.92-2.69,5.17-7.3,20.55-7.3,20.55-1.86,4.84-3.59,15.27-4.29,17.82-.44,1.61,.03,4.38,.58,8.71,.65,5.1,4.6,30.52,7.42,32.98l5.88-1.29c.77-.14,6.88-1.78,6.9-2.56Z"/><g><path class="cls-16" d="M170.23,50.25s.12-.17,.12-.18c-.19-.1-.51,.02-.72,.1-1.44,.54-8.6,4.09-8.22,20.96,0,.42,.36,.75,.77,.74,.02,0,.03,0,.05,0,.4-.03,.7-.37,.7-.77-.26-11.7,3.38-17.1,5.62-18.98,.48-.46,1.26-1.29,1.69-1.86Z"/><path class="cls-10" d="M160.53,96.69s-.03,0-.05,0c-2.81-.32-2.95-3.08-3.03-4.56l-.02-.31c-.29-5.51-.46-8.61-.51-9.23-.01-.14,.09-.26,.23-.27,.14-.01,.26,.09,.27,.23,.05,.62,.22,3.73,.51,9.24l.02,.29c.07,1.44,.2,3.83,2.58,4.1,.14,.02,.24,.14,.22,.28-.01,.12-.11,.21-.23,.22Z"/><path class="cls-10" d="M168.8,96.02s.03,0,.05,0c2.72-.77,2.41-3.51,2.25-4.99l-.03-.3c-.61-5.48-.94-8.57-.99-9.19-.01-.14-.13-.24-.27-.23-.14,.01-.24,.13-.23,.27,.05,.62,.38,3.72,.99,9.2l.03,.29c.16,1.43,.42,3.81-1.88,4.46-.13,.04-.21,.18-.17,.31,.03,.12,.15,.19,.26,.18Z"/><path class="cls-16" d="M160.43,96.72c.03,.31,.99,1,2.18,.77,1.19-.22,1-1.45,.05-1.5-.95-.05-2.32-.17-2.22,.73Z"/><path class="cls-16" d="M168.87,96.04c.02,.32-.82,1.14-2.02,1.12-1.21-.03-1.22-1.27-.29-1.48,.93-.2,2.26-.54,2.31,.36Z"/><path class="cls-16" d="M170.13,81.53l-.71,.06c-.22,.02-.41-.14-.43-.36-.38-3.55-2.16-8.98-6.69-8.61-4.44,.36-4.38,7.65-4.29,9.49,.01,.23-.16,.42-.39,.44l-.67,.05c-.24,.02-.45-.16-.46-.4-.05-1.03-.09-3.43,.49-5.73,1.05-4.17,3.4-5.22,5.2-5.36,5.03-.41,7.78,4.65,8.33,9.98,.02,.22-.15,.42-.37,.44Z"/></g><path class="cls-4" d="M151.35,147.94c.06-.22,.81-.77,3.67-4.12,2.86-3.35,5.27-5.9,6.12-5.67,.81,.22-.02-.17,1.98,1.42,.26,.2,.5,.07-2.65,3.54-3.14,3.47-8.52,8.48-8.52,8.48,.16-2.65-.82-2.85-.61-3.63Z"/><ellipse class="cls-17" cx="40.83" cy="32.58" rx="18.57" ry="5.37"/><path class="cls-17" d="M40.42,14.11h.88c8.36,0,15.16,6.79,15.16,15.16v5.16H25.26v-5.16c0-8.36,6.79-15.16,15.16-15.16Z"/><g><path class="cls-3" d="M179.41,0c-15.62,0-17.55,14.04-17.55,20.85,0,0,2.14,1.06,5.99,1.7,3.85,.64,11.56,1.49,11.56,1.49,0,0,7.7-.85,11.56-1.49,3.85-.64,5.99-1.7,5.99-1.7,0-6.81-1.93-20.85-17.55-20.85Z"/><path class="cls-6" d="M189.98,22.64c-3.16,.71-10.57,1.12-10.57,1.12,0,0-7.42-.41-10.57-1.12-7.28-1.63-7.96-2.43-7.96-.94s10.5,4.96,18.53,4.96,18.53-3.48,18.53-4.96-.68-.69-7.96,.94Z"/><g class="cls-2"><path class="cls-12" d="M193.49,13.63c-4.2,.71-7.09,1.12-14.07,1.12s-9.87-.41-14.07-1.12c-9.69-1.63-10.6-2.43-10.6-.94s13.97,4.96,24.67,4.96,24.67-3.48,24.67-4.96-.91-.69-10.6,.94Z"/></g></g><circle class="cls-13" cx="179.84" cy="16.23" r="3.36"/></g></svg>