<?xml version="1.0" encoding="UTF-8"?><svg id="_レイヤー_2" xmlns="http://www.w3.org/2000/svg" width="37.32mm" height="25.48mm" viewBox="0 0 105.78 72.22"><defs><style>.cls-1{fill:#1171b4;}</style></defs><g id="_レイヤー_1-2"><g><path class="cls-1" d="M47.33,49.78c0,15.81-11.02,22.44-23.67,22.44S0,65.59,0,49.78V22.44C0,5.92,11.02,0,23.67,0s23.67,5.92,23.67,22.34v27.44ZM23.67,12.04c-6.43,0-9.49,4.08-9.49,11.63v24.89c0,7.55,3.06,11.63,9.49,11.63s9.38-4.08,9.38-11.63V23.67c0-7.55-3.06-11.63-9.38-11.63Z"/><path class="cls-1" d="M104.96,71.3H61.51v-9.18l23.56-27.75c4.39-5.1,6.53-9.38,6.53-13.97,0-5.71-4.18-8.57-8.77-8.57s-8.36,2.96-8.77,8.57h-12.65c0-12.14,10-20.4,22.14-20.4s22.24,8.77,22.24,20.4c0,9.28-6.12,16.52-10.61,21.83l-14.48,17.03h24.28v12.04Z"/></g></g></svg>