<?xml version="1.0" encoding="UTF-8"?><svg id="_レイヤー_2" xmlns="http://www.w3.org/2000/svg" width="263.64" height="62.01" viewBox="0 0 263.64 62.01"><defs><style>.cls-1{fill:#006ebb;}.cls-2{fill:#925c24;}.cls-3{fill:#1b9e3c;}</style></defs><g id="_レイヤー_1-2"><g><g><path class="cls-1" d="M14.56,0h9.72l14.75,40.92h-8.83l-2.78-8.42H11.56l-2.7,8.42H0L14.56,0Zm4.89,8.2l-5.67,17.42h11.36l-5.7-17.42Z"/><path class="cls-3" d="M59.68,29.53h7.97c-.33,3.83-1.73,6.86-4.2,9.09-2.46,2.22-5.63,3.33-9.5,3.33-4.39,0-7.83-1.43-10.32-4.29-2.49-2.86-3.74-6.82-3.74-11.88s1.27-8.99,3.82-11.85c2.55-2.86,6.05-4.29,10.52-4.29,3.91,0,7.04,1.04,9.4,3.11,2.36,2.08,3.68,4.96,3.96,8.67h-8.03c-.22-1.61-.79-2.84-1.69-3.7-.91-.85-2.1-1.28-3.58-1.28-2,0-3.5,.79-4.49,2.36-.99,1.57-1.49,3.94-1.49,7.08,0,2.91,.51,5.15,1.54,6.71,1.03,1.57,2.5,2.35,4.43,2.35,1.5,0,2.7-.45,3.61-1.36s1.5-2.26,1.78-4.06Z"/><path class="cls-2" d="M86.19,41.15c-.74,.02-1.62,.05-2.65,.1-1.03,.05-1.68,.07-1.96,.07-3.09,0-5.21-.58-6.35-1.74-1.14-1.16-1.71-3.44-1.71-6.85V16.39h-4v-5.67h4V2.47h8V10.72h4.67v5.67h-4.67v16.73c0,.8,.18,1.32,.53,1.57,.35,.25,1.07,.38,2.17,.38h1.97v6.08Z"/><path class="cls-1" d="M91.02,7.36V0h8.08V7.36h-8.08Zm0,33.56V10.72h8.08v30.2h-8.08Z"/><path class="cls-3" d="M113.77,40.92l-10.86-30.2h8.95l6.2,21.67,6.25-21.67h8.53l-10.81,30.2h-8.25Z"/><path class="cls-2" d="M153.78,37.17c-1.02,1.58-2.35,2.77-4,3.6-1.65,.82-3.57,1.24-5.75,1.24-2.93,0-5.18-.83-6.77-2.5-1.58-1.67-2.38-4.04-2.38-7.11,0-2.85,.79-5.03,2.38-6.53,1.58-1.5,4.2-2.53,7.85-3.08,.83-.13,1.93-.28,3.28-.44,3.43-.44,5.14-1.44,5.14-2.97,0-1.22-.38-2.1-1.14-2.63-.76-.53-2.03-.79-3.81-.79-1.63,0-2.88,.32-3.75,.97-.87,.65-1.31,1.57-1.31,2.78v.44h-7.56v-.56c0-3.09,1.09-5.52,3.28-7.29s5.21-2.65,9.06-2.65c4.22,0,7.46,.73,9.71,2.19,2.25,1.46,3.38,3.58,3.38,6.33v17.17c0,1.26,.13,2.2,.39,2.82,.26,.62,.69,1.09,1.31,1.4v1.36h-8.42c-.28-.52-.49-1.09-.64-1.72-.15-.63-.23-1.31-.25-2.03Zm-.14-11.11c-1.32,.61-2.83,1.1-4.54,1.47-1.71,.37-2.6,.57-2.65,.58-1.43,.41-2.42,.92-2.99,1.53-.57,.61-.85,1.45-.85,2.53s.36,2,1.08,2.65c.72,.66,1.69,.99,2.92,.99,2.19,0,3.9-.62,5.15-1.85,1.25-1.23,1.88-2.91,1.88-5.04v-2.86Z"/><path class="cls-1" d="M181.87,41.15c-.74,.02-1.62,.05-2.65,.1-1.03,.05-1.68,.07-1.96,.07-3.09,0-5.21-.58-6.35-1.74-1.14-1.16-1.71-3.44-1.71-6.85V16.39h-4v-5.67h4V2.47h8V10.72h4.67v5.67h-4.67v16.73c0,.8,.18,1.32,.53,1.57s1.07,.38,2.17,.38h1.97v6.08Z"/><path class="cls-3" d="M186.71,7.36V0h8.08V7.36h-8.08Zm0,33.56V10.72h8.08v30.2h-8.08Z"/><path class="cls-2" d="M200.49,25.78c0-5.02,1.36-8.96,4.08-11.84,2.72-2.87,6.46-4.31,11.22-4.31s8.48,1.44,11.21,4.31,4.1,6.82,4.1,11.84-1.37,8.99-4.1,11.86-6.47,4.31-11.21,4.31-8.5-1.44-11.22-4.31c-2.72-2.87-4.08-6.83-4.08-11.86Zm8.2,0c0,3,.62,5.32,1.85,6.95s2.99,2.45,5.27,2.45,3.98-.82,5.21-2.45c1.23-1.63,1.85-3.95,1.85-6.95s-.61-5.28-1.83-6.9-2.96-2.43-5.22-2.43-4.03,.81-5.27,2.43-1.85,3.92-1.85,6.9Z"/><path class="cls-1" d="M236.61,40.92V10.72h7.92v3.58c1.13-1.46,2.46-2.56,4-3.29,1.54-.73,3.25-1.1,5.14-1.1,3.33,0,5.83,.87,7.49,2.6,1.66,1.73,2.49,4.34,2.49,7.82v20.59h-8.08V22.67c0-2.17-.37-3.71-1.1-4.64-.73-.93-1.92-1.39-3.57-1.39-1.91,0-3.42,.57-4.53,1.71-1.11,1.14-1.67,2.69-1.67,4.65v17.92h-8.08Z"/></g><g><path class="cls-1" d="M81.29,50.54c-.16,.19-.45,.55-.58,.78-.7,1.17-2.13,3.06-3.61,4.11l-1.54-1.25c1.2-.74,2.37-2.05,2.76-2.79h-7.81c-.63,0-1.12,.04-1.83,.11v-2.08c.57,.09,1.2,.15,1.83,.15h8.08c.42,0,1.25-.04,1.52-.13l1.2,1.11Zm-6.12,2.02c0,3.72-.07,6.78-4.17,8.97l-1.74-1.42c.48-.17,1.02-.42,1.57-.83,1.91-1.32,2.27-2.91,2.27-5.37,0-.47-.03-.87-.1-1.35h2.17Z"/><path class="cls-1" d="M96.1,51.36c-.17,.29-.38,.71-.5,1.08-.4,1.33-1.26,3.33-2.61,5.01-1.42,1.74-3.24,3.11-6.06,4.23l-1.77-1.59c3.08-.92,4.74-2.22,6.04-3.71,1.02-1.17,1.89-2.97,2.13-4.09h-4.21c-1,1.3-2.31,2.62-3.78,3.63l-1.68-1.25c2.62-1.61,3.93-3.54,4.68-4.83,.22-.38,.54-1.06,.67-1.58l2.19,.72c-.36,.52-.73,1.2-.92,1.53l-.04,.08h3.01c.47,0,.96-.08,1.31-.18l1.53,.94Z"/><path class="cls-1" d="M109.96,53.12c.31,0,.96-.03,1.36-.09v1.95c-.38-.03-.94-.04-1.36-.04h-3.61c-.09,1.54-.42,2.8-.96,3.85-.53,1.04-1.68,2.21-3.02,2.88l-1.75-1.27c1.06-.41,2.11-1.28,2.71-2.15,.62-.93,.87-2.05,.93-3.31h-4.12c-.44,0-1.02,.03-1.44,.06v-1.96c.45,.04,.98,.09,1.44,.09h9.82Zm-7.9-2.06c-.52,0-1.15,.03-1.6,.06v-1.94c.48,.08,1.1,.11,1.59,.11h6.03c.51,0,1.11-.03,1.62-.11v1.94c-.52-.03-1.1-.06-1.62-.06h-6.01Z"/><path class="cls-1" d="M124.9,52.68c-.71,.78-2.01,1.83-3.38,2.71v5c0,.52,.02,1.32,.1,1.62h-2.22c.04-.3,.08-1.1,.08-1.62v-3.86c-1.32,.63-2.97,1.29-4.23,1.64l-1-1.74c1.93-.41,4.11-1.33,5.29-2.03,1.53-.9,3.1-2.14,3.85-3.12l1.5,1.39Z"/><path class="cls-1" d="M128.77,55.29c.69-.69,1.86-2.16,2.88-3.39,.9-1.06,1.71-1.17,2.94-.13,1,.86,2.13,2.04,3.06,3.04,1,1.09,2.61,2.8,3.69,4.05l-1.61,1.74c-.96-1.23-2.32-2.9-3.21-3.93-.93-1.11-2.2-2.5-2.76-2.97-.52-.45-.78-.45-1.21,.09-.58,.75-1.67,2.23-2.28,3.06-.35,.46-.71,1-.96,1.39l-1.77-1.81c.45-.38,.78-.69,1.23-1.14Zm10.27-2.6l-1.35,.58c-.43-.94-.81-1.66-1.36-2.44l1.3-.54c.42,.63,1.08,1.71,1.41,2.4Zm2.05-.88l-1.3,.63c-.48-.94-.88-1.63-1.44-2.38l1.29-.58c.44,.6,1.11,1.67,1.46,2.34Z"/><path class="cls-1" d="M144.65,53.75c.54,.04,1.63,.09,2.42,.09h8.05c.69,0,1.37-.06,1.75-.09v2.35c-.36-.01-1.12-.08-1.75-.08h-8.05c-.85,0-1.86,.03-2.42,.08v-2.35Z"/><path class="cls-1" d="M165.08,54.34l-1.09,1.68c-.85-.58-2.4-1.6-3.42-2.13l1.09-1.67c1.01,.54,2.66,1.58,3.42,2.12Zm1.21,3.43c2.55-1.42,4.64-3.48,5.83-5.62l1.16,2.04c-1.39,2.07-3.51,3.98-5.97,5.38-1.53,.87-3.67,1.62-5.01,1.86l-1.12-1.98c1.68-.29,3.48-.8,5.11-1.68Zm1.1-6.82l-1.12,1.67c-.84-.58-2.4-1.61-3.39-2.16l1.09-1.65c.99,.56,2.64,1.61,3.42,2.15Z"/><path class="cls-1" d="M185.53,60.79c0,.24,.01,.75,.01,1.02h-1.89c.01-.13,.01-.38,.01-.6h-5.68c-.42,0-1.04,.03-1.29,.04v-1.85c.25,.03,.76,.06,1.3,.06h5.67v-2h-4.79c-.57,0-1.29,.01-1.63,.03v-1.77c.39,.03,1.07,.04,1.63,.04h4.79v-1.81h-4.95c-.55,0-1.5,.03-1.86,.06v-1.81c.39,.04,1.3,.08,1.86,.08h5.67c.36,0,.92-.02,1.16-.03-.01,.2-.01,.69-.01,1v7.53Z"/><path class="cls-1" d="M195.59,57.31c2.55-1.51,4.51-3.81,5.46-5.83l1.17,2.12c-1.14,2.03-3.13,4.09-5.55,5.55-1.51,.92-3.45,1.75-5.56,2.12l-1.26-1.98c2.34-.33,4.29-1.09,5.75-1.96Zm0-4.86l-1.53,1.57c-.78-.84-2.66-2.47-3.75-3.24l1.41-1.5c1.05,.71,3,2.26,3.87,3.17Z"/></g></g></g></svg>