<?xml version="1.0" encoding="utf-8"?>
<!-- Generator: Adobe Illustrator 27.0.1, SVG Export Plug-In . SVG Version: 6.00 Build 0)  -->
<svg version="1.1" id="コンポーネント_17_1" xmlns="http://www.w3.org/2000/svg" xmlns:xlink="http://www.w3.org/1999/xlink"
	 x="0px" y="0px" viewBox="0 0 235.7 91.4" style="enable-background:new 0 0 235.7 91.4;" xml:space="preserve">
<style type="text/css">
	.st0{fill:none;}
	.st1{fill:none;stroke:#000000;}
</style>
<g id="グループ_576" transform="translate(-695.5 -2373.998)">
	<g>
		<path id="パス_835" d="M713.3,2454.4v-1.5h6.1v1.5H713.3z M719.3,2450.2v1.5h-6.1v-1.5H719.3z M719.3,2447.7v1.5h-6.1v-1.5
			H719.3z M716.3,2446.6c0.2-0.4,0.4-0.9,0.6-1.5l-1.3-0.2c-0.1,0.5-0.2,1.1-0.4,1.6h-3v9.4h1.1v-0.6h6.1v0.6h1.2v-9.4L716.3,2446.6
			L716.3,2446.6z M731.7,2446.3c-0.7-0.5-1.5-0.9-2.3-1.2l-0.6,0.8c0.8,0.3,1.6,0.8,2.2,1.3L731.7,2446.3z M731,2449.4
			c-0.7-0.5-1.5-0.8-2.3-1.1l-0.6,0.9c0.8,0.3,1.6,0.7,2.3,1.2L731,2449.4z M729.5,2455.9c0.7-1.1,1.5-2.5,2.1-3.8l-0.8-0.7
			c-0.7,1.3-1.4,2.6-2.2,3.8L729.5,2455.9z M737,2452.2v2.3h-3.7v-2.3H737z M732.3,2456h1.1v-0.5h3.7v0.5h1.1v-4.8h-5.9L732.3,2456
			L732.3,2456z M735.8,2447.3c0.4,0.5,0.8,1,1.2,1.6c-1.2,0.1-2.3,0.1-3.4,0.2c0.6-1.1,1.1-2.5,1.6-3.7l-1.3-0.3
			c-0.4,1.4-0.9,2.8-1.5,4.1c-0.4,0-0.8,0-1.2,0l0.1,1.1c1.6-0.1,4-0.3,6.3-0.4c0.2,0.4,0.4,0.7,0.5,1l1-0.6
			c-0.7-1.2-1.5-2.4-2.4-3.4L735.8,2447.3z M747.9,2445.1c-0.5,1.7-1.4,3.3-2.5,4.6c0.2,0.4,0.5,0.7,0.6,1.1
			c0.3-0.4,0.6-0.7,0.9-1.2v6.4h1.1v-8.2c0.4-0.8,0.7-1.6,1-2.4L747.9,2445.1z M756.5,2448.4v-1.1H753v-2.2h-1.1v2.2h-3.2v1.1h2.6
			c-0.6,1.9-1.7,3.6-3.2,5c0.3,0.2,0.6,0.5,0.8,0.9c1.3-1.4,2.3-3.1,3-4.9v3.6h-1.8v1h1.8v2.1h1.1v-2.1h1.8v-1H753v-3.7
			c0.6,1.8,1.6,3.5,2.9,4.9c0.2-0.3,0.5-0.6,0.9-0.9c-1.4-1.4-2.5-3-3.1-4.9L756.5,2448.4L756.5,2448.4z M769.7,2450.5v2h-2.6v-2
			H769.7z M770.8,2453.5v-4h-4.7v4.8h1v-0.8H770.8z M773.3,2447h-5.2c0.3-0.6,0.6-1.2,0.9-1.8l-1.4-0.2c-0.2,0.7-0.4,1.4-0.7,2.1
			h-3.3v9h1.1v-7.9h7.5v6.5c0,0.2-0.1,0.3-0.3,0.3s-1.1,0-1.8,0c0.2,0.4,0.3,0.7,0.4,1.1c0.8,0,1.5,0,2.3-0.2
			c0.4-0.2,0.6-0.5,0.6-1.2L773.3,2447L773.3,2447z M789.1,2445.6h-1.4c0.1,0.2,0.1,0.5,0.1,0.8s0,1,0.1,1.8c-0.5,0-1,0-1.4,0
			c-0.6,0-1.3,0-1.9-0.1v1.2c0.6,0,1.3,0.1,1.9,0.1c0.5,0,1,0,1.5,0v0.4c0,2.2-0.1,3.4-1.2,4.5c-0.4,0.4-0.8,0.6-1.3,0.8l1.1,0.9
			c2.5-1.5,2.6-3.4,2.6-6.2v-0.5c0.7,0,1.4-0.1,1.9-0.2v-1.2c-0.6,0.1-1.3,0.2-1.9,0.3c0-0.7,0-1.4,0-1.7
			C789,2446.1,789,2445.9,789.1,2445.6z M783,2445.8l-1.4-0.1c0,0.3,0,0.6-0.1,0.9c-0.3,1.6-0.4,3.2-0.4,4.8c0,1.3,0.3,2.6,0.7,3.8
			l1-0.1c0-0.1,0-0.3,0-0.4c0-0.2,0-0.4,0.1-0.6c0.1-0.6,0.5-1.8,0.8-2.8l-0.6-0.4c-0.2,0.5-0.5,1.2-0.6,1.6c-0.3-2-0.1-4,0.4-5.9
			C782.9,2446.5,782.9,2446.1,783,2445.8z"/>
		<g id="長方形_4" transform="translate(697 2487.093)">
			<rect x="-0.8" y="-51.4" class="st0" width="110" height="29.7"/>
			<rect x="-0.3" y="-50.9" class="st1" width="109" height="28.7"/>
		</g>
	</g>
	<g>
		<g id="パス_86" transform="translate(822 2487.093)">
			<path class="st0" d="M-0.9-51.4h110v29.7h-110C-0.9-21.7-0.9-51.4-0.9-51.4z"/>
			<path d="M0.1-50.4v27.7h108v-27.7H0.1 M-0.9-51.4h110v29.7h-110C-0.9-21.7-0.9-51.4-0.9-51.4z"/>
		</g>
		<g>
			<path d="M850.6,2452.7h-1.2v2.1h-1.1v-0.5h-2.6v0.6c0,0.6-0.2,0.9-0.6,1c-0.4,0.1-1,0.2-2,0.2c-0.1-0.3-0.2-0.7-0.4-0.9
				c0.7,0,1.4,0,1.6,0c0.2,0,0.3-0.1,0.3-0.3v-0.6h-3.7v-0.8h3.7v-0.7h-4.8v-0.9h4.8v-0.7h-3.6v-0.8h3.6v-0.7h-3.3v-2.2h3.3v-0.6
				H840v-0.9h4.5v-0.9h1.1v0.9h4.7v0.9h-4.7v0.6h3.5v2.2h-3.5v0.7h3.7v1.5h1.2V2452.7z M844.5,2448.9v-0.7h-2.3v0.7H844.5z
				 M845.6,2448.2v0.7h2.4v-0.7H845.6z M845.6,2451.9h2.6v-0.7h-2.6V2451.9z M848.2,2452.7h-2.6v0.7h2.6V2452.7z"/>
			<path d="M862.2,2453.3c1.1,0.7,2.6,1.4,4.1,1.6c-0.3,0.2-0.6,0.7-0.7,1c-1.6-0.4-3.2-1.2-4.3-2.3v2.4h-1.1v-2.3
				c-1.1,1-2.8,1.7-4.3,2.2c-0.2-0.3-0.5-0.7-0.7-0.9c1.4-0.3,3-0.9,4-1.7h-3.7v-0.9h4.7v-0.7h-3.5v-0.8h3.5v-0.7H856v-0.9h2.5
				c-0.1-0.3-0.3-0.8-0.5-1.1l0.3,0h-2.7v-0.9h1.8c-0.2-0.5-0.5-1.1-0.9-1.6l1-0.3c0.4,0.5,0.8,1.2,1,1.7l-0.6,0.2h1.3v-2.1h1v2.1
				h1.2v-2.1h1.1v2.1h1.3l-0.5-0.1c0.3-0.5,0.7-1.2,0.8-1.8l1.2,0.3c-0.3,0.6-0.7,1.2-1,1.6h1.7v0.9h-2.3c-0.2,0.4-0.5,0.8-0.7,1.1
				h2.5v0.9h-4.2v0.7h3.7v0.8h-3.7v0.7h4.7v0.9H862.2z M859.1,2448.1c0.2,0.3,0.4,0.8,0.5,1.1l-0.3,0.1h2.5c0.2-0.3,0.4-0.8,0.5-1.1
				H859.1z"/>
			<path d="M877.2,2449.8c-0.5,0.4-1.1,0.8-1.7,1.1h4.7v5.1H879v-0.3h-4.5v0.4h-1.1v-4c-0.7,0.3-1.4,0.6-2,0.9
				c-0.1-0.3-0.5-0.7-0.7-0.9c1.7-0.6,3.2-1.3,4.7-2.2H871v-1h4v-1.3H872v-1h2.9v-1.4h1.1v1.4h2.8v0.5c0.5-0.5,0.9-1,1.3-1.5l1,0.5
				c-0.8,1-1.7,2-2.7,2.8h3.1v1H877.2z M879,2451.9h-4.5v1h4.5V2451.9z M879,2454.8v-1.1h-4.5v1.1H879z M876.9,2448.8
				c0.6-0.4,1.1-0.9,1.6-1.3h-2.4v1.3H876.9z"/>
			<path d="M896.8,2454.7c0,0.6-0.2,1-0.6,1.2c-0.5,0.2-1.2,0.2-2.3,0.2c0-0.3-0.2-0.8-0.4-1.1c0.8,0,1.6,0,1.8,0
				c0.2,0,0.3-0.1,0.3-0.3v-6.5h-7.5v7.9h-1.1v-9h3.3c0.3-0.6,0.6-1.4,0.7-2.1l1.4,0.2c-0.3,0.6-0.6,1.3-0.9,1.8h5.2V2454.7z
				 M890.6,2453.6v0.8h-1v-4.8h4.7v4H890.6z M890.6,2450.6v2h2.6v-2H890.6z"/>
			<path d="M904.7,2445.9c-0.1,0.3-0.2,0.6-0.2,0.9c-0.3,1.5-0.7,4.1-0.4,5.8c0.2-0.4,0.4-1.1,0.6-1.6l0.6,0.4
				c-0.3,0.9-0.7,2.1-0.8,2.7c0,0.2-0.1,0.4-0.1,0.5c0,0.1,0,0.3,0,0.4l-1,0.1c-0.3-0.7-0.6-2.3-0.6-3.8c0-1.9,0.3-3.8,0.4-4.7
				c0-0.3,0.1-0.6,0.1-0.9L904.7,2445.9z M912.5,2449.2c-0.5,0.1-1.2,0.1-1.8,0.2v0.4c0,2.8-0.1,4.6-2.5,6.1l-1.1-0.9
				c0.4-0.2,0.9-0.5,1.3-0.8c1.1-1,1.2-2.2,1.2-4.4v-0.4c-0.5,0-1,0-1.4,0c-0.6,0-1.3,0-1.9-0.1v-1.2c0.6,0.1,1.2,0.1,1.9,0.1
				c0.5,0,0.9,0,1.4,0c0-0.7,0-1.4-0.1-1.7c0-0.3-0.1-0.6-0.1-0.7h1.4c0,0.2,0,0.5,0,0.7c0,0.3,0,1,0,1.7c0.7-0.1,1.3-0.1,1.9-0.3
				V2449.2z"/>
		</g>
	</g>
</g>
<g>
	<path d="M16,34.6c4.1,0,7.5-1.2,10.1-3.7c2.6-2.4,4-5.7,4.2-9.8l0-0.3h-4.9l0,0.3c-0.1,2.7-1,4.9-2.7,6.5c-1.7,1.6-3.8,2.5-6.5,2.5
		c-3.1,0-5.6-1.2-7.4-3.6c-1.9-2.4-2.8-5.6-2.8-9.6c0-4.2,0.9-7.5,2.7-9.8c1.8-2.3,4.3-3.4,7.6-3.4c2.4,0,4.5,0.6,6,1.7
		c1.5,1.1,2.5,2.8,2.9,4.9l0,0.2H30l0-0.3c-0.4-3.4-1.8-6.1-4.2-8.1c-2.4-2-5.6-3-9.4-3C11.6-0.8,7.8,0.8,5,3.9
		C2.2,7,0.8,11.2,0.8,16.4c0,5.6,1.4,10.1,4,13.3C7.5,33,11.2,34.6,16,34.6z"/>
	<path d="M45.1,34.4c3.7,0,6.6-1.2,8.7-3.5c2-2.3,3.1-5.5,3.1-9.6c0-4.1-1-7.3-3.1-9.6c-2.1-2.3-5-3.4-8.7-3.4
		c-3.7,0-6.6,1.2-8.7,3.5c-2,2.3-3.1,5.5-3.1,9.6c0,4.1,1,7.3,3.1,9.6C38.4,33.3,41.4,34.4,45.1,34.4z M37.9,21.4
		c0-2.9,0.6-5.1,1.8-6.7c1.2-1.5,3-2.3,5.3-2.3c2.3,0,4,0.8,5.2,2.3c1.2,1.5,1.8,3.8,1.8,6.6c0,2.9-0.6,5.1-1.8,6.7
		c-1.2,1.5-3,2.3-5.2,2.3c-2.3,0-4.1-0.8-5.3-2.3C38.6,26.5,37.9,24.3,37.9,21.4z"/>
	<path d="M64.9,19.2c0-2.1,0.5-3.7,1.6-4.9c1-1.2,2.5-1.7,4.3-1.7c1.5,0,2.6,0.4,3.2,1.2c0.6,0.8,0.9,2.5,0.9,4.8v15.1h4.6V19.2
		c0-2.1,0.5-3.8,1.5-4.9c1-1.1,2.5-1.7,4.3-1.7c1.5,0,2.6,0.4,3.2,1.2c0.6,0.8,0.9,2.5,0.9,4.8v15.1h4.6V18.3c0-1.8-0.1-3.2-0.2-4.1
		c-0.2-0.9-0.4-1.6-0.8-2.3c-0.6-1.1-1.6-2-2.8-2.5c-1.2-0.6-2.6-0.9-4.2-0.9c-1.6,0-3.1,0.3-4.4,0.9c-1.2,0.6-2.3,1.5-3.3,2.6
		c-0.7-1.2-1.6-2.1-2.6-2.6c-1.1-0.6-2.4-0.9-4-0.9c-1.7,0-3.2,0.3-4.4,1c-1,0.6-2,1.4-2.8,2.4V9.1h-4.4v24.6h4.6V19.2z"/>
	<path d="M103.4,19.2c0-2.1,0.5-3.7,1.6-4.9c1-1.2,2.5-1.7,4.3-1.7c1.5,0,2.6,0.4,3.2,1.2c0.6,0.8,0.9,2.5,0.9,4.8v15.1h4.6V19.2
		c0-2.1,0.5-3.8,1.5-4.9c1-1.1,2.5-1.7,4.3-1.7c1.5,0,2.6,0.4,3.2,1.2c0.6,0.8,0.9,2.5,0.9,4.8v15.1h4.6V18.3c0-1.8-0.1-3.2-0.2-4.1
		c-0.2-0.9-0.4-1.6-0.8-2.3c-0.6-1.1-1.6-2-2.8-2.5c-1.2-0.6-2.6-0.9-4.2-0.9c-1.6,0-3.1,0.3-4.4,0.9c-1.2,0.6-2.3,1.5-3.3,2.6
		c-0.7-1.2-1.6-2.1-2.6-2.6c-1.1-0.6-2.4-0.9-4-0.9c-1.7,0-3.2,0.3-4.4,1c-1,0.6-2,1.4-2.8,2.4V9.1h-4.4v24.6h4.6V19.2z"/>
	<path d="M138.4,30.9c0.7,1.1,1.7,1.9,3,2.5c1.3,0.6,2.8,0.9,4.5,0.9c1.8,0,3.4-0.4,4.8-1.1c1.1-0.6,2.1-1.4,2.9-2.5v3h4.4V9.1h-4.6
		v13.2c0,2.6-0.6,4.6-1.7,5.9c-1.1,1.3-2.9,2-5.1,2c-1.7,0-2.9-0.4-3.6-1.3c-0.7-0.9-1.1-2.5-1.1-4.8v-15h-4.6v15.8
		c0,1.7,0.1,3,0.3,3.8C137.7,29.6,138,30.3,138.4,30.9z"/>
	<path d="M167.2,19.7c0-2.3,0.6-4,1.8-5.3c1.2-1.2,2.9-1.8,5.1-1.8c1.7,0,2.9,0.4,3.5,1.3c0.7,0.9,1,2.4,1,4.7v15.1h4.6V17.8
		c0-1.7-0.1-3-0.3-3.8c-0.2-0.8-0.5-1.5-0.8-2.1c-0.7-1.1-1.7-2-3-2.6c-1.3-0.6-2.8-0.8-4.7-0.8c-1.7,0-3.2,0.4-4.5,1
		c-1.1,0.6-2.1,1.4-2.9,2.5V9.1h-4.4v24.6h4.6V19.7z"/>
	<rect x="188.7" y="9.1" width="4.6" height="24.6"/>
	<rect x="188.7" y="0.1" width="4.6" height="5.1"/>
	<path d="M201.5,28.7c0,1.9,0.4,3.3,1.2,4.1c0.8,0.8,2.2,1.2,4.2,1.2c0.4,0,0.9,0,1.5-0.1c0.5-0.1,1.1-0.2,1.8-0.3l0.2,0v-3.9
		l-0.3,0c-0.5,0-1,0.1-1.3,0.1c-0.3,0-0.6,0-0.9,0c-0.7,0-1.2-0.1-1.5-0.4c-0.2-0.2-0.4-0.7-0.4-2V12.8h4.3V9.1h-4.3V2.4h-4.6v6.7
		h-3.6v3.7h3.6V28.7z"/>
	<path d="M220.1,37.5c-0.2,0.6-0.6,1.1-1,1.4c-0.4,0.3-1,0.4-1.7,0.4c-0.4,0-0.8,0-1.1-0.1c-0.4-0.1-0.8-0.1-1.2-0.3l-0.3-0.1v4.4
		l0.2,0.1c0.4,0.1,0.8,0.2,1.2,0.3c0.4,0.1,0.8,0.1,1.2,0.1c1.9,0,3.4-0.4,4.4-1.3c1-0.8,2-2.6,3-5.3L235,9.1h-5.1L223.4,28L217,9.3
		L217,9.1h-5.1l9.2,25.7L220.1,37.5z"/>
</g>
</svg>
