<?xml version="1.0" encoding="UTF-8"?><svg xmlns="http://www.w3.org/2000/svg" width="259.34" height="293" xmlns:xlink="http://www.w3.org/1999/xlink" viewBox="0 0 259.34 293"><defs><style>.cls-1,.cls-2{fill:none;}.cls-3{fill:#f7f7f7;}.cls-4{fill:#00a73c;}.cls-5{fill:#006ebb;}.cls-6{fill:#006fbc;}.cls-7{fill:#eeeeef;}.cls-8{fill:#e2e1e1;}.cls-9{fill:#fff;}.cls-10{fill:#edd0b3;}.cls-11{fill:#925c24;}.cls-12{fill:#985d1b;}.cls-13{fill:#d14f28;}.cls-14{fill:#d1d1d0;}.cls-15{fill:#dadada;}.cls-16{fill:#e27d37;}.cls-17{fill:#e15e2d;}.cls-18{fill:#24140d;}.cls-19{fill:#231815;}.cls-20{fill:#1b9e3c;}.cls-21{fill:#534d46;}.cls-22{fill:#9e9e9f;mix-blend-mode:multiply;}.cls-23{clip-path:url(#clippath-1);}.cls-24{clip-path:url(#clippath-4);}.cls-25{clip-path:url(#clippath-3);}.cls-26{clip-path:url(#clippath-2);}.cls-27{clip-path:url(#clippath-5);}.cls-2{stroke:#d3d3d2;stroke-miterlimit:10;stroke-width:.92px;}.cls-28{isolation:isolate;}</style><clipPath id="clippath-1"><path class="cls-1" d="M167.21,152.48h51.5s1.52,41.89,2.18,61.88c.66,19.99,.66,58.48,.66,58.48h-19.08s-4.16-34.57-5.55-49.28c-1.09-11.6-3.12-27.28-3.93-33.4-.05-.38-.59-.37-.63,0-.67,6.05-2.37,21.42-3.63,32.94-1.6,14.66-5.27,49.76-5.27,49.76l-18.7-.55s-.51-32.45-.1-57.4c.38-22.88,2.55-62.43,2.55-62.43Z"/></clipPath><clipPath id="clippath-2"><path class="cls-1" d="M54.01,0c-15.62,0-17.55,14.25-17.55,21.16,0,0,2.14,1.08,5.99,1.73,3.85,.65,11.56,1.51,11.56,1.51,0,0,7.7-.86,11.56-1.51,3.85-.65,5.99-1.73,5.99-1.73,0-6.91-1.93-21.16-17.55-21.16Z"/></clipPath><clipPath id="clippath-3"><path class="cls-1" d="M227.66,145.72c-.05-3.7,.18-19.75,.54-31.74,0,0-5.7-14.88-6.7-18.4-.29-.6-4.7-8.76-3.32-12.13,1.79-4.38,5.67-20.57,9.23-20.15,2.6,.31,5.17,4.71,8.33,11.07,2.59,5.22,6.93,20.68,6.93,20.68,1.77,4.88,3.31,15.33,3.97,17.89,.41,1.61-.1,4.38-.73,8.7-.76,5.18-2.06,23.06-4.92,25.47l-5.96-.67c-.77-.16-7.34,.07-7.35-.71Z"/></clipPath><clipPath id="clippath-4"><path class="cls-1" d="M160.11,142.26c.1-3.7-2.26-16.63-2.45-28.62,0,0,5.89-14.79,6.95-18.3,.3-.59,4.86-8.69,3.54-12.07-1.72-4.41-5.36-20.66-8.92-20.29-2.61,.27-5.24,4.63-8.5,10.94-2.67,5.18-7.24,20.57-7.24,20.57-1.84,4.85-3.55,15.28-4.24,17.83-.44,1.61,.04,4.38,.6,8.71,.67,5.1,4.67,22.68,7.49,25.13l5.87-1.31c.77-.14,6.88-1.8,6.9-2.58Z"/></clipPath><clipPath id="clippath-5"><path class="cls-1" d="M165.01,157.77c.13-4.03-1.73-59.43-.41-62.43,1.97-4.14,1.38-5.31,.06-11.49-1.32-6.18-7.69-18.91-8.07-19.34-.38-.43,3.93-2.75,9.39-5.2,5.47-2.45,10.06-5.79,14.73-6.66,1.53,3.15,11.33,18.3,12.37,20.57,.05,.12-.08,.02,0,0,.99-.3,11.99-18.93,12.65-21.06,4.67,.87,8.82,4.7,14.29,7.15,5.47,2.45,9.77,4.78,9.39,5.2-.38,.43-6.57,14.12-7.89,20.3-1.32,6.18-1.69,5.45-.61,9.91,.74,3.2,.02,59.02,.15,63.05h-56.06Z"/></clipPath></defs><g class="cls-28"><g id="_レイヤー_2"><g id="_レイヤー_1-2"><g><path class="cls-10" d="M95.51,148.77c.12-2.98,3.97-13.67,5.88-20.38-4.08-1.66-8.37-2.33-12.72-2.83l-.33,2.54c.32,13.03-.51,19.46-.52,19.56-1.41,3.16-2.7,3.36-3.6,8.9-.93,5.72,.37,5.73,1.2,5.62,.83-.11,1.24-5.14,2.53-6.24,1.28-1.1,2.24,.96,1.66,3.54-.57,2.58-.79,5.6-3.92,5.1-3.35-.53-3.37,1.07-2.87,1.4,.79,.53,4.63,1.12,5.71,1.08,1.06-.04,5.05-2.54,6.17-4.2,1.12-1.67,1.04-9.74,.79-14.09h.03Z"/><path class="cls-16" d="M86.25,142.56c-.05-3.7,2.51-16.59,2.88-28.58,0,0-5.7-12.53-6.7-16.05-.29-.6-4.7-11.11-3.32-14.48,1.79-4.38,5.67-20.57,9.23-20.15,2.6,.31,5.17,4.71,8.33,11.07,2.59,5.22,6.93,20.68,6.93,20.68,1.77,4.88,3.31,15.33,3.97,17.89,.41,1.61-.1,4.38-.73,8.7-.76,5.18-5.01,22.6-7.87,25.01l-5.85-1.4c-.77-.16-6.85-1.9-6.86-2.68Z"/><path class="cls-13" d="M97.98,150.35c.47-.86,.96-3.05,.98-3.71,.02-.66-11.25-2.77-12.71-4.08,0,0-1.59,4.28-1.02,4.48,.57,.2,12.36,4.04,12.75,3.31Z"/><path class="cls-10" d="M54.19,96.05c2.63-8.82,20.19-37.45,19.65-38.62-.56-1.21,1.71-.09-5.08-3.79-6.79-3.7-5.89-10.31-5.95-12.2h-17.5c-.06,1.88,.82,7.79-5.22,12.6-6.05,4.82-4.04,5.75-4.6,6.97-.54,1.17,15.81,26.22,18.44,35.04v.93c.03-.15,.08-.32,.12-.49,.04,.17,.09,.34,.12,.49v-.93Z"/><path class="cls-18" d="M66.16,55.92c-3.68,6.09-20.51,6.09-24.19,0,0,0-5.16,3.94-9.26,5.58,0,0,1.49,12.79,21.36,12.79s21.36-12.79,21.36-12.79c-4.1-1.63-9.26-5.58-9.26-5.58Z"/><path class="cls-18" d="M28.15,262.23c.11,14.09-2.58,18.92-8.48,21.22-4.47,1.74-6.9,2.16-6.53,5.93,.34,3.54,6.85,4.16,12.66,3.24,4.27-.68,8.03-2.71,9.05-2.4,.84,.63,.94,1.05,2.93,.94,1.99-.1,4.18-.42,4.5-1.15,.31-.73,.73-7.32,0-9.52-.73-2.2-.94-18.26-.94-18.26h-13.18Z"/><path class="cls-18" d="M80.57,262.15c.29,13.35,3.38,18.9,8.48,21.3,4.34,2.05,6.9,2.16,6.53,5.93-.34,3.54-6.85,4.16-12.66,3.24-4.27-.68-8.03-2.71-9.05-2.4-.84,.63-.94,1.05-2.93,.94-1.99-.1-4.18-.42-4.5-1.15-.31-.73-.73-7.32,0-9.52,.73-2.2,.94-18.34,.94-18.34h13.18Z"/><path class="cls-10" d="M20.92,165.44c-3.14,.41-3.28-2.61-3.78-5.21-.5-2.59,.51-4.63,1.76-3.49,1.25,1.14,1.53,6.17,2.36,6.31,.82,.13,2.13,.16,1.35-5.58-.75-5.56-2.03-5.8-3.36-8.99-.01-.1-.66-6.55,.01-19.57l-.26-2.54c-4.36,.38-8.67,.94-12.8,2.48,1.72,6.76,5.27,17.56,5.32,20.54h.03c-.37,4.34-.67,12.41,.41,14.1,1.08,1.7,5,4.3,6.06,4.37,1.08,.07,4.93-.42,5.74-.93,.5-.32,.53-1.92-2.83-1.48Z"/><path class="cls-16" d="M21.03,142.26c.1-3.7-2.26-16.63-2.45-28.62,0,0,5.89-12.44,6.95-15.95,.3-.59,4.86-11.04,3.54-14.42-1.72-4.41-5.36-20.66-8.92-20.29-2.61,.27-5.24,4.63-8.5,10.94-2.67,5.18-7.24,20.57-7.24,20.57-1.84,4.85-3.55,15.28-4.24,17.83-.44,1.61,.04,4.38,.6,8.71,.67,5.1,4.67,22.68,7.49,25.13l5.87-1.31c.77-.14,6.88-1.8,6.9-2.58Z"/><path class="cls-16" d="M90.34,64.51c.38-.43-3.93-2.75-9.39-5.2-5.47-2.45-9.62-6.29-14.29-7.15-.66,2.13-11.66,20.75-12.65,21.06-.08,.02,.05,.12,0,0-1.04-2.27-10.84-17.41-12.37-20.57-4.67,.87-9.26,4.21-14.73,6.66-5.47,2.45-9.77,4.78-9.39,5.2,.38,.43,6.57,14.12,7.89,20.3,1.32,6.18-6.1,10.57,.12,12.88-1.32,3.01,1.78,25.63,3.49,33.72,.13,.59,.24,1.77,.29,3.11-.03,.91-.11,1.79-.24,2.5-.46,2.49-9.37,59.41-9.56,88.94-.19,29.54,2.42,37.83,7.53,37.83h15.45c3.16,0,7.05-10.41,7.68-32.01,.48-16.41,1.4-39.9,3.75-53.98,2.63,15.7,4.41,36.63,5.27,54.69,.95,19.95,5.01,31.29,6.82,31.29h16.02c3.11,0,7.33-6.97,5.39-36.45-2.53-38.38-8.19-87.83-8.65-90.32-.13-.71-.2-1.59-.24-2.5,.05-1.34,.16-2.51,.29-3.11,1.71-8.1,3.53-30.41,2.79-33.61,2.22-3.35-.49-6.81,.83-12.99,1.32-6.18,7.51-19.87,7.89-20.3Z"/><rect class="cls-18" x="28.82" y="132.27" width="50.22" height="7.24"/><path class="cls-13" d="M9.07,149.47c-.43-.88-.82-3.09-.81-3.75,0-.66,11.36-2.25,12.88-3.49,0,0,1.39,4.35,.81,4.52-.58,.17-12.53,3.46-12.89,2.72Z"/><path class="cls-13" d="M64.2,49.15c10.21,3.78,.67,10.97-.23,11.23-.9,.25-.12,1.03-1.27,2.16-5.45,5.36-7.63,10.09-8.64,10.67,0,0,2.03-7.4,6.81-13.49,2.46-2.42,5.42-6.04,3.78-8.91l-.45-1.67Z"/><path class="cls-13" d="M44.13,49.29c-10.21,3.78-.93,10.84-.03,11.09,.9,.25,.12,1.03,1.27,2.16,5.45,5.36,7.63,10.09,8.64,10.67,0,0-2.03-7.4-6.81-13.49-2.46-2.42-5.23-6.04-3.59-8.91l.52-1.53Z"/><path class="cls-10" d="M63.34,44.09c-.24,.23-.49,.46-.74,.69-.79,.69-1.63,1.32-2.53,1.85-.77,.45-1.59,.83-2.44,1.1-.77,.25-1.57,.41-2.38,.49-1,.1-2.04,.07-3.03-.09-.82-.13-1.62-.35-2.4-.65-.87-.34-1.69-.78-2.46-1.3-.92-.61-1.77-1.33-2.57-2.1-3.38-3.27-3.36-11.53-4.17-10.94-1.87,1.25-3.06-2.48-3.3-4.7-.23-2.22,.78-3.15,1.71-2.22,.93,.93,.95-.11,1.21-1.32,.08-.39,.19-.78,.3-1.17,.17-.59,.37-1.17,.6-1.74,.28-.71,.59-1.41,.95-2.09,.4-.77,.85-1.51,1.35-2.22,.54-.76,1.15-1.47,1.82-2.12,.71-.69,1.49-1.3,2.34-1.81,.91-.55,1.89-.97,2.92-1.27,1.2-.34,2.42-.48,3.66-.48,1.2,0,2.39,.17,3.54,.51,1.02,.3,1.99,.73,2.9,1.28,.84,.51,1.62,1.12,2.32,1.81,.67,.65,1.27,1.36,1.8,2.12,.5,.7,.95,1.45,1.34,2.21,.35,.68,.66,1.37,.94,2.08,.22,.57,.42,1.15,.59,1.73,.11,.38,.21,.76,.3,1.15,.26,1.22,.27,2.26,1.21,1.32,.93-.93,1.95,0,1.71,2.22-.23,2.22-1.43,5.95-3.3,4.7-.82-.58-.79,7.67-4.17,10.94Z"/><path class="cls-21" d="M62.87,6.2c-6.8-3.3-13.05-2.22-16.16-1.17-2.26,.77-9.53,4.66-9.06,16.27,.12,2.84,.73,4.68,.73,4.68,0,0,1.56,.89,1.56,3.04h1.43s.17-3,.67-4c.5-1,4.28-3.37,3.61-2.2-.67,1.17-.74,1.5,1.26,.16,2-1.33,4.29-3.14,3.79-1.98-.5,1.17,2.21-.7,3.47-1.73,2.1-1.72,2.96-1.79,2.25-.6-.78,1.29,3.16-1.82,5.32-2.15,2.17-.33,.78,3.17,2.78,5.83,2,2.67,1.65,5.85,2.53,6.81h1.14c.05-.29,.45-2.27,1.34-3.03,1.18-1.02,1.91-9.54,.06-13.66-1.83-4.07-5.69-5.77-6.73-6.27Z"/><path class="cls-17" d="M28.21,77.17c.02,1.96-.27,3.46,.81,3.87,3.11,1.17,6.71,2.21,8.52,2.21s7.92-1.88,9.12-3.31c.53-.63,.45-3.68-.38-3.76-1.67-.15-18.08,.16-18.07,.99Z"/><path class="cls-17" d="M78.83,77.17c-.02,1.96,.27,3.46-.81,3.87-3.11,1.17-6.71,2.21-8.52,2.21s-7.92-1.88-9.12-3.31c-.53-.63-.45-3.68,.38-3.76,1.67-.15,18.08,.16,18.07,.99Z"/><g><path class="cls-3" d="M54.01,0c-15.62,0-17.55,14.25-17.55,21.16,0,0,2.14,1.08,5.99,1.73,3.85,.65,11.56,1.51,11.56,1.51,0,0,7.7-.86,11.56-1.51,3.85-.65,5.99-1.73,5.99-1.73,0-6.91-1.93-21.16-17.55-21.16Z"/><path class="cls-8" d="M64.59,22.64c-2.3,.52-6.86,.99-9.17,1.21-.94,.09-1.87,.09-2.81,0-2.31-.22-6.87-.69-9.17-1.21-7.28-1.63-7.96-2.43-7.96-.94s10.5,4.96,18.53,4.96,18.53-3.48,18.53-4.96-.68-.69-7.96,.94Z"/></g></g><path class="cls-15" d="M229.87,173.27c3.22,.15,3.12-2.87,3.43-5.49,.31-2.63-.87-4.57-2.05-3.34-1.18,1.23-1.08,6.28-1.9,6.48-.82,.2-1.68,.34-1.8-5.46-.16-7.41,1.57-8.1,2.71-9.23,0-.1-2.58-7.39-.58-6.95,0,0,5-.31,9.3,.89,1,.52-1.01,3.37-.82,6.34h-.03c.71,4.3,2.54,9.07,.71,12.11-1.04,1.73-4.78,6.68-5.84,6.83-1.09,.15-5.03-.03-5.88-.46-.53-.27-.68-1.87,2.76-1.7Z"/><path class="cls-18" d="M168.18,262.23c.11,14.09-2.58,18.92-8.48,21.22-4.47,1.74-6.9,2.16-6.53,5.93,.34,3.54,6.85,4.16,12.66,3.24,4.27-.68,8.03-2.71,9.05-2.4,.84,.63,.94,1.05,2.93,.94,1.99-.1,4.18-.42,4.5-1.15,.31-.73,.73-7.32,0-9.52-.73-2.2-.94-18.26-.94-18.26h-13.18Z"/><path class="cls-18" d="M218.68,262.15c.29,13.35,3.38,18.9,8.48,21.3,4.34,2.05,6.9,2.16,6.53,5.93-.34,3.54-6.85,4.16-12.66,3.24-4.27-.68-8.03-2.71-9.05-2.4-.84,.63-.94,1.05-2.93,.94-1.99-.1-4.18-.42-4.5-1.15-.31-.73-.73-7.32,0-9.52,.73-2.2,.94-18.34,.94-18.34h13.18Z"/><path class="cls-5" d="M167.21,152.48h51.5s1.52,41.89,2.18,61.88c.66,19.99,.66,58.48,.66,58.48h-19.08s-4.16-34.57-5.55-49.28c-1.09-11.6-3.12-27.28-3.93-33.4-.05-.38-.59-.37-.63,0-.67,6.05-2.37,21.42-3.63,32.94-1.6,14.66-5.27,49.76-5.27,49.76l-18.7-.55s-.51-32.45-.1-57.4c.38-22.88,2.55-62.43,2.55-62.43Z"/><g class="cls-23"><rect class="cls-20" x="192.72" y="149.87" width="30.95" height="124.62"/><polygon class="cls-19" points="219.35 194.84 196.31 197.45 199.38 227.45 222.16 225.43 222.69 194.13 219.35 194.84"/><polygon class="cls-19" points="165.21 194.84 189.29 197.2 186.04 227.16 162.4 225.43 161.87 194.13 165.21 194.84"/></g><rect class="cls-2" x="48.56" y="131.73" width="12.44" height="7.9"/><rect class="cls-2" x="70.24" y="131.73" width="2.53" height="7.9"/><g class="cls-26"><g><path class="cls-14" d="M65.42,10.51h-22.83c-.86,0-1.55,.7-1.55,1.55v4.85c0,2.32,1.88,4.19,4.19,4.19h5.4c.62-.13,1.25-.39,1.67-.88,.7-.81,1.04-1.38,1.76-1.38s1.05,.57,1.75,1.38c.42,.49,1.06,.75,1.67,.88h5.29c2.32,0,4.19-1.88,4.19-4.19v-4.85c0-.86-.7-1.55-1.55-1.55Z"/><rect class="cls-14" x="36.48" y="13.62" width="5.6" height="2.18"/><rect class="cls-14" x="66.08" y="13.62" width="5.6" height="2.18"/></g></g><path class="cls-15" d="M161.39,170.54c-3.18,.52-3.42-2.54-4.02-5.16-.6-2.62,.36-4.72,1.67-3.61s1.77,6.22,2.61,6.33c.84,.11,2.17,.09,1.18-5.72-.95-5.62-2.26-5.82-3.72-9.02-.01-.1,1.74-7.76-.19-7.09,0,0-5,.25-9.14,1.96-.93,.64,1.37,3.29,1.52,6.31h.03c-.23,4.42-.26,12.62,.89,14.31,1.15,1.69,5.23,4.2,6.3,4.24,1.1,.03,4.99-.6,5.8-1.14,.5-.34,.47-1.97-2.93-1.41Z"/><g><path class="cls-20" d="M227.66,145.72c-.05-3.7,.18-19.75,.54-31.74,0,0-5.7-14.88-6.7-18.4-.29-.6-4.7-8.76-3.32-12.13,1.79-4.38,5.67-20.57,9.23-20.15,2.6,.31,5.17,4.71,8.33,11.07,2.59,5.22,6.93,20.68,6.93,20.68,1.77,4.88,3.31,15.33,3.97,17.89,.41,1.61-.1,4.38-.73,8.7-.76,5.18-2.06,23.06-4.92,25.47l-6.11-.03c-.77-.16-7.19-.58-7.2-1.36Z"/><g class="cls-25"><path class="cls-18" d="M221.75,76.86s12.8,27.95,14.24,33.72-2.1,36.34-2.1,36.34l11.36,1.98,10.58-49.5-14.06-26.87-9.02-13.52-5.41-1.08-5.59,18.93Z"/></g><path class="cls-11" d="M241.07,150.59c.29-.94,.32-3.18,.2-3.83-.11-.65-10.92-.4-13.62-1.04,0,0-.34,4.14,.26,4.22,.6,.08,12.92,1.44,13.16,.65Z"/><path class="cls-10" d="M193.26,96.05c2.63-8.82,20.19-37.45,19.65-38.62-.56-1.21,1.71-.09-5.08-3.79-6.79-3.7-5.89-10.31-5.95-12.2h-17.5c-.06,1.88,.82,7.79-5.22,12.6-6.05,4.82-4.04,5.75-4.6,6.97-.54,1.17,15.81,26.22,18.44,35.04v.93c.03-.15,.08-.32,.12-.49,.04,.17,.09,.34,.12,.49v-.93Z"/><path class="cls-9" d="M205.23,55.92c-3.68,6.09-20.51,6.09-24.19,0,0,0-5.16,3.94-9.26,5.58,0,0,1.49,12.79,21.36,12.79s21.36-12.79,21.36-12.79c-4.1-1.63-9.26-5.58-9.26-5.58Z"/><path class="cls-5" d="M160.11,142.26c.1-3.7-2.26-16.63-2.45-28.62,0,0,5.89-14.79,6.95-18.3,.3-.59,4.86-8.69,3.54-12.07-1.72-4.41-5.36-20.66-8.92-20.29-2.61,.27-5.24,4.63-8.5,10.94-2.67,5.18-7.24,20.57-7.24,20.57-1.84,4.85-3.55,15.28-4.24,17.83-.44,1.61,.04,4.38,.6,8.71,.67,5.1,4.67,22.68,7.49,25.13l5.87-1.31c.77-.14,6.88-1.8,6.9-2.58Z"/><g class="cls-24"><path class="cls-18" d="M163.15,76.86s-12.8,27.95-14.24,33.72c-1.44,5.77,5.05,35.88,5.05,35.88l-11.36,1.98-13.52-49.04,14.06-26.87,9.02-13.52,5.41-1.08,5.59,18.93Z"/></g><path class="cls-5" d="M165.01,157.77c.13-4.03-1.73-59.43-.41-62.43,1.97-4.14,1.38-5.31,.06-11.49-1.32-6.18-7.69-18.91-8.07-19.34-.38-.43,3.93-2.75,9.39-5.2,5.47-2.45,10.06-5.79,14.73-6.66,1.53,3.15,11.33,18.3,12.37,20.57,.05,.12-.08,.02,0,0,.99-.3,11.99-18.93,12.65-21.06,4.67,.87,8.82,4.7,14.29,7.15,5.47,2.45,9.77,4.78,9.39,5.2-.38,.43-6.57,14.12-7.89,20.3-1.32,6.18-1.69,5.45-.61,9.91,.74,3.2,.02,59.02,.15,63.05h-56.06Z"/><path class="cls-20" d="M148.14,149.47c-.43-.88-.82-3.09-.81-3.75,0-.66,11.36-2.25,12.88-3.49,0,0,1.39,4.35,.81,4.52-.58,.17-12.53,3.46-12.89,2.72Z"/><path class="cls-10" d="M202.41,44.09c-.24,.23-.49,.46-.74,.69-.79,.69-1.63,1.32-2.53,1.85-.77,.45-1.59,.83-2.44,1.1-.77,.25-1.57,.41-2.38,.49-1,.1-2.04,.07-3.03-.09-.82-.13-1.62-.35-2.4-.65-.87-.34-1.69-.78-2.46-1.3-.92-.61-1.77-1.33-2.57-2.1-3.38-3.27-3.36-11.53-4.17-10.94-1.87,1.25-3.06-2.48-3.3-4.7-.23-2.22,.78-3.15,1.71-2.22,.93,.93,.95-.11,1.21-1.32,.08-.39,.19-.78,.3-1.17,.17-.59,.37-1.17,.6-1.74,.28-.71,.59-1.41,.95-2.09,.4-.77,.85-1.51,1.35-2.22,.54-.76,1.15-1.47,1.82-2.12,.71-.69,1.49-1.3,2.34-1.81,.91-.55,1.89-.97,2.92-1.27,1.2-.34,2.42-.48,3.66-.48,1.2,0,2.39,.17,3.54,.51,1.02,.3,1.99,.73,2.9,1.28,.84,.51,1.62,1.12,2.32,1.81,.67,.65,1.27,1.36,1.8,2.12,.5,.7,.95,1.45,1.34,2.21,.35,.68,.66,1.37,.94,2.08,.22,.57,.42,1.15,.59,1.73,.11,.38,.21,.76,.3,1.15,.26,1.22,.27,2.26,1.21,1.32,.93-.93,1.95,0,1.71,2.22-.23,2.22-1.43,5.95-3.3,4.7-.82-.58-.79,7.67-4.17,10.94Z"/><path class="cls-19" d="M201.95,6.2c-6.8-3.3-13.05-2.22-16.16-1.17-2.26,.77-9.53,4.66-9.06,16.27,.12,2.84,.73,4.68,.73,4.68,0,0,1.56,.89,1.56,3.04h1.43s.17-3,.67-4c.5-1,4.28-3.37,3.61-2.2-.67,1.17-.74,1.5,1.26,.16,2-1.33,4.29-3.14,3.79-1.98-.5,1.17,2.21-.7,3.47-1.73,2.1-1.72,2.96-1.79,2.25-.6-.78,1.29,3.16-1.82,5.32-2.15,2.17-.33,.78,3.17,2.78,5.83,2,2.67,1.65,5.85,2.53,6.81h1.14c.05-.29,.45-2.27,1.34-3.03,1.18-1.02,1.91-9.54,.06-13.66-1.83-4.07-5.69-5.77-6.73-6.27Z"/></g><g><path class="cls-12" d="M209.59,16.72c-1.11,.6-3.65,1.74-5.46,1.74-2.79,0-5.5-.44-11-.44s-8.2,.44-11,.44c-1.78,0-3.96-.64-5.07-1.22,0,0,.14,1.66,.73,2.69,1.76,3.11,8.16,5.38,15.37,5.38s13.01-2.62,14.97-4.58c1.96-1.96,1.46-4.03,1.46-4.03Z"/><path class="cls-4" d="M209.98,15.86c-.13-.72-.78-4.74-2.66-8.53-1.35-2.73-3.59-4.19-5.21-4.84-3.83-1.52-7.11-1.82-8.97-1.84-1.86,.03-5.14,.32-8.97,1.84-1.62,.64-3.86,2.11-5.21,4.84-1.87,3.78-2.53,7.8-2.66,8.53-.12,.66,.13,.96,.74,1.38,.42,.29,1,.54,1.67,.74,0-.01,0-.02,0-.02,.06-.7,1.35-7.16,2.46-9.89,.86-2.11,2.21-3.9,5.76-5.36,3.35-1.38,6.15-1.41,6.15-1.41,0,0,2.8,.03,6.15,1.41,3.55,1.46,4.9,3.25,5.76,5.36,1.11,2.72,2.41,9.19,2.46,9.89,0,0,.02,.01,.05,.03,.69-.2,1.28-.46,1.71-.76,.61-.43,.86-.72,.74-1.38Z"/><path class="cls-6" d="M207.53,18.01s-.05-.04-.05-.04c-.06-.7-1.35-7.16-2.46-9.89-.86-2.11-2.21-3.9-5.76-5.36-3.35-1.38-6.15-1.41-6.15-1.41,0,0-2.79,.03-6.15,1.41-3.55,1.46-4.9,3.25-5.76,5.36-1.11,2.72-2.41,9.19-2.46,9.89,0,0,0,0,0,.02,1,.3,2.2,.47,3.43,.47,2.79,0,5.5-.44,11-.44s8.2,.44,11,.44c1.2,0,2.39-.17,3.38-.46Z"/><path class="cls-4" d="M193.22,.09c-.94,0-1.58,.29-1.68,.79-.08,.44,.02,.58,.4,.74,.28,.12,.79,.18,1.27,.18s1-.07,1.27-.18c.38-.16,.49-.3,.4-.74-.1-.5-.74-.79-1.67-.79Z"/><g><path class="cls-9" d="M190.05,13.24h0s0,.03,0,.03h0s0,.03,0,.03c-.02,.06,0,.04,0,.07h0s0,.03,0,.03v.02s0,.01,0,.01h0s0,.03,0,.03v.02s0,.01,0,.01h0s0,.03,0,.03h0s0,.03,0,.03v.02s0,.01,0,.01h0s0,.03,0,.03h0s0,.03,0,.03c0,.03,0,.05,.01,.07h0s0,.03,0,.03v.02s0,.01,0,.01h0s0,.03,0,.03c.02,.05,0,.02,.02,.07v.02s0,.01,0,.01h0s0,.03,0,.03h0s0,.03,0,.03h0s0,.03,0,.03h0s.01,.03,.01,.03h0v.03h0s0,.03,0,.03h0s.01,.02,.01,.02h0s0,.03,0,.03c.02,.02,.03,.05,.05,.07h0s.01,.02,.01,.02h0s0,.03,0,.03h.01s0,.02,0,.02h0s0,.02,0,.02h.01s0,.02,0,.02h.02s0,.01,0,.01h.01s.01,.02,.01,.02h0s.01,.02,.01,.02h.01s.02,0,.02,0h.01s.01,.02,.01,.02h.01s.01,.02,.01,.02h.01s.01,0,.01,0h.01s.01,.01,.01,.01h.01s.01,.01,.01,.01h.01s.02,0,.02,0h.01s.01,0,.01,0h.01s.02,0,.02,0h.01s.01,.02,.01,.02h.02s.01,0,.01,0h.01s.01,0,.01,0h.01s.01,0,.01,0h.01s.01,0,.01,0h0s0-.02,0-.02v-.02s0-.01,0-.01h0s0-.03,0-.03h0s0-.03,0-.03h0s0-.03,0-.03h0s0-.03,0-.03h0s0-.03,0-.03h0s0-.03,0-.03h0s0-.03,0-.03h0s0-.03,0-.03h0s0-.03,0-.03h0s0-.03,0-.03h0s0-.03,0-.03v-.02s0-.01,0-.01v-.02s-.01-.01-.01-.01h-.01s0-.02,0-.02h-.01s0-.02,0-.02h-.02s0-.02,0-.02h0s0-.02,0-.02h0s-.01-.02-.01-.02v-.02h-.01s0-.02,0-.02h-.01s0-.03,0-.03h0s0-.02,0-.02v-.02h0s0-.03,0-.03h0v-.03h0s0-.03,0-.03v-.02s0-.01,0-.01h0v-.03h0s0-.03,0-.03h0s0-.03,0-.03h0s0-.03,0-.03h0s0-.03,0-.03c0-.04,0-.08,0-.12h0s0-.03,0-.03h0s0-.03,0-.03h0s0-.03,0-.03h0s0-.03,0-.03h0s0-.03,0-.03h0v-.03h0s0-.03,0-.03h0s0-.03,0-.03h0s0-.03,0-.03h0s0-.03,0-.03c0-.03,0-.07,0-.1h0v-.03s0-.07,0-.1h0s0-.03,0-.03h0s0-.03,0-.03v-.02s0-.01,0-.01h0s0-.03,0-.03h0s0-.03,0-.03h0s0-.03,0-.03h0s0-.03,0-.03h0s0-.03,0-.03h0s0-.03,0-.03h0s.01-.03,.01-.03v-.02h0s.02-.02,.02-.02v-.02s.01,0,.01,0h0s0-.02,0-.02h0s0-.02,0-.02h0s.02-.01,.02-.01v-.02s.02,0,.02,0h0s0-.03,0-.03h0s0-.03,0-.03h0s0-.03,0-.03h0s0-.03,0-.03h0s0-.03,0-.03h0s0-.03,0-.03h0s0-.03,0-.03h0s0-.03,0-.03h0s0-.03,0-.03h0s0-.03,0-.03h0s0-.03,0-.03h0s0-.03,0-.03h0c-.02-.06,.02-.07-.03-.1h-.01s-.01-.01-.01-.01h-.01s-.02,0-.02,0h-.01s-.02,0-.02,0h-.01s-.01,0-.01,0h-.01s-.01,0-.01,0h-.01s-.01,.01-.01,.01h-.01s-.01,0-.01,0h-.02s-.01,0-.01,0h-.01s-.01,.01-.01,.01h-.03s-.02,.01-.02,.01h0s-.01,.02-.01,.02h-.01s-.02,0-.02,0h0s-.02,.02-.02,.02h0s-.02,.02-.02,.02h0s-.01,.02-.01,.02h-.01s0,.02,0,.02h-.01s0,.02,0,.02h-.01s0,.02,0,.02h-.01s-.01,.02-.01,.02h0s-.02,.02-.02,.02h0s-.01,.02-.01,.02h0s0,.03,0,.03h-.01s0,.02,0,.02h0s0,.03,0,.03h0c-.03,.06-.04,.07-.06,.11h0s0,.03,0,.03h-.01v.03h0s0,.03,0,.03h0s0,.03,0,.03h0s0,.03,0,.03v.02s0,.01,0,.01h0s0,.03,0,.03h-.01s0,.03,0,.03h0c-.04,.09,0,.07-.02,.1h0s0,.03,0,.03h0s0,.03,0,.03h0s0,.03,0,.03h0s0,.03,0,.03v.02s0,.01,0,.01h0s0,.03,0,.03c0,.03,0,.06,0,.09v.02s0,.01,0,.01h0s0,.03,0,.03h0s0,.03,0,.03h0s0,.03,0,.03h0s0,.03,0,.03h0s0,.03,0,.03"/><path class="cls-9" d="M194.85,12.07h-.01s-.01,0-.01,0h-.01s0,.02,0,.02h-.01s0,.02,0,.02v.02s0,.01,0,.01v.02h0s0,.03,0,.03h0s0,.03,0,.03h0s0,.03,0,.03h0s0,.03,0,.03h0s0,.03,0,.03h-.01s0,.03,0,.03h0s0,.03,0,.03h-.01s0,.03,0,.03h0s0,.03,0,.03h0s0,.03,0,.03h0s0,.03,0,.03h0s0,.03,0,.03h0s0,.03,0,.03h0s0,.03,0,.03h0s0,.03,0,.03h0s0,.03,0,.03h-.01s0,.03,0,.03v.02s0,.01,0,.01v.02s0,.01,0,.01h0s0,.03,0,.03h-.01s0,.03,0,.03h0s0,.03,0,.03h0s-.01,.03-.01,.03h0s0,.03,0,.03v.02s0,.01,0,.01v.02h0s0,.03,0,.03h0s0,.03,0,.03h0s0,.03,0,.03c0,.06-.04,.12-.04,.19h0s0,.03,0,.03h-.01s0,.04,0,.04h0s0,.03,0,.03h0s0,.03,0,.03h-.01s0,.03,0,.03c0,.05-.03,.12-.04,.17h0s0,.03,0,.03v.02s0,.01,0,.01h0s0,.03,0,.03h0v.04s-.01,.01-.02,.07h0s0,.03,0,.03v.02s0,.01,0,.01h0s0,.03,0,.03c0,.03-.01,.04-.02,.07h0s0,.03,0,.03v.02s0,.01,0,.01v.02h0s0,.03,0,.03h0s0,.03,0,.03h0s0,.03,0,.03h0s0,.03,0,.03h0s0,.03,0,.03h-.01s0,.03,0,.03h0s0,.03,0,.03v.02s0,.05-.02,.08h0s0,.03,0,.03v.02s-.01,.01-.01,.01v.02s0,.01,0,.01h0s-.01,.03-.01,.03v.02s0,.01,0,.01h0s0,.03,0,.03v.03s.03,0,.03,0h.01s.01,0,.01,0h.01s.01,0,.01,0h.01s.01,0,.01,0h.01s.01,0,.01,0h.01s.01,0,.01,0h.01s.01,0,.01,0h.01s.01,0,.01,0h.01s.01,0,.01,0h.01s.01,0,.01,0h.01s.01,0,.01,0h.01s.01,0,.01,0h.03s.01,0,.01,0h.01s.01,0,.01,0h.01s.01,0,.01,0h.01s.01,0,.01,0h.01s.01-.01,.01-.01h.02s.01-.01,.01-.01v-.02s0-.01,0-.01h0s0-.03,0-.03h0s0-.03,0-.03h0s.01-.03,.01-.03v-.02s0-.01,0-.01c0-.02,.02-.05,.01-.07h0s0-.03,0-.03c.01-.03,.02-.05,.03-.08h0s0-.03,0-.03v-.02s0-.01,0-.01v-.02s0-.01,0-.01h0s.01-.07,.02-.1v-.02s0-.01,0-.01h0s0-.03,0-.03h0s0-.03,0-.03h0s0-.03,0-.03h0s0-.03,0-.03h.01s0-.03,0-.03h0s0-.03,0-.03h0s0-.03,0-.03h0s0-.03,0-.03h0s0-.03,0-.03c-.01-.05,.03-.06,.02-.1h0s0-.03,0-.03h.01s0-.03,0-.03h0s0-.03,0-.03h0s0-.03,0-.03h0s0-.03,0-.03h0s0-.03,0-.03h0s0-.03,0-.03h0s0-.03,0-.03h0s0-.03,0-.03v-.02s0-.01,0-.01h0s0-.03,0-.03v-.02s0-.01,0-.01h0s0-.03,0-.03v-.03h0v-.03h0s0-.03,0-.03h0s0-.03,0-.03h0s0-.03,0-.03h0s0-.03,0-.03h0s0-.03,0-.03h0s0-.03,0-.03h0s0-.03,0-.03h0s0-.03,0-.03h0s0-.03,0-.03h0s0-.03,0-.03h0s0-.03,0-.03h.01s0-.03,0-.03v-.02s0-.01,0-.01h0s0-.03,0-.03h0s0-.03,0-.03h0s0-.03,0-.03h0c.02-.05,.02-.06,.03-.1h0s0-.03,0-.03h0s0-.03,0-.03c.01-.03,.03-.06,.02-.08h0s0-.03,0-.03v-.02s0-.01,0-.01h0s0-.03,0-.03h0v-.03h0s0-.03,0-.03h0s0-.03,0-.03h0s0-.03,0-.03c0-.04,.01-.04,.02-.07h0s0-.02,0-.02c-.03-.02-.05-.01-.08-.01h-.01s-.03,0-.03,0h-.01s-.06,0-.09,0h-.01s-.01,0-.01,0h-.04s-.01,0-.01,0h-.01s-.01,0-.01,0h-.01s-.01,0-.01,0h-.01s-.01,0-.01,0h-.01s-.02,0-.02,0h-.03"/><path class="cls-9" d="M192.2,13.24h0s0,.03,0,.03h0s0,.03,0,.03h0s0,.03,0,.03h0s0,.03,0,.03h0s0,.03,0,.03h0s0,.03,0,.03h0s0,.03,0,.03v.02s0,.01,0,.01h0s0,.03,0,.03v.02h0s0,.03,0,.03h0s0,.03,0,.03v.02s0,.01,0,.01h0s0,.03,0,.03h0s0,.03,0,.03h0s0,.03,0,.03h0s0,.03,0,.03h0v.03h0s0,.03,0,.03c.01,.04,0,.04,.02,.07h0s0,.03,0,.03h0s0,.03,0,.03h.01s0,.02,0,.02v.02s0,.01,0,.01h.01s0,.02,0,.02v.02s0,.01,0,.01h0s0,.03,0,.03h.01s0,.02,0,.02h0s0,.03,0,.03h.01s0,.02,0,.02v.02s.01,.01,.01,.01h0s0,.03,0,.03h.02s0,.02,0,.02h0s0,.02,0,.02h.01s0,.02,0,.02h.01s0,.02,0,.02h0s.01,.02,.01,.02v.02s.02,0,.02,0h0s0,.02,0,.02h.02s.01,0,.01,0h.01s.01,.02,.01,.02h0s.02,.02,.02,.02h0s.02,.01,.02,.01h.01s.01,.01,.01,.01h0s.01,.02,.01,.02h.03s.01,.01,.01,.01h.01s.01,.01,.01,.01h.02s.01,0,.01,0h.01s.01,.01,.01,.01h.03s.02,0,.02,0h.01s.01,.01,.01,.01h.02s.01,0,.01,0h.01s.02,0,.02,0h.01s0-.02,0-.02h.01s0-.03,0-.03h0s0-.03,0-.03h0s0-.03,0-.03h0v-.03h0s0-.03,0-.03h0v-.03h0s0-.03,0-.03h0s0-.03,0-.03h0s0-.03,0-.03h0v-.03h0c-.02-.07,0-.05,0-.09h0s0-.03,0-.03h-.01s0-.03,0-.03h-.02s-.01-.02-.01-.02h-.01s0-.02,0-.02h-.01s-.01-.02-.01-.02h0s-.01-.02-.01-.02h0s0-.02,0-.02v-.02s-.01,0-.01,0h0s0-.03,0-.03h0s0-.03,0-.03h0s0-.03,0-.03h0s0-.03,0-.03h0s0-.03,0-.03h0s0-.03,0-.03h0s-.01-.03-.01-.03v-.02s0-.01,0-.01h0s0-.03,0-.03v-.02s0-.01,0-.01h0s0-.03,0-.03h0s0-.03,0-.03h0s0-.03,0-.03h0s0-.03,0-.03h0s0-.03,0-.03h0c-.01-.08,0-.12,0-.19h0s0-.03,0-.03h0s0-.03,0-.03h0s0-.03,0-.03h0s0-.03,0-.03v-.02s0-.01,0-.01h0s0-.03,0-.03v-.02s0-.01,0-.01h0s0-.03,0-.03h0s0-.03,0-.03h0s0-.03,0-.03h0s0-.03,0-.03h0s0-.03,0-.03h0s0-.03,0-.03v-.03h0v-.03h0s0-.03,0-.03v-.02s0-.01,0-.01v-.02s0-.01,0-.01v-.02s0-.01,0-.01v-.02s0-.01,0-.01h0s0-.03,0-.03v-.02s0-.01,0-.01h0s.01-.02,.01-.02v-.02s.01,0,.01,0v-.02s.01-.01,.01-.01h0s.01-.02,.01-.02h0s.01-.02,.01-.02h.01s.01-.02,.01-.02h.01s.02-.06,.02-.08h0s0-.03,0-.03c0-.02,0-.07,0-.09h0s0-.03,0-.03h0s0-.03,0-.03h-.01s0-.03,0-.03h0s0-.03,0-.03h0s0-.03,0-.03h0s0-.03,0-.03h0s0-.03,0-.03h0s0-.03,0-.03h0s-.01-.02-.01-.02h-.01s-.02,0-.02,0h-.03s-.01,0-.01,0h-.01s-.01,0-.01,0h-.01s-.01,0-.01,0h-.01s-.01,.01-.01,.01h-.01s-.01,0-.01,0h-.01s-.01,.01-.01,.01h-.02s-.01,0-.01,0h-.01s-.01,.02-.01,.02h-.01s-.01,.01-.01,.01h-.01s-.02,0-.02,0h-.01s-.01,.02-.01,.02h0s-.02,.01-.02,.01h0s-.01,.02-.01,.02h-.01s-.02,0-.02,0v.02s-.02,0-.02,0h-.01s-.02,.01-.02,.01h0s-.01,.02-.01,.02h-.01s0,.02,0,.02h-.01s0,.02,0,.02h-.01s0,.02,0,.02h0s0,.02,0,.02h0s0,.03,0,.03h-.01s0,.02,0,.02h0s0,.03,0,.03h-.01s0,.03,0,.03h-.01s0,.03,0,.03h-.01s0,.03,0,.03h0s0,.03,0,.03h0s-.01,.02-.01,.02h0s0,.03,0,.03h0s-.01,.03-.01,.03c-.03,.08,0,.05-.03,.1h0s0,.03,0,.03h0s0,.03,0,.03h0s0,.03,0,.03h0s0,.03,0,.03h0v.03h0s0,.03,0,.03h0s0,.03,0,.03v.02s0,.01,0,.01h0s0,.03,0,.03h0s0,.03,0,.03h0s0,.03,0,.03h0s0,.03,0,.03h0s0,.03,0,.03h0s0,.03,0,.03h0s0,.03,0,.03h0s0,.03,0,.03h0v.04s0,.01,0,.01h0v.03h0"/><path class="cls-9" d="M199.31,13.24h0s-.02,0-.02,0h0s-.01-.02-.01-.02c-.05-.04-.06-.03-.1-.06h-.01s-.01-.01-.01-.01h-.01s-.02-.01-.02-.01h-.01s-.01-.01-.01-.01h-.01s-.01-.01-.01-.01h-.01s-.01-.01-.01-.01h-.03s-.01,0-.01,0h-.01s-.01-.01-.01-.01h-.01s-.01,0-.01,0h-.01s-.01-.01-.01-.01h-.01s-.01,0-.01,0h-.03s-.01-.01-.01-.01h-.01s-.01,0-.01,0h-.01s-.01-.01-.01-.01h-.01s-.01,0-.01,0h-.01s-.01-.02-.01-.02h-.01s-.01,0-.01,0h-.01s-.02,0-.02,0h-.01s-.01-.01-.01-.01h-.01s-.01,0-.01,0h-.01s-.01-.01-.01-.01h-.01s-.01,0-.01,0h-.01s-.01,0-.01,0h-.01s-.02,0-.02,0h-.01s-.01-.01-.01-.01h-.02s-.01,0-.01,0h-.01s-.01-.02-.01-.02h-.01s-.01,0-.01,0h-.01s-.02,0-.02,0h-.01s-.01-.01-.01-.01h-.01s-.01-.02-.01-.02h-.01s-.01-.01-.01-.01h-.01s-.01-.01-.01-.01h0s-.01-.02-.01-.02h0s0-.02,0-.02h0s0-.02,0-.02c-.03-.04-.02-.08-.02-.13h0s0-.03,0-.03h.01s0-.03,0-.03h.01s0-.03,0-.03h0s0-.02,0-.02h0s.01-.02,.01-.02h.01s.01-.01,.01-.01h.01s.01-.01,.01-.01h.01s.01,0,.01,0h.01s.02,0,.02,0h.01s.01,0,.01,0h.01s.01-.01,.01-.01h.02s0-.02,0-.02h0s0-.02,0-.02h0s0-.03,0-.03h0s0-.03,0-.03h0s0-.03,0-.03h0s0-.03,0-.03h0s0-.03,0-.03h0s0-.03,0-.03h0s0-.03,0-.03h0s0-.03,0-.03h0s0-.03,0-.03h0v-.03h0s0-.03,0-.03v-.02s0-.01,0-.01h0s0-.02,0-.02h0s0-.02,0-.02h-.03s-.02,0-.02,0h-.01s-.01,0-.01,0h-.01s-.01,0-.01,0h-.02s-.01,0-.01,0h-.02s-.01,.01-.01,.01h-.01s-.02,0-.02,0h-.01s-.02,0-.02,0h-.01s-.01,0-.01,0h-.01s-.02,0-.02,0h-.01s-.01,.02-.01,.02h-.02s-.01,0-.01,0c-.02,.01-.05,.01-.07,.03h-.01s-.02,0-.02,0h-.01s-.01,.01-.01,.01h0s-.02,.01-.02,.01h0s-.01,.02-.01,.02h-.03s-.01,.02-.01,.02h-.01s-.01,.02-.01,.02h0s-.01,.02-.01,.02h-.01s-.01,.01-.01,.01h0s-.01,.02-.01,.02h-.01s-.01,.02-.01,.02v.02s-.02,0-.02,0h0s0,.02,0,.02h0s0,.03,0,.03h0s0,.02,0,.02h0s-.01,.02-.01,.02h0s0,.03,0,.03h-.01s0,.02,0,.02v.02s0,.01,0,.01h0s0,.03,0,.03h0s0,.03,0,.03h0v.03h0s0,.03,0,.03h-.01s0,.03,0,.03v.02s0,.01,0,.01h0s0,.03,0,.03h0s0,.03,0,.03h0s0,.03,0,.03h0v.03h0s0,.03,0,.03h0s0,.04,0,.04h0s0,.03,0,.03h0s0,.03,0,.03h0s0,.03,0,.03c.03,.04,0,.04,.04,.08h0v.03s.02,.04,.05,.07v.02s.01,0,.01,0h.01s0,.03,0,.03h.01s0,.02,0,.02h0s.01,.02,.01,.02h0s.01,.02,.01,.02h0s.01,.02,.01,.02h.01s0,.02,0,.02h.01s0,.02,0,.02h.02s0,.01,0,.01h.01s.01,.02,.01,.02h.01s.01,.02,.01,.02h.02s.01,0,.01,0h.01s.01,.02,.01,.02l.02,.02h.02s.01,0,.01,0h.01s.02,.01,.02,.01h.01s.01,.02,.01,.02h.03s.01,0,.01,0h.01s.01,.01,.01,.01h.01c.08,.02,.03,.03,.07,.03h.01s.02,0,.02,0h.01s.02,0,.02,0h.01s.02,.01,.02,.01h.01s.02,.01,.02,.01h.01s.01,.01,.01,.01h.02s.01,0,.01,0h.01s.01,0,.01,0h.01s.01,0,.01,0h.01s.01,.01,.01,.01h.03s.01,0,.01,0h.01s.02,0,.02,0h.01s.01,.02,.01,.02h.01s.01,0,.01,0h.02s.01,0,.01,0h.01s.01,0,.01,0h.01s.01,.01,.01,.01h.01s.01,0,.01,0h.01s.01,0,.01,0h.01s.02,0,.02,0h0s.02,.01,.02,.01c.04,.05,.02,0,.06,.04h.01s0,.02,0,.02h0s0,.02,0,.02h.01s0,.02,0,.02h0s0,.03,0,.03h0s0,.03,0,.03h0s0,.03,0,.03h0s0,.03,0,.03h0s0,.03,0,.03h-.01s0,.03,0,.03h0s0,.02,0,.02h-.01s0,.02,0,.02h0s-.02,.02-.02,.02h-.01s-.01,.02-.01,.02h-.01s-.01,.01-.01,.01h-.01s-.02,0-.02,0h-.01s-.01,.01-.01,.01h-.02s-.01,0-.01,0h-.01s-.01,0-.01,0h-.01s-.01,.01-.01,.01h-.01s-.01,.01-.01,.01h0s0,.02,0,.02h0s0,.03,0,.03h0v.03h0s0,.03,0,.03h0s0,.03,0,.03h0s0,.03,0,.03h0s0,.03,0,.03h0s0,.03,0,.03h0v.03h0s0,.03,0,.03h0s0,.03,0,.03h0s0,.03,0,.03h0s0,.03,0,.03v.02s.01,.01,.01,.01h0s.01,.02,.01,.02h.01s.01,0,.01,0h.01s.01,0,.01,0h.01s.02,0,.02,0h.01s.01-.01,.01-.01h.01s.01,0,.01,0h.01s.01,0,.01,0h.02s.01,0,.01,0h.01s.02,0,.02,0h.01c.07-.02,.09-.03,.16-.05h.01s.01,0,.01,0h.01s.01-.02,.01-.02h.02s.01-.01,.01-.01h.01s.01-.01,.01-.01h.02s0-.01,0-.01h.01s.01-.02,.01-.02h.01s.02,0,.02,0h0s.01-.02,.01-.02h0s.01-.02,.01-.02h.01s0-.02,0-.02h.01s.01-.01,.01-.01h.01s0-.02,0-.02l.02-.02h.01s0-.02,0-.02h.01s0-.02,0-.02h0s0-.03,0-.03h.01s0-.02,0-.02h0s.03-.06,.04-.09h0s0-.03,0-.03h0s0-.03,0-.03h0s0-.03,0-.03v-.02s0-.01,0-.01v-.02s0-.01,0-.01h0v-.03c.01-.08,0-.16-.02-.25v-.02s-.01-.01-.01-.01v-.02s0-.01,0-.01h-.01s0-.02,0-.02h0v-.03h0s-.01-.02-.01-.02h0s0-.03,0-.03h0s-.01-.02-.01-.02h0s0-.03,0-.03h0s-.01-.02-.01-.02h-.01s0-.03,0-.03h-.02s0-.02,0-.02h-.01s-.01-.02-.01-.02h0s0-.02,0-.02h-.01"/><path class="cls-9" d="M188.53,12.13v-.02s-.02,0-.02,0h0s-.01-.02-.01-.02c-.03,0-.06-.02-.09,0h-.01s-.01,0-.01,0c-.03,0-.06,0-.09,0h-.01s-.01,0-.01,0h-.01s-.01,0-.01,0h-.01s-.01,0-.01,0h-.01s-.01,0-.01,0h-.04s-.01,0-.01,0h-.01s-.01,0-.01,0h-.01s-.01,0-.01,0h-.01s-.01,0-.01,0h-.01s-.01,0-.01,0h-.01s0,.02,0,.02h-.01s0,.02,0,.02v.02s0,.01,0,.01h0s0,.03,0,.03h0v.03s-.02,.05-.02,.07h0s0,.03,0,.03h0s0,.03,0,.03h0s0,.03,0,.03h0s0,.03,0,.03h0s0,.03,0,.03c0,.02-.02,.05-.02,.07v.02s0,.01,0,.01h-.01s0,.03,0,.03h0s0,.03,0,.03h0s0,.03,0,.03v.02h0s0,.03,0,.03h0s-.01,.07-.03,.1v.02s0,.01,0,.01v.02s0,.01,0,.01h-.01v.04h0s0,.03,0,.03h0s0,.03,0,.03h0s-.01,.04-.01,.04h0s0,.03,0,.03v.02s0,.01,0,.01h0v.03h0s0,.03,0,.03h0s0,.03,0,.03h-.01s0,.03,0,.03v.02s0,.01,0,.01h-.01s0,.03,0,.03v.02c0,.06-.03,.04-.02,.08h0s0,.03,0,.03v.02s0,.01,0,.01h0s0,.03,0,.03c-.03,.06,0,.04-.02,.09h0s0,.03,0,.03h0s0,.03,0,.03h0s0,.03,0,.03h0s-.01,.03-.01,.03h0v.06s-.02,.07-.03,.08h0s0,.03,0,.03v.02h0s0,.03,0,.03h0s0,.03,0,.03h0v.03h0s0,.03,0,.03v.02s0,.01,0,.01h0s0,.03,0,.03h0v.05s0,.01,0,.01h0s0,.03,0,.03h0s0,.03,0,.03h0s0,.03,0,.03h0s0,.03,0,.03h0s0,.03,0,.03h0s0,.03,0,.03h-.01c-.01,.07,0,.03-.02,.08v.02s0,.01,0,.01h0s0,.03,0,.03h0v.04h-.01s0,.03,0,.03h0s0,.03,0,.03h.01s0,.02,0,.02h0s.01,.01,.01,.01h.03s.01,0,.01,0h.02s.01,0,.01,0h.01s.03,0,.03,0h.03s.01,0,.01,0h.01s.01,0,.01,0h.01s.02,0,.02,0h.01s.03,0,.03,0c.03,0,.07,0,.1,0h.01s.01,0,.01,0c.05,0,.06,.01,.09-.03h.01s0-.02,0-.02v-.02s0-.01,0-.01v-.03h0s0-.03,0-.03h0v-.03h0v-.03h0s.01-.03,.01-.03h0s0-.03,0-.03v-.02h0s0-.03,0-.03h0s.01-.03,.01-.03h0s0-.03,0-.03h0s0-.03,0-.03h0s0-.03,0-.03h0s0-.03,0-.03h0s0-.03,0-.03h0s0-.03,0-.03v-.02s0-.04,.02-.08h.01s0-.03,0-.03h0s0-.03,0-.03h0s.01-.03,.01-.03v-.02h0s0-.03,0-.03h0s0-.03,0-.03v-.02h0v-.03h0s0-.03,0-.03h0s0-.03,0-.03h0s0-.03,0-.03v-.02h0s0-.03,0-.03h0s0-.03,0-.03h.01s0-.03,0-.03v-.02h0s0-.03,0-.03v-.02s0-.01,0-.01v-.02s0-.01,0-.01h0s0-.03,0-.03h0s0-.03,0-.03v-.02s0-.01,0-.01h0s0-.03,0-.03h0s0-.03,0-.03h.01s.01,0,.01,0h.01s0,.01,0,.01v.02h0v.03h0s0,.03,0,.03h.01v.04h0s0,.03,0,.03h0s0,.03,0,.03h0s.01,.03,.01,.03h0s0,.03,0,.03h0s0,.03,0,.03h0s0,.03,0,.03h0s0,.03,0,.03h0v.03h0s0,.03,0,.03h0s0,.03,0,.03h0s0,.03,0,.03h0s0,.03,0,.03h0s0,.03,0,.03h0s0,.03,0,.03v.02s0,.01,0,.01h0s0,.03,0,.03h0s0,.03,0,.03h0c0,.08,.03,.05,.01,.09h0s.01,.03,.01,.03v.02s0,.01,0,.01h0s0,.03,0,.03h0s0,.03,0,.03h0s0,.03,0,.03v.02s0,.05,.02,.07h0s0,.03,0,.03h.01s0,0,0,0h0s0-.03,0-.03h0s0-.03,0-.03h0s0-.03,0-.03h0s0-.03,0-.03h0s0-.03,0-.03h0s0-.03,0-.03h0s0-.03,0-.03h.01s0-.03,0-.03h0s0-.03,0-.03h0s0-.03,0-.03h0s0-.03,0-.03h0s0-.03,0-.03h.01s0-.03,0-.03h0s.01-.08,.03-.11v-.02s0-.01,0-.01c0-.04,.02-.07,.02-.1h0s0-.03,0-.03h.01s0-.03,0-.03h0s0-.03,0-.03h0s.01-.03,.01-.03h0s0-.03,0-.03v-.02s0-.01,0-.01h0s0-.03,0-.03h0s0-.03,0-.03h.01s0-.03,0-.03h0s0-.03,0-.03v-.02s0-.01,0-.01h0s0-.03,0-.03h0c0-.06,0-.07-.01-.12h0s0-.03,0-.03v-.02h0s0-.03,0-.03h0s0-.03,0-.03h0s0-.03,0-.03h0s0-.03,0-.03v-.02s0-.01,0-.01v-.02s0-.01,0-.01h0s0-.03,0-.03v-.02s0-.01,0-.01h0s0-.03,0-.03h0s0-.03,0-.03v-.02s0-.01,0-.01h0s0-.03,0-.03v-.03h0s0-.03,0-.03h0v-.03h0s0-.03,0-.03h0s0-.03,0-.03h0s0-.03,0-.03h0s0-.03,0-.03h0s0-.03,0-.03h0s0-.03,0-.03h0s0-.03,0-.03h0v-.03h0s0-.03,0-.03h0v-.04s-.01-.01-.01-.01v-.02s0-.01,0-.01h0s-.01-.03-.01-.03v-.02s0-.01,0-.01v-.02s0-.01,0-.01h0s0-.03,0-.03h0s0-.03,0-.03h0"/><path class="cls-9" d="M191.09,12.02h-.01s-.01,.02-.01,.02h-.02s0,.02,0,.02h0s0,.03,0,.03h0s0,.03,0,.03c.02,.03,0,.04,0,.09h0s0,.03,0,.03h0s0,.03,0,.03h0v.04h0s0,.03,0,.03h0s0,.03,0,.03h0s0,.03,0,.03h0s0,.03,0,.03c0,.08,.07,.08,.1,.13h0s0,.03,0,.03h.01v.03h0s0,.02,0,.02h0s0,.03,0,.03h0s0,.02,0,.02v.02h0s0,.03,0,.03v.02s0,.01,0,.01h0s0,.03,0,.03h.01s0,.03,0,.03v.02s0,.01,0,.01h0s0,.03,0,.03h0s0,.03,0,.03h0s0,.03,0,.03h0s0,.03,0,.03h0s0,.03,0,.03h0v.03h0s0,.03,0,.03h0s0,.03,0,.03h0s0,.03,0,.03h0s0,.03,0,.03h0s0,.03,0,.03h0s0,.03,0,.03v.02s0,.01,0,.01h0s0,.03,0,.03h0s0,.03,0,.03h0s0,.03,0,.03h0s0,.03,0,.03h0v.04h0s0,.03,0,.03h0s0,.03,0,.03h0s0,.03,0,.03h0s0,.03,0,.03h0v.03h0s0,.03,0,.03h0s0,.03,0,.03h0s0,.03,0,.03h0v.04h0s0,.03,0,.03v.03s0,.01,0,.01h0s0,.03,0,.03h0s0,.03,0,.03h0s0,.03,0,.03h0v.03h0s0,.03,0,.03h0s0,.02,0,.02h0s0,.03,0,.03h0s0,.02,0,.02h0s0,.03,0,.03h-.01s-.01,.01-.01,.01h-.01s-.01,.02-.01,.02h0s0,.03,0,.03v.02s0,.01,0,.01h0s0,.03,0,.03h0s0,.03,0,.03h0s0,.03,0,.03h0s0,.03,0,.03h0s0,.03,0,.03h0s0,.03,0,.03h0s0,.03,0,.03h0s0,.03,0,.03v.02s0,.01,0,.01h0s0,.03,0,.03h0s0,.03,0,.03h0s0,.03,0,.03h0s0,.03,0,.03v.02s.02,0,.02,0h.01s.01,0,.01,0c.05,0,.07-.01,.12-.01h.01s.02,0,.02,0h.01s.02,0,.02,0h0s.02-.01,.02-.01h.01s.02-.01,.02-.01h.01s.01-.01,.01-.01h.01s.01-.01,.01-.01h.01s.01-.01,.01-.01h.01s.01-.02,.01-.02h0s.01-.02,.01-.02h.01s.01-.01,.01-.01h.01s0-.02,0-.02h.01s.01-.01,.01-.01h0s.01-.02,.01-.02h0s.01-.02,.01-.02v-.02s.02,0,.02,0h.01s.03-.05,.05-.08h.01s0-.03,0-.03h0s0-.02,0-.02h0s0-.03,0-.03h.01s0-.02,0-.02h0s0-.03,0-.03h0s0-.03,0-.03h0s0-.03,0-.03c0-.02,.02-.06,.03-.08h0s0-.03,0-.03h0s0-.03,0-.03c0-.03,.02-.05,.03-.08v-.02h0s0-.03,0-.03h0s0-.03,0-.03h0s0-.03,0-.03h0s0-.03,0-.03h0s0-.03,0-.03v-.02h.01s0-.03,0-.03h0s0-.03,0-.03h0s0-.03,0-.03v-.02h0s0-.03,0-.03h0s0-.03,0-.03h0s0-.03,0-.03h0s0-.03,0-.03h0s0-.03,0-.03h0s0-.03,0-.03h0s0-.03,0-.03h0s0-.03,0-.03h0s0-.03,0-.03h0s0-.03,0-.03h0s0-.03,0-.03h0s0-.03,0-.03h0s0-.03,0-.03h0s0-.03,0-.03h0s0-.03,0-.03h0s0-.03,0-.03h0s0-.03,0-.03h0s0-.03,0-.03h0s0-.03,0-.03h0s0-.03,0-.03h-.01s0-.03,0-.03h0v-.03h0v-.04h-.01s0-.03,0-.03h0s0-.03,0-.03h0v-.03h0s-.01-.03-.01-.03v-.02s0-.03,0-.03v-.02s-.02-.06-.03-.08h0s0-.03,0-.03h0s0-.02,0-.02h0s0-.03,0-.03h0s0-.02,0-.02h-.01s0-.02,0-.02h0s-.01-.02-.01-.02v-.03s-.02-.01-.02-.01h-.01s0-.02,0-.02h0s-.01-.02-.01-.02h-.01s0-.02,0-.02h-.01s0-.02,0-.02c-.02-.01-.04-.03-.06-.04h0s-.01-.02-.01-.02h0s-.01-.02-.01-.02h-.02s-.01,0-.01,0h-.01s-.01-.02-.01-.02h-.01s-.01-.01-.01-.01h-.01s-.01-.02-.01-.02h-.02s-.01,0-.01,0h-.01s-.01,0-.01,0h-.01s-.01,0-.01,0h-.01s-.02,0-.02,0h-.01s-.01,0-.01,0h-.01s-.01-.01-.01-.01h-.01s-.01,0-.01,0h-.02s-.01,0-.01,0h-.01s-.01-.01-.01-.01"/><path class="cls-9" d="M193.24,12.02h-.01s-.02,0-.02,0v.02s-.02,.01-.02,.01h0v.04h0s0,.03,0,.03h0s0,.03,0,.03h0v.03h0v.03h0s0,.03,0,.03h0s0,.03,0,.03h0s0,.03,0,.03c0,.02,0,.05,0,.07h0s0,.03,0,.03c-.01,.05,0,.03,.02,.07h0s0,.03,0,.03h.01s.01,.02,.01,.02h0s.01,.02,.01,.02h0s.01,.02,.01,.02h0s0,.03,0,.03h.01v.03s.02,.02,.02,.07h0s0,.03,0,.03v.02s0,.01,0,.01h0s0,.03,0,.03h0s0,.03,0,.03h0s0,.03,0,.03h0c.02,.06,0,.04,0,.09h0s0,.03,0,.03h0s0,.03,0,.03h0s0,.03,0,.03h0s0,.03,0,.03h0s0,.03,0,.03h0s0,.03,0,.03h0s0,.03,0,.03h0s0,.03,0,.03h0s0,.03,0,.03h0s0,.03,0,.03h0s0,.03,0,.03h0s0,.03,0,.03h0s0,.03,0,.03h0s0,.09,0,.12h0s0,.03,0,.03h0s0,.03,0,.03h0s0,.03,0,.03h0s0,.03,0,.03h0s0,.03,0,.03v.06s0,.01,0,.01h0s0,.03,0,.03h0s-.01,.03-.01,.03h0s0,.03,0,.03h0s0,.03,0,.03h0s0,.03,0,.03h0s0,.03,0,.03h0s0,.03,0,.03h0s0,.03,0,.03v.02s0,.01,0,.01h0s0,.03,0,.03h-.01s0,.02,0,.02h0s0,.03,0,.03h-.01s0,.02,0,.02h-.01s0,.02,0,.02h0s0,.02,0,.02h-.01s0,.03,0,.03h0s0,.03,0,.03h0s0,.03,0,.03h0s0,.03,0,.03h0s0,.03,0,.03h0s0,.03,0,.03h0s0,.03,0,.03h0s0,.03,0,.03h0s0,.03,0,.03h0s0,.03,0,.03h0s0,.03,0,.03h0s0,.03,0,.03h0s0,.03,0,.03v.03h0s.01,.02,.01,.02h.01s.02,0,.02,0h.01s.01,0,.01,0h.01s.01,0,.01,0h.03s.01,0,.01,0h.03s.01,0,.01,0c.03-.02,.06-.02,.1-.04h.01s.02,0,.02,0h0s.01-.02,.01-.02h.01s0-.02,0-.02h.01s.01-.01,.01-.01h0s.02-.01,.02-.01h0s.01-.02,.01-.02h0s0-.02,0-.02h.01s.01-.02,.01-.02h.01s0-.02,0-.02h.02s0-.02,0-.02h0s.01-.02,.01-.02h0s.01-.02,.01-.02h0s0-.03,0-.03h0s0-.02,0-.02h0s0-.02,0-.02h0s0-.03,0-.03h0s.01-.02,.01-.02h0s0-.03,0-.03h0s0-.03,0-.03h0s0-.02,0-.02h0v-.03h0s0-.03,0-.03h0s0-.03,0-.03h0s0-.03,0-.03h0s0-.03,0-.03h0s0-.03,0-.03v-.03s.01-.01,.01-.01h0s0-.03,0-.03h0s.01-.03,.01-.03v-.02s0-.01,0-.01h0v-.03h0s0-.03,0-.03h0s0-.03,0-.03h0s0-.03,0-.03h0s.02-.08,0-.12v-.02s0-.01,0-.01h0s0-.03,0-.03h0s0-.03,0-.03h0s0-.03,0-.03h0s0-.03,0-.03h0s0-.03,0-.03h0s0-.03,0-.03h0s0-.03,0-.03h0s0-.03,0-.03h0s0-.03,0-.03h0s0-.03,0-.03h0s0-.03,0-.03v-.02s0-.01,0-.01h0s0-.07,0-.1h0s0-.03,0-.03h0s0-.03,0-.03h0s0-.03,0-.03v-.02s0-.01,0-.01h0s0-.03,0-.03h0s0-.03,0-.03h0c0-.05-.01-.08-.03-.11h0s0-.03,0-.03c0-.03-.02-.07-.03-.1h0s0-.03,0-.03h0s-.01-.02-.01-.02v-.02h0c-.04-.06,0-.03-.04-.09v-.02s-.01,0-.01,0h0s0-.03,0-.03h-.01s0-.02,0-.02h0s0-.02,0-.02h-.01s0-.02,0-.02h0s-.01-.02-.01-.02h0s0-.03,0-.03h0s0-.02,0-.02h-.02s0-.02,0-.02h0s-.01-.02-.01-.02h-.01s-.01-.02-.01-.02h0s-.01-.02-.01-.02h-.01s-.01-.01-.01-.01h0s-.02-.01-.02-.01h-.01s-.01-.01-.01-.01h0s-.01-.02-.01-.02h-.03s-.02-.01-.02-.01h-.01s-.05-.02-.07-.03h-.01s-.01,0-.01,0c-.03,0-.05-.01-.07,0h-.01s-.02,0-.02,0"/><path class="cls-9" d="M198.13,13.68h0s-.01-.02-.01-.02h0s-.01-.02-.01-.02h0s-.01-.01-.01-.01h-.01s-.01,0-.01,0h-.01s-.01,0-.01,0h-.01s-.01,0-.01,0h-.01s-.01,0-.01,0h-.01s-.01,0-.01,0h-.01s-.01,0-.01,0h-.01s-.01,0-.01,0h-.01s-.01,0-.01,0h-.01s-.01,0-.01,0c-.07,0-.01-.02-.09,0h-.01s-.02,0-.02,0h-.01s-.01,0-.01,0h-.02s-.01,0-.01,0h-.01s-.03,0-.03,0h-.02s0,.02,0,.02h-.01s0,.07,.01,.1h0s0,.03,0,.03c.02,.05,0,.01,.02,.09h0s0,.03,0,.03h.01s0,.03,0,.03h0s.01,.03,.01,.03h0s0,.03,0,.03h0s0,.03,0,.03h0s0,.02,0,.02v.02h0s.01,.02,.01,.02h0s.01,.02,.01,.02h0s0,.03,0,.03v.02s.01,.01,.01,.01h0s0,.02,0,.02h.01s.01,.02,.01,.02v.02s.02,0,.02,0h.01s0,.02,0,.02h.01s0,.02,0,.02h.01s.01,.02,.01,.02h0s0,.02,0,.02h.02s0,.02,0,.02h0s.01,.02,.01,.02h.02s.01,.01,.01,.01h.01s.01,.01,.01,.01h.01s.01,.01,.01,.01h.01s.01,0,.01,0h.01s.01,.01,.01,.01h.01s.01,.01,.01,.01h.01s.01,.01,.01,.01h.02s.01,0,.01,0h.01s.02,0,.02,0h.01s.01,.01,.01,.01h.01s.02,0,.02,0h.01s.01,.01,.01,.01h.01s.01,0,.01,0h.01s.01,0,.01,0h.01s.01,0,.01,0h.01s.01,0,.01,0h.01s.01,.01,.01,.01c.07,0,.07,0,.08-.07h0s0-.03,0-.03h0s0-.03,0-.03c.01-.04-.01-.08,0-.12h0s0-.03,0-.03h0s0-.03,0-.03h0s0-.03,0-.03h0v-.05s0-.01,0-.01v-.03s0-.01,0-.01h-.02s-.01-.01-.01-.01h-.01s-.01,0-.01,0h-.01s-.02,0-.02,0h-.01s-.01-.01-.01-.01h0s-.01-.02-.01-.02h-.01s-.01-.01-.01-.01h-.01s0-.02,0-.02h-.01s0-.02,0-.02h-.02s0-.02,0-.02h0s0-.02,0-.02h0s-.01-.02-.01-.02v-.02s0-.01,0-.01h-.01s0-.03,0-.03h-.01s0-.03,0-.03h0s0-.03,0-.03h0s0-.03,0-.03h0s0-.03,0-.03"/><path class="cls-9" d="M198.95,12.79h.01s0,.02,0,.02h0s0,.02,0,.02h.03s.01,.01,.01,.01h.01s.03,0,.03,0h.01s.01,0,.01,0c.04,0,.08,0,.12,0h.01s.01,0,.01,0h.01s.01,0,.01,0h.01s.01,0,.01,0h.03s.01,0,.01,0h.01s.02,0,.02,0h.01s.01,0,.01,0h.02s.01,0,.01,0h.02s.01,0,.01,0h.01s.02,0,.02,0h.02s0-.02,0-.02h0s0-.03,0-.03h0s0-.03,0-.03h0s0-.03,0-.03h0s0-.03,0-.03h0s0-.03,0-.03v-.03h0s0-.03,0-.03h0s0-.03,0-.03h0s0-.03,0-.03c-.02-.04-.04-.13-.07-.16h0v-.03h-.01s0-.02,0-.02h0s0-.03,0-.03h-.01s0-.02,0-.02h0s0-.03,0-.03h-.02s0-.02,0-.02h0s-.01-.02-.01-.02h0s-.01-.02-.01-.02h-.01s0-.02,0-.02h0s-.01-.02-.01-.02h-.01s-.01-.02-.01-.02h-.01s0-.02,0-.02h-.01s0-.02,0-.02h-.02s0-.01,0-.01h-.02s0-.01,0-.01h-.01s-.01,0-.01,0h-.01s-.01-.01-.01-.01h-.01s-.01-.01-.01-.01h-.01s-.01,0-.01,0h-.01s-.02-.01-.02-.01h-.01s-.01,0-.01,0h-.01s-.01,0-.01,0h-.01s-.02,0-.02,0h-.01s-.01,0-.01,0h-.01s-.01,0-.01,0h-.01s-.06-.02-.09-.02h-.03s-.01,0-.01,0h-.01s-.01,0-.01,0h-.01s0,.02,0,.02h0s0,.03,0,.03h0v.05s0,.01,0,.01h0s0,.03,0,.03h0s0,.03,0,.03h0s0,.03,0,.03h0s0,.03,0,.03h0s0,.03,0,.03v.02s0,.01,0,.01h0s0,.03,0,.03h0s0,.03,0,.03h0s0,.03,0,.03h0c.02,.06,.02,.05,.06,.07h.03s.01,.02,.01,.02h.01s.01,0,.01,0h.01s0,.02,0,.02h.02s0,.02,0,.02h.01s0,.02,0,.02h.01s.01,.01,.01,.01v.02s.02,0,.02,0h0s.03,.05,.03,.08h.01v.03h0s0,.03,0,.03v.02s0,.01,0,.01h0s0,.03,0,.03h0"/><path class="cls-9" d="M188.71,14.36h0s0,.03,0,.03h.01s.01,.01,.01,.01h.01s.01,0,.01,0h.03s.01,0,.01,0h.01s.01,0,.01,0h.03s.01,0,.01,0h.01s.01,0,.01,0h.01s.01,0,.01,0h.01s.01,0,.01,0h.01s.03,0,.03,0h.01s.01,0,.01,0h.01s.01,0,.01,0h.01s.01,0,.01,0h.01s.01,0,.01,0h.01s.01,0,.01,0h.01s.01,0,.01,0h.01s.01,0,.01,0h.01s.02-.01,.02-.01v-.02s0-.01,0-.01v-.02s0-.01,0-.01h0v-.03h0s0-.03,0-.03h0s0-.03,0-.03h0s0-.03,0-.03h0v-.03h.01s0-.03,0-.03h0s0-.03,0-.03h0s0-.03,0-.03h0s0-.03,0-.03h0s0-.03,0-.03h0s0-.03,0-.03c0-.04,.02-.07,.03-.11h0s0-.03,0-.03h0s0-.03,0-.03v-.02s0-.01,0-.01h0v-.03h0s0-.03,0-.03h0s0-.03,0-.03h0v-.03h0s.01-.03,.01-.03h0s0-.03,0-.03v-.02h0s0-.03,0-.03h0s0-.03,0-.03h.01s0-.03,0-.03v-.03h0s0-.03,0-.03h0s0-.03,0-.03h0s0-.03,0-.03h0s0-.03,0-.03h.01s0-.03,0-.03h0s0-.03,0-.03h.01s0-.03,0-.03h0s0-.03,0-.03h0s0-.03,0-.03h0s0-.03,0-.03h0v-.03h0s0-.03,0-.03h0s0-.03,0-.03v-.02s0-.01,0-.01v-.02s0-.01,0-.01h0v-.03h0s0-.03,0-.03v-.02s0-.01,0-.01h0s0-.03,0-.03h0s0-.03,0-.03h0s0-.03,0-.03v-.02s0-.01,0-.01h0s0-.03,0-.03h0s0-.03,0-.03h0s0-.03,0-.03h0s0-.03,0-.03v-.02h0s0-.03,0-.03v-.02s0-.01,0-.01v-.02s0-.01,0-.01h0s0-.03,0-.03v-.02h0s.01-.03,.01-.03h0s0-.03,0-.03h0s0-.03,0-.03h0s0-.03,0-.03v-.02s0-.01,0-.01h0s0-.03,0-.03v-.02s0-.01,0-.01h0s0-.03,0-.03v-.02s0-.01,0-.01h0s0-.03,0-.03h0s0-.03,0-.03h0s.01-.03,.01-.03v-.02s0-.01,0-.01h0s0-.03,0-.03h0v-.03h0c0-.09,0,0,.02-.08v-.02h0s-.01-.03-.01-.03h0s-.01-.02-.01-.02h-.01s-.01,0-.01,0c-.02,0-.05,0-.07,0h-.03s-.01,0-.01,0h-.01s-.01,0-.01,0h-.01s-.01,0-.01,0h-.01s-.01,0-.01,0h-.01s-.01,0-.01,0h-.01s-.06,0-.09,0h-.01s-.01,0-.01,0h-.03s-.02,0-.02,0h-.01s-.01,0-.01,0h-.01s-.02,.01-.02,.01h0s-.01,.02-.01,.02v.02s0,.01,0,.01h0s0,.03,0,.03h0s0,.03,0,.03h0s0,.03,0,.03v.02s0,.01,0,.01h0v.03h0s0,.03,0,.03h0s0,.03,0,.03h0s0,.03,0,.03h0s0,.03,0,.03v.02s0,.01,0,.01h0s0,.03,0,.03v.02s0,.01,0,.01h0s-.01,.03-.01,.03h0s0,.03,0,.03h-.01s0,.03,0,.03h0s0,.03,0,.03h0s0,.03,0,.03v.02s0,.01,0,.01h0s0,.03,0,.03v.02s0,.01,0,.01h0v.03h-.01s0,.03,0,.03h0s0,.03,0,.03h0s0,.03,0,.03h0s0,.03,0,.03h0s0,.03,0,.03h0s0,.03,0,.03h0s0,.03,0,.03h0s0,.03,0,.03h0s0,.03,0,.03v.02s0,.01,0,.01h0s0,.03,0,.03h0s0,.03,0,.03h0s0,.03,0,.03h-.01s0,.03,0,.03h0s0,.03,0,.03v.02s-.01,.01-.01,.01h0s0,.03,0,.03h0s0,.03,0,.03v.02s0,.01,0,.01h0s0,.03,0,.03h0s0,.03,0,.03v.02s-.01,.01-.01,.01v.02s0,.01,0,.01h0s0,.03,0,.03h0s0,.03,0,.03v.02s0,.01,0,.01h0c0,.05,0,.04-.02,.08h0s0,.03,0,.03h-.01s0,.03,0,.03h0s0,.03,0,.03v.02s0,.01,0,.01v.02s0,.01,0,.01h0s0,.03,0,.03h0s0,.03,0,.03h0s0,.03,0,.03h0s-.01,.03-.01,.03v.02s0,.01,0,.01v.02s-.02,.07-.03,.1h-.01s0,.03,0,.03h0s0,.03,0,.03h0s-.01,.03-.01,.03v.02h0s0,.03,0,.03v.02s0,.01,0,.01v.02s0,.01,0,.01h0s0,.03,0,.03h0s0,.03,0,.03v.03s0,.02,0,.02h0s0,.03,0,.03h0v.03h0s0,.03,0,.03h0s0,.03,0,.03h0"/><path class="cls-9" d="M188.53,12.13v-.02s-.02,0-.02,0h0s-.01-.02-.01-.02c-.03,0-.06-.02-.09,0h-.01s-.01,0-.01,0c-.03,0-.06,0-.09,0h-.01s-.01,0-.01,0h-.01s-.01,0-.01,0h-.01s-.01,0-.01,0h-.01s-.01,0-.01,0h-.04s-.01,0-.01,0h-.01s-.01,0-.01,0h-.01s-.01,0-.01,0h-.01s-.01,0-.01,0h-.01s-.01,0-.01,0h-.01s0,.02,0,.02h-.01s0,.02,0,.02v.02s0,.01,0,.01h0s0,.03,0,.03h0v.03s-.02,.05-.02,.07h0s0,.03,0,.03h0s0,.03,0,.03h0s0,.03,0,.03h0s0,.03,0,.03h0s0,.03,0,.03c0,.02-.02,.05-.02,.07v.02s0,.01,0,.01h-.01s0,.03,0,.03h0s0,.03,0,.03h0s0,.03,0,.03v.02h0s0,.03,0,.03h0s-.01,.07-.03,.1v.02s0,.01,0,.01v.02s0,.01,0,.01h-.01v.04h0s0,.03,0,.03h0s0,.03,0,.03h0s-.01,.04-.01,.04h0s0,.03,0,.03v.02s0,.01,0,.01h0v.03h0s0,.03,0,.03h0s0,.03,0,.03h-.01s0,.03,0,.03v.02s0,.01,0,.01h-.01s0,.03,0,.03v.02c0,.06-.03,.04-.02,.08h0s0,.03,0,.03v.02s0,.01,0,.01h0s0,.03,0,.03c-.03,.06,0,.04-.02,.09h0s0,.03,0,.03h0s0,.03,0,.03h0s0,.03,0,.03h0s-.01,.03-.01,.03h0v.06s-.02,.07-.03,.08h0s0,.03,0,.03v.02h0s0,.03,0,.03h0s0,.03,0,.03h0v.03h0s0,.03,0,.03v.02s0,.01,0,.01h0s0,.03,0,.03h0v.05s0,.01,0,.01h0s0,.03,0,.03h0s0,.03,0,.03h0s0,.03,0,.03h0s0,.03,0,.03h0s0,.03,0,.03h0s0,.03,0,.03h-.01c-.01,.07,0,.03-.02,.08v.02s0,.01,0,.01h0s0,.03,0,.03h0v.04h-.01s0,.03,0,.03h0s0,.03,0,.03h.01s0,.02,0,.02h0s.01,.01,.01,.01h.03s.01,0,.01,0h.02s.01,0,.01,0h.01s.03,0,.03,0h.03s.01,0,.01,0h.01s.01,0,.01,0h.01s.02,0,.02,0h.01s.03,0,.03,0c.03,0,.07,0,.1,0h.01s.01,0,.01,0c.05,0,.06,.01,.09-.03h.01s0-.02,0-.02v-.02s0-.01,0-.01v-.03h0s0-.03,0-.03h0v-.03h0v-.03h0s.01-.03,.01-.03h0s0-.03,0-.03v-.02h0s0-.03,0-.03h0s.01-.03,.01-.03h0s0-.03,0-.03h0s0-.03,0-.03h0s0-.03,0-.03h0s0-.03,0-.03h0s0-.03,0-.03h0s0-.03,0-.03v-.02s0-.04,.02-.08h.01s0-.03,0-.03h0s0-.03,0-.03h0s.01-.03,.01-.03v-.02h0s0-.03,0-.03h0s0-.03,0-.03v-.02h0v-.03h0s0-.03,0-.03h0s0-.03,0-.03h0s0-.03,0-.03v-.02h0s0-.03,0-.03h0s0-.03,0-.03h.01s0-.03,0-.03v-.02h0s0-.03,0-.03v-.02s0-.01,0-.01v-.02s0-.01,0-.01h0s0-.03,0-.03h0s0-.03,0-.03v-.02s0-.01,0-.01h0s0-.03,0-.03h0s0-.03,0-.03h.01s.01,0,.01,0h.01s0,.01,0,.01v.02h0v.03h0s0,.03,0,.03h.01v.04h0s0,.03,0,.03h0s0,.03,0,.03h0s.01,.03,.01,.03h0s0,.03,0,.03h0s0,.03,0,.03h0s0,.03,0,.03h0s0,.03,0,.03h0v.03h0s0,.03,0,.03h0s0,.03,0,.03h0s0,.03,0,.03h0s0,.03,0,.03h0s0,.03,0,.03h0s0,.03,0,.03v.02s0,.01,0,.01h0s0,.03,0,.03h0s0,.03,0,.03h0c0,.08,.03,.05,.01,.09h0s.01,.03,.01,.03v.02s0,.01,0,.01h0s0,.03,0,.03h0s0,.03,0,.03h0s0,.03,0,.03v.02s0,.05,.02,.07h0s0,.03,0,.03h.01s0,0,0,0h0s0-.03,0-.03h0s0-.03,0-.03h0s0-.03,0-.03h0s0-.03,0-.03h0s0-.03,0-.03h0s0-.03,0-.03h0s0-.03,0-.03h.01s0-.03,0-.03h0s0-.03,0-.03h0s0-.03,0-.03h0s0-.03,0-.03h0s0-.03,0-.03h.01s0-.03,0-.03h0s.01-.08,.03-.11v-.02s0-.01,0-.01c0-.04,.02-.07,.02-.1h0s0-.03,0-.03h.01s0-.03,0-.03h0s0-.03,0-.03h0s.01-.03,.01-.03h0s0-.03,0-.03v-.02s0-.01,0-.01h0s0-.03,0-.03h0s0-.03,0-.03h.01s0-.03,0-.03h0s0-.03,0-.03v-.02s0-.01,0-.01h0s0-.03,0-.03h0c0-.06,0-.07-.01-.12h0s0-.03,0-.03v-.02h0s0-.03,0-.03h0s0-.03,0-.03h0s0-.03,0-.03h0s0-.03,0-.03v-.02s0-.01,0-.01v-.02s0-.01,0-.01h0s0-.03,0-.03v-.02s0-.01,0-.01h0s0-.03,0-.03h0s0-.03,0-.03v-.02s0-.01,0-.01h0s0-.03,0-.03v-.03h0s0-.03,0-.03h0v-.03h0s0-.03,0-.03h0s0-.03,0-.03h0s0-.03,0-.03h0s0-.03,0-.03h0s0-.03,0-.03h0s0-.03,0-.03h0s0-.03,0-.03h0v-.03h0s0-.03,0-.03h0v-.04s-.01-.01-.01-.01v-.02s0-.01,0-.01h0s-.01-.03-.01-.03v-.02s0-.01,0-.01v-.02s0-.01,0-.01h0s0-.03,0-.03h0s0-.03,0-.03h0"/><path class="cls-9" d="M187.21,12.11h0s0-.03,0-.03h-.01s-.01-.02-.01-.02h-.02s-.01,0-.01,0h-.01s-.01,0-.01,0h-.01s-.01,0-.01,0h-.01s-.01,0-.01,0h-.01s-.01,0-.01,0h-.01s-.01,0-.01,0h-.01s-.01,0-.01,0h-.01s-.01,0-.01,0h-.01s-.01,0-.01,0c-.04,0-.02,.01-.09,0h-.01s-.01,0-.01,0h-.01s-.01,0-.01,0h-.01s-.01,0-.01,0h-.01s-.01,0-.01,0h-.01s0,.01,0,.01h0s0,.02,0,.02v.02s0,.01,0,.01c.03,.02,0,.03,.03,.08v.02s0,.01,0,.01h0s0,.03,0,.03h0s0,.03,0,.03h0s0,.03,0,.03h0v.03h0s0,.03,0,.03h0v.03h.01s0,.03,0,.03v.02s0,.01,0,.01h0s.01,.03,.01,.03h0s0,.03,0,.03h0s0,.03,0,.03h0s0,.03,0,.03h0s0,.03,0,.03v.02s.01,.01,.01,.01v.02s0,.01,0,.01h0s0,.03,0,.03h0s0,.03,0,.03h0s0,.03,0,.03h0s0,.03,0,.03h0s0,.03,0,.03h0s0,.03,0,.03h0s0,.03,0,.03h0s0,.03,0,.03v.02s0,.01,0,.01h0s0,.03,0,.03v.02s0,.01,0,.01h0s0,.03,0,.03h0s.02,.07,.03,.1v.03h.01s0,.03,0,.03h0s0,.03,0,.03h0s0,.03,0,.03h0s0,.03,0,.03v.02h.01s0,.03,0,.03h0s0,.03,0,.03h0s0,.03,0,.03v.02s0,.01,0,.01h0s0,.03,0,.03h0s0,.03,0,.03v.02s0,.01,0,.01h0s0,.03,0,.03h0s0,.03,0,.03h.01s0,.03,0,.03h0s0,.03,0,.03h0s0,.03,0,.03h0s0,.03,0,.03h0s0,.03,0,.03h0s0,.04,0,.04v.02s0,.01,0,.01h0s0,.03,0,.03h0s0,.03,0,.03c.01,.05,0,.02,.03,.07h0s0,.03,0,.03h0s0,.03,0,.03h.01s0,.03,0,.03h0s0,.03,0,.03h0s0,.03,0,.03h0s0,.03,0,.03v.02s0,.01,0,.01h.01v.04h0s0,.03,0,.03h0s.01,.03,.01,.03h0s.02-.08,.03-.11v-.02s0-.01,0-.01v-.02s0-.01,0-.01h0s0-.03,0-.03h0s0-.03,0-.03h0s0-.03,0-.03v-.02s0-.01,0-.01h0s0-.03,0-.03h0s0-.03,0-.03h0s0-.03,0-.03h0s0-.03,0-.03h0s0-.03,0-.03h0s0-.03,0-.03v-.02s0-.01,0-.01v-.02s0-.01,0-.01h0v-.03h0s0-.03,0-.03h0s0-.03,0-.03h.01s0-.03,0-.03h0s0-.03,0-.03h0s0-.03,0-.03v-.02s0-.01,0-.01h0s0-.03,0-.03h0s0-.03,0-.03h0s0-.03,0-.03v-.02s0-.01,0-.01h0s0-.03,0-.03v-.02s0-.01,0-.01h0s0-.03,0-.03h0v-.03h0s0-.03,0-.03h0s.01-.03,.01-.03h0s0-.03,0-.03h0s0-.03,0-.03h0s0-.03,0-.03h0s0-.03,0-.03v-.02s0-.01,0-.01h0s0-.03,0-.03h0s0-.03,0-.03h0c0-.06-.03-.11-.03-.17h0s0-.03,0-.03h0s0-.03,0-.03h0s0-.03,0-.03h0s0-.03,0-.03h0s0-.03,0-.03h0s0-.03,0-.03h0s0-.03,0-.03v-.02s0-.01,0-.01h0s0-.03,0-.03h0s0-.03,0-.03h0s0-.03,0-.03h0s0-.03,0-.03v-.02s0-.01,0-.01h0s0-.03,0-.03v-.02s0-.01,0-.01h-.01s0-.03,0-.03h0c-.01-.06-.02-.04-.02-.09h0s0-.03,0-.03h0s0-.03,0-.03h0s0-.03,0-.03h0s0-.03,0-.03h0s0-.03,0-.03"/><path class="cls-9" d="M196.17,12.07h-.01s-.01,0-.01,0h0s-.02,.02-.02,.02h0v.03h0s0,.03,0,.03h0s-.01,.03-.01,.03v.02s0,.01,0,.01h0v.03h0s0,.03,0,.03h0s0,.03,0,.03h0v.03h0s0,.03,0,.03h0s0,.03,0,.03h0s0,.03,0,.03v.02s0,.01,0,.01v.02s0,.01,0,.01h0s0,.03,0,.03v.02s0,.01,0,.01h0s0,.03,0,.03v.02s0,.01,0,.01h0s0,.03,0,.03h0s0,.03,0,.03h-.01s0,.03,0,.03h0s0,.03,0,.03h0s0,.03,0,.03h0s0,.03,0,.03h0s0,.03,0,.03v.02s0,.01,0,.01h0s0,.03,0,.03h0s0,.03,0,.03h0s0,.03,0,.03h0s0,.03,0,.03h0s0,.03,0,.03h0s0,.03,0,.03h0s0,.03,0,.03h0s0,.03,0,.03h0s0,.03,0,.03h0s0,.03,0,.03h0s0,.03,0,.03h0s0,.03,0,.03h0s0,.03,0,.03c0,.06-.02,.02-.02,.07h0s0,.03,0,.03h-.01s0,.02,0,.02h-.03s0-.02,0-.02h0s0-.03,0-.03h0s0-.03,0-.03h0s0-.03,0-.03h0s0-.03,0-.03v-.02s0-.01,0-.01h0s0-.03,0-.03h0s0-.03,0-.03h0s0-.03,0-.03h0s0-.03,0-.03h0c-.02-.07,0-.05-.02-.08h0s0-.03,0-.03h0s-.01-.03-.01-.03h0v-.03h0s0-.03,0-.03h0s0-.03,0-.03v-.02s0-.01,0-.01h0s0-.03,0-.03h0s0-.03,0-.03v-.02s0-.01,0-.01h0s0-.03,0-.03h0s0-.03,0-.03h0s0-.03,0-.03h0s0-.03,0-.03h0v-.04h-.01s0-.03,0-.03v-.02s0-.01,0-.01h0s-.01-.03-.01-.03v-.02s-.01-.05-.02-.07v-.02s-.02-.01-.02-.01h-.02s0,.03,0,.03h0s-.02,.1-.03,.13h0s0,.03,0,.03h0s0,.03,0,.03h0s0,.03,0,.03h0s0,.03,0,.03h0s0,.03,0,.03h0s0,.03,0,.03h0s-.01,.03-.01,.03h0s0,.03,0,.03h0s0,.03,0,.03h0s0,.03,0,.03v.02s0,.01,0,.01h0s0,.03,0,.03h0s0,.03,0,.03v.02s0,.01,0,.01h0s0,.03,0,.03h0s0,.03,0,.03v.02s0,.01,0,.01h0s0,.03,0,.03h0v.03h0s0,.03,0,.03h0s0,.03,0,.03v.02s0,.01,0,.01h0v.03h0s0,.03,0,.03h0s0,.03,0,.03c0,.02-.02,.05-.02,.07h0s0,.03,0,.03c0,.04,0,.05,0,.09h0s0,.03,0,.03h0v.03h0s0,.03,0,.03v.02s0,.01,0,.01v.02s0,.01,0,.01h0s0,.03,0,.03h0s0,.03,0,.03v.02s0,.01,0,.01h0s0,.03,0,.03v.02s0,.01,0,.01v.02s.02,.08,.03,.11v.02s0,.01,0,.01v.02h0s0,.03,0,.03v.02s0,.01,0,.01h0s0,.03,0,.03h0s.01,.03,.01,.03v.02s0,.01,0,.01h0s0,.03,0,.03h0s0,.03,0,.03h0s0,.03,0,.03h0s0,.03,0,.03v.02s0,.01,0,.01v.02s0,.01,0,.01h0s0,.03,0,.03v.02s0,.01,0,.01h0s0,.03,0,.03v.02h0s0,.03,0,.03h0s0,.03,0,.03h0s0,.03,0,.03v.02s0,.01,0,.01h0s0,.03,0,.03h0s.02,.02,.02,.02h0s.01,.02,.01,.02h.01s.01,0,.01,0h.01s.01,0,.01,0h.01s.01,0,.01,0h.01s.01,0,.01,0h.01s.01,0,.01,0h.01s.01,0,.01,0h.01s.01,0,.01,0h.01s.01,0,.01,0h.01s.01,0,.01,0h.01s.01,0,.01,0h.01s.01,0,.01,0h.01s.01,0,.01,0h.01s.01,0,.01,0h.01s.01,0,.01,0h.01s.01,0,.01,0h.01s.01,0,.01,0h.02s0-.01,0-.01h.02s0-.02,0-.02v-.02h0s0-.03,0-.03h0s0-.03,0-.03h0s0-.03,0-.03h0s0-.03,0-.03h0s0-.03,0-.03h0s0-.03,0-.03h0s0-.03,0-.03h0s0-.03,0-.03v-.02s0-.01,0-.01h0s0-.03,0-.03h.01s0-.03,0-.03h0s0-.03,0-.03h0s0-.03,0-.03h0s0-.03,0-.03h0s0-.03,0-.03h0s0-.03,0-.03c.01-.04,0-.03,.01-.07h0s0-.03,0-.03h0s0-.03,0-.03c0-.02,.02-.05,.02-.07h0s0-.03,0-.03h0s0-.03,0-.03h0s0-.03,0-.03h0v-.03h0s0-.03,0-.03h0s0-.03,0-.03h0s0-.03,0-.03v-.02s0-.01,0-.01h.01s0-.03,0-.03v-.02s0-.01,0-.01v-.02s.01-.05,.02-.07h0s0-.03,0-.03v-.02c.02-.06,.03-.16,.06-.21h0s0-.03,0-.03v-.02s0-.01,0-.01h0s0-.03,0-.03c.03-.05,.01-.05,.02-.09h0s0-.03,0-.03h0s0-.03,0-.03v-.02s0-.01,0-.01v-.03h.01s0-.03,0-.03h0v-.03h0s0-.03,0-.03h0s0-.03,0-.03h0s0-.03,0-.03h0s0-.03,0-.03h0s0-.03,0-.03v-.02h0s0-.03,0-.03h0s.01-.03,.01-.03v-.02h0s0-.03,0-.03v-.02s0-.01,0-.01h0v-.04s0-.01,0-.01h0s0-.03,0-.03h.01s0-.03,0-.03h0s0-.03,0-.03h0s0-.03,0-.03h0s0-.03,0-.03h0s0-.03,0-.03h0s0-.03,0-.03h0s0-.03,0-.03h0s0-.03,0-.03h0s.01-.03,.01-.03h0s0-.03,0-.03h0s-.01-.02-.01-.02h-.01s-.01,0-.01,0h-.01s-.01,0-.01,0h-.01s-.01,0-.01,0h-.01s-.01,0-.01,0h-.01s-.01,0-.01,0h-.01s-.01,0-.01,0h-.01s-.03,0-.03,0h-.01s-.01,0-.01,0h-.01s-.01,0-.01,0h-.03s-.01,0-.01,0c-.03,0-.05,0-.09,0h-.01s-.01,0-.01,0h-.01"/><path class="cls-9" d="M196.56,13.27h0s0,.03,0,.03h0s0,.03,0,.03h0s0,.03,0,.03h0s0,.03,0,.03h0s0,.03,0,.03h0s0,.03,0,.03h0s0,.03,0,.03h0s0,.03,0,.03h0s0,.03,0,.03h0s0,.03,0,.03h0s0,.03,0,.03v.02h0s0,.03,0,.03v.02s0,.01,0,.01h0s0,.03,0,.03h0s0,.03,0,.03v.02h0s0,.03,0,.03h0s0,.03,0,.03h0s0,.03,0,.03h0s0,.03,0,.03h.01s0,.03,0,.03h0s0,.03,0,.03h0s0,.03,0,.03h0s0,.03,0,.03h0s.01,.03,.01,.03h0s0,.03,0,.03v.02s0,.01,0,.01h0c.04,.08,0,.05,.03,.08h0s0,.03,0,.03v.02h.01s0,.03,0,.03v.03s.02,.01,.02,.01h0s0,.03,0,.03h0s0,.03,0,.03h0s0,.03,0,.03h0s0,.03,0,.03h0s0,.03,0,.03h.01s0,.02,0,.02h.01s.01,.01,.01,.01h.01s.01,0,.01,0h.01s.01,0,.01,0h.01s.01,0,.01,0h.01s.01,0,.01,0h.03s.01,0,.01,0h.01s.01,0,.01,0h.04s.01,0,.01,0h.01s.01,0,.01,0h.01s.01,0,.01,0h.03c.05-.02,.07,.02,.14-.01h0s0-.03,0-.03h0s0-.03,0-.03h0s0-.03,0-.03h0s0-.03,0-.03h0v-.03h-.01v-.03h0s0-.03,0-.03h0s0-.03,0-.03h0s0-.03,0-.03h0s0-.03,0-.03h0s0-.03,0-.03h0s0-.03,0-.03h0s0-.03,0-.03h0v-.03h0s0-.03,0-.03h0s0-.03,0-.03v-.02s0-.01,0-.01h0s0-.03,0-.03h0s0-.03,0-.03h0s0-.03,0-.03h0s0-.03,0-.03h0s0-.03,0-.03h0c0-.07-.02-.11-.03-.16v-.02s0-.01,0-.01v-.02s0-.01,0-.01h0s0-.03,0-.03h0s0-.03,0-.03h0v-.03h-.01s0-.03,0-.03h0s0-.03,0-.03h0s0-.03,0-.03h0s0-.03,0-.03h0s0-.03,0-.03v-.03s-.02-.01-.02-.01v-.02s0-.01,0-.01h0s0-.03,0-.03h0s0-.03,0-.03h0s0-.03,0-.03v-.02s0-.01,0-.01h0s0-.03,0-.03h0s0-.03,0-.03h0s0-.03,0-.03h0s0-.03,0-.03h0s0-.03,0-.03v-.02s0-.01,0-.01v-.02s0-.01,0-.01h0s0-.03,0-.03h0s0-.03,0-.03h0s0-.03,0-.03h0s0-.03,0-.03h0s0-.03,0-.03h0s0-.03,0-.03h0s0-.03,0-.03v-.02s0-.01,0-.01h0s0-.03,0-.03h0s-.01-.03-.01-.03h0s0-.03,0-.03v-.02s0-.01,0-.01h0s0-.03,0-.03h0s0-.03,0-.03h0s0-.03,0-.03h0s0-.03,0-.03h0s0-.03,0-.03v-.02s0-.01,0-.01h0s0-.03,0-.03v-.02s0-.01,0-.01h0s0-.03,0-.03h0v-.03h-.01s-.01,0-.01,0c-.02,.03-.01,.05-.02,.09h-.01s0,.03,0,.03h0s0,.03,0,.03h0s0,.03,0,.03h0s0,.03,0,.03h0s0,.03,0,.03h0s-.02,.06-.02,.08h0s0,.03,0,.03h0s0,.03,0,.03c0,.03,0,.05-.02,.07h0s0,.03,0,.03h0s0,.03,0,.03h0s0,.03,0,.03h0s0,.03,0,.03v.02h-.01s0,.03,0,.03h0s0,.03,0,.03h0s0,.03,0,.03h0s0,.03,0,.03h0s0,.03,0,.03h0s0,.03,0,.03h0s0,.03,0,.03v.02h0s0,.03,0,.03h0v.04s-.01,.01-.01,.01v.02s0,.01,0,.01h0s0,.03,0,.03h0"/></g></g><g><path class="cls-9" d="M203.77,80.96h0s0,.03,0,.03h0s0,.03,0,.03c-.01,.05,0,.04,0,.07h0s0,.03,0,.03h0s0,.03,0,.03h0s0,.03,0,.03h0s0,.03,0,.03h0s0,.03,0,.03h0s0,.03,0,.03h0s0,.03,0,.03h0s0,.03,0,.03h0s0,.03,0,.03c0,.02,0,.04,.01,.06h0s0,.03,0,.03h0s0,.03,0,.03h0s0,.03,0,.03c.02,.05,0,.02,.02,.06h0s0,.03,0,.03h0s0,.02,0,.02h0s0,.03,0,.03h0s0,.03,0,.03h0s0,.02,0,.02h0v.03h0s0,.02,0,.02h0s.01,.02,.01,.02h0s0,.02,0,.02c.02,.02,.03,.04,.05,.06h0s.01,.02,.01,.02h0s0,.02,0,.02h.01s0,.02,0,.02h0s0,.02,0,.02h.01s0,.02,0,.02h.02s0,.01,0,.01h0s0,.02,0,.02h0s.01,.02,.01,.02h.01s.01,0,.01,0h.01s0,.02,0,.02h0s.01,.02,.01,.02h.01s.01,0,.01,0h.01s.01,.01,.01,.01h0s.01,0,.01,0h.01s.01,0,.01,0h.01s.01,0,.01,0h.01s.01,0,.01,0h.01s.01,.01,.01,.01h.01s.01,0,.01,0h.01s.01,0,.01,0h.01s.01,0,.01,0h.01s.01,0,.01,0h0s0-.02,0-.02h0s0-.03,0-.03h0s0-.03,0-.03h0s0-.03,0-.03h0s0-.03,0-.03h0s0-.03,0-.03h0s0-.03,0-.03h0s0-.03,0-.03h0s0-.03,0-.03h0s0-.03,0-.03h0s0-.03,0-.03h0s0-.03,0-.03h0s0-.03,0-.03h0s0-.03,0-.03h0s0-.03,0-.03h-.01s0-.02,0-.02h-.01s0-.02,0-.02h-.02s0-.01,0-.01h0s0-.02,0-.02h0s-.01-.02-.01-.02v-.02h-.01s0-.02,0-.02h0s0-.02,0-.02h0s0-.02,0-.02h0s0-.03,0-.03h0s0-.02,0-.02h0s0-.03,0-.03h0s0-.03,0-.03h0s0-.02,0-.02h0s0-.03,0-.03h0s0-.03,0-.03h0s0-.03,0-.03h0s0-.03,0-.03h0s0-.08,0-.12h0s0-.03,0-.03h0s0-.03,0-.03h0s0-.03,0-.03h0s0-.03,0-.03h0s0-.03,0-.03h0v-.03h0s0-.03,0-.03h0s0-.03,0-.03h0s0-.03,0-.03h0s0-.03,0-.03c0-.03,0-.06,0-.09h0v-.03s0-.06,0-.09h0s0-.03,0-.03h0s0-.03,0-.03h0s0-.03,0-.03h0s0-.03,0-.03h0s0-.03,0-.03h0s0-.03,0-.03h0s0-.03,0-.03h0s0-.02,0-.02h0s0-.02,0-.02h0s.01-.02,.01-.02h0s0-.03,0-.03h.01s0-.02,0-.02h.01s0-.02,0-.02h0s0-.02,0-.02h0s0-.02,0-.02h.01s0-.02,0-.02h.02s0-.02,0-.02h0s0-.03,0-.03h0s0-.03,0-.03h0s0-.03,0-.03h0s0-.03,0-.03h0s0-.03,0-.03h0s0-.03,0-.03h0s0-.03,0-.03h0s0-.03,0-.03h0v-.03h0v-.03h0s0-.03,0-.03h0v-.03s.02-.05-.02-.07h-.01s-.01-.01-.01-.01h-.01s-.01,0-.01,0h-.01s-.01,0-.01,0h-.01s-.01,0-.01,0h-.01s-.01,0-.01,0h-.01s-.01,.01-.01,.01h-.01s-.01,0-.01,0h-.01s-.01,0-.01,0h-.01s-.01,.01-.01,.01h-.02s-.01,.01-.01,.01h0s-.01,.02-.01,.02h-.01s-.02,0-.02,0h0s-.01,.02-.01,.02h0s-.01,.02-.01,.02h0s0,.02,0,.02h-.01s0,.01,0,.01h-.01s0,.02,0,.02h-.01s0,.02,0,.02h0s-.01,.02-.01,.02h0s-.01,.02-.01,.02h0s-.01,.02-.01,.02h0s0,.02,0,.02h-.01s0,.02,0,.02h0s0,.02,0,.02h0c-.03,.05-.03,.06-.05,.1h0s0,.03,0,.03h-.01v.02h0s0,.03,0,.03h0s0,.02,0,.02h0s0,.02,0,.02h0s0,.03,0,.03h0s0,.03,0,.03h0s0,.02,0,.02h0c-.03,.08,0,.06-.02,.09h0s0,.03,0,.03h0s0,.03,0,.03h0s0,.03,0,.03h0s0,.03,0,.03h0s0,.03,0,.03h0s0,.03,0,.03c0,.02,0,.05,0,.08h0s0,.03,0,.03h0s0,.03,0,.03h0s0,.03,0,.03h0s0,.03,0,.03h0s0,.03,0,.03h0s0,.03,0,.03"/><path class="cls-9" d="M208.01,79.92h-.01s-.01,0-.01,0h-.01s0,.02,0,.02h-.01s0,.02,0,.02h0s0,.03,0,.03h0s0,.03,0,.03h0s0,.03,0,.03h0s0,.03,0,.03h0s0,.03,0,.03h0s0,.02,0,.02h0s0,.03,0,.03h0s0,.03,0,.03h0s0,.03,0,.03h0s0,.03,0,.03h0v.03h0s0,.03,0,.03h0s0,.02,0,.02h0s0,.03,0,.03h0s0,.03,0,.03h0s0,.03,0,.03h0s0,.03,0,.03h0s-.01,.02-.01,.02h0s0,.03,0,.03h0s0,.03,0,.03h0s0,.02,0,.02v.02s0,.01,0,.01h0v.03h0s0,.03,0,.03h0s0,.02,0,.02h0s0,.03,0,.03h0v.03h0s0,.02,0,.02h0s0,.03,0,.03h0s0,.02,0,.02c0,.06-.03,.11-.04,.17h0s0,.03,0,.03h0s0,.04,0,.04h0s0,.03,0,.03h0s0,.03,0,.03h-.01s0,.02,0,.02c0,.05-.02,.1-.04,.15h0s0,.02,0,.02v.02s0,.01,0,.01h0s0,.03,0,.03h0v.02h0c-.02,.06-.01,.02-.02,.08h0s0,.02,0,.02h0s-.01,.03-.01,.03h0s0,.03,0,.03c0,.03,0,.03-.01,.06h0s0,.02,0,.02h0s0,.03,0,.03h0s0,.03,0,.03h0s0,.03,0,.03h0s0,.03,0,.03h0s0,.03,0,.03h0s0,.03,0,.03h0s0,.03,0,.03h0s0,.03,0,.03h0s0,.03,0,.03c-.02,.03,0,.05-.02,.08h0s0,.02,0,.02h0s-.01,.03-.01,.03v.02s0,.01,0,.01h0s0,.03,0,.03h0s0,.03,0,.03h0s0,.03,0,.03v.02s.03,0,.03,0h.01s.01,0,.01,0h.01s.01,0,.01,0h.01s.01,0,.01,0h.01s.01,0,.01,0h.01s.01,0,.01,0h.01s.01,0,.01,0h.01s.01,0,.01,0h.01s.01,0,.01,0h.01s.01,0,.01,0h.01s.01,0,.01,0h.01s.01,0,.01,0h.03s.01,0,.01,0h.01s.01,0,.01,0h.01s.01,0,.01,0h.01s.01,0,.01,0h.01s.01-.01,.01-.01h.01s.01,0,.01,0v-.02s0-.01,0-.01h0s0-.03,0-.03h0s0-.03,0-.03h0s0-.02,0-.02h0s0-.03,0-.03c0-.02,.02-.04,.01-.06h0s0-.03,0-.03c.01-.03,.01-.05,.02-.07h0s0-.02,0-.02v-.02s0,0,0,0h0s0-.03,0-.03h0s0-.06,.02-.09h0s0-.03,0-.03h0s0-.03,0-.03h0s0-.03,0-.03h0s0-.03,0-.03h0s0-.03,0-.03h0s0-.02,0-.02h0s0-.03,0-.03h0s0-.03,0-.03h0s0-.02,0-.02h0s0-.03,0-.03c-.01-.05,.03-.05,.02-.09h0s0-.03,0-.03h.01s0-.02,0-.02h0s0-.03,0-.03h0s0-.03,0-.03h0s0-.02,0-.02h0s0-.03,0-.03h0s0-.03,0-.03h0s0-.03,0-.03h0s0-.02,0-.02h0s0-.03,0-.03h0s0-.03,0-.03h0s0-.03,0-.03h0s0-.02,0-.02v-.03h0v-.03h0s0-.03,0-.03h0s0-.03,0-.03h0s0-.03,0-.03h0s0-.03,0-.03h0s0-.03,0-.03h0s0-.03,0-.03h0s0-.03,0-.03h0s0-.02,0-.02h0s0-.03,0-.03h0s0-.03,0-.03h0s0-.03,0-.03h.01s0-.02,0-.02h0s0-.03,0-.03h0s0-.03,0-.03h0s0-.03,0-.03h0s0-.03,0-.03h0s.02-.05,.03-.09h0s0-.03,0-.03h0s0-.03,0-.03c0-.02,.03-.05,.02-.08h0s0-.03,0-.03h0s0-.03,0-.03h0s0-.03,0-.03h0v-.03h0s0-.03,0-.03h0s0-.03,0-.03h0s0-.03,0-.03c0-.03,.01-.03,.02-.06h0s0-.02,0-.02c-.03-.02-.05-.01-.07-.01h-.01s-.03,0-.03,0h-.01s-.05,0-.08,0h-.01s-.01,0-.01,0h-.04s-.01,0-.01,0h-.01s-.01,0-.01,0h-.01s-.01,0-.01,0h-.01s-.01,0-.01,0h-.01s-.01,0-.01,0h-.02"/><path class="cls-9" d="M205.67,80.96h0s0,.03,0,.03h0s0,.03,0,.03h0s0,.03,0,.03h0s0,.03,0,.03h0s0,.03,0,.03h0s0,.03,0,.03h0s0,.03,0,.03h0s0,.03,0,.03h0s0,.03,0,.03h0s0,.03,0,.03h0s0,.03,0,.03h0s0,.03,0,.03h0s0,.03,0,.03h0s0,.03,0,.03h0s0,.03,0,.03h0s0,.03,0,.03h0s0,.03,0,.03h0s0,.03,0,.03h0c.01,.05,0,.05,.02,.08h0s0,.03,0,.03h0s0,.03,0,.03h0s0,.02,0,.02h0s0,.03,0,.03h.01s0,.02,0,.02h0s0,.03,0,.03h0s0,.03,0,.03h.01s0,.02,0,.02h0s0,.03,0,.03h.01s0,.02,0,.02h0s0,.02,0,.02h0s0,.02,0,.02h.01s0,.02,0,.02h0s0,.02,0,.02h.01s0,.02,0,.02h.01s0,.02,0,.02h0s.01,.02,.01,.02h0s.01,.02,.01,.02h0s0,.02,0,.02h.02s.01,0,.01,0h0s.01,.01,.01,.01h0s.01,.02,.01,.02h0s.02,0,.02,0h0s.01,.01,.01,.01h0s.01,.02,.01,.02h.02s.01,.01,.01,.01h0s.01,.01,.01,.01h.01s.01,0,.01,0h.01s.01,0,.01,0h.03s.01,0,.01,0h.01s.01,0,.01,0h.01s.01,0,.01,0h.01s.02,0,.02,0h.01s0-.02,0-.02h.01s0-.02,0-.02h0s0-.03,0-.03h0s0-.03,0-.03h0v-.03h0s0-.03,0-.03h0v-.03h0s0-.03,0-.03h0s0-.03,0-.03h0s0-.03,0-.03h0v-.03h0c-.01-.06,0-.04,0-.08h0s0-.03,0-.03h-.01s0-.02,0-.02h-.01s0-.02,0-.02h-.01s0-.02,0-.02h0s0-.02,0-.02h0s0-.02,0-.02h0s0-.02,0-.02h0s0-.02,0-.02h0s0-.02,0-.02h0s0-.03,0-.03h0s0-.02,0-.02h0s0-.02,0-.02h0s0-.03,0-.03h0s0-.03,0-.03h0s0-.02,0-.02h0s0-.03,0-.03h0s0-.03,0-.03h0s0-.03,0-.03h0s0-.03,0-.03h0s0-.03,0-.03h0s0-.03,0-.03h0s0-.03,0-.03h0s0-.03,0-.03h0c0-.07,0-.1,0-.17h0s0-.03,0-.03h0s0-.03,0-.03h0s0-.03,0-.03h0s0-.03,0-.03h0s0-.03,0-.03h0s0-.03,0-.03h0s0-.03,0-.03h0s0-.03,0-.03h0s0-.03,0-.03h0s0-.03,0-.03h0s0-.03,0-.03h0s0-.03,0-.03h0s0-.03,0-.03v-.03h0v-.03h0s0-.03,0-.03h0s.01-.03,.01-.03h0s0-.03,0-.03h0s0-.03,0-.03v-.02s0-.01,0-.01h0s0-.02,0-.02v-.02s0-.01,0-.01h0s.01-.02,.01-.02h0s0-.02,0-.02h0s0-.02,0-.02h0s.01-.02,.01-.02h0s0-.02,0-.02h.01s0-.01,0-.01h.01s.01-.05,.02-.07h0s0-.03,0-.03c0-.02,0-.06,0-.08h0s0-.03,0-.03h0s0-.03,0-.03h0s0-.03,0-.03h0s0-.03,0-.03h0s0-.03,0-.03h0s0-.03,0-.03h0s0-.03,0-.03h0s0-.03,0-.03h0s-.01-.02-.01-.02h-.01s-.01,0-.01,0h-.03s-.01,0-.01,0h-.01s-.01,0-.01,0h-.01s-.01,0-.01,0h-.01s-.01,.01-.01,.01h-.01s-.01,0-.01,0h-.01s-.01,.01-.01,.01h-.02s-.01,0-.01,0h-.01s-.01,.02-.01,.02h-.01s0,.01,0,.01h-.01s-.02,0-.02,0h0s-.01,.01-.01,.01h0s-.01,.01-.01,.01h0s0,.02,0,.02h-.01s-.02,0-.02,0h0s-.01,.02-.01,.02h-.01s-.01,.01-.01,.01h0s-.01,.02-.01,.02h0s0,.02,0,.02h-.01s0,.02,0,.02h-.01s0,.02,0,.02h0s0,.02,0,.02h0s0,.02,0,.02h-.01s0,.02,0,.02h0s0,.03,0,.03h0s0,.02,0,.02h-.01s0,.02,0,.02h0s0,.02,0,.02h0s0,.02,0,.02h0s-.01,.02-.01,.02h0s0,.03,0,.03h0s0,.02,0,.02c-.03,.07,0,.05-.03,.09h0s0,.03,0,.03h0s0,.02,0,.02h0s0,.03,0,.03h0s0,.03,0,.03h0v.03h0s0,.03,0,.03h0s0,.03,0,.03h0s0,.03,0,.03h0s0,.03,0,.03h0s0,.03,0,.03h0s0,.03,0,.03h0s0,.03,0,.03h0s0,.03,0,.03h0s0,.03,0,.03h0s0,.03,0,.03h0s0,.03,0,.03h0v.03h0s0,.03,0,.03h0v.03h0"/><path class="cls-9" d="M211.95,80.96h0s-.02,0-.02,0h0s-.01-.02-.01-.02c-.05-.03-.05-.03-.09-.05h-.01s-.01-.01-.01-.01h0s-.01-.01-.01-.01h-.01s0-.01,0-.01h-.01s-.01-.01-.01-.01h-.01s-.01,0-.01,0h-.03s-.01,0-.01,0h-.01s-.01-.01-.01-.01h-.01s-.01,0-.01,0h-.01s-.01-.01-.01-.01h-.01s-.01,0-.01,0h-.02s-.01,0-.01,0h-.01s-.01,0-.01,0h-.01s-.01-.01-.01-.01h-.01s-.01,0-.01,0h-.01s-.01-.02-.01-.02h-.01s-.01,0-.01,0h-.01s-.01,0-.01,0h-.01s-.01-.01-.01-.01h-.01s-.01,0-.01,0h-.01s-.01-.01-.01-.01h-.01s-.01,0-.01,0h-.01s-.01,0-.01,0h-.01s-.01,0-.01,0h-.01s-.01-.01-.01-.01h-.01s-.01,0-.01,0h-.01s-.01-.02-.01-.02h-.01s-.01,0-.01,0h-.01s-.01,0-.01,0h-.01s-.01,0-.01,0h-.01s0-.01,0-.01h0s-.01-.01-.01-.01h-.01s0-.01,0-.01h0s0-.02,0-.02h0s0-.02,0-.02h0s0-.02,0-.02c-.02-.03-.02-.08-.02-.11h0s0-.03,0-.03h.01s0-.03,0-.03h.01s0-.02,0-.02h0s0-.02,0-.02h0s.01-.02,.01-.02h.01s0-.01,0-.01h.01s.01-.01,.01-.01h.01s.01,0,.01,0h.01s.01,0,.01,0h.01s.01,0,.01,0h.01s0,0,0,0h.01s0-.01,0-.01h0s0-.02,0-.02h0s0-.03,0-.03h0s0-.03,0-.03h0s0-.03,0-.03h0s0-.03,0-.03h0s0-.03,0-.03h0s0-.03,0-.03h0s0-.03,0-.03h0s0-.03,0-.03h0s0-.03,0-.03h0v-.03h0s0-.03,0-.03h0s0-.03,0-.03h0s0-.02,0-.02h0s0-.02,0-.02h-.03s-.01,0-.01,0h-.01s-.01,0-.01,0h-.01s-.01,0-.01,0h-.01s-.01,0-.01,0h-.01s-.01,0-.01,0h-.01s-.01,0-.01,0h-.01s-.01,0-.01,0h-.01s-.01,0-.01,0h-.01s-.01,0-.01,0h-.01s-.01,.01-.01,.01h-.01s-.01,0-.01,0c-.02,0-.04,.01-.06,.02h-.01s-.01,0-.01,0h-.01s-.01,.01-.01,.01h0s-.01,.01-.01,.01h0s-.01,.02-.01,.02h-.02s-.01,.02-.01,.02h0s-.01,.02-.01,.02h0s0,.02,0,.02h-.01s-.01,.01-.01,.01h0s0,.02,0,.02h0s-.01,.01-.01,.01h0s-.01,.02-.01,.02h0s0,.02,0,.02h0s0,.02,0,.02h0s0,.02,0,.02h0s-.01,.02-.01,.02h0s0,.03,0,.03h-.01s0,.02,0,.02v.02s0,0,0,0h0s0,.03,0,.03h0s0,.02,0,.02h0v.03h0s0,.03,0,.03h0s0,.02,0,.02h0s0,.03,0,.03h0s0,.03,0,.03h0s0,.03,0,.03h0s0,.03,0,.03h0v.03h0s0,.03,0,.03h0s0,.04,0,.04h0s0,.03,0,.03h0s0,.03,0,.03h0s0,.03,0,.03c.03,.04,0,.04,.03,.07h0v.03s.02,.03,.04,.06h0s0,.02,0,.02h.01s0,.02,0,.02h.01s0,.02,0,.02h0s.01,.02,.01,.02h0s.01,.02,.01,.02h0s0,.02,0,.02h.01s0,.02,0,.02h.01s0,.02,0,.02h.02s0,.01,0,.01h.01s.01,.01,.01,.01h0s.01,.02,.01,.02h.01s.01,0,.01,0h0s.01,.01,.01,.01l.02,.02h.01s.01,0,.01,0h0s.01,.01,.01,.01h.01s.01,.02,.01,.02h.03s.01,0,.01,0h.01s.01,.01,.01,.01h.01c.07,.01,.03,.03,.06,.03h.01s.01,0,.01,0h0s.02,0,.02,0h0s.01,0,.01,0h0s.01,.01,.01,.01h.01s.01,0,.01,0h.01s.01,0,.01,0h.01s.01,0,.01,0h.01s.01,0,.01,0h.01s.01,.01,.01,.01h.03s.01,0,.01,0h.01s.01,0,.01,0h.01s.01,.02,.01,.02h.01s.01,0,.01,0h.01s.01,0,.01,0h.01s.01,0,.01,0h.01s.01,.01,.01,.01h.01s.01,0,.01,0h.01s.01,0,.01,0h.01s.01,0,.01,0h0s.02,0,.02,0c.04,.04,.02,0,.05,.04h.01s0,.02,0,.02h0s0,.02,0,.02h.01s0,.02,0,.02h0s0,.03,0,.03h0s0,.03,0,.03h0s0,.03,0,.03h0s0,.03,0,.03h0s0,.03,0,.03h0s0,.02,0,.02h0s0,.02,0,.02h-.01s0,.02,0,.02h0s-.01,.01-.01,.01h-.01s0,.02,0,.02h-.01s-.01,.01-.01,.01h-.01s-.01,0-.01,0h-.01s-.01,.01-.01,.01h-.01s-.01,0-.01,0h-.01s-.01,0-.01,0h-.01s-.01,.01-.01,.01h-.01s-.01,.01-.01,.01h0s0,.02,0,.02h0s0,.03,0,.03h0v.03h0s0,.03,0,.03h0s0,.03,0,.03h0s0,.03,0,.03h0s0,.03,0,.03h0s0,.03,0,.03h0v.03h0s0,.03,0,.03h0s0,.03,0,.03h0s0,.03,0,.03h0s0,.03,0,.03h0s.01,.02,.01,.02h0s.01,.01,.01,.01h.01s.01,0,.01,0h.01s.01,0,.01,0h.01s.01,0,.01,0h.01s.01,0,.01,0h.01s.01,0,.01,0h.01s.01,0,.01,0h.01s.01,0,.01,0h.01s.01,0,.01,0h.01c.06-.01,.08-.03,.14-.05h.01s.01,0,.01,0h.01s0-.02,0-.02h.01s0,0,0,0h.01s0-.01,0-.01h.01s0-.01,0-.01h.01s.01-.01,.01-.01h.01s.01,0,.01,0h0s0-.02,0-.02h0s.01-.02,.01-.02h.01s0-.02,0-.02h.01s0-.01,0-.01h0s0-.02,0-.02l.02-.02h0s0-.02,0-.02h.01s0-.02,0-.02h0s0-.03,0-.03h.01s0-.02,0-.02h0s.03-.06,.03-.08h0s0-.02,0-.02h0s0-.03,0-.03h0s0-.02,0-.02h0s0-.03,0-.03h0s0-.03,0-.03h0v-.03c.01-.07,0-.15-.01-.22h0s-.01-.02-.01-.02h0s0-.03,0-.03h-.01s0-.02,0-.02h0v-.03h0s-.01-.02-.01-.02h0s0-.03,0-.03h0s-.01-.02-.01-.02h0s0-.02,0-.02h0s-.01-.02-.01-.02h0s0-.02,0-.02h-.01s0-.02,0-.02h-.01s0-.01,0-.01h0s0-.02,0-.02h0"/><path class="cls-9" d="M202.42,79.98h0s-.01-.02-.01-.02h0s-.01-.02-.01-.02c-.02,0-.05-.01-.08,0h-.01s-.01,0-.01,0c-.03,0-.05,0-.08,0h-.01s-.01,0-.01,0h-.01s-.01,0-.01,0h-.01s-.01,0-.01,0h-.01s-.01,0-.01,0h-.04s-.01,0-.01,0h-.01s-.01,0-.01,0h-.01s-.01,0-.01,0h-.01s-.01,0-.01,0h-.01s-.01,0-.01,0h-.01s0,.02,0,.02h-.01s0,.02,0,.02h0s0,.03,0,.03h0s0,.03,0,.03h0v.03s-.02,.04-.02,.06h0s0,.03,0,.03h0s0,.03,0,.03h0s0,.03,0,.03h0s0,.03,0,.03h0s0,.02,0,.02c0,.02-.02,.05-.02,.06h0s0,.03,0,.03h-.01s0,.02,0,.02h0s0,.02,0,.02h0s0,.03,0,.03h0s0,.03,0,.03h0s0,.03,0,.03c0,.03-.01,.05-.02,.07h0s0,.03,0,.03h0s0,.03,0,.03h-.01v.04h0s0,.02,0,.02h0s0,.03,0,.03h0s-.01,.04-.01,.04h0s0,.02,0,.02h0s0,.03,0,.03h0v.03h0s0,.02,0,.02h0s0,.03,0,.03h-.01s0,.02,0,.02h0s0,.03,0,.03h0s0,.02,0,.02h0c0,.07-.03,.05-.02,.09h0s0,.02,0,.02h0s0,.03,0,.03h0s0,.03,0,.03c-.02,.06,0,.04-.02,.08h0s0,.02,0,.02h0s0,.03,0,.03h0s0,.03,0,.03h0s0,.02,0,.02h0v.05s-.02,.06-.03,.07h0s0,.03,0,.03h0s0,.03,0,.03h0v.03h0s0,.02,0,.02h0s0,.03,0,.03h0s0,.03,0,.03h-.01v.02h0s0,.03,0,.03h0s0,.03,0,.03h0s0,.02,0,.02h0s0,.03,0,.03h0s0,.03,0,.03h0s0,.03,0,.03h0s0,.03,0,.03h0s0,.03,0,.03h0s0,.03,0,.03c0,.05,0,.02-.02,.06h0s0,.03,0,.03h0s0,.03,0,.03h0v.04h0s0,.03,0,.03h0s0,.03,0,.03h.01s0,.02,0,.02h0s.01,.01,.01,.01h.03s.01,0,.01,0h.01s.01,0,.01,0h.01s.03,0,.03,0h.03s.01,0,.01,0h.01s.01,0,.01,0h.01s.01,0,.01,0h.01s.03,0,.03,0c.03,0,.07,0,.09,0h.01s.01,0,.01,0c.04,0,.05,.01,.08-.02h.01s0-.02,0-.02v-.02s0-.01,0-.01v-.03h0s0-.02,0-.02h0v-.03h0v-.03h0s.01-.02,.01-.02h0s0-.03,0-.03h0s0-.03,0-.03h0v-.03h.01s0-.02,0-.02h0s0-.03,0-.03h0s0-.03,0-.03h0s0-.03,0-.03h0s0-.03,0-.03h0s0-.03,0-.03h0s0-.03,0-.03c.02-.04,.01-.04,.02-.08h0s0-.03,0-.03h0s0-.03,0-.03h0s0-.02,0-.02h0s0-.03,0-.03h0s0-.02,0-.02h0v-.03h0v-.03h0s0-.02,0-.02h0s0-.03,0-.03h0s0-.02,0-.02h0s0-.03,0-.03h0s0-.02,0-.02h0s.01-.03,.01-.03h0v-.03h0s0-.02,0-.02h0s0-.03,0-.03v-.02s0-.01,0-.01h0s0-.03,0-.03h0s0-.02,0-.02v-.02s0-.01,0-.01h0s0-.03,0-.03h0s0-.02,0-.02h0s.01,0,.01,0h.01s0,.01,0,.01h0s0,.03,0,.03h0s0,.03,0,.03h0s0,.02,0,.02v.03h0s0,.03,0,.03h0s0,.02,0,.02h0s0,.03,0,.03h0s0,.03,0,.03h0s0,.03,0,.03h0s0,.03,0,.03h0s0,.03,0,.03h0v.03h0s0,.03,0,.03h0s0,.03,0,.03h0s0,.02,0,.02h0s0,.03,0,.03h0s0,.03,0,.03h0s0,.02,0,.02h0s0,.03,0,.03h0s0,.03,0,.03h0s0,.03,0,.03h0c0,.07,.02,.04,.01,.08h0s0,.02,0,.02h0s0,.03,0,.03h0s0,.03,0,.03h0s0,.02,0,.02h0s0,.03,0,.03h0s0,.06,.02,.08h0s0,.02,0,.02h0s0,0,0,0h0s0-.03,0-.03h0s0-.02,0-.02h0s0-.03,0-.03h0s0-.03,0-.03h0s0-.03,0-.03h0s0-.03,0-.03h0s0-.03,0-.03h.01s0-.02,0-.02h0s0-.03,0-.03h0s0-.03,0-.03h0s0-.02,0-.02h0s0-.03,0-.03h.01s0-.03,0-.03h0s.01-.07,.03-.1h0s0-.03,0-.03c0-.03,.02-.06,.02-.09h0s0-.03,0-.03h0s0-.02,0-.02h0s0-.03,0-.03h0s0-.02,0-.02h0s0-.03,0-.03h0s0-.03,0-.03h0s0-.03,0-.03h0s0-.03,0-.03h0s0-.02,0-.02h0s0-.03,0-.03h0s0-.03,0-.03h0s0-.03,0-.03h0c0-.05,0-.06,0-.1h0s0-.02,0-.02h0s0-.03,0-.03h0v-.03h0s0-.02,0-.02h0s0-.03,0-.03h0s0-.03,0-.03h0s0-.03,0-.03h0s0-.02,0-.02h0s0-.03,0-.03h0v-.02h0v-.03h0s0-.03,0-.03h0s0-.02,0-.02h0v-.04h0s0-.02,0-.02h0v-.03h0s0-.02,0-.02h0s0-.02,0-.02h0s0-.03,0-.03h0s0-.03,0-.03h0s0-.03,0-.03h0s0-.02,0-.02h0s0-.03,0-.03h0v-.02h0s0-.03,0-.03h0v-.02h0s0-.02,0-.02v-.02s0-.01,0-.01h0s0-.02,0-.02h0s0-.03,0-.03h0s0-.03,0-.03h0s0-.03,0-.03h0s0-.02,0-.02h0"/><path class="cls-9" d="M204.69,79.88h-.01s-.01,.01-.01,.01h-.02s0,.02,0,.02h0s0,.03,0,.03h0s0,.03,0,.03c.01,.03,0,.04,0,.08h0s0,.03,0,.03h0s0,.03,0,.03h0v.04h0s0,.03,0,.03h0s0,.03,0,.03h0s0,.03,0,.03h0s0,.03,0,.03c0,.07,.06,.07,.09,.11h0s0,.03,0,.03h.01v.02h0s0,.02,0,.02h0s0,.03,0,.03h0s0,.02,0,.02h0s0,.03,0,.03h0s0,.03,0,.03h0s0,.02,0,.02h0s0,.03,0,.03h0s0,.03,0,.03h0s0,.03,0,.03h0s0,.03,0,.03h0s0,.03,0,.03h0s0,.03,0,.03h0s0,.03,0,.03h0s0,.03,0,.03h0s0,.03,0,.03h0s0,.03,0,.03h0s0,.03,0,.03h0s0,.03,0,.03h0s0,.03,0,.03h0s0,.03,0,.03h0s0,.03,0,.03h0s0,.03,0,.03h0s0,.03,0,.03h0s0,.03,0,.03h0s0,.03,0,.03h0s0,.03,0,.03v.03h0s0,.03,0,.03h0s0,.03,0,.03h0s0,.03,0,.03h0s0,.03,0,.03h0v.03h0s0,.03,0,.03h0s0,.03,0,.03h0s0,.03,0,.03h0v.04h0s0,.02,0,.02v.03s0,.01,0,.01h0s0,.02,0,.02h0s0,.03,0,.03h0s0,.03,0,.03h0v.03h0s0,.02,0,.02h0s0,.02,0,.02h0s0,.02,0,.02h0s0,.02,0,.02h0s0,.02,0,.02h-.01s-.01,0-.01,0h0s-.01,.02-.01,.02h0s0,.03,0,.03h0s0,.03,0,.03h0s0,.03,0,.03h0s0,.03,0,.03h0s0,.03,0,.03h0s0,.03,0,.03h0s0,.03,0,.03h0s0,.03,0,.03h0s0,.03,0,.03h0s0,.03,0,.03h0s0,.03,0,.03h0s0,.03,0,.03h0s0,.03,0,.03h0s0,.03,0,.03h0s0,.02,0,.02h0s.02,.01,.02,.01h.01s.01,0,.01,0c.04,0,.07-.01,.1-.01h0s.01,0,.01,0h.01s.01,0,.01,0h0s.02-.01,.02-.01h0s.01,0,.01,0h.01s.01-.01,.01-.01h.01s0-.01,0-.01h.01s.01,0,.01,0h0s.01-.01,.01-.01h0s.01-.02,.01-.02h.01s0-.01,0-.01h.01s0-.02,0-.02h0s.01-.01,.01-.01h0s.01-.02,.01-.02h0s.01-.02,.01-.02h0s0-.02,0-.02h.01s.03-.04,.04-.07h.01s0-.02,0-.02h0s0-.02,0-.02h0s0-.02,0-.02h0s0-.02,0-.02h0s0-.02,0-.02h0s0-.02,0-.02h0s0-.02,0-.02c0-.02,.02-.06,.02-.07h0s0-.03,0-.03h0s0-.03,0-.03c0-.03,.02-.05,.02-.07h0s0-.03,0-.03h0s0-.03,0-.03h0s0-.03,0-.03h0s0-.03,0-.03h0s0-.03,0-.03h0v-.03h0s0-.03,0-.03h0s0-.03,0-.03h0s0-.03,0-.03h0s0-.03,0-.03h0s0-.03,0-.03h0s0-.03,0-.03h0s0-.03,0-.03h0s0-.03,0-.03h0s0-.03,0-.03h0s0-.03,0-.03h0s0-.03,0-.03h0s0-.03,0-.03h0s0-.03,0-.03h0v-.03h0s0-.03,0-.03h0s0-.03,0-.03h0s0-.03,0-.03h0s0-.03,0-.03h0s0-.03,0-.03h0s0-.03,0-.03h0s0-.03,0-.03h0s0-.03,0-.03h0s0-.03,0-.03h0s0-.02,0-.02h0s0-.03,0-.03h0s0-.03,0-.03v-.03h0s0-.03,0-.03h0s0-.03,0-.03h0v-.03h0s0-.02,0-.02h0s0-.04,0-.04h0s-.02-.06-.03-.09h0s0-.02,0-.02h0s0-.02,0-.02h0s0-.03,0-.03h0s0-.02,0-.02h-.01s0-.02,0-.02h0s0-.02,0-.02v-.03s-.02-.01-.02-.01h-.01s0-.02,0-.02h0s-.01-.02-.01-.02h-.01s0-.02,0-.02h0s0-.02,0-.02c-.02,0-.03-.02-.05-.04h0s0-.02,0-.02h0s-.01-.02-.01-.02h-.01s-.01,0-.01,0h-.01s0-.02,0-.02h-.01s-.01-.01-.01-.01h0s0-.02,0-.02h-.02s-.01,0-.01,0h-.01s-.01,0-.01,0h-.01s-.01,0-.01,0h0s-.02,0-.02,0h-.01s-.01,0-.01,0h-.01s-.01,0-.01,0h-.01s-.01,0-.01,0h-.01s-.01,0-.01,0h-.01s-.01-.01-.01-.01"/><path class="cls-9" d="M206.59,79.88h-.01s-.02,0-.02,0v.02s-.01,.01-.01,.01h0v.04h0s0,.03,0,.03h0s0,.03,0,.03h0v.03h0v.03h0s0,.03,0,.03h0s0,.03,0,.03h0s0,.03,0,.03c0,.02,0,.04,0,.07h0s0,.03,0,.03c-.01,.04,0,.03,.02,.06h0s0,.02,0,.02h.01s0,.01,0,.01h0s.01,.02,.01,.02h0s.01,.02,.01,.02h0s0,.03,0,.03h.01v.02s.02,.02,.02,.06h0s0,.02,0,.02h0s0,.03,0,.03h0s0,.03,0,.03h0s0,.03,0,.03h0s0,.03,0,.03h0c.02,.06,0,.03,0,.08h0s0,.03,0,.03h0s0,.03,0,.03h0s0,.03,0,.03h0s0,.03,0,.03h0s0,.03,0,.03h0s0,.03,0,.03h0s0,.03,0,.03h0s0,.03,0,.03h0s0,.03,0,.03h0s0,.03,0,.03h0s0,.03,0,.03h0s0,.03,0,.03h0s0,.03,0,.03h0s0,.08,0,.1h0s0,.03,0,.03h0s0,.03,0,.03h0s0,.03,0,.03h0s0,.03,0,.03h0s0,.03,0,.03v.04h0s0,.03,0,.03h0s0,.03,0,.03h0s-.01,.02-.01,.02h0s0,.03,0,.03h0s0,.02,0,.02h0s0,.03,0,.03h0s0,.03,0,.03h0s0,.02,0,.02h0s0,.02,0,.02h0s0,.03,0,.03h0s0,.02,0,.02h0s0,.02,0,.02h0s0,.02,0,.02h0s0,.02,0,.02h-.01s0,.02,0,.02h0s0,.02,0,.02h-.01s0,.02,0,.02h0s0,.03,0,.03h0s0,.03,0,.03h0s0,.03,0,.03h0s0,.03,0,.03h0s0,.03,0,.03h0s0,.03,0,.03h0s0,.03,0,.03h0s0,.03,0,.03h0s0,.03,0,.03h0s0,.03,0,.03h0s0,.03,0,.03h0s0,.03,0,.03v.03h0s.01,.02,.01,.02h.01s.01,0,.01,0h.01s.01,0,.01,0h.01s.01,0,.01,0h.03s.01,0,.01,0h.03s.01,0,.01,0c.03-.02,.06-.02,.09-.03h0s.02,0,.02,0h0s.01-.02,.01-.02h.01s0-.02,0-.02h.01s.01,0,.01,0h0s.01-.01,.01-.01h0s.01-.01,.01-.01h0s0-.02,0-.02h.01s.01-.01,.01-.01h0s0-.02,0-.02h.01s0-.02,0-.02h0s.01-.02,.01-.02h0s.01-.02,.01-.02h0s0-.02,0-.02h0s0-.02,0-.02h0s0-.02,0-.02h0s0-.02,0-.02h0s0-.02,0-.02h0s0-.02,0-.02h0s0-.03,0-.03h0s0-.02,0-.02h0v-.03h0s0-.02,0-.02h0s0-.02,0-.02h0s0-.03,0-.03h0s0-.02,0-.02h0s0-.03,0-.03v-.03s0-.01,0-.01h0s0-.03,0-.03h0s.01-.02,.01-.02h0s0-.03,0-.03h0v-.03h0s0-.03,0-.03h0s0-.03,0-.03h0s0-.03,0-.03h0s.02-.07,0-.1h0s0-.03,0-.03h0s0-.03,0-.03h0s0-.03,0-.03h0s0-.03,0-.03h0s0-.03,0-.03h0s0-.03,0-.03h0s0-.03,0-.03h0s0-.03,0-.03h0s0-.03,0-.03h0s0-.03,0-.03h0s0-.03,0-.03h0s0-.03,0-.03h0s0-.03,0-.03h0s0-.06,0-.09h0s0-.03,0-.03h0s0-.03,0-.03h0s0-.03,0-.03h0s0-.03,0-.03h0s0-.03,0-.03h0s0-.03,0-.03h0s-.01-.07-.02-.1h0s0-.03,0-.03c0-.03-.02-.06-.02-.09h0s0-.03,0-.03h0s-.01-.02-.01-.02h0s0-.03,0-.03c-.04-.04,0-.02-.04-.07h0s-.01-.02-.01-.02h0s0-.02,0-.02h-.01s0-.02,0-.02h0s0-.02,0-.02h-.01s0-.02,0-.02h0s-.01-.02-.01-.02h0s0-.02,0-.02h0s0-.02,0-.02h-.02s0-.02,0-.02h0s-.01-.02-.01-.02h0s-.01-.02-.01-.02h0s-.01-.02-.01-.02h-.01s-.01-.01-.01-.01h0s-.01-.01-.01-.01h0s-.01-.01-.01-.01h0s-.01-.01-.01-.01h-.02s-.02,0-.02,0h-.01s-.04-.02-.06-.03h-.01s-.01,0-.01,0c-.02,0-.04-.01-.06,0h-.01s-.01,0-.01,0"/><path class="cls-9" d="M210.91,81.35h0s0-.02,0-.02h0s-.01-.02-.01-.02h0s-.01-.01-.01-.01h-.01s-.01,0-.01,0h-.01s-.01,0-.01,0h-.01s-.01,0-.01,0h-.01s-.01,0-.01,0h-.01s-.01,0-.01,0h-.01s-.01,0-.01,0h-.01s-.01,0-.01,0h-.01s-.01,0-.01,0h-.01s-.01,0-.01,0c-.06,0-.01-.01-.08,0h-.01s-.01,0-.01,0h-.01s-.01,0-.01,0h-.01s-.01,0-.01,0h-.01s-.03,0-.03,0h-.01s0,.02,0,.02h0s0,.06,.01,.09h0s0,.03,0,.03c.02,.04,0,.01,.02,.08h0s0,.03,0,.03h0s0,.02,0,.02h0s0,.02,0,.02h0s0,.03,0,.03h0s0,.03,0,.03h0s0,.02,0,.02h0s0,.03,0,.03h0s0,.02,0,.02h.01s0,.02,0,.02h0s0,.02,0,.02h0s0,.02,0,.02h0s.01,.02,.01,.02h0s0,.02,0,.02h.01s.01,.01,.01,.01v.02s.01,0,.01,0h0s0,.02,0,.02h.01s0,.01,0,.01h0s.02,.01,.02,.01h0s0,.02,0,.02h.01s.01,.01,.01,.01h0s0,.02,0,.02h.01s.01,0,.01,0h.01s.01,.02,.01,.02h.03s.01,.01,.01,.01h.01s.01,.01,.01,.01h.01s.01,.01,.01,.01h.01s.01,0,.01,0h.01s.01,0,.01,0h.01s.01,.01,.01,.01h.01s.01,0,.01,0h.01s.01,.01,.01,.01h.01s.01,0,.01,0h.01s.01,0,.01,0h.01s.01,0,.01,0h.01s.01,0,.01,0h.01s.01,0,.01,0c.06,0,.06,0,.08-.06h0s0-.03,0-.03h0s0-.03,0-.03c0-.03-.01-.08,0-.11h0s0-.03,0-.03h0s0-.03,0-.03h0s0-.03,0-.03h0v-.03h0s0-.03,0-.03v-.03s0-.01,0-.01h-.02s0-.01,0-.01h-.01s-.01,0-.01,0h-.01s-.01,0-.01,0h-.01s-.01,0-.01,0h0s-.01-.02-.01-.02h-.01s-.01-.01-.01-.01h-.01s0-.02,0-.02h0s0-.02,0-.02h-.01s0-.02,0-.02h0s0-.02,0-.02h0s-.01-.02-.01-.02h0s0-.03,0-.03h-.01s0-.02,0-.02h0s0-.02,0-.02h0s0-.03,0-.03h0s0-.03,0-.03h0s0-.03,0-.03"/><path class="cls-9" d="M211.64,80.56h0s0,.02,0,.02h0s0,.02,0,.02h.02s.01,0,.01,0h.01s.03,0,.03,0h.01s.01,0,.01,0c.04,0,.07,0,.1,0h.01s.01,0,.01,0h.01s.01,0,.01,0h.01s.01,0,.01,0h.03s.01,0,.01,0h.01s.01,0,.01,0h.01s.01,0,.01,0h.01s.01,0,.01,0h.01s.01,0,.01,0h.01s.01,0,.01,0h.01s0-.02,0-.02h0s0-.03,0-.03h0s0-.03,0-.03h0s0-.03,0-.03h0s0-.03,0-.03h0s0-.02,0-.02v-.03h0s0-.02,0-.02h0s0-.03,0-.03h0s0-.03,0-.03c-.02-.03-.03-.12-.06-.14h0v-.03h-.01s0-.02,0-.02h0s0-.02,0-.02h-.01s0-.02,0-.02h0s0-.02,0-.02h-.01s0-.02,0-.02h0s-.01-.02-.01-.02h0s-.01-.02-.01-.02h-.01s0-.02,0-.02h0s-.01-.02-.01-.02h-.01s-.01-.01-.01-.01h-.01s0-.01,0-.01h-.01s0-.02,0-.02h-.01s0-.01,0-.01h-.01s0,0,0,0h-.01s-.01,0-.01,0h-.01s-.01,0-.01,0h-.01s-.01-.01-.01-.01h-.01s-.01,0-.01,0h0s-.01,0-.01,0h-.01s-.01,0-.01,0h-.01s-.01,0-.01,0h-.01s-.01,0-.01,0h-.01s-.01,0-.01,0h-.01s-.01,0-.01,0h-.01s-.05-.02-.08-.02h-.03s-.01,0-.01,0h-.01s-.01,0-.01,0h-.01s0,.02,0,.02h0s0,.03,0,.03h0v.03h0s0,.03,0,.03h0s0,.03,0,.03h0s0,.03,0,.03h0s0,.03,0,.03h0s0,.03,0,.03h0s0,.03,0,.03h0s0,.03,0,.03h0s0,.03,0,.03h0s0,.03,0,.03h0s0,.03,0,.03h0c.02,.05,.02,.05,.06,.06h.02s.01,.01,.01,.01h.01s.01,0,.01,0h.01s0,.02,0,.02h.01s0,.01,0,.01h.01s0,.02,0,.02h0s.01,.01,.01,.01v.02s.02,0,.02,0h0s.02,.05,.03,.07h0v.03h0s0,.02,0,.02h0s0,.03,0,.03h0s0,.03,0,.03h0"/><path class="cls-9" d="M202.58,81.95h0s0,.03,0,.03h.01s0,.01,0,.01h.01s.01,0,.01,0h.03s.01,0,.01,0h.01s.01,0,.01,0h.03s.01,0,.01,0h.01s.01,0,.01,0h.01s.01,0,.01,0h.01s.01,0,.01,0h.01s.03,0,.03,0h.01s.01,0,.01,0h.01s.01,0,.01,0h.01s.01,0,.01,0h.01s.01,0,.01,0h.01s.01,0,.01,0h.01s.01,0,.01,0h.01s.01,0,.01,0h.01s.01-.01,.01-.01v-.02s0-.01,0-.01h0s0-.03,0-.03h0v-.02h0s0-.03,0-.03h0s0-.02,0-.02h0s0-.03,0-.03h0v-.03h0s0-.02,0-.02h0s0-.03,0-.03h0s0-.03,0-.03h0s0-.03,0-.03h0s0-.03,0-.03h0s0-.02,0-.02c0-.03,.02-.07,.03-.1h0s0-.03,0-.03h0s0-.03,0-.03h0s0-.03,0-.03h0v-.03h0s0-.03,0-.03h0s0-.03,0-.03h0v-.03h0s0-.02,0-.02h0s0-.03,0-.03h0s0-.03,0-.03h0s0-.03,0-.03h0s0-.02,0-.02h0v-.04h0s0-.02,0-.02h0s0-.03,0-.03h0s0-.03,0-.03h0s0-.03,0-.03h0s0-.03,0-.03h0s0-.03,0-.03h0s0-.03,0-.03h0s0-.03,0-.03h0s0-.03,0-.03h0s0-.02,0-.02h0v-.03h0s0-.03,0-.03h0s0-.03,0-.03h0s0-.03,0-.03h0s0-.03,0-.03h0v-.03h0s0-.02,0-.02h0s.01-.03,.01-.03h0s0-.03,0-.03h0s0-.03,0-.03h0s0-.02,0-.02v-.02s0-.01,0-.01h0s0-.03,0-.03h0s0-.02,0-.02h0s0-.03,0-.03h0s0-.03,0-.03h0s0-.03,0-.03h0s0-.03,0-.03h0s0-.03,0-.03h0s0-.02,0-.02h0v-.03h0s0-.02,0-.02h0s0-.03,0-.03h0s0-.03,0-.03h0s0-.02,0-.02h0s0-.03,0-.03h0s0-.03,0-.03h0s0-.03,0-.03h0s0-.02,0-.02h0s0-.03,0-.03h0s0-.02,0-.02h0s0-.03,0-.03h0s.01-.02,.01-.02h0s0-.03,0-.03h0s0-.03,0-.03h0v-.03h0c0-.08,0,0,.02-.07h0s0-.03,0-.03h0s0-.02,0-.02h-.01s-.01,0-.01,0h-.01s-.04,0-.06,0h-.03s-.01,0-.01,0h-.01s-.01,0-.01,0h-.01s-.01,0-.01,0h-.01s-.01,0-.01,0h-.01s-.01,0-.01,0h-.01s-.05,0-.08,0h-.01s-.01,0-.01,0h-.03s-.01,0-.01,0h-.01s-.01,0-.01,0h-.01s-.01,.01-.01,.01h0s-.01,.02-.01,.02v.02s0,.01,0,.01h0s0,.03,0,.03h0s0,.02,0,.02h0s0,.03,0,.03h0s-.01,.03-.01,.03h0v.03h0s0,.02,0,.02h0s0,.03,0,.03h0s0,.03,0,.03h0s0,.02,0,.02h0s0,.03,0,.03h0s0,.03,0,.03h0s0,.03,0,.03h0s0,.02,0,.02h0s0,.03,0,.03h0s0,.02,0,.02h0s0,.03,0,.03h0s0,.02,0,.02h0s0,.03,0,.03h0s0,.02,0,.02h0s0,.03,0,.03h0v.03h-.01s0,.02,0,.02h0s0,.03,0,.03h0s0,.03,0,.03h0s0,.03,0,.03h0s0,.02,0,.02h0s0,.03,0,.03h0s0,.02,0,.02h0s0,.03,0,.03h0s0,.02,0,.02h0s0,.03,0,.03h0s0,.03,0,.03h0s0,.02,0,.02h0s0,.03,0,.03h0s0,.03,0,.03h0s0,.03,0,.03h0s-.01,.03-.01,.03h0s0,.03,0,.03h0s0,.03,0,.03h0s0,.03,0,.03h0s0,.03,0,.03h0s0,.02,0,.02h0s-.01,.03-.01,.03h0s0,.03,0,.03h0s0,.03,0,.03h0s0,.03,0,.03h0s0,.03,0,.03h0s0,.04-.02,.07h0s0,.03,0,.03h0s0,.02,0,.02h0s0,.03,0,.03h0s0,.03,0,.03h0s0,.03,0,.03h0s0,.02,0,.02h0s0,.03,0,.03h0s0,.03,0,.03h0s-.01,.02-.01,.02h0s0,.03,0,.03h0s-.02,.07-.03,.1h0s0,.02,0,.02h0s0,.03,0,.03h0s-.01,.02-.01,.02h0s0,.03,0,.03h0s0,.03,0,.03h0s0,.03,0,.03h-.01s0,.02,0,.02v.02s0,.01,0,.01h0s0,.04,0,.04v.02s0,.01,0,.01h0s0,.03,0,.03h0s0,.03,0,.03h0s0,.03,0,.03h0s0,.03,0,.03"/><path class="cls-9" d="M202.42,79.98h0s-.01-.02-.01-.02h0s-.01-.02-.01-.02c-.02,0-.05-.01-.08,0h-.01s-.01,0-.01,0c-.03,0-.05,0-.08,0h-.01s-.01,0-.01,0h-.01s-.01,0-.01,0h-.01s-.01,0-.01,0h-.01s-.01,0-.01,0h-.04s-.01,0-.01,0h-.01s-.01,0-.01,0h-.01s-.01,0-.01,0h-.01s-.01,0-.01,0h-.01s-.01,0-.01,0h-.01s0,.02,0,.02h-.01s0,.02,0,.02h0s0,.03,0,.03h0s0,.03,0,.03h0v.03s-.02,.04-.02,.06h0s0,.03,0,.03h0s0,.03,0,.03h0s0,.03,0,.03h0s0,.03,0,.03h0s0,.02,0,.02c0,.02-.02,.05-.02,.06h0s0,.03,0,.03h-.01s0,.02,0,.02h0s0,.02,0,.02h0s0,.03,0,.03h0s0,.03,0,.03h0s0,.03,0,.03c0,.03-.01,.05-.02,.07h0s0,.03,0,.03h0s0,.03,0,.03h-.01v.04h0s0,.02,0,.02h0s0,.03,0,.03h0s-.01,.04-.01,.04h0s0,.02,0,.02h0s0,.03,0,.03h0v.03h0s0,.02,0,.02h0s0,.03,0,.03h-.01s0,.02,0,.02h0s0,.03,0,.03h0s0,.02,0,.02h0c0,.07-.03,.05-.02,.09h0s0,.02,0,.02h0s0,.03,0,.03h0s0,.03,0,.03c-.02,.06,0,.04-.02,.08h0s0,.02,0,.02h0s0,.03,0,.03h0s0,.03,0,.03h0s0,.02,0,.02h0v.05s-.02,.06-.03,.07h0s0,.03,0,.03h0s0,.03,0,.03h0v.03h0s0,.02,0,.02h0s0,.03,0,.03h0s0,.03,0,.03h-.01v.02h0s0,.03,0,.03h0s0,.03,0,.03h0s0,.02,0,.02h0s0,.03,0,.03h0s0,.03,0,.03h0s0,.03,0,.03h0s0,.03,0,.03h0s0,.03,0,.03h0s0,.03,0,.03c0,.05,0,.02-.02,.06h0s0,.03,0,.03h0s0,.03,0,.03h0v.04h0s0,.03,0,.03h0s0,.03,0,.03h.01s0,.02,0,.02h0s.01,.01,.01,.01h.03s.01,0,.01,0h.01s.01,0,.01,0h.01s.03,0,.03,0h.03s.01,0,.01,0h.01s.01,0,.01,0h.01s.01,0,.01,0h.01s.03,0,.03,0c.03,0,.07,0,.09,0h.01s.01,0,.01,0c.04,0,.05,.01,.08-.02h.01s0-.02,0-.02v-.02s0-.01,0-.01v-.03h0s0-.02,0-.02h0v-.03h0v-.03h0s.01-.02,.01-.02h0s0-.03,0-.03h0s0-.03,0-.03h0v-.03h.01s0-.02,0-.02h0s0-.03,0-.03h0s0-.03,0-.03h0s0-.03,0-.03h0s0-.03,0-.03h0s0-.03,0-.03h0s0-.03,0-.03c.02-.04,.01-.04,.02-.08h0s0-.03,0-.03h0s0-.03,0-.03h0s0-.02,0-.02h0s0-.03,0-.03h0s0-.02,0-.02h0v-.03h0v-.03h0s0-.02,0-.02h0s0-.03,0-.03h0s0-.02,0-.02h0s0-.03,0-.03h0s0-.02,0-.02h0s.01-.03,.01-.03h0v-.03h0s0-.02,0-.02h0s0-.03,0-.03v-.02s0-.01,0-.01h0s0-.03,0-.03h0s0-.02,0-.02v-.02s0-.01,0-.01h0s0-.03,0-.03h0s0-.02,0-.02h0s.01,0,.01,0h.01s0,.01,0,.01h0s0,.03,0,.03h0s0,.03,0,.03h0s0,.02,0,.02v.03h0s0,.03,0,.03h0s0,.02,0,.02h0s0,.03,0,.03h0s0,.03,0,.03h0s0,.03,0,.03h0s0,.03,0,.03h0s0,.03,0,.03h0v.03h0s0,.03,0,.03h0s0,.03,0,.03h0s0,.02,0,.02h0s0,.03,0,.03h0s0,.03,0,.03h0s0,.02,0,.02h0s0,.03,0,.03h0s0,.03,0,.03h0s0,.03,0,.03h0c0,.07,.02,.04,.01,.08h0s0,.02,0,.02h0s0,.03,0,.03h0s0,.03,0,.03h0s0,.02,0,.02h0s0,.03,0,.03h0s0,.06,.02,.08h0s0,.02,0,.02h0s0,0,0,0h0s0-.03,0-.03h0s0-.02,0-.02h0s0-.03,0-.03h0s0-.03,0-.03h0s0-.03,0-.03h0s0-.03,0-.03h0s0-.03,0-.03h.01s0-.02,0-.02h0s0-.03,0-.03h0s0-.03,0-.03h0s0-.02,0-.02h0s0-.03,0-.03h.01s0-.03,0-.03h0s.01-.07,.03-.1h0s0-.03,0-.03c0-.03,.02-.06,.02-.09h0s0-.03,0-.03h0s0-.02,0-.02h0s0-.03,0-.03h0s0-.02,0-.02h0s0-.03,0-.03h0s0-.03,0-.03h0s0-.03,0-.03h0s0-.03,0-.03h0s0-.02,0-.02h0s0-.03,0-.03h0s0-.03,0-.03h0s0-.03,0-.03h0c0-.05,0-.06,0-.1h0s0-.02,0-.02h0s0-.03,0-.03h0v-.03h0s0-.02,0-.02h0s0-.03,0-.03h0s0-.03,0-.03h0s0-.03,0-.03h0s0-.02,0-.02h0s0-.03,0-.03h0v-.02h0v-.03h0s0-.03,0-.03h0s0-.02,0-.02h0v-.04h0s0-.02,0-.02h0v-.03h0s0-.02,0-.02h0s0-.02,0-.02h0s0-.03,0-.03h0s0-.03,0-.03h0s0-.03,0-.03h0s0-.02,0-.02h0s0-.03,0-.03h0v-.02h0s0-.03,0-.03h0v-.02h0s0-.02,0-.02v-.02s0-.01,0-.01h0s0-.02,0-.02h0s0-.03,0-.03h0s0-.03,0-.03h0s0-.03,0-.03h0s0-.02,0-.02h0"/><path class="cls-9" d="M201.25,79.97h0s0-.03,0-.03h-.01s-.01-.02-.01-.02h-.01s-.01,0-.01,0h-.01s-.01,0-.01,0h-.01s-.01,0-.01,0h-.01s-.01,0-.01,0h-.01s-.01,0-.01,0h-.01s-.01,0-.01,0h-.01s-.01,0-.01,0h-.01s-.01,0-.01,0h-.01s-.01,0-.01,0c-.03,0-.02,.01-.08,0h-.01s-.01,0-.01,0h-.01s-.01,0-.01,0h-.01s-.01,0-.01,0h-.01s-.01,0-.01,0h-.01s0,.01,0,.01h0s0,.02,0,.02h0v.03s0,.03,.03,.07h0s0,.03,0,.03h0s0,.02,0,.02h0s0,.03,0,.03h0s0,.03,0,.03h0v.03h0s0,.03,0,.03h0v.03h.01s0,.02,0,.02h0s0,.03,0,.03h0s0,.02,0,.02h0s0,.03,0,.03h0s0,.03,0,.03h0s0,.02,0,.02h0s0,.03,0,.03h0s.01,.02,.01,.02h0s0,.03,0,.03h0s0,.03,0,.03h0s0,.02,0,.02h0s0,.03,0,.03h0s0,.03,0,.03h0s0,.03,0,.03h0s0,.03,0,.03h0s0,.03,0,.03h0s0,.02,0,.02h0s0,.03,0,.03h0s0,.03,0,.03h0s0,.03,0,.03h0s0,.03,0,.03h0s.02,.06,.02,.09v.03h0s0,.03,0,.03h0s0,.02,0,.02h0s0,.03,0,.03h0s0,.02,0,.02h0s0,.03,0,.03h0s0,.03,0,.03h0s0,.03,0,.03h0s0,.03,0,.03h0s0,.02,0,.02h0s0,.03,0,.03h0s0,.03,0,.03h0s0,.02,0,.02h0s0,.03,0,.03h0s.01,.02,.01,.02h0s0,.03,0,.03h0s0,.02,0,.02h0s0,.03,0,.03h0s0,.03,0,.03h0s0,.03,0,.03v.02s0,.01,0,.01h0s0,.03,0,.03h0s0,.02,0,.02h0c0,.06,0,.03,.02,.08h0s0,.03,0,.03h0s0,.03,0,.03h0s0,.03,0,.03h0s0,.03,0,.03h0s0,.02,0,.02h0s0,.03,0,.03h0s0,.03,0,.03h.01v.04h0s0,.03,0,.03h0s0,.03,0,.03h0s.02-.08,.03-.1h0s0-.03,0-.03h0s0-.03,0-.03h0s0-.03,0-.03h0s0-.03,0-.03h0s0-.02,0-.02h0s0-.03,0-.03h0s0-.03,0-.03h0s0-.03,0-.03h0s0-.03,0-.03h0s0-.03,0-.03h0s0-.03,0-.03h0s0-.02,0-.02h0s0-.03,0-.03h0s0-.03,0-.03h0v-.03h0s0-.03,0-.03h0s0-.03,0-.03h.01s0-.03,0-.03h0s0-.02,0-.02h0s0-.02,0-.02v-.02s0-.01,0-.01h0s0-.02,0-.02h0s0-.03,0-.03h0s0-.03,0-.03v-.02s0-.01,0-.01h0s0-.03,0-.03h0s0-.03,0-.03h0s0-.03,0-.03h0v-.03h0s0-.03,0-.03h0s0-.03,0-.03h0s0-.03,0-.03h0s0-.03,0-.03h0s0-.02,0-.02h0s0-.03,0-.03h0s0-.03,0-.03h0s0-.03,0-.03h0s0-.02,0-.02h0s-.03-.1-.03-.15h0s0-.02,0-.02h0s0-.03,0-.03h0s0-.02,0-.02h0s0-.03,0-.03h0s0-.03,0-.03h0s0-.02,0-.02h0s0-.03,0-.03h0s0-.03,0-.03h0s0-.03,0-.03h0s0-.03,0-.03h0s0-.02,0-.02h0s0-.03,0-.03h0s0-.03,0-.03h0s0-.02,0-.02h0s0-.03,0-.03h-.01s0-.02,0-.02h0c-.01-.05-.02-.03-.02-.08h0s0-.02,0-.02h0s0-.03,0-.03h0s0-.03,0-.03h0s0-.02,0-.02h0s0-.03,0-.03"/><path class="cls-9" d="M209.18,79.92h-.01s-.01,0-.01,0h0s-.01,.02-.01,.02h0v.03h0s0,.03,0,.03h0s-.01,.02-.01,.02h0s0,.03,0,.03h0v.03h0s0,.03,0,.03h0s0,.02,0,.02h0v.03h0s0,.02,0,.02h0s0,.03,0,.03h0s0,.02,0,.02v.02s0,0,0,0h0s0,.03,0,.03h0s0,.02,0,.02h0s0,.03,0,.03h0s0,.03,0,.03h0s0,.03,0,.03h0s0,.03,0,.03h0s0,.03,0,.03h0s0,.02,0,.02h0s0,.03,0,.03h0s0,.03,0,.03h0s0,.03,0,.03h0s0,.02,0,.02h0s0,.03,0,.03h0s0,.03,0,.03h0s0,.03,0,.03h0s0,.02,0,.02h0s0,.02,0,.02h0s0,.03,0,.03h0s0,.03,0,.03h0s0,.03,0,.03h0s0,.02,0,.02h0s0,.03,0,.03h0s0,.03,0,.03h0s0,.03,0,.03h0s0,.02,0,.02h0s0,.03,0,.03c0,.05-.02,.02-.02,.06h0s0,.03,0,.03h-.01s0,.02,0,.02h-.02s0-.02,0-.02h0s0-.02,0-.02h0s0-.03,0-.03h0s0-.03,0-.03h0s0-.02,0-.02v-.02s0-.01,0-.01h0s0-.03,0-.03h0s0-.03,0-.03h0s0-.02,0-.02h0s0-.03,0-.03h0c-.02-.06,0-.05-.02-.08h0s0-.03,0-.03h0s-.01-.02-.01-.02h0v-.03h0s0-.03,0-.03h0s0-.03,0-.03h0s0-.03,0-.03h0s0-.03,0-.03h0s0-.02,0-.02h0s0-.03,0-.03h0s0-.03,0-.03h0s0-.03,0-.03h0s0-.03,0-.03h0s0-.03,0-.03h0v-.04h0s0-.02,0-.02h0s0-.03,0-.03h0s0-.02,0-.02h0s-.01-.06-.02-.08h0s-.02-.03-.02-.03h-.02s0,.03,0,.03h0s-.02,.09-.02,.11h0s0,.02,0,.02h0s0,.03,0,.03h0s0,.02,0,.02h0s0,.03,0,.03h0s0,.03,0,.03h0s0,.03,0,.03h0s-.01,.03-.01,.03h0s0,.03,0,.03h0s0,.03,0,.03h0s0,.03,0,.03h0s0,.03,0,.03h0s0,.02,0,.02h0s0,.03,0,.03h0s-.01,.03-.01,.03h0s0,.03,0,.03h0s0,.02,0,.02h0s0,.03,0,.03h0s0,.03,0,.03h0v.03h0s0,.02,0,.02h0s0,.03,0,.03h0s0,.03,0,.03h0v.03h0s0,.03,0,.03h0s0,.02,0,.02c0,.02-.01,.04-.02,.06h0s0,.03,0,.03c0,.04,0,.04,0,.08h0s0,.03,0,.03h0v.03h0s0,.02,0,.02h0s0,.03,0,.03h0s0,.03,0,.03h0s0,.03,0,.03h0s0,.02,0,.02h0s0,.03,0,.03h0s0,.02,0,.02h0s0,.03,0,.03h0s.02,.08,.03,.11h0s0,.03,0,.03h0s0,.03,0,.03h0s0,.03,0,.03h0s0,.03,0,.03h0v.03h0s0,.03,0,.03h0s0,.03,0,.03h0s0,.02,0,.02h0s0,.03,0,.03h0s0,.03,0,.03h0s0,.03,0,.03h0s0,.03,0,.03h0s0,.02,0,.02h0s0,.03,0,.03h0s0,.02,0,.02h0v.03h0s0,.02,0,.02h0s0,.03,0,.03h0s0,.03,0,.03h0s0,.03,0,.03h0s0,.03,0,.03h0s.02,.02,.02,.02h0s.01,.02,.01,.02h.01s.01,0,.01,0h.01s.01,0,.01,0h.01s.01,0,.01,0h.01s.01,0,.01,0h.01s.01,0,.01,0h.01s.01,0,.01,0h.01s.01,0,.01,0h.01s.01,0,.01,0h.01s.01,0,.01,0h.01s.01,0,.01,0h.01s.01,0,.01,0h.01s.01,0,.01,0h.01s.01,0,.01,0h.01s.01,0,.01,0h.01s.01,0,.01,0h.01s.01,0,.01,0h.02s0-.01,0-.01h.02s0-.02,0-.02h0s0-.03,0-.03h0s0-.03,0-.03h0s0-.03,0-.03h0s0-.02,0-.02v-.02s0-.01,0-.01h0s0-.03,0-.03h0s0-.02,0-.02h0s0-.03,0-.03h0s0-.03,0-.03h0s0-.02,0-.02h0s.01-.03,.01-.03h0s0-.03,0-.03h0s0-.03,0-.03h0s0-.03,0-.03h0s0-.03,0-.03h0s0-.02,0-.02h0s0-.04,.01-.08h0s0-.03,0-.03h0s0-.02,0-.02c0-.02,.02-.04,.02-.06h0s0-.02,0-.02h0s0-.03,0-.03h0s0-.03,0-.03h0v-.03h0s0-.02,0-.02h0s0-.03,0-.03h0s0-.02,0-.02h0s0-.03,0-.03h.01s0-.02,0-.02h0s0-.03,0-.03h0s.01-.06,.02-.08h0s0-.02,0-.02h0c.02-.06,.03-.15,.06-.2h0s0-.03,0-.03v-.02s0-.01,0-.01h0s0-.03,0-.03c.02-.05,.01-.04,.02-.08h0s0-.03,0-.03h0s0-.02,0-.02h0s0-.03,0-.03v-.03h0s0-.02,0-.02h0v-.03h0s0-.02,0-.02h0s0-.03,0-.03h0s0-.02,0-.02h0s0-.03,0-.03h0s0-.02,0-.02h0s0-.03,0-.03h0s0-.03,0-.03h0v-.03h0s0-.02,0-.02h0s0-.03,0-.03h0v-.03h0s0-.03,0-.03h0s0-.03,0-.03h0s0-.03,0-.03h0s0-.02,0-.02h0s0-.03,0-.03h0s0-.03,0-.03h0s0-.03,0-.03h0s0-.02,0-.02h0s0-.03,0-.03h0s0-.03,0-.03h0s0-.02,0-.02h0s0-.03,0-.03h0s-.01-.02-.01-.02h-.01s-.01,0-.01,0h-.01s-.01,0-.01,0h-.01s-.01,0-.01,0h-.01s-.01,0-.01,0h-.01s-.01,0-.01,0h-.01s-.01,0-.01,0h-.01s-.03,0-.03,0h-.01s-.01,0-.01,0h-.01s-.01,0-.01,0h-.03s-.01,0-.01,0c-.03,0-.04,0-.08,0h-.01s-.01,0-.01,0h-.01"/><path class="cls-9" d="M209.53,80.99h0s0,.03,0,.03h0s0,.03,0,.03h0s0,.03,0,.03h0s0,.02,0,.02h0s0,.03,0,.03h0s0,.03,0,.03h0s0,.03,0,.03h0s0,.03,0,.03h0s0,.02,0,.02h0s0,.03,0,.03h0s0,.02,0,.02h0s0,.03,0,.03h0s0,.03,0,.03h0s0,.02,0,.02h0s0,.02,0,.02h0v.03h0s0,.02,0,.02h0s0,.03,0,.03h0s0,.03,0,.03h0s0,.03,0,.03h.01s0,.02,0,.02h0s0,.03,0,.03h0s0,.02,0,.02h0s0,.03,0,.03h0s0,.02,0,.02h0s0,.03,0,.03h0s0,.03,0,.03h0c.04,.07,0,.05,.02,.07h0s0,.03,0,.03h0s.01,.02,.01,.02v.02s0,.02,0,.02h0s0,.02,0,.02h0s0,.03,0,.03h0v.03h0s0,.02,0,.02h0s0,.03,0,.03h0s.01,.02,.01,.02h0s.01,.02,.01,.02h.01s.01,0,.01,0h.01s.01,0,.01,0h.01s.01,0,.01,0h.03s.01,0,.01,0h.03s.01,0,.01,0h.01s.01,0,.01,0h.04s.01,0,.01,0h.01s.01,0,.01,0h.01s.01,0,.01,0h.03s.07,.02,.13-.01h0s0-.02,0-.02h0s0-.03,0-.03h0s0-.02,0-.02h0s0-.02,0-.02h0v-.03h0v-.02h0s0-.03,0-.03h0s0-.03,0-.03h0s0-.03,0-.03h0s0-.03,0-.03h0s0-.03,0-.03h0s0-.02,0-.02h0s0-.03,0-.03h0v-.02h0s0-.02,0-.02h0s0-.03,0-.03h0s0-.02,0-.02h0s0-.03,0-.03h0s0-.03,0-.03h0s0-.02,0-.02h0s0-.03,0-.03h0s0-.02,0-.02h0c0-.06-.02-.1-.03-.14h0s0-.03,0-.03h0s0-.03,0-.03h0s0-.02,0-.02h0s0-.03,0-.03h0v-.03h-.01s0-.02,0-.02h0s0-.03,0-.03h0s0-.03,0-.03h0s0-.02,0-.02h0s0-.03,0-.03v-.02s-.02-.01-.02-.01h0s0-.03,0-.03h0s0-.02,0-.02h0s0-.03,0-.03h0s0-.02,0-.02h0s0-.03,0-.03h0s0-.03,0-.03h0s0-.03,0-.03h0s0-.02,0-.02h0s0-.03,0-.03h0s0-.03,0-.03h0s-.01-.02-.01-.02h0s0-.03,0-.03h0s0-.03,0-.03h0s0-.03,0-.03h0s0-.02,0-.02h0s0-.03,0-.03h0s0-.03,0-.03h0s0-.03,0-.03h0s0-.03,0-.03h0s0-.03,0-.03h0s0-.03,0-.03h0s0-.02,0-.02h0s0-.03,0-.03v-.02s0-.01,0-.01h0s0-.03,0-.03h0s0-.03,0-.03h0s0-.03,0-.03h0s0-.03,0-.03h0s0-.02,0-.02v-.02s0-.01,0-.01h0s0-.03,0-.03h0s0-.03,0-.03h0s0-.02,0-.02h0v-.03h-.01s0,0,0,0c-.02,.03,0,.04-.02,.08h0s0,.03,0,.03h0s0,.02,0,.02h0s0,.03,0,.03h0s0,.03,0,.03h0s0,.03,0,.03h0s-.02,.05-.02,.08h0s0,.02,0,.02h0s0,.03,0,.03c0,.02,0,.04-.02,.06h0s0,.03,0,.03h0s0,.03,0,.03h0s0,.02,0,.02h0s0,.03,0,.03h0s-.01,.02-.01,.02h0s0,.03,0,.03h0s0,.03,0,.03h0s0,.03,0,.03h0s0,.03,0,.03h0s0,.03,0,.03h0s0,.03,0,.03h0v.03h0s0,.03,0,.03h0v.02h0s-.01,.03-.01,.03h0s0,.03,0,.03h0s0,.03,0,.03h0"/></g><g class="cls-27"><rect class="cls-11" x="159.72" y="82.2" width="32.87" height="70.21"/><rect class="cls-20" x="159.72" y="57.23" width="32.87" height="27.07"/><polygon class="cls-18" points="181.14 57.02 160.5 73.12 147.31 58.86 163.35 43.17 177.26 44.24 181.14 57.02"/><polygon class="cls-18" points="204.31 57.28 225.61 73.12 238.8 58.86 222.76 43.17 208.85 44.24 204.31 57.28"/></g><path class="cls-18" d="M183.71,47.79c-2.29,1.29-3.85,3.37-4.72,5.31-.04,4.1,4.54,8.69,5.31,9.44,5.53,5.36,7.76,10.09,8.78,10.67v-16.39s-11.83-4.14-10.16-7l.78-2.02Z"/><path class="cls-18" d="M202.61,47.75c2.29,1.29,3.7,3.41,4.57,5.35,.04,4.1-4.54,8.69-5.31,9.44-5.53,5.36-7.76,10.09-8.78,10.67v-16.39s11.59-3.84,10.22-7.15l-.69-1.92Z"/><rect class="cls-22" x="170.92" y="129.62" width="1.71" height="15.52"/><rect class="cls-22" x="211.59" y="129.62" width="1.71" height="15.52"/><g id="_グループ_473"><g id="_グループ_471"><path id="_パス_165" class="cls-7" d="M237.11,164c7.34,6.61,20.91,18.95,22.12,43.09,1.65,32.86-15.61,38.71-33.46,36.9-12.26-1.25-34.8-6.62-26.02-42.48,5.87-23.98,20.84-32.82,27.34-38.28"/><path id="_パス_166" class="cls-7" d="M228.88,164.14c-6.23-.97-9.22-6.82-4.4-6.33,2.75,.23,5.11,1.95,5.92,4.33l.79,2.01h-2.31Z"/><path id="_パス_166-2" class="cls-7" d="M232.32,164.23c8.6-3.26,11.1-12.51,4.38-10.36-3.86,1.16-6.7,4.33-7.15,7.96l-.53,3.11,3.3-.7Z"/></g></g><path class="cls-15" d="M239.8,165.56c.02,3.22-4.29,6.11-7.38,5.39-3.09-.72-5.68-2.4-5.93-5.9-.27-3.85,3.34-1.8,9.13-3.06,3.8-.83,4.16,.66,4.18,3.57Z"/></g></g></g></svg>