<svg xmlns="http://www.w3.org/2000/svg" width="570.659" height="37.239" viewBox="0 0 570.659 37.239">
  <g id="コンポーネント_14_1" data-name="コンポーネント 14 – 1" transform="translate(0.5 0.5)">
    <path id="パス_808" data-name="パス 808" d="M452.31,12.93l-4.62-.385a19.458,19.458,0,0,1-.7,4.025h-1.68a45.541,45.541,0,0,1-6.16-.42v4.095c1.925.14,4.48.21,5.915.21h.455a34.348,34.348,0,0,1-7.735,9.66l3.745,2.8a40.3,40.3,0,0,1,3.255-3.85,8.525,8.525,0,0,1,5.46-2.415,2.693,2.693,0,0,1,2.45,1.19c-3.99,2.065-8.19,4.865-8.19,9.345,0,4.515,4.06,5.845,9.555,5.845a87.555,87.555,0,0,0,9.9-.595l.14-4.515a57.256,57.256,0,0,1-9.94.98c-3.43,0-5.075-.525-5.075-2.45,0-1.75,1.4-3.115,4.025-4.62-.035,1.54-.07,3.22-.175,4.27h4.2c-.035-1.61-.105-4.2-.14-6.16,2.135-.98,4.13-1.75,5.7-2.38,1.19-.455,3.045-1.155,4.165-1.47l-1.75-4.06c-1.3.665-2.52,1.225-3.885,1.82-1.435.63-2.9,1.225-4.725,2.065a4.739,4.739,0,0,0-4.655-2.7,11.859,11.859,0,0,0-3.955.7,24.439,24.439,0,0,0,1.995-3.57,104.262,104.262,0,0,0,11.41-.875l.035-4.06a88.609,88.609,0,0,1-9.9,1.015A33.493,33.493,0,0,0,452.31,12.93Zm34.3-.49h-9.975v3.15h9.975Zm1.015,4.69h-12.67v3.29h12.67Zm-4.34,17.78v4.025h-3.43V34.91Zm3.465-3.29H476.425V43.555h3.43V42.19h6.9ZM476.53,29.9h10.29V26.79H476.53Zm0-4.725h10.29V22H476.53ZM494.9,37.01V29.1h2.73V25.53h-9.52V29.1h2.94v8.575c-1.33.21-2.555.42-3.605.56l.84,3.815c3.01-.63,6.825-1.435,10.43-2.24l-.28-3.43ZM507.26,21.75V17.97h-5.18q-.053-2.31,0-4.725a23.975,23.975,0,0,1,2.8,4.41l3.01-1.68a24.673,24.673,0,0,0-3.01-4.27l-2.8,1.435V11.39h-3.99c0,2.31.035,4.48.07,6.58H488.15v3.78h10.115c.42,13.93,1.715,22.19,6.055,22.295,1.3.035,3.045-1.19,3.955-6.895a13.1,13.1,0,0,1-2.9-2.485c-.14,2.625-.42,4.235-.875,4.235-1.33-.105-2.135-7.14-2.38-17.15Zm18.025-8.5-5.635-.07A22.323,22.323,0,0,1,520.1,17.9c0,3.01-.35,12.215-.35,16.905,0,5.985,3.71,8.505,9.45,8.505a18.118,18.118,0,0,0,15.19-8.05l-3.185-3.85c-2.52,3.815-6.195,7.14-11.97,7.14-2.73,0-4.83-1.155-4.83-4.69,0-4.34.28-12.18.42-15.96C524.9,16.5,525.075,14.715,525.285,13.245Zm26.95,3.675.455,4.8c4.06-.875,11.2-1.645,14.49-1.995A14.1,14.1,0,0,0,562,30.535c0,7.56,6.93,11.515,14.245,12.005l1.645-4.8c-5.915-.315-11.3-2.415-11.3-8.155,0-4.165,3.15-8.715,7.385-9.835a39.606,39.606,0,0,1,6.755-.455l-.035-4.48c-2.45.07-6.3.315-9.905.595-6.4.56-12.18,1.085-15.085,1.33C555,16.815,553.635,16.885,552.235,16.92ZM595.74,14.5l.175,4.515c.91-.14,2.135-.245,2.835-.28,1.61-.105,4.62-.21,6.02-.28-.8,1.645-1.82,4.025-2.8,6.335-7.035.315-11.97,4.445-11.97,9.87,0,3.535,2.31,5.67,5.39,5.67a6.1,6.1,0,0,0,5.46-3.08,68.791,68.791,0,0,0,3.955-8.4A24.267,24.267,0,0,1,613.1,31.69c-1.155,3.185-3.6,6.51-8.89,8.785l3.71,3.045c4.69-2.45,7.35-5.53,8.89-9.485a36.495,36.495,0,0,1,3.01,2.45l2.03-4.865c-1.015-.7-2.275-1.5-3.745-2.345a56.835,56.835,0,0,0,.665-6.475l-4.585-.525a23.057,23.057,0,0,1,0,3.815c-.035.385-.07.77-.1,1.19a31.493,31.493,0,0,0-7.6-2.24,74.582,74.582,0,0,1,3.5-7.525,8.439,8.439,0,0,1,1.19-1.47l-2.8-2.17a7.519,7.519,0,0,1-2.38.49c-1.645.14-5.355.315-7.35.315C597.875,14.68,596.685,14.61,595.74,14.5ZM594.095,34c0-2.2,2.205-4.585,6.125-5.18a39.2,39.2,0,0,1-2.835,5.705c-.63.875-1.12,1.225-1.82,1.225C594.76,35.75,594.095,35.155,594.095,34Zm42.6,3.045c0-1.19,1.365-2.17,3.85-2.17a19.437,19.437,0,0,1,2.87.245c.035.63.035,1.12.035,1.505,0,2.03-1.225,2.555-3.08,2.555C637.95,39.18,636.69,38.375,636.69,37.045Zm10.955-24.36H642.92a14.069,14.069,0,0,1,.21,2.415v1.645h-1.365a65.344,65.344,0,0,1-8.645-.77l.1,3.99a80.458,80.458,0,0,0,8.575.63h1.295c-.035,1.19-.035,2.45-.035,3.605h-1.68a61.846,61.846,0,0,1-8.435-.665l.035,4.13c2.31.28,6.3.455,8.33.455h1.82c.035,1.05.07,2.17.14,3.255-.7-.07-1.435-.1-2.17-.1-5.39,0-8.645,2.485-8.645,6.02,0,3.71,2.94,5.845,8.54,5.845,4.62,0,6.9-2.31,6.9-5.285,0-.385,0-.805-.035-1.295a26.827,26.827,0,0,1,7.07,4.865l2.52-3.92a27.4,27.4,0,0,0-9.8-5.285c-.105-1.4-.175-2.835-.245-4.165,3.36-.1,6.09-.35,9.24-.7l.035-4.13c-2.835.385-5.81.665-9.345.84v-3.6c3.395-.175,6.58-.49,8.89-.77l.035-4.025a73.355,73.355,0,0,1-8.855.945c0-.56,0-1.085.035-1.435A23.619,23.619,0,0,1,647.645,12.685Zm43.33.84h-4.69a29.448,29.448,0,0,1,.245,3.22V20.7c-3.185.28-6.58.595-9.555.875,0-1.365.035-2.555.035-3.36a23.179,23.179,0,0,1,.21-3.64h-4.935a27.036,27.036,0,0,1,.28,3.885V22c-1.12.1-2.03.175-2.66.245-1.785.175-3.4.245-4.41.245l.49,4.48c.91-.14,3.08-.49,4.2-.63.6-.07,1.4-.14,2.345-.245,0,3.255,0,6.65.035,8.155.175,6.055,1.26,7.945,10.325,7.945a99.012,99.012,0,0,0,9.975-.56l.175-4.76a70.515,70.515,0,0,1-10.465.875c-5.25,0-5.565-.77-5.635-4.2-.07-1.5-.035-4.725,0-7.945,2.975-.315,6.405-.63,9.52-.875a38.566,38.566,0,0,1-.28,4.235c-.07.665-.385.805-1.085.805a18.544,18.544,0,0,1-3.22-.455l-.1,3.885a52.972,52.972,0,0,0,5.285.525c1.785,0,2.66-.455,3.045-2.31a61.408,61.408,0,0,0,.525-7c1.015-.07,1.925-.1,2.7-.14.91-.035,2.765-.07,3.36-.035V19.93c-1.015.1-2.38.175-3.36.245-.8.035-1.68.1-2.625.175.035-1.155.035-2.415.07-3.78C690.8,15.625,690.9,14.085,690.975,13.525ZM722.895,15l-4.97-2c-.595,1.47-1.26,2.625-1.715,3.57-1.855,3.325-9.03,17.6-11.62,24.6l4.935,1.68a73.6,73.6,0,0,1,2.66-7.805c1.26-2.835,3.22-5.285,5.6-5.285a1.921,1.921,0,0,1,2.065,1.96c.1,1.435.07,4.3.21,6.16.14,2.555,1.96,4.865,5.845,4.865,5.355,0,8.61-3.99,10.43-9.975l-3.78-3.08c-1.015,4.34-2.87,8.26-5.915,8.26a2.035,2.035,0,0,1-2.275-1.89c-.175-1.47-.07-4.27-.14-5.845-.14-2.905-1.715-4.55-4.34-4.55a8.14,8.14,0,0,0-4.025,1.05c1.75-3.08,4.2-7.56,5.915-10.08C722.16,16.08,722.545,15.485,722.895,15ZM757.37,13.35l-5.215-.525a38.792,38.792,0,0,1-.735,7.42c-1.785.14-3.43.245-4.515.28a33.418,33.418,0,0,1-3.745,0l.42,4.76c1.05-.175,2.9-.42,3.885-.595.665-.07,1.75-.21,3.01-.35-1.26,4.8-3.675,11.865-7.07,16.45l4.55,1.82c3.22-5.145,5.81-13.44,7.14-18.76.98-.07,1.855-.14,2.415-.14,2.205,0,3.4.385,3.4,3.185,0,3.465-.455,7.7-1.4,9.695A2.594,2.594,0,0,1,756.88,38.1a20.506,20.506,0,0,1-4.3-.735l.77,4.62a22.642,22.642,0,0,0,4.2.49c2.625,0,4.585-.77,5.74-3.22,1.505-3.045,1.995-8.715,1.995-12.845,0-5.04-2.625-6.685-6.335-6.685-.735,0-1.785.07-2.94.14.245-1.26.49-2.555.735-3.605C756.915,15.38,757.16,14.26,757.37,13.35Zm12.04,3.29-4.165,1.785c2.485,3.08,4.97,9.415,5.88,13.3l4.445-2.065C774.52,26.335,771.58,19.65,769.41,16.64Zm25.13,15.365h4.515c-.525-4.865,7.105-5.46,7.105-10.605,0-4.655-3.71-7-8.785-7a11.645,11.645,0,0,0-9.03,4.27l2.87,2.66a7.421,7.421,0,0,1,5.6-2.765c2.73,0,4.41,1.19,4.41,3.29C801.225,25.25,793.8,26.51,794.54,32.005Zm2.275,9.31a3.1,3.1,0,1,0-3.08-3.08A2.959,2.959,0,0,0,796.815,41.315Z" transform="translate(-236 -8.761)" fill="#fff"/>
    <path id="合体_2" data-name="合体 2" d="M171.3,36.238c-.219-.014-.427-.145-.64-.164s-.433-.037-.645-.063-.435-.019-.647-.051-.432-.057-.642-.1-.422-.107-.63-.154-.411-.141-.617-.2-.454,0-.657-.063-.376-.244-.576-.318-.406-.149-.6-.234-.431-.1-.623-.2-.351-.263-.538-.369-.373-.217-.552-.334-.389-.2-.561-.328-.363-.242-.527-.382-.285-.331-.439-.482-.329-.284-.473-.445-.264-.343-.4-.514-.246-.353-.369-.532-.3-.321-.411-.508-.12-.425-.222-.619-.229-.365-.319-.564-.192-.386-.271-.59-.139-.407-.209-.615-.086-.422-.146-.633-.151-.4-.2-.617-.126-.412-.169-.627-.02-.432-.055-.649-.081-.421-.108-.638-.065-.424-.086-.642a.575.575,0,0,1,.2-.478.623.623,0,0,1,.472-.218c.315,0,.315-.06.631-.06s.315.032.631.032.315-.064.63-.064.315.066.629.066.315-.067.629-.067.314-.015.629-.015.314.041.628.041.315.041.629.041.314-.018.629-.018h.628c.315,0,.315-.051.629-.051.212,0,.37.174.514.31a.83.83,0,0,1,.313.495c.023.229.042.451.082.664s.07.449.13.658a5.875,5.875,0,0,0,.232.629,5.234,5.234,0,0,0,.286.606,4.787,4.787,0,0,0,.376.556,4.584,4.584,0,0,0,.44.509,4.748,4.748,0,0,0,.564.367,4.985,4.985,0,0,0,.519.436,6.058,6.058,0,0,0,.64.219c.2.078.425.109.646.169a1.185,1.185,0,0,1,.572.339.964.964,0,0,1,.137.63c0,.316.022.316.022.632s-.009.316-.009.632-.039.315-.039.631.048.315.048.631.077.316.077.631-.008.315-.008.63-.076.314-.076.629.074.315.074.63a.8.8,0,0,1-.26.533.777.777,0,0,1-.511.253Zm3.6-.222a.806.806,0,0,1-.232-.545c0-.307.112-.307.112-.614s-.095-.307-.095-.614.005-.306.005-.612.052-.306.052-.613-.1-.306-.1-.613.1-.306.1-.612-.049-.306-.049-.611-.022-.306-.022-.612a.87.87,0,0,1,.248-.573.968.968,0,0,1,.547-.309c.216-.029.432-.007.631-.047.214-.043.4-.163.593-.219.21-.061.438-.04.625-.116a4.721,4.721,0,0,0,.565-.286,3.811,3.811,0,0,0,.526-.351,2.97,2.97,0,0,0,.39-.5,2.669,2.669,0,0,0,.379-.5,2.652,2.652,0,0,0,.173-.6,3,3,0,0,0,.11-.621,3.366,3.366,0,0,0-.074-.581,2.85,2.85,0,0,0-.185-.55,2.525,2.525,0,0,0-.26-.513,2.338,2.338,0,0,0-.384-.429c-.145-.13-.253-.321-.427-.413s-.409-.111-.617-.2c-.188-.079-.4-.117-.612-.194-.193-.071-.355-.26-.566-.331s-.435-.027-.647-.093-.4-.121-.616-.185-.371-.237-.583-.3-.431-.037-.642-.1-.414-.1-.625-.161-.388-.187-.6-.25-.407-.124-.617-.189-.415-.1-.624-.165-.4-.159-.6-.226-.415-.1-.622-.17-.4-.14-.609-.212-.417-.1-.621-.177-.394-.169-.6-.245-.381-.2-.584-.279-.4-.146-.6-.227-.393-.152-.583-.235-.382-.177-.569-.266-.394-.152-.577-.248-.394-.16-.574-.264-.319-.287-.494-.4-.348-.233-.518-.352-.415-.15-.578-.277-.258-.368-.417-.513-.3-.3-.455-.459-.333-.279-.474-.442-.227-.37-.357-.542-.339-.288-.458-.468-.153-.412-.259-.6-.212-.373-.3-.568-.16-.4-.238-.6-.227-.376-.29-.584-.105-.419-.152-.632-.06-.426-.091-.642-.1-.422-.121-.64-.059-.432-.059-.65.108-.423.117-.631-.071-.431-.052-.638.052-.424.081-.63.168-.4.208-.606.1-.407.157-.609-.016-.446.05-.644.258-.356.336-.55.134-.4.226-.588.107-.422.212-.6.28-.324.4-.5.253-.335.385-.5.237-.351.38-.507.252-.346.407-.492.355-.236.52-.371.343-.241.517-.366.338-.248.519-.361.364-.207.551-.31.369-.2.562-.29.386-.161.584-.244.362-.227.563-.3.428-.044.633-.109.382-.183.589-.24.4-.145.6-.195.407-.11.617-.152a1.346,1.346,0,0,1,.327-.01,1.5,1.5,0,0,0,.314-.007c.205-.034.41-.087.622-.117s.417-.045.629-.069.42,0,.634-.022a.668.668,0,0,1,.533.13.75.75,0,0,1,.309.513c0,.307-.008.307-.008.614s-.076.307-.076.614.074.307.074.613-.04.306-.04.612.048.306.048.613-.115.306-.115.612,0,.306,0,.611.036.306.036.612a.807.807,0,0,1-.2.554.855.855,0,0,1-.531.254c-.226.031-.449.029-.647.074a4.726,4.726,0,0,0-.585.3,4.6,4.6,0,0,0-.634.161,2.881,2.881,0,0,0-.529.387,2.412,2.412,0,0,0-.35.548,2.622,2.622,0,0,0-.335.554,3.571,3.571,0,0,0-.136.637,5.458,5.458,0,0,0,.014.648,2.86,2.86,0,0,0,.107.668,2.676,2.676,0,0,0,.184.655,2.754,2.754,0,0,0,.421.538,3.05,3.05,0,0,0,.5.468,3.742,3.742,0,0,0,.588.355c.181.083.4.1.6.174.187.072.346.244.552.313s.4.09.609.153.4.1.607.159.391.127.6.185.384.158.59.215.408.073.614.131.406.082.612.141.381.173.586.232.4.1.606.162.4.106.6.169.384.156.587.221.4.107.6.174.412.075.613.145.381.167.581.239.413.081.612.155.366.208.564.285.412.089.609.167.4.145.59.228.371.209.558.3.361.221.544.317.381.183.56.286.363.214.538.325.383.188.552.307.281.329.444.457c.006.005.024,0,.042-.011s.035-.016.042-.011c.167.135.288.319.443.461s.364.239.509.392.26.341.395.5.277.325.4.5.187.385.3.566.289.325.386.514.134.407.216.6.111.408.179.611.174.388.228.595.074.416.113.626.129.408.154.621.061.421.073.636.008.425.008.64.019.441.007.656-.1.432-.126.646-.095.426-.132.638.045.456,0,.666-.2.4-.266.6-.109.423-.188.625-.18.4-.274.592-.223.373-.33.561-.207.38-.329.561-.2.389-.338.561-.235.374-.382.536-.309.311-.466.464-.359.253-.526.394-.334.277-.51.408-.353.251-.537.371-.372.22-.563.331-.4.169-.6.269-.366.234-.568.325-.4.174-.6.255-.39.2-.6.27-.416.125-.627.19-.412.139-.626.2-.432.058-.647.107-.427.069-.644.111-.422.093-.64.129-.434.019-.652.049-.418.153-.637.176a2.831,2.831,0,0,1-.343.009c-.1,0-.209,0-.313.006-.035,0-.07,0-.1,0A.619.619,0,0,1,174.905,36.016ZM91.8,36.07c-.218-.026-.431-.049-.642-.083a1.886,1.886,0,0,0-.311-.016,1.667,1.667,0,0,1-.342-.022c-.214-.045-.407-.166-.614-.221s-.418-.113-.622-.179-.428-.089-.629-.166-.416-.134-.612-.223-.367-.239-.557-.34-.4-.18-.581-.292-.352-.254-.528-.378-.338-.268-.507-.4-.379-.223-.539-.369-.237-.374-.388-.531-.323-.286-.464-.452-.291-.318-.423-.492-.244-.354-.366-.535-.194-.384-.307-.572-.251-.35-.354-.543-.227-.367-.321-.565-.126-.414-.212-.616-.18-.39-.258-.595-.163-.4-.234-.606-.1-.418-.166-.628-.142-.406-.2-.618-.166-.4-.217-.616-.065-.427-.11-.641-.148-.41-.187-.626-.009-.436-.043-.652-.13-.417-.16-.634-.07-.427-.095-.644-.006-.434-.027-.652,0-.433-.014-.652-.05-.429-.062-.648-.024-.431-.033-.65-.068-.43-.074-.649.093-.434.09-.653-.072-.431-.072-.649-.027-.437-.024-.652.064-.435.07-.65-.059-.439-.05-.653.114-.431.127-.645.014-.435.03-.649.04-.433.06-.647-.032-.441-.008-.654.107-.426.135-.639.033-.436.066-.648.117-.422.156-.633.055-.433.1-.642.059-.433.108-.641.111-.422.166-.628.11-.423.171-.627.221-.386.29-.588.071-.437.146-.637.121-.423.205-.619.29-.346.382-.54.095-.44.2-.628.208-.386.318-.569.331-.3.45-.482.177-.407.306-.577.25-.358.39-.522.337-.28.487-.435.305-.305.464-.451.3-.308.473-.444.359-.24.536-.365.338-.271.523-.384.374-.216.566-.318.368-.233.567-.323.406-.15.61-.228.422-.1.63-.164.408-.135.619-.191.415-.11.629-.155.422-.077.639-.112.42-.1.638-.125a.678.678,0,0,1,.55.146.743.743,0,0,1,.141.542c0,.322-.005.322-.005.644s.121.322.121.643-.118.321-.118.642-.015.321-.015.642.049.321.049.642-.064.321-.064.641.1.32.1.641-.091.321-.091.642a1.083,1.083,0,0,1-.176.61,1.69,1.69,0,0,1-.461.458,3.548,3.548,0,0,0-.422.492,3.963,3.963,0,0,0-.4.494,5.116,5.116,0,0,0-.342.541c-.092.182-.131.4-.212.6-.074.191-.109.4-.175.612s-.218.373-.271.587,0,.429-.048.645-.087.409-.123.625-.168.4-.2.617-.071.417-.094.634.09.432.071.649-.162.41-.177.627,0,.424-.008.642.074.427.066.644-.088.42-.095.638-.024.423-.028.64.034.424.032.641.054.424.054.64-.064.432-.062.643-.02.433-.016.644.02.431.026.641,0,.432.011.643.021.431.032.641.008.432.023.641.107.425.125.634-.061.441-.038.649.113.423.141.63.1.423.133.628.092.422.133.625-.006.445.044.646.132.417.193.613c.065.212.127.418.2.61.081.208.132.423.223.606a5.154,5.154,0,0,0,.362.536,3.9,3.9,0,0,0,.45.457,3.19,3.19,0,0,0,.461.429,1.878,1.878,0,0,1,.413.544,1.248,1.248,0,0,1,.264.628c0,.319-.04.319-.04.638s.048.319.048.638-.115.318-.115.637,0,.318,0,.636.036.318.036.637.012.318.012.636-.023.317-.023.634-.042.318-.042.636c0,.2.026.425-.106.553a.429.429,0,0,1-.312.1A2.094,2.094,0,0,1,91.8,36.07Zm-31.405,0c-.218-.026-.431-.049-.642-.083a1.889,1.889,0,0,0-.312-.016,1.667,1.667,0,0,1-.342-.022c-.214-.045-.407-.166-.614-.221s-.418-.113-.622-.179-.428-.089-.629-.166-.417-.134-.612-.223-.367-.239-.557-.34-.4-.18-.58-.292-.352-.254-.529-.378-.338-.268-.507-.4-.379-.223-.539-.369-.237-.374-.388-.531-.322-.287-.464-.452-.291-.318-.423-.492-.244-.354-.366-.535-.194-.384-.307-.572-.25-.35-.354-.543-.227-.367-.321-.565-.126-.414-.212-.616-.18-.39-.258-.6-.163-.4-.233-.606-.1-.418-.166-.628-.142-.406-.2-.618-.166-.4-.217-.616-.065-.427-.11-.641-.148-.41-.187-.626-.01-.436-.043-.652-.13-.417-.16-.634-.07-.427-.095-.644-.006-.434-.027-.652,0-.433-.014-.652-.05-.429-.062-.648-.024-.431-.034-.65-.068-.43-.073-.649.093-.434.09-.653-.072-.431-.072-.649-.027-.437-.024-.652.064-.435.07-.65-.059-.439-.05-.653.114-.431.127-.645.014-.435.03-.649.04-.433.06-.647-.032-.441-.008-.654.107-.426.136-.639.033-.436.066-.648.117-.422.155-.633.055-.433.1-.642.059-.433.109-.641.111-.422.166-.628.11-.423.172-.627.221-.386.29-.588.07-.437.146-.637.121-.423.2-.619.29-.346.383-.54.095-.44.2-.628.208-.386.318-.569.33-.3.45-.482.177-.407.306-.577.25-.358.39-.522.337-.28.487-.435.305-.305.464-.451.3-.308.473-.444.36-.24.536-.365.339-.271.524-.384.374-.216.566-.318.368-.232.567-.322.406-.15.61-.228.422-.1.63-.164.408-.135.619-.191.415-.11.63-.155.422-.077.638-.112.42-.1.638-.125a.679.679,0,0,1,.55.146.744.744,0,0,1,.141.542c0,.322-.005.322-.005.644s.121.322.121.643-.118.321-.118.642-.015.321-.015.642.049.321.049.642-.064.321-.064.641.1.32.1.641-.091.321-.091.642a1.083,1.083,0,0,1-.176.61,1.688,1.688,0,0,1-.461.458A3.529,3.529,0,0,0,60,7.776a3.986,3.986,0,0,0-.4.494,5.157,5.157,0,0,0-.342.541c-.091.182-.131.4-.212.6-.074.191-.11.4-.175.612s-.218.373-.271.587,0,.429-.048.645-.087.409-.123.625-.168.4-.2.617-.07.417-.094.634.09.432.071.649-.162.41-.177.627,0,.424-.008.642.074.427.066.644-.088.42-.095.638-.024.423-.028.64.034.424.032.641.054.424.054.64-.064.432-.062.643-.019.433-.016.644.02.431.026.641,0,.432.011.643.02.431.032.641.008.432.023.641.107.425.125.634-.06.441-.038.649.113.423.141.63.1.423.134.628.091.422.132.625-.006.445.044.646.132.417.193.613c.066.212.127.418.2.61.081.208.132.423.224.606a5.153,5.153,0,0,0,.362.536,3.894,3.894,0,0,0,.45.457,3.191,3.191,0,0,0,.461.429,1.882,1.882,0,0,1,.413.544,1.248,1.248,0,0,1,.264.628c0,.319-.04.319-.04.638s.048.319.048.638-.115.318-.115.637,0,.318,0,.636.036.318.036.637.012.318.012.636-.022.317-.022.634-.042.318-.042.636c0,.2.026.425-.106.553a.429.429,0,0,1-.312.1A2.1,2.1,0,0,1,60.391,36.07Zm34.98-.147a.739.739,0,0,1-.125-.541c0-.32-.064-.32-.064-.64s-.04-.32-.04-.64-.018-.319-.018-.639.1-.319.1-.639-.022-.319-.022-.639.009-.319.009-.638.039-.319.039-.637-.048-.319-.048-.638a1.3,1.3,0,0,1,.123-.676,1.992,1.992,0,0,1,.478-.508,3.254,3.254,0,0,0,.513-.377,4.519,4.519,0,0,0,.323-.551,5.194,5.194,0,0,0,.346-.533c.09-.183.129-.394.208-.6.073-.191.251-.355.316-.566.06-.2.113-.405.166-.619s.061-.417.1-.633.067-.414.1-.63.087-.412.117-.629.1-.413.119-.63-.081-.431-.062-.648.148-.411.164-.627.021-.422.033-.639-.061-.425-.052-.642.089-.42.095-.637.009-.423.012-.64-.046-.424-.044-.64-.028-.423-.028-.639.059-.429.057-.638-.037-.428-.041-.638.017-.428.011-.636,0-.429,0-.638-.089-.425-.1-.632.084-.434.07-.641-.072-.425-.09-.632-.061-.426-.083-.632-.036-.429-.064-.634-.013-.434-.047-.638-.113-.418-.153-.62-.12-.414-.169-.613-.051-.435-.111-.631c-.065-.211-.15-.409-.223-.6-.079-.206-.178-.4-.268-.58a5.714,5.714,0,0,0-.285-.575,4.223,4.223,0,0,0-.406-.5,3.309,3.309,0,0,0-.507-.39,1.855,1.855,0,0,1-.435-.518,1.278,1.278,0,0,1-.252-.635c0-.323.066-.323.066-.646s-.067-.323-.067-.646-.014-.322-.014-.645.041-.322.041-.645.041-.322.041-.644-.018-.322-.018-.644,0-.322,0-.643-.051-.322-.051-.644c0-.2.17-.348.3-.476a.607.607,0,0,1,.488-.232c.218.026.437.029.648.064s.419.132.628.176.442.025.649.08.393.208.6.274.414.127.614.2.4.166.595.255.426.118.616.219.353.258.537.371.381.21.558.334.321.293.49.428.348.257.508.4.338.274.489.43.29.322.432.487.282.329.413.5.177.4.3.583.3.317.414.5.255.352.359.545.087.439.182.636.282.344.368.546.171.4.249.6.037.444.108.652.218.381.282.591.144.407.2.619.043.433.094.647.1.419.14.633.113.416.152.631.044.428.078.645.1.42.128.637.052.427.077.645.087.425.108.642.014.432.031.65-.023.433-.01.652.033.429.043.648.023.43.029.649,0,.431.006.649.04.431.04.649.043.437.04.651-.093.434-.1.649-.019.434-.029.648.1.442.088.656-.146.427-.162.64-.05.432-.071.645.006.438-.018.65-.115.424-.144.635.041.446.008.657-.16.414-.2.625-.071.428-.115.637-.108.42-.158.627-.022.442-.078.649-.128.416-.19.62-.154.407-.223.609-.1.428-.173.627-.127.42-.211.617-.27.356-.363.549-.109.433-.21.622-.219.379-.33.562-.317.314-.436.491-.26.344-.389.515-.163.426-.3.589-.381.24-.53.4-.281.328-.44.474-.262.361-.43.5-.386.209-.563.334-.364.232-.548.345-.351.256-.543.358-.362.248-.56.339-.422.115-.626.193-.412.127-.62.194-.408.138-.619.194-.419.095-.633.14-.421.087-.637.123-.427.049-.644.075a1.353,1.353,0,0,1-.162.011A.533.533,0,0,1,95.371,35.923Zm-31.4,0a.738.738,0,0,1-.125-.541c0-.32-.064-.32-.064-.64s-.039-.32-.039-.64-.018-.319-.018-.639.1-.319.1-.639-.022-.319-.022-.639.009-.319.009-.638.039-.319.039-.637-.048-.319-.048-.638a1.3,1.3,0,0,1,.123-.676,1.994,1.994,0,0,1,.477-.508,3.26,3.26,0,0,0,.513-.377,4.508,4.508,0,0,0,.323-.551,5.157,5.157,0,0,0,.346-.533c.09-.183.129-.394.208-.6.073-.191.251-.355.316-.566.06-.2.113-.405.166-.619s.061-.417.1-.633.067-.414.1-.63.087-.412.117-.629.095-.413.119-.63-.081-.431-.062-.648.148-.411.163-.627.021-.422.033-.639-.061-.425-.052-.642.089-.42.1-.637.009-.423.012-.64-.046-.424-.044-.64-.028-.423-.028-.639.059-.429.058-.638-.037-.428-.041-.638.017-.428.011-.636,0-.429,0-.638-.089-.425-.1-.632.085-.434.07-.641-.072-.425-.09-.632-.061-.425-.084-.631-.036-.429-.063-.634-.013-.434-.046-.638-.113-.418-.153-.62-.12-.414-.169-.613-.051-.435-.111-.631c-.064-.211-.15-.409-.223-.6-.079-.206-.178-.4-.268-.58a5.82,5.82,0,0,0-.286-.575,4.2,4.2,0,0,0-.406-.5,3.33,3.33,0,0,0-.507-.39,1.852,1.852,0,0,1-.435-.518,1.278,1.278,0,0,1-.253-.635c0-.323.066-.323.066-.646s-.066-.323-.066-.646-.015-.322-.015-.645.041-.322.041-.645.041-.322.041-.644-.019-.322-.019-.644,0-.322,0-.643-.051-.322-.051-.644c0-.2.17-.348.3-.476a.607.607,0,0,1,.488-.232c.217.026.437.029.648.064s.419.132.628.176.442.025.648.08.393.208.6.274.414.127.614.2.4.166.595.255.426.118.616.219.353.258.537.371.381.21.558.334.321.293.49.428.348.257.508.4.338.274.489.43.29.322.432.487.281.329.413.5.177.4.3.583.3.317.414.5.255.352.358.545.087.439.182.636.282.344.368.546.17.4.249.6.036.444.107.652.218.381.282.591.144.407.2.619.043.433.094.647.1.419.141.633.113.416.152.631.044.428.078.645.1.42.127.637.052.428.077.645.087.425.108.642.014.432.031.65-.023.433-.01.652.033.429.043.648.023.43.029.649,0,.431.006.649.04.431.04.649.043.437.04.651-.093.434-.1.649-.019.434-.029.648.1.442.088.656-.146.427-.162.64-.05.432-.071.645.006.438-.019.65-.115.424-.144.635.041.446.008.657-.16.414-.2.625-.071.428-.115.637-.108.42-.158.627-.022.442-.077.649-.128.416-.19.62-.154.407-.223.609-.1.428-.173.627-.127.42-.211.617-.271.356-.363.549-.108.433-.21.622-.219.379-.329.562-.317.314-.437.491-.259.344-.389.515-.163.426-.3.589-.38.24-.53.4-.281.328-.44.474-.262.361-.43.5-.386.209-.563.334-.364.232-.548.345-.351.256-.543.358-.362.249-.56.339-.422.115-.626.193-.412.127-.62.194-.408.138-.619.194-.42.095-.634.14-.421.087-.637.123-.427.049-.644.075a1.359,1.359,0,0,1-.162.011A.532.532,0,0,1,63.966,35.923Zm51.589-.59c-.317,0-.317-.024-.634-.024s-.317.012-.634.012-.317-.011-.634-.011l-.633,0c-.316,0-.316-.017-.632-.017s-.317.075-.634.075-.317-.1-.634-.1-.317.064-.633.064a.641.641,0,0,1-.5-.206.69.69,0,0,1-.13-.551c.081-.311.176-.286.256-.6s.059-.317.14-.627.089-.308.169-.619.118-.3.2-.611.034-.322.115-.632.006-.33.086-.639.088-.308.168-.617.154-.291.234-.6.009-.329.089-.639.119-.3.2-.61.033-.322.114-.633.192-.281.272-.59.076-.311.156-.621.045-.318.125-.628.068-.313.148-.623.1-.3.182-.613.121-.3.2-.608-.041-.341.039-.651.19-.281.271-.591.073-.311.154-.62,0-.33.08-.639.151-.291.231-.6.078-.31.158-.62.029-.323.109-.632.051-.317.131-.627.138-.295.218-.6.048-.318.128-.628.106-.3.186-.612.1-.3.178-.615.012-.327.092-.637.186-.282.266-.592.041-.32.122-.629.06-.315.14-.624.093-.306.173-.616.127-.3.207-.607.042-.319.122-.629.05-.317.13-.626.139-.294.219-.6.065-.314.144-.623.066-.313.147-.623.113-.3.193-.611.059-.315.139-.624.022-.324.1-.634.111-.3.191-.61.018-.325.1-.634.144-.293.224-.6.016-.326.1-.636.066-.314.146-.623.12-.3.2-.609.12-.3.2-.608.062-.314.142-.623.079-.309.159-.618.031-.322.111-.631c.056-.216.265-.348.432-.478a.963.963,0,0,1,.572-.264c.319,0,.32-.025.64-.019s.319.019.638.019.319-.029.638-.029.319.056.638.056.319-.073.638-.073.319.094.637.094.318-.013.636-.013.319.005.638.005.319-.076.638-.076.318.056.637.056a.612.612,0,0,1,.486.211.6.6,0,0,1,.062.518c-.081.311-.056.317-.137.628s-.049.319-.13.63-.088.308-.169.619-.074.312-.155.622-.174.286-.255.6-.005.33-.086.64-.041.32-.121.629-.2.279-.283.589.025.338-.056.648-.076.311-.157.621-.2.28-.278.59,0,.332-.077.642-.058.316-.139.625-.147.293-.227.6-.082.31-.162.619-.053.317-.134.626-.111.3-.191.611-.048.318-.129.628-.084.309-.165.619-.042.319-.122.628-.1.3-.184.612-.133.3-.213.605-.071.312-.152.622-.075.311-.155.621-.088.308-.168.618-.046.319-.126.628-.038.321-.118.631-.163.288-.243.6-.086.308-.166.618.037.34-.044.65-.2.28-.276.59-.1.306-.176.615-.033.322-.113.631-.142.294-.223.6.02.336-.061.646-.169.286-.249.6-.071.312-.151.621-.1.305-.177.614,0,.331-.079.64-.092.307-.173.616-.106.3-.186.613-.031.322-.111.632-.046.318-.126.627-.181.283-.261.592.011.333-.069.642-.088.307-.169.617-.181.283-.261.593-.1.306-.177.615.049.343-.031.653-.2.277-.284.586-.05.317-.13.626.013.333-.068.642-.151.291-.231.6a.944.944,0,0,1-.354.513.972.972,0,0,1-.585.241c-.318,0-.318.057-.635.057S115.873,35.333,115.555,35.333Zm-98.889-.047c-.319,0-.319.095-.639.095s-.319-.008-.638-.008-.319-.1-.638-.1-.319-.017-.638-.017-.319.134-.637.134-.318-.127-.636-.127-.319.032-.638.032-.319.1-.638.1-.318-.072-.637-.072a.547.547,0,0,1-.445-.232.573.573,0,0,1-.138-.5c.081-.311.026-.325.107-.636s.143-.295.224-.606.1-.3.185-.615.07-.313.15-.624.092-.308.173-.618.079-.311.159-.62.1-.305.177-.615.008-.329.088-.639.179-.285.259-.595.019-.326.1-.636.043-.32.123-.63.064-.314.144-.624.176-.285.256-.6.059-.315.14-.625.09-.308.17-.618.119-.3.2-.609.034-.321.115-.631.006-.329.087-.639.089-.307.169-.617.154-.29.235-.6.009-.328.089-.637.119-.3.2-.608.034-.322.115-.632.192-.281.273-.59.076-.311.157-.62.046-.319.126-.629.069-.313.149-.622.1-.3.183-.613.121-.3.2-.609-.04-.341.04-.651.191-.281.271-.59.074-.311.155-.621,0-.33.081-.64.151-.291.232-.6.078-.31.159-.62.03-.323.111-.632.051-.317.131-.626.139-.294.219-.6.048-.318.129-.627.106-.3.186-.613.1-.305.179-.615.012-.327.093-.637.186-.282.267-.591.042-.319.122-.628.06-.315.14-.624.094-.306.174-.615.127-.3.208-.607.042-.319.122-.629.05-.317.131-.627.139-.294.22-.6.065-.313.145-.622.067-.313.147-.622.114-.3.194-.61a.888.888,0,0,1,.316-.514.967.967,0,0,1,.577-.258c.317,0,.317.032.635.032s.318-.064.636-.064.317.066.634.066.317-.066.634-.066.317-.015.634-.015.317.041.633.041.316.041.632.041.317-.019.634-.019h.634c.317,0,.317-.051.633-.051a1.012,1.012,0,0,1,.572.3.962.962,0,0,1,.4.487c.082.315.02.331.1.648s.167.294.249.61.027.329.109.644.036.327.118.641.13.3.212.617.058.321.14.635.139.3.221.613.1.31.18.625.072.317.154.631.105.308.187.622.011.333.093.648.042.324.124.639.207.281.289.6-.011.338.07.652.11.307.192.621.066.318.148.632.049.322.131.636.1.31.178.624.135.3.217.614.132.3.214.614.069.317.151.63.023.329.1.642.085.313.166.627a2.783,2.783,0,0,1-.014,1.47c-.081.313-.127.3-.208.615s-.035.325-.116.639-.08.313-.16.626-.038.324-.119.637-.095.31-.176.622-.064.317-.145.63-.129.3-.21.612-.1.307-.185.619-.067.316-.148.629-.127.3-.208.613.014.337-.067.65-.127.3-.208.613-.023.327-.1.64-.075.314-.156.626-.189.284-.27.6.011.336-.07.648-.086.311-.167.623-.131.3-.212.612.015.337-.066.649-.178.287-.259.6-.034.324-.114.635-.06.317-.14.629a.235.235,0,0,1-.436,0c-.081-.314-.109-.307-.19-.62s-.027-.328-.108-.642-.152-.295-.233-.608.01-.337-.071-.65-.094-.31-.175-.623-.076-.314-.157-.626-.154-.293-.235-.605-.027-.327-.108-.64-.108-.306-.189-.619-.035-.324-.116-.637-.106-.306-.187-.619-.113-.3-.194-.617-.073-.315-.154-.627-.087-.311-.168-.623.012-.337-.069-.65-.156-.293-.237-.605-.121-.3-.2-.614.041-.344-.039-.656-.187-.285-.267-.6-.085-.311-.166-.623.036-.342-.044-.654-.164-.29-.245-.6a.346.346,0,0,0-.37-.264.387.387,0,0,0-.414.252c-.081.314-.082.314-.164.628s-.054.321-.135.635-.111.306-.193.619-.049.322-.13.635-.084.312-.166.626-.042.323-.123.636-.1.307-.186.619-.133.3-.215.613-.072.316-.153.629-.075.315-.156.628-.088.311-.169.625-.046.322-.127.634-.038.324-.119.637-.163.292-.244.6-.086.312-.167.625.036.343-.044.656-.2.283-.277.6-.1.309-.177.621-.033.325-.114.638-.143.3-.223.609.02.338-.061.65-.169.289-.25.6-.072.316-.152.628-.1.309-.178.621,0,.334-.08.647-.093.31-.174.623-.106.306-.187.619a1,1,0,0,1-.31.558,1.072,1.072,0,0,1-.618.247C16.986,35.389,16.986,35.286,16.666,35.286Zm16.118.016c-.318,0-.318-.041-.636-.041s-.319.018-.638.018h-.638c-.318,0-.318.051-.637.051-.193,0-.321-.175-.427-.313a.563.563,0,0,1-.161-.483c.081-.311.057-.318.144-.627s.1-.306.18-.616.053-.318.134-.628.135-.3.216-.606.01-.329.091-.639.172-.286.252-.6.068-.313.149-.622.085-.309.166-.619.007-.329.087-.639.135-.3.215-.606.054-.317.134-.627.127-.3.207-.608.056-.317.136-.626.049-.318.129-.628.088-.308.169-.618.074-.311.155-.621.173-.285.254-.594.005-.33.086-.639.041-.32.121-.63.2-.278.283-.586-.025-.337.055-.646.076-.31.157-.619.2-.28.278-.589,0-.331.077-.641.058-.316.139-.625.147-.293.227-.6.082-.31.162-.619.053-.317.134-.626.111-.3.191-.611.048-.318.129-.628.084-.309.164-.618.042-.319.122-.629.1-.3.185-.613.133-.3.214-.606.071-.312.152-.622.075-.311.155-.62.087-.308.168-.617.046-.318.126-.628.037-.32.118-.63.163-.288.244-.6.086-.309.166-.618-.037-.34.043-.649.195-.28.275-.589.1-.305.176-.614.032-.322.113-.631.142-.293.223-.6-.02-.336.06-.645.169-.287.249-.6.071-.312.151-.621.1-.3.177-.614,0-.33.079-.64.092-.306.173-.615.105-.3.186-.612a1,1,0,0,1,.311-.558,1.074,1.074,0,0,1,.618-.247c.318,0,.318.1.635.1s.317-.095.635-.095.317.008.634.008.317.1.634.1.317.017.634.017.317-.134.634-.134.316.127.632.127.317-.032.634-.032.317-.1.634-.1.317.073.633.073a.549.549,0,0,1,.445.231.575.575,0,0,1,.139.5c-.08.311-.026.325-.106.636s-.143.295-.223.606-.1.3-.184.615-.069.313-.15.624-.091.307-.172.618-.078.31-.159.62-.1.306-.176.615-.008.329-.088.639-.178.285-.259.6-.019.326-.1.636-.042.32-.122.63-.063.315-.143.624-.176.285-.256.6-.059.315-.139.625-.089.308-.169.618-.118.3-.2.61-.034.321-.114.631-.006.329-.086.639-.088.308-.168.617-.154.29-.234.6-.009.327-.089.637-.119.3-.2.608-.034.322-.114.631-.192.281-.272.591-.076.31-.156.62-.045.319-.126.628-.068.313-.148.623-.1.3-.182.613-.121.3-.2.609.041.341-.039.651-.19.281-.27.591-.074.311-.154.62,0,.33-.081.64-.151.291-.231.6-.078.31-.158.62-.029.322-.11.632-.051.317-.131.626-.138.294-.218.6-.048.318-.128.627-.106.3-.186.613-.1.3-.178.614-.011.327-.092.636-.186.282-.266.591-.041.319-.121.628-.059.315-.14.624-.093.306-.173.615-.127.3-.207.607-.042.32-.122.629-.05.317-.13.626-.139.294-.219.6-.064.313-.144.622-.066.313-.146.622-.113.3-.193.61a.888.888,0,0,1-.315.514.966.966,0,0,1-.577.257c-.319,0-.319-.032-.639-.032s-.319.064-.639.064-.319-.066-.638-.066-.319.067-.638.067-.319.014-.638.014S33.1,35.3,32.784,35.3Zm122.022-.083c-.317,0-.317.006-.635.006s-.317.082-.634.082-.317-.073-.634-.073-.317,0-.634,0-.317.052-.633.052-.316.03-.633.03-.317-.06-.633-.06-.317.033-.633.033-.317-.026-.633-.026a.944.944,0,0,1-.584-.218,1,1,0,0,1-.409-.5c-.082-.316.024-.343-.058-.658s-.121-.305-.2-.62-.1-.31-.184-.625-.069-.318-.151-.633-.035-.327-.117-.641-.12-.3-.2-.619-.112-.306-.194-.62-.023-.33-.1-.644-.1-.31-.179-.625-.1-.311-.177-.625-.049-.323-.13-.638-.1-.309-.185-.623-.14-.3-.221-.614-.051-.322-.132-.636-.144-.3-.225-.613-.018-.331-.1-.644-.146-.3-.227-.611-.1-.31-.177-.625-.042-.324-.124-.638-.042-.324-.123-.638-.1-.309-.181-.622-.082-.314-.163-.627-.131-.3-.213-.616a3.011,3.011,0,0,1,.007-.75,2.946,2.946,0,0,1,.026-.742c.081-.314.06-.319.148-.631s.147-.3.228-.61.082-.313.163-.625.054-.32.135-.633.111-.305.192-.618.049-.321.13-.633.084-.311.165-.623.042-.323.123-.635.105-.307.186-.619.133-.3.214-.611.072-.315.152-.628.075-.314.156-.626.088-.311.169-.623.046-.321.127-.634.038-.324.119-.636.163-.291.244-.6.086-.311.167-.623-.036-.343.044-.655.2-.283.276-.595.1-.308.176-.62.033-.324.114-.636.142-.3.223-.607c.051-.2.283-.223.334-.026.08.31-.008.333.073.643s.09.308.17.618.064.314.144.624.162.289.242.6.069.313.149.623.055.316.135.625.13.3.209.605.115.3.195.61-.02.335.06.645.172.286.252.595.072.312.152.621-.021.335.059.645.064.313.144.623.209.276.289.585-.043.341.037.651.111.3.191.61.173.285.252.594.01.327.09.636.067.313.147.622.119.3.2.607.134.295.214.6.018.325.1.634.057.315.137.624.091.306.171.615.069.312.149.621.082.309.161.618.064.313.144.622.153.29.232.6-.018.335.062.644.142.293.222.6.118.3.2.608.1.3.177.613-.015.334.065.643.1.3.181.612.071.311.151.621.042.319.122.628.126.3.206.605.154.29.234.6.072.311.152.62.006.328.086.637.151.291.231.6.041.319.121.628.127.3.207.605-.032.338.048.646.084.308.164.616.115.3.195.608.092.306.172.615.058.315.138.624a.5.5,0,0,1-.133.46c-.106.137-.219.327-.412.327C155.124,35.332,155.124,35.218,154.806,35.218ZM134.863,35.2c-.317,0-.317.087-.634.087s-.317.023-.634.023-.317-.069-.634-.069h-.633c-.316,0-.316.028-.633.028s-.317-.031-.633-.031-.317.033-.633.033-.317,0-.633,0a1.014,1.014,0,0,1-.621-.173,1.024,1.024,0,0,1-.338-.554c-.082-.315-.029-.329-.112-.644s-.091-.313-.173-.628-.088-.314-.17-.628-.075-.317-.157-.632-.116-.306-.2-.62-.125-.3-.207-.617,0-.335-.081-.649-.077-.316-.158-.63-.2-.284-.281-.6.033-.344-.049-.658-.067-.318-.149-.633-.13-.3-.211-.616-.02-.33-.1-.645-.182-.288-.263-.6.007-.337-.075-.651-.091-.311-.173-.626-.065-.318-.147-.632-.163-.293-.245-.607-.07-.317-.152-.631-.056-.32-.138-.634-.131-.3-.212-.614-.116-.3-.2-.618.019-.34-.063-.654a3.028,3.028,0,0,1-.187-.726,3.023,3.023,0,0,1,.1-.748c.081-.314.182-.288.263-.6s.1-.309.179-.623-.049-.346.032-.66.2-.281.285-.594.05-.321.131-.634-.012-.337.069-.649.151-.294.232-.606.094-.309.175-.622.042-.323.122-.635.026-.327.107-.639.143-.3.224-.609.1-.306.185-.619.07-.315.151-.628.092-.309.173-.621.079-.313.16-.626.1-.308.177-.62.008-.331.089-.643.179-.287.259-.6.019-.328.1-.641.042-.322.123-.634.064-.316.144-.628.176-.287.257-.6a.167.167,0,0,1,.332-.006c.081.314.072.316.154.63s.043.324.124.637.128.3.209.614.156.294.237.607.073.315.154.628.007.332.088.645.152.294.233.606.042.323.123.635.128.3.208.614-.031.341.05.654.085.312.166.625.116.3.2.616.093.31.174.622.059.318.14.63.04.323.121.636.2.281.282.593-.029.341.051.653.087.311.168.623.16.292.241.6.01.33.09.642.083.311.164.623.131.3.212.611a.338.338,0,0,0,.369.255.365.365,0,0,0,.4-.248c.081-.314.05-.323.131-.636s.106-.308.188-.622.1-.309.18-.623.013-.331.094-.644.187-.286.268-.6.043-.323.123-.636.06-.318.141-.631.094-.31.175-.623.128-.3.209-.614.043-.323.124-.636.051-.321.132-.634.14-.3.221-.61.065-.317.147-.63.067-.316.148-.629.114-.3.2-.618.06-.318.141-.631.023-.327.1-.64.112-.3.193-.618.019-.329.1-.641.145-.3.226-.608.016-.329.1-.641.066-.316.147-.628.121-.3.2-.615.121-.3.2-.615.063-.317.144-.63.081-.313.162-.626.032-.325.113-.638c.056-.216.265-.348.433-.478a.96.96,0,0,1,.571-.264c.32,0,.318.064.638.07s.32-.087.64-.087.319.057.638.057.319.047.638.047.319-.05.638-.05.319.025.637.025.318-.059.636-.059.319-.017.638-.017.319.01.638.01.318-.024.637-.024a.613.613,0,0,1,.446.292.51.51,0,0,1,.06.476c-.081.311.044.344-.036.655s-.173.287-.254.6-.052.318-.133.628-.1.306-.177.617-.113.3-.194.612-.065.314-.146.624-.027.324-.108.633-.03.323-.11.633-.093.307-.173.617-.139.295-.219.6-.078.311-.158.621-.083.309-.164.619-.093.307-.174.617-.126.3-.206.607-.034.322-.115.632-.079.31-.16.62-.037.32-.118.63-.094.306-.174.616-.064.314-.144.624-.129.3-.209.605-.1.3-.184.612-.067.313-.147.622-.127.3-.208.607.015.335-.066.644-.127.3-.207.607-.022.325-.1.635-.074.311-.155.621-.188.281-.269.591.011.333-.07.643-.086.309-.166.618-.131.3-.211.606.015.334-.065.644-.178.284-.258.594-.034.322-.114.632-.06.315-.14.625-.1.3-.18.614-.053.317-.133.626-.135.3-.216.6-.01.328-.09.637-.172.286-.252.6-.068.313-.149.622-.085.308-.166.618-.007.328-.087.638-.134.3-.215.6-.054.316-.134.625-.127.3-.207.607-.056.316-.136.625-.049.318-.129.628-.088.307-.168.617-.074.311-.154.62-.174.285-.254.594,0,.329-.085.638-.04.32-.121.629c-.056.216-.281.332-.449.462a.982.982,0,0,1-.56.3c-.317,0-.317,0-.635,0S135.181,35.2,134.863,35.2ZM7.664,31.389c-.08-.31-.082-.31-.162-.62s-.065-.314-.145-.625-.153-.291-.233-.6.018-.335-.063-.645-.142-.294-.222-.6-.118-.3-.2-.609-.1-.3-.177-.613.015-.334-.065-.644-.1-.3-.181-.614-.071-.311-.151-.621-.042-.319-.122-.629-.126-.3-.206-.606-.155-.29-.235-.6-.072-.311-.152-.62-.006-.328-.086-.638-.151-.29-.231-.6-.041-.319-.121-.628-.126-.3-.206-.606.031-.338-.049-.647-.084-.308-.164-.616S4.38,18.7,4.3,18.4s-.092-.306-.172-.615-.058-.315-.138-.624-.039-.32-.119-.629-.2-.278-.281-.587.03-.338-.05-.647-.086-.308-.166-.617-.159-.288-.239-.6-.009-.328-.089-.637-.082-.309-.162-.618-.13-.3-.211-.605-.109-.3-.189-.61-.022-.324-.1-.633-.112-.3-.192-.61-.055-.315-.135-.625-.062-.314-.142-.623-.148-.291-.228-.6.026-.336-.054-.645-.119-.3-.2-.608-.1-.3-.181-.613-.067-.313-.147-.622S1.071,5.712.991,5.4s-.118-.3-.2-.608-.11-.3-.19-.61S.582,3.863.5,3.554s-.1-.3-.175-.614S.233,2.635.153,2.326.106,2.008.026,1.7A.5.5,0,0,1,.1,1.232.569.569,0,0,1,.536.959c.317,0,.317.032.635.032s.318-.064.635-.064.317.066.634.066.317-.066.634-.066.317-.015.634-.015.317.041.633.041.316.041.633.041.317-.018.634-.018h.633c.317,0,.317-.051.633-.051a1.011,1.011,0,0,1,.572.3.962.962,0,0,1,.4.487c.082.315.1.31.179.628s.016.332.1.647.081.315.163.63.109.308.191.623.051.323.133.637.114.306.2.62.078.315.16.629.121.3.2.619.058.321.139.635.029.328.111.642.091.312.173.627.087.313.169.627.075.316.157.631.116.3.2.619.125.3.206.618,0,.336.081.649.076.315.158.629.2.283.281.6-.033.344.049.658.066.317.148.631.129.3.211.614.02.33.1.643.182.288.263.6a2.956,2.956,0,0,1,0,.744,2.841,2.841,0,0,1-.082.723c-.081.314-.1.309-.179.623s0,.334-.08.648-.093.31-.174.623-.106.307-.187.619-.031.326-.113.639-.046.322-.127.634-.181.286-.262.6.011.336-.07.649-.089.311-.17.623-.181.286-.262.6-.1.308-.178.621.049.346-.032.658-.2.281-.285.593-.05.32-.131.632.012.337-.069.649-.151.294-.232.606-.094.309-.174.62-.041.322-.122.634-.026.326-.107.639-.143.3-.224.607-.1.306-.185.617-.07.315-.15.626a.183.183,0,0,1-.177.146A.187.187,0,0,1,7.664,31.389Zm175.055-19c-.315,0-.315-.041-.629-.041s-.314.019-.629.019h-.628c-.315,0-.315.051-.629.051-.212,0-.37-.174-.514-.31a.831.831,0,0,1-.313-.495c-.023-.229-.042-.451-.082-.664s-.07-.449-.13-.658a5.82,5.82,0,0,0-.232-.629,5.257,5.257,0,0,0-.286-.607,4.759,4.759,0,0,0-.376-.556,4.63,4.63,0,0,0-.44-.509,4.807,4.807,0,0,0-.564-.367,5.015,5.015,0,0,0-.519-.436,6.06,6.06,0,0,0-.64-.219c-.2-.078-.425-.109-.646-.169a1.183,1.183,0,0,1-.572-.339.964.964,0,0,1-.137-.63c0-.316-.022-.316-.022-.632s.009-.316.009-.632.039-.315.039-.631-.048-.315-.048-.631-.077-.315-.077-.631.008-.315.008-.63.076-.314.076-.629-.074-.315-.074-.63a.8.8,0,0,1,.26-.533.754.754,0,0,1,.54-.252c.219.014.427.144.64.164s.433.038.645.063.435.019.647.051.432.057.642.1.422.107.63.154.411.141.617.2.453,0,.657.063.376.244.576.319.406.149.6.234.431.1.623.2.351.263.538.369.373.217.552.334.388.2.561.328.363.242.527.382.285.331.439.482.329.284.473.445.264.343.4.513.246.353.369.532.3.321.411.508.12.425.222.619.229.365.319.564.192.386.271.59.139.407.209.615.086.422.146.633.151.4.2.617.126.412.169.627.02.432.055.648.081.421.108.639.065.424.086.642a.574.574,0,0,1-.2.478.623.623,0,0,1-.472.219c-.315,0-.315.06-.631.06s-.315-.032-.631-.032-.315.064-.63.064-.315-.066-.629-.066-.315.067-.629.067-.314.015-.629.015S183.033,12.39,182.72,12.39Z" transform="translate(0 0)" fill="#fff" stroke="rgba(0,0,0,0)" stroke-miterlimit="10" stroke-width="1"/>
  </g>
</svg>
