<?xml version="1.0" encoding="utf-8"?>
<!-- Generator: Adobe Illustrator 25.4.1, SVG Export Plug-In . SVG Version: 6.00 Build 0)  -->
<svg version="1.1" id="コンポーネント_22_1" xmlns="http://www.w3.org/2000/svg" xmlns:xlink="http://www.w3.org/1999/xlink"
	 x="0px" y="0px" viewBox="0 0 249 137" style="enable-background:new 0 0 249 137;" xml:space="preserve">
<style type="text/css">
	.st0{enable-background:new    ;}
	.st1{fill:none;}
	.st2{fill:none;stroke:#000000;}
</style>
<g class="st0">
	<path d="M8.5,10.9c0,0.1-0.1,0.2-0.2,0.2L6,11H3.8l-2.3,0c-0.1,0-0.2-0.1-0.2-0.2V10c0-0.1,0-0.2,0.2-0.2l2.3,0H6l2.3,0
		c0.1,0,0.2,0.1,0.2,0.2V10.9z M7.9,24.9c0,0.1-0.1,0.2-0.2,0.2H6.8c-0.1,0-0.2-0.1-0.2-0.2v-0.7H3.6v1.2c0,0.1-0.1,0.2-0.2,0.2H2.5
		c-0.1,0-0.2-0.1-0.2-0.2l0-3.2v-1.3l0-2c0-0.1,0.1-0.2,0.2-0.2l1.9,0h1.5l1.9,0c0.1,0,0.2,0,0.2,0.2l0,1.6v1.3L7.9,24.9z M8.1,7.9
		C8.1,8,8,8.1,7.9,8.1L6,8H4.4l-1.9,0C2.4,8.1,2.3,8,2.3,7.9V7c0-0.1,0.1-0.2,0.2-0.2l1.9,0H6l1.9,0C8,6.9,8.1,6.9,8.1,7V7.9z
		 M7.7,13.8C7.7,14,7.7,14,7.5,14l-1.8,0H4.5l-1.8,0c-0.1,0-0.2-0.1-0.2-0.2V13c0-0.1,0.1-0.2,0.2-0.2l1.8,0h1.3l1.8,0
		c0.1,0,0.2,0.1,0.2,0.2V13.8z M7.7,16.8c0,0.1-0.1,0.2-0.2,0.2l-1.8,0H4.5l-1.8,0c-0.1,0-0.2-0.1-0.2-0.2v-0.9
		c0-0.1,0.1-0.2,0.2-0.2l1.8,0h1.3l1.8,0c0.1,0,0.2,0.1,0.2,0.2V16.8z M6.7,23.1v-3.2H3.6v3.2H6.7z M21.6,23
		c-0.3,0.2-0.5,0.5-0.6,0.8c-0.1,0.2-0.2,0.3-0.3,0.3c-0.1,0-0.2-0.1-0.3-0.2c-2.2-1.4-3.9-3.1-5.2-5c0,1.4,0,2.9,0.1,4.6
		c0,1.2,0,1.9,0,1.9c0,0.1-0.1,0.2-0.2,0.2h-1c-0.1,0-0.2-0.1-0.2-0.2c0-0.1,0-0.4,0-1.1c0.1-2,0.1-3.7,0.1-5.3
		c-1.2,1.9-2.9,3.6-4.9,5c-0.2,0.1-0.3,0.2-0.3,0.2c-0.1,0-0.2-0.1-0.3-0.3c-0.2-0.3-0.4-0.5-0.6-0.6c2.3-1.4,4.2-3,5.5-5h-1.7
		l-3,0.1c-0.1,0-0.2-0.1-0.2-0.2v-0.8c0-0.1,0.1-0.2,0.2-0.2l3,0h2.3v-2h-1.3l-2.7,0c-0.1,0-0.2,0-0.2-0.2l0-2.2V9.2l0-2.2
		c0-0.1,0.1-0.2,0.2-0.2l2.7,0h4l2.7,0c0.1,0,0.2,0.1,0.2,0.2l0,2.2v3.7l0,2.2c0,0.1-0.1,0.2-0.2,0.2l-2.7,0h-1.5v2h2.6l3,0
		c0.1,0,0.2,0.1,0.2,0.2v0.8c0,0.1-0.1,0.2-0.2,0.2l-3-0.1h-2C17.2,20.1,19.1,21.6,21.6,23z M14.1,10.5V7.9h-3v2.6H14.1z M14.1,14.1
		v-2.6h-3v2.6H14.1z M18.5,10.5V7.9h-3.2v2.6H18.5z M18.5,14.1v-2.6h-3.2v2.6H18.5z"/>
	<path d="M46.1,23.3c-0.2,0.3-0.3,0.6-0.4,0.9c0,0.2-0.1,0.4-0.1,0.4c-0.1,0-0.2,0.1-0.4,0.1c-2,0.2-4.3,0.3-6.8,0.3
		c-3.7,0-6.3-0.5-7.9-1.5c-0.9-0.6-1.6-1.4-2.2-2.4c-0.4,1.5-0.9,2.7-1.6,3.8c-0.1,0.2-0.2,0.2-0.2,0.2c0,0-0.1-0.1-0.3-0.2
		c-0.2-0.2-0.5-0.3-0.8-0.4c0.7-0.9,1.3-1.8,1.6-2.9c0.3-0.9,0.5-2,0.6-3.3c0-0.1,0-0.3,0-0.5c0-0.2,0-0.3,0-0.5
		c0.5,0,0.9,0.1,1.1,0.2c0.2,0,0.3,0.1,0.3,0.2c0,0.1,0,0.2-0.1,0.3c-0.1,0.1-0.1,0.3-0.2,0.5l-0.2,1.2c0.6,1.1,1.3,1.9,2,2.5v-6
		h-1.8l-2.7,0.1c-0.1,0-0.2-0.1-0.2-0.2v-0.9c0-0.1,0.1-0.2,0.2-0.2l2.7,0h4l2.7,0c0.1,0,0.2,0.1,0.2,0.2v0.9c0,0.1-0.1,0.2-0.2,0.2
		l-2.7-0.1h-0.9v2.5H33l1.8,0c0.1,0,0.2,0.1,0.2,0.2v0.8c0,0.1-0.1,0.2-0.2,0.2l-1.8,0h-1.2v3.1c1.4,0.6,3.5,0.9,6.3,0.9
		C40.9,23.8,43.5,23.6,46.1,23.3z M34.6,13.4c0,0.1-0.1,0.2-0.2,0.2l-2.3,0h-2.6l-2.3,0c-0.1,0-0.2-0.1-0.2-0.2l0-2V8.9l0-1.9
		c0-0.1,0.1-0.2,0.2-0.2l2.3,0h2.6l2.3,0c0.1,0,0.2,0.1,0.2,0.2l0,1.9v2.6L34.6,13.4z M33.3,9.7V7.8h-5v1.8H33.3z M33.3,12.6v-1.9
		h-5v1.9H33.3z M39.2,20.5c0,0.1-0.1,0.2-0.2,0.3c-0.1,0-0.2,0.1-0.4,0.3c-1,0.7-2,1.4-3,1.9c-0.1,0.1-0.2,0.1-0.3,0.1
		c-0.1,0-0.2-0.1-0.3-0.3c-0.2-0.2-0.3-0.4-0.5-0.6c1.3-0.6,2.3-1.2,3.1-1.8c0.2-0.2,0.4-0.4,0.6-0.7c0.4,0.2,0.6,0.4,0.8,0.5
		C39.1,20.4,39.2,20.5,39.2,20.5z M45.5,7.8c0,0.1-0.1,0.2-0.2,0.2l-2.8,0h-1.7c-0.2,0.8-0.5,1.4-0.7,1.9h1.5l2.4,0
		c0.1,0,0.2,0.1,0.2,0.2l0,2.4v4.5l0,2.4c0,0.1-0.1,0.2-0.2,0.2l-2.4,0H39l-2.3,0c-0.1,0-0.2-0.1-0.2-0.2l0-2.4v-4.5l0-2.4
		c0-0.1,0.1-0.2,0.2-0.2l2.2,0c0.3-0.7,0.5-1.4,0.6-1.9h-1.1l-2.8,0c-0.1,0-0.2,0-0.2-0.2V7c0-0.1,0.1-0.2,0.2-0.2l2.8,0h4.2l2.8,0
		c0.1,0,0.2,0.1,0.2,0.2V7.8z M42.9,12.7v-1.8h-5.3v1.8H42.9z M42.9,15.5v-1.8h-5.3v1.8H42.9z M42.9,18.4v-2h-5.3v2H42.9z M45.5,22
		c-0.2,0.2-0.4,0.4-0.5,0.6c-0.2,0.2-0.3,0.4-0.3,0.4c-0.1,0-0.2,0-0.3-0.1c-1.3-0.6-2.4-1.4-3.3-2.3C41,20.5,41,20.5,41,20.4
		c0,0,0.1-0.1,0.2-0.2l0.4-0.3c0.1-0.1,0.2-0.1,0.2-0.1c0,0,0.1,0,0.2,0.1C42.9,20.8,44.1,21.5,45.5,22z"/>
	<path d="M59.2,23.4c0,0.7-0.2,1.2-0.5,1.5c-0.3,0.3-1.1,0.4-2.2,0.4c-0.2,0-0.4,0-0.4-0.1S56,25,56,24.8c-0.1-0.4-0.2-0.7-0.4-0.9
		c0.5,0,1,0.1,1.4,0.1c0.1,0,0.3,0,0.4,0c0.5,0,0.7-0.3,0.7-0.8v-4H53c-0.2,2.3-0.7,4.2-1.5,5.8c-0.1,0.2-0.2,0.3-0.2,0.3
		c-0.1,0-0.2,0-0.2-0.2c-0.2-0.2-0.5-0.4-0.7-0.6c0.7-1.2,1.2-2.5,1.4-3.9c0.2-1.2,0.3-2.8,0.3-4.7v-2l0-2.2l-0.7,0.8
		c-0.2,0.2-0.2,0.2-0.3,0.2c-0.1,0-0.2-0.1-0.3-0.3c-0.2-0.2-0.3-0.4-0.5-0.5c1.4-1.4,2.5-3,3.2-4.8c0.2-0.6,0.4-1,0.4-1.5
		c0.5,0.1,0.8,0.2,1.2,0.4c0.2,0.1,0.2,0.2,0.2,0.2S55.1,6.5,55,6.6c-0.2,0.1-0.3,0.4-0.5,1h2.4c0.2,0,0.3,0,0.4-0.1
		c0.1,0,0.2-0.1,0.2-0.1c0.1,0,0.3,0.1,0.5,0.3c0.3,0.2,0.4,0.4,0.4,0.5c0,0.1-0.1,0.2-0.2,0.3c-0.1,0.1-0.3,0.3-0.4,0.5
		c-0.4,0.8-0.8,1.5-1.2,2.1h0.2l2.3,0c0.1,0,0.2,0.1,0.2,0.2l0,2.6v6.6L59.2,23.4z M56.7,8.6H54c-0.5,0.9-1,1.8-1.6,2.6l2,0h1
		C55.9,10.3,56.3,9.5,56.7,8.6z M55,18.2v-2.5h-2V16c0,0.6,0,1.3,0,2.2H55z M55,14.6v-2.4h-2v2.4H55z M58.1,14.6v-2.4h-2v2.4H58.1z
		 M58.1,18.2v-2.5h-2v2.5H58.1z M69.2,7.3c0,0.1,0,0.3,0,0.5c0,0.3,0,0.4,0,0.5c-0.1,1.7-0.3,3-0.5,3.7c-0.2,0.7-0.8,1-1.7,1
		c-0.6,0-1,0-1.4-0.1c-0.2,0-0.3-0.1-0.4-0.1c0,0-0.1-0.1-0.1-0.3c-0.1-0.4-0.2-0.7-0.3-0.9c0.6,0.1,1.2,0.2,1.7,0.2
		c0.6,0,0.9-0.2,1-0.6c0.2-0.6,0.3-1.6,0.3-2.9h-3.3c-0.2,1.3-0.5,2.4-1.2,3.2c-0.5,0.7-1.3,1.4-2.4,2c-0.2,0.1-0.3,0.1-0.3,0.1
		c-0.1,0-0.2-0.1-0.3-0.3c-0.2-0.2-0.4-0.4-0.7-0.6c1.3-0.6,2.2-1.2,2.7-2c0.5-0.6,0.8-1.5,0.9-2.5h-0.4l-2.6,0
		c-0.1,0-0.2-0.1-0.2-0.2V7.3c0-0.1,0.1-0.2,0.2-0.2l2.6,0h3.5l2.6,0C69.1,7.1,69.2,7.1,69.2,7.3z M70.1,20.7c0,0.1-0.1,0.2-0.2,0.2
		l-2.8,0h-1.5v1.5l0,2.8c0,0.1-0.1,0.2-0.2,0.2h-1c-0.1,0-0.2-0.1-0.2-0.2l0-2.8v-1.5h-1.6l-2.8,0c-0.1,0-0.2-0.1-0.2-0.2v-0.9
		c0-0.1,0.1-0.2,0.2-0.2l2.8,0.1h1.6v-2.5h-2.6c-0.3,0.6-0.6,1-0.8,1.4c-0.1,0.2-0.2,0.3-0.3,0.3c-0.1,0-0.2,0-0.3-0.2
		c-0.2-0.1-0.4-0.2-0.7-0.3c0.7-0.9,1.3-1.9,1.7-3.1c0.1-0.4,0.2-0.8,0.3-1.2c0.5,0.1,0.8,0.2,1.1,0.3c0.2,0.1,0.3,0.2,0.3,0.2
		c0,0.1,0,0.1-0.1,0.2c-0.1,0.1-0.2,0.3-0.3,0.6l-0.2,0.6h2.1v-0.9c0-0.6,0-1.2-0.1-1.6c0.4,0,0.8,0.1,1.3,0.1
		c0.1,0,0.2,0.1,0.2,0.2c0,0,0,0.1-0.1,0.3c-0.1,0.2-0.1,0.5-0.1,1v0.9h0.8l2.7,0c0.1,0,0.2,0.1,0.2,0.2v0.9c0,0.1-0.1,0.2-0.2,0.2
		l-2.7,0h-0.8v2.5h1.5l2.8-0.1c0.1,0,0.2,0.1,0.2,0.2V20.7z"/>
	<path d="M79.2,14.1c0,0,0.1,0.1,0.1,0.1c0,0,0,0.1-0.1,0.3L78.7,15c-0.1,0.1-0.2,0.2-0.2,0.2s-0.1,0-0.2-0.1c-1-1-1.9-1.8-3-2.4
		c-0.1,0-0.1-0.1-0.1-0.1s0-0.1,0.2-0.2l0.4-0.5c0.1-0.1,0.1-0.1,0.2-0.1c0,0,0.1,0,0.1,0.1C77.2,12.3,78.2,13.1,79.2,14.1z
		 M79.6,19c-0.6,1.6-1.3,3.3-2.1,5.1c-0.2,0.5-0.3,0.8-0.4,1c-0.1,0.2-0.1,0.3-0.2,0.3c-0.1,0-0.2,0-0.3-0.1c-0.4-0.3-0.7-0.5-1-0.8
		c0.4-0.5,0.8-1.1,1.2-1.8c0.8-1.6,1.4-3.3,2-5c0.2,0.2,0.4,0.5,0.7,0.7c0.2,0.2,0.3,0.3,0.3,0.4C79.7,18.8,79.7,18.9,79.6,19z
		 M80.4,8.7c0.1,0.1,0.1,0.1,0.1,0.1c0,0,0,0.1-0.1,0.2l-0.5,0.6c-0.1,0.1-0.2,0.2-0.2,0.2c0,0-0.1,0-0.1-0.1
		c-0.9-0.9-1.8-1.8-3-2.6c-0.1,0-0.1-0.1-0.1-0.1c0,0,0-0.1,0.1-0.2l0.5-0.5c0.1-0.1,0.2-0.2,0.2-0.2c0,0,0.1,0,0.1,0
		C78.4,6.9,79.4,7.7,80.4,8.7z M94.8,16.8c0,0.1-0.1,0.2-0.2,0.2l-3.1,0h-4c0.6,1.7,1.6,3.2,3,4.5c1.2,1.2,2.6,2.1,4.2,2.9
		c-0.2,0.2-0.5,0.5-0.7,0.9c-0.1,0.2-0.2,0.3-0.3,0.3c-0.1,0-0.2-0.1-0.4-0.2c-3.4-1.9-5.6-4.5-6.8-7.7c-0.8,3.4-2.8,6-6.1,7.8
		c-0.2,0.1-0.3,0.1-0.3,0.1s-0.2-0.1-0.3-0.3c-0.2-0.3-0.4-0.5-0.7-0.7c1.9-1,3.4-2.1,4.4-3.3c0.8-1,1.5-2.3,1.9-3.8l0.1-0.5h-2
		l-3.1,0c-0.1,0-0.2-0.1-0.2-0.2v-0.9c0-0.1,0.1-0.2,0.2-0.2l3.1,0h2.2c0.1-1,0.2-2.5,0.3-4.5h-1.5l-2.8,0c-0.1,0-0.2-0.1-0.2-0.2
		v-1c0-0.1,0.1-0.2,0.2-0.2l2.8,0h1.6V8.2c0-1-0.1-1.8-0.2-2.5c0.6,0,1,0.1,1.5,0.1c0.2,0,0.3,0.1,0.3,0.2c0,0.1,0,0.2-0.1,0.4
		c-0.1,0.2-0.1,0.7-0.1,1.5V10h2.1l2.9,0c0.1,0,0.2,0.1,0.2,0.2l0,1.9v3.7l2,0c0.1,0,0.2,0.1,0.2,0.2V16.8z M91.3,15.7v-4.5h-3.9
		c0,1.8-0.2,3.3-0.3,4.5H91.3z"/>
	<path d="M107.9,17.1v4.4h-1.5v-3.7c-0.3,0.2-0.7,0.4-1,0.6c-1.9,1.1-2.8,2.1-2.8,3.2c0,0.7,0.3,1.2,1,1.5c0.6,0.2,1.7,0.4,3.3,0.4
		c1.5,0,3.3-0.1,5.4-0.3l0.1,1.5c-2.7,0.1-4.4,0.2-5.3,0.2c-2.3,0-3.9-0.3-4.7-0.8c-0.7-0.5-1.1-1.3-1.1-2.5c0-1.5,1-2.9,3-4
		c0.7-0.4,1.5-0.8,2.3-1.2c-0.1-1.4-0.5-2.1-1.4-2.1c-1.2,0-2.9,1.2-5.1,3.7l-1.1-1c1.9-2,3.4-4.2,4.6-6.5c-1.3,0-2.7,0-4,0V9.1
		c1.5,0,3.1,0,4.6,0c0.4-0.9,0.7-1.9,1-2.9l1.6,0.3c-0.2,0.6-0.5,1.5-0.9,2.6c2.1-0.1,4-0.2,5.9-0.4l0,1.3c-2.4,0.2-4.6,0.3-6.5,0.4
		c-0.5,1.1-1.1,2.1-1.8,3.1l-0.6,0.6l0.1,0.1c0.8-0.7,1.7-1.1,2.6-1.1c0.7,0,1.3,0.2,1.8,0.7s0.7,1.1,0.8,1.9
		c1.1-0.5,2.6-1.2,4.5-1.9l0.6,1.5C110.6,16,108.9,16.7,107.9,17.1z"/>
	<path d="M129,10.9h3.5v1.5H129V14c0,3.6-0.8,6.3-2.3,7.9c-1.2,1.4-3.2,2.4-6,3l-0.9-1.3c2.8-0.6,4.8-1.6,5.9-3.1
		c1.1-1.4,1.6-3.6,1.6-6.4v-1.8h-5.5v5.8h-1.7v-5.8h-3.4v-1.5h3.4V6.5h1.7v4.4h5.5V6.5h1.7V10.9z"/>
	<path d="M141.1,14.6c-0.7,3.3-1.7,6.1-3.2,8.6l-1.5-0.8c1.5-2.3,2.5-5.1,3.1-8.3L141.1,14.6z M145.4,10.2h7v1.5h-7v13.2h-1.7V11.7
		h-6.9v-1.5h6.9V6.4h1.7V10.2z M147.9,14.8l1.5-0.6c0.9,3.2,1.9,5.8,3.1,8l-1.6,0.9C149.9,20.8,148.8,18,147.9,14.8z M151,4.7
		c0.7,0,1.3,0.3,1.8,0.8c0.4,0.5,0.6,1,0.6,1.7c0,0.7-0.3,1.3-0.8,1.8c-0.5,0.4-1,0.6-1.7,0.6c-0.7,0-1.3-0.3-1.8-0.8
		c-0.4-0.5-0.6-1-0.6-1.7c0-0.7,0.3-1.3,0.8-1.8C149.8,4.9,150.4,4.7,151,4.7z M151,5.6c-0.5,0-0.8,0.2-1.1,0.5
		c-0.3,0.3-0.4,0.6-0.4,1c0,0.5,0.2,0.8,0.5,1.1c0.3,0.3,0.6,0.4,1,0.4c0.5,0,0.8-0.2,1.1-0.5c0.3-0.3,0.4-0.6,0.4-1
		c0-0.5-0.2-0.8-0.5-1.1C151.8,5.8,151.4,5.6,151,5.6z"/>
	<path d="M156.5,15h12v1.6h-12V15z"/>
	<path d="M174.6,14.4v10.5h-1.7V6.4h1.7v6.4c3.4,1,6.2,2.2,8.4,3.5l-0.8,1.6C180.1,16.5,177.6,15.4,174.6,14.4z"/>
</g>
<g id="グループ_576" transform="translate(-695.5 -2379.83)">
	<g class="st0">
		<path d="M720.7,2507.2C720.7,2507.2,720.6,2507.3,720.7,2507.2l-0.7,0.1c-0.1,0-0.1,0-0.1-0.1v-0.7H714v0.7c0,0.1,0,0.1-0.1,0.1
			h-0.6c-0.1,0-0.1,0-0.1-0.1l0-3.8v-2.2l0-2.9c0-0.1,0-0.1,0.1-0.1l1.7,0h0.7c0.2-0.4,0.3-0.8,0.5-1.3c0-0.2,0.1-0.3,0.1-0.5
			c0.2,0,0.5,0.1,0.8,0.1c0.1,0,0.1,0.1,0.1,0.1c0,0,0,0.1-0.1,0.1c-0.1,0.1-0.1,0.2-0.2,0.3c-0.2,0.5-0.3,0.8-0.5,1.1h2.4l1.7,0
			c0.1,0,0.1,0,0.1,0.1l0,2.6v2.5L720.7,2507.2z M719.9,2500.7v-1.8H714v1.8H719.9z M719.9,2503.2v-1.8H714v1.8H719.9z
			 M719.9,2505.8v-2H714v2H719.9z"/>
		<path d="M731.2,2501.1C731.2,2501.2,731.2,2501.2,731.2,2501.1c0,0.1,0,0.1,0,0.2l-0.3,0.3c-0.1,0.1-0.1,0.1-0.1,0.1s0,0-0.1,0
			c-0.5-0.5-1-0.9-1.6-1.3c0,0-0.1,0-0.1-0.1s0-0.1,0.1-0.1l0.3-0.3c0-0.1,0.1-0.1,0.1-0.1c0,0,0,0,0.1,0
			C730.1,2500.3,730.7,2500.7,731.2,2501.1z M731.5,2503.9c-0.3,0.9-0.7,1.8-1.2,2.8c-0.1,0.3-0.2,0.5-0.2,0.5
			c0,0.1-0.1,0.1-0.1,0.1c0,0-0.1,0-0.2-0.1c-0.2-0.1-0.4-0.3-0.6-0.4c0.2-0.3,0.4-0.5,0.6-0.8c0.5-0.9,0.9-1.8,1.2-2.8
			c0.1,0.1,0.2,0.2,0.4,0.4c0.1,0.1,0.2,0.1,0.2,0.2C731.5,2503.7,731.5,2503.8,731.5,2503.9z M731.8,2498.2
			C731.8,2498.2,731.8,2498.3,731.8,2498.2c0,0.1,0,0.2,0,0.2l-0.3,0.3c-0.1,0.1-0.1,0.1-0.1,0.1c0,0,0,0-0.1,0
			c-0.5-0.6-1.1-1-1.6-1.4c0,0-0.1,0-0.1-0.1s0-0.1,0.1-0.1l0.3-0.3c0.1-0.1,0.1-0.1,0.1-0.1c0,0,0,0,0.1,0
			C730.8,2497.3,731.3,2497.7,731.8,2498.2z M739.7,2501.1c0,0.1,0,0.1,0,0.1c0,0,0,0.1-0.1,0.1l-0.3,0.2c-0.1,0-0.1,0.1-0.1,0.1
			s0,0-0.1-0.1c-0.2-0.4-0.4-0.7-0.6-1c-1.8,0.2-3.7,0.4-5.8,0.6c-0.3,0-0.4,0.1-0.5,0.1c-0.1,0.1-0.2,0.1-0.2,0.1
			c-0.1,0-0.1-0.1-0.1-0.2c-0.1-0.2-0.1-0.4-0.2-0.8c0.2,0,0.4,0,0.6,0c0.3,0,0.5,0,0.7,0l0.3,0c0.5-1,1-2.1,1.4-3.2
			c0.1-0.3,0.1-0.5,0.2-0.8c0.3,0.1,0.6,0.1,0.8,0.2c0.1,0,0.2,0.1,0.2,0.1c0,0.1,0,0.1-0.1,0.2c-0.1,0.1-0.2,0.2-0.3,0.5
			c-0.5,1.1-0.9,2.1-1.3,2.9c1.4-0.1,2.8-0.2,4.1-0.4c-0.3-0.4-0.7-0.8-1.2-1.3c0,0-0.1-0.1-0.1-0.1c0,0,0,0,0.1-0.1l0.3-0.2
			c0.1,0,0.1-0.1,0.1-0.1c0,0,0,0,0.1,0C738.2,2499.2,739,2500.1,739.7,2501.1z M738.6,2507.1
			C738.6,2507.2,738.6,2507.2,738.6,2507.1l-0.7,0.1c-0.1,0-0.1,0-0.1-0.1v-0.6h-4.3v0.7c0,0.1,0,0.1-0.1,0.1h-0.6
			c-0.1,0-0.1,0-0.1-0.1l0-2.1v-1.1l0-1.4c0-0.1,0-0.1,0.1-0.1l1.5,0h2.5l1.5,0c0.1,0,0.1,0,0.1,0.1l0,1.3v1.2L738.6,2507.1z
			 M737.9,2505.9v-2.7h-4.3v2.7H737.9z"/>
		<path d="M749.6,2497c0,0,0,0.1-0.1,0.2c-0.1,0.1-0.2,0.2-0.2,0.4c-0.3,0.7-0.5,1.3-0.8,1.9v5.9l0,1.9c0,0.1,0,0.1-0.1,0.1h-0.6
			c-0.1,0-0.1,0-0.1-0.1l0-1.9v-3.1c0-0.7,0-1.3,0-1.6c-0.3,0.5-0.7,1-1.1,1.5c-0.1,0.1-0.1,0.1-0.1,0.1s-0.1,0-0.1-0.1
			c-0.1-0.2-0.2-0.4-0.3-0.5c1.1-1.3,2-2.7,2.5-4.3c0.1-0.3,0.2-0.6,0.2-0.8c0.3,0.1,0.5,0.2,0.7,0.3
			C749.5,2496.9,749.6,2497,749.6,2497z M757.2,2504.5c-0.1,0.1-0.3,0.3-0.4,0.4c-0.1,0.1-0.1,0.2-0.1,0.2s-0.1,0-0.2-0.1
			c-0.9-0.8-1.6-1.6-2.1-2.3c-0.4-0.6-0.9-1.4-1.3-2.3l0,4h0.6l1.4,0c0.1,0,0.1,0,0.1,0.1v0.5c0,0.1,0,0.1-0.1,0.1l-1.4,0h-0.6
			c0,1.3,0,2,0,2.2c0,0.1,0,0.1-0.1,0.1h-0.6c-0.1,0-0.1,0-0.1-0.1c0,0,0-0.1,0-0.3c0-0.6,0-1.3,0-1.9h-0.5l-1.4,0
			c-0.1,0-0.1,0-0.1-0.1v-0.5c0-0.1,0-0.1,0.1-0.1l1.4,0h0.5l0-4c-0.4,1-0.9,1.9-1.4,2.6c-0.5,0.6-1.1,1.3-1.8,1.9
			c-0.1,0.1-0.1,0.1-0.2,0.1c0,0-0.1,0-0.1-0.1c-0.1-0.2-0.2-0.3-0.4-0.4c0.9-0.7,1.6-1.4,2.2-2.2c0.6-0.7,1-1.5,1.4-2.4h-1.1
			l-1.7,0c-0.1,0-0.1,0-0.1-0.1v-0.5c0-0.1,0-0.1,0.1-0.1l1.7,0h1.4v-1.2c0-0.7,0-1.2-0.1-1.5c0.3,0,0.6,0,0.8,0.1
			c0.1,0,0.2,0,0.2,0.1c0,0,0,0.1-0.1,0.2c0,0.1-0.1,0.5-0.1,1v1.2h1.9l1.7,0c0.1,0,0.1,0,0.1,0.1v0.5c0,0.1,0,0.1-0.1,0.1l-1.7,0
			h-1.7c0.5,1,1.1,1.8,1.7,2.5C755.7,2503.1,756.4,2503.8,757.2,2504.5z"/>
		<path d="M773.7,2498.9l0,1.9v3.4l0,1.9c0,0.4-0.1,0.6-0.3,0.8c-0.2,0.1-0.7,0.2-1.5,0.2c-0.1,0-0.2,0-0.2,0c0,0,0-0.1-0.1-0.2
			c-0.1-0.2-0.1-0.4-0.2-0.5c0.4,0,0.8,0,1,0c0.2,0,0.4,0,0.5-0.1c0.1-0.1,0.1-0.2,0.1-0.3v-6.5h-7.8v5.8l0,1.8c0,0.1,0,0.1-0.1,0.1
			h-0.6c-0.1,0-0.1,0-0.1-0.1l0-1.8v-4.5l0-1.9c0-0.1,0-0.1,0.1-0.1l1.7,0h1.2c0.3-0.5,0.6-1,0.8-1.5c0.1-0.2,0.1-0.4,0.2-0.7
			c0.3,0.1,0.6,0.1,0.8,0.2c0.1,0,0.1,0.1,0.1,0.1s0,0.1-0.1,0.2c-0.1,0.1-0.1,0.2-0.2,0.2c-0.2,0.5-0.5,1-0.8,1.5h3.7l1.7,0
			C773.6,2498.8,773.7,2498.8,773.7,2498.9z M771.1,2505.1C771.1,2505.1,771,2505.2,771.1,2505.1l-0.6,0.1c-0.1,0-0.1,0-0.1-0.1
			v-0.5h-2.8v0.6c0,0.1,0,0.1-0.1,0.1H767c-0.1,0-0.1,0-0.1-0.1l0-1.9v-0.9l0-1.2c0-0.1,0-0.1,0.1-0.1l1.3,0h1.5l1.3,0
			c0.1,0,0.1,0,0.1,0.1l0,1.1v1L771.1,2505.1z M770.3,2503.9v-2.3h-2.8v2.3H770.3z"/>
		<path d="M782.6,2497.1c-0.2,0.9-0.3,1.9-0.4,3c-0.1,1.1-0.2,2-0.2,2.7c0,1.2,0.1,2.4,0.4,3.6l-0.8,0.1c-0.3-1.4-0.4-2.7-0.4-3.7
			c0-0.8,0.1-1.8,0.2-3.2c0.1-1,0.2-1.8,0.3-2.6L782.6,2497.1z M787.5,2499.3c0.4,0,0.9-0.1,1.5-0.2l0,0.8c-0.4,0.1-0.9,0.1-1.5,0.1
			c0,0.4,0,1,0,1.8c0,1.7-0.2,3-0.7,3.7c-0.4,0.6-1,1.1-2,1.5l-0.6-0.6c0.7-0.3,1.2-0.6,1.5-0.9c0.3-0.4,0.6-0.8,0.7-1.4
			c0.1-0.5,0.2-1.3,0.2-2.2c0-0.8,0-1.3,0-1.7c-1.2,0.1-2.2,0.1-3.1,0l0-0.8c1,0,2.1,0,3.1,0c0-1.1,0-1.8,0-2.3h0.9
			C787.5,2497.5,787.5,2498.2,787.5,2499.3z"/>
	</g>
	<g id="長方形_4" transform="translate(697 2487.093)">
		<rect y="0" class="st1" width="110" height="29.7"/>
		<rect x="0.5" y="0.5" class="st2" width="109" height="28.7"/>
	</g>
	<g class="st0">
		<path d="M837.7,2496.8c0,0,0,0.1,0,0.2c0,0.1-0.1,0.6-0.1,1.2v6.9l0,2.1c0,0.1,0,0.1-0.1,0.1h-0.6c-0.1,0-0.1,0-0.1-0.1l0-2.1
			v-1.3c-0.8,0.4-1.6,0.7-2.4,1c-0.3,0.1-0.4,0.2-0.5,0.2c-0.1,0.1-0.1,0.1-0.1,0.1c0,0-0.1,0-0.1-0.1c-0.1-0.2-0.2-0.4-0.3-0.7
			c0.3,0,0.6-0.1,1-0.3v-4.5c0-0.7,0-1.2-0.1-1.7c0.3,0,0.6,0,0.8,0.1c0.1,0,0.1,0,0.1,0.1c0,0,0,0.1,0,0.2
			c-0.1,0.2-0.1,0.6-0.1,1.2v4.2c0.7-0.3,1.3-0.5,1.7-0.7v-4.9c0-0.7,0-1.3-0.1-1.6c0.3,0,0.6,0,0.8,0.1
			C837.7,2496.8,837.7,2496.8,837.7,2496.8z M844.7,2506.5c-0.2,0.1-0.3,0.3-0.4,0.5c-0.1,0.1-0.1,0.2-0.1,0.2c0,0-0.1,0-0.2-0.1
			c-1-0.7-1.9-1.6-2.6-2.5c-0.8,1-1.7,1.9-2.9,2.6c-0.1,0.1-0.2,0.1-0.2,0.1c0,0-0.1-0.1-0.2-0.2c-0.1-0.2-0.2-0.3-0.4-0.4
			c1.3-0.7,2.3-1.6,3.1-2.7c-1-1.5-1.6-3.4-1.8-5.6c-0.3,0-0.5,0-0.7,0c-0.1,0-0.2,0-0.2,0c-0.1,0-0.1,0-0.1-0.1v-0.5
			c0-0.1,0-0.1,0.1-0.1l1.5,0h3.2c0.2,0,0.4,0,0.4-0.1c0.1,0,0.1,0,0.1,0c0.1,0,0.2,0.1,0.3,0.3c0.1,0.1,0.2,0.2,0.2,0.3
			c0,0.1,0,0.1-0.1,0.2c-0.1,0.1-0.1,0.3-0.2,0.7c-0.3,1.9-1,3.5-1.8,4.9C842.5,2504.9,843.5,2505.8,844.7,2506.5z M843,2498.4h-3.2
			c0.2,1.9,0.7,3.6,1.5,4.9C842.2,2502,842.7,2500.3,843,2498.4z"/>
		<path d="M856.2,2502.8C856.2,2502.9,856.1,2502.9,856.2,2502.8l-1.8,0.1h-4.8l-1.7,0c-0.1,0-0.1,0-0.1-0.1l0-1.3v-1.4
			c0-0.3,0-0.6,0-1.1c-0.3,0.4-0.7,0.7-1.1,1.1c-0.1,0.1-0.1,0.1-0.2,0.1s-0.1,0-0.1-0.1c-0.1-0.2-0.2-0.3-0.3-0.4
			c1-0.6,1.7-1.4,2.3-2.4c0.2-0.3,0.3-0.5,0.3-0.7c0.3,0.1,0.5,0.1,0.7,0.2c0.1,0,0.1,0.1,0.1,0.1c0,0,0,0.1-0.1,0.2
			c-0.1,0-0.2,0.2-0.4,0.4c-0.2,0.2-0.3,0.4-0.3,0.5h2.7c0.2-0.2,0.3-0.5,0.4-0.8c0.1-0.2,0.2-0.5,0.2-0.7c0.2,0,0.4,0.1,0.7,0.2
			c0.1,0,0.1,0.1,0.1,0.1c0,0,0,0.1-0.1,0.1c0,0-0.1,0.1-0.2,0.3c-0.1,0.3-0.3,0.5-0.4,0.6h2.1l1.7,0c0.1,0,0.1,0,0.1,0.1v0.4
			c0,0.1,0,0.1-0.1,0.1l-1.7,0H852v0.9h1.7l1.7,0c0.1,0,0.1,0,0.1,0.1v0.4c0,0.1,0,0.1-0.1,0.1l-1.7,0H852v0.9h1.7l1.7,0
			c0.1,0,0.1,0,0.1,0.1v0.4c0,0.1,0,0.1-0.1,0.1l-1.7,0H852v0.9h2.3l1.7,0c0.1,0,0.1,0,0.1,0.1V2502.8z M857,2506.4
			c-0.1,0.1-0.2,0.3-0.3,0.5c-0.1,0.1-0.1,0.2-0.2,0.2c0,0-0.1,0-0.2,0c-1.9-0.5-3.3-1.3-4.4-2.4c0,0.7,0,1.4,0,2c0,0.4,0,0.6,0,0.6
			c0,0.1,0,0.1-0.1,0.1h-0.6c-0.1,0-0.1,0-0.1-0.1c0,0,0-0.2,0-0.4c0-0.7,0-1.5,0-2.2c-1,1-2.4,1.8-4.4,2.3c-0.1,0-0.1,0-0.2,0
			c-0.1,0-0.1-0.1-0.2-0.2c-0.1-0.2-0.2-0.3-0.3-0.4c1.8-0.4,3.3-1.1,4.4-1.9h-2.4l-1.6,0c-0.1,0-0.1,0-0.1-0.1v-0.5
			c0-0.1,0-0.1,0.1-0.1l1.6,0h3c0-0.4,0-0.7,0-0.8c0.3,0,0.6,0.1,0.7,0.1c0.1,0,0.1,0.1,0.1,0.1c0,0,0,0.1-0.1,0.2c0,0,0,0.2,0,0.5
			h3.1l1.6,0c0.1,0,0.1,0,0.1,0.1v0.5c0,0.1,0,0.1-0.1,0.1l-1.6,0h-2.6c0.7,0.5,1.4,0.9,2.1,1.2C855.3,2506,856.1,2506.2,857,2506.4
			z M851.4,2499.4v-0.9h-2.9v0.9H851.4z M851.4,2500.8v-0.9h-2.9v0.9H851.4z M851.4,2502.3v-0.9h-2.9v0.9H851.4z"/>
		<path d="M869.5,2503.8C869.5,2503.8,869.5,2503.9,869.5,2503.8c-0.1,0.1-0.2,0.1-0.2,0.1c-0.3,0-0.6,0-1,0v0.8l0,1.1
			c0,0.1,0,0.1-0.1,0.1h-0.5c-0.1,0-0.1,0-0.1-0.1v-0.4h-3l0,0.9c0,0.3,0,0.5-0.1,0.6c-0.1,0.1-0.1,0.2-0.3,0.3
			c-0.2,0.1-0.8,0.2-1.6,0.2c-0.1,0-0.2,0-0.2,0c0,0,0-0.1-0.1-0.2c-0.1-0.2-0.2-0.4-0.3-0.5c0.3,0,0.6,0.1,0.8,0.1
			c0.1,0,0.2,0,0.3,0c0.3,0,0.6,0,0.6-0.1c0.1-0.1,0.1-0.2,0.1-0.5v-0.7h-2.1l-1.7,0c-0.1,0-0.1,0-0.1-0.1v-0.4c0-0.1,0-0.1,0.1-0.1
			l1.7,0h2.1v-0.9h-3.3l-1.6,0c-0.1,0-0.1,0-0.1-0.1v-0.4c0-0.1,0-0.1,0.1-0.1l1.6,0h3.3v-0.8h-2.1l-1.7,0c-0.1,0-0.1,0-0.1-0.1
			v-0.4c0-0.1,0-0.1,0.1-0.1l1.7,0h2.1v-0.8h-1.6l-1.7,0c-0.1,0-0.1,0-0.1-0.1l0-0.7v-0.5l0-0.7c0-0.1,0-0.1,0.1-0.1l1.7,0h1.6v-0.7
			h-3.2l-1.6,0c-0.1,0-0.1,0-0.1-0.1v-0.4c0-0.1,0-0.1,0.1-0.1l1.6,0h3.2c0-0.6,0-1-0.1-1.2c0.2,0,0.5,0,0.8,0.1
			c0.1,0,0.1,0,0.1,0.1c0,0,0,0.1-0.1,0.2c0,0.1-0.1,0.4-0.1,0.8v0h3.2l1.6,0c0.1,0,0.1,0,0.1,0.1v0.4c0,0.1,0,0.1-0.1,0.1l-1.6,0
			h-3.2v0.7h1.6l1.7,0c0.1,0,0.1,0,0.1,0.1l0,0.7v0.5l0,0.7c0,0.1,0,0.1-0.1,0.1l-1.7,0h-1.6v0.8h1.9l1.7,0c0.1,0,0.1,0,0.1,0.1
			l0,1.1v0.3l1.2,0c0.1,0,0.1,0,0.1,0.1V2503.8z M863.8,2500.5v-0.9h-2.7v0.9H863.8z M867.3,2500.5v-0.9h-2.7v0.9H867.3z
			 M867.6,2503.3v-0.8h-3v0.8H867.6z M867.6,2504.8v-0.9h-3v0.9H867.6z"/>
		<path d="M882.2,2506.3c-0.1,0.1-0.2,0.2-0.3,0.4c-0.1,0.1-0.1,0.2-0.2,0.2c0,0-0.1,0-0.2,0c-1.9-0.5-3.4-1.3-4.5-2.4
			c0,0.8,0,1.6,0,2.2c0,0.4,0,0.6,0,0.6c0,0.1,0,0.1-0.1,0.1h-0.6c-0.1,0-0.1,0-0.1-0.1c0,0,0-0.2,0-0.4c0-0.7,0-1.5,0-2.3
			c-0.6,0.6-1.3,1.1-2.1,1.5c-0.6,0.3-1.4,0.6-2.3,0.9c-0.1,0-0.1,0-0.2,0c-0.1,0-0.1-0.1-0.2-0.2c-0.1-0.2-0.2-0.3-0.3-0.4
			c2-0.5,3.5-1.2,4.4-2.1h-2.5l-1.6,0c-0.1,0-0.1,0-0.1-0.1v-0.4c0-0.1,0-0.1,0.1-0.1l1.6,0h3.1v-1h-1.8l-1.7,0
			c-0.1,0-0.1,0-0.1-0.1v-0.4c0-0.1,0-0.1,0.1-0.1l1.7,0h1.8v-0.9H874l-1.7,0c-0.1,0-0.1,0-0.1-0.1v-0.4c0-0.1,0-0.1,0.1-0.1l1.7,0
			h1c-0.1-0.4-0.3-0.8-0.5-1c0,0,0-0.1,0-0.1c0,0,0-0.1,0.1-0.1l0.3-0.1c0.1,0,0.1,0,0.1,0c0,0,0.1,0,0.1,0.1
			c0.2,0.3,0.4,0.7,0.6,1.3h2.2c0.1-0.2,0.3-0.5,0.4-0.9c0-0.1,0.1-0.3,0.1-0.5c0.2,0,0.4,0.1,0.6,0.2c0.1,0,0.1,0.1,0.1,0.1
			c0,0,0,0.1-0.1,0.1c-0.1,0-0.1,0.1-0.2,0.3c-0.1,0.2-0.3,0.4-0.4,0.7h1l1.7,0c0.1,0,0.1,0,0.1,0.1v0.4c0,0.1,0,0.1-0.1,0.1l-1.7,0
			h-2.6v0.9h2l1.7,0c0.1,0,0.1,0,0.1,0.1v0.4c0,0.1,0,0.1-0.1,0.1l-1.7,0h-2v1h3.3l1.6,0c0.1,0,0.1,0,0.1,0.1v0.4
			c0,0.1,0,0.1-0.1,0.1l-1.6,0h-2.7C878.7,2505.2,880.2,2505.8,882.2,2506.3z M882,2499.1C882,2499.2,882,2499.2,882,2499.1
			l-1.7,0.1h-7.1l-1.6,0c-0.1,0-0.1,0-0.1-0.1v-0.4c0-0.1,0-0.1,0.1-0.1l1.6,0h0.4c-0.2-0.5-0.5-0.9-0.8-1.3c0,0,0,0,0-0.1
			c0,0,0-0.1,0.1-0.1l0.3-0.2c0,0,0.1,0,0.1,0s0,0,0.1,0c0.3,0.3,0.6,0.7,0.9,1.2c0,0,0,0,0,0.1c0,0,0,0.1-0.1,0.1l-0.4,0.2h1.6
			v-0.9c0-0.5,0-0.9-0.1-1.1c0.3,0,0.5,0,0.7,0.1c0.1,0,0.1,0.1,0.1,0.1c0,0,0,0.1,0,0.2c0,0.1-0.1,0.3-0.1,0.8v0.9h1.3v-0.9
			c0-0.5,0-0.9-0.1-1.1c0.3,0,0.5,0,0.7,0.1c0.1,0,0.1,0.1,0.1,0.1c0,0,0,0.1,0,0.2c0,0.1-0.1,0.4-0.1,0.8v0.9h1.1
			c0.2-0.3,0.4-0.7,0.7-1.1c0.1-0.2,0.2-0.4,0.2-0.6c0.2,0.1,0.4,0.1,0.7,0.2c0.1,0,0.1,0.1,0.1,0.1c0,0.1,0,0.1-0.1,0.2
			c-0.1,0-0.1,0.1-0.2,0.2c-0.2,0.3-0.4,0.6-0.6,0.9h0.5l1.6,0c0.1,0,0.1,0,0.1,0.1V2499.1z"/>
		<path d="M894.7,2501C894.7,2501.1,894.6,2501.1,894.7,2501l-1.7,0.1h-2.6c-0.6,0.4-1.3,0.9-2,1.3h2.9l1.6,0c0.1,0,0.1,0,0.1,0.1
			l0,1.5v1.1l0,2.2c0,0.1,0,0.1-0.1,0.1h-0.5c-0.1,0-0.1,0-0.1-0.1v-0.5h-4.5v0.6c0,0.1,0,0.1-0.1,0.1h-0.5c-0.1,0-0.1,0-0.1-0.1
			l0-2.2v-2c-0.8,0.4-1.6,0.7-2.4,1c-0.1,0-0.1,0.1-0.2,0.1c0,0-0.1-0.1-0.2-0.2c-0.1-0.1-0.2-0.3-0.3-0.4c2.1-0.7,3.9-1.5,5.4-2.4
			h-3.5l-1.6,0c-0.1,0-0.1,0-0.1-0.1v-0.5c0-0.1,0-0.1,0.1-0.1l1.6,0h2.7v-1.5h-1.2l-1.5,0c-0.1,0-0.1,0-0.1-0.1v-0.5
			c0-0.1,0-0.1,0.1-0.1l1.5,0h1.2v-0.3c0-0.6,0-1-0.1-1.3c0.3,0,0.6,0,0.8,0.1c0.1,0,0.2,0,0.2,0.1c0,0,0,0.1-0.1,0.2
			c-0.1,0.1-0.1,0.5-0.1,1v0.3h0.5l1.5,0c0.1,0,0.1,0,0.1,0.1v0.5c0,0.1,0,0.1-0.1,0.1l-1.5,0h-0.5v1.5h0.9c0.9-0.7,1.7-1.5,2.4-2.3
			c0.2-0.3,0.4-0.6,0.5-0.8c0.3,0.1,0.5,0.3,0.7,0.4c0.1,0.1,0.1,0.1,0.1,0.2c0,0.1,0,0.1-0.1,0.1c-0.1,0-0.2,0.2-0.5,0.5
			c-0.6,0.7-1.3,1.4-2,2h1.8l1.6,0c0.1,0,0.1,0,0.1,0.1V2501z M892.2,2504.2v-1.2h-4.5v1.2H892.2z M892.2,2506.1v-1.3h-4.5v1.3
			H892.2z"/>
		<path d="M906.7,2498.9l0,1.9v3.4l0,1.9c0,0.4-0.1,0.6-0.3,0.8c-0.2,0.1-0.7,0.2-1.5,0.2c-0.1,0-0.2,0-0.2,0c0,0,0-0.1-0.1-0.2
			c-0.1-0.2-0.1-0.4-0.2-0.5c0.4,0,0.8,0,1,0c0.2,0,0.4,0,0.5-0.1c0.1-0.1,0.1-0.2,0.1-0.3v-6.5h-7.8v5.8l0,1.8c0,0.1,0,0.1-0.1,0.1
			h-0.6c-0.1,0-0.1,0-0.1-0.1l0-1.8v-4.5l0-1.9c0-0.1,0-0.1,0.1-0.1l1.7,0h1.2c0.3-0.5,0.6-1,0.8-1.5c0.1-0.2,0.1-0.4,0.2-0.7
			c0.3,0.1,0.6,0.1,0.8,0.2c0.1,0,0.1,0.1,0.1,0.1s0,0.1-0.1,0.2c-0.1,0.1-0.1,0.2-0.2,0.2c-0.2,0.5-0.5,1-0.8,1.5h3.7l1.7,0
			C906.6,2498.8,906.7,2498.8,906.7,2498.9z M904,2505.1C904,2505.1,904,2505.2,904,2505.1l-0.6,0.1c-0.1,0-0.1,0-0.1-0.1v-0.5h-2.8
			v0.6c0,0.1,0,0.1-0.1,0.1H900c-0.1,0-0.1,0-0.1-0.1l0-1.9v-0.9l0-1.2c0-0.1,0-0.1,0.1-0.1l1.3,0h1.5l1.3,0c0.1,0,0.1,0,0.1,0.1
			l0,1.1v1L904,2505.1z M903.3,2503.9v-2.3h-2.8v2.3H903.3z"/>
		<path d="M910.8,2497.1c-0.2,0.9-0.3,1.9-0.4,3c-0.1,1.1-0.2,2-0.2,2.7c0,1.2,0.1,2.4,0.4,3.6l-0.8,0.1c-0.3-1.4-0.4-2.7-0.4-3.7
			c0-0.8,0.1-1.8,0.2-3.2c0.1-1,0.2-1.8,0.3-2.6L910.8,2497.1z M915.7,2499.3c0.4,0,0.9-0.1,1.5-0.2l0,0.8c-0.4,0.1-0.9,0.1-1.5,0.1
			c0,0.4,0,1,0,1.8c0,1.7-0.2,3-0.7,3.7c-0.4,0.6-1,1.1-2,1.5l-0.6-0.6c0.7-0.3,1.2-0.6,1.5-0.9c0.3-0.4,0.6-0.8,0.7-1.4
			c0.1-0.5,0.2-1.3,0.2-2.2c0-0.8,0-1.3,0-1.7c-1.2,0.1-2.2,0.1-3.1,0l0-0.8c1,0,2.1,0,3.1,0c0-1.1,0-1.8,0-2.3h0.9
			C915.7,2497.5,915.7,2498.2,915.7,2499.3z"/>
	</g>
	<g id="パス_86" transform="translate(822 2487.093)">
		<path class="st1" d="M0,0h110v29.7H0V0z"/>
		<path d="M1,1v27.7h108V1H1 M0,0h110v29.7H0V0z"/>
	</g>
</g>
<g class="st0">
	<path d="M33.7,83h-8.1l-2.3-7.3H11.6L9.3,83h-8l12-32.9H22L33.7,83z M21.6,70l-3.5-11.1c-0.3-0.8-0.4-1.8-0.6-3h-0.2
		c-0.1,1-0.3,1.9-0.6,2.9L13.2,70H21.6z"/>
	<path d="M57.3,82.2c-1.6,0.9-4,1.4-7.1,1.4c-3.6,0-6.5-1.1-8.8-3.3c-2.2-2.2-3.4-5-3.4-8.5c0-4,1.2-7.1,3.6-9.4
		c2.4-2.3,5.6-3.5,9.6-3.5c2.8,0,4.8,0.4,6,1.1v6.2c-1.5-1.1-3.2-1.7-5.1-1.7c-2.1,0-3.7,0.6-4.9,1.8c-1.2,1.2-1.8,2.9-1.8,5
		c0,2.1,0.6,3.7,1.7,4.9c1.2,1.2,2.8,1.8,4.8,1.8c1.8,0,3.6-0.6,5.3-1.7V82.2z"/>
	<path d="M78.6,82.7c-1.1,0.6-2.7,0.8-4.8,0.8c-5.1,0-7.7-2.7-7.7-8V64.8h-3.8v-5.3h3.8v-5.1l7.2-2.1v7.1h5.3v5.3h-5.3v9.5
		c0,2.4,1,3.7,2.9,3.7c0.8,0,1.6-0.2,2.4-0.7V82.7z"/>
	<path d="M88.7,55.8c-1.2,0-2.2-0.4-3-1.1s-1.2-1.6-1.2-2.7c0-1.1,0.4-2,1.2-2.7s1.8-1,3-1c1.2,0,2.2,0.3,3,1
		c0.8,0.7,1.2,1.6,1.2,2.7c0,1.1-0.4,2-1.2,2.7C90.9,55.4,89.9,55.8,88.7,55.8z M92.3,83H85V59.5h7.3V83z"/>
	<path d="M123.1,59.5L114.3,83h-8.3l-8.3-23.5h7.8l4.1,14.5c0.5,1.6,0.7,3,0.8,4.2h0.1c0.1-1.1,0.4-2.4,0.8-4l4.2-14.6H123.1z"/>
	<path d="M147.4,83h-6.9v-3.4h-0.1c-1.6,2.6-3.9,3.9-7,3.9c-2.3,0-4.1-0.6-5.4-1.9s-2-3-2-5.2c0-4.6,2.7-7.2,8.1-7.9l6.4-0.8
		c0-2.6-1.4-3.9-4.2-3.9c-2.8,0-5.5,0.8-8,2.5v-5.5c1-0.5,2.4-1,4.1-1.4c1.8-0.4,3.3-0.6,4.8-0.6c6.7,0,10.1,3.3,10.1,10V83z
		 M140.6,73.5v-1.6l-4.3,0.6c-2.4,0.3-3.5,1.4-3.5,3.2c0,0.8,0.3,1.5,0.9,2c0.6,0.5,1.4,0.8,2.3,0.8c1.4,0,2.5-0.5,3.3-1.4
		C140.1,76.1,140.6,74.9,140.6,73.5z"/>
	<path d="M169.7,82.7c-1.1,0.6-2.7,0.8-4.8,0.8c-5.1,0-7.7-2.7-7.7-8V64.8h-3.8v-5.3h3.8v-5.1l7.2-2.1v7.1h5.3v5.3h-5.3v9.5
		c0,2.4,1,3.7,2.9,3.7c0.8,0,1.6-0.2,2.4-0.7V82.7z"/>
	<path d="M179.8,55.8c-1.2,0-2.2-0.4-3-1.1s-1.2-1.6-1.2-2.7c0-1.1,0.4-2,1.2-2.7s1.8-1,3-1c1.2,0,2.2,0.3,3,1s1.2,1.6,1.2,2.7
		c0,1.1-0.4,2-1.2,2.7C182,55.4,181,55.8,179.8,55.8z M183.3,83h-7.3V59.5h7.3V83z"/>
	<path d="M203,83.6c-3.9,0-7-1.1-9.2-3.3c-2.2-2.2-3.4-5.2-3.4-8.9c0-3.9,1.2-6.9,3.5-9.1c2.3-2.2,5.5-3.3,9.4-3.3
		c3.9,0,7,1.1,9.2,3.3s3.3,5.1,3.3,8.7c0,3.9-1.1,7-3.4,9.2C210.1,82.4,207,83.6,203,83.6z M203.2,64.5c-1.7,0-3,0.6-4,1.8
		c-0.9,1.2-1.4,2.8-1.4,5c0,4.5,1.8,6.8,5.5,6.8c3.5,0,5.2-2.3,5.2-7C208.4,66.7,206.7,64.5,203.2,64.5z"/>
	<path d="M245.6,83h-7.2V69.9c0-3.6-1.3-5.5-3.9-5.5c-1.3,0-2.3,0.5-3.1,1.4c-0.8,1-1.2,2.2-1.2,3.7V83h-7.3V59.5h7.3v3.7h0.1
		c1.7-2.9,4.2-4.3,7.6-4.3c5.2,0,7.8,3.2,7.8,9.7V83z"/>
</g>
</svg>
