<svg id="コンポーネント_25_1" data-name="コンポーネント 25 – 1" xmlns="http://www.w3.org/2000/svg" width="427" height="152.521" viewBox="0 0 427 152.521">
  <g id="グループ_412" data-name="グループ 412" transform="translate(-746 -1684)">
    <ellipse id="楕円形_21" data-name="楕円形 21" cx="68.5" cy="68" rx="68.5" ry="68" transform="translate(746 1684)" fill="#0cb04b"/>
    <path id="パス_840" data-name="パス 840" d="M-30.16-4.02A12.66,12.66,0,0,1-34.4-.5a17.92,17.92,0,0,1,1.8,1.64,18.158,18.158,0,0,0,4.66-4.36Zm1.06-6.92a21.03,21.03,0,0,0,4.02-3.74,22.09,22.09,0,0,0,4.16,3.74Zm12.2,6.2V-6.98h-6.92V-8.8h3.84v-1.5a23.774,23.774,0,0,0,2.96,1.7,11.344,11.344,0,0,1,1.56-2.12,20.336,20.336,0,0,1-8.52-6.18h-2.4a21.586,21.586,0,0,1-8.08,6.4,11.581,11.581,0,0,1,1.44,1.94,24.3,24.3,0,0,0,2.78-1.6V-8.8h3.9v1.82h-6.52v2.24h6.52V-.88c0,.28-.1.36-.44.38-.32,0-1.44,0-2.44-.04a8.51,8.51,0,0,1,.96,2.3,8.689,8.689,0,0,0,3.36-.42c.84-.38,1.08-.98,1.08-2.18v-3.9Zm-5.52,1.8A30.79,30.79,0,0,1-18.1,1.1L-16-.3a31.7,31.7,0,0,0-4.48-3.86ZM.2-12.78V-16.9H-2.34v4.12H-8.46v2.44h6.02A12.2,12.2,0,0,1-9.08-.1,9.486,9.486,0,0,1-7.22,1.84C-1.6-1.34-.2-6.2.12-10.34h5.6C5.4-4.4,5-1.78,4.4-1.16a1.182,1.182,0,0,1-.94.32c-.52,0-1.7,0-2.96-.1a5.525,5.525,0,0,1,.82,2.46,20.341,20.341,0,0,0,3.2-.04A2.7,2.7,0,0,0,6.56.36c.88-1.04,1.28-4.04,1.68-12,.04-.32.06-1.14.06-1.14ZM33.54-7.04c0-4.36-3.12-7.8-8.08-7.8-5.18,0-9.18,3.94-9.18,8.56,0,3.38,1.84,5.82,4.06,5.82,2.18,0,3.9-2.48,5.1-6.52a40.447,40.447,0,0,0,1.2-5.42,4.944,4.944,0,0,1,4.2,5.28,5.427,5.427,0,0,1-4.56,5.36,15.383,15.383,0,0,1-1.86.32L25.92.94C30.96.16,33.54-2.82,33.54-7.04Zm-14.7.5a6.3,6.3,0,0,1,5.08-5.8A30.02,30.02,0,0,1,22.86-7.5c-.82,2.7-1.6,3.96-2.44,3.96C19.64-3.54,18.84-4.52,18.84-6.54Zm-35.9,20.48c.52-.54.98-1.08,1.4-1.6.58.46,1.2,1.04,1.78,1.6Zm3.2,3.96v.72h-4.1V17.9Zm-4.16,2.9c.02-.26.04-.52.04-.76h4.12v.76Zm4.54,4.16v1.42h-3.38V24.96Zm.16-9.42V14.5c.42.44.78.84,1.06,1.16l1.52-1.76a39.452,39.452,0,0,0-4.18-3.6h-2.12a13.84,13.84,0,0,1-5.02,4.88,6.745,6.745,0,0,1,1.42,1.68c.22-.14.44-.3.66-.44v2.72c0,2.26-.22,5.46-1.98,7.76a7.487,7.487,0,0,1,1.56,1.42,9.49,9.49,0,0,0,1.54-2.92v3.3h2v-.62h3.38v.56h2.06V23.26h-6.9c.06-.26.1-.54.14-.8h6.46V16.24h-8a19.3,19.3,0,0,0,1.78-1.46v.76Zm5.02-3.06h-2.24V23.74H-8.3Zm2.12-2.02V25.88c0,.34-.14.46-.5.46-.38,0-1.54,0-2.74-.04a9.729,9.729,0,0,1,.78,2.42,8.837,8.837,0,0,0,3.72-.48c.8-.36,1.06-1.02,1.06-2.34V10.46Zm24.24,9.8v4.98H13.6V19.2h6.14V11.94h-2.5v4.94H13.6V10.26H11.16v6.62H7.72V11.94H5.36V19.2h5.8v6.04H6.98V20.26H4.56v8.48H6.98V27.58H18.06v1.14h2.48V20.26Z" transform="translate(815 1749)" fill="#fff"/>
  </g>
  <g id="グループ_413" data-name="グループ 413" transform="translate(-746 -1684)">
    <ellipse id="楕円形_42" data-name="楕円形 42" cx="68.5" cy="68" rx="68.5" ry="68" transform="translate(1036 1684)" fill="#0cb04b"/>
    <path id="パス_841" data-name="パス 841" d="M-30.16-4.02A12.66,12.66,0,0,1-34.4-.5a17.92,17.92,0,0,1,1.8,1.64,18.158,18.158,0,0,0,4.66-4.36Zm1.06-6.92a21.03,21.03,0,0,0,4.02-3.74,22.09,22.09,0,0,0,4.16,3.74Zm12.2,6.2V-6.98h-6.92V-8.8h3.84v-1.5a23.774,23.774,0,0,0,2.96,1.7,11.344,11.344,0,0,1,1.56-2.12,20.336,20.336,0,0,1-8.52-6.18h-2.4a21.586,21.586,0,0,1-8.08,6.4,11.581,11.581,0,0,1,1.44,1.94,24.3,24.3,0,0,0,2.78-1.6V-8.8h3.9v1.82h-6.52v2.24h6.52V-.88c0,.28-.1.36-.44.38-.32,0-1.44,0-2.44-.04a8.51,8.51,0,0,1,.96,2.3,8.689,8.689,0,0,0,3.36-.42c.84-.38,1.08-.98,1.08-2.18v-3.9Zm-5.52,1.8A30.79,30.79,0,0,1-18.1,1.1L-16-.3a31.7,31.7,0,0,0-4.48-3.86ZM.2-12.78V-16.9H-2.34v4.12H-8.46v2.44h6.02A12.2,12.2,0,0,1-9.08-.1,9.486,9.486,0,0,1-7.22,1.84C-1.6-1.34-.2-6.2.12-10.34h5.6C5.4-4.4,5-1.78,4.4-1.16a1.182,1.182,0,0,1-.94.32c-.52,0-1.7,0-2.96-.1a5.525,5.525,0,0,1,.82,2.46,20.341,20.341,0,0,0,3.2-.04A2.7,2.7,0,0,0,6.56.36c.88-1.04,1.28-4.04,1.68-12,.04-.32.06-1.14.06-1.14ZM33.54-7.04c0-4.36-3.12-7.8-8.08-7.8-5.18,0-9.18,3.94-9.18,8.56,0,3.38,1.84,5.82,4.06,5.82,2.18,0,3.9-2.48,5.1-6.52a40.447,40.447,0,0,0,1.2-5.42,4.944,4.944,0,0,1,4.2,5.28,5.427,5.427,0,0,1-4.56,5.36,15.383,15.383,0,0,1-1.86.32L25.92.94C30.96.16,33.54-2.82,33.54-7.04Zm-14.7.5a6.3,6.3,0,0,1,5.08-5.8A30.02,30.02,0,0,1,22.86-7.5c-.82,2.7-1.6,3.96-2.44,3.96C19.64-3.54,18.84-4.52,18.84-6.54ZM-15.74,12.32c-.86-.56-2.6-1.44-3.72-2l-1.34,1.72a41.389,41.389,0,0,1,3.64,2.2Zm-.96,5.4c-.88-.54-2.66-1.4-3.76-1.94l-1.28,1.76c1.18.64,2.9,1.58,3.72,2.16Zm-2.76,10.8c1.22-1.94,2.48-4.22,3.54-6.32l-1.74-1.6a59.11,59.11,0,0,1-3.8,6.3Zm12.98-2.76h-6V22.82h6Zm3.26-7.62V15.86H-8.3V13.12a27.29,27.29,0,0,0,4.34-1.18l-1.82-1.88a39.541,39.541,0,0,1-9.36,1.88,8.5,8.5,0,0,1,.7,2.04c1.24-.12,2.58-.26,3.88-.46v2.34h-5.32v2.28h5.32v2.52h-4.08v8.08h2.16v-.82h6v.72h2.26V20.66H-8.3V18.14ZM13.9,20.66V18.2h4.22v2.46Zm-6.22,0c.04-.74.06-1.46.06-2.1V18.2H11.5v2.46Zm3.82-7v2.32H7.74V13.66Zm6.62,2.32H13.9V13.66h4.22Zm2.36-4.58H5.38v7.14c0,2.8-.18,6.36-2.36,8.76A8.785,8.785,0,0,1,4.9,28.84,11.453,11.453,0,0,0,7.42,22.9H11.5v5.58h2.4V22.9h4.22v3c0,.36-.14.48-.52.48-.36,0-1.68.02-2.8-.04a8.992,8.992,0,0,1,.76,2.28,9.288,9.288,0,0,0,3.84-.42c.8-.36,1.08-1,1.08-2.28Z" transform="translate(1105 1749)" fill="#fff"/>
  </g>
  <g id="グループ_411" data-name="グループ 411" transform="translate(-734.523 -1669)">
    <path id="パス_135" data-name="パス 135" d="M9480.842,1465.19l26.283,24.674,26.281-24.674" transform="translate(-8558.842 238.81)" fill="none" stroke="#0077c0" stroke-width="5"/>
    <path id="パス_136" data-name="パス 136" d="M9480.842,1465.19l26.283,24.674,26.281-24.674" transform="translate(-8558.842 283.519)" fill="none" stroke="#0077c0" stroke-width="5"/>
    <path id="パス_137" data-name="パス 137" d="M9480.842,1465.19l26.283,24.674,26.281-24.674" transform="translate(-8558.842 328.227)" fill="none" stroke="#0077c0" stroke-width="5"/>
  </g>
</svg>
